<svg width="550" height="100" viewbox = "0 0 550 100"  xmlns="http://www.w3.org/2000/svg">

<!--
<json>
{
    "imgurl": "",
    "imgw": 2,
    "imgleft": -3,
    "imgtop": -2,
    "imgangle": 0,
    "svgwidth": 550,
    "svgheight": 100,
    "unit": 235.79476910000022,
    "x0": 581.3396100794496,
    "y0": 487.11287954303754,
    "x0rel": -102.66038992055041,
    "y0rel": 88.11287954303754,
    "glyph": "0336,0336,0330,0332,0332,0336,0336,0336,0332,0332,0332,0333,0337,0337,0337,01304,01335,01335,01366,01333,01333,01331,01367,",
    "table": []
}
</json>
-->
	<path d = "M99 79 L99 20 L40 20 L40 79 L99 79 Z" stroke = "black" stroke-width = "2" fill = "none" />    <circle cx="69" cy = "50" r = "29.474346137500028" stroke = "black" stroke-width = "2" fill = "none" />
    <line x1="69" y1="50" x2="69" y2="20" style="stroke:black;stroke-width:2" />
    <line x1="69" y1="50" x2="99" y2="50" style="stroke:black;stroke-width:2" />
    <line x1="69" y1="50" x2="69" y2="79" style="stroke:black;stroke-width:2" />
    <line x1="69" y1="50" x2="40" y2="50" style="stroke:black;stroke-width:2" />
    <circle cx="59" cy = "39" r = "7.368586534375007" stroke = "black" stroke-width = "2" fill = "none" />
    <circle cx="80" cy = "39" r = "7.368586534375007" stroke = "black" stroke-width = "2" fill = "none" />
    <circle cx="80" cy = "60" r = "7.368586534375007" stroke = "black" stroke-width = "2" fill = "none" />
    <circle cx="59" cy = "60" r = "7.368586534375007" stroke = "black" stroke-width = "2" fill = "none" />
	<path d = "M158 79 L158 20 L99 20 L99 79 L158 79 Z" stroke = "black" stroke-width = "2" fill = "none" />  <path d="M117.70733586076668 39.269086118104475           A14.737173068750014 14.737173068750014 0 0 1 138.54884588563246 39.269086118104475" fill = "none" stroke = "black" stroke-width = "2" />
  <path d="M117.70733586076668 60.11059614297027           A14.737173068750014 14.737173068750014 0 0 1 117.70733586076668 39.269086118104475" fill = "none" stroke = "black" stroke-width = "2" />
  <path d="M138.54884588563246 60.11059614297027           A14.737173068750014 14.737173068750014 0 0 1 117.70733586076668 60.11059614297027" fill = "none" stroke = "black" stroke-width = "2" />
    <line x1="128" y1="50" x2="139" y2="39" style="stroke:black;stroke-width:2" />
    <line x1="128" y1="28" x2="139" y2="38" style="stroke:black;stroke-width:2" />
	<path d = "M217 79 L217 20 L158 20 L158 79 L217 79 Z" stroke = "black" stroke-width = "2" fill = "none" />  <path d="M176.65602813576672 39.26908611810447           A14.737173068750014 14.737173068750014 0 0 1 197.4975381606325 39.26908611810448" fill = "none" stroke = "black" stroke-width = "2" />
  <path d="M176.65602813576672 60.11059614297028           A14.737173068750014 14.737173068750014 0 0 1 176.65602813576672 39.26908611810447" fill = "none" stroke = "black" stroke-width = "2" />
  <path d="M197.49753816063253 60.11059614297025           A14.737173068750014 14.737173068750014 0 0 1 176.65602813576672 60.11059614297028" fill = "none" stroke = "black" stroke-width = "2" />
    <line x1="187" y1="50" x2="197" y2="39" style="stroke:black;stroke-width:2" />
    <line x1="187" y1="28" x2="197" y2="38" style="stroke:black;stroke-width:2" />
	<path d = "M275 79 L275 20 L217 20 L217 79 L275 79 Z" stroke = "black" stroke-width = "2" fill = "none" />    <line x1="231" y1="64" x2="261" y2="64" style="stroke:black;stroke-width:2" />
<circle cx="231" cy = "64" r = "2" stroke = "black" stroke-width = "2" fill = "black" />
<path    d = "M231,64 C261,64 231,35 261,35" fill = "none" stroke-width = "2" stroke = "black" />	<path d = "M334 79 L334 20 L275 20 L275 79 L334 79 Z" stroke = "black" stroke-width = "2" fill = "none" />	<path d = "M290 57 L290 42 L305 42 L305 35 L312 42 L320 50 L312 57 L305 64 L305 57 L290 57 " stroke = "black" stroke-width = "2" fill = "none" />	<path d = "M393 79 L393 20 L334 20 L334 79 L393 79 Z" stroke = "black" stroke-width = "2" fill = "none" />	<path d = "M349 57 L349 42 L364 42 L364 35 L371 42 L379 50 L371 57 L364 64 L364 57 L349 57 " stroke = "black" stroke-width = "2" fill = "none" />	<path d = "M452 79 L452 20 L393 20 L393 79 L452 79 Z" stroke = "black" stroke-width = "2" fill = "none" />	<path d = "M416 35 L430 35 L430 50 L438 50 L430 57 L423 64 L416 57 L408 50 L416 50 L416 35 " stroke = "black" stroke-width = "2" fill = "none" />	<path d = "M511 79 L511 20 L452 20 L452 79 L511 79 Z" stroke = "black" stroke-width = "2" fill = "none" /><path    d = "M467,64 C497,64 467,35 497,35" fill = "none" stroke-width = "2" stroke = "black" /><circle cx="497" cy = "35" r = "2" stroke = "black" stroke-width = "2" fill = "black" />
    <line x1="497" y1="35" x2="467" y2="35" style="stroke:black;stroke-width:2" />
</svg>