<svg width="150" height="300" viewbox = "0 0 150 300"  xmlns="http://www.w3.org/2000/svg">

<!--
<json>
{
    "imgurl": "",
    "imgw": 2,
    "imgleft": -3,
    "imgtop": -2,
    "imgangle": 0,
    "svgwidth": 150,
    "svgheight": 300,
    "unit": 121.00000000000004,
    "x0": 622.6413015411266,
    "y0": 444.215839458194,
    "x0rel": -61.35869845887339,
    "y0rel": 45.21583945819401,
    "glyph": "0336,0336,0330,0330,0333,0336,0336,0331,0332,0337,0337,0337,0337,0331,0337,0321,0221,",
    "table": []
}
</json>
-->
	<path d = "M36 263  M36,263 C36,223 117,203 117,243  M117,243 C117,283 36,243 36,203  M36,203 C36,162 117,142 117,183  M117,183 C117,223 36,183 36,142  M36,142 C36,102 117,82 117,122  M117,122 C117,162 36,122 36,82  M36,82 C36,41 117,21 117,62  M117,62 C117,102 36,62 36,21 " stroke = "black" stroke-width = "6" fill = "none" /></svg>