<svg width="200" height="200" viewbox = "0 0 200 200"  xmlns="http://www.w3.org/2000/svg">

<!--
<json>
{
    "imgurl": "",
    "imgw": 2,
    "imgleft": -3,
    "imgtop": -2,
    "imgangle": 0,
    "svgwidth": 200,
    "svgheight": 200,
    "unit": 82.64462809917356,
    "x0": 676.2418561171551,
    "y0": 429.88302674557343,
    "x0rel": -7.758143882844934,
    "y0rel": 30.88302674557343,
    "glyph": "0331,0336,0330,0337,0321,0337,0221,",
    "table": []
}
</json>
-->
	<path d = "M92 172  M92,172 C92,145 147,131 147,158  M147,158 C147,186 92,158 92,131 Z" stroke = "black" stroke-width = "5" fill = "none" />	<path d = "M92 131  M92,131 C92,103 147,90 147,117  M147,117 C147,145 92,117 92,90 Z" stroke = "black" stroke-width = "5" fill = "none" />	<path d = "M92 90  M92,90 C92,62 147,48 147,76  M147,76 C147,103 92,76 92,48 Z" stroke = "black" stroke-width = "5" fill = "none" />	<path d = "M92 48  M92,48 C92,21 147,7 147,34  M147,34 C147,62 92,34 92,7 Z" stroke = "black" stroke-width = "5" fill = "none" /></svg>