<svg width="200" height="400" viewbox = "0 0 200 400"  xmlns="http://www.w3.org/2000/svg">

<!--
<json>
{
    "imgurl": "",
    "imgw": 2,
    "imgleft": -3,
    "imgtop": -2,
    "imgangle": 0,
    "svgwidth": 200,
    "svgheight": 400,
    "unit": 121.00000000000004,
    "x0": 622.6413015411266,
    "y0": 444.215839458194,
    "x0rel": -61.35869845887339,
    "y0rel": 45.21583945819401,
    "glyph": "0331,0336,0336,0321,0362,0245,0245,0245,0245,0245,0245,0245,0245,0245,0245,0245,0245,0245,0245,0364,0335,0335,0332,0332,0332,0330,0330,0330,0336,0330,0331,0331,0332,0337,0362,0245,0245,0245,0245,0245,0245,0245,0245,0364,0335,0335,0332,0332,0336,0336,0332,0331,0331,0331,0333,0337,0337,0337,0337,0337,0336,0337,0342,0336,0336,0336,0336,0333,0337,0337,0337,0337,0342,",
    "table": []
}
</json>
-->
	<path d = "M39 366  M39,366 C39,351 69,344 69,359  M69,359 C69,374 39,359 39,344  M39,344 C39,328 69,321 69,336  M69,336 C69,351 39,336 39,321  M39,321 C39,306 69,298 69,313  M69,313 C69,328 39,313 39,298  M39,298 C39,283 69,275 69,291  M69,291 C69,306 39,291 39,275  M39,275 C39,260 69,253 69,268  M69,268 C69,283 39,268 39,253  M39,253 C39,238 69,230 69,245  M69,245 C69,260 39,245 39,230  M39,230 C39,215 69,207 69,223  M69,223 C69,238 39,223 39,207  M39,207 C39,192 69,185 69,200  M69,200 C69,215 39,200 39,185  M39,185 C39,170 69,162 69,177  M69,177 C69,192 39,177 39,162  M39,162 C39,147 69,139 69,154  M69,154 C69,170 39,154 39,139  M39,139 C39,124 69,117 69,132  M69,132 C69,147 39,132 39,117  M39,117 C39,102 69,94 69,109  M69,109 C69,124 39,109 39,94  M39,94 C39,79 69,71 69,86  M69,86 C69,102 39,86 39,71  M39,71 C39,56 69,49 69,64  M69,64 C69,79 39,64 39,49 " stroke = "black" stroke-width = "3" fill = "none" />	<path d = "M145 124  M145,124 C145,139 114,147 114,132  M114,132 C114,117 145,132 145,147  M145,147 C145,162 114,170 114,154  M114,154 C114,139 145,154 145,170  M145,170 C145,185 114,192 114,177  M114,177 C114,162 145,177 145,192  M145,192 C145,207 114,215 114,200  M114,200 C114,185 145,200 145,215  M145,215 C145,230 114,238 114,223  M114,223 C114,207 145,223 145,238  M145,238 C145,253 114,260 114,245  M114,245 C114,230 145,245 145,260  M145,260 C145,275 114,283 114,268  M114,268 C114,253 145,268 145,283  M145,283 C145,298 114,306 114,291  M114,291 C114,275 145,291 145,306 " stroke = "black" stroke-width = "3" fill = "none" />    <line x1="84" y1="328" x2="84" y2="86" style="stroke:black;stroke-width:3" />
    <line x1="99" y1="328" x2="99" y2="86" style="stroke:black;stroke-width:3" />
</svg>