<svg width="200" height="400" viewbox = "0 0 200 400"  xmlns="http://www.w3.org/2000/svg">

<!--
<json>
{
    "imgurl": "",
    "imgw": 2,
    "imgleft": -3,
    "imgtop": -2,
    "imgangle": 0,
    "svgwidth": 200,
    "svgheight": 400,
    "unit": 121.00000000000004,
    "x0": 622.6413015411266,
    "y0": 444.215839458194,
    "x0rel": -61.35869845887339,
    "y0rel": 45.21583945819401,
    "glyph": "0336,0336,0336,0331,0337,0337,0337,0331,0321,0337,0337,0210,0210,0221,",
    "table": []
}
</json>
-->
	<path d = "M39 381  M39,381 C39,320 162,289 162,351  M162,351 C162,412 39,351 39,289  M39,289 C39,227 162,196 162,258  M162,258 C162,320 39,258 39,196  M39,196 C39,135 162,104 162,166  M162,166 C162,227 39,166 39,104  M39,104 C39,42 162,12 162,73  M162,73 C162,135 39,73 39,12 " stroke = "black" stroke-width = "6" fill = "none" /></svg>