<svg width="400" height="400" viewbox = "0 0 400 400"  xmlns="http://www.w3.org/2000/svg">

<!--
<topfunctions>



function XYofT(){
    T = plotparams.g*t;
    tau = Math.abs(0.25*funcparams.T/Math.log(2));
    X = Math.exp(-T/tau)*Math.cos(2*Math.PI*T/funcparams.T);
    Y = Math.exp(-T/tau)*Math.sin(2*Math.PI*T/funcparams.T);
    y = plotparams.y0 - plotparams.G*(Y - funcparams.Y0);
    x = plotparams.x0 - plotparams.G*(X - funcparams.X0);    
}


function plotfunction(){


    currentStroke = "blue";
    currentLineWidth = 4;
    ctx.strokeStyle = currentStroke;
    ctx.lineWidth = currentLineWidth;
    ctx.beginPath();	
    x = 0;
    y = 0;
    t= 0;
    XYofT();
    currentSVG += "	<path d = \"M";
    currentSVG += Math.round(x).toString() + " ";
    currentSVG += Math.round(y).toString() + " ";
    for(t = 1;t < plotparams.duration;t++){
        ctx.moveTo(x,y);
        XYofT();
        ctx.lineTo(x,y);
        currentSVG += "L" + x + " " + y + " ";
    }
    ctx.stroke();
    currentSVG += "\""+ " stroke = \"" + currentStroke + "\" stroke-width = \"" + currentLineWidth.toString() + "\" fill = \"" + "none" + "\" "+"/>";


}
























</topfunctions>
-->

<!--
<imgurl>
../symbol/svg/svg1531522267.svg
</imgurl>
-->

<!--
<currentjson>
{
    "constants": {
        "phi": 1.618
    },
    "imgurl": "../symbol/svg/svg1531522267.svg",
    "plotparams": {
        "G": 3731.9110786231904,
        "g": 0.017985878990921366,
        "duration": 545.4545454545454,
        "plotwidth": 400,
        "plotheight": 400,
        "x0": 305.01437587440824,
        "y0": 149.4871798375907
    },
    "funcparams": {
        "T": 1,
        "X0": 0,
        "Y0": 0
    }
}
</currentjson>
-->

<!--
<equation>


<h2>Binary Spiral</h2>
<p>
    Radius reduced by 2 on every quarter turn.  One full turn takes T, so a quarter turn is $\frac{T}{4}$.  If we consider a quarter rotation starting at time $t_0$ and going to time $t_0 + \frac{T}{4}$ that should go down by 2.  So  
    $$
    \frac{e^{-t_0/\tau}}{e^{-(t_0 + \frac{T}{4})/\tau}}=2
    $$
    $$
    e^{T/4\tau} = 2
    $$
    $$
    \frac{T}{4\tau} = \ln{2}
    $$
    $$
    \tau = \frac{T}{4\ln{2}}
    $$
    
</p>
<p class="bigeq">
$$
(X,Y) = (e^{-t/\tau}\cos{\frac{2\pi t}{T}},e^{-t/\tau}\sin{\frac{2\pi t}{T}})
$$
</p>
<p></p>

$$
X = g(x - x_0) - X_0
$$
$$
Y = f(X)
$$
    
$$
y = y_0 - G(Y - Y_0)
$$


<p>
    X and Y, and $X_0$ and $Y_0$ in physical units of the System. x and y and x0 and y0 in pixels.  G is in pixels per Y unit and g is in X units per pixel. 
</p>



</equation>
-->
	<path d = "M-3427 149 L-3222.7131377367978 -250.8822233049205 L-2986.748341003868 -607.440908382028 L-2725.4412859687295 -919.176309955996 L-2444.987282064417 -1185.8220532422743 L-2151.271252964903 -1407.7909869532639 L-1849.8118497670964 -1586.104722017054 L-1545.7161811757633 -1722.3210297477444 L-1243.6448094484533 -1818.4603556033635 L-947.7865453133422 -1876.9325982583266 L-661.8424772664296 -1900.4651907343268 L-389.0185903203757 -1892.0334030392382 L-132.02626592210282 -1854.7936662682932 L106.91009231274776 -1792.0205983675232 L326.0390940466233 -1707.0482935076095 L524.062863074631 -1603.216321839185 L700.1128117426156 -1483.8207756769864 L853.7214889200329 -1352.0705930729866 L984.791282527113 -1211.0492912769575 L1093.5607290998696 -1063.6821515458316 L1180.5691461540616 -912.7088137663006 L1246.6202594918282 -760.661164838858 L1292.7454483694519 -609.8463390116523 L1320.1671778578134 -462.33459147157373 L1330.263130969769 -319.9517584801645 L1324.5314943249787 -184.27597803844674 L1304.5577913197897 -56.63831422032945 L1271.9835969297358 61.87309442680916 L1228.4774092664843 170.4057570927611 L1175.7078956162097 268.33282612658286 L1115.3196755818603 355.2407696012956 L1048.91175171945 430.91512029866215 L978.0186491831662 495.3246903888792 L904.0942807660138 548.6046263811141 L828.4985126406164 591.0386601847306 L752.4863692805238 623.0408900026291 L677.1997836057567 645.1373999192776 L603.6617704013175 657.9480000673755 L532.7728774884677 662.1683407511573 L465.30974990730283 658.5526244294974 L401.92562736171044 647.8971095377007 L343.1525842018231 631.0245702297689 L289.40531405100774 608.7698466840752 L240.98625756692422 581.9665920181899 L198.09187147447832 551.435294437953 L160.81983961788498 517.9726272877695 L129.17703203046827 482.3421554111712 L103.08802558741141 445.2664038633611 L82.40400935887544 407.42027468567517 L66.91190899173807 369.42577925730967 L56.34357699761884 331.8480377432826 L50.38490940379691 295.1924833827628 L48.684763537419315 259.9031977974994 L50.863566484708315 226.36229410405653 L56.52151873803015 194.89025731627171 L65.24631247860324 165.7471462325248 L76.62029862812795 139.13455760231872 L90.22705104940945 115.19825172814107 L105.65728991913531 94.03133863811183 L122.51413919480416 75.67792540926169 L140.4177051359535 60.137127970399874 L159.00897392440964 47.367354603738505 L177.95303648903408 37.29077323097766 L196.94165762865455 29.797880249172152 L215.69521441397166 24.75209501485793 L233.96403562539064 21.994310907707188 L251.52917965608043 21.34734109090411 L268.2026929006587 22.62020448673283 L283.8273941957661 25.61220497477062 L298.27623342722035 30.116764279649104 L311.4512740271619 35.924976340186674 L323.28234981947276 42.82885804835661 L333.7254466050657 50.624278033782005 L342.76085808745046 59.11355157816544 L350.3911643035445 68.1076957172657 L356.6390787269627 77.4283440804239 L361.5452077333584 86.90932599520531 L365.16576324127425 96.39791882414227 L367.57026614694325 105.75578638853437 L368.8392747341445 114.85961966672913 L369.06216863345094 123.60149873569489 L368.3350151973653 131.88899716695218 L366.7585414123218 139.64505180972142 L364.43623074321323 146.80762211990236 L361.47256065311535 153.32916395253264 L357.97139300631693 159.17594306097322 L354.03452618666347 164.32721347465503 L349.7604145794945 168.77428549751866 L345.2430581020191 172.51950732153296 L340.57106174589774 175.57518322490697 L335.8268626335375 177.96245006399627 L331.0861198973095 179.71013231209213 L326.4172607747271 180.85359428693536 L321.8811746741605 181.43360648003306 L317.5310456023196 181.49524109090348 L313.412312250149 181.08681001218395 L309.56274419833767 180.25885663852947 L306.01262211484436 179.06321101207084 L302.7850094598218 177.55211599564865 L299.89610307125815 175.77743040484853 L297.35565005919796 173.78991335073496 L295.1674186681106 171.6385924637754 L293.32971115565374 169.37021719942044 L291.8359072612084 167.0287970779108 L290.67502747855883 164.6552234930677 L289.8323060836724 162.28697264240915 L289.289764680937 159.9578861867656 L289.0267779004612 157.6980254422117 L289.0206237871303 155.53359423909578 L289.2470123521888 153.486925048883 L289.6805866945969 151.5765225744667 L290.29539202811503 149.8171587171682 L291.0653088582566 148.22001266629968 L291.9644474297036 146.7928497964073 L292.967501399797 145.5402330939065 L294.050059479121 144.4637609589978 L295.1888745093103 143.56232543039235 L296.3620901157999 142.83238514920902 L297.54942567545453 142.26824770414623 L298.7323208733437 141.86235637256172 L299.89404158805024 141.60557668156181 L301.0197492406498 141.48747865017083 L302.09653606971347 141.4966110291651 L303.1134290551313 141.62076432085547 L304.06136540978565 141.84721982926078 L304.9331426933774 142.16298245471302 L305.7233466808392 142.55499539967911 L306.4282601430604 143.01033538894183 L307.04575567473717 143.51638742247601 L307.57517563796193 144.06099846937906 L308.0172021857483 144.6326098727921 L308.3737201921874 145.2203685663443 L308.6476757504911 145.81421750040667 L308.8429327118429 146.40496594015764 L308.964129531656 146.98434052654406 L309.0165384702263 147.5450181856339 L309.00592896631866 148.0806421320733 L308.9384367690827 148.5858223393015 L308.82044017969105 149.05612194416085 L308.65844452270227 149.4880311182213 L308.4589757414821 149.8789299744588 L308.2284837947943 150.2270420880477 L307.9732563252554 150.5313801962921 L307.6993428766934 150.7916856075903 L307.41248975815876 151.00836279534454 L307.1180854886549 151.1824105824625 L306.821116609453 151.31535123811668 L306.52613352073195 151.40915871325083 L306.2372258864807 151.46618713739088 L305.958007056122 151.48910058897286 L305.69160687290145 151.4808050368477 L305.44067217724654 151.44438323392632 L305.207374267371 151.38303322698226 L304.9934225485193 151.30001103115268 L304.8000835854559 151.19857790520956 L304.62820476898753 151.08195255555427 L304.47824181530535 150.95326849427622 L304.350289335501 150.81553668047783 L304.24411374047514 150.67161348517914 L304.15918778233475 150.52417393908098 L304.09472607598315 150.37569014971345 L304.04972099268747 150.22841471029503 L304.02297836974856 150.08436886709893 L304.01315253582874 149.94533516524555 L304.0187802089223 149.8128542544754 L304.038312882356 149.68822550635255 L304.0701473726437 149.5725110721558 L304.11265426063807 149.4665429960065 L304.1642040134705 149.37093299005957 L304.22319062857594 149.28608447729738 L304.28805269210176 149.2122065120221 L304.35729179172347 149.14932919792022 L304.42948826795106 149.09732023793688 L304.50331432812135 149.05590226850117 L304.577544583224 149.0246706522504 L304.6510640993767 149.0031114276824 L304.72287408309444 148.9906191405145 L304.7920953425049 148.98651430936854 L304.85796968542627 148.99006030718678 L304.9198594298678 149.00047946900636 L304.9772452132281 149.01696826591657 L305.0297222934551 149.03871141377027 L305.07699553896 149.06489481314568 L305.1188733044138 149.09471724383044 L305.15526038700114 149.1274007624458 L305.1861502525724 149.16219977551515 L305.21161671374284 149.19840878211963 L305.2318052326532 149.2353688001351 L305.2469240101581 149.2724725078082 L305.2572350109485 149.30916814804618 L305.2630450608516 149.34496225624304 L305.26469713857637 149.37942128375306 L305.26256196974066 149.41217219829443 L305.2570300164009 149.44290214968797 L305.2485039407178 149.47135729449954 L305.23739160705253 149.4973408764714 L305.22409967287405 149.5207106612251 L305.20902780553877 149.54137582373414 L305.19256354940694 149.55929338565306 L305.17507785600645 149.57446429690063 L305.1569212791328 149.58692925209496 L305.1384208269497 149.59676432768376 L305.1198774543811 149.60407652006447 L305.1015641713835 149.60899925880386 L305.0837247360745 149.61168796239264 L305.06657289615407 149.61231569695263 L305.0502921375755 149.61106899108663 L305.0350358959618 149.60814385274603 L305.02092818377514 149.6037420267089 L305.0080645846806 149.598067524106 L304.9965135658269 149.59132344850514 L304.9863180588344 149.58370913643378 L304.97749726105553 149.57541762396505 L304.9700486100742 149.56663344515778 L304.96394988636376 149.5575307627801 L304.9591614014444 149.54827182688496 L304.95562823168694 149.53900575247306 L304.95328246103554 149.52986760368157 L304.95204539927477 149.52097776868501 L304.9518297459912 149.51244160677854 L304.9525416740007 149.5043493469261 L304.95408280966893 149.49677621537467 L304.9563520911925 149.48978276874087 L304.9592474894734 149.48341540823435 L304.9626675796725 149.4777070503669 L304.96651295482326 149.47267792956538 L304.9706874759962 149.46833650852787 L304.9750993563976 149.46468047289244 L304.97966207944364 149.46169778778972 L304.98429515325387 149.45936779508213 L304.98892470615016 149.45766233151375 L304.9934839296152 149.45654684957006 L304.99791337676703 149.45598152453368 L305.0021611257356 149.45592233299138 L305.00618281839485 149.45632208986 L305.00994158572104 149.4571314328294 L305.0134078716211 149.45829974493552 L305.016559167424 149.4597760077569 L305.0193796693656 149.46150957944596 L305.02185987134357 149.46345089344587 L305.02399610499486 149.4655520752882 L305.0257900387639 149.46776747630233 L305.02724814712127 149.47005412438256 L305.02838116046325 149.47237209314903 L305.0292035055041 149.4746847918942 L305.02973274518 149.47695917962966 L305.0299890262344 149.4791659073332 L305.02999454176586 149.4812793931482 L305.02977301511515 149.48327783580993 L305.02934921054873 149.4851431719668 L305.02874847529387 149.48686098334184 L305.0279963165894 149.48842035984165 L305.0271180165641 149.48981372478025 L305.026138286936 149.49103662834827 L305.02508096476146 149.49208751533732 L305.0239687497502 149.4929674729322 L305.02282298300946 149.49367996412025 L305.0216634664947 149.49423055194987 L305.02050832192094 149.4946266195059 L305.019373887435 149.4948770900695 L305.0182746499633 149.49499215150357 L305.0172232108299 149.49498298846 L305.01623028198475 149.4948615255501 L305.0153047099921 149.49464018416202 L305.0144535247956 149.4943316551573 L305.01368201020085 149.49394868923508 L305.01299379299223 149.49350390632804 L305.0123909476222 149.49300962498722 L305.01187411347684 149.49247771233317 L305.0114426218231 149.4919194547973 L305.01109462967787 149.4913454495545 L305.0108272579994 149.49076551625762 L305.01063673178817 149.49018862842686 L305.01051851988234 149.48962286362328 L305.0104674724506 149.48907537134627 L305.0104779544064 149.48855235743792 L305.0105439731954 149.48805908365372 L305.010659299638 149.48759988096612 L305.0108175807327 149.48717817510465 L305.01101244354726 149.48679652280032 L305.01123758953815 149.4864566571928 L305.0114868788373 149.4861595408722 L305.011754404237 149.485905425061 L305.0120345547784 149.4856939134956 L305.0123220690062 149.48552402963438 L305.0126120781005 149.4853942859022 L305.01290013921965 149.48530275377334 L305.0131822594999 149.48524713359734 L305.0134549112513 149.48522482317912 L305.0137150389642 149.48523298423711 L305.0139600588033 149.48526860597707 L305.0141878513083 149.48532856513316 L305.014396748053 149.485409681941 L305.01458551302915 149.48550877161708 L305.0147533195262 149.48562269102416 L305.01489972326954 149.48574838030345 L305.0150246325618 149.48588289934673 L305.01512827614545 149.48602345907014 L305.0152111694681 149.4861674475286 L305.01527407999214 149.48631245098264 L305.0153179921425 149.4864562700909 L305.0153440724344 149.48659693145595 L305.01535363527125 149.48673269479755 L305.01534810984333 149.4868620560638 L305.0153290085048 149.48698374682127 L305.01529789694536 149.48709673028546 L305.0152563664203 149.48720019436877 L305.01520600824585 149.48729354212932 L305.0151483907142 149.48737638000637 L305.01508503853404 149.4874485042225 L305.01501741485464 149.48750988572445 L305.0149469058891 149.48756065401903 L305.0148748081129 149.4876010802441 L305.01480231797944 149.4876315597921 L305.01473052406175 149.48765259478114 L305.0146604015054 149.487664776642 L305.0145928086528 149.4876687690629 L305.0145284856815 149.48766529150495 L305.0144680550863 149.48765510347377 L305.01441202382165 149.4876389897031 L305.01436078691665 149.4876177463791 L305.01431463237043 149.48759216850613 L305.0142737471345 149.4875630384888 L305.01423822399335 149.48753111598083 L305.01420806915723 149.48749712902728 L305.01418321039006 149.48746176650602 L305.01416350550323 149.48742567185474 L305.01414875105803 149.48738943805245 L305.0141386911301 149.4873536038091 L305.0141330260032 149.48731865090411 L305.0141314206728 149.48728500260287 L305.0141335130544 149.4872530230726 L305.01413892180534 149.48722301771053 L305.01414725368346 149.48719523429318 L305.01415811038 149.4871698648525 L305.01417109477694 149.48714704818218 L305.01418581659374 149.4871268728782 L305.0142018973982 149.48710938081888 L305.0142189749707 149.48709457099204 L305.014236707018 149.487082403581 L305.01425477424647 149.4870728042254 L305.01427288280956 149.48706566837868 L305.014290766154 149.48706086568973 L305.0143081862946 149.48705824434268 L305.01432493455445 149.48705763529634 L305.0143408318091 149.48705885637077 L305.0143557282791 149.48706171613674 L305.0143695029172 149.48706601756984 L305.0143820624361 149.48707156143922 L305.01439334002646 149.4870781494064 L305.0144032938128 149.48708558681702 L305.0144119050936 149.4870936851744 L305.01441917641307 149.48710226428864 L305.01442512950746 149.4871111541015 L305.01442980316807 149.4871201961911 L305.01443325105976 149.48712924496488 L305.0144355395307 149.48713816855326 L305.01443674544646 149.48714684941982 L305.0144369540765 149.48715518470513 L305.01443625706 149.48716308632544 L305.0144347504724 149.48717048084762 L305.0144325330104 149.48717730916357 L305.01442970431214 149.48718352598746 L305.0144263634225 149.48718909920078 L305.01442260741334 149.48719400906802 L305.0144185301625 149.4871982473476 L305.01441422129585 149.4872018163204 L305.0144097652907 149.4872047277577 L305.0144052407395 149.48720700184975 L305.0144007197689 149.48720866611376 L305.01439626760686 149.48720975429927 L305.0143919422919 149.4872103053072 L305.01438779451377 149.48721036213652 L305.01438386757565 149.48720997087182 L305.0143801974675 149.4872091797219 L305.0143768130382 149.48720803811906 L305.0143737362549 149.48720659588597 L305.01437098253797 149.48720490247604 L305.0143685611583 149.4872030062913 L305.014366475687 149.48720095408018 L305.01436472448455 149.48719879041647 L305.014363301219 149.48719655725935 L305.0143621954035 149.48719429359292 L305.01436139294253 149.48719203514332 L305.014360876679 149.48718981416985 L305.0143606269337 149.48718765932605 L305.0143606220301 149.48718559558662 L305.01436083879827 149.4871836442342 L305.01436125305275 149.48718182290136 L305.0143618400396 149.4871801456612 L305.0143625748496 149.48717862316116 L305.01436343279386 149.48717726279386 L305.0143643897414 149.48717606889872 L305.01436542241584 149.4871750429889 L305.014366508652 149.4871741839976 L305.01436762761205 149.48717348853853 L305.0143687599612 149.48717295117504 L305.0143698880061 149.48717256469368 L305.0143709957952 149.4871723203775 L305.01437206918484 149.48717220827518 L305.01437309587294 149.4871722174624 L305.0143740654023 149.48717233629276 L305.0143749691375 149.48717255263531 L305.014375800217 149.48717285409626 L305.01437655348417 149.48717322822384 L305.01437722540055 149.48717366269435 L305.01437781394327 149.48717414547872 L305.01437831849074 149.487174664989 L305.01437873969854 149.4871752102046 L305.0143790793686 149.48717577077818 L305.0143793403146 149.4871763371219 L305.01437952622456 149.48717690047428 L305.0143796415249 149.48717745294897 L305.0143796912459 149.48717798756593 L305.01437968089135 149.48717849826664 L305.014379616314 149.48717897991457 L305.0143795035974 149.48717942828216 L305.01437934894574 149.48717984002573 L305.0143791585826 149.48718021265017 L305.0143789386586 149.48718054446462 L305.01437869516934 149.48718083453048 L305.01437843388305 149.48718108260385 L305.0143781602785 149.4871812890729 L305.01437787949305 149.48718145489244 L305.01437759628067 149.48718158151607 L305.01437731497913 149.487181670828 L305.01437703948676 149.4871817250746 L305.01437677324765 149.4871817467977 L305.0143765192447 149.4871817387694 L305.01437628000036 149.48718170393025 L305.0143760575833 149.48718164533045 L305.01437585362214 149.48718156607532 L305.01437566932293 149.487181469275 L305.0143755054923 149.48718135799876 L305.0143753625633 149.48718123523457 L305.0143752406248 149.48718110385337 L305.0143751394529 149.48718096657853 L305.0143750585436 149.4871808259604 L305.01437499714694 149.4871806843557 L305.0143749543012 149.48718054391182 L305.01437492886686 149.48718040655544 L305.0143749195601 149.48718027398553 L305.01437492498496 149.48718014767044 L305.01437494366445 149.48718002884843 L305.0143749740695 149.4871799185315 L305.0143750146461 149.48717981751224 L305.0143750638402 149.4871797263732 L305.0143751201204 149.48717964549832 L305.0143751819978 149.48717957508623 L305.0143752480438 149.48717951516497 L305.0143753169047 149.48717946560774 L305.0143753873146 149.48717942614954 L305.0143754581054 149.48717939640395 L305.01437552821426 149.48717937588046 L305.01437559668904 149.48717936400132 L305.01437566269175 149.48717936011832 L305.0143757254999 149.48717936352867 L305.0143757845058 149.48717937349068 L305.01437583921444 149.48717938923795 L305.0143758892405 149.48717940999293 L305.0143759343028 149.48717943497928 L305.01437597421904 149.48717946343297 L305.01437600889875 149.48717949461218 L305.014376038336 149.487179527806 L305.0143760626016 149.48717956234182 L305.0143760818344 149.48717959759136 L305.0143760962333 149.48717963297565 L305.0143761060483 149.48717966796872 L305.0143761115721 149.4871797021002 L305.01437611313196 149.48717973495684 L305.01437611108156 149.48717976618315 L305.01437610579325 149.487179795481 L305.01437609765117 149.48717982260857 L305.01437608704424 149.48717984737837 L305.01437607436026 149.48717986965502 L305.01437605998035 149.48717988935206 L305.01437604427406 149.48717990642874 L305.0143760275951 149.48717992088606 L305.01437601027766 149.48717993276304 L305.0143759926335 149.48717994213231 L305.0143759749496 149.48717994909606 L305.01437595748604 149.48717995378163 L305.01437594047536 149.48717995633731 L305.01437592412117 149.4871799569282 L305.0143759085984 149.48717995573224 L305.0143758940532 149.48717995293637 L305.0143758806038 149.48717994873306 L305.0143758683412 149.48717994331682 L305.01437585733055 149.48717993688135 L305.01437584761277 149.48717992961673 L305.014375839206 149.48717992170702 L305.0143758321078 149.4871799133282 L305.0143758262968 149.48717990464627 L305.01437582173526 149.48717989581596 L305.0143758183706 149.4871798869794 L305.014375816138 149.48717987826532 L305.0143758149625 149.48717986978852 L305.0143758147607 149.48717986164937 L305.0143758154431 149.4871798539339 L305.0143758169159 149.4871798467138 L305.0143758190827 149.48717984004668 L305.0143758218462 149.48717983397685 L305.01437582510977 149.48717982853557 L305.0143758287785 149.48717982374214 L305.0143758327607 149.48717981960453 L305.014375836969 149.48717981612057 L305.01437584132077 149.4871798132787 L305.0143758457393 149.48717981105915 L305.0143758501543 149.48717980943508 L305.0143758545019 149.48717980837353 L305.01437585872554 149.48717980783647 L305.0143758627757 149.48717980778193 L305.0143758666101 149.48717980816488 L305.01437587019365 149.48717980893824 L305.0143758734981 149.48717981005376 L305.0143758765022 149.48717981146274 L305.0143758791907 149.4871798131169 L305.01437588155466 149.487179814969 L305.01437588359056 149.4871798169734 L305.01437588530007 149.48717981908652 L305.0143758866893 149.48717982126746 L305.01437588776855 149.4871798234781 L305.0143758885516 149.48717982568357 L305.0143758890552 149.48717982785237 L305.0143758892986 149.48717982995655 L305.0143758893029 149.48717983197173 L305.0143758890908 149.4871798338771 L305.0143758886859 149.48717983565547 L305.01437588811234 149.4871798372931 L305.01437588739446 149.48717983877958 L305.0143758865564 149.48717984010773 L305.01437588562175 149.4871798412733 L305.0143758846131 149.48717984227483 L305.01437588355225 149.48717984311335 L305.0143758824595 149.48717984379218 L305.01437588135366 149.48717984431664 L305.0143758802521 149.48717984469377 L305.0143758791703 149.4871798449321 L305.01437587812217 149.4871798450413 L305.0143758771196 149.4871798450321 L305.01437587617295 149.48717984491586 L305.01437587529057 149.4871798447044 L305.0143758744791 149.48717984440984 L305.01437587374363 149.48717984404433 L305.01437587308766 149.48717984361994 L305.0143758725131 149.4871798431484 " stroke = "blue" stroke-width = "4" fill = "none" /></svg>