<svg width="500" height="500" viewbox = "0 0 500 500"  xmlns="http://www.w3.org/2000/svg">

<!--
<json>
{
    "imgurl": "",
    "imgw": 2,
    "imgleft": -1,
    "imgtop": -1,
    "imgangle": 0,
    "svgwidth": 500,
    "svgheight": 500,
    "unit": 100,
    "x0": 684,
    "y0": 399,
    "x0rel": 0,
    "y0rel": 0,
    "glyph": "0336,0333,0337,0331,0334,0337,0335,0200,0350,0334,0343,0335,0304,0311,0330,0336,0331,0335,0200,0350,0334,0343,0335,0304,0330,0336,0331,0335,0200,0350,0334,0343,0335,0304,0330,0336,0331,0335,0200,0350,0334,0343,0335,0304,0330,0336,0331,0335,0200,0350,0334,0343,0335,",
    "table": []
}
</json>
-->
	<path d = "M300 350 L300 150 L100 150 L100 350 L300 350 Z" stroke = "black" stroke-width = "4" fill = "none" />  <path d="M99.99999999999994 350           A200 200 0 0 1 300.00000000000017 150.00000000000006" fill = "none" stroke = "black" stroke-width = "4" />
	<path d = "M300 274 L424 274 L424 150 L300 150 L300 274 Z" stroke = "black" stroke-width = "4" fill = "none" />  <path d="M299.99999999999994 150.0000000000001           A123.60679774997897 123.60679774997897 0 0 1 423.6067977499791 273.60679774997914" fill = "none" stroke = "black" stroke-width = "4" />
	<path d = "M347 274 L347 350 L424 350 L424 274 L347 274 Z" stroke = "black" stroke-width = "4" fill = "none" />  <path d="M423.6067977499791 273.60679774997914           A76.39320225002102 76.39320225002102 0 0 1 347.2135954999579 350.0000000000001" fill = "none" stroke = "black" stroke-width = "4" />
	<path d = "M347 303 L300 303 L300 350 L347 350 L347 303 Z" stroke = "black" stroke-width = "4" fill = "none" />  <path d="M347.21359549995805 350.00000000000006           A47.21359549995793 47.21359549995793 0 0 1 299.9999999999999 302.78640450004224" fill = "none" stroke = "black" stroke-width = "4" />
	<path d = "M329 303 L329 274 L300 274 L300 303 L329 303 Z" stroke = "black" stroke-width = "4" fill = "none" />  <path d="M299.99999999999994 302.78640450004235           A29.179606750063087 29.179606750063087 0 0 1 329.1796067500628 273.60679774997897" fill = "none" stroke = "black" stroke-width = "4" />
</svg>