<svg width="400" height="400" viewbox = "0 0 400 400"  xmlns="http://www.w3.org/2000/svg">

<!--
<topfunctions>



function YofX(){
    X = plotparams.g*(x - plotparams.x0) - funcparams.X0;
    Y = funcparams.G*(funcparams.Tn +  (X - funcparams.f)/Math.tanh( (X - funcparams.f)/funcparams.T) +  (X + funcparams.f)/Math.tanh( (X + funcparams.f)/funcparams.T));
    
    y = plotparams.y0 - plotparams.G*(Y - funcparams.Y0);
}



function plotfunction(){
/*

    currentStroke = "blue";
    currentLineWidth = 4;
    ctx.strokeStyle = currentStroke;
    ctx.lineWidth = currentLineWidth;
    ctx.beginPath();	
    x = 0;
    y = 0;
    t= 0;
    XYofT();
    currentSVG += "	<path d = \"M";
    currentSVG += Math.round(x).toString() + " ";
    currentSVG += Math.round(y).toString() + " ";
    for(t = 1;t < plotparams.duration;t++){
        ctx.moveTo(x,y);
        XYofT();
        ctx.lineTo(x,y);
        currentSVG += "L" + x + " " + y + " ";
    }
    ctx.stroke();
    currentSVG += "\""+ " stroke = \"" + currentStroke + "\" stroke-width = \"" + currentLineWidth.toString() + "\" fill = \"" + "none" + "\" "+"/>";


    /*plot one function:*/
    currentStroke = "blue";
    currentLineWidth = 4;
    ctx.strokeStyle = currentStroke;
    ctx.lineWidth = currentLineWidth;
    ctx.beginPath();	
    x = 0;
    YofX();
    currentSVG += "	<path d = \"M";
    currentSVG += Math.round(x).toString() + " ";
    currentSVG += Math.round(y).toString() + " ";
    for(x = 1;x < plotparams.plotwidth;x++){
        ctx.moveTo(x-1,y);
        YofX();
        ctx.lineTo(x,y);
        currentSVG += "L" + x + " " + y + " ";
    }
    ctx.stroke();
    currentSVG += "\""+ " stroke = \"" + currentStroke + "\" stroke-width = \"" + currentLineWidth.toString() + "\" fill = \"" + "none" + "\" "+"/>";
    /*finish plot one function*/
    

}
































</topfunctions>
-->

<!--
<imgurl>

</imgurl>
-->

<!--
<currentjson>
{
    "constants": {},
    "imgurl": "",
    "plotparams": {
        "G": 10.233249207622332,
        "g": 0.06830134553650705,
        "duration": 545.4545454545454,
        "plotwidth": 400,
        "plotheight": 400,
        "x0": 200,
        "y0": 400
    },
    "funcparams": {
        "f": 5,
        "T": 0.35049389948139215,
        "Tn": 8.264462809917354,
        "G": 1,
        "X0": 0,
        "Y0": 0
    }
}
</currentjson>
-->

<!--
<equation>






<h2>X  times Hyperbolic Cotangent</h2>
<p style="color:blue">

</p><p class="bigeq">
$$
Y = X\coth{X}$$
</p>
<p></p>

$$
X = g(x - x_0) - X_0
$$
$$
Y = f(X)
$$
    
$$
y = y_0 - G(Y - Y_0)
$$


<p>
    X and Y, and $X_0$ and $Y_0$ in physical units of the System. x and y and x0 and y0 in pixels.  G is in pixels per Y unit and g is in X units per pixel. 
</p>







</equation>
-->
	<path d = "M0 36 L1 37.24770584277104 L2 38.64559522295309 L3 40.04348460313503 L4 41.44137398331708 L5 42.839263363499015 L6 44.237152743681065 L7 45.63504212386306 L8 47.032931504044996 L9 48.4308208842271 L10 49.82871026440904 L11 51.22659964459103 L12 52.624489024773084 L13 54.02237840495502 L14 55.420267785137014 L15 56.818157165319064 L16 58.21604654550106 L17 59.61393592568305 L18 61.01182530586499 L19 62.40971468604704 L20 63.80760406622903 L21 65.20549344641108 L22 66.60338282659308 L23 68.00127220677501 L24 69.399161586957 L25 70.79705096713906 L26 72.194940347321 L27 73.5928297275031 L28 74.99071910768504 L29 76.38860848786703 L30 77.78649786804903 L31 79.18438724823102 L32 80.58227662841307 L33 81.980166008595 L34 83.378055388777 L35 84.775944768959 L36 86.17383414914099 L37 87.57172352932304 L38 88.96961290950492 L39 90.36750228968685 L40 91.76539166986879 L41 93.16328105005061 L42 94.56117043023255 L43 95.95905981041426 L44 97.35694919059591 L45 98.75483857077745 L46 100.15272795095865 L47 101.55061733113962 L48 102.94850671131996 L49 104.34639609149968 L50 105.74428547167827 L51 107.14217485185532 L52 108.54006423203015 L53 109.93795361220174 L54 111.3358429923685 L55 112.73373237252838 L56 114.13162175267814 L57 115.52951113281318 L58 116.92740051292697 L59 118.32528989300971 L60 119.72317927304744 L61 121.12106865301962 L62 122.5189580328967 L63 123.91684741263566 L64 125.31473679217402 L65 126.71262617142133 L66 128.1105155502462 L67 129.50840492845845 L68 130.90629430578235 L69 132.30418368181842 L70 133.7020730559886 L71 135.0999624274557 L72 136.4978517950089 L73 137.89574115689715 L74 139.29363051058903 L75 140.6915198524273 L76 142.08940917713 L77 143.48729847707358 L78 144.8851877412593 L79 146.2830769538289 L80 147.68096609193026 L81 149.07885512265284 L82 150.47674399863132 L83 151.87463265174256 L84 153.272520984078 L85 154.67040885502686 L86 156.06829606281113 L87 157.46618231812104 L88 158.86406720651308 L89 160.26195013484826 L90 161.65983025509922 L91 163.05770635612063 L92 164.45557671015112 L93 165.8534388554818 L94 167.2512892893099 L95 168.64912303452962 L96 170.04693303005936 L97 171.44470927489104 L98 172.84243762957001 L99 174.24009814294521 L100 175.6376627238126 L101 177.0350919128609 L102 178.43233042576236 L103 179.82930102839208 L104 181.2258961648677 L105 182.6219665838331 L106 184.0173059957147 L107 185.41163054579042 L108 186.80455161586 L109 188.19554019719905 L110 189.58388085935042 L111 190.96861325863327 L112 192.34845932115888 L113 193.7217348919513 L114 195.08624602198893 L115 196.43917247081126 L116 197.77694472147482 L117 199.09512598688463 L118 200.38831713867825 L119 201.6501094002293 L120 202.8731153130659 L121 204.04911022893307 L122 205.16931108939113 L123 206.22480365506064 L124 207.20710295712223 L125 208.10879798786777 L126 208.92419889137685 L127 209.649884869362 L128 210.285054293622 L129 210.8316089622295 L130 211.2939555699664 L131 211.67856394850423 L132 211.9933657363426 L133 212.24709661134787 L134 212.44867796190047 L135 212.60670714190792 L136 212.7290909912558 L137 212.82282583262887 L138 212.89390504672411 L139 212.9473241259592 L140 212.9871509877655 L141 213.01663306055065 L142 213.03831910299905 L143 213.05418058995113 L144 213.0657234858703 L145 213.0740858075215 L146 213.08011952851248 L147 213.08445732607277 L148 213.08756571927242 L149 213.0897865860072 L150 213.091369105763 L151 213.09249402498756 L152 213.09329189442084 L153 213.0938566523764 L154 213.09425566368614 L155 213.09453708984856 L156 213.09473526863636 L157 213.09487462095294 L158 213.0949724755221 L159 213.0950411031272 L160 213.09508917646437 L161 213.09512281450714 L162 213.09514632752615 L163 213.0951627472088 L164 213.09517420299332 L165 213.09518218866603 L166 213.09518775085468 L167 213.09519162206453 L168 213.09519431441888 L169 213.09519618561177 L170 213.0951974852451 L171 213.09519838734172 L172 213.09519901313112 L173 213.0951994469998 L174 213.0951997476453 L175 213.09519995586777 L176 213.0952001000087 L177 213.09520019974252 L178 213.0952002687191 L179 213.09520031640324 L180 213.095200349354 L181 213.09520037211453 L182 213.09520038783032 L183 213.09520039867778 L184 213.09520040616235 L185 213.09520041132473 L186 213.0952004148843 L187 213.09520041733782 L188 213.0952004190285 L189 213.09520042019304 L190 213.0952004209949 L191 213.09520042154674 L192 213.09520042192622 L193 213.09520042218688 L194 213.0952004223655 L195 213.09520042248727 L196 213.0952004225695 L197 213.09520042262378 L198 213.09520042265785 L199 213.09520042267653 L200 213.0952004226825 L201 213.09520042267653 L202 213.09520042265785 L203 213.09520042262378 L204 213.0952004225695 L205 213.09520042248727 L206 213.0952004223655 L207 213.09520042218688 L208 213.09520042192622 L209 213.09520042154674 L210 213.09520042099484 L211 213.09520042019304 L212 213.0952004190285 L213 213.09520041733782 L214 213.0952004148843 L215 213.09520041132475 L216 213.09520040616235 L217 213.09520039867778 L218 213.09520038783037 L219 213.0952003721146 L220 213.09520034935397 L221 213.0952003164032 L222 213.0952002687191 L223 213.09520019974252 L224 213.0952001000087 L225 213.09519995586777 L226 213.0951997476453 L227 213.0951994469998 L228 213.09519901313112 L229 213.09519838734172 L230 213.0951974852451 L231 213.09519618561177 L232 213.09519431441888 L233 213.09519162206453 L234 213.09518775085468 L235 213.09518218866603 L236 213.09517420299332 L237 213.09516274720878 L238 213.09514632752615 L239 213.09512281450714 L240 213.09508917646437 L241 213.09504110312716 L242 213.0949724755221 L243 213.09487462095294 L244 213.09473526863636 L245 213.0945370898486 L246 213.09425566368614 L247 213.09385665237633 L248 213.09329189442084 L249 213.0924940249875 L250 213.09136910576305 L251 213.0897865860072 L252 213.08756571927242 L253 213.08445732607277 L254 213.08011952851248 L255 213.07408580752153 L256 213.0657234858703 L257 213.05418058995113 L258 213.03831910299905 L259 213.01663306055065 L260 212.9871509877655 L261 212.9473241259592 L262 212.89390504672406 L263 212.82282583262887 L264 212.7290909912558 L265 212.60670714190792 L266 212.44867796190047 L267 212.24709661134787 L268 211.9933657363426 L269 211.67856394850423 L270 211.2939555699664 L271 210.8316089622295 L272 210.28505429362198 L273 209.649884869362 L274 208.92419889137685 L275 208.10879798786777 L276 207.20710295712223 L277 206.22480365506064 L278 205.16931108939113 L279 204.04911022893307 L280 202.8731153130659 L281 201.6501094002293 L282 200.38831713867822 L283 199.09512598688468 L284 197.77694472147482 L285 196.43917247081126 L286 195.08624602198896 L287 193.7217348919513 L288 192.34845932115888 L289 190.96861325863327 L290 189.58388085935044 L291 188.19554019719902 L292 186.80455161585996 L293 185.41163054579044 L294 184.0173059957147 L295 182.6219665838331 L296 181.2258961648677 L297 179.82930102839205 L298 178.43233042576242 L299 177.0350919128609 L300 175.6376627238126 L301 174.24009814294521 L302 172.84243762957 L303 171.44470927489104 L304 170.04693303005936 L305 168.64912303452962 L306 167.2512892893099 L307 165.8534388554818 L308 164.45557671015112 L309 163.05770635612063 L310 161.65983025509922 L311 160.26195013484826 L312 158.86406720651308 L313 157.46618231812104 L314 156.06829606281113 L315 154.67040885502686 L316 153.27252098407806 L317 151.87463265174256 L318 150.47674399863132 L319 149.07885512265284 L320 147.68096609193023 L321 146.28307695382895 L322 144.88518774125924 L323 143.48729847707358 L324 142.08940917713 L325 140.6915198524273 L326 139.29363051058903 L327 137.89574115689715 L328 136.4978517950089 L329 135.0999624274557 L330 133.7020730559886 L331 132.30418368181842 L332 130.90629430578235 L333 129.50840492845845 L334 128.11051555024625 L335 126.71262617142133 L336 125.31473679217402 L337 123.91684741263566 L338 122.5189580328967 L339 121.12106865301968 L340 119.72317927304744 L341 118.32528989300977 L342 116.92740051292697 L343 115.52951113281318 L344 114.13162175267814 L345 112.73373237252832 L346 111.3358429923685 L347 109.93795361220174 L348 108.54006423203015 L349 107.14217485185537 L350 105.74428547167821 L351 104.34639609149968 L352 102.94850671131996 L353 101.55061733113962 L354 100.15272795095865 L355 98.7548385707774 L356 97.35694919059591 L357 95.95905981041426 L358 94.5611704302325 L359 93.16328105005067 L360 91.76539166986879 L361 90.36750228968685 L362 88.96961290950492 L363 87.57172352932304 L364 86.17383414914099 L365 84.775944768959 L366 83.378055388777 L367 81.980166008595 L368 80.58227662841307 L369 79.18438724823102 L370 77.78649786804903 L371 76.38860848786703 L372 74.99071910768504 L373 73.5928297275031 L374 72.194940347321 L375 70.79705096713906 L376 69.399161586957 L377 68.00127220677501 L378 66.60338282659308 L379 65.20549344641108 L380 63.80760406622903 L381 62.40971468604704 L382 61.01182530586499 L383 59.61393592568305 L384 58.21604654550106 L385 56.818157165319064 L386 55.420267785137014 L387 54.02237840495502 L388 52.624489024773084 L389 51.22659964459103 L390 49.82871026440904 L391 48.4308208842271 L392 47.032931504044996 L393 45.63504212386306 L394 44.237152743681065 L395 42.839263363499015 L396 41.44137398331708 L397 40.04348460313503 L398 38.64559522295309 L399 37.24770584277104 " stroke = "blue" stroke-width = "4" fill = "none" /></svg>