<svg width="400" height="400" viewbox = "0 0 400 400"  xmlns="http://www.w3.org/2000/svg">

<!--
<topfunctions>




function YofX(){
    X = plotparams.g*(x - plotparams.x0) - funcparams.X0;
    Y = funcparams.a*X*X*X + funcparams.b*X*X + funcparams.c*X + funcparams.d;
    y = plotparams.y0 - plotparams.G*(Y - funcparams.Y0);
}


function YofX2(){
    X = plotparams.g*(x - plotparams.x0) - funcparams.X0;
    Y = funcparams.b*X*X + funcparams.c*X + funcparams.d;
    y = plotparams.y0 - plotparams.G*(Y - funcparams.Y0);
 }

function XYofT(){
    T = plotparams.g*t;
    X = funcparams.a*Math.cos(2*Math.PI*T/funcparams.T);
    Y = funcparams.b*Math.sin(2*Math.PI*T/funcparams.T);

    Xrot = Math.cos(Math.PI*funcparams.theta/180)*X - Math.sin(funcparams.theta*Math.PI/180)*Y;
    Yrot = Math.sin(funcparams.theta*Math.PI/180)*X + Math.cos(funcparams.theta*Math.PI/180)*Y;
    X = Xrot;
    Y = Yrot;

    y = plotparams.y0 - plotparams.G*(Y - funcparams.Y0);
    x = plotparams.x0 - plotparams.G*(X - funcparams.X0);    
}


function plotfunction(){


    currentStroke = "blue";
    currentLineWidth = 4;
    ctx.strokeStyle = currentStroke;
    ctx.lineWidth = currentLineWidth;
    ctx.beginPath();	
    x = 0;
    y = 0;
    t= 0;
    XYofT();
    currentSVG += "	<path d = \"M";
    currentSVG += Math.round(x).toString() + " ";
    currentSVG += Math.round(y).toString() + " ";
    for(t = 1;t < plotparams.duration;t++){
        ctx.moveTo(x,y);
        XYofT();
        ctx.lineTo(x,y);
        currentSVG += "L" + x + " " + y + " ";
    }
    ctx.stroke();
    currentSVG += "\""+ " stroke = \"" + currentStroke + "\" stroke-width = \"" + currentLineWidth.toString() + "\" fill = \"" + "none" + "\" "+"/>";


    /*plot one function:
    currentStroke = "blue";
    currentLineWidth = 4;
    ctx.strokeStyle = currentStroke;
    ctx.lineWidth = currentLineWidth;
    ctx.beginPath();	
    x = 0;
    YofX();
    currentSVG += "	<path d = \"M";
    currentSVG += Math.round(x).toString() + " ";
    currentSVG += Math.round(y).toString() + " ";
    for(x = 1;x < plotparams.plotwidth;x++){
        ctx.moveTo(x-1,y);
        YofX();
        ctx.lineTo(x,y);
        currentSVG += "L" + x + " " + y + " ";
    }
    ctx.stroke();
    currentSVG += "\""+ " stroke = \"" + currentStroke + "\" stroke-width = \"" + currentLineWidth.toString() + "\" fill = \"" + "none" + "\" "+"/>";
    /*finish plot one function*/
    

}






















</topfunctions>
-->

<!--
<imgurl>

</imgurl>
-->

<!--
<currentjson>
{
    "constants": {},
    "imgurl": "",
    "plotparams": {
        "G": -51.457144528756864,
        "g": 0.017985878990921366,
        "duration": 545.4545454545454,
        "plotwidth": 400,
        "plotheight": 400,
        "x0": 200,
        "y0": 200
    },
    "funcparams": {
        "theta": 89.99999999999997,
        "a": 2.841178267683798,
        "b": 1.6528925619834702,
        "T": 1.4655609018152753,
        "X0": 0,
        "Y0": 0
    }
}
</currentjson>
-->

<!--
<equation>

<h2>Ellipse</h2>
<p style="color:blue">

</p><p class="bigeq">
$$
(X,Y) = (a\cos{\frac{2\pi t}{T}},b\sin{\frac{2\pi t}{T}})
$$
</p>
<p></p>

$$
X = g(x - x_0) - X_0
$$
$$
Y = f(X)
$$
    
$$
y = y_0 - G(Y - Y_0)
$$


<p>
    X and Y, and $X_0$ and $Y_0$ in physical units of the System. x and y and x0 and y0 in pixels.  G is in pixels per Y unit and g is in X units per pixel. 
</p>


</equation>
-->
	<path d = "M200 346 L193.44809621181633 345.7644962597077 L186.93512988586807 344.46380453380107 L180.49980708203606 342.3045754857223 L174.18037243069773 339.29964124827353 L168.01438184781904 335.4668599154033 L162.03847934302348 330.82900941292223 L156.28817924704992 325.4136521310352 L150.7976551528065 319.252971123168 L145.59953682432578 312.38357884454626 L140.7247162805773 304.84629956717987 L136.2021642065656 296.68592676434145 L132.05875778276874 287.95095690638686 L128.31912095611398 278.6933012499476 L125.0054781017479 268.9679773333095 L122.13752194527746 258.83278201139825 L119.73229653041055 248.34794797349858 L117.80409592751009 237.57578578499647 L116.36437928502897 226.58031358046318 L115.4217027286688 215.4268766087862 L114.98166851298036 204.18175889136168 L115.04689172759406 192.91178930123357 L115.61698475594248 181.6839444042211 L116.6885595788362 170.5649504223199 L118.25524790920203 159.62088668487667 L120.30773903832528 148.91679292419767 L122.83383516867826 138.51628274940276 L125.8185239044965 128.4811655956201 L129.2440674692966 118.8710793952486 L133.09010812012275 109.74313615429523 L137.33378913205368 101.15158254009862 L141.94989063396727 93.14747749754152 L146.91097948830284 85.77838880965291 L152.18757232409553 79.08811040591833 L157.74831075439118 73.11640209831181 L163.5601477367376 67.89875329177985 L169.58854396922564 63.46617207342672 L175.79767315491455 59.8450009338284 L182.1506349147695 57.05676021562962 L188.60967408378718 55.11802021979611 L195.13640508704907 54.04030272958542 L201.69204006225155 53.830012537472015 L208.2376193730007 54.4883993819561 L214.7342431429458 56.0115505204636 L221.14330243476425 58.39041398247531 L227.42670870011847 61.61085236469455 L233.54712013697988 65.65372684855129 L239.46816360909796 70.49501094073509 L245.15465080876174 76.10593326080355 L250.57278737821696 82.45314852729246 L255.69037374694477 89.49893572616836 L260.4769964912424 97.20142228392498 L264.90420907887034 105.51483291308003 L268.94570092461345 114.38976165120057 L272.57745375207355 123.77346547675349 L275.77788433244575 133.61017775684107 L278.52797275199373 143.8414396640279 L280.81137544593946 154.40644759267292 L282.6145223270171 165.24241451010013 L283.9266974314613 176.2849430951228 L284.7401026031595 187.4684084463892 L285.0499038374957 198.72634808614404 L284.8542600094699 209.99185694164143 L284.1543338153626 221.19798495686624 L282.9542848629202 232.27813497158732 L281.2612449511247 243.16645850317894 L279.08527568645866 253.79824707910777 L276.439308687549 264.110316794427 L273.33906873354806 274.0413838088834 L269.8029803129759 283.5324285520841 L265.8520581283966 292.5270464722819 L261.50978220765114 300.9717832443042 L256.80195836385076 308.8164524445133 L251.75656483340654 316.01443380487575 L246.40358600351456 322.52295027364414 L240.77483421723946 328.303322236098 L234.90376071519697 333.32119738453105 L228.82525683739473 337.546754871383 L222.57544666667036 340.954882532253 L216.19147234603588 343.5253261255681 L209.71127334576732 345.24280970198913 L203.17336099203942 346.09712638820724 L196.61658959706455 346.0831990456103 L190.0799255508924 345.2011104433283 L183.60221574713955 343.45610276634284 L177.22195671887636 340.8585464615835 L170.97706585668078 337.42387860715644 L164.90465606849136 333.1725111709716 L159.04081522043808 328.1297097039811 L153.4203916694198 322.32544318894674 L148.0767871619883 315.7942059370701 L143.0417583303282 308.5748125909448 L138.34522796502475 300.71016745210954 L134.01510718621148 292.24700950406987 L130.07712956992248 283.23563464610186 L126.55469821542104 273.729596788575 L123.46874666237406 263.7853895861666 L120.83761448442934 253.4621107003994 L118.6769382985349 242.82111058676819 L116.99955883772208 231.92562789368216 L115.81544463961318 220.84041364002329 L115.13163280416605 209.63134640480126 L114.95218717272806 198.36504081580642 L115.27817417693859 187.10845166397945 L116.10765650100726 175.92847599622093 L117.43570459503334 164.89155555136432 L119.25442597094325 154.06328190201307 L121.55301210694215 143.50800664885205 L124.3178026817313 133.28845898401238 L127.53236675675058 123.46537289629009 L131.17760042398777 114.09712623370345 L135.23184033904005 105.2393937684148 L139.6709924647099 96.94481632582578 L144.46867526002262 89.262687944184 L149.59637646370265 82.23866292389113 L155.02362254035813 75.91448450749326 L160.71815978236688 70.32773680278882 L166.64614599118968 65.51162142335508 L172.7723515989635 61.49476017390276 L179.06036903512359 58.30102495308347 L185.47282909380684 55.94939588462469 L191.97162301617857 54.45384851990903 L198.51812896786672 53.82327078234272 L205.07344156556448 54.06141014710812 L211.59860308874258 55.16685137020562 L218.05483500239762 57.13302489914034 L224.4037684149142 59.94824591526921 L230.6076721014488 63.59578377578305 L236.62967673770777 68.05396144263494 L242.43399401151692 73.29628430751643 L247.98612931001895 79.29159764728495 L253.2530867185147 86.00427177409638 L258.2035651126563 93.39441377991045 L262.8081441786308 101.41810461698594 L267.0394592558315 110.02766010541767 L270.872363962939 119.17191431656362 L274.2840796409391 128.79652364823892 L277.2543307249479 138.84428978458004 L279.7654652403405 149.25549962125376 L281.8025597070839 159.9682801358614 L283.3535078288352 170.91896609456956 L284.4090924397335 182.0424784097186 L284.96304028131067 193.27271089985354 L285.0120592839851 204.54292315369574 L284.55585813157944 215.78613716329406 L283.59714799259046 226.93553536919455 L282.141626407922 237.9248577520762 L280.1979434308363 248.68879561097046 L277.77765022034964 259.1633796878675 L274.89513039358 269.2863603321135 L271.5675145450122 278.9975774453173 L267.8145784406869 288.239318008206 L263.6586254923389 296.9566590646749 L259.1243542099301 305.09779412470857 L254.23871142029589 312.6143410463834 L249.03073212421876 319.46162956722804 L243.5313669436436 325.5989667761715 L237.77329818450139 330.9898789483967 L231.7907456082701 335.60232830589194 L225.6192630665541 339.4089034155105 L219.29552720726707 342.3869820930189 L212.85711950812475 344.5188658450038 L206.34230293280064 345.7918850496626 L199.7897945370657 346.19847425139494 L193.23853537629228 345.7362171217262 L186.72745908174412 344.40786081936176 L180.29526048099015 342.22129966403384 L173.9801656375086 339.1895282211641 L167.81970467611967 335.3305640761565 L161.85048874432994 330.66734075726856 L156.10799243508728 325.22757144340875 L150.62634296399312 319.0435842668386 L145.4381173538745 312.15213018955876 L140.57414883203393 304.5941645951584 L136.06334359074103 296.4146038941075 L131.93250899994683 287.66205858897024 L128.20619429313857 278.3885443859148 L124.90654467312515 268.6491730693547 L122.05316970479369 258.50182497683625 L119.66302677696825 248.0068050206291 L117.75032032594696 237.22648430025225 L116.326417419625 226.2249294358059 L115.39978020388162 215.0675218249594 L114.97591561269519 203.82056908631398 L115.0573426408565 192.5509109983033 L115.64357737377577 181.32552227551346 L116.73113586334992 170.2111145430854 L118.31355483279937 159.27373987463596 L120.38143008742642 148.5783982498477 L122.9224724030243 138.18865126456666 L125.9215805597948 128.16624438911032 L129.3609310877403 118.57074001966805 L133.22008419018113 109.45916350354209 L137.4761052159006 100.8856642418794 L142.10370095802 92.90119388392922 L147.0753699695899 85.553203525294 L152.3615660025812 78.88536170970532 L157.93087359897504 72.93729491021244 L163.75019479042155 67.74435203209049 L169.7849457969301 63.33739433700427 L175.9992625556248 59.74261203689409 L182.3562138581219 56.98136864755341 L188.81802082987227 55.070074026890694 L195.3462814471172 54.02008685240193 L201.90219875717463 53.837647117419664 L208.44681144575642 54.52383904731121 L214.94122538107328 56.07458465601022 L221.34684475867996 58.48066798117523 L227.62560147338615 61.72778985394845 L233.74018135508615 65.79665287781975 L239.6542459240148 70.66307611157617 L245.33264834754897 76.29813877478392 L250.74164231513865 82.66835212176814 L255.84908259004771 89.73585846266532 L260.62461604603163 97.45865614877229 L265.0398620536416 105.79084918512682 L269.0685811441309 114.68291998688933 L272.68683094860717 124.0820236585557 L275.8731084856965 133.93230204712265 L278.6084779521145 144.17521570281176 L280.8766832566938 154.7498917745322 L282.6642446290894 165.59348577257612 L283.96053872901985 176.64155504859957 L284.75786177996554 187.8284417733493 L285.0514753521222 199.08766313610957 L284.8396345225258 210.35230644695275 L284.1235982449963 221.55542679372923 L282.9076218682715 232.6304448905512 L281.19893184679574 243.51154275338774 L279.00768279445435 254.13405485130116 L276.34689713648174 264.43485240874304 L273.2323877181856 274.35271857503074 L269.6826638304191 283.8287122314006 L265.71882121028324 292.80651827356115 L261.3644166707776 301.2327822880433 L256.6453281044653 309.0574276333918 L251.58960069314023 316.23395304180883 L246.22728023746114 322.7197089726251 L240.59023459705878 328.4761510752535 L234.71196430228878 333.46906925531124 L228.62740346314612 337.66879098258926 L222.3727121585259 341.0503576326264 L215.98506153964496 343.5936728139019 L209.50241292473802 345.2836217991509 L202.96329219785184 346.11016135103057 L196.40656085246806 346.0683794083097 L189.87118504062477 345.1585242778728 L183.39600400006043 343.38600315905103 L177.01949923559965 340.76135000905094 L170.77956582651825 337.3001629404536 L164.7132872189903 333.0230115228269 L158.85671484200964 327.9553145393499 L153.244653856508 322.1271889249308 L147.91045631095108 315.5732707835713 L142.88582293266975 308.3325095486534 L138.20061473286611 300.4479365094413 L133.88267554491188 291.9664090794265 L129.9576665505798 282.9383323263085 L126.44891377760655 273.41735941854034 L123.37726947489688 263.4600727686583 L120.76098818920613 253.12564776833977 L118.61561827976739 242.4755011135841 L116.95390951558375 231.5729258099938 L115.78573730452798 220.4827150272909 L115.1180440045504 209.2707770384756 L114.954797665777 198.00374353200615 L115.2969684486919 186.74857362478178 L116.14252285854784 175.57215592924013 L117.48643583026966 164.5409110394586 L119.32072059203104 153.72039679865236 L121.63447613002754 143.17491869393498 L124.41395197236646 132.9671476937354 L127.64262990706783 123.1577477990338 L131.30132214853262 113.80501552185203 L135.36828536908249 104.96453343354874 L139.81934991789024 96.68883984185642 L144.6280634593631 89.02711655974379 L149.76584817734644 82.02489662166904 L155.202170610895 75.72379368424596 L160.90472311229317 70.16125471946893 L166.8396158489293 65.37033747022875 L172.97157820797455 61.37951399067887 L179.2641684069327 58.2125014389992 L185.67999006436156 55.88812112814193 L192.18091444370265 54.420186672210974 L198.72830704944136 53.81742189321125 L205.2832572289538 54.083408976043216 L211.80680941553416 55.216567179852376 L218.26019463834308 57.21016223225092 L224.60506092343124 60.05234635058309 L230.80370121658117 63.72622865238881 L236.8192774734431 68.20997553662494 L242.61603958520914 73.47694043908324 L248.15953783877134 79.49582219087998 L253.41682764872593 86.23085103890294 L258.35666534452383 93.64200122271804 L262.9496938492064 101.68522884459082 L267.1686171462678 110.31273361900107 L270.9883624977887 119.47324294607539 L274.38622944979704 129.11231662072078 L277.3420247393259 139.17267036658978 L279.83818230143015 149.59451627215293 L281.8598676629622 160.31591810566692 L283.39506610271116 171.27315939746163 L284.43465405396967 182.40112210203588 L284.97245332519174 193.63367358960872 L285.00526781651257 204.90405966727948 L284.5329025139242 216.14530129407476 L283.5581646482295 227.2905926322603 L282.08684701188406 238.2736980693158 L280.12769353287496 249.02934585110583 L277.6923473102265 259.4936159869115 L274.7952814199544 269.60432012104286 L271.45371290268423 279.3013711134673 L267.6875004440981 288.52714013308173 L263.519026356287 297.22679914143976 L258.97306356138466 305.34864673158415 L254.07662836799025 312.84441538554563 L248.85881991531488 319.6695583245065 L243.3506472392276 325.7835142468924 L237.58484498793052 331.149948381081 L231.5956788824541 335.73696842016415 L225.4187420780984 339.51731405548776 L219.09074363704343 342.46851898257364 L212.64929036920114 344.5730444166483 L206.13266333782687 345.8183833242966 L199.5795903580929 346.1971347518024 L193.0290158406518 345.7070478084506 L186.51986934798308 344.351035043397 L180.0908342389921 342.13715513661293 L173.78011777676738 339.07856500676655 L167.62522406574433 335.19344162066375 L161.66273116768855 330.5048739689282 L155.9280737210724 325.0407258498964 L150.45533235573754 318.8334702772012 L145.27703115432115 311.9199964951389 L140.4239443641249 304.3413907487168 L135.92491350812088 296.14269211124645 L131.80667598199125 287.37262482058395 L128.09370615583214 278.08330871471304 L124.80806992484953 268.3299494875453 L121.96929357343333 258.170510605709 L119.5942477319456 247.66536883610797 L117.69704711585683 236.87695543142132 L116.28896664307358 225.86938510595405 L115.37837442796463 214.70807500679896 L114.97068205029885 203.45935594474557 L115.0683123946412 192.1900781953524 L115.67068525133512 180.9672142128845 L116.77422076464458 169.85746061814072 L118.37236070756182 158.92684182555695 L120.4556074568485 148.24031766516177 L123.01158043668264 137.8613973312866 L126.0250896954725 127.85176195228864 L129.47822617857412 118.27089802433342 L133.35046816043325 109.17574388769911 L137.61880320362496 100.62035134659139 L142.25786492000861 92.65556444340552 L147.2400837212283 85.32871729648014 L152.53585066266265 78.68335279706068 L158.11369340711764 72.7589638372277 L163.94046326251222 67.59075860666957 L169.98153218201685 63.20945135310663 L176.200998555883 59.64107984987052 L182.5619005719579 56.90685065541254 L189.02643587690397 55.02301308435082 L195.55618623268842 54.000762639038726 L202.11234583322678 53.84617447555266 L208.65595192431678 54.56016729950434 L215.14811635630102 56.13849790624394 L221.55025669336112 58.57178639790038 L227.8243255059768 61.8455719273953 L233.93303648388616 65.94039863814979 L239.84008602576964 70.83193128874916 L245.51036898877186 76.49109987541866 L250.9101873156745 82.88427239282674 L256.00745029987223 89.97345470652064 L260.7718652979786 97.71651634915035 L265.1751177566882 106.06744089861287 L269.19103948399663 114.97659945012133 L272.7957641647605 124.39104555698452 L275.96786919637947 134.25482988728047 L278.68850300168396 144.50933272645605 L280.9414970624114 155.09361234979048 L282.71346200747325 165.94476719440303 L283.99386718496123 176.99830967842027 L284.77510324500423 188.18854944573025 L285.0525273615524 199.4489837587441 L284.82449082433607 210.71269271906334 L284.0923488370247 221.9127369673119 L282.86045246335544 232.9825554986204 L281.13612276909475 243.85636122957632 L278.92960731350513 254.4695319658231 L276.25401924888564 264.75899444681005 L273.1252593901128 274.6635991853448 L269.5619217173156 284.12448387431294 L265.5851828732763 293.0854232008591 L261.2186763122654 301.4931629891119 L256.48835184823264 309.29773668567384 L251.42232143705127 316.4527623070177 L246.05069210931836 322.91571808406206 L240.40538704657808 328.6481951657871 L234.5199558643013 333.61612588009183 L228.42937522908716 337.7899861953633 L222.16984099501872 341.14497117952953 L215.7785530944712 343.6611424138738 L209.29349446176556 345.32354648552825 L202.75320530349944 346.12230385446094 L196.19655405705385 346.0526675668256 L189.6625063984432 345.1150514657444 L183.1898936722943 343.31502773187003 L176.817182120135 340.663293768343 L170.58224427847225 337.17560862694484 L164.52213390520564 332.87269935326015 L158.67286577198425 327.7801378074323 L153.06920163117908 321.9281886925586 L147.7444436294517 315.3516296938792 L142.73023639564687 308.08954479765623 L138.05637897918893 300.18509201803954 L133.7506477566142 291.68524691229516 L129.83863135869166 282.6405234086649 L126.34357859915309 273.1046736059642 L123.28626030877368 263.13436832897804 L120.68484589591476 252.78886033808644 L118.55479536712318 242.12963219465252 L116.90876744949655 231.22003087487025 L115.75654436083803 220.1248913035381 L115.10497367468535 208.91015104506843 L114.95792762570584 197.64245844159393 L115.31628009730258 186.38877652697673 L116.17790142819226 175.21598507062848 L117.53767106881895 164.19048311616484 L119.38750801238793 153.3777943769764 L121.71641881966976 142.8421778338202 L124.51056295216759 132.64624584862025 L127.7533350253768 122.85059206399787 L131.42546349331306 113.51343129989566 L135.50512517783352 104.69025358736315 L139.96807496211295 96.43349439555266 L144.78778987751392 88.79222301174657 L149.93562672755908 81.81185092633858 L155.3809923122539 75.53386195582594 L161.09152524112827 69.99556570766919 L167.03328825450032 65.22987585215256 L173.1709699100135 61.26511451896096 L179.4680944358309 58.124843980935196 L185.88723850335313 55.827726625289216 L192.3902536311925 54.38741404447288 L198.9384928986781 53.81246590580338 L205.4930406215383 54.10629908201912 L212.014943624837 55.26716734506596 L218.46544273870464 57.288171743797136 L224.80620314111601 60.15730160391135 L230.99954217879977 63.8575059064695 L237.00865331236267 68.36679462079573 L242.79782485472754 73.6583693895413 L248.33265220295914 79.70078278927272 L253.58024230218075 86.4581252200982 L258.5094091264796 93.89023831366875 L263.0908590150701 101.95295359128541 L267.2973647622734 110.59835495378023 L271.10392742671877 119.77506344323034 L274.48792489813275 129.4285425841606 L277.42924633880995 139.50142248964394 L279.91041170077847 149.93384080613833 L281.9166756083889 160.66379847087805 L283.4361149889486 171.62752816753905 L284.459699930632 182.75987329052919 L284.9813473465531 193.99467516569212 L284.9979571260852 205.26516622624516 L284.50943055858136 216.50436680730712 L283.5186709200033 227.64548320092626 L282.0315662189756 238.62230460595484 L280.0569542048014 249.36959661377793 L277.60656984539435 259.82348889140553 L274.6949755872654 269.9218547579593 L271.33947481201716 279.60468039878714 L267.5600090036734 288.8144215229604 L263.3790392379672 297.49634534458744 L258.8214126978895 305.59885585556594 L253.91421500878155 313.0738004567094 L248.6866092705435 319.8767561249481 L243.1696627435614 325.9672934159584 L237.39616221836124 331.30921673324974 L231.40041916622448 335.87077943582165 L225.21806582874345 339.6248725060192 L218.88584345813675 342.54918565634887 L212.4413839668074 344.6263399178053 L205.9229862837678 345.8439909217549 L199.36938874703597 346.19490226157245 L192.81953888466592 345.6769884980507 L186.31236195256878 344.29332755300584 L179.88652960470296 342.0521424174248 L173.58023007039083 338.9667522828579 L167.43094120460663 335.0554933864871 L161.4752077599469 330.34161004026953 L155.7484242039721 324.8531164917753 L150.2846243725943 318.6226304376586 L145.11627920960086 311.6871791791888 L140.27410379431802 304.0879795718291 L135.7868748042543 295.8701930766314 L131.68125949750606 287.0826573691264 L127.98165723128638 277.77759610075987 L124.71005445841737 268.0103085377398 L121.88589406352229 257.8388409217263 L119.52595981545338 247.32364150546886 L117.6442766226393 236.52720131347075 L116.2520271841289 225.5136827626189 L115.35748553166694 214.34853834985134 L114.96596785775859 203.09812167299262 L115.0798009219434 191.82929309639556 L115.6983082230423 180.6090224049235 L116.81781401955217 169.50399080764882 L118.43166517429601 158.58019465653507 L120.5302706935068 147.90255323517886 L123.1011587253701 137.53452294847102 L126.1290506792824 127.53772020605429 L129.59595202534553 117.9715552407155 L133.48125923447725 108.89287903792939 L137.7618822236101 100.35564547479811 L142.4123815782803 92.41059067630573 L147.40511973712478 85.10493149440278 L152.71042523978647 78.48208490188101 L158.2967690621324 72.58140996862633 L164.1309519908255 67.43797395368529 L170.1783019237118 63.08234390322556 L176.4028799234595 59.54040499292944 L182.7676937999154 56.83320669437305 L189.23491795185717 54.97683767963056 L195.7661181616379 53.98233020753062 L202.3224800068029 53.85559455978486 L208.86503953122548 54.59738391663802 L215.3549148049138 56.20328988077483 L221.75353699634098 58.66376867608753 L228.02287958405904 61.96419786560733 L234.12568434539645 66.08496325152421 L240.02568277922688 71.00157544086463 L245.68781164688957 76.6848153840762 L251.07842135033113 83.10090802160093 L256.16547590908885 90.2117230064671 L260.9187433476662 97.9750013100165 L265.30997536185146 106.34460636408171 L269.3130751962194 115.2707982470652 L272.90425273515524 124.70052928449374 L276.06216588568464 134.57775930727502 L278.7680474118994 144.84378869413393 " stroke = "blue" stroke-width = "4" fill = "none" /></svg>