<svg width="330.5785123966942" height="440.00000000000006" viewbox = "0 0 330.5785123966942 440.00000000000006"  xmlns="http://www.w3.org/2000/svg">

<!--
<topfunctions>




function YofX(){
    X = plotparams.g*(x - plotparams.x0) - funcparams.X0;
    Y = funcparams.a*X*X*X + funcparams.b*X*X + funcparams.c*X + funcparams.d;
    y = plotparams.y0 - plotparams.G*(Y - funcparams.Y0);
}


function YofX2(){
    X = plotparams.g*(x - plotparams.x0) - funcparams.X0;
    Y = funcparams.b*X*X + funcparams.c*X + funcparams.d;
    y = plotparams.y0 - plotparams.G*(Y - funcparams.Y0);
 }

function XYofT(){
    T = plotparams.g*t;
    X = funcparams.a*Math.cos(2*Math.PI*T/funcparams.T);
    Y = funcparams.b*Math.sin(2*Math.PI*T/funcparams.T);

    Xrot = Math.cos(Math.PI*funcparams.theta/180)*X - Math.sin(funcparams.theta*Math.PI/180)*Y;
    Yrot = Math.sin(funcparams.theta*Math.PI/180)*X + Math.cos(funcparams.theta*Math.PI/180)*Y;
    X = Xrot;
    Y = Yrot;

    y = plotparams.y0 - plotparams.G*(Y - funcparams.Y0);
    x = plotparams.x0 - plotparams.G*(X - funcparams.X0);    
}


function plotfunction(){


    currentStroke = "blue";
    currentLineWidth = 4;
    ctx.strokeStyle = currentStroke;
    ctx.lineWidth = currentLineWidth;
    ctx.beginPath();	
    x = 0;
    y = 0;
    t= 0;
    XYofT();
    currentSVG += "	<path d = \"M";
    currentSVG += Math.round(x).toString() + " ";
    currentSVG += Math.round(y).toString() + " ";
    for(t = 1;t < plotparams.duration;t++){
        ctx.moveTo(x,y);
        XYofT();
        ctx.lineTo(x,y);
        currentSVG += "L" + x + " " + y + " ";
    }
    ctx.stroke();
    currentSVG += "\""+ " stroke = \"" + currentStroke + "\" stroke-width = \"" + currentLineWidth.toString() + "\" fill = \"" + "none" + "\" "+"/>";


    /*plot one function:
    currentStroke = "blue";
    currentLineWidth = 4;
    ctx.strokeStyle = currentStroke;
    ctx.lineWidth = currentLineWidth;
    ctx.beginPath();	
    x = 0;
    YofX();
    currentSVG += "	<path d = \"M";
    currentSVG += Math.round(x).toString() + " ";
    currentSVG += Math.round(y).toString() + " ";
    for(x = 1;x < plotparams.plotwidth;x++){
        ctx.moveTo(x-1,y);
        YofX();
        ctx.lineTo(x,y);
        currentSVG += "L" + x + " " + y + " ";
    }
    ctx.stroke();
    currentSVG += "\""+ " stroke = \"" + currentStroke + "\" stroke-width = \"" + currentLineWidth.toString() + "\" fill = \"" + "none" + "\" "+"/>";
    /*finish plot one function*/
    

}






















</topfunctions>
-->

<!--
<imgurl>
https://i.imgur.com/eMRyIOx.jpg
</imgurl>
-->

<!--
<currentjson>
{
    "constants": {},
    "imgurl": "https://i.imgur.com/eMRyIOx.jpg",
    "plotparams": {
        "G": -18.497759559235448,
        "g": 0.017985878990921366,
        "duration": 545.4545454545454,
        "plotwidth": 330.5785123966942,
        "plotheight": 440.00000000000006,
        "x0": 150.49816637103063,
        "y0": 220.44021999999993
    },
    "funcparams": {
        "theta": 88.48763609787974,
        "a": 0.8826306418677652,
        "b": 2.3639843440633896,
        "T": 1.4655609018152753,
        "X0": 0,
        "Y0": 0
    }
}
</currentjson>
-->

<!--
<equation>

<h2>Ellipse</h2>
<p style="color:blue">

</p><p class="bigeq">
$$
(X,Y) = (a\cos{\frac{2\pi t}{T}},b\sin{\frac{2\pi t}{T}})
$$
</p>
<p></p>

$$
X = g(x - x_0) - X_0
$$
$$
Y = f(X)
$$
    
$$
y = y_0 - G(Y - Y_0)
$$


<p>
    X and Y, and $X_0$ and $Y_0$ in physical units of the System. x and y and x0 and y0 in pixels.  G is in pixels per Y unit and g is in X units per pixel. 
</p>


</equation>
-->
	<path d = "M151 237 L147.56043025345105 236.80162939327812 L144.20924804016724 236.74480214517308 L140.89544038669487 236.59107801456364 L137.63870099802944 236.3413705721803 L134.45838442684084 235.99716381022174 L131.37339105085005 235.56050332310264 L128.40205474933214 235.03398415064297 L125.56203394627647 234.42073535594514 L122.87020666772591 233.72440142961167 L120.34257023696108 232.9491206308167 L117.99414620363379 232.09950039394894 L115.83889107184834 231.18058994698202 L113.88961335772686 230.19785030429938 L112.15789746937946 229.1571218123044 L110.65403486165422 228.06458944068902 L109.38696287480963 226.9267460256328 L108.36421162058608 225.75035368337493 L107.59185923132875 224.5424036234755 L107.07449573811289 223.31007460059277 L106.81519579254052 222.06069025169418 L106.81550039432182 220.80167557224297 L107.07540773323171 219.54051279001905 L107.59337319986801 218.28469689881246 L108.3663185651467 217.0416911162497 L109.38965027398154 215.8188825304629 L110.65728674443005 214.62353819919133 L112.161694510069 213.46276196221376 L113.89393299080821 212.34345222377303 L115.84370762607301 211.2722609558882 L117.99943105458911 210.2555541661944 L120.34829197718268 209.29937406524726 L122.87633129335005 208.40940315812844 L125.5685250591223 207.59093047375336 L128.40887377321332 206.84882013257752 L131.38049746083013 206.18748243950134 L134.46573599006973 205.61084767376607 L137.64625402473013 205.12234273160522 L140.90314998980844 204.72487076046306 L144.21706840211291 204.4207939058115 L147.56831489841704 204.21191927310076 L150.93697327755072 204.09948818826996 L154.3030238608584 204.08416882064233 L157.64646246761524 204.16605221204594 L160.9474192983406 204.34465173575924 L164.18627701949413 204.6189059884963 L167.3437873477858 204.9871850982452 L170.40118544124894 205.44730041047265 L173.34030141725827 205.99651749513006 L176.1436683347504 206.63157239716188 L178.79462599891608 207.34869103394038 L181.27741997146165 208.1436116243496 L183.57729519802905 209.0116100162241 L185.6805836963528 209.94752776162304 L187.57478578403203 210.94580277309137 L189.24864436318498 212.00050237871935 L190.69221182051928 213.10535857955708 L191.8969091452357 214.25380529985213 L192.85557691343197 215.43901740873468 L193.5625178360106 216.65395128144732 L194.0135306172313 217.89138665906725 L194.20593492268995 219.14396955795215 L194.13858730834028 220.40425597390117 L193.8118880158945 221.66475612130193 L193.22777859421745 222.91797894435226 L192.38973036085025 224.15647663583115 L191.30272377223628 225.3728888988463 L189.97321882525006 226.5599866885147 L188.40911666593084 227.71071517362245 L186.6197126335769 228.81823566294628 L184.61564101925634 229.8759662470714 L182.4088118670301 230.87762091417497 L180.01234019347243 231.81724690731266 L177.44046804613225 232.68926010119725 L174.70847986413594 233.48847818822722 L171.83261164393636 234.2101514765439 L168.82995445002976 234.84999111708618 L165.71835284406964 235.404194591892 L162.516298836003 235.86946831217116 L159.24282198747264 236.24304719185128 L155.9173763205903 236.52271108027233 L152.55972470417348 236.70679795637204 L149.18982140453016 236.79421380594965 L145.82769349878316 236.78443912330854 L142.49332185548516 236.67753199863876 L139.2065223898476 236.4741277727915 L135.98682829927478 236.17543526149697 L132.8533739790685 235.7832295714654 L129.82478130818228 235.29984155106354 L126.9190489808221 234.7281439382616 L124.15344554158511 234.07153428817156 L121.54440675982255 233.3339147816374 L119.10743795312156 232.51966903487335 L116.8570218403906 231.63363604796854 L114.80653247217086 230.68108144708023 L112.96815574967823 229.66766619122106 L111.35281700492641 228.5994129296132 L109.97011607231528 227.48267020954563 L108.82827023755101 226.32407474744383 L107.93406540294647 225.13051198737267 L107.29281575932376 223.90907518136981 L106.90833220418523 222.66702323479228 L106.78289969384161 221.41173756719814 L106.91726366409185 220.1506782451354 L107.3106256001551 218.89133964753847 L107.96064778218293 217.64120592720795 L108.86346717814945 216.407706533064 L110.01371840155431 215.1981720575009 L111.40456559750402 214.01979067123773 L113.0277430676735 212.87956540457074 L114.87360439271816 211.78427252890077 L116.931179760205 210.74042128587143 L119.18824115736717 209.7542152034449 L121.63137504124735 208.83151522881028 L124.24606205435568 207.97780489722365 L127.01676331209889 207.1981577437782 L129.927012749181 206.49720715177372 L132.95951497616772 205.87911881687484 L136.09624806466098 205.34756599070062 L139.31857065023823 204.9057076509719 L142.60733271665336 204.5561697279484 L145.942989402916 204.30102949872662 L149.3057171569028 204.14180324214118 L152.67553154520903 204.07943722763568 L156.0324060191051 204.11430209165616 L159.35639093078152 204.24619063498696 L162.6277320925769 204.47431905411975 L165.82698817460235 204.79733159933778 L168.9351462430751 205.21330863183263 L171.93373475272745 205.7197780319705 L174.80493332178497 206.31372989090977 L177.5316786371302 206.99163439825873 L180.09776586026516 207.7494628194682 L182.4879449314248 208.58271143829236 L184.6880111995141 209.48642832202935 L186.68488983926113 210.45524275047788 L188.46671355390177 211.48339713371593 L190.0228931016153 212.56478122901646 L191.34418022657718 213.69296845355197 L192.42272262063494 214.86125407708374 L193.25211058897372 216.06269506765992 L193.8274151424417 217.29015135352253 L194.14521729015493 218.53632825600695 L194.20362835829815 219.79381984125826 L194.0023012143685 221.05515293312865 L193.54243233015762 222.3128315256909 L192.82675467121126 223.5593813314271 L191.85952145502455 224.78739420034682 L190.64648087449612 225.98957214605502 L189.19484193685835 227.1587707171258 L187.51323162109955 228.28804145603004 L185.61164360848866 229.37067319328622 L183.50137889089348 230.40023193142622 L181.19497860985177 231.37059908174933 L178.70614952552754 232.2760078266265 L176.04968255848587 233.11107739125535 L173.24136488838545 233.87084502119245 L170.29788613197874 234.55079547562323 L167.2367391579988 235.1468878610917 L164.0761161283808 235.65557964622099 L160.83480038363672 236.07384771470575 L157.53205481490264 236.39920633146082 L154.1875073860517 236.62972191515436 L150.82103448620924 236.76402452933354 L147.45264280589518 236.80131602385194 L144.1023504387942 236.7413747782148 L140.79006791575955 236.58455701865248 L137.53547987805345 236.33179470109536 L134.35792809303192 235.98458997263123 L131.27629650750347 235.54500624435997 L128.30889902188005 235.01565592869986 L125.47337065206999 234.39968491402033 L122.78656272592943 233.7007538688687 L120.26444273711233 232.92301648689732 L117.92199945147865 232.07109480178053 L115.7731538300072 231.15005171882245 L113.83067629759155 230.16536092649895 L112.1061108493829 229.12287436674617 L110.60970644571131 228.02878745731806 L109.35035610330004 226.88960227289323 L108.33554404474833 225.71208890374356 L107.57130122036966 224.50324522160602 L107.06216946671648 223.2702552918673 L106.81117451479338 222.02044667921373 L106.81980800836945 220.76124690047553 L107.0880186392539 219.50013928346337 L107.61421245221644 218.24461849412486 L108.39526231774127 217.00214599631852 L109.42652651631812 215.78010570890623 L110.70187632382572 214.58576012368874 L112.2137324340697 213.42620714497352 L113.95311000201843 212.3083379072734 L115.90967204004909 211.2387958218218 L118.07179084987268 210.22393709528905 L120.42661712505426 209.26979295533297 L122.96015631345679 208.38203380747507 L125.65735178579189 207.56593553631495 L128.50217431601473 206.82634815135225 L131.47771734178582 206.1676669637519 L134.56629743887572 205.5938064653467 L137.74955941240069 205.10817706511193 L141.00858538033933 204.71366482136648 L144.32400720105642 204.41261429014918 L147.6761215766841 204.20681459170186 L151.04500714831198 204.09748877786495 L154.41064288709717 204.08528656357404 L157.75302707770393 204.17028046565378 L161.05229618696575 204.35196537185595 L164.288842911342 204.62926154270292 L167.44343270161917 205.00052102829648 L170.49731807236424 205.46353746195803 L173.43235001679432 206.01555917249658 L176.23108586493234 206.65330553717982 L178.87689294405956 207.3729864782237 L181.35404742541473 208.17032498693436 L183.6478277697036 209.0405825416431 L185.74460221607936 209.97858726837745 L187.63190979465264 210.97876467691222 L189.29853438108108 212.0351707895376 L190.73457135313691 213.14152746566344 L191.93148645311786 214.29125971232747 L192.88216650628718 215.47753475887535 L193.5809616939256 216.6933026635924 L194.02371912977162 217.9313382109676 L194.20780754030613 219.18428385059568 L194.13213290220932 220.44469342253547 L193.79714494405755 221.70507640926786 L193.20483447362088 222.95794245126763 L192.35872154664486 224.19584586163614 L191.26383454742916 225.4114298752483 L189.9266803055247 226.59747036944376 L188.35520542614444 227.74691879643464 L186.55874906409704 228.852944072285 L184.5479874219057 229.90897317351914 L182.33487030195442 230.9087302000967 L179.93255008972784 231.84627367260563 L177.3553035901921 232.71603184201922 L174.61844718183704 233.5128358021736 L171.73824579261165 234.2319502081812 L168.7318162387039 234.86910141822236 L165.61702550061352 235.42050289147156 L162.41238454105556 235.8828776912192 L159.13693829572736 236.25347795945544 L155.81015249071487 236.5301012471799 L152.45179795917375 236.71110360338733 L149.08183314478285 236.79540934494233 L145.7202854902424 236.78251744928195 L142.38713241571656 236.67250453195442 L139.10218259455593 236.4660243912987 L135.88495823186943 236.16430412297115 L132.75457904555503 235.7691368274099 L129.72964863928155 235.2828709535766 L126.82814394269671 234.7083963423039 L124.06730837591195 234.04912705219292 L121.46354937317776 233.30898107012445 L119.03234087475896 232.49235702696333 L116.78813136649336 231.60410805683193 L114.74425801354724 230.64951295530605 L112.91286739866467 229.63424480793728 L111.30484333595697 228.5643372755401 L109.92974218922919 227.446148736608 L108.79573607924215 226.28632449995726 L107.90956431742508 225.0917573121657 L107.27649335466387 223.86954639450792 L106.90028548318719 222.62695525282732 L106.78317647755185 221.37136851107707 L106.92586230760597 220.11024802506594 L107.32749500239348 218.85108853722085 L107.98568768958054 217.6013731359069 L108.89652878045504 216.3685287840065 L110.05460521619844 215.1598821810479 L111.4530346372798 213.9826162211914 L113.08350628479104 212.8437273058396 L114.93633039065048 211.74998376455977 L117.00049576315209 210.70788563142008 L119.26373522563426 209.7236260157848 L121.71259851937074 208.80305429714008 L124.33253223742798 207.9516413626797 L127.10796631444697 207.1744470942418 L130.02240655834945 206.47609029781847 L133.05853267405732 205.8607212543459 L136.19830119667938 205.3319970549026 L139.42305272244076 204.89305986689735 L142.7136228000899 204.5465182604091 L146.05045582376414 204.29443170565472 L149.41372125045703 204.13829833371537 L152.78343145141616 204.07904603325824 L156.13956049708938 204.1170269361653 L159.46216316968986 204.2520153248405 L162.7314934960975 204.48320897363217 L165.92812209666369 204.80923391639854 L169.03305165252678 205.22815261188333 L172.02782980522218 205.73747545837497 L174.89465881763505 206.33417558921883 L177.6165013445878 207.01470686125367 L180.17718168447888 207.77502492926928 L182.56148191023578 208.61061128123944 L184.75523230829137 209.51650009149336 L186.74539558810537 210.48730773223684 L188.52014436178337 211.51726476803995 L190.0689314333364 212.60025024314945 L191.38255247985987 213.72982805786054 L192.4532007521177 214.8992852177634 L193.27451346945634 216.10167172855543 L193.84160963332192 217.32984189932455 L194.15111903466092 218.5764968088425 L194.20120228281445 219.83422768249542 L193.99156173687584 221.09555992206285 L193.52344327454796 222.35299752668266 L192.79962888798724 223.59906764100987 L191.8244201506375 224.82636496582344 L190.6036126533089 226.02759576715187 L189.14446156142498 227.19562122237596 L187.45563849813126 228.3234998457042 L185.54718000950285 229.40452874089112 L183.43042791812005 230.43228343603627 L181.11796191948574 231.40065606372843 L178.62352482185918 232.3038916596335 L175.96194087379882 233.136622363807 L173.14902766478932 233.89389932147407 L170.2015021225188 234.57122209369456 L167.1368811654593 235.16456540312643 L163.9733776011602 235.67040305594128 L160.72979188893112 236.08572889772333 L157.42540041015064 236.4080746788153 L154.07984091020947 236.63552472293685 L150.71299579289374 236.76672731190197 L147.3448739607836 236.80090271877663 L143.99549190387586 236.73784784173608 L140.6847547431207 236.57793741108364 L137.4323379358104 236.32212176225707 L134.25757034584484 235.9719211880578 L131.17931937377537 235.5294169036676 L128.2158788292866 234.99723867814583 L125.38486021248892 234.37854920591369 L122.703088050122 233.6770253111034 L120.18649990868134 232.89683609647415 L117.85005167868167 232.0426181667539 L115.70762869294595 231.11944807365268 L113.7719632071352 230.13281214630453 L112.05455873292962 229.08857388643403 L110.56562167353961 227.99293912201477 L109.31400066783337 226.852419126509 L108.30713400355414 225.67379192286845 L107.5510054121462 224.46406200226323 L107.05010850789705 223.23041869692742 L106.80742008273216 221.98019345450834 L106.82438241536858 220.72081626783495 L107.10089469996296 219.45977151904003 L107.63531364519324 218.20455350044966 L108.42446324021259 216.96262187657942 L109.46365362943894 215.7413573519186 L110.74670898400731 214.54801780796944 L112.26600420424751 213.38969517021323 L114.01251023506697 212.27327326134082 L115.97584772493451 211.20538689122108 L118.14434870956967 210.19238242673518 L120.50512595376175 209.24028007580358 L123.04414953922094 208.35473810975196 L125.74633024330694 207.54101923663853 L128.59560921312487 206.8039593253825 L131.57505340205603 206.14793866656623 L134.6669562015573 205.57685594070375 L137.8529426701792 205.094105048681 L141.11407873443451 204.7025549420631 L144.43098371254703 204.40453257313487 L147.78394549235858 204.20180906600163 L151.1530376789006 204.09558919093456 L154.51823801543327 204.08650420451306 L157.8595473741832 204.17460809811539 L161.15710860962773 204.35937727705203 L164.3913245679887 204.6397136722487 L167.54297455161696 205.0139512659869 L170.59332854612515 205.47986599291946 L173.52425853142856 206.03468895752053 L176.3183462151788 206.67512288941947 L178.9589865483426 207.39736173882633 L181.4304864077336 208.19711329559374 L183.71815785904283 209.0696246974932 L185.80840544610635 210.00971067611115 L187.68880698765975 211.01178437250198 L189.34818740140926 212.06989053946216 L190.77668511669071 213.1777409331092 L191.96581068102708 214.32875168343196 L192.908497212295 215.51608242172665 L193.5991423966637 216.7326769323837 L194.03364178271647 217.97130508743598 L194.2094131738915 219.22460581465646 L194.12541197427782 220.4851308438455 L193.782137396569 221.74538897133044 L193.1816294952801 222.99789057961502 L192.32745704286035 224.23519214760222 L191.22469632075158 225.44994048687 L189.87990095143658 226.63491644110678 L188.30106295076305 227.78307778900407 L186.49756523200546 228.88760109563833 L184.48012584393032 229.9419222636219 L182.26073427425396 230.93977554303075 L179.852580197035 231.87523076827648 L177.26997508745228 232.74272860062584 L174.52826716980445 233.537113566925 L171.64375020418848 234.25366469818152 L168.63356665393275 234.88812358592116 L165.51560580924877 235.43671968958367 L162.3083974725528 235.89619274455586 L159.03100183726772 236.26381213767482 L155.70289621455458 236.5373931350526 L152.3438592811444 236.7153098657824 L148.97385353617864 236.7965049843646 L145.61290666560387 236.78049595443028 L142.2809925191718 236.66737791641785 L138.99791240737787 236.45782312216056 L135.78317742379204 236.15307693974557 L132.655892492123 235.75495045238668 L129.63464282712076 235.2658096952956 L126.73738348406971 234.68856159451585 L123.98133265327087 234.0266366912843 L121.38286933365515 233.28396875458708 L118.9574359936484 232.46497140307204 L116.7194467977646 231.5745118752515 L114.6822019443297 230.61788210387596 L112.85780862342313 229.60076726638408 L111.25710906477448 228.52921199832844 L109.88961610322218 227.4095844705692 L108.7634566446655 226.248538543723 L107.88532336848536 225.0529742247789 L107.26043495346343 223.82999666088557 L106.89250506357402 222.5868739140062 L106.7837202779636 221.3309937673829 L106.93472709627844 220.06981982050715 L107.3446280965668 218.81084713351973 L108.01098726858868 217.56155768464254 L108.92984449083829 216.32937590535522 L110.0957390652425 215.12162455756786 L111.5017421696713 213.94548121500782 L113.13949803539671 212.80793560744908 L114.99927360478634 211.71574808128366 L117.07001637411895 210.6754094233011 L119.3394200777677 209.69310228643954 L121.793997823393 208.77466444675355 L124.41916224351132 207.92555410995774 L127.19931218710276 207.15081747372852 L130.11792543605532 206.45505873853813 L133.15765689544105 205.84241274524402 L136.3004416740877 205.31652040204605 L139.52760244284198 204.88050704684832 L142.8199604325058 204.5369638736154 L146.15794941179212 204.28793253310508 L149.52173196793973 204.13489299949427 L152.89131739893455 204.07875477500608 L156.2466805167231 204.11985148480753 L159.5678806553693 204.25793889430096 L162.83518017690471 204.49219636059138 L166.0291617705985 204.82123170950433 L169.1308438485488 205.2430895091706 L172.12179335180255 205.7552626910075 L174.9842352966154 206.3547074490358 L177.70115840981683 207.03786132898534 L180.25641622550364 207.8006643996878 L182.6348230422499 208.63858338093667 L184.82224417056594 209.5466385844237 L186.80567993427724 210.51943350764597 L188.57334292660187 211.5511869049059 L190.11472806180703 212.63576714481204 L191.42067500612785 213.766728650094 L192.48342261693057 214.9373502031755 L193.29665506658674 216.14067488985398 L193.85553937695454 217.3695514437102 L194.15675414139665 218.61667674553556 L194.19850926364566 219.87463922521053 L193.9805565962092 221.13596290809758 L193.50419141509119 222.39315184418678 L192.77224472206612 223.63873465595074 L191.7890664202522 224.86530894017022 L190.56049946297014 226.06558525984906 L189.09384512952 227.2324304647789 L187.39781963423687 228.35891008330543 L185.4825023266973 229.43832953336155 L183.35927579091694 230.46427390785593 L181.04075819952604 231.43064609797412 L178.54072832493506 232.33170302782963 L175.87404365314822 233.16208978512304 L173.05655208686028 233.91687144497638 L170.104997762586 234.59156239781314 L167.0369215415397 235.1821530069924 L163.87055676564097 235.6851334377722 L160.62472089815938 236.09751451598865 L157.31870369297448 236.41684549248862 L153.972152557045 236.64122860774447 L150.6049557873731 236.76933037009348 L147.23712437638156 236.80038948057663 L143.88867308811743 236.7342213572799 L140.5795015120444 236.57121923229056 L137.32927580130385 236.31235181474887 L134.15731179827816 235.9591575338841 L131.08246024201463 235.5137353962472 L128.1229947397311 234.9787325114759 L125.29650316816628 234.3573283607248 L122.6197831501776 233.6532159012528 L120.10874222775261 232.87057961946027 L117.77830332470928 232.0140706628081 L115.6423160609005 231.08877919840373 L113.71347444498471 230.10020416252817 L112.0032414349066 229.0542205808797 L110.52178081441448 227.95704465374533 L109.277896790473 226.81519681359933 L108.27898167053564 225.63546297467238 L107.5309719306278 224.42485420478343 L107.03831293532443 223.1905650591001 L106.80393251928943 221.93993082344983 L106.82922358737807 220.68038392127693 L107.11403583671039 219.4194097433202 L107.65667664990966 218.16450216250897 L108.45392115419781 216.9231189984505 L109.50103138656695 215.70263769617986 L110.79178445113126 214.51031148256828 L112.31850950131968 213.35322626095268 L114.07213332713002 212.2382585001543 L116.04223427651978 211.172034368152 L118.21710419048779 210.16089035327255 L120.5838179837634 209.2108356069274 L123.12831045760082 208.32751623168485 L125.8354598881755 207.5161817269161 L128.68917789383153 206.78165379142206 L131.67250504709963 206.1282976684473 L134.7677116632782 205.55999620337323 L137.95640316658742 205.08012676826618 L141.21962940772642 204.69154119041357 L144.5379972831588 204.39654880413275 L147.89178598683856 204.19690272657448 L151.26106420945231 204.0937894390817 L154.62580858866215 204.08782173602185 L157.96602270641418 204.17903508299705 L161.26185592611853 204.3668874060745 L164.49372136346346 204.65026231329068 L167.64241228976505 205.02747572928286 L170.68921627608722 205.49628590362016 L173.61602639977184 206.05390673335472 L176.40544885249292 206.69702432061783 L179.0409063103273 207.42181666686122 L181.50673645151937 208.2239763867013 L183.78828503646184 209.09873630638134 L185.87199299671562 210.04089779471846 L187.7454770155179 211.044861658172 L189.3976031208828 212.10466141642058 L190.8185528539447 213.2139987606982 " stroke = "blue" stroke-width = "4" fill = "none" /></svg>