<svg width="330.5785123966942" height="440.00000000000006" viewbox = "0 0 330.5785123966942 440.00000000000006"  xmlns="http://www.w3.org/2000/svg">

<!--
<topfunctions>




function YofX(){
    X = plotparams.g*(x - plotparams.x0) - funcparams.X0;
    Y = funcparams.a*X*X*X + funcparams.b*X*X + funcparams.c*X + funcparams.d;
    y = plotparams.y0 - plotparams.G*(Y - funcparams.Y0);
}


function YofX2(){
    X = plotparams.g*(x - plotparams.x0) - funcparams.X0;
    Y = funcparams.b*X*X + funcparams.c*X + funcparams.d;
    y = plotparams.y0 - plotparams.G*(Y - funcparams.Y0);
 }

function XYofT(){
    T = plotparams.g*t;
    X = funcparams.a*Math.cos(2*Math.PI*T/funcparams.T);
    Y = funcparams.b*Math.sin(2*Math.PI*T/funcparams.T);

    Xrot = Math.cos(Math.PI*funcparams.theta/180)*X - Math.sin(funcparams.theta*Math.PI/180)*Y;
    Yrot = Math.sin(funcparams.theta*Math.PI/180)*X + Math.cos(funcparams.theta*Math.PI/180)*Y;
    X = Xrot;
    Y = Yrot;

    y = plotparams.y0 - plotparams.G*(Y - funcparams.Y0);
    x = plotparams.x0 - plotparams.G*(X - funcparams.X0);    
}


function plotfunction(){


    currentStroke = "blue";
    currentLineWidth = 4;
    ctx.strokeStyle = currentStroke;
    ctx.lineWidth = currentLineWidth;
    ctx.beginPath();	
    x = 0;
    y = 0;
    t= 0;
    XYofT();
    currentSVG += "	<path d = \"M";
    currentSVG += Math.round(x).toString() + " ";
    currentSVG += Math.round(y).toString() + " ";
    for(t = 1;t < plotparams.duration;t++){
        ctx.moveTo(x,y);
        XYofT();
        ctx.lineTo(x,y);
        currentSVG += "L" + x + " " + y + " ";
    }
    ctx.stroke();
    currentSVG += "\""+ " stroke = \"" + currentStroke + "\" stroke-width = \"" + currentLineWidth.toString() + "\" fill = \"" + "none" + "\" "+"/>";


    /*plot one function:
    currentStroke = "blue";
    currentLineWidth = 4;
    ctx.strokeStyle = currentStroke;
    ctx.lineWidth = currentLineWidth;
    ctx.beginPath();	
    x = 0;
    YofX();
    currentSVG += "	<path d = \"M";
    currentSVG += Math.round(x).toString() + " ";
    currentSVG += Math.round(y).toString() + " ";
    for(x = 1;x < plotparams.plotwidth;x++){
        ctx.moveTo(x-1,y);
        YofX();
        ctx.lineTo(x,y);
        currentSVG += "L" + x + " " + y + " ";
    }
    ctx.stroke();
    currentSVG += "\""+ " stroke = \"" + currentStroke + "\" stroke-width = \"" + currentLineWidth.toString() + "\" fill = \"" + "none" + "\" "+"/>";
    /*finish plot one function*/
    

}






















</topfunctions>
-->

<!--
<imgurl>
https://i.imgur.com/Iug1fgk.jpg
</imgurl>
-->

<!--
<currentjson>
{
    "constants": {},
    "imgurl": "https://i.imgur.com/Iug1fgk.jpg",
    "plotparams": {
        "G": -39.66883970994669,
        "g": 0.017985878990921366,
        "duration": 545.4545454545454,
        "plotwidth": 330.5785123966942,
        "plotheight": 440.00000000000006,
        "x0": 153.52317951508834,
        "y0": 198.41603960396034
    },
    "funcparams": {
        "theta": 88.48763609787974,
        "a": 0.8826306418677652,
        "b": 2.016056112140109,
        "T": 1.4655609018152753,
        "X0": 0,
        "Y0": 0
    }
}
</currentjson>
-->

<!--
<equation>

<h2>Ellipse</h2>
<p style="color:blue">

</p><p class="bigeq">
$$
(X,Y) = (a\cos{\frac{2\pi t}{T}},b\sin{\frac{2\pi t}{T}})
$$
</p>
<p></p>

$$
X = g(x - x_0) - X_0
$$
$$
Y = f(X)
$$
    
$$
y = y_0 - G(Y - Y_0)
$$


<p>
    X and Y, and $X_0$ and $Y_0$ in physical units of the System. x and y and x0 and y0 in pixels.  G is in pixels per Y unit and g is in X units per pixel. 
</p>


</equation>
-->
	<path d = "M154 233 L148.2859748562804 233.47537006867765 L142.15580989587522 233.3256088150597 L136.09320034219988 232.96838266623564 L130.13417581934175 232.40581458983883 L124.31415035348634 231.64124788484588 L118.66771191007285 230.67922631260683 L113.22841684016552 229.52546709361974 L108.02859045763034 228.1868269305271 L103.09913493227118 226.67126125925762 L98.46934564060237 224.98777697047973 L94.16673706567052 223.14637888234057 L90.21687928058974 221.15801028259827 L86.6432459875563 219.03448789350114 L83.46707501543487 216.7884316459128 L80.7072421049687 214.43318968002984 L78.38014873169861 211.98275901840736 L76.49962463325045 209.45170238272638 L75.07684562026391 206.8550616486544 L74.12026715940618 204.20826845313104 L73.63557412318137 201.52705248533178 L73.6256470051688 198.82734800633048 L74.09054480147017 196.1251991530065 L75.0275046601005 193.43666458896854 L76.43095830040562 190.77772206914722 L78.29256510492756 188.16417348522143 L80.60126168705506 185.6115509561871 L83.34332763988253 183.1350245221637 L86.50246707553723 180.74931199000818 L90.05990547039218 178.46859146651656 L93.99450124062184 176.30641709902127 L98.28287138501493 174.2756385241322 L102.8995304483591 172.38832450333072 L107.8170419795487 170.6556911992449 L113.00618158431166 169.08803551885424 L118.43611060354561 167.69467391976053 L124.07455938510617 166.48388704319404 L129.88801905987737 165.46287050279713 L135.84194068241337 164.63769212164362 L141.9009405526742 164.0132558716313 L148.02901049864468 163.59327272955233 L154.18973187014103 163.38023862304297 L160.34649197205968 163.37541959747642 L166.4627016508183 163.57884429195246 L172.5020127408927 163.98930376909726 L178.42853407917968 164.60435869968578 L184.2070448034294 165.42035385938823 L189.8032036671314 166.43243985148845 L195.18375312691137 167.63460192647688 L200.31671698956362 169.0196957272462 L205.1715904441171 170.5794897474581 L209.71952134959014 172.3047142507549 L213.9334817010538 174.18511636009262 L217.78842825499407 176.20952098980337 L221.2614513593897 178.36589725827366 L224.33191110401881 180.6414299865519 L226.98155998186405 183.02259585797518 L229.19465133264862 185.49524378620382 L230.95803292403195 188.04467901404365 L232.26122511431896 190.655750443262 L233.09648313216752 193.31294067640363 L233.45884310317123 196.00045823549505 L233.3461515497849 198.7023314095882 L232.7590781892764 201.40250317341494 L231.7011119536482 204.0849266130579 L230.17854025518204 206.7336602915306 L228.20041162082924 209.3329629875161 L225.77848191750843 211.86738724423907 L222.92714448788888 214.3218711725181 L219.66334461185818 216.68182796241905 L216.00647880202166 218.9332325715489 L211.9782795317146 221.06270507480815 L207.60268608057768 223.0575901802606 L202.90570226525253 224.9060324385638 L197.91524190069177 226.59704669899602 L192.66096291049521 228.12058339336542 L187.17409107214183 229.4675882598241 L181.48723444458787 230.63005615165204 L175.63418958106894 231.6010786112313 L169.64974067877478 232.37488492647995 L163.56945285902998 232.94687642575212 L157.42946080650293 233.313653807391 L151.26625402354276 233.47303734151845 L145.11645997586322 233.42407982400232 L139.01662641832004 233.16707220561835 L133.00300419440356 232.7035418629518 L127.11133180025357 232.0362435213155 L121.37662299351501 231.1691428836284 L115.83295870925832 230.10739306254686 L110.51328451959418 228.85730395591108 L105.44921484066191 227.4263047475055 L100.67084505057709 225.82289975598889 L96.20657263490489 224.05661789438017 L92.08292842257882 222.1379560404582 L88.32441891521765 220.0783166546215 L84.95338064686332 217.88994001593971 L81.98984743967087 215.58583147911298 L79.45143134443778 213.17968418464503 L77.35321797353603 210.68579768155865 L75.7076768482731 208.1189929462712 L74.5245872934824 205.4945243026674 L73.81098031974503 202.82798876682114 L73.57109683863251 200.13523335512386 L73.80636245929429 197.43226090668026 L74.5153790161718 194.73513497966195 L75.69393287818917 192.05988438681143 L77.33501999004004 189.42240793743605 L79.42888749675134 186.83837995200292 L81.96309170415356 184.32315711085278 L84.92257203080149 181.89168719062536 L88.28974051185604 179.55842023076826 L92.04458632301183 177.33722265805932 L96.16479470329253 175.241294879495 L100.62587956996619 173.28309283328264 L105.40132903745858 171.47425396415417 L110.46276297545805 169.82552806292364 L115.78010166985553 168.34671338130406 L121.32174458418098 167.04659840164808 L127.05475815917067 165.9329096076708 L132.9450715343861 165.01226556654902 L138.95767902872802 164.29013759528343 L145.0568481765167 163.77081724508102 L151.20633208279799 163.45739079699507 L157.36958483586287 163.35172092039323 L163.5099786968008 163.45443560325614 L169.59102177534595 163.76492442009317 L175.57657489838462 164.281342159654 L181.43106638229312 165.00061979087818 L187.11970343272765 165.91848270191107 L192.6086789155354 167.02947610379505 L197.86537226996288 168.32699744786203 L202.85854337014908 169.80333566417454 L207.55851818280027 171.4497169878235 L211.93736511769572 173.25635710074081 L215.96906102298914 175.21251927915213 L219.62964583880597 177.30657820110358 L222.89736499004346 179.52608903485944 L225.75279867214385 181.85786139758375 L228.17897726150505 184.28803774477478 L230.16148216465348 186.80217572459057 L231.68853150684032 189.38533400763896 L232.7510501508207 192.0221610821539 L233.34272362969892 194.6969864868535 L233.46003567332139 197.3939139392908 L233.10228910520078 200.09691580624255 L232.27160998578242 202.7899283547054 L230.97293497743013 205.45694721743035 L229.21398200621994 208.08212250565134 L227.00520439489645 210.64985300375986 L224.3597287395772 213.14487888613348 L221.2932768993973 215.55237240511104 L217.82407256270477 217.85802601116086 L213.97273294507772 220.048137381551 L209.7621462627916 222.10969085220356 L205.2173357099025 224.03043476878972 L200.36531074732312 225.79895429737203 L195.23490658766593 227.40473926188807 L189.85661282978273 228.8382466053219 L184.26239226141573 230.09095710336047 L178.48549090679876 231.15542599349092 L172.56024044808166 232.02532721865413 L166.5218541947747 232.69549102251685 L160.4062178137467 233.16193467293775 L154.24967606345734 233.42188613103917 L148.08881679984222 233.47380052522192 L141.96025353748703 233.3173693322189 L135.9004078583168 232.95352221062495 L129.94529296092475 232.38442147600745 L124.13029963689164 231.61344925043025 L118.48998594602331 230.6451873627615 L113.05787184044894 229.4853901192157 L107.86623995811362 228.14095010595275 L102.94594376953427 226.61985722696647 L98.32622421798872 224.93115122069736 L94.03453594282948 223.0848679375596 L90.0963841186655 221.09197969765071 L86.53517288006445 218.96433008309447 L83.37206623257325 216.7145635525391 L80.62586227665454 214.35605029610846 L78.31288149201663 211.90280677738687 L76.44686974625247 209.3694124346497 L75.0389166042015 206.77092303637824 L74.09738942351582 204.12278120598174 L73.6278836280947 201.44072464746964 L73.63318945490887 198.74069261748178 L74.11327537183608 196.03873119950796 L75.06528826505406 193.3508979432431 L76.48357039487743 190.69316643579927 L78.359693019271 188.08133137190185 L80.68250648521825 185.53091468722826 L83.4382064902547 183.05707331273396 L86.61041612037964 180.67450909817308 L90.18028317680199 178.39738144013108 L94.12659221311279 176.23922313381644 L98.42589061705758 174.21285994869515 L103.05262798761503 172.3303344059254 L107.97930797907156 170.60283421057736 L113.17665170969848 169.0406257639584 L118.61377176390201 167.65299315117738 L124.25835575376765 166.44818296653793 L130.07685834910657 165.43335530466013 L136.03470063478227 164.61454120858696 L142.09647561055468 163.99660682775746 L148.22615861216852 163.58322449885358 L154.38732140317416 163.37685092138446 L160.54334866514588 163.37871255770958 L166.657655599713 163.58879834426688 L172.6939053492137 164.0058597573227 L178.616224943858 164.62741823285262 L184.38941849203613 165.4497798964576 L189.97917634680755 166.4680575157765 L195.35227900550439 167.67619954493372 L200.47679453068844 169.0670260884123 L205.32226831921128 170.6322715706233 L209.85990409158626 172.36263385758804 L214.06273502607164 174.24782953880776 L217.9057840204259 176.27665504078428 L221.36621212891285 178.43705320899886 L224.4234542924063 180.7161849626579 L227.05934155496104 183.10050559636642 L229.25820904052523 185.57584527527396 L231.0069890481 188.1274932453187 L232.2952887120838 190.74028525811025 L233.1154517662774 193.3986936908971 L233.46260404448702 196.08691982603864 L233.33468244732046 198.78898774157358 L232.73244720302893 201.4888392549003 L231.6594773495287 204.17042935532572 L230.1221494644529 206.81782155833443 L228.12959976963936 209.41528261489535 L225.69366983526413 211.9473760129552 L222.828836206297 214.39905371544702 L219.55212436950433 216.75574558962154 L215.88300757228498 219.0034459962297 L211.84329109465352 221.1287970239638 L207.45698266213148 223.11916787450102 L202.75014976967367 224.96272992636995 L197.75076476454396 226.64852703154168 L192.48853860879697 228.16654062697853 L186.99474430930806 229.50774927418624 L181.30203106468906 230.66418227293187 L175.44423023360244 231.62896703050464 L169.4561542775888 232.39636990500776 L163.37338987327507 232.96183027995306 L157.2320864234818 233.32198766765532 L151.06874122409187 233.474701680353 L144.9199825634172 233.41906475036902 L138.82235204308776 233.15540752371552 L132.8120874141126 232.6852968950903 L126.92490721870205 232.01152669594148 L121.19579851770771 231.13810109094135 L115.65880896520137 230.07021078154247 L110.34684446587387 228.81420215803658 L105.29147361776569 227.37753958344342 L100.52274010250717 225.7687610333731 L96.06898413802043 223.99742735549128 L91.95667405477545 222.0740654501339 L88.21024899653015 220.01010570974512 L84.8519736803713 217.81781408893065 L81.90180607920675 215.5102192088294 L79.37727881306155 213.10103492901618 L77.29339495406037 210.604578847085 L75.6625388643194 208.03568721026343 L74.49440259663099 205.40962674473195 L73.79592829533671 202.74200392664042 L73.57126693969514 200.0486722340153 L73.82175367493029 197.3456379307548 L74.54589987756583 194.64896494262877 L75.73940200220035 191.97467939059854 L77.39516715714797 189.33867434880807 L79.50335525695016 186.75661539326174 L82.05143750124975 184.2438475025065 L85.02427083249161 181.8153038636001 L88.40418792995334 179.48541712532435 L92.17110220527891 177.26803362605926 L96.30262717553424 175.176331106055 L100.7742095043601 173.222740393131 L105.55927492056921 171.4188715272187 L110.62938614700296 169.775444762784 L115.95441190109216 168.3022268591758 L121.50270596275996 167.00797303752387 L127.24129524548341 165.90037494913034 L133.13607575282043 164.9860149645753 L139.15201525584766 164.27032705519278 L145.25336148701308 163.75756449939544 L151.40385461312277 163.4507746057668 L157.56694272475164 163.3517806031398 L163.7059990614406 163.4611708052876 L169.78453968172775 163.77829511461982 L175.7664402844177 164.30126888566275 L181.61615089253468 165.026984125363 L187.2989071241136 165.95112796365206 L192.78093679425768 167.0682082845028 L198.0296606206461 168.37158636515414 L203.0138858397115 169.85351632953154 L207.70399158284746 171.50519118139601 L212.07210491095663 173.31679514364654 L216.09226646119555 175.27756199273256 L219.74058472147811 177.37583904149523 L222.99537801590137 179.5991563901944 L225.83730335728382 181.93430103416705 L228.24947140105797 184.367395387703 L230.21754681734882 186.88397975747162 L231.72983348474258 189.46909827537297 L232.77734399943972 192.1073877801156 L233.35385308670666 194.78316911930625 L233.4559345972076 197.48054032945296 L233.08298186834656 200.1834711401143 L232.2372113296172 202.87589824056903 L230.92364933053207 205.54182074284083 L229.15010226941232 208.16539527374994 L226.92711020056123 210.7310301308654 L224.26788419552798 213.2234779427992 L221.1882278307225 215.62792628316515 L217.70644326797134 217.9300856996946 L213.8432224861721 220.11627463535618 L209.6215243104481 222.1735007368015 L205.06643796961035 224.0895380669249 L200.2050339927919 225.85299976267183 L195.06620333136786 227.453405706293 L189.68048566224456 228.88124480788153 L184.07988789290098 230.1280315290511 L178.29769394678596 231.18635631184134 L172.36826695951635 232.04992961315207 L166.32684506139105 232.71361928301673 L160.2093319598838 233.17348106457635 L154.05208356666003 233.4267820344956 L147.89169193718087 233.47201684451704 L141.76476780691692 233.30891666763046 L135.70772301655788 232.93845079569104 L129.7565541192288 232.36282087899232 L123.94662845573399 231.5854478420269 L118.31247396916231 230.61095155319487 L112.88757400796266 229.44512336927897 L107.70416833697305 228.09489171785577 L102.79306153896678 226.56828092218095 L98.18343994537724 224.87436351325107 L93.90269818416641 223.0232063124469 L89.97627637565031 221.0258106051857 L86.4275089438115 218.89404676112392 L83.27748594160684 216.64058368946067 L80.54492771439776 214.27881354858053 L78.24607364637211 211.82277215748252 L76.39458565112815 209.2870555819828 L75.00146697996904 206.68673339141458 L74.07499683042286 204.03725910133116 L73.62068114360638 201.35437833444766 L73.64121988283861 198.6540352456111 L74.13649098796593 195.95227776691078 L75.1035511007561 193.26516223604523 L76.53665305705056 190.60865797474008 L78.42728004172095 187.99855238429063 L80.76419620344879 185.45035712224632 L83.53351342852915 182.97921591781792 L86.71877387686553 180.59981457385607 L90.3010477896548 178.32629369024812 L94.2590459874905 176.17216462741877 L98.56924639032721 174.15022920934854 L103.20603380739962 172.2725036433152 L108.14185216633697 170.55014710849514 L113.34736827679335 168.99339543781517 L118.79164615534748 167.61150028718288 L124.44233087568342 166.41267415360383 L130.26584085143875 165.40404156894112 L136.22756740899834 164.5915967593686 L142.2920804641915 163.98016802214357 L148.42333908056776 163.5733890314064 L154.5849056579193 163.3736772435335 L160.74016247814873 163.38221953037916 L166.85252932156175 163.59896512578712 L172.8856808603105 164.02262592728994 L178.80376253703272 164.6506841512033 L184.57160364574105 165.4794072956215 L190.15492634863267 166.50387032239036 L195.52054938665373 167.71798492623162 L200.63658527317853 169.1145357170744 L205.47262979890263 170.68522310056667 L209.9999427217249 172.42071260192708 L214.19161856780775 174.31069034001462 L218.02274652874544 176.34392432193346 L221.4705585045902 178.50833119390649 L224.51456441292493 180.79104805172034 L227.1366739598554 183.17850888398127 L229.32130414923802 185.6565251938793 L231.05547189123405 188.21037032033936 L232.32887115981706 190.82486695743938 L233.1339342406958 193.48447735197556 L233.46587670566115 196.17339564314108 L233.32272584607568 198.87564179554437 L232.70533239653042 201.57515656733577 L231.61736547899397 204.2558969490514 L230.0652907975022 206.9019315059888 L228.0583322129742 209.49753505750354 L225.60841692651343 212.02728213055275 L222.73010459696587 214.47613863209907 L219.44050081398257 216.8295511955743 L215.7591554408108 219.0735336704218 L211.70794643095545 221.19475024071724 L207.31094980917635 223.1805946789016 L202.59429658951848 225.01926526362533 L197.58601748069734 226.69983491647412 L192.31587630174437 228.2123161407589 L186.81519309791244 229.5477203764431 L181.11665800804258 230.69811141846708 L175.25413698957854 231.65665258100574 L169.26247055577264 232.41764732736925 L163.1772667211862 232.97657312408404 L157.03468938598672 233.33010831796264 L150.87124341666157 233.47615187643407 L144.72355770038902 233.4138358738196 L138.62816746237374 233.14353064934835 L132.6212971397978 232.66684260625973 L126.73864510276982 231.9866046650722 L121.01517150164298 231.10685942775348 L115.48489050152122 230.03283515284664 L110.18066813868288 228.77091468433056 L105.13402700024488 227.32859751886699 L100.37495888784164 225.7144552368663 L95.93174657864657 223.9380805622421 L91.83079574299448 222.01003035358792 L88.09647801750435 219.94176286557484 L84.75098616631212 217.74556965342265 L81.81420219117334 215.43450252512906 L79.30357917424867 213.02229597557366 L77.23403755577495 210.52328556346797 L75.61787646303173 207.9523227162281 L74.46470061757016 205.3246864690795 L73.78136325508858 202.65599266292116 L73.571925397178 199.96210114057973 L73.83763171698176 197.2590214929785 L74.5769031421985 194.56281791536526 L75.78534623938785 191.8895137390307 L77.45577932380871 189.25499620587811 L79.57827513962152 186.67492205176205 L82.14021985680908 184.1646244597067 L85.12638803420187 181.73902193597374 L88.51903310310855 179.41252965052297 L92.29799283381396 177.19897376876133 L96.4408091581659 175.11150928370114 L100.92286163615216 173.16254183684535 L105.71751377329079 171.36365399240933 L110.79627131927651 169.72553640302948 L116.12895160712534 168.2579242760343 L121.68386292645184 166.96953951785287 L127.4279928648782 165.86803890039263 L133.32720449827 164.9599685574311 L139.3464392638612 164.2507250814442 L145.44992531060635 163.74452345207067 L151.6013900885531 163.44437198681084 L157.76427591382227 163.35205446282663 L163.90195722812766 163.4681195160901 L169.9779582616601 163.79187738088206 L175.95616980579337 164.32140398901691 L181.8010638073441 165.05355240443242 L187.47790450907235 165.98397152519 L192.95295488162037 167.10713194173923 L198.19367712009856 168.4163587977762 L203.16892601376438 169.90387145840268 L207.8491340396242 171.56082974984307 L212.20648707995736 173.37738649592026 L216.21508971948492 175.34274603906832 L219.85111913984264 177.44522839809989 L223.0929666967612 179.67233868143788 L225.9213663385861 182.01084134329992 L228.3195091029445 184.4468388415315 L230.27314301112375 186.96585422963685 L231.77065776648556 189.55291719215919 L232.80315375357213 192.1926530121222 L233.36449492783734 194.8693739417924 L233.45134528168995 197.5671724337634 L233.06318867013113 200.27001567828998 L232.2023318781644 202.9618408850507 L230.8738909117496 205.62665074307662 L229.08576059377106 208.24860849154743 L226.84856764570935 210.81213203644734 L224.1756075338517 213.30198655375403 L221.08276545535233 215.70337502883297 L217.58842193372402 218.00202619396038 L213.7133435847948 220.18427934137432 L209.4805597023016 222.23716550781404 L204.91522539655978 224.1484845480759 L200.04447209957405 225.90687763953986 L194.89724632501262 227.50189478678374 L189.5041376412962 228.92405692510454 L183.89719688013625 230.16491225387395 L178.10974566089803 231.21708646494181 L172.1761783627672 232.07432656758493 L166.1317577215941 232.73153804955095 L160.01240526615393 233.18481515335512 L153.8544878392501 233.43146408789775 L147.69460147235918 233.47001903745794 L141.56935389821598 233.30025087292435 L135.51514699386618 232.92316851349202 L129.56796044709378 232.3410129307325 L123.76313793190155 231.55724383067218 L118.13517706375605 230.57651909302368 L112.71752438290794 229.4046670897641 L107.54237658416267 228.0486520475667 L102.64048917439284 226.5165326599357 L98.04099369491219 224.81741419500722 L93.77122459496371 222.9613943836398 L89.85655678517766 220.9595034093725 L86.32025483642222 218.82363835688886 L83.18333472024416 216.56649250855597 L80.46443891255676 214.20147990921777 L78.17972560283545 211.74265564755547 L76.34277266723538 209.2046323277719 L74.96449697631375 206.60249322800482 L74.05308951690408 203.95170266155912 L73.61396671370997 201.26801407368015 L73.64973823990711 198.5673764200332 L74.16019150805589 195.8658393832831 L75.14229293349243 193.17945799105948 L76.5902059626897 190.5241972021576 L78.49532575944734 187.91583702801236 L80.84633034277552 185.36987875329703 L83.6292478725588 182.9014528129786 L86.82753968313274 180.5252288733003 L90.422198571305 178.25532865108065 L94.39186175471121 176.10524198942983 L98.71293782918883 174.0877466886488 L103.35974697068997 172.21483256873796 L108.30467354850403 170.4976302148179 L113.51833024283783 168.9463448289134 L118.96973269140256 167.5701955812207 L124.62648362711053 166.37736082128401 L130.45496541254434 165.3749294746922 L136.42053982700534 164.56885891413629 L142.4877539188058 163.9639395551999 L148.62055069943932 163.56376638728713 L154.7824834275067 163.37071760887537 L160.93693220890484 163.3859404940642 L167.04732162605225 163.6093445744132 L173.0773381027931 164.03960217658909 L178.99114571320072 164.67415631262668 L184.75359915173433 165.50923587591205 L190.33045259910278 166.53987805258075 L195.688563242542 167.75995781513996 L200.79608824101254 169.16222432303795 L205.62267396476472 170.7383440138538 L210.1396363846324 172.47895012901978 L214.3201315390255 174.3736983797516 L218.13931506553087 176.4113284223616 L221.5744898490604 178.57973077762125 L224.60524090906284 180.8660187964663 L227.21355672419156 183.25660524436626 " stroke = "blue" stroke-width = "4" fill = "none" /></svg>