<svg width="400" height="400" viewbox = "0 0 400 400"  xmlns="http://www.w3.org/2000/svg">

<!--
<topfunctions>




function YofX(){
    X = plotparams.g*(x - plotparams.x0) - funcparams.X0;
    Y = funcparams.a*X*X*X + funcparams.b*X*X + funcparams.c*X + funcparams.d;
    y = plotparams.y0 - plotparams.G*(Y - funcparams.Y0);
}


function YofX2(){
    X = plotparams.g*(x - plotparams.x0) - funcparams.X0;
    Y = funcparams.b*X*X + funcparams.c*X + funcparams.d;
    y = plotparams.y0 - plotparams.G*(Y - funcparams.Y0);
 }

function XYofT(){
    T = plotparams.g*t;
    X = funcparams.a*Math.cos(2*Math.PI*T/funcparams.T);
    Y = funcparams.b*Math.sin(2*Math.PI*T/funcparams.T);
    y = plotparams.y0 - plotparams.G*(Y - funcparams.Y0);
    x = plotparams.x0 - plotparams.G*(X - funcparams.X0);    
}


function plotfunction(){


    currentStroke = "blue";
    currentLineWidth = 4;
    ctx.strokeStyle = currentStroke;
    ctx.lineWidth = currentLineWidth;
    ctx.beginPath();	
    x = 0;
    y = 0;
    t= 0;
    XYofT();
    currentSVG += "	<path d = \"M";
    currentSVG += Math.round(x).toString() + " ";
    currentSVG += Math.round(y).toString() + " ";
    for(t = 1;t < plotparams.duration;t++){
        ctx.moveTo(x,y);
        XYofT();
        ctx.lineTo(x,y);
        currentSVG += "L" + x + " " + y + " ";
    }
    ctx.stroke();
    currentSVG += "\""+ " stroke = \"" + currentStroke + "\" stroke-width = \"" + currentLineWidth.toString() + "\" fill = \"" + "none" + "\" "+"/>";


    /*plot one function:
    currentStroke = "blue";
    currentLineWidth = 4;
    ctx.strokeStyle = currentStroke;
    ctx.lineWidth = currentLineWidth;
    ctx.beginPath();	
    x = 0;
    YofX();
    currentSVG += "	<path d = \"M";
    currentSVG += Math.round(x).toString() + " ";
    currentSVG += Math.round(y).toString() + " ";
    for(x = 1;x < plotparams.plotwidth;x++){
        ctx.moveTo(x-1,y);
        YofX();
        ctx.lineTo(x,y);
        currentSVG += "L" + x + " " + y + " ";
    }
    ctx.stroke();
    currentSVG += "\""+ " stroke = \"" + currentStroke + "\" stroke-width = \"" + currentLineWidth.toString() + "\" fill = \"" + "none" + "\" "+"/>";
    /*finish plot one function*/
    

}






















</topfunctions>
-->

<!--
<imgurl>

</imgurl>
-->

<!--
<currentjson>
{
    "constants": {},
    "imgurl": "",
    "plotparams": {
        "G": 100,
        "g": 0.017985878990921366,
        "duration": 545.4545454545454,
        "plotwidth": 400,
        "plotheight": 400,
        "x0": 200,
        "y0": 200
    },
    "funcparams": {
        "a": 1.771561000000001,
        "b": 0.6372616354207129,
        "T": 1.4655609018152753,
        "X0": 0,
        "Y0": 0
    }
}
</currentjson>
-->

<!--
<equation>

<h2>Log Spiral</h2>
<p style="color:blue">

</p><p class="bigeq">
$$
(X,Y) = (a\cos{\frac{2\pi t}{T}},b\sin{\frac{2\pi t}{T}})
$$
</p>
<p></p>

$$
X = g(x - x_0) - X_0
$$
$$
Y = f(X)
$$
    
$$
y = y_0 - G(Y - Y_0)
$$


<p>
    X and Y, and $X_0$ and $Y_0$ in physical units of the System. x and y and x0 and y0 in pixels.  G is in pixels per Y unit and g is in X units per pixel. 
</p>


</equation>
-->
	<path d = "M23 200 L23.37031256469487 195.09097801353803 L24.946421829239284 190.21112996863425 L27.56286109702836 185.38945642834733 L31.204081069953503 180.65461222911205 L35.84844225668974 176.0347361872419 L41.46834357453443 171.55728387209933 L48.03038638052746 167.2488644397509 L55.49557295702721 163.1350824967911 L63.81953827215884 159.2403859341274 L72.95281363779966 155.5879206350374 L82.84112069820242 152.199392920958 L93.4256940021051 149.09494055248007 L104.64363024130547 146.2930130521802 L116.42826208020213 143.81026206052152 L128.70955435466243 141.66144237643013 L141.41452028563708 139.8593242706556 L154.4676552339961 138.4146175930303 L167.7913854188144 137.3359081246524 L181.30652893240838 136.62960655324653 L194.93276631234664 136.2999103749379 L208.58911787386177 136.34877894885435 L222.19442496591245 136.77592185280517 L235.66783229082853 137.578800609238 L248.9292684211504 138.75264377121627 L261.89992165798765 140.29047527876307 L274.50270840290733 142.18315591705075 L286.66273125985356 144.4194376300548 L298.3077241446344 146.98603036688868 L309.3684817567228 149.86768106355834 L319.7792708610562 153.04726429075262 L329.4782209356157 156.50588402895784 L338.4076918631984 160.22298596605387 L346.514616482218 164.1764796500163 L353.75081596077996 168.3428697707803 L360.0732861197887 172.69739579106854 L365.44445300348843 177.2141790963667 L369.8323961786043 181.86637678954727 L373.21103843503136 186.62634121615025 L375.5603007606958 191.4657842722755 L376.86622166958654 196.35594551861718 L377.1210401737957 201.26776310155043 L376.3232419064759 206.17204646550158 L374.47756812160605 211.0396498301829 L371.5949875170823 215.84164540173214 L367.6926310485869 220.5494952883751 L362.793690121631 225.1352210989299 L356.9272787668085 229.57157021624226 L350.12826061734285 233.83217775740124 L342.4370417171858 237.89172325821852 L333.8993303909942 241.726081150807 L324.5658656030583 245.31246413998238 L314.4921154195241 248.62955862641277 L303.7379473659269 251.65765137170615 L292.3672726390727 254.37874665267623 L280.44766628769287 256.77667320854647 L268.0499656191064 258.8371803455137 L255.2478492185304 260.54802262752975 L242.1173990828925 261.8990326499898 L228.736648471352 262.88218146383866 L215.18511815962017 263.49162629100016 L201.54334385408177 263.72374524755935 L187.89239757426267 263.57715886834137 L174.31340584802908 263.0527383049671 L160.88706758284857 262.1536001486659 L147.69317447836482 260.8850879086127 L134.81013683044037 259.25474025586243 L122.31451754477631 257.2722462216054 L110.28057712942856 254.9493876159974 L98.77983237029872 252.29996900976442 L87.88063131235442 249.33973569469669 L77.6477470724351 246.08628011058582 L68.14199289758054 242.5589372947029 L59.41986075656337 238.77866997515343 L51.533185612446914 234.76794399099032 L44.528837371370884 230.5505947794536 L38.448442338289624 226.15168572379264 L33.32813583503258 221.59735920350087 L29.198347450853248 216.91468123215594 L26.083620201712876 212.13148060617567 L24.002464673016647 207.27618352041284 L22.967249012622773 202.377644633457 L22.984125427887307 197.464975586609 L24.052993623567318 192.56737199562747 L26.167501397867852 187.71393994342117 L29.315082393090364 182.93352300482803 L33.477030776533866 178.25453083145982 L38.628612407825386 173.70477031531948 L44.73921183202154 169.31128033457196 L51.77251422491102 165.10017106356332 L59.6867212092333 161.0964688020547 L68.43479925923174 157.32396724584044 L77.96475921729362 153.80508608263705 L88.21996526153167 150.56073775359624 L99.13947148813274 147.61020317227013 L110.65838410819626 144.9710171396187 L122.70824710654848 142.65886413603144 L135.21744907059752 140.68748510966168 L148.1116487714698 139.06859581502496 L161.3142169682394 137.81181718716715 L174.74669180963454 136.92461816518494 L188.3292451268092 136.41227130489267 L201.9811568460339 136.27782144442733 L215.62129470191067 136.5220676090088 L229.1685964002074 137.1435582623939 L242.54255136486512 138.13859993324542 L255.66367920618254 139.50127916514927 L268.45400206668006 141.2234976598325 L280.83750803753554 143.29502040473 L292.7406028915332 145.70353649887963 L304.09254744791764 148.4347323156636 L314.82587796992595 151.47237656759492 L324.87680709660526 154.79841676761495 L334.1856029262132 158.3930865136414 L342.696943998333 162.2350229587812 L350.36024806507385 166.3013937690929 L357.1299726974953 170.568032814398 L362.9658859407731 175.00958378574117 L367.83330540962413 179.59965088599154 L371.70330440306464 184.31095569804265 L374.5528838135789 189.1154992983557 L376.36510880905223 193.98472865241675 L377.12920947518126 198.88970630323323 L376.84064482024894 203.80128234442384 L375.5011297618912 208.6902676558788 L373.11862493547204 213.5276073724646 L369.7072893846381 218.2845535548606 L365.2873964152066 222.93283603636098 L359.88521311246245 227.44483043030885 L353.5328442378826 231.79372229970988 L346.26804143299864 235.95366651337687 L338.1339788642831 239.89994084156442 L329.1789966423861 243.60909287828605 L319.45631354056195 247.0590794171661 L309.02371071957606 250.22939745252663 L297.9431883386941 253.10120602717913 L286.2805970934853 255.65743820278962 L274.1052468701844 257.88290248738554 L261.48949484234737 259.7643731172286 L248.50831545771274 261.2906686565157 L235.23885487080392 262.4527184477947 L221.75997246924177 263.2436165181871 L208.15177221844692 263.6586626210556 L194.49512660991024 263.69539016920993 L180.87119604217207 263.3535808936453 L167.36094649079132 262.6352661406984 L154.04466833375744 261.54471479991196 L141.00149919192384 260.08840793435115 L128.30895362019015 258.2750002641422 L116.04246244444386 256.115268732134 L104.2749244819385 253.62204845735232 L93.07627330920826 250.8101564568706 L82.51306165218229 247.6963035894131 L72.64806586843306 244.29899524400193 L63.5399128720905 240.63842136384696 L55.242731718585816 236.73633645906108 L47.80583191982191 232.61593032127342 L41.273410401520124 228.3016902084734 L35.68428884427888 223.81925531911352 L31.071682969299502 219.19526442031736 L27.463005139899508 214.45719753572664 L24.879701451938473 209.6332126338273 L23.337124281312526 204.75197828729878 L22.844441045961332 199.84250329788412 L23.40457972460547 194.93396429930368 L25.014211455993006 190.0555323627553 L27.66377032206725 185.23619963547418 L31.337510197484335 180.50460704262306 L36.01359832763029 175.8888740764676 L41.66424507900862 171.41643168438878 L48.25586909090333 167.11385924886417 L55.749296846832465 163.0067266282342 L64.09999547975573 159.11944219699296 L73.25833742749064 155.47510778868912 L83.16989536551296 152.0953814034986 L93.77576566437713 149.00034849638877 L105.01291844947077 146.20840261079923 L116.8145721827325 143.73613606722154 L129.11059054021646 141.59824135631 L141.82789922688994 139.80742382253572 L154.89092025157032 138.3743261572976 L168.22202108113945 137.30746515022238 L181.74197600473673 136.6131810745371 L195.37043696608887 136.29560000731058 L209.02641106585543 136.35660930849372 L222.62874189622124 136.79584640448383 L236.09659184721076 137.6107009428718 L249.34992251841243 138.79633030556656 L262.30997038105744 140.34568838810318 L274.8997148636401 142.24956747410212 L287.04433607927035 144.49665295602205 L298.67165947452975 147.07359057700538 L309.7125847573145 149.96506579420426 L320.1014965545756 153.15389479193485 L329.77665435945346 156.62112660377733 L338.6805594503815 160.34615573671786 L346.76029660158133 164.3068446280143 L353.9678485541973 168.47965520703622 L360.26038137918545 172.8397887802146 L365.60049903607234 177.3613334077779 L369.9564656147593 182.01741789642512 L373.3023939396038 186.78037149276855 L375.61839941492167 191.62188832850174 L376.8907181976148 196.513195640005 L377.1117889946372 201.42522476267618 L376.28029799917954 206.32878388377736 L374.40118669852257 211.19473152714056 L371.4856225071573 215.99414973872803 L367.55093239969517 220.69851594381885 L362.6204999379866 225.27987245448338 L356.7236263044041 229.71099261998174 L349.895356167159 233.9655426326637 L342.17626941252615 238.01823802776784 L333.6122399816861 241.84499394706074 L324.2541632454087 245.423068273303 L314.1576535367634 248.73119678490988 L303.38271363939924 251.7497195275909 L291.99337819559844 254.4606976519521 L280.0573331533034 256.84802002270345 L267.64551351371335 258.8974989659016 L254.83168177000996 260.59695458520883 L241.691989542505 261.9362871460846 L228.30452501540378 262.90753709773315 L214.74884886470244 263.5049323761047 L201.1055214351892 263.7249227068296 L187.45562397648672 263.56620070422713 L173.88027678339785 263.02970964099814 L160.4601571042086 262.11863784242786 L147.27501968198266 260.83839973841293 L134.40322277823395 259.19660368591934 L121.92126249578179 257.2030067531 L109.90331816827266 254.8694567337862 L98.42081151808371 252.20982173695643 L87.54198220249852 249.23990776962756 L77.3314822706523 245.97736480296587 L67.84999194135705 242.4415818798607 L59.153858985209894 238.65357188732798 L51.294763854111096 234.63584667853328 L44.31941254829553 230.41228328657212 L38.26925904615345 226.0079820250923 L33.18025894641224 221.4491173190529 L29.082655786768214 216.76278215212207 L26.000801308859025 211.97682705515075 L23.953010737728988 207.11969459260172 L22.951453935849713 202.2202503305681 L23.00208307855999 197.30761129092556 L24.10459728074366 192.41097291110228 L26.25244438496685 187.5594355378309 L29.432859900447653 182.78183148601764 L33.62694286144679 178.10655369050374 L38.80976815425922 173.56138696902877 L44.95053464525424 169.17334289918853 L52.01274822965425 164.96849929069745 L59.95443871320242 160.97184520696447 L68.72840923781195 157.2071324570034 L78.2825167688775 153.69673444025176 L88.5599819773351 150.4615131831721 L99.49972667486439 147.52069535782698 L111.03673679688242 144.89175801924011 L123.10244877614824 142.59032474059723 L135.6251570107901 140.63007276354784 L148.5304400052036 139.02265171540571 L161.74160265129808 137.77761437630656 L175.18013202164883 136.9023599077674 L188.76616396580673 136.40208988003673 L202.41895773682947 136.27977735956088 L216.05737582735196 136.536149240278 L229.600366163577 137.169681923743 L242.9674437915399 138.17661037375657 L256.0791691930235 139.55095049168662 L268.85762038852874 141.28453467950808 L281.22685602162863 143.36706037921223 L293.1133666726313 145.78615130011957 L304.4465117194292 148.52743097022704 L315.1589391493044 151.5746081744799 L325.1869858267793 154.90957377221432 L334.47105583875407 158.5125083183932 L342.9559746684518 162.3619998490495 L350.59131709334355 166.4351711309471 L357.3317068583844 170.70781561922607 L363.13708634361933 175.15454131504345 L367.97295462354987 179.74892166827735 L371.810572503491 184.4636526284894 L374.6271333144034 189.2707149108047 L376.40589845118024 194.14154051237517 L377.13629684889463 199.04718248983156 L376.8139878058288 203.95848698875022 L375.4408867799318 208.8462665027764 L373.0251540053997 213.681473332738 L369.5811459970287 218.43537221489683 L365.12933023054836 223.07971109241828 L359.6961635059804 227.58688901518195 L353.313934716904 231.9301201701128 L346.0205729600343 236.08359306721619 L337.85942212550907 240.02262393528449 L328.8789833074647 243.7238034156608 L319.13262656575716 247.16513568226043 L308.67827375177967 250.32616916108265 L297.57805428333984 253.1881180723471 L285.8979359142887 255.733974072944 L273.7073326932173 257.9486073357135 L261.0786924410754 259.81885646485097 L248.08706619933366 261.3336067130716 L234.80966220738577 262.4838560357038 L221.32538705989913 263.26276858915014 L207.71437677097342 263.66571535578214 L194.05752053193828 263.6903016538378 L180.4359799930956 263.3363813688315 L166.930706926246 262.6060578219012 L153.62196213451205 261.5036712699321 L140.5888384685337 260.0357731117427 L127.90879078371995 258.2110869536234 L115.65717563197111 256.0404567656125 L103.90680342347058 253.53678243661327 L92.72750571999234 250.71494311134268 L82.18572023128026 247.59170876471407 L72.34409598082875 244.185640539161 L63.26112098753785 240.51698043719048 L54.99077467589507 236.60753102471202 L47.58220708039363 232.4805258600594 L41.07944675064181 228.16049141873324 L35.521139093067944 223.67310133443735 L30.940316704226746 219.04502382263772 L27.364203060613818 214.3037631934051 L24.814050731627134 209.4774963954046 L23.305015077176563 204.5949055624497 L22.846064180540907 199.68500755777808 L23.439925551735996 194.77698152905796 L25.083069918132054 189.8999954989456 L27.7657321986498 185.08303302176597 L31.471969536889787 180.3547209364665 L36.1797560483067 175.74315923950758 L41.86111371835162 171.27575408873795 L48.48227867367271 166.97905493069518 L56.00390183822432 162.8785967192818 L64.38128278181273 158.99874816348944 L73.56463537132782 155.36256690602846 L83.499383645918 151.99166249352382 L94.12648615774208 148.90606795263582 L105.3827868507749 146.12412073531607 L117.20139039240482 143.66235374073682 L129.51205972727263 141.53539706153725 L142.24163349070972 139.7558910383039 L155.31446080112377 138.33441113899505 L168.65285084738952 137.2794051097449 L182.1775345993905 136.59714277055537 L195.80813589778953 136.2916787542364 L209.4636491233867 136.36482841003368 L223.06292060730428 136.8161570151471 L236.5251309210326 137.64298235825544 L249.7702751800892 138.84039067969212 L262.7196385069269 140.40126587354303 L275.2962638274169 142.31633177811833 L287.42540922084487 144.57420730347107 L299.03499210541656 147.161474068342 L310.05601761952664 150.06275614457297 L320.42298865292435 153.26081143506784 L330.07429509102985 156.73663414225598 L338.9525799591224 160.46956771809096 L347.0050802904434 164.43742762433146 L354.183940692472 168.6166331735551 L360.44649774785097 172.98234766737474 L365.7555335598093 177.5086259990352 L370.0794969352713 182.16856884319486 L373.39269089117903 186.9344825165545 L375.6754253696948 191.7780435592964 L376.9141342547059 196.670467059236 L377.101455994213 201.58267771834858 L376.2362773494699 206.48548264503873 L374.32374001087624 211.34974484525816 L371.37521004130497 216.14655638142924 L367.4082103284623 220.8474101701024 L362.4463164477079 225.42436939737019 L356.5190165542167 229.85023354521115 L349.6615361371322 234.09870004208486 L341.91462867718496 238.14452057709815 L333.3243334518738 241.9636511487853 L323.9417019275743 245.53339495676272 L313.82249436457937 248.8325372870777 L303.0268484381474 251.84147158962674 L291.6189218449045 254.542315998381 L279.666511018572 256.9190196019455 L267.24064822094715 258.95745783289726 L254.4151794026242 260.6455164090054 L241.26632534215977 261.9731633274837 L227.87222867182737 262.93250848441414 L214.31248948194596 263.5178505650296 L200.6676922636318 263.7257109261915 L187.0189270013505 263.55485426969864 L173.44730726134827 263.00629598357034 L160.03348813994236 262.083296107673 L146.85718693646558 260.79133995955294 L133.99670939946074 259.13810553561456 L121.52848436161663 257.1334178813758 L109.52660952907401 254.78919070197557 L98.06241112443257 252.11935555993688 L87.20402000047484 249.13977908095782 L77.01596674373008 245.8681686597714 L67.55879817413935 242.3239672264544 L58.88871751994574 238.52823769858412 L51.057250406214195 234.50353780593287 L44.110938641989264 230.27378603160784 L38.09106362589142 225.86411946634004 L33.03340101392371 221.30074442067658 L28.968008107494654 216.61078068288927 L25.919045225174557 211.82210034814744 L23.904632119775158 206.96316217679316 L22.936740294046473 202.0628424661084 L23.021121854953236 197.150263440694 L24.15727532934403 192.2546201813168 L26.338448644167443 187.4050071207858 L29.551679253525634 182.63024513796339 L33.77787117408997 177.95871027749337 L38.99190847106851 173.41816511313914 L45.162804520282094 169.0355937569357 L52.253886159296826 164.83704149467997 L60.223011633218505 160.84746000079252 L69.02282103991467 157.09055905242744 L78.60101778628356 153.58866562408383 L88.90067938289918 150.36259120010723 L99.86059573000885 147.43150809363127 L111.41563288446179 144.8128355069913 L123.49712014574234 142.5221360107392 L136.0332581606874 140.57302305647778 L148.9495456215371 138.9770800731619 L162.1692220215 137.7437916276673 L175.61372383656365 136.88048705873655 L189.20315142249893 136.39229691928026 L202.85674385232394 136.28212248589426 L216.49335887230555 136.5506185167951 L230.03195512415664 137.19618936064208 L243.39207376761925 138.214998439371 L256.494316641188 139.60099104868354 L269.26081811930067 141.34593034069118 L281.61570786178527 143.43944627487096 L293.48556170547863 145.86909724642186 L304.799838018403 148.62044402576905 L315.49129692328006 151.67713556979874 L325.4963998989708 155.02100619485512 L334.75568738503534 158.63218353400538 L343.2141321453494 162.48920663699514 L350.82146629075237 166.5691535110319 L357.53248001725785 170.84777734443077 L363.3072902844558 175.299650603558 L368.1115778373693 179.89831614671775 L371.91679116315436 184.6164444569162 L374.7003161705544 189.42599605908782 L376.44561058371147 194.29838815654682 L377.1423022516452 199.2046644963603 L376.7862507891503 204.11566745413637 L375.3795721827893 209.00221131555662 L372.9306262157462 213.8352557248378 L369.4539667862761 218.58607826934178 L364.9702554150025 223.22644517467307 L359.50613845508167 227.72877909583875 L353.09408873497136 232.06632300729274 L345.7722125748952 236.21329921789302 L337.584023323903 240.1450625657428 L328.57818276337093 243.83824688249993 L318.8082119137619 247.27090385672557 L308.3321729633064 250.42263347101584 L297.2123242088568 253.2747052377454 L285.51475005960856 255.81016951291724 L273.3089683025135 258.0139582266002 L260.66751696340503 259.8729744313128 L247.66552321905513 261.3761701361806 L234.38025692213654 262.5146119642971 L220.8906713923904 263.28153424310057 L207.2769342031093 263.6723792122462 L193.61995075138412 263.68482411002697 L180.00088344353506 263.318794977369 L166.5006693531355 262.57646709736406 L153.19953921820223 261.4622520677292 L140.17654063605386 259.9827715830196 L127.50906828949651 258.1468180824041 L115.27240399616409 255.96530249687478 L103.53926931443208 253.45118940641837 L92.37939336477355 250.61941999251127 L81.85909843493744 247.48682324382278 L72.04090583167458 244.07201594282515 L62.983164321397425 240.39529202767986 L54.73970336794039 236.47850198692146 L47.35951322817186 232.34492300367486 L40.8864538066552 228.01912062114116 L35.358993999595555 223.526802751456 L30.809983077137304 218.89466689553802 L27.26645546266667 214.15024148188408 L24.749470069308046 209.32172226723168 L23.27398514841414 204.43780477133475 L22.848769393824227 199.52751374168616 L23.47634983018986 194.62003066167094 L25.152996795060403 189.74452032724372 L27.86874610398013 184.92995752278347 L31.607458266875796 180.20495482616502 L36.346914403805386 175.59759256640749 L42.05894829006422 171.13525194442377 L48.70961374589649 166.8444523086461 L56.25938637604321 162.7506935525677 L64.6633984601911 158.8783045708314 L73.87170559840509 155.25029867446915 L83.82958352685974 151.8882368245624 L94.47785333995424 148.81209949709887 L105.75323318601532 146.040167940535 L117.58871434648408 143.5889155317392 L129.91395946360666 141.47290987597268 L142.65572054995727 139.7047262327287 L155.73827429561663 138.29487278192875 L169.08387208599999 137.2517281746143 L182.6132020559229 136.58149173926535 L196.24586043392733 136.28814663966685 L209.90082937574752 136.37343620327084 L223.496958447145 136.83685356073536 L236.95344689472324 137.67564465820993 L250.1903238386156 138.88482462446686 L263.1289235332913 140.45720739560824 L275.69235287206635 142.38344842129453 L287.80594835693313 144.65210019868994 L299.3977198180157 147.24968030409562 L310.3987782456275 150.1607515179594 L320.7437451923894 153.36801356709168 L330.3711413123182 156.85240593885933 L339.22375172788395 160.5932211563565 L347.24896605363364 164.56822784134985 L354.39909105568603 168.75380283365817 L360.63163408896276 173.12507158178104 L365.909555627729 177.6560559704571 L370.20148938864907 182.31982870660698 L373.48192873821097 187.08867334617725 L375.7313782766935 191.93424901084379 L376.9364696978316 196.82775881567662 L377.0900412356384 201.7401210068249 L376.1911802262307 206.6421417921499 L374.2452285317207 211.50468883769548 L371.26375079393904 216.2988643989161 L367.2644657066528 220.9961770577611 L362.2711407147294 225.5687110449848 L356.3134507660292 229.98929214142876 L349.42680195546563 234.23164917232194 L341.65212110929576 238.27057013486026 L333.03561256012597 242.08205203120778 L323.62848355810814 245.64344351647225 L313.48663995016557 248.93357951391596 L302.67035393584104 251.93290699738043 L291.24390587421937 254.6236011934274 L279.27520227068817 256.9896715125984 L266.83537221377344 259.01705658026464 " stroke = "blue" stroke-width = "4" fill = "none" /></svg>