<svg width="400" height="400" viewbox = "0 0 400 400"  xmlns="http://www.w3.org/2000/svg">

<!--
<topfunctions>




function YofX(){
    X = plotparams.g*(x - plotparams.x0) - funcparams.X0;
    Y = funcparams.a*X*X*X + funcparams.b*X*X + funcparams.c*X + funcparams.d;
    y = plotparams.y0 - plotparams.G*(Y - funcparams.Y0);
}


function YofX2(){
    X = plotparams.g*(x - plotparams.x0) - funcparams.X0;
    Y = funcparams.b*X*X + funcparams.c*X + funcparams.d;
    y = plotparams.y0 - plotparams.G*(Y - funcparams.Y0);
 }

function XYofT(){
    T = plotparams.g*t;
    X = funcparams.a*Math.cos(2*Math.PI*T/funcparams.T);
    Y = funcparams.b*Math.sin(2*Math.PI*T/funcparams.T);

    Xrot = Math.cos(Math.PI*funcparams.theta/180)*X - Math.sin(funcparams.theta*Math.PI/180)*Y;
    Yrot = Math.sin(funcparams.theta*Math.PI/180)*X + Math.cos(funcparams.theta*Math.PI/180)*Y;
    X = Xrot;
    Y = Yrot;

    y = plotparams.y0 - plotparams.G*(Y - funcparams.Y0);
    x = plotparams.x0 - plotparams.G*(X - funcparams.X0);    
}


function plotfunction(){


    currentStroke = "blue";
    currentLineWidth = 4;
    ctx.strokeStyle = currentStroke;
    ctx.lineWidth = currentLineWidth;
    ctx.beginPath();	
    x = 0;
    y = 0;
    t= 0;
    XYofT();
    currentSVG += "	<path d = \"M";
    currentSVG += Math.round(x).toString() + " ";
    currentSVG += Math.round(y).toString() + " ";
    for(t = 1;t < plotparams.duration;t++){
        ctx.moveTo(x,y);
        XYofT();
        ctx.lineTo(x,y);
        currentSVG += "L" + x + " " + y + " ";
    }
    ctx.stroke();
    currentSVG += "\""+ " stroke = \"" + currentStroke + "\" stroke-width = \"" + currentLineWidth.toString() + "\" fill = \"" + "none" + "\" "+"/>";


    /*plot one function:
    currentStroke = "blue";
    currentLineWidth = 4;
    ctx.strokeStyle = currentStroke;
    ctx.lineWidth = currentLineWidth;
    ctx.beginPath();	
    x = 0;
    YofX();
    currentSVG += "	<path d = \"M";
    currentSVG += Math.round(x).toString() + " ";
    currentSVG += Math.round(y).toString() + " ";
    for(x = 1;x < plotparams.plotwidth;x++){
        ctx.moveTo(x-1,y);
        YofX();
        ctx.lineTo(x,y);
        currentSVG += "L" + x + " " + y + " ";
    }
    ctx.stroke();
    currentSVG += "\""+ " stroke = \"" + currentStroke + "\" stroke-width = \"" + currentLineWidth.toString() + "\" fill = \"" + "none" + "\" "+"/>";
    /*finish plot one function*/
    

}






















</topfunctions>
-->

<!--
<imgurl>

</imgurl>
-->

<!--
<currentjson>
{
    "constants": {},
    "imgurl": "",
    "plotparams": {
        "G": 100,
        "g": 0.017985878990921366,
        "duration": 545.4545454545454,
        "plotwidth": 400,
        "plotheight": 400,
        "x0": 200,
        "y0": 200
    },
    "funcparams": {
        "theta": 90.00000000000001,
        "a": 0.6209213230591549,
        "b": 1.6528925619834702,
        "T": 1.4655609018152753,
        "X0": 0,
        "Y0": 0
    }
}
</currentjson>
-->

<!--
<equation>

<h2>Log Spiral</h2>
<p style="color:blue">

</p><p class="bigeq">
$$
(X,Y) = (a\cos{\frac{2\pi t}{T}},b\sin{\frac{2\pi t}{T}})
$$
</p>
<p></p>

$$
X = g(x - x_0) - X_0
$$
$$
Y = f(X)
$$
    
$$
y = y_0 - G(Y - Y_0)
$$


<p>
    X and Y, and $X_0$ and $Y_0$ in physical units of the System. x and y and x0 and y0 in pixels.  G is in pixels per Y unit and g is in X units per pixel. 
</p>


</equation>
-->
	<path d = "M200 138 L212.73273876385088 138.09237208662046 L225.3898078367538 138.64478876875938 L237.8959872269367 139.56183477048302 L250.17695366845138 140.8380601576631 L262.1597223186488 142.4658804206023 L273.7730805015071 144.43562154819432 L284.94801091910915 146.73557751983063 L295.61810181615664 149.35207987338416 L305.719941659943 152.2695789358325 L315.1934959902346 155.4707362337733 L323.982464199468 158.93652753464326 L332.03461412294723 162.64635590627475 L339.3020924505968 166.5781741228857 L345.7417091155173 170.70861569005316 L351.3151939692438 175.01313370999947 L355.9894242183062 179.46614676192502 L359.73662127045293 184.0411909304322 L362.5345158206966 188.7110770785471 L364.36648019608737 193.4480524306773 L365.2216271726992 198.22396550523098 L365.09487467756753 203.0104334167152 L363.9869759910599 207.7790105530499 L361.9045152701878 212.50135762566086 L358.8598684194667 217.1494100877008 L354.87112954186296 221.69554491950083 L349.96200340692695 226.11274479006013 L344.16166457516323 230.37475861897406 L337.5045840158529 234.45625758459397 L330.0303242487241 238.33298565127333 L321.78330422692846 241.98190372112953 L312.8125353586056 245.38132655363722 L303.1713302358397 248.5110516393514 L292.9169858020092 251.35247926187327 L282.1104428404424 253.88872303453968 L270.8159238080105 256.10471025492535 L259.1005511659878 257.98727148075864 L247.03394847640612 259.52521879490774 L234.68782663456042 260.7094122943154 L222.13555769665223 261.5328144077423 L209.45173883528028 261.9905317195137 L196.71174901416057 262.079844050714 L183.9913010167184 261.80022062500154 L171.36599149081883 261.15332322297195 L158.91085168367937 260.14299630632297 L146.69990153691654 258.7752441705136 L134.8057097917041 257.0581952616958 L123.29896271830387 255.00205386998215 L112.24804403297753 252.61903948613116 L101.7186284987998 249.92331418205015 L91.77329162557348 246.9308984466868 L82.47113778836896 243.65957597749087 L73.86744897475089 240.12878799326256 L66.01335624816267 236.3595176964791 L58.955535879932796 232.37416557172943 L52.735931955770894 228.19641626135115 L47.391507105279885 223.8510978094152 L42.95402283588038 219.36403411056264 L39.44985077660513 214.76189144057693 L36.89981595352836 210.07201998075007 L35.31907302823137 205.32229127785092 L34.71701623480968 200.5409326056577 L35.09722355065969 195.7563592124329 L36.45743543283314 190.99700545127973 L38.789568246327576 186.29115579696037 L42.07976230451004 181.66677675342922 L46.308464236172796 177.1513506510426 L51.45054318972015 172.77171232117533 L57.475440183894364 168.55388961887337 L64.34734971745979 164.52294874130575 L72.0254325585536 160.70284526127514 L80.46405844911139 157.11628176108417 L89.61307728199563 153.78457291282785 L99.41811713923951 150.72751880693076 L109.82090742018967 147.96328728172642 L120.75962513922177 145.50830595338604 L132.169262335008 143.37716458785414 L143.98201240784823 141.58252839498763 L156.1276730891005 140.13506276018367 L168.53406364788245 139.04336986081154 L181.12745385562533 138.31393754413153 L193.8330021591737 137.9511007705159 L206.57520045840235 137.9570158511112 L219.2783228450694 138.33164763304674 L231.86687563608714 139.07276970834508 L244.26604602669747 140.17597764529415 L256.4021466972382 141.6347151636475 L268.20305373123784 143.4403130980956 L279.5986352423267 145.58204091845087 L290.52116816266255 148.04717050036652 L300.90574071593585 150.8210517676045 L310.69063818308206 153.88719975631602 L319.8177096681288 157.2273925839187 L328.23271368451645 160.8217797403488 L335.8856405080953 164.64900005812154 L342.7310093810862 168.68630866011304 L348.72813880073824 172.90971213062207 L353.84138828638413 177.29411110640189 L358.0403701880847 181.81344944025244 L361.3001302781057 186.44086905070722 L363.60129605198017 191.1488695375535 L364.9301918578191 195.90947161460397 L365.27892016966257 200.69438338845075 L364.6454085218711 205.47516849502074 L363.03342182563085 210.22341509470766 L360.4525399943744 214.91090472175907 L356.91810101108894 219.50977998445626 L352.4511097758595 223.99271011945802 L347.078113275356 228.33305341643427 L340.8310428161259 232.50501554770878 L333.74702425928575 236.48380286197255 L325.8681573843728 240.24576973105388 L317.24126569358134 243.7685590740748 L307.91761814327566 247.03123522387023 L297.9526244565109 250.01440834605359 L287.4055058272942 252.7003496713172 L276.33894297356574 255.07309685614985 L264.81870363049467 257.11854884582135 L252.91325169786714 258.82454967587057 L240.69334036437675 260.18096071407064 L228.23159162684306 261.17972091354363 L215.60206470324962 261.81489471894474 L202.87981590448538 262.0827073410126 L190.14045258043942 261.9815671898529 L177.45968379131335 261.51207533363504 L164.9128703744768 260.67702192649017 L152.57457708078564 259.48136962683884 L140.51812944197908 257.9322241046924 L128.8151780026633 256.03879181320036 L117.5352725066142 253.81232527540465 L106.74544856797878 251.2660562113575 L96.50982928375618 248.41511690302275 L86.88924415514488 245.2764502642835 L77.94086758247825 241.86870915050335 L69.71787908214279 238.21214550603543 L62.26914724478735 234.32849000846926 L55.63893931303264 230.24082292487847 L49.86665810464018 225.9734369475621 L44.986607844584995 221.55169282443524 L41.02779029767481 217.00186864204716 L38.01373241328423 212.35100365692685 L35.962346506496345 207.6267376033522 L34.88582380658718 202.8571464325275 L34.790562005483935 198.07057545935604 L35.677127236772066 193.29547090840575 L37.54025071120668 188.56021086017557 L40.36886002872336 183.89293660233787 L44.14614498086354 179.32138538822127 L48.84965745255556 174.87272559643904 L54.45144482954208 170.57339527129764 L60.91821611862551 166.44894500352382 L68.21153979349052 162.52388608506175 L76.28807219031914 158.82154484034342 L85.09981509586417 155.36392399972965 L94.59440099715515 152.17157193896844 L104.71540429761352 149.26346056177306 L115.40267665005008 146.65687255125192 L126.59270441368614 144.36729866024618 L138.21898611085246 142.4083456509732 L150.2124276401761 140.7916554310809 L162.50175289753273 139.52683586668246 L175.0139273644704 138.62140368354432 L187.67459214675986 138.08073979576068 L200.40850588360368 137.90805732739332 L213.13999190127856 138.10438251712168 L225.793387953812 138.6685486193847 L238.2934958779105 139.59720283826053 L250.5660284898831 140.88482625287577 L262.53805106868384 142.52376661592928 L274.1384148013699 144.50428383041174 L285.2981796150459 146.8146078342559 L295.9510238824357 149.4410085489136 L306.03363856623184 152.3678774761608 L315.48610345985287 155.57782045820642 L324.25224328864186 159.05176104983963 L332.27996155521936 162.7690538882824 L339.5215501449745 166.70760738699806 L345.9339728517366 170.8440150242981 L351.47912113865107 175.15369444650744 L356.12404061429294 179.6110335590082 L359.8411268780913 184.18954273695584 L362.60828957116723 188.86201225109116 L364.40908365764346 193.6006739730754 L365.23280715623275 198.37736639934965 L365.0745647412931 203.16370201279372 L363.9352968353725 207.9312359875646 L361.82177402035046 212.6516352345172 L358.7465568003877 217.296846782583 L354.7279209558134 221.83926449542693 L349.7897489315615 226.25189313260165 L343.96138790563157 230.50850878019236 L337.27747538105797 234.58381469752803 L329.77773333788235 238.45359165377397 L321.5067321684704 242.09484186096424 L312.51362579908516 245.4859256480937 L302.8518595718677 248.6066900640253 L292.5788526232658 251.438588644934 L281.7556566465022 253.96479163452105 L270.4465930660418 256.1702860019658 L258.71887078029386 258.0419646632175 L246.6421867442766 259.56870437539214 L234.2883117659546 260.74143184135215 L221.73066397782443 261.55317763161656 L209.04387251858088 261.9991176031461 L196.30333401786083 262.0766015688559 L183.58476451985 261.78516904747426 L170.96374950863535 261.12655200014746 L158.51529470946375 260.1046645375275 L146.31338033546018 258.7255796585123 L134.430521428894 256.9974931588784 L122.93733690983552 254.93067492429506 L111.9021298933234 252.53740789717966 L101.39048176919002 249.83191508011322 L91.464862456881 246.8302750096247 L82.1842591515127 243.5503262026807 L73.60382576749056 240.0115611437459 L65.77455516302123 236.2350104424411 L58.74297609346334 232.24311785024173 L52.55087669449904 228.05960687898218 L47.23505613844509 223.70933981384255 L42.82710593959237 219.2181699586935 L39.35322220825438 214.61278799188995 L36.83404996929352 209.92056334561744 L35.28456047031801 205.1693815514512 L34.713962208705254 200.38747851877966 L35.12564620620739 195.60327273095788 L36.51716585636865 190.8451963564384 L38.880251464520086 186.1415262785724 L42.20085939394161 181.5202160482584 L46.45925552611877 177.008729758131 L51.63013253909736 172.63387882556248 L57.68276030695884 168.42166265446355 L64.5811685266041 164.39711412281778 L72.28436048650902 160.58415081420586 L80.7465567070401 157.00543287743858 L89.9174670043945 153.68222835902878 L99.74258936130967 150.63428680882012 L110.16353382837461 147.8797219099261 L121.1183695310283 145.43490383049817 L132.5419927200005 143.31436193707142 L144.36651367790617 141.53069844765193 L156.52166018263455 140.09451353770103 L168.93519512978108 139.01434234410445 L181.53334583222457 138.29660424150785 L194.24124244555452 137.9455646924651 L206.9833629138202 137.963309898121 L219.68398179132316 138.34973440007798 L232.2676202731392 139.102541707127 L244.659494759873 140.217257943119 L256.78596129086014 141.68725843486803 L268.57495320458327 143.50380708207666 L279.956409425318 145.65610827531017 L290.86269083074137 148.131371053477 L301.2289822260517 150.91488511953008 L310.99367753570556 153.99010826263526 L320.09874592360507 157.33876466726298 L328.49007666591075 160.9409535249596 L336.1178007269273 164.77526730332755 L342.9365871269624 168.81891896934994 L348.9059123408655 173.04787741098215 L353.99030112623353 177.43701025220952 L358.1595373500582 181.9602332128324 L361.3888435608896 186.59066512534497 L363.6590282393319 191.3007876876544 L364.95659985177235 196.0626090022411 L365.27384702953236 200.84782992986212 L364.60888439694077 205.6280122691669 L362.9656637759764 210.37474776274922 L360.3539507008935 215.0598269252444 L356.78926638239955 219.6554066901396 L352.292795466289 224.1341758789849 L346.89126013471696 228.46951750963427 L340.61676129831716 232.63566697893128 L333.50658782295045 236.60786517977172 L325.602994924831 240.3625056425801 L316.95295305101445 243.8772748267497 L307.6078687376292 247.131284728305 L297.6232791047705 250.10519701570882 L287.05852180365275 252.78133795608483 L275.9763823774914 255.14380344885848 L264.4427211318321 257.17855354260774 L252.5260817318001 258.87349587341896 L240.29728385235006 260.21855752887905 L227.8290023023636 261.2057449106222 L215.1953351238282 261.82919123967264 L202.47136323285065 262.0851914222625 L189.73270421952512 261.97222406892024 L177.05506295838853 261.4909605359717 L164.51378170015153 260.6442609357209 L152.18339231847426 259.43715713902185 L140.1371733727537 257.8768228712554 L128.44671461925617 255.97253107942902 L117.18149155868292 253.7355988237632 L106.4084525485913 251.17932002126952 L96.191620934438 248.31888644102094 L86.59171456373511 245.1712974206305 L77.66578494454347 241.75525884049267 L69.46687819272469 238.09107195616744 L62.04371978294111 234.20051274957467 L55.4404249768925 230.10670251600175 L49.69623664969737 225.833970456018 L44.84529207248852 221.4077090888971 L40.9164200372316 216.85422334682426 L37.93296952941924 212.20057424669662 L35.91267096684061 207.474418068574 L34.86753082906722 202.70384199652707 L34.80376030386353 197.91719719865088 L35.721738374575125 193.14293033824805 L37.61600956785912 188.4094145174869 L40.475316375144445 183.7447806582294 L44.28266615514295 179.17675032211744 L49.01543211981365 174.73247096345708 L54.645487803632534 170.4383545939753 L61.13937421702016 166.3199208182602 L68.45849869055442 162.40164517270472 L76.55936422824774 158.70681366926968 L85.39382800686222 155.2573844084983 L94.90938748501793 152.07385708420782 L105.04949242177632 149.1751511553786 L115.75388095038782 146.5784934092598 L126.95893770994991 144.2993155838922 L138.59807190661985 142.35116265847185 L150.60211305760853 140.74561235657524 L162.89972206604963 139.49220634063676 L175.4178151837944 138.59839350657865 L188.08199834252457 138.06948571559383 L200.8170092720016 137.90862622616152 L213.54716477796896 138.11677101390305 L226.19681052158592 138.6926830902921 L238.69077062735525 139.6329398539824 L250.95479444760045 140.93195343106566 L262.9159978283737 142.5820038833781 L274.5032962543943 144.57328508750066 L285.6478272988857 146.89396301180068 L296.28335986769434 149.53024604517395 L306.34668780561066 152.46646695953336 L315.77800552570704 155.68517601894504 L324.5212634293588 159.1672446820722 L332.5245010047127 162.89197928162992 L339.740155624032 166.8372440052661 L346.12534520474503 170.97959244699655 L351.6421230543782 175.29440694740038 L356.25770338484216 179.75604489448347 L359.94465615585824 184.33799111575732 L362.6810700895859 189.0130154558768 L364.45068288766885 193.75333460336824 L365.24297787682804 198.53077720472024 L365.053246508645 203.31695128457952 L363.8826163421046 208.0834129770839 L361.7380443425978 212.80183556558114 L358.6322755372103 217.44417782613147 L354.58376727200243 221.98285067435614 L349.6165795214157 226.3908811252511 L343.76023190168763 230.64207259157044 L337.0495282380364 234.7111605681364 L329.5243497281889 238.57396277686072 L321.22941793148505 242.20752288016695 L312.2140289920714 245.5902469087484 L302.5317606756953 248.7020315928728 L292.2401539611509 251.5243838345727 L281.400371078644 254.04053061071224 L270.07683202735 256.2355186537767 L258.33683173229167 258.09630331799633 L246.25014011575558 259.61182610267673 L233.88858745999147 260.773080372021 L221.3256375253456 261.5731648808766 L208.63595096076122 262.0073247883064 L195.8949416012651 262.0729799152439 L183.17832828932137 261.76974007829983 L170.56168488355277 261.09940740859236 L158.1199911290883 260.0659656418196 L145.9271870586848 258.6755564432238 L134.05573357277382 256.9364429081453 L122.57618180988439 254.85896045507994 L111.55675386663079 252.45545540307873 L101.06293735902231 249.74021159852032 L91.1570962345714 246.72936552730465 L81.89810014814121 243.44081041695583 L73.34097460408996 239.89408989854013 L65.53657394391715 236.1102818603646 L58.53127912280755 232.11187318370142 L52.36672207116973 227.92262610497653 L47.079538279259026 223.56743699861624 L42.70114907527142 219.07218841980523 L39.25757489079325 214.46359528644132 L36.769280623371486 209.76904611442578 L35.25105401519585 205.0164402498136 L34.71191777067861 200.23402206513381 L35.155075935214796 195.45021310525067 L36.577894853785324 190.69344318029863 L38.971918822567375 185.99198140949903 L42.32292034053364 181.3737682199511 L46.610984662401535 176.86624929881341 L51.81062815043893 172.49621248568792 L57.89094972176974 168.28962857454246 L64.81581449114265 164.27149697127135 L72.5440685177859 160.46569712414126 L81.02978338012275 156.8948466100607 L90.22252912486432 153.58016672005198 L100.06767396835679 150.5413563427455 L110.5067089690863 147.79647489539343 L121.4775957418364 145.36183499813677 L132.91513514705488 143.25190552935405 L144.75135476435295 141.47922563822425 L156.91591284738126 140.05433022552594 L169.336516359447 138.98568733552756 L181.93935060548927 138.2796478310497 L194.64951790715727 137.9404076507739 L207.39148271397127 137.96998287310043 L220.08952050532028 138.368197734749 L232.66816781547504 139.13268567530622 L245.05267070719282 140.25890340151315 L257.16942902863127 141.7401578877085 L268.9464338134186 143.56764615196792 L280.31369522442145 145.73050757155113 L291.20365849798316 148.2158884267503 L301.5516054167082 151.0090182895616 L311.2960389248726 154.09329780320758 L320.37904860071257 157.4503973308424 L328.74665481362337 161.06036588717896 L336.3491295209719 164.90174970566727 L343.1412917980399 168.95171973658387 L349.0827763447986 173.18620731832485 L354.13827337379735 177.58004721561986 L358.2777384535225 182.1071271745957 L361.47657106015254 186.74054310590083 L363.71576077658654 191.45275897364712 L364.98200026989645 196.2157704399616 L365.2677643757872 201.00127129262057 L364.5713548200714 205.78082166670046 L362.89691031138284 210.5260170605159 L360.25438194514834 215.20865714139717 L356.6594740649896 219.80091333810657 L352.13355093301254 224.2754942239052 L346.70350976363454 228.6058077074113 L340.4016208754997 232.76611906736156 L333.2653359114475 236.73170389208838 L325.33706526626906 240.4789950148038 L316.6639260449792 243.9857225714665 L307.29746204947423 247.23104634887653 L297.29333745766303 250.19567963646693 L286.71100601552155 252.86200384574718 L275.6133577080392 255.21417321622323 L264.066345008857 257.2382089855386 L252.1385909297648 258.9220824641892 L239.9009811994032 260.25578652110215 L227.42624299480866 261.2313950552497 L214.78851272937356 261.84311009986027 L202.06289546581533 262.0872962792905 L189.32501857255477 261.96250241378465 L176.65058227604806 261.4694701437241 L164.1149097801466 260.61112952211596 L151.79249962606622 259.3925816015122 L139.7565829532656 257.82106811884546 L128.0786882923897 255.90592845834038 L116.82821647670319 253.65854414827035 L106.07202819824465 251.0922712214054 L95.87404665986179 248.22236084113354 L86.29487768451338 245.06586866496497 L77.39144953950594 241.64155348406595 L69.21667461616664 237.96976574120185 L61.8191349755478 234.0723265896115 L55.24279362896789 229.97239821156876 L49.52673326919921 225.69434616730567 L44.704924005022264 221.26359459235726 L40.80602147946678 216.7064751038674 L37.85319657152709 212.0500703138117 L35.86399769339778 207.3220528791032 L34.85024650160838 202.55052104511725 L34.81796764182272 197.76383165996924 L35.76735294483123 192.99043165194166 L37.69276028651615 188.25868897156388 L40.5827471185616 183.59672400306167 L44.42013847064237 179.03224244706385 L49.18212901995801 174.59237066774628 L54.840418621515255 170.30349448293148 L61.36138049372531 166.19110235519088 L68.70626105978866 162.27963391586644 L76.83141025723317 158.59233472221388 L85.68854094689024 155.1511181108369 L95.22501587966768 151.97643496840539 L105.38416051567953 149.08715219360568 L116.1055998367032 146.50044057260408 L127.3256171502827 144.23167273438193 L138.97753275315108 142.29433179237893 L150.9921002035972 140.69993121538312 L163.29791784776893 139.4579464038673 L175.8218531542216 138.57575837841134 L188.48947733495467 138.05860991486125 L201.2255076700024 137.9095743869141 L213.95425490686023 138.12953750129415 L226.60007307592048 138.71719203406525 L239.08780904866717 139.66904559936242 L251.34324916697346 140.97944140437426 L263.29356028916885 142.64059186722773 L274.86772263183707 144.64262489799245 L285.99695183493515 146.97364256775327 L296.61510774198194 149.6197918170913 L306.65908746593476 152.56534678375303 L316.0692004048227 155.792802260248 L324.7895229784083 159.28297772595175 L332.7682309777489 163.01513133547326 L339.9579075524997 166.9670831858531 L346.31582500561575 171.11534713002436 L351.80419872078915 175.43527035318863 L356.3904117135254 179.9011798826039 L360.0472084713837 184.48653516009497 L362.7528569313995 189.16408577055668 L364.4912776320702 193.90603338908542 L365.2521392723611 198.68419698428988 L365.03092010983795 203.47018029600574 L363.82893483303496 208.23554059209215 L361.6533267483612 212.95195770141015 L358.5170253279784 217.5914023184303 L354.43866937093924 222.12630257924596 L349.4424962342302 226.52970791905216 L343.5581977920184 230.77544923728328 L336.8207439791166 234.83829441857523 L329.2701749673432 238.69409828529152 L320.95136320984153 242.3199460904682 L311.91374676753924 245.69428969839407 L302.2110355025286 248.7970756435353 L291.90089188447996 251.60986430674123 L281.0445883069971 254.11593950048996 L269.70664295048266 256.3004078119087 L257.95443635552334 258.1502871131877 L245.8578109855146 259.6545837133684 L233.48865615824096 260.80435769300857 L220.920480813168 261.59277603343793 L208.22797665345746 262.01515322486415 L195.4865742588863 262.06897911199945 L182.771994807696 261.75393381172034 L170.15980007143068 261.0718896141091 L157.724943357119 260.026899855577 L145.54132406550747 258.62517483019633 L133.68134851259498 256.87504488239915 L122.21549962443292 254.78691090037813 L111.21191806250148 252.37318250440484 L100.73599726897787 249.64820429740746 L90.84999483851884 246.62817061609417 L81.61266252614978 243.33102928925246 L73.0788970900766 239.7763749751742 L65.2994140444699 235.98533271210758 L58.320446261038256 231.9804323737682 L52.18346921062195 227.78547477602956 L46.924954477643354 223.42539023049568 " stroke = "blue" stroke-width = "4" fill = "none" /></svg>