<svg width="500" height="500" viewbox = "0 0 500 500"  xmlns="http://www.w3.org/2000/svg">

<!--
<json>
{
    "imgurl": "",
    "imgw": 2,
    "imgleft": -1,
    "imgtop": -1,
    "imgangle": 0,
    "svgwidth": 500,
    "svgheight": 500,
    "unit": 90.90909090909092,
    "x0": 680.120275236712,
    "y0": 361.1569459444388,
    "x0rel": -3.8797247632879817,
    "y0rel": -37.8430540555612,
    "glyph": "0337,0210,0210,0331,0333,0336,01112,01105,01110,01105,0330,0333,0333,0333,0336,0333,0337,01112,01105,01110,0330,0333,0333,0336,0333,0337,01112,01105,0330,0333,0336,0333,0337,01112,0331,0331,0331,0331,0332,0332,0336,0330,0335,0337,0337,0321,0306,0336,0331,0336,0330,0337,0337,0362,0203,0203,0203,0334,0334,0203,0203,0203,0334,0334,0203,0203,0203,0354,",
    "table": []
}
</json>
-->
	<path d = "M348 286 L348 290 L351 294 L354 297 L357 299 L360 302 L359 307 L359 311 L357 315 L355 319 L353 323 L351 327 L349 330 L350 326 L352 322 L352 318 L349 314 L346 312 L342 309 L340 306 L339 302 L339 297 L340 293 L343 290 L346 287 L347 285 Z" stroke = "black" stroke-width = "2" fill = "black" />	<path d = "M267 287 L269 289 L272 290 L275 291 L278 291 L280 292 L283 292 L286 292 L289 292 L292 292 L295 292 L298 292 L301 292 L304 293 L306 294 L307 297 L307 299 L306 302 L305 305 L304 308 L304 309 L303 310 L303 312 L303 313 L303 315 L303 316 L303 317 L304 319 L304 320 L304 322 L304 323 L304 325 L304 326 L305 328 L305 329 L304 330 L304 331 L303 333 L302 334 L301 335 L300 336 L300 338 L299 339 L298 340 L297 341 L296 342 L296 344 L296 341 L296 338 L295 335 L295 332 L295 329 L294 326 L294 323 L294 320 L294 318 L294 315 L294 312 L294 309 L294 306 L294 305 L292 304 L291 304 L289 304 L288 304 L287 304 L285 304 L284 304 L282 304 L281 304 L279 304 L278 304 L276 304 L275 304 L274 304 L272 304 L271 304 L269 304 L268 303 L266 303 L265 303 L264 302 L262 302 L261 301 L260 300 L259 299 L259 297 L262 293 L266 288 L267 287 L267 287 Z" stroke = "black" stroke-width = "2" fill = "black" />	<path d = "M268 334 L268 328 L268 325 L268 323 L268 320 L268 317 L269 314 L269 311 L270 308 L268 311 L266 313 L265 315 L263 318 L261 320 L261 320 L261 321 L260 322 L260 323 L260 323 L260 326 L260 329 L260 332 L260 335 L260 338 L260 341 L260 344 L260 345 L262 342 L263 340 L265 338 L267 336 L268 334 Z" stroke = "black" stroke-width = "2" fill = "black" />	<path d = "M211 287 L213 289 L215 290 L217 291 L220 292 L222 292 L223 292 L223 293 L223 295 L223 296 L223 297 L222 298 L222 300 L222 301 L222 302 L222 303 L222 308 L222 313 L222 318 L222 323 L222 328 L219 332 L217 337 L215 341 L212 346 L213 341 L212 336 L212 331 L212 326 L212 321 L213 316 L214 311 L215 309 L215 306 L215 304 L214 302 L211 302 L209 302 L206 301 L205 299 L204 298 L203 297 L207 294 L210 289 L211 287 Z" stroke = "black" stroke-width = "2" fill = "black" />	<path d = "M129 287 L131 289 L134 291 L137 291 L139 292 L142 292 L145 292 L148 292 L151 293 L154 293 L157 293 L160 293 L163 293 L165 293 L168 294 L169 297 L169 300 L168 302 L167 305 L166 308 L165 309 L165 310 L165 312 L165 313 L165 315 L165 316 L165 318 L165 319 L166 321 L166 322 L166 323 L166 325 L166 326 L167 328 L167 329 L166 330 L165 332 L165 333 L164 334 L163 335 L162 337 L162 338 L161 339 L160 340 L159 341 L158 343 L157 344 L157 341 L157 338 L157 335 L157 332 L157 329 L156 326 L156 324 L156 321 L155 318 L155 315 L156 312 L156 309 L156 306 L156 305 L154 305 L153 304 L151 304 L150 304 L148 304 L147 304 L146 304 L144 304 L143 304 L141 304 L140 304 L138 304 L137 304 L135 304 L134 304 L133 304 L131 304 L130 304 L128 303 L127 303 L125 303 L124 302 L123 301 L122 300 L121 299 L120 298 L124 293 L128 289 L129 287 L129 287 Z" stroke = "black" stroke-width = "2" fill = "black" />	<path d = "M130 334 L130 329 L130 326 L130 323 L130 320 L130 317 L131 314 L131 311 L132 308 L130 311 L128 313 L127 315 L125 318 L123 320 L123 321 L122 321 L122 322 L122 323 L122 323 L122 326 L122 329 L122 332 L122 335 L122 338 L122 341 L122 344 L122 345 L124 343 L125 340 L127 338 L129 336 L130 335 Z" stroke = "black" stroke-width = "2" fill = "black" />	<path d = "M315 217 L315 221 L318 225 L321 228 L324 230 L327 234 L327 238 L326 242 L324 246 L322 250 L320 254 L318 258 L316 262 L317 257 L319 253 L319 249 L316 245 L313 243 L309 241 L307 237 L306 233 L306 228 L308 224 L310 221 L313 218 L315 216 Z" stroke = "black" stroke-width = "2" fill = "black" />	<path d = "M234 218 L237 220 L239 222 L242 222 L245 222 L248 223 L250 223 L253 223 L256 224 L259 224 L262 224 L265 224 L268 224 L271 224 L273 225 L274 228 L274 231 L273 233 L273 236 L271 239 L271 240 L270 241 L270 243 L270 244 L270 246 L270 247 L271 249 L271 250 L271 251 L271 253 L271 254 L271 256 L272 257 L272 259 L272 260 L271 261 L271 263 L270 264 L269 265 L268 266 L268 267 L267 269 L266 270 L265 271 L264 272 L264 273 L263 275 L263 272 L263 269 L262 266 L262 263 L262 260 L262 257 L261 254 L261 252 L261 249 L261 246 L261 243 L261 240 L262 237 L261 236 L260 235 L258 235 L257 235 L255 235 L254 235 L252 235 L251 235 L249 235 L248 235 L246 235 L245 235 L244 235 L242 235 L241 235 L239 235 L238 235 L236 235 L235 234 L234 234 L232 234 L231 233 L229 233 L228 232 L227 231 L226 230 L226 228 L229 224 L233 219 L234 218 L234 218 Z" stroke = "black" stroke-width = "2" fill = "black" />	<path d = "M235 265 L235 259 L235 257 L235 254 L235 251 L236 248 L236 245 L236 242 L237 239 L235 242 L234 244 L232 246 L230 249 L228 251 L228 252 L228 252 L228 253 L227 254 L227 254 L227 257 L227 260 L227 263 L227 266 L227 269 L227 272 L227 275 L227 276 L229 274 L230 271 L232 269 L234 267 L235 266 Z" stroke = "black" stroke-width = "2" fill = "black" />	<path d = "M178 218 L180 220 L182 221 L184 222 L187 223 L189 223 L191 223 L191 225 L190 226 L190 227 L190 228 L190 229 L190 231 L189 232 L189 233 L189 234 L189 239 L189 244 L189 249 L189 254 L189 259 L187 264 L184 268 L182 272 L180 277 L180 272 L180 267 L179 262 L179 257 L179 252 L180 247 L181 242 L182 240 L183 238 L182 235 L181 233 L178 233 L176 233 L174 232 L172 230 L171 229 L171 228 L174 225 L177 221 L178 219 Z" stroke = "black" stroke-width = "2" fill = "black" />	<path d = "M282 148 L282 152 L284 156 L287 159 L291 161 L294 164 L293 169 L292 173 L291 177 L289 181 L287 185 L285 189 L283 192 L284 188 L285 184 L285 180 L283 176 L279 174 L276 171 L273 168 L272 164 L272 159 L274 155 L276 152 L280 149 L281 147 Z" stroke = "black" stroke-width = "2" fill = "black" />	<path d = "M201 149 L203 151 L205 152 L208 153 L211 153 L214 154 L217 154 L220 154 L223 154 L226 154 L228 154 L231 154 L234 154 L237 155 L240 156 L241 159 L241 161 L240 164 L239 167 L238 170 L237 171 L237 172 L236 174 L237 175 L237 177 L237 178 L237 179 L237 181 L237 182 L237 184 L238 185 L238 187 L238 188 L238 190 L239 191 L238 192 L237 193 L236 195 L236 196 L235 197 L234 198 L233 200 L232 201 L232 202 L231 203 L230 204 L229 206 L229 203 L229 200 L229 197 L229 194 L228 191 L228 188 L228 185 L227 182 L227 180 L227 177 L227 174 L228 171 L228 168 L227 167 L226 166 L225 166 L223 166 L222 166 L220 166 L219 166 L217 166 L216 166 L214 166 L213 166 L212 166 L210 166 L209 166 L207 166 L206 166 L204 166 L203 166 L201 165 L200 165 L199 165 L197 164 L196 164 L195 163 L194 162 L193 161 L192 159 L196 155 L200 150 L200 149 L201 149 Z" stroke = "black" stroke-width = "2" fill = "black" />	<path d = "M201 196 L201 190 L201 187 L201 185 L202 182 L202 179 L202 176 L203 173 L203 170 L202 173 L200 175 L198 177 L197 180 L195 182 L194 182 L194 183 L194 184 L194 185 L194 185 L194 188 L193 191 L193 194 L193 197 L193 200 L194 203 L194 206 L194 207 L195 204 L197 202 L199 200 L201 198 L201 196 Z" stroke = "black" stroke-width = "2" fill = "black" />	<path d = "M248 79 L248 83 L251 87 L254 90 L257 92 L260 95 L259 100 L259 104 L257 108 L255 112 L253 116 L251 120 L249 123 L250 119 L252 115 L252 111 L249 107 L246 105 L242 102 L240 99 L239 94 L239 90 L240 86 L243 83 L246 79 L247 78 Z" stroke = "black" stroke-width = "2" fill = "black" />	<path d = "M42 387 L181 387 L320 387 L459 387 L390 267 L320 147 L251 26 L181 147 L112 267 L42 387 Z" stroke = "black" stroke-width = "6" fill = "none" /></svg>