<svg width="500" height="500" viewbox = "0 0 500 500"  xmlns="http://www.w3.org/2000/svg">

<!--
<json>
{
    "imgurl": "",
    "imgw": 2,
    "imgleft": -1,
    "imgtop": -1,
    "imgangle": 0,
    "svgwidth": 500,
    "svgheight": 500,
    "unit": 90.90909090909092,
    "x0": 680.120275236712,
    "y0": 361.1569459444388,
    "x0rel": -3.8797247632879817,
    "y0rel": -37.8430540555612,
    "glyph": "0331,0333,0336,01112,01105,01110,01105,0330,0333,0333,0333,0336,0333,0337,01112,01105,01110,0330,0333,0333,0336,0333,0337,01112,01105,0330,0333,0336,0333,0337,01112,0331,0331,0331,0331,0332,0332,0336,0330,0335,0337,0337,0321,0306,0336,0331,0336,0330,0337,0337,0362,0203,0203,0203,0334,0334,0203,0203,0203,0334,0334,0203,0203,0203,0354,",
    "table": []
}
</json>
-->
	<path d = "M313 260 L313 263 L314 266 L316 268 L319 269 L321 271 L320 274 L320 277 L319 279 L318 282 L316 285 L315 287 L314 290 L314 287 L315 284 L315 281 L314 279 L311 277 L309 276 L307 273 L307 271 L307 268 L308 265 L309 263 L311 261 L312 260 Z" stroke = "black" stroke-width = "2" fill = "black" />	<path d = "M260 261 L261 262 L263 263 L265 264 L267 264 L269 264 L270 264 L272 265 L274 265 L276 265 L278 265 L280 265 L282 265 L284 265 L285 266 L286 267 L286 269 L285 271 L285 273 L284 275 L284 275 L283 276 L283 277 L283 278 L283 279 L284 280 L284 281 L284 282 L284 283 L284 284 L284 285 L284 286 L284 287 L284 288 L285 289 L284 289 L284 290 L283 291 L283 292 L282 293 L282 293 L281 294 L281 295 L280 296 L280 297 L279 297 L278 298 L278 296 L278 294 L278 292 L278 291 L278 289 L278 287 L278 285 L277 283 L277 281 L277 279 L277 277 L278 275 L278 274 L277 273 L276 272 L275 272 L275 272 L274 272 L273 272 L272 272 L271 272 L270 272 L269 272 L268 272 L267 272 L266 272 L265 272 L264 272 L263 272 L262 272 L261 272 L260 272 L259 272 L258 271 L258 271 L257 271 L256 270 L255 269 L255 269 L254 268 L257 265 L259 262 L260 261 L260 261 Z" stroke = "black" stroke-width = "2" fill = "black" />	<path d = "M260 292 L260 288 L260 286 L260 284 L260 283 L261 281 L261 279 L261 277 L262 275 L261 277 L259 278 L258 280 L257 281 L256 283 L256 283 L256 283 L255 284 L255 284 L255 285 L255 287 L255 289 L255 291 L255 292 L255 294 L255 296 L255 298 L255 299 L256 297 L257 296 L259 294 L260 293 L260 292 Z" stroke = "black" stroke-width = "2" fill = "black" />	<path d = "M223 261 L224 262 L226 263 L227 264 L229 264 L230 264 L231 265 L231 265 L231 266 L231 267 L231 268 L231 269 L231 269 L230 270 L230 271 L230 272 L230 275 L230 278 L230 282 L230 285 L230 288 L229 291 L227 294 L226 297 L224 299 L224 296 L224 293 L224 290 L224 287 L224 283 L224 280 L225 277 L226 275 L226 274 L226 272 L225 271 L223 271 L222 271 L220 270 L219 269 L219 268 L218 268 L221 265 L222 263 L223 261 Z" stroke = "black" stroke-width = "2" fill = "black" />	<path d = "M170 261 L171 262 L173 264 L174 264 L176 264 L178 264 L180 264 L182 265 L184 265 L186 265 L188 265 L190 265 L191 265 L193 265 L195 266 L196 267 L196 269 L195 271 L195 273 L194 275 L193 276 L193 277 L193 277 L193 278 L193 279 L193 280 L193 281 L193 282 L193 283 L194 284 L194 285 L194 286 L194 287 L194 288 L194 289 L194 290 L193 290 L193 291 L192 292 L192 293 L191 294 L191 294 L190 295 L190 296 L189 297 L189 297 L188 298 L188 296 L188 294 L188 293 L188 291 L188 289 L187 287 L187 285 L187 283 L187 281 L187 279 L187 277 L187 276 L187 274 L187 273 L186 273 L185 273 L184 272 L183 272 L182 272 L181 272 L180 272 L179 272 L178 272 L177 272 L177 272 L176 272 L175 272 L174 272 L173 272 L172 272 L171 272 L170 272 L169 272 L168 272 L167 271 L166 271 L166 270 L165 270 L164 269 L164 268 L166 265 L169 262 L169 261 L170 261 Z" stroke = "black" stroke-width = "2" fill = "black" />	<path d = "M170 292 L170 288 L170 286 L170 285 L170 283 L170 281 L171 279 L171 277 L171 275 L170 277 L169 278 L168 280 L167 281 L166 283 L165 283 L165 284 L165 284 L165 285 L165 285 L165 287 L165 289 L165 291 L165 293 L165 294 L165 296 L165 298 L165 299 L166 298 L167 296 L168 295 L169 293 L170 292 Z" stroke = "black" stroke-width = "2" fill = "black" />	<path d = "M291 215 L291 218 L293 221 L295 223 L297 224 L299 226 L299 229 L298 232 L297 234 L296 237 L295 239 L293 242 L292 245 L293 242 L294 239 L294 236 L292 234 L290 232 L287 231 L286 228 L285 226 L285 223 L286 220 L288 218 L290 216 L291 215 Z" stroke = "black" stroke-width = "2" fill = "black" />	<path d = "M239 216 L240 217 L241 218 L243 219 L245 219 L247 219 L249 219 L251 219 L253 220 L255 220 L257 220 L258 220 L260 220 L262 220 L264 221 L265 222 L264 224 L264 226 L263 228 L263 230 L262 230 L262 231 L262 232 L262 233 L262 234 L262 235 L262 236 L262 237 L262 238 L262 239 L263 240 L263 241 L263 242 L263 243 L263 244 L263 244 L262 245 L262 246 L261 247 L261 248 L260 248 L260 249 L259 250 L259 251 L258 252 L258 252 L257 253 L257 251 L257 249 L257 247 L257 246 L256 244 L256 242 L256 240 L256 238 L256 236 L256 234 L256 232 L256 230 L256 229 L256 228 L255 227 L254 227 L253 227 L252 227 L251 227 L250 227 L249 227 L248 227 L247 227 L246 227 L245 227 L244 227 L244 227 L243 227 L242 227 L241 227 L240 227 L239 227 L238 227 L237 226 L236 226 L235 226 L234 225 L234 224 L233 224 L233 223 L235 220 L238 217 L238 216 L238 216 Z" stroke = "black" stroke-width = "2" fill = "black" />	<path d = "M239 247 L239 243 L239 241 L239 239 L239 237 L239 236 L239 234 L240 232 L240 230 L239 232 L238 233 L237 235 L236 236 L234 238 L234 238 L234 238 L234 239 L234 239 L234 240 L234 242 L234 244 L234 245 L234 247 L234 249 L234 251 L234 253 L234 254 L235 252 L236 251 L237 249 L238 248 L239 247 Z" stroke = "black" stroke-width = "2" fill = "black" />	<path d = "M202 216 L203 217 L204 218 L206 219 L207 219 L209 219 L210 219 L210 220 L210 221 L209 222 L209 223 L209 223 L209 224 L209 225 L209 226 L209 227 L209 230 L209 233 L209 236 L209 240 L209 243 L207 246 L206 249 L204 252 L203 254 L203 251 L203 248 L202 245 L202 241 L202 238 L203 235 L204 232 L204 230 L205 229 L204 227 L203 226 L202 226 L200 226 L199 225 L197 224 L197 223 L197 223 L199 220 L201 218 L202 216 Z" stroke = "black" stroke-width = "2" fill = "black" />	<path d = "M269 170 L269 173 L271 175 L273 177 L275 179 L277 181 L277 184 L276 186 L275 189 L274 192 L273 194 L271 197 L270 199 L271 196 L272 194 L272 191 L270 189 L268 187 L265 185 L264 183 L263 180 L263 177 L264 175 L266 173 L268 171 L269 169 Z" stroke = "black" stroke-width = "2" fill = "black" />	<path d = "M217 171 L218 172 L219 173 L221 173 L223 174 L225 174 L227 174 L229 174 L231 174 L233 174 L235 174 L236 174 L238 174 L240 175 L242 175 L243 177 L243 179 L242 181 L241 183 L241 184 L240 185 L240 186 L240 187 L240 188 L240 189 L240 190 L240 191 L240 192 L240 193 L240 194 L241 195 L241 195 L241 196 L241 197 L241 198 L241 199 L240 200 L240 201 L239 202 L239 202 L238 203 L238 204 L237 205 L237 205 L236 206 L236 207 L235 208 L235 206 L235 204 L235 202 L235 200 L234 198 L234 196 L234 195 L234 193 L234 191 L234 189 L234 187 L234 185 L234 183 L234 182 L233 182 L232 182 L231 182 L230 182 L229 182 L228 182 L227 182 L226 182 L225 182 L224 182 L223 182 L223 182 L222 182 L221 182 L220 182 L219 182 L218 182 L217 182 L216 181 L215 181 L214 181 L213 180 L213 180 L212 179 L211 178 L211 178 L213 175 L216 172 L216 171 L217 171 Z" stroke = "black" stroke-width = "2" fill = "black" />	<path d = "M217 202 L217 198 L217 196 L217 194 L217 192 L217 190 L218 188 L218 187 L218 185 L217 186 L216 188 L215 189 L214 191 L213 192 L212 193 L212 193 L212 194 L212 194 L212 195 L212 196 L212 198 L212 200 L212 202 L212 204 L212 206 L212 208 L212 209 L213 207 L214 205 L215 204 L216 203 L217 202 Z" stroke = "black" stroke-width = "2" fill = "black" />	<path d = "M247 125 L247 128 L249 130 L251 132 L253 134 L255 136 L255 139 L254 141 L253 144 L252 147 L251 149 L249 152 L248 154 L249 151 L250 149 L250 146 L248 143 L246 142 L243 140 L242 138 L241 135 L241 132 L242 130 L244 127 L246 125 L247 124 Z" stroke = "black" stroke-width = "2" fill = "black" />	<path d = "M113 327 L204 327 L295 327 L385 327 L340 248 L295 169 L249 91 L204 169 L158 248 L113 327 Z" stroke = "black" stroke-width = "6" fill = "none" /></svg>