<svg width="500" height="500" viewbox = "0 0 500 500"  xmlns="http://www.w3.org/2000/svg">

<!--
<json>
{
    "imgurl": "",
    "imgw": 2,
    "imgleft": -1,
    "imgtop": -1,
    "imgangle": 0,
    "svgwidth": 500,
    "svgheight": 500,
    "unit": 90.90909090909092,
    "x0": 680.120275236712,
    "y0": 361.1569459444388,
    "x0rel": -3.8797247632879817,
    "y0rel": -37.8430540555612,
    "glyph": "0330,0333,0333,0336,0333,01101,01102,01103,01104,01105,01106,01107,01110,01111,0331,0331,0333,0333,0333,0333,0333,0333,0333,0333,0333,01112,01113,01114,01115,01116,01117,01120,01121,01122,0331,0331,0333,0333,0333,0333,0333,0333,0333,0333,0333,01123,01124,01125,01126,",
    "table": []
}
</json>
-->
	<path d = "M440 80 L440 83 L441 85 L442 86 L442 88 L444 88 L445 89 L447 90 L448 91 L449 92 L451 93 L452 94 L453 95 L455 96 L456 97 L457 98 L458 99 L460 101 L461 102 L462 103 L463 104 L464 105 L465 107 L465 109 L464 110 L464 112 L463 113 L462 115 L461 116 L461 118 L460 119 L460 118 L460 116 L460 114 L459 113 L458 112 L457 110 L455 109 L454 108 L453 107 L452 106 L451 105 L449 104 L448 103 L447 102 L445 101 L444 100 L443 99 L442 98 L440 97 L439 95 L438 94 L437 93 L437 91 L436 89 L436 88 L437 86 L438 85 L438 83 L439 82 L440 80 Z" stroke = "black" stroke-width = "2" fill = "black" />	<path d = "M456 97 L458 94 L460 91 L457 90 L454 88 L454 88 L455 84 L457 82 L458 80 L459 82 L460 83 L461 84 L463 84 L465 84 L466 84 L463 90 L461 93 L459 95 L456 97 Z" stroke = "black" stroke-width = "2" fill = "black" />	<path d = "M441 98 L441 100 L440 101 L441 103 L441 105 L442 106 L443 108 L444 108 L446 109 L445 110 L444 113 L442 116 L441 117 L440 118 L438 118 L437 118 L435 119 L434 120 L434 118 L435 117 L436 115 L437 114 L436 112 L435 111 L435 109 L435 108 L435 106 L435 104 L436 103 L437 101 L438 100 L439 99 L440 98 Z" stroke = "black" stroke-width = "2" fill = "black" />	<path d = "M400 75 L401 77 L403 78 L406 79 L408 79 L411 79 L413 79 L416 79 L418 80 L420 82 L421 84 L421 87 L421 89 L421 92 L421 94 L421 97 L421 99 L421 102 L421 104 L421 107 L423 109 L424 109 L425 110 L422 114 L419 118 L416 118 L414 117 L411 117 L409 117 L406 117 L404 117 L401 117 L399 117 L396 117 L394 118 L391 118 L389 118 L388 118 L391 114 L394 110 L394 109 L404 109 L414 108 L415 108 L416 108 L416 106 L416 103 L416 101 L415 98 L415 96 L415 93 L415 91 L413 89 L410 89 L408 88 L405 88 L403 88 L400 88 L398 87 L396 85 L394 84 L393 83 L395 81 L396 79 L398 77 L399 75 L399 75 Z" stroke = "black" stroke-width = "2" fill = "black" />	<path d = "M358 84 L360 81 L363 78 L364 76 L364 76 L364 78 L365 79 L366 81 L368 82 L368 82 L369 82 L369 90 L369 98 L369 105 L370 109 L370 110 L370 111 L366 118 L366 119 L365 119 L365 111 L365 110 L365 109 L361 110 L357 112 L354 113 L352 114 L350 116 L349 117 L348 119 L348 117 L349 115 L350 113 L351 111 L352 110 L353 108 L354 107 L356 106 L358 106 L360 105 L362 104 L363 104 L364 102 L365 100 L365 98 L365 96 L365 94 L365 92 L363 91 L361 90 L360 89 L359 88 L358 86 L358 84 Z" stroke = "black" stroke-width = "2" fill = "black" />	<path d = "M299 74 L300 75 L300 75 L302 76 L303 76 L304 76 L305 77 L306 77 L307 77 L308 78 L309 78 L310 78 L311 78 L312 78 L314 78 L315 78 L316 78 L317 78 L318 78 L319 78 L320 78 L321 78 L323 78 L324 78 L325 78 L326 79 L327 79 L328 80 L328 81 L328 82 L328 83 L327 84 L326 85 L326 86 L325 87 L324 88 L323 89 L323 90 L322 91 L322 92 L322 93 L322 94 L322 95 L322 96 L322 97 L322 98 L322 100 L322 101 L322 102 L322 103 L322 104 L322 105 L322 106 L323 107 L323 109 L322 110 L322 110 L321 111 L320 112 L320 113 L319 114 L318 115 L318 116 L317 117 L316 118 L316 119 L315 120 L315 119 L315 118 L314 113 L314 108 L314 104 L314 99 L314 95 L315 93 L315 90 L315 88 L316 87 L314 87 L312 87 L309 87 L307 87 L305 87 L303 87 L300 87 L298 86 L296 86 L294 85 L292 83 L293 81 L295 79 L296 77 L297 76 L299 74 Z" stroke = "black" stroke-width = "2" fill = "black" />	<path d = "M254 77 L255 78 L257 79 L259 79 L261 80 L263 80 L265 80 L267 80 L269 80 L271 80 L273 80 L275 80 L277 80 L279 81 L281 81 L282 83 L281 85 L281 87 L280 89 L279 91 L279 92 L279 93 L278 94 L279 95 L279 96 L279 97 L279 98 L279 99 L279 100 L279 101 L279 102 L279 103 L280 104 L280 105 L280 106 L279 107 L279 108 L278 108 L278 109 L277 110 L277 111 L276 112 L276 113 L275 113 L274 114 L274 115 L273 116 L273 114 L273 112 L273 110 L273 108 L273 106 L273 104 L272 102 L272 100 L272 98 L272 96 L272 94 L272 92 L273 90 L272 89 L271 89 L270 89 L269 89 L268 89 L267 89 L266 89 L265 89 L264 89 L263 89 L262 89 L261 89 L260 89 L259 89 L258 89 L257 88 L256 88 L255 88 L254 88 L253 88 L252 88 L251 87 L250 87 L249 86 L249 86 L248 85 L248 84 L250 81 L253 78 L253 77 L254 76 Z" stroke = "black" stroke-width = "2" fill = "black" />	<path d = "M254 109 L254 105 L254 103 L254 101 L254 99 L254 97 L255 95 L255 93 L255 91 L254 93 L253 95 L252 96 L251 98 L249 100 L249 100 L249 100 L249 101 L249 101 L249 102 L249 104 L249 106 L249 108 L249 110 L249 112 L249 114 L249 116 L249 117 L250 115 L251 114 L252 112 L254 111 L254 110 Z" stroke = "black" stroke-width = "2" fill = "black" />	<path d = "M205 74 L205 75 L205 76 L206 77 L206 78 L207 79 L208 79 L209 80 L209 80 L213 81 L217 82 L221 82 L223 82 L225 82 L227 83 L229 83 L231 83 L233 84 L234 85 L234 87 L233 89 L233 91 L232 93 L232 95 L232 97 L232 99 L232 101 L232 103 L232 105 L232 107 L232 109 L232 111 L232 113 L230 114 L229 115 L227 117 L226 118 L225 119 L225 118 L225 116 L225 114 L225 112 L225 110 L225 108 L225 106 L225 104 L225 102 L225 100 L225 98 L225 96 L225 94 L225 92 L225 90 L223 90 L221 90 L219 90 L217 90 L215 90 L213 90 L211 90 L209 90 L207 90 L206 92 L205 94 L205 96 L205 98 L205 100 L205 101 L205 103 L205 105 L205 107 L205 109 L205 111 L204 113 L202 114 L201 116 L200 117 L199 119 L199 117 L199 115 L199 113 L198 111 L198 109 L198 107 L198 105 L198 103 L198 101 L198 99 L199 97 L200 96 L201 94 L202 92 L203 91 L202 89 L200 88 L199 86 L198 84 L200 83 L201 81 L202 79 L203 78 L204 76 L205 74 Z" stroke = "black" stroke-width = "2" fill = "black" />	<path d = "M165 74 L166 75 L167 77 L169 78 L171 78 L173 78 L175 78 L177 78 L179 78 L178 80 L177 81 L176 83 L175 85 L174 87 L174 87 L170 87 L169 91 L169 95 L169 99 L170 101 L170 103 L170 105 L170 107 L169 109 L168 111 L167 112 L166 114 L165 116 L165 118 L164 120 L163 120 L163 116 L163 112 L163 108 L163 104 L163 100 L163 96 L166 93 L167 89 L168 88 L168 87 L166 87 L164 88 L162 88 L160 89 L159 89 L159 85 L161 81 L163 78 L164 74 Z" stroke = "black" stroke-width = "2" fill = "black" />	<path d = "M118 76 L119 77 L121 78 L122 78 L124 79 L126 79 L126 79 L126 80 L126 81 L126 82 L126 83 L126 84 L126 85 L126 85 L125 86 L125 87 L125 91 L125 94 L125 98 L125 101 L125 105 L124 108 L122 111 L120 114 L119 117 L119 114 L119 110 L118 107 L118 103 L118 100 L119 96 L120 93 L121 91 L121 89 L121 88 L120 86 L118 86 L116 86 L114 86 L113 84 L113 84 L112 83 L115 80 L117 77 L118 76 Z" stroke = "black" stroke-width = "2" fill = "black" />	<path d = "M56 75 L57 77 L59 78 L60 79 L62 80 L64 81 L65 83 L65 84 L64 86 L64 88 L63 90 L62 92 L62 94 L62 96 L62 98 L62 100 L62 102 L62 104 L63 106 L64 108 L66 108 L68 108 L70 108 L72 108 L74 108 L76 108 L78 108 L80 108 L82 108 L84 108 L84 106 L84 104 L84 102 L84 100 L84 98 L84 96 L83 94 L82 92 L80 91 L79 90 L77 89 L75 88 L73 89 L72 91 L71 93 L70 94 L69 96 L69 98 L68 100 L67 102 L67 100 L66 98 L67 96 L68 94 L69 92 L70 91 L71 89 L72 87 L73 85 L74 84 L75 82 L77 81 L78 79 L80 78 L81 78 L83 79 L85 80 L87 81 L88 83 L90 84 L90 86 L91 88 L91 90 L91 92 L91 94 L91 96 L91 98 L91 100 L90 102 L90 104 L89 106 L88 107 L86 109 L85 111 L84 112 L83 114 L82 116 L81 117 L73 117 L65 117 L57 117 L56 117 L56 116 L56 115 L56 114 L56 112 L56 110 L56 108 L56 106 L56 104 L56 102 L56 101 L57 100 L57 99 L58 98 L58 97 L59 95 L60 93 L60 92 L60 91 L60 91 L56 89 L53 87 L52 86 L52 85 L52 84 L53 84 L53 83 L53 82 L54 81 L54 80 L54 79 L54 78 L55 77 L55 76 L56 75 Z" stroke = "black" stroke-width = "2" fill = "black" />	<path d = "M462 174 L462 177 L464 179 L466 181 L468 183 L471 185 L470 188 L469 191 L468 194 L467 197 L466 200 L464 202 L463 205 L463 202 L464 199 L464 196 L463 194 L460 192 L458 190 L456 188 L455 185 L455 182 L456 179 L458 176 L460 174 L461 173 Z" stroke = "black" stroke-width = "2" fill = "black" />	<path d = "M406 171 L408 173 L410 174 L413 175 L415 175 L418 175 L421 175 L424 176 L426 177 L428 179 L430 181 L431 183 L432 186 L432 188 L432 191 L432 194 L432 196 L432 199 L432 202 L431 204 L430 207 L428 209 L427 211 L425 213 L424 216 L423 217 L412 217 L407 217 L402 217 L399 217 L398 217 L400 212 L403 208 L403 206 L409 206 L414 206 L419 206 L425 206 L426 206 L426 204 L426 201 L425 198 L425 196 L424 193 L422 191 L421 189 L419 187 L416 186 L414 186 L411 186 L408 186 L406 186 L403 184 L401 183 L400 182 L400 181 L402 179 L403 177 L405 174 L406 172 L407 171 Z" stroke = "black" stroke-width = "2" fill = "black" />	<path d = "M353 175 L355 177 L357 179 L359 181 L360 183 L362 185 L360 186 L358 188 L356 190 L355 192 L354 193 L352 191 L350 189 L349 187 L348 184 L348 183 L351 178 L353 176 L353 175 Z" stroke = "black" stroke-width = "2" fill = "black" />	<path d = "M362 184 L366 181 L371 178 L373 177 L374 176 L378 180 L382 184 L383 186 L384 188 L384 191 L384 194 L384 196 L383 199 L383 202 L383 205 L383 206 L380 210 L377 215 L371 215 L366 215 L363 215 L361 215 L358 215 L355 216 L353 217 L352 217 L355 213 L358 209 L358 207 L364 206 L369 206 L374 206 L377 206 L378 206 L378 200 L378 198 L377 195 L376 193 L374 191 L372 189 L370 187 L368 186 L365 185 L363 185 L360 185 Z" stroke = "black" stroke-width = "2" fill = "black" />	<path d = "M350 213 L350 207 L349 205 L349 202 L350 200 L351 197 L353 195 L354 192 L354 195 L354 198 L354 201 L354 203 L353 206 L352 208 L351 211 L350 213 Z" stroke = "black" stroke-width = "2" fill = "black" />	<path d = "M305 165 L307 167 L308 169 L309 171 L309 174 L309 176 L309 178 L309 180 L310 183 L311 185 L313 185 L315 186 L318 186 L320 186 L322 186 L325 186 L327 186 L329 186 L332 186 L333 186 L334 186 L334 188 L334 189 L334 190 L334 191 L334 192 L334 193 L334 194 L334 195 L333 197 L333 198 L332 198 L331 199 L331 200 L330 201 L329 202 L329 203 L328 204 L328 205 L327 206 L326 207 L325 208 L324 209 L324 209 L323 210 L322 211 L321 212 L320 213 L319 213 L319 214 L318 215 L317 216 L316 216 L315 217 L314 217 L315 213 L317 209 L320 206 L324 204 L326 203 L328 202 L330 200 L330 198 L330 196 L329 194 L327 192 L325 192 L322 192 L320 192 L318 192 L316 192 L313 191 L311 191 L309 190 L308 188 L308 186 L308 183 L308 181 L307 179 L307 176 L307 174 L305 173 L304 173 L304 171 L304 170 L304 169 L304 168 L305 167 L305 166 Z" stroke = "black" stroke-width = "2" fill = "black" />	<path d = "M268 174 L271 176 L274 177 L277 177 L277 178 L277 181 L276 184 L276 187 L276 190 L276 193 L277 196 L277 199 L278 202 L278 203 L277 205 L277 206 L276 207 L275 209 L274 210 L273 211 L273 213 L272 214 L272 215 L270 215 L269 215 L267 215 L266 215 L264 215 L263 215 L261 215 L260 215 L258 216 L257 216 L255 217 L254 217 L256 212 L258 209 L259 208 L260 207 L262 207 L263 207 L265 207 L266 207 L268 207 L269 206 L271 206 L270 200 L270 197 L270 194 L272 191 L272 188 L270 187 L269 186 L268 186 L266 185 L265 185 L263 184 L263 183 L262 181 L265 176 L267 174 L268 173 Z" stroke = "black" stroke-width = "2" fill = "black" />	<path d = "M206 173 L208 175 L210 176 L212 177 L215 178 L218 178 L220 177 L223 177 L226 177 L228 177 L231 177 L233 179 L234 181 L235 184 L237 186 L237 189 L236 192 L236 194 L235 197 L234 199 L233 202 L231 204 L230 206 L229 207 L229 209 L228 210 L227 210 L226 211 L224 211 L219 213 L214 216 L209 218 L209 218 L204 208 L203 206 L203 203 L203 201 L203 198 L204 195 L205 193 L207 191 L208 189 L208 194 L209 199 L211 204 L213 209 L218 207 L223 205 L228 203 L231 202 L232 199 L232 197 L231 194 L229 192 L228 190 L226 188 L224 187 L221 187 L218 187 L216 187 L213 187 L210 188 L208 188 L205 187 L203 185 L201 183 L200 182 L201 181 L201 180 L202 178 L203 177 L203 176 L204 175 L205 174 L206 173 Z" stroke = "black" stroke-width = "2" fill = "black" />	<path d = "M162 172 L163 174 L165 175 L167 176 L170 177 L171 177 L170 178 L170 179 L169 181 L169 182 L168 183 L168 184 L167 185 L167 186 L167 187 L167 188 L167 189 L168 191 L168 192 L168 193 L168 194 L169 195 L169 196 L169 197 L170 197 L171 196 L172 196 L173 195 L174 194 L175 194 L176 193 L177 192 L178 191 L178 190 L179 189 L179 188 L180 187 L180 186 L181 185 L181 185 L180 184 L179 184 L178 183 L177 182 L176 182 L175 181 L176 181 L177 179 L177 176 L178 174 L179 172 L180 174 L182 176 L184 177 L187 177 L188 177 L187 178 L187 179 L186 181 L186 182 L185 183 L185 184 L185 185 L184 186 L183 185 L182 185 L182 186 L181 187 L181 188 L181 189 L180 190 L180 191 L179 193 L179 194 L178 195 L178 196 L177 197 L177 198 L176 199 L175 200 L175 201 L174 201 L173 202 L172 203 L171 203 L170 204 L169 205 L168 205 L167 206 L166 207 L166 207 L165 208 L164 209 L163 210 L162 210 L161 211 L160 211 L159 212 L158 213 L157 213 L156 214 L156 215 L155 216 L154 217 L154 216 L155 215 L155 214 L155 212 L155 211 L155 210 L155 209 L156 208 L156 207 L157 206 L158 205 L159 205 L160 204 L161 203 L162 203 L162 202 L163 201 L164 200 L164 200 L165 199 L165 198 L164 197 L164 196 L164 195 L164 194 L164 193 L164 192 L165 190 L165 189 L165 188 L166 187 L166 186 L166 185 L164 185 L163 184 L162 184 L161 183 L160 183 L159 182 L159 181 L158 180 L159 179 L159 178 L159 177 L160 176 L160 175 L161 174 L161 173 L162 172 Z" stroke = "black" stroke-width = "2" fill = "black" />	<path d = "M112 172 L114 174 L116 176 L118 178 L121 178 L123 178 L126 178 L128 178 L131 179 L133 180 L135 182 L136 185 L137 187 L137 190 L137 192 L137 195 L137 198 L137 200 L137 203 L137 205 L135 207 L134 210 L132 212 L131 214 L130 216 L129 217 L118 217 L113 217 L108 217 L102 218 L102 218 L105 214 L108 210 L114 209 L119 209 L124 209 L130 209 L131 203 L130 198 L129 193 L126 188 L121 186 L116 185 L115 185 L113 185 L112 186 L112 187 L111 188 L111 185 L108 184 L106 182 L105 180 L106 178 L108 176 L110 174 L112 172 Z" stroke = "black" stroke-width = "2" fill = "black" />	<path d = "M111 188 L113 190 L115 192 L117 193 L120 194 L118 196 L117 198 L115 200 L114 202 L111 202 L109 203 L106 203 L105 204 L106 203 L107 201 L108 200 L108 199 L107 199 L106 199 L105 197 L105 196 L106 195 L106 193 L107 192 L107 191 L108 190 L109 189 L110 188 L111 187 Z" stroke = "black" stroke-width = "2" fill = "black" />	<path d = "M60 174 L64 175 L69 176 L71 177 L70 179 L69 181 L69 183 L70 185 L71 187 L72 189 L74 191 L75 193 L76 195 L78 197 L79 198 L80 200 L81 202 L80 204 L79 206 L78 208 L77 210 L75 211 L73 211 L70 212 L68 212 L66 213 L64 214 L61 214 L59 215 L57 216 L55 217 L54 218 L56 214 L58 209 L58 208 L59 207 L60 207 L62 206 L64 205 L67 205 L69 205 L71 203 L70 201 L68 199 L67 198 L66 196 L66 193 L66 191 L66 189 L66 186 L65 186 L65 185 L63 185 L61 185 L59 183 L57 182 L58 180 L59 178 L60 176 L60 173 Z" stroke = "black" stroke-width = "2" fill = "black" />	<path d = "M74 192 L76 188 L77 186 L77 184 L77 183 L77 182 L77 181 L77 180 L77 179 L78 178 L79 177 L79 176 L80 175 L81 174 L81 173 L82 172 L83 174 L84 176 L86 177 L88 178 L89 178 L91 179 L88 182 L86 187 L84 186 L82 185 L80 185 L78 187 L77 189 L76 191 L74 193 Z" stroke = "black" stroke-width = "2" fill = "black" />	<path d = "M451 271 L453 273 L454 273 L456 274 L457 274 L459 274 L461 274 L463 274 L464 274 L466 275 L468 275 L469 275 L471 276 L472 277 L473 279 L473 281 L473 282 L473 284 L473 286 L472 288 L471 289 L470 290 L470 292 L469 293 L468 295 L467 296 L465 297 L464 298 L463 300 L462 301 L462 300 L463 298 L463 296 L464 295 L465 293 L467 292 L468 291 L469 290 L469 288 L469 286 L468 285 L467 283 L466 282 L464 281 L463 281 L461 281 L459 281 L458 281 L456 281 L454 281 L452 280 L451 280 L449 279 L448 278 L447 277 L449 274 L450 273 L451 272 Z" stroke = "black" stroke-width = "2" fill = "black" />	<path d = "M453 284 L453 288 L453 291 L453 294 L453 298 L453 301 L453 305 L453 307 L453 307 L452 309 L451 310 L450 312 L449 313 L449 306 L449 299 L449 292 L449 289 L449 287 L451 286 L452 285 L454 284 Z" stroke = "black" stroke-width = "2" fill = "black" />	<path d = "M392 278 L394 279 L396 281 L398 282 L401 282 L404 282 L406 282 L409 282 L412 282 L414 282 L416 284 L417 286 L418 289 L418 291 L418 294 L418 297 L418 299 L418 302 L418 304 L418 307 L418 310 L418 312 L418 315 L420 313 L421 311 L423 308 L424 306 L425 305 L425 300 L425 295 L425 289 L425 284 L424 279 L423 276 L422 274 L419 273 L416 273 L414 273 L411 273 L409 273 L406 273 L403 273 L401 271 L399 270 L397 268 L396 270 L394 272 L393 274 L392 276 Z" stroke = "black" stroke-width = "2" fill = "black" />	<path d = "M342 271 L344 273 L346 274 L349 275 L350 275 L348 277 L347 279 L346 282 L346 284 L346 287 L346 290 L347 292 L347 295 L347 297 L348 295 L349 293 L350 290 L352 288 L353 286 L355 284 L357 282 L356 280 L355 279 L355 278 L356 276 L357 275 L358 274 L359 272 L360 271 L361 272 L362 273 L363 274 L364 274 L365 275 L366 275 L364 280 L363 282 L361 284 L358 284 L356 285 L354 287 L353 289 L352 291 L351 294 L350 296 L349 299 L349 301 L348 304 L350 302 L353 301 L355 300 L358 299 L360 299 L363 298 L365 297 L367 296 L370 294 L371 292 L373 290 L374 288 L376 286 L377 283 L375 282 L373 280 L370 279 L372 277 L374 275 L376 273 L376 272 L379 273 L381 274 L383 275 L385 276 L382 280 L379 284 L378 285 L377 286 L376 287 L375 289 L375 290 L374 291 L374 292 L373 293 L373 295 L372 296 L372 297 L371 298 L370 299 L370 300 L369 301 L368 302 L367 303 L366 304 L365 305 L364 305 L362 306 L361 306 L360 307 L359 308 L358 308 L357 309 L355 309 L354 309 L349 311 L344 313 L342 309 L341 303 L341 298 L341 293 L343 288 L344 285 L345 284 L342 283 L340 281 L338 280 L338 279 L339 276 L340 274 L341 271 Z" stroke = "black" stroke-width = "2" fill = "black" />	<path d = "M307 270 L308 272 L310 273 L312 274 L314 274 L316 274 L319 274 L321 274 L323 274 L326 274 L328 275 L329 277 L331 278 L332 280 L332 283 L332 285 L332 287 L332 290 L332 292 L332 294 L332 296 L332 299 L332 301 L332 303 L331 305 L329 307 L328 309 L327 311 L326 313 L326 310 L326 308 L326 306 L326 303 L326 301 L326 299 L326 297 L326 294 L326 292 L325 290 L324 288 L323 285 L322 284 L319 283 L317 283 L315 283 L313 283 L310 283 L309 284 L308 285 L307 288 L307 290 L307 292 L307 295 L308 297 L308 299 L309 301 L307 303 L306 305 L305 307 L304 309 L303 310 L299 312 L294 314 L292 314 L293 312 L294 310 L295 308 L296 306 L296 305 L301 303 L302 301 L302 299 L302 297 L302 294 L302 292 L303 290 L304 288 L306 286 L307 284 L305 283 L303 282 L301 280 L300 278 L300 277 L303 273 L305 272 L306 270 Z" stroke = "black" stroke-width = "2" fill = "black" /></svg>