<svg width="500" height="500" viewbox = "0 0 500 500"  xmlns="http://www.w3.org/2000/svg">

<!--
<json>
{
    "imgurl": "",
    "imgw": 2.983971328437751,
    "imgleft": -1.4873205904167783,
    "imgtop": -1.0519856642188752,
    "imgangle": 0,
    "svgwidth": 500,
    "svgheight": 500,
    "unit": 100,
    "x0": 684,
    "y0": 399,
    "x0rel": 0,
    "y0rel": 0,
    "glyph": "0333,0331,0337,0200,0336,0330,0332,0350,0335,0304,0331,0333,0337,0200,0350,0334,0310,0337,0342,0336,0333,0334,0334,0337,0342,0336,0336,0330,0335,0335,0335,0342,0335,0335,0342,0335,0335,0342,0335,0335,0342,0335,0330,0335,0335,0335,0350,0335,0312,0337,0214,0214,0214,0342,0335,0335,0342,0300,0310,0337,0331,0350,0350,0335,0337,0337,0214,0213,0213,0213,0213,0342,0334,0334,0342,0300,0333,0331,0334,0350,0350,0335,0337,0310,0337,0213,0213,0213,0342,0330,0335,0335,0335,0335,0335,0335,0342,0300,0330,0332,0335,0350,0350,0335,0337,0310,0337,0213,0213,0213,0342,0330,0335,0335,0335,0335,0335,0335,0342,0330,0335,0335,0335,0335,0336,0336,0213,0310,0337,0211,0211,0214,0213,0213,0213,0213,0201,0335,0335,0213,0201,0335,0335,0201,0335,0335,0201,0335,0335,0201,0335,0335,0201,0335,0335,0201,0335,0335,0201,",
    "table": []
}
</json>
-->
	<path d = "M350 350 L350 150 L150 150 L150 350 L350 350 Z" stroke = "black" stroke-width = "4" fill = "none" />	<path d = "M250 391 L391 250 L250 109 L109 250 L250 391 Z" stroke = "black" stroke-width = "4" fill = "none" />    <line x1="250" y1="391" x2="250" y2="109" style="stroke:black;stroke-width:4" />
    <line x1="391" y1="250" x2="109" y2="250" style="stroke:black;stroke-width:4" />
    <line x1="250" y1="250" x2="350" y2="150" style="stroke:black;stroke-width:4" />
    <line x1="250" y1="250" x2="350" y2="350" style="stroke:black;stroke-width:4" />
    <line x1="250" y1="250" x2="150" y2="350" style="stroke:black;stroke-width:4" />
    <line x1="250" y1="250" x2="150" y2="150" style="stroke:black;stroke-width:4" />
    <line x1="250" y1="109" x2="351" y2="352" style="stroke:black;stroke-width:4" />
    <line x1="250" y1="109" x2="149" y2="352" style="stroke:black;stroke-width:4" />
    <line x1="250" y1="391" x2="351" y2="148" style="stroke:black;stroke-width:4" />
    <line x1="250" y1="391" x2="149" y2="148" style="stroke:black;stroke-width:4" />
    <line x1="350" y1="350" x2="107" y2="249" style="stroke:black;stroke-width:4" />
    <line x1="107" y1="249" x2="350" y2="148" style="stroke:black;stroke-width:4" />
    <line x1="150" y1="150" x2="393" y2="251" style="stroke:black;stroke-width:4" />
    <line x1="393" y1="251" x2="150" y2="352" style="stroke:black;stroke-width:4" />
    <line x1="150" y1="352" x2="108" y2="249" style="stroke:black;stroke-width:4" />
    <line x1="108" y1="249" x2="149" y2="149" style="stroke:black;stroke-width:4" />
    <line x1="149" y1="149" x2="249" y2="108" style="stroke:black;stroke-width:4" />
    <line x1="249" y1="108" x2="349" y2="149" style="stroke:black;stroke-width:4" />
    <line x1="349" y1="149" x2="391" y2="249" style="stroke:black;stroke-width:4" />
    <line x1="391" y1="249" x2="349" y2="349" style="stroke:black;stroke-width:4" />
    <line x1="349" y1="349" x2="249" y2="391" style="stroke:black;stroke-width:4" />
    <line x1="249" y1="391" x2="149" y2="349" style="stroke:black;stroke-width:4" />
</svg>