<svg width="400" height="400" viewbox = "0 0 400 400"  xmlns="http://www.w3.org/2000/svg">

<!--
<topfunctions>









function YofX(){
    X = plotparams.g*(x - plotparams.x0) - funcparams.X0;
    if(X == 0){
        Y = funcparams.G*(funcparams.Tn + funcparams.T);
    }   
    else{
        Y = funcparams.G*(funcparams.Tn +  X/Math.tanh(X/funcparams.T));
    }
    y = plotparams.y0 - plotparams.G*(Y - funcparams.Y0);
}



function plotfunction(){
/*

    currentStroke = "blue";
    currentLineWidth = 4;
    ctx.strokeStyle = currentStroke;
    ctx.lineWidth = currentLineWidth;
    ctx.beginPath();	
    x = 0;
    y = 0;
    t= 0;
    XYofT();
    currentSVG += "	<path d = \"M";
    currentSVG += Math.round(x).toString() + " ";
    currentSVG += Math.round(y).toString() + " ";
    for(t = 1;t < plotparams.duration;t++){
        ctx.moveTo(x,y);
        XYofT();
        ctx.lineTo(x,y);
        currentSVG += "L" + x + " " + y + " ";
    }
    ctx.stroke();
    currentSVG += "\""+ " stroke = \"" + currentStroke + "\" stroke-width = \"" + currentLineWidth.toString() + "\" fill = \"" + "none" + "\" "+"/>";


    /*plot one function:*/
    currentStroke = "blue";
    currentLineWidth = 4;
    ctx.strokeStyle = currentStroke;
    ctx.lineWidth = currentLineWidth;
    ctx.beginPath();	
    x = 0;
    YofX();
    currentSVG += "	<path d = \"M";
    currentSVG += Math.round(x).toString() + " ";
    currentSVG += Math.round(y).toString() + " ";
    for(x = 1;x < plotparams.plotwidth;x++){
        ctx.moveTo(x-1,y);
        YofX();
        ctx.lineTo(x,y);
        currentSVG += "L" + x + " " + y + " ";
    }
    ctx.stroke();
    currentSVG += "\""+ " stroke = \"" + currentStroke + "\" stroke-width = \"" + currentLineWidth.toString() + "\" fill = \"" + "none" + "\" "+"/>";
    /*finish plot one function*/
    

}






























</topfunctions>
-->

<!--
<imgurl>

</imgurl>
-->

<!--
<currentjson>
{
    "constants": {},
    "imgurl": "",
    "plotparams": {
        "G": 21.935878491400615,
        "g": 0.06830134553650705,
        "duration": 545.4545454545454,
        "plotwidth": 400,
        "plotheight": 400,
        "x0": 200,
        "y0": 400
    },
    "funcparams": {
        "T": 0.5131581182307065,
        "Tn": 5.644739300537772,
        "G": 1,
        "X0": 0,
        "Y0": 0
    }
}
</currentjson>
-->

<!--
<equation>





<h2>X  times Hyperbolic Cotangent</h2>
<p style="color:blue">

</p><p class="bigeq">
$$
Y = X\coth{X}$$
</p>
<p></p>

$$
X = g(x - x_0) - X_0
$$
$$
Y = f(X)
$$
    
$$
y = y_0 - G(Y - Y_0)
$$


<p>
    X and Y, and $X_0$ and $Y_0$ in physical units of the System. x and y and x0 and y0 in pixels.  G is in pixels per Y unit and g is in X units per pixel. 
</p>






</equation>
-->
	<path d = "M0 -23 L1 -21.974068693339518 L2 -20.47581867685153 L3 -18.977568660363602 L4 -17.47931864387556 L5 -15.981068627387629 L6 -14.482818610899585 L7 -12.984568594411598 L8 -11.486318577923669 L9 -9.988068561435625 L10 -8.489818544947696 L11 -6.991568528459652 L12 -5.493318511971665 L13 -3.9950684954837357 L14 -2.496818478995749 L15 -0.9985684625077624 L16 0.499681553980281 L17 1.9979315704682676 L18 3.4961815869561974 L19 4.994431603444184 L20 6.4926816199322275 L21 7.990931636420214 L22 9.4891816529082 L23 10.98743166939613 L24 12.485681685884117 L25 13.98393170237216 L26 15.482181718860033 L27 16.980431735348134 L28 18.478681751836064 L29 19.97693176832405 L30 21.475181784812094 L31 22.973431801300023 L32 24.471681817788067 L33 25.969931834275997 L34 27.468181850763983 L35 28.966431867252027 L36 30.464681883739956 L37 31.962931900228 L38 33.46118191671593 L39 34.959431933203916 L40 36.45768194969196 L41 37.95593196617989 L42 39.45418198266793 L43 40.95243199915586 L44 42.45068201564385 L45 43.94893203213189 L46 45.44718204861982 L47 46.945432065107866 L48 48.443682081595796 L49 49.94193209808384 L50 51.44018211457177 L51 52.938432131059756 L52 54.43668214754774 L53 55.93493216403573 L54 57.43318218052377 L55 58.9314321970117 L56 60.42968221349969 L57 61.92793222998762 L58 63.42618224647566 L59 64.92443226296359 L60 66.42268227945164 L61 67.92093229593962 L62 69.41918231242755 L63 70.91743232891554 L64 72.41568234540352 L65 73.91393236189151 L66 75.41218237837944 L67 76.91043239486737 L68 78.4086824113553 L69 79.90693242784323 L70 81.40518244433116 L71 82.90343246081903 L72 84.40168247730685 L73 85.89993249379472 L74 87.39818251028242 L75 88.89643252677013 L76 90.39468254325772 L77 91.89293255974519 L78 93.3911825762325 L79 94.88943259271963 L80 96.38768260920659 L81 97.8859326256931 L82 99.38418264217927 L83 100.88243265866492 L84 102.38068267514979 L85 103.87893269163385 L86 105.37718270811666 L87 106.87543272459806 L88 108.3736827410774 L89 109.87193275755436 L90 111.37018277402802 L91 112.86843279049748 L92 114.36668280696148 L93 115.86493282341848 L94 117.3631828398664 L95 118.86143285630271 L96 120.35968287272385 L97 121.85793288912544 L98 123.35618290550184 L99 124.85443292184573 L100 126.3526829381475 L101 127.85093295439509 L102 129.3491829705726 L103 130.84743298665967 L104 132.34568300263004 L105 133.84393301844983 L106 135.3421830340754 L107 136.8404330494502 L108 138.33868306450182 L109 139.83693307913637 L110 141.3351830932333 L111 142.8334331066369 L112 144.33168311914673 L113 145.82993313050446 L114 147.32818314037752 L115 148.82643314833737 L116 150.32468315383238 L117 151.82293315615232 L118 153.32118315438294 L119 154.81943314734784 L120 156.31768313353325 L121 157.8159331109919 L122 159.3141830772194 L123 160.81243302899543 L124 162.31068296218015 L125 163.80893287145253 L126 165.3071827499754 L127 166.80543258896537 L128 168.30368237714137 L129 169.8019321000187 L130 171.30018173900385 L131 172.79843127023565 L132 174.2966806631018 L133 175.79492987834004 L134 177.2931788656097 L135 178.79142756038596 L136 180.28967587999082 L137 181.78792371852177 L138 183.28617094037585 L139 184.7844173719843 L140 186.28266279126754 L141 187.7809069141898 L142 189.2791493776251 L143 190.7773897175338 L144 192.27562734118573 L145 193.77386149182558 L146 195.27209120375605 L147 196.77031524528005 L148 198.26853204627423 L149 199.7667396063263 L150 201.26493537831792 L151 202.76311612102006 L152 204.26127771262685 L153 205.75941491511253 L154 207.25752107675794 L155 208.7555877570479 L156 210.25360425425416 L157 211.75155701122992 L158 213.24942886905927 L159 214.74719813101268 L160 216.24483739049353 L161 217.74231206603892 L162 219.23957857362814 L163 220.7365820512112 L164 222.23325353212215 L165 223.72950644253444 L166 225.22523227301434 L167 226.7202952453044 L168 228.2145257626381 L169 229.70771239533633 L170 231.1995921137581 L171 232.6898384390455 L172 234.1780471405499 L173 235.66371907050507 L174 237.14623969613177 L175 238.62485487354184 L176 240.09864241562232 L177 241.56647904941212 L178 243.0270024523847 L179 244.47856821976663 L180 245.9192018675249 L181 247.3465463403898 L182 248.75780599272548 L183 250.14968865870335 L184 251.51834823263462 L185 252.85933112706456 L186 254.16753102320234 L187 255.43715739421071 L188 256.6617242376565 L189 257.8340661182882 L190 258.9463887701667 L191 259.99036088783134 L192 260.95725211560426 L193 261.838119463843 L194 262.62404043019654 L195 263.30638618923354 L196 263.87712280264293 L197 264.32912321359606 L198 264.65646871051274 L199 264.8547164746575 L200 264.92111045938515 L201 264.8547164746575 L202 264.65646871051274 L203 264.32912321359606 L204 263.87712280264293 L205 263.30638618923354 L206 262.62404043019654 L207 261.838119463843 L208 260.95725211560426 L209 259.99036088783134 L210 258.9463887701667 L211 257.8340661182882 L212 256.6617242376565 L213 255.43715739421071 L214 254.16753102320234 L215 252.85933112706456 L216 251.51834823263462 L217 250.14968865870335 L218 248.75780599272548 L219 247.3465463403898 L220 245.9192018675249 L221 244.47856821976663 L222 243.0270024523847 L223 241.56647904941212 L224 240.09864241562232 L225 238.62485487354184 L226 237.14623969613177 L227 235.66371907050507 L228 234.1780471405499 L229 232.6898384390455 L230 231.1995921137581 L231 229.70771239533633 L232 228.2145257626381 L233 226.7202952453044 L234 225.22523227301434 L235 223.72950644253444 L236 222.23325353212215 L237 220.7365820512112 L238 219.23957857362814 L239 217.74231206603892 L240 216.24483739049353 L241 214.74719813101268 L242 213.24942886905927 L243 211.75155701122992 L244 210.25360425425416 L245 208.7555877570479 L246 207.25752107675794 L247 205.75941491511253 L248 204.26127771262685 L249 202.76311612102006 L250 201.26493537831792 L251 199.7667396063263 L252 198.26853204627423 L253 196.77031524528005 L254 195.27209120375605 L255 193.77386149182558 L256 192.27562734118573 L257 190.7773897175338 L258 189.2791493776251 L259 187.7809069141898 L260 186.28266279126754 L261 184.7844173719843 L262 183.28617094037585 L263 181.78792371852177 L264 180.28967587999082 L265 178.79142756038596 L266 177.2931788656097 L267 175.79492987834004 L268 174.2966806631018 L269 172.79843127023565 L270 171.30018173900385 L271 169.8019321000187 L272 168.30368237714137 L273 166.80543258896537 L274 165.3071827499754 L275 163.80893287145253 L276 162.31068296218015 L277 160.81243302899543 L278 159.3141830772194 L279 157.8159331109919 L280 156.31768313353325 L281 154.81943314734784 L282 153.32118315438294 L283 151.82293315615232 L284 150.32468315383238 L285 148.82643314833737 L286 147.32818314037752 L287 145.82993313050446 L288 144.33168311914673 L289 142.8334331066369 L290 141.3351830932333 L291 139.83693307913637 L292 138.33868306450182 L293 136.8404330494502 L294 135.3421830340754 L295 133.84393301844983 L296 132.34568300263004 L297 130.84743298665967 L298 129.3491829705726 L299 127.85093295439509 L300 126.3526829381475 L301 124.85443292184573 L302 123.35618290550184 L303 121.85793288912544 L304 120.35968287272385 L305 118.86143285630271 L306 117.3631828398664 L307 115.86493282341848 L308 114.36668280696148 L309 112.86843279049748 L310 111.37018277402802 L311 109.87193275755436 L312 108.3736827410774 L313 106.87543272459806 L314 105.37718270811666 L315 103.87893269163385 L316 102.38068267514979 L317 100.88243265866492 L318 99.38418264217927 L319 97.8859326256931 L320 96.38768260920659 L321 94.88943259271963 L322 93.3911825762325 L323 91.89293255974519 L324 90.39468254325772 L325 88.89643252677013 L326 87.39818251028242 L327 85.89993249379472 L328 84.40168247730685 L329 82.90343246081903 L330 81.40518244433116 L331 79.90693242784323 L332 78.4086824113553 L333 76.91043239486737 L334 75.41218237837944 L335 73.91393236189151 L336 72.41568234540352 L337 70.91743232891554 L338 69.41918231242755 L339 67.92093229593962 L340 66.42268227945164 L341 64.92443226296359 L342 63.42618224647566 L343 61.92793222998762 L344 60.42968221349969 L345 58.9314321970117 L346 57.43318218052377 L347 55.93493216403573 L348 54.43668214754774 L349 52.938432131059756 L350 51.44018211457177 L351 49.94193209808384 L352 48.443682081595796 L353 46.945432065107866 L354 45.44718204861982 L355 43.94893203213189 L356 42.45068201564385 L357 40.95243199915586 L358 39.45418198266793 L359 37.95593196617989 L360 36.45768194969196 L361 34.959431933203916 L362 33.46118191671593 L363 31.962931900228 L364 30.464681883739956 L365 28.966431867252027 L366 27.468181850763983 L367 25.969931834275997 L368 24.471681817788067 L369 22.973431801300023 L370 21.475181784812094 L371 19.97693176832405 L372 18.478681751836064 L373 16.980431735348134 L374 15.482181718860033 L375 13.98393170237216 L376 12.485681685884117 L377 10.98743166939613 L378 9.4891816529082 L379 7.990931636420214 L380 6.4926816199322275 L381 4.994431603444184 L382 3.4961815869561974 L383 1.9979315704682676 L384 0.499681553980281 L385 -0.9985684625077624 L386 -2.496818478995749 L387 -3.9950684954837357 L388 -5.493318511971665 L389 -6.991568528459652 L390 -8.489818544947696 L391 -9.988068561435625 L392 -11.486318577923669 L393 -12.984568594411598 L394 -14.482818610899585 L395 -15.981068627387629 L396 -17.47931864387556 L397 -18.977568660363602 L398 -20.47581867685153 L399 -21.974068693339518 " stroke = "blue" stroke-width = "4" fill = "none" /></svg>