<svg width="400" height="400" viewbox = "0 0 400 400"  xmlns="http://www.w3.org/2000/svg">

<!--
<topfunctions>









function YofX(){
    X = plotparams.g*(x - plotparams.x0) - funcparams.X0;
    if(X == 0){
        Y = funcparams.G*(funcparams.Tn + funcparams.T);
    }   
    else{
        Y = funcparams.G*(funcparams.Tn +  X/Math.tanh(X/funcparams.T));
    }
    y = plotparams.y0 - plotparams.G*(Y - funcparams.Y0);
}



function plotfunction(){
/*

    currentStroke = "blue";
    currentLineWidth = 4;
    ctx.strokeStyle = currentStroke;
    ctx.lineWidth = currentLineWidth;
    ctx.beginPath();	
    x = 0;
    y = 0;
    t= 0;
    XYofT();
    currentSVG += "	<path d = \"M";
    currentSVG += Math.round(x).toString() + " ";
    currentSVG += Math.round(y).toString() + " ";
    for(t = 1;t < plotparams.duration;t++){
        ctx.moveTo(x,y);
        XYofT();
        ctx.lineTo(x,y);
        currentSVG += "L" + x + " " + y + " ";
    }
    ctx.stroke();
    currentSVG += "\""+ " stroke = \"" + currentStroke + "\" stroke-width = \"" + currentLineWidth.toString() + "\" fill = \"" + "none" + "\" "+"/>";


    /*plot one function:*/
    currentStroke = "blue";
    currentLineWidth = 4;
    ctx.strokeStyle = currentStroke;
    ctx.lineWidth = currentLineWidth;
    ctx.beginPath();	
    x = 0;
    YofX();
    currentSVG += "	<path d = \"M";
    currentSVG += Math.round(x).toString() + " ";
    currentSVG += Math.round(y).toString() + " ";
    for(x = 1;x < plotparams.plotwidth;x++){
        ctx.moveTo(x-1,y);
        YofX();
        ctx.lineTo(x,y);
        currentSVG += "L" + x + " " + y + " ";
    }
    ctx.stroke();
    currentSVG += "\""+ " stroke = \"" + currentStroke + "\" stroke-width = \"" + currentLineWidth.toString() + "\" fill = \"" + "none" + "\" "+"/>";
    /*finish plot one function*/
    

}






























</topfunctions>
-->

<!--
<imgurl>

</imgurl>
-->

<!--
<currentjson>
{
    "constants": {},
    "imgurl": "",
    "plotparams": {
        "G": 0.36414099115134896,
        "g": 1.919434249577509,
        "duration": 545.4545454545454,
        "plotwidth": 400,
        "plotheight": 400,
        "x0": 200,
        "y0": 400
    },
    "funcparams": {
        "T": 276.80149049219943,
        "Tn": 340.03948586157844,
        "G": 1,
        "X0": 0,
        "Y0": 0
    }
}
</currentjson>
-->

<!--
<equation>





<h2>X  times Hyperbolic Cotangent</h2>
<p style="color:blue">

</p><p class="bigeq">
$$
Y = X\coth{X}$$
</p>
<p></p>

$$
X = g(x - x_0) - X_0
$$
$$
Y = f(X)
$$
    
$$
y = y_0 - G(Y - Y_0)
$$


<p>
    X and Y, and $X_0$ and $Y_0$ in physical units of the System. x and y and x0 and y0 in pixels.  G is in pixels per Y unit and g is in X units per pixel. 
</p>






</equation>
-->
	<path d = "M0 118 L1 118.28884383686767 L2 118.803127455928 L3 119.31581589469823 L4 119.82689845757466 L5 120.33636441938728 L6 120.84420302591644 L7 121.35040349441857 L8 121.85495501415966 L9 122.35784674695913 L10 122.85906782774117 L11 123.35860736509596 L12 123.85645444184871 L13 124.35259811563884 L14 124.84702741950667 L15 125.33973136249 L16 125.830698930229 L17 126.31991908558018 L18 126.80738076923905 L19 127.29307290037195 L20 127.77698437725627 L21 128.25910407792958 L22 128.73942086084799 L23 129.21792356555267 L24 129.6946010133458 L25 130.16944200797445 L26 130.64243533632379 L27 131.11356976911924 L28 131.5828340616361 L29 132.05021695441928 L30 132.5157071740104 L31 132.9792934336844 L32 133.4409644341938 L33 133.90070886452241 L34 134.35851540264645 L35 134.81437271630477 L36 135.2682694637773 L37 135.72019429467144 L38 136.17013585071714 L39 136.61808276656978 L40 137.0640236706215 L41 137.50794718582017 L42 137.94984193049686 L43 138.3896965192008 L44 138.8274995635424 L45 139.26323967304415 L46 139.69690545599866 L47 140.1284855203353 L48 140.55796847449352 L49 140.98534292830396 L50 141.410597493877 L51 141.83372078649853 L52 142.25470142553274 L53 142.67352803533248 L54 143.09018924615594 L55 143.50467369509084 L56 143.91697002698515 L57 144.32706689538455 L58 144.73495296347636 L59 145.14061690504008 L60 145.5440474054043 L61 145.9452331624098 L62 146.34416288737864 L63 146.74082530608953 L64 147.13520915975886 L65 147.52730320602745 L66 147.91709621995327 L67 148.304576995009 L68 148.6897343440857 L69 149.072557100501 L70 149.4530341190129 L71 149.83115427683785 L72 150.2069064746746 L73 150.5802796377316 L74 150.95126271675943 L75 151.31984468908763 L76 151.68601455966564 L77 152.04976136210718 L78 152.41107415973934 L79 152.76994204665493 L80 153.12635414876803 L81 153.48029962487362 L82 153.83176766770964 L83 154.18074750502254 L84 154.52722840063532 L85 154.87119965551875 L86 155.212650608864 L87 155.5515706391589 L88 155.88794916526524 L89 156.2217756474983 L90 156.55303958870832 L91 156.88173053536335 L92 157.20783807863305 L93 157.53135185547416 L94 157.85226154971696 L95 158.17055689315183 L96 158.48622766661677 L97 158.79926370108547 L98 159.10965487875504 L99 159.4173911341339 L100 159.72246245512943 L101 160.024858884135 L102 160.32457051911624 L103 160.62158751469696 L104 160.91590008324266 L105 161.20749849594452 L106 161.4963730838999 L107 161.78251423919244 L108 162.06591241596993 L109 162.34655813151923 L110 162.62444196733946 L111 162.89955457021236 L112 163.17188665326984 L113 163.44142899705813 L114 163.70817245059882 L115 163.9721079324465 L116 164.23322643174214 L117 164.49151900926296 L118 164.74697679846798 L119 164.99959100653848 L120 165.24935291541513 L121 165.49625388282863 L122 165.7402853433262 L123 165.9814388092927 L124 166.21970587196554 L125 166.4550782024445 L126 166.68754755269478 L127 166.91710575654437 L128 167.14374473067488 L129 167.36745647560497 L130 167.5882330766677 L131 167.80606670498014 L132 168.02094961840595 L133 168.2328741625098 L134 168.4418327715047 L135 168.64781796919047 L136 168.85082236988444 L137 169.05083867934366 L138 169.24785969567776 L139 169.44187831025388 L140 169.63288750859127 L141 169.82088037124757 L142 170.00585007469493 L143 170.18778989218612 L144 170.36669319461132 L145 170.54255345134408 L146 170.71536423107722 L147 170.88511920264762 L148 171.0518121358509 L149 171.21543690224425 L150 171.37598747593884 L151 171.53345793437992 L152 171.68784245911596 L153 171.8391353365559 L154 171.98733095871378 L155 172.1324238239421 L156 172.274408537652 L157 172.4132798130212 L158 172.5490324716894 L159 172.68166144444018 L160 172.81116177187036 L161 172.93752860504583 L162 173.060757206144 L163 173.1808429490825 L164 173.2977813201346 L165 173.41156791852973 L166 173.5221984570411 L167 173.62966876255837 L168 173.73397477664588 L169 173.83511255608684 L170 173.9330782734123 L171 174.02786821741594 L172 174.1194787936533 L173 174.20790652492613 L174 174.29314805175196 L175 174.37520013281767 L176 174.45405964541814 L177 174.52972358587903 L178 174.60218906996406 L179 174.6714533332665 L180 174.73751373158458 L181 174.80036774128138 L182 174.86001295962785 L183 174.9164471051307 L184 174.96966801784313 L185 175.01967365965967 L186 175.0664621145943 L187 175.1100315890428 L188 175.15038041202743 L189 175.18750703542597 L190 175.22141003418352 L191 175.25208810650764 L192 175.2795400740469 L193 175.30376488205243 L194 175.3247615995224 L195 175.34252941933008 L196 175.3570676583343 L197 175.36837575747342 L198 175.37645328184217 L199 175.38129992075108 L200 175.3829154877695 L201 175.38129992075108 L202 175.37645328184217 L203 175.36837575747342 L204 175.3570676583343 L205 175.34252941933008 L206 175.3247615995224 L207 175.30376488205243 L208 175.2795400740469 L209 175.25208810650764 L210 175.22141003418352 L211 175.18750703542597 L212 175.15038041202743 L213 175.1100315890428 L214 175.0664621145943 L215 175.01967365965967 L216 174.96966801784313 L217 174.9164471051307 L218 174.86001295962785 L219 174.80036774128138 L220 174.73751373158458 L221 174.6714533332665 L222 174.60218906996406 L223 174.52972358587903 L224 174.45405964541814 L225 174.37520013281767 L226 174.29314805175196 L227 174.20790652492613 L228 174.1194787936533 L229 174.02786821741594 L230 173.9330782734123 L231 173.83511255608684 L232 173.73397477664588 L233 173.62966876255837 L234 173.5221984570411 L235 173.41156791852973 L236 173.2977813201346 L237 173.1808429490825 L238 173.060757206144 L239 172.93752860504583 L240 172.81116177187036 L241 172.68166144444018 L242 172.5490324716894 L243 172.4132798130212 L244 172.274408537652 L245 172.1324238239421 L246 171.98733095871378 L247 171.8391353365559 L248 171.68784245911596 L249 171.53345793437992 L250 171.37598747593884 L251 171.21543690224425 L252 171.0518121358509 L253 170.88511920264762 L254 170.71536423107722 L255 170.54255345134408 L256 170.36669319461132 L257 170.18778989218612 L258 170.00585007469493 L259 169.82088037124757 L260 169.63288750859127 L261 169.44187831025388 L262 169.24785969567776 L263 169.05083867934366 L264 168.85082236988444 L265 168.64781796919047 L266 168.4418327715047 L267 168.2328741625098 L268 168.02094961840595 L269 167.80606670498014 L270 167.5882330766677 L271 167.36745647560497 L272 167.14374473067488 L273 166.91710575654437 L274 166.68754755269478 L275 166.4550782024445 L276 166.21970587196554 L277 165.9814388092927 L278 165.7402853433262 L279 165.49625388282863 L280 165.24935291541513 L281 164.99959100653848 L282 164.74697679846798 L283 164.49151900926296 L284 164.23322643174214 L285 163.9721079324465 L286 163.70817245059882 L287 163.44142899705813 L288 163.17188665326984 L289 162.89955457021236 L290 162.62444196733946 L291 162.34655813151923 L292 162.06591241596993 L293 161.78251423919244 L294 161.4963730838999 L295 161.20749849594452 L296 160.91590008324266 L297 160.62158751469696 L298 160.32457051911624 L299 160.024858884135 L300 159.72246245512943 L301 159.4173911341339 L302 159.10965487875504 L303 158.79926370108547 L304 158.48622766661677 L305 158.17055689315183 L306 157.85226154971696 L307 157.53135185547416 L308 157.20783807863305 L309 156.88173053536335 L310 156.55303958870832 L311 156.2217756474983 L312 155.88794916526524 L313 155.5515706391589 L314 155.212650608864 L315 154.87119965551875 L316 154.52722840063532 L317 154.18074750502254 L318 153.83176766770964 L319 153.48029962487362 L320 153.12635414876803 L321 152.76994204665493 L322 152.41107415973934 L323 152.04976136210718 L324 151.68601455966564 L325 151.31984468908763 L326 150.95126271675943 L327 150.5802796377316 L328 150.2069064746746 L329 149.83115427683785 L330 149.4530341190129 L331 149.072557100501 L332 148.6897343440857 L333 148.304576995009 L334 147.91709621995327 L335 147.52730320602745 L336 147.13520915975886 L337 146.74082530608953 L338 146.34416288737864 L339 145.9452331624098 L340 145.5440474054043 L341 145.14061690504008 L342 144.73495296347636 L343 144.32706689538455 L344 143.91697002698515 L345 143.50467369509084 L346 143.09018924615594 L347 142.67352803533248 L348 142.25470142553274 L349 141.83372078649853 L350 141.410597493877 L351 140.98534292830396 L352 140.55796847449352 L353 140.1284855203353 L354 139.69690545599866 L355 139.26323967304415 L356 138.8274995635424 L357 138.3896965192008 L358 137.94984193049686 L359 137.50794718582017 L360 137.0640236706215 L361 136.61808276656978 L362 136.17013585071714 L363 135.72019429467144 L364 135.2682694637773 L365 134.81437271630477 L366 134.35851540264645 L367 133.90070886452241 L368 133.4409644341938 L369 132.9792934336844 L370 132.5157071740104 L371 132.05021695441928 L372 131.5828340616361 L373 131.11356976911924 L374 130.64243533632379 L375 130.16944200797445 L376 129.6946010133458 L377 129.21792356555267 L378 128.73942086084799 L379 128.25910407792958 L380 127.77698437725627 L381 127.29307290037195 L382 126.80738076923905 L383 126.31991908558018 L384 125.830698930229 L385 125.33973136249 L386 124.84702741950667 L387 124.35259811563884 L388 123.85645444184871 L389 123.35860736509596 L390 122.85906782774117 L391 122.35784674695913 L392 121.85495501415966 L393 121.35040349441857 L394 120.84420302591644 L395 120.33636441938728 L396 119.82689845757466 L397 119.31581589469823 L398 118.803127455928 L399 118.28884383686767 " stroke = "blue" stroke-width = "4" fill = "none" /></svg>