<svg width="400" height="400" viewbox = "0 0 400 400"  xmlns="http://www.w3.org/2000/svg">

<!--
<topfunctions>




function YofX(){
    X = plotparams.g*(x - plotparams.x0) - funcparams.X0;
    Y = funcparams.a*X*X*X + funcparams.b*X*X + funcparams.c*X + funcparams.d;
    y = plotparams.y0 - plotparams.G*(Y - funcparams.Y0);
}


function YofX2(){
    X = plotparams.g*(x - plotparams.x0) - funcparams.X0;
    Y = funcparams.b*X*X + funcparams.c*X + funcparams.d;
    y = plotparams.y0 - plotparams.G*(Y - funcparams.Y0);
 }

function XYofT(){
    T = plotparams.g*t;
    X = Math.exp(-T/funcparams.tau)*Math.cos(2*Math.PI*T/funcparams.T);
    Y = Math.exp(-T/funcparams.tau)*Math.sin(2*Math.PI*T/funcparams.T);
    y = plotparams.y0 - plotparams.G*(Y - funcparams.Y0);
    x = plotparams.x0 - plotparams.G*(X - funcparams.X0);    
}


function plotfunction(){


    currentStroke = "blue";
    currentLineWidth = 4;
    ctx.strokeStyle = currentStroke;
    ctx.lineWidth = currentLineWidth;
    ctx.beginPath();	
    x = 0;
    y = 0;
    t= 0;
    XYofT();
    currentSVG += "	<path d = \"M";
    currentSVG += Math.round(x).toString() + " ";
    currentSVG += Math.round(y).toString() + " ";
    for(t = 1;t < plotparams.duration;t++){
        ctx.moveTo(x,y);
        XYofT();
        ctx.lineTo(x,y);
        currentSVG += "L" + x + " " + y + " ";
    }
    ctx.stroke();
    currentSVG += "\""+ " stroke = \"" + currentStroke + "\" stroke-width = \"" + currentLineWidth.toString() + "\" fill = \"" + "none" + "\" "+"/>";


    /*plot one function:
    currentStroke = "blue";
    currentLineWidth = 4;
    ctx.strokeStyle = currentStroke;
    ctx.lineWidth = currentLineWidth;
    ctx.beginPath();	
    x = 0;
    YofX();
    currentSVG += "	<path d = \"M";
    currentSVG += Math.round(x).toString() + " ";
    currentSVG += Math.round(y).toString() + " ";
    for(x = 1;x < plotparams.plotwidth;x++){
        ctx.moveTo(x-1,y);
        YofX();
        ctx.lineTo(x,y);
        currentSVG += "L" + x + " " + y + " ";
    }
    ctx.stroke();
    currentSVG += "\""+ " stroke = \"" + currentStroke + "\" stroke-width = \"" + currentLineWidth.toString() + "\" fill = \"" + "none" + "\" "+"/>";
    /*finish plot one function*/
    

}






















</topfunctions>
-->

<!--
<imgurl>

</imgurl>
-->

<!--
<currentjson>
{
    "constants": {},
    "imgurl": "",
    "plotparams": {
        "G": 1012.7179641366419,
        "g": 0.017985878990921366,
        "duration": 545.4545454545454,
        "plotwidth": 400,
        "plotheight": 400,
        "x0": 162.28603373015747,
        "y0": 200
    },
    "funcparams": {
        "tau": 0.7076258398990122,
        "T": 1.4655609018152753,
        "X0": 0,
        "Y0": 0
    }
}
</currentjson>
-->

<!--
<equation>

<h2>Log Spiral</h2>
<p style="color:blue">

</p><p class="bigeq">
$$
(X,Y) = (e^{-t/\tau}\cos{\frac{2\pi t}{T}},e^{-t/\tau}\sin{\frac{2\pi t}{T}})
$$
</p>
<p></p>

$$
X = g(x - x_0) - X_0
$$
$$
Y = f(X)
$$
    
$$
y = y_0 - G(Y - Y_0)
$$


<p>
    X and Y, and $X_0$ and $Y_0$ in physical units of the System. x and y and x0 and y0 in pixels.  G is in pixels per Y unit and g is in X units per pixel. 
</p>


</equation>
-->
	<path d = "M-850 200 L-822.0821007986696 123.94510685680903 L-788.8141852986229 52.14834546955703 L-751.0856445904984 -15.140138320322109 L-709.3599191899599 -77.71155640070856 L-664.1031560896976 -135.39776971258277 L-615.7810802600194 -188.07035358416402 L-564.8560239212426 -235.63945428029666 L-511.78412485094316 -278.0524544603883 L-457.0127033450559 -315.2924655887592 L-400.9778258274639 -347.3766655585272 L-344.1020615075007 -374.3544998793486 L-286.7924369275447 -396.30576474624047 L-229.4385917317156 -413.3385901575789 L-172.4111375290103 -425.58734099194317 L-116.06022032676512 -433.2104535927929 L-60.714285679084554 -436.3882249544447 L-6.679044435104743 -435.3205710600728 L45.763364211786126 -430.2247703002804 L96.35501677652803 -421.33320720715926 L144.86266206041654 -408.89113098161124 L191.077996613679 -393.1544424791133 L234.81776628992708 -374.3875224589942 L275.92370185971924 -352.8611130025606 L314.2622973215198 -328.8502630738002 L349.72444013064376 -302.6323482404553 L382.22490306099616 -274.48517360036396 L411.7017078217257 -244.68516797518083 L438.115370873022 -213.50567644773542 L461.4480421243343 -181.21535733683345 L481.70254735687115 -148.07668873040302 L498.9013452933091 -114.34458874032089 L513.0854102445361 -80.2651527053859 L524.3130511995886 -46.07450965776917 L532.6586780946405 -11.997799487400698 L538.2115258040924 21.751728607659146 L541.0743461458295 54.97349660505736 L541.3620778880677 87.48025806316227 L539.2005043915001 119.09864015663709 L534.7249081223977 149.66956972760016 L528.0787308346606 179.04858636422864 L519.4122477463404 207.1060460950659 L508.8812635336078 233.72721981211004 L496.64583743726143 258.8122910080969 L482.86904422828525 282.2762578329128 L467.7157772142368 304.0487448406093 L451.3515988917992 324.07373011238167 L433.9416442669451 342.30919370267804 L415.64958127696127 358.72669356622725 L396.63663216200223 373.3108752844107 L377.0606590516189 386.05892202147896 L357.07531645736464 396.9799512063405 L336.8292727994211 406.09436445590734 L316.46550254626993 413.4331572333805 L296.1206500145745 419.03719467167883 L275.9244653642253 422.956459890835 L255.9993128332248 425.2492810012037 L236.45975079083695 425.98154281434046 L217.41218274698235 425.2258890831787 L198.95457804279505 423.06092086542253 L181.1762605628436 419.5703963517229 L164.15776345482496 414.8424372260417 L147.9707475183686 408.9687463324922 L132.67798063149286 402.0438411136779 L118.333375321604 394.1643069629424 L104.98208135781789 385.4280742997023 L92.66063004275281 375.93372283585745 L81.39712671448306 365.779816154713 L71.21148783260385 355.06426937442166 L62.11571891569051 343.8837523180455 L54.11422952002523 332.3331302641984 L47.20418140037307 320.5049440080392 L41.37586597171527 308.48893062413174 L36.61310719499576 296.3715859922693 L32.89368603877506 284.23576982649496 L30.18978272081921 272.1603536378385 L28.468433007583798 260.2199117641595 L27.69199494373032 248.4844553172337 L27.818622496618758 237.0192086289496 L28.80274273053223 225.8844275262281 L30.595533270490364 215.13525852879374 L33.145396974250076 204.82163784596221 L36.39843090174969 194.98822884865314 L40.298886852151426 185.67439651130124 L44.78962092810589 176.9142171554636 L49.812529783260175 168.73652168284212 L55.30897141074705 161.16497036014044 L61.22016853587701 154.21815711152956 L67.48759288399378 147.9097411862707 L74.05332880299979 142.24860399889252 L80.86041492804239 137.23902888678327 L87.8531627819493 132.88090149462718 L94.97745140799962 129.169928476139 L102.18099733035115 126.09787220035952 L109.41359933085621 123.65279916159786 L116.6273577181137 121.8193398181173 L123.77686794451674 120.57895762400506 L130.81938859899077 119.91022507041282 L137.71498396633817 119.78910461557018 L144.4266414980247 120.18923245667253 L150.92036468330494 121.08220317994395 L157.1652419433761 122.43785341686248 L163.13349229440254 124.22454273370371 L168.80048863751708 126.40943008720005 L174.14475963508656 128.95874429022814 L179.1479712225434 131.83804704703948 L183.79488888388252 135.0124872366767 L188.07332188658216 138.44704524492738 L191.9740507283285 142.1067662685522 L195.49073909368514 145.95698163970462 L198.61983165401665 149.96351734260358 L201.36043906882577 154.09288901782824 L203.7142115615611 158.31248287132604 L205.68520244829364 162.5907220246612 L207.27972299387812 166.89721795952048 L208.50618995779382 171.20290682244072 L209.37496717130338 175.48017046457574 L209.89820245940996 179.70294219557871 L210.08966118589643 183.84679732990716 L209.9645576580653 187.88902869766082 L209.53938558025416 191.8087073801187 L208.83174869237726 195.5867290121531 L207.86019267223793 199.20584606945565 L206.64403931877132 202.65068662782193 L205.20322396831122 205.90776014449114 L203.55813702801677 208.96545086764183 L201.72947044032742 211.81399952957642 L199.73806982029905 214.44547402189846 L197.60479293446713 216.85372978714983 L195.35037511600382 219.03436069103103 L192.99530213690252 220.98464116260328 L190.5596909842114 222.7034604069361 L188.0631789144094 224.19124950571484 L185.52482108830097 225.44990222658794 L182.96299701869913 226.48269036176563 L180.39532599504713 227.294174410855 L177.8385915833254 227.8901104124305 L175.30867523642186 228.27735371370318 L172.8204989898769 228.4637604481967 L170.38797716079722 228.4580874679012 L168.02397691397374 228.26989144930656 L165.74028750901806 227.90942786236542 L163.54759799579736 227.38755045816677 L161.45548308271188 226.71561189526386 L159.472396863514 225.9053660865601 L157.60567405346427 224.96887280876297 L155.86153835469185 223.9184050750172 L154.24511754367083 222.7663597287672 L152.7604648507219 221.5251716735035 L151.41058618234746 220.20723210914096 L150.1974727219394 218.82481110166304 L149.12213843287157 217.38998476864228 L148.18466198008932 215.91456731958914 L147.38423258190872 214.41004814705207 L146.71919930269357 212.88753412223673 L146.1871232992293 211.35769720785984 L145.78483253878494 209.8307274612095 L145.5084785148677 208.31629146214257 L145.35359449733627 206.82349616418185 L145.31515486664617 205.36085813212847 L145.38763509735202 203.9362780968194 L145.5650719733757 202.55702072694186 L145.8411236367521 201.22969948926456 L146.209129092375 199.96026644233646 L146.6621668134701 198.75400678469154 L147.1931121159059 197.6155379569281 L147.79469299381336 196.54881307772243 L148.45954413411 195.55712847689765 L149.18025885322024 194.64313507409219 L149.9494387253538 193.80885333933213 L150.75974069796402 193.0556915618727 L151.6039215162794 192.38446714598604 L152.4748793049145 191.79543064687087 L153.36569218036186 191.28829225647576 L154.26965379349377 190.86225044767235 L155.18030572592363 190.5160224858037 L156.0914666880586 190.24787651905737 L156.99725848980864 190.05566496327444 L157.89212877708434 189.9368589025846 L158.7708705483336 189.88858323454323 L159.62863848534454 189.9076522971092 L160.46096215130908 189.99060572472803 L161.26375612663804 190.13374429183835 L162.03332716919746 190.3331655141797 L162.7663785004522 190.58479879121631 L163.46001133243587 190.88443988667933 L164.11172376249394 191.22778455854228 L164.71940717336378 191.61046116456131 L165.28134028536104 192.0280620847088 L165.79618101525065 192.4761738172943 L166.26295630280657 192.9504056211831 L166.6810500711408 193.44641659218775 L167.05018949063793 193.9599410773108 L167.37042971880993 194.4868123459716 L167.64213728963702 195.0229844525513 L167.8659723260318 195.56455223946548 L168.04286974801767 196.10776944443455 L168.17401964711019 196.64906488960145 L168.26084699429492 197.1850567435742 L168.30499084497987 197.7125648602938 L168.30828319943436 198.2286212107866 L168.27272767158243 198.73047843531592 L168.200478112673 199.21561655415746 L168.09381732937737 199.68174788515725 L167.9551360283404 200.12682022536185 L167.7869121112143 200.54901836232372 L167.5916904358044 200.94676398816037 L167.37206315023172 201.3187140960864 L167.13065069803716 201.66375794493263 L166.87008358298903 201.9810126821271 L166.59298497307623 202.2698177197471 L166.30195421383908 202.52972796157033 L165.99955131187164 202.76050598158162 L165.68828244008233 202.96211325614743 L165.37058650717927 203.13470055308363 L165.04882282490533 203.2785975811409 L164.72525989783614 203.39430200305287 L164.4020653521113 203.48246791426683 L164.08129701134405 203.54389388784892 L163.76489512017474 203.57951068386043 L163.45467570853992 203.5903687187862 L163.15232508274386 203.57762538739948 L162.8593954228711 203.54253232581658 L162.57730145998588 203.48642270047407 L162.30731820094442 203.4106986033939 L162.05057966351114 203.31681862943734 L161.80807857982919 203.2062857063259 L161.58066702215478 203.08063524307747 L161.36905790112453 202.941423657205 L161.17382728368548 202.79021733560225 L160.99541747517245 202.6285820785322 L160.83414080786042 202.45807307058197 L160.69018407663998 202.28022541688824 L160.56361356124856 202.0965452774077 L160.45438057372496 201.90850162654192 L160.3623274694194 201.71751866005386 L160.2871940599718 201.52496886596944 L160.22862436713984 201.33216677106412 L160.18617365719933 201.14036336962 L160.1593156968239 200.95074123642527 L160.1474501728579 200.76441032149427 L160.1499102201968 200.5824044197325 L160.1659700040613 200.4056783047716 L160.19485230526305 200.235105512466 L160.2357360595886 200.07147675608965 L160.2877638051458 199.91549895210395 L160.3500489943954 199.76779483249155 L160.42168313060446 199.62890311707477 L160.50174269158236 199.4992792169562 L160.58929580676673 199.37929643823816 L160.68340865699338 199.26924765349324 L160.78315156958527 199.16934740706543 L160.88760478470897 199.07973441917545 L160.99586387225122 199.0004744529789 L161.107044781741 198.93156350817068 L161.22028851106623 198.87293130443635 L161.3347653828886 198.82444501800794 L161.44967892073126 198.78591323477724 L161.56426931968147 198.75709008383964 L161.67781650950764 198.73767951597333 L161.7896428107144 198.72733969238712 L161.89911518665144 198.7256874500795 L162.00564709722906 198.73230281132825 L162.1086999620799 198.74673350615598 L162.20778424312502 198.76849947807753 L162.30246015845412 198.7970973450151 L162.39233804120784 198.8320047889475 L162.4770783587519 198.87268484962837 L162.55639140885717 198.9185900995469 L162.63003671084627 198.9691666791987 L162.69782211073635 199.02385817366945 L162.75960262030165 199.0821093134943 L162.81527901070146 199.1433694847304 L162.8647961818722 199.20709603515067 L162.908141329272 199.27275736542637 L162.9453419297977 199.33983579609867 L162.97646356877516 199.4078302030356 L163.00160762985786 199.47625841591997 L163.02090886946823 199.54465937610638 L163.0345328970851 199.61259505191262 L163.04267358222933 199.67965211106517 L163.04555040843766 199.74544335159138 L163.04340579384916 199.80960889393998 L163.03650239727068 199.87181713850595 L163.02512042774597 199.93176549403685 L163.00955497473677 199.9891808835976 L162.99011337504484 200.04382003586838 L162.96711263156712 200.09546957054462 L162.9408768978964 200.1439458874953 L162.91173504166179 200.1890948701182 L162.88001829835835 200.23079141400686 L162.84605802625222 200.268938792615 L162.8101835717728 200.30346787207228 L162.7727202536278 200.3343361876719 L162.7339874727064 200.36152689481813 L162.69429695367674 200.38504760739502 L162.6539511230464 200.40492913659813 L162.6132416273401 200.42122414326366 L162.5724479939696 200.43400571663946 L162.5318364363244 200.44336589237352 L162.49165880361159 200.44941412225197 L162.45215167501576 200.45227570790814 L162.4135355968453 200.45209021034987 L162.37601446047745 200.44900984671975 L162.3397750181206 200.44319788522034 L162.30498653267253 200.4348270486051 L162.2718005572781 200.42407793606608 L162.240350839574 200.4111374727442 L162.21075334505514 200.3961973954519 L162.18310639350915 200.37945278254153 L162.1574909020379 200.361100635174 L162.13397072782246 200.34133851655446 L162.11259310348575 200.32036325500212 L162.09338915766696 200.298369716022 L162.07637451324035 200.2755496478459 L162.06154995548695 200.25209060421741 L162.04890216246054 200.22817494751146 L162.0384044897732 200.203978934611 L162.03001780206222 200.17967188731046 L162.0236913434837 200.15541544838598 L162.01936363970643 200.13136292386469 L162.01696342405134 200.10765871144602 L162.0164105806298 200.0844378144767 L162.01761709758068 200.06182544036062 L162.0204880237815 200.03993668179888 L162.02492242271703 200.01887627880174 L162.03081431751764 199.99873845899828 L162.0380536215358 199.97960685338833 L162.04652704919863 199.96155448433925 L162.05611900226407 199.94464382232306 L162.06671242700625 199.92892690762343 L162.07818963826483 199.9144455330098 L162.09043310670728 199.9012314831836 L162.10332620607036 199.88930682664494 L162.11675391756427 199.8786842555062 L162.1306034890381 199.8693674686938 L162.14476504691405 199.86135159392583 L162.1591321593013 199.85462364383287 L162.17360234909106 199.84916300160012 L162.1880775562171 199.8449419315479 L162.2024645486309 199.84192611013466 L162.21667528189408 199.84007517295933 L162.23062720762465 199.8393432734564 L162.2442435313508 199.83967964911503 L162.25745342062348 199.8410291912126 L162.27019216451615 199.84333301422825 L162.28240128589687 199.8465290212947 L162.29402860809205 199.85055246225286 L162.3050282777742 199.8553364810903 L162.31536074609662 199.86081264977423 L162.3249927102653 199.86691148572328 L162.33389701788448 199.87356295040556 L162.34205253653548 199.88069692679537 L162.34944399114937 199.8882436736694 L162.35606177181484 199.89613425497234 L162.36190171472094 199.90430094272924 L162.3669648589735 199.91267759222757 L162.37125718204288 199.9211999884336 L162.37478931660206 199.92980616284356 L162.3775762514958 199.93843668019915 L162.37963701954882 199.94703489472013 L162.3809943748699 199.955547175718 L162.38167446224668 199.96392310265995 L162.38170648114533 199.97211562994332 L162.38112234674213 199.98008122182438 L162.37995635031078 199.98777995811312 L162.37824482117915 199.99517561140456 L162.3760257923489 200.00223569676112 L162.37333867174493 200.0089314948921 L162.37022392092658 200.01523804999545 L162.3667227429554 200.02113414353104 L162.36287678097003 200.02660224528717 L162.3587278288742 200.0316284431799 L162.3543175553957 200.0362023532903 L162.34968724262595 200.04031701169694 L162.34487754000256 200.04396874970107 L162.33992823454906 200.04715705406826 L162.33487803804272 200.04988441392825 L162.3297643916376 200.05215615597626 L162.32462328833392 200.05398026961544 L162.31948911354831 200.0553672236614 L162.31439450391315 200.05632977620488 L162.30937022430743 200.0568827791929 L162.30444506300623 200.05704297924555 L162.29964574472382 200.05682881617432 L162.2949968612223 200.05626022061026 L162.29052081906082 200.0553584120861 L162.2862378039715 200.05414569884664 L162.28216576126678 200.05264528058808 L162.27832039160953 200.0508810552477 L162.27471516141156 200.0488774308849 L162.27136132706875 200.04665914360916 L162.2682679721913 200.0442510824249 L162.26544205694594 200.04167812177573 L162.26288847859269 200.03896496248186 L162.2606101422725 200.03613598167672 L162.25860804108314 200.0332150922604 L162.25688134446827 200.0302256123014 L162.25542749394032 200.0271901447321 L162.2542423051583 200.02413046760094 L162.25332007539023 200.0210674350629 L162.252653695403 200.0180208892118 L162.25223476484112 200.01500958278405 L162.25205371018066 200.0120511126907 L162.25209990437307 200.0091618642688 L162.25236178732604 200.00635696607853 L162.25282698640683 200.00365025501364 L162.25348243619212 200.00105425143877 L162.25431449673292 199.9985801440154 L162.2553090696483 199.9962377838347 L162.25645171141 199.9940356874331 L162.25772774322897 199.991981048231 L162.25912235700716 199.99007975590374 L162.2606207168682 199.98833642316748 L162.2622080558344 199.98675441943982 L162.26386976726943 199.9853359108188 L162.26559149075888 199.9840819058101 L162.26735919215236 199.98299230622345 L162.26915923754288 199.98206596265584 L162.27097846100827 199.98130073397698 L162.27280422598903 199.98069355023716 L162.27462448022362 199.98024047842347 L162.2764278042075 199.97993679050086 L162.27820345318594 199.97977703318764 L162.27994139273102 199.97975509893166 L162.2816323279924 199.97986429757105 L162.2832677267477 199.98009742818581 L162.28483983641135 199.98044685066913 L162.28634169519248 199.9809045565724 L162.28776713761994 199.98146223880505 L162.28911079467827 199.98211135979807 L162.29036808882063 199.98284321776958 L162.29153522414506 199.98364901076104 L162.29260917203652 199.98451989814274 L162.29358765259164 199.9854470593196 L162.294469112155 199.98642174939826 L162.29525269730348 199.98743535160907 L162.2959382256219 199.98847942630667 L162.29652615361718 199.98954575640408 L162.29701754211817 199.99062638912557 L162.29741401950884 199.9917136739917 L162.29771774313772 199.99280029698048 L162.29793135924245 199.9938793108335 L162.2980579617199 199.99494416150455 L162.29810105006445 199.99598871077092 L162.29806448678542 199.99700725505346 L162.29795245460335 199.99799454051148 L162.29776941371077 199.99894577450064 L162.297520059369 199.99985663350043 L162.29720928009647 200.0007232676352 L162.29684211668828 200.00154230192865 L162.29642372228838 200.00231083444544 L162.2959593237194 200.00302643148643 L162.29545418425542 200.00368712001418 L162.2949135680063 200.00429137749487 L162.2943427060613 200.00483811934953 L162.29374676452315 200.0053266842144 L162.29313081454413 200.00575681721298 L162.29249980445675 200.00612865144612 L162.291858534075 200.00644268790734 L162.29121163122335 200.00669977403038 L162.29056353053377 200.00690108107472 L162.28991845453467 200.00704808055164 L162.28928039703962 200.0071425198902 L162.28865310882867 200.00718639753683 L162.28804008560033 200.00718193767645 L162.2874445581595 200.00713156475686 L162.28686948479296 200.00703787798906 L162.2863175457737 200.00690362598888 L162.28579113992316 200.00673168171588 L162.28529238315213 200.0065250178555 L162.2848231088909 200.00628668278074 L162.28438487031292 200.00601977721942 L162.2839789442485 200.00572743174098 L162.28360633667955 200.00541278516812 L162.2832677897018 200.00507896400492 L162.28296378983714 200.0047290629639 L162.28269457757563 200.0043661266625 L162.28246015802503 200.00399313254854 L162.28226031254445 200.00361297510327 L162.28209461123868 200.00322845136054 L162.2819624261903 200.00284224776954 L162.28186294530792 200.00245692841906 L162.28179518667127 200.00207492463144 L162.28175801325594 200.001698525925 L162.2817501479248 200.00132987233553 L162.28177018857656 200.00097094807828 L162.28181662334583 200.0006235765253 L162.28188784575534 200.0002894164648 L162.28198216972456 199.99996995960305 L162.28209784434597 199.99966652926358 L162.2822330683453 199.99938028023223 L162.28238600414875 199.99911219969275 L162.28255479148575 199.99886310919243 L162.2827375604639 199.99863366757444 L162.28293244405714 199.99842437480993 L162.2831375899569 199.99823557666073 L162.28335117174117 199.99806747010146 L162.28357139932362 199.99792010942883 L162.2837965286516 199.99779341298452 L162.28402487062772 199.99768717041812 L162.284254799236 199.99760105041688 L162.28448475886046 199.99753460882937 L162.28471327078833 199.99748729711123 L162.28493893889723 199.99745847102292 L162.28516045452983 199.99744739951115 L162.28537660056494 199.9974532737077 L162.2855862546992 199.99747521598215 L162.2857883919565 199.99751228898754 L162.2859820864483 199.99756350464133 L162.28616651241003 199.99762783298723 L162.28634094454287 199.9977042108865 L162.28650475769334 199.99779155049197 L162.28665742590545 199.99788874746056 L162.28679852088268 199.9979946888648 L162.28692770989878 199.99810826076728 L162.28704475319816 199.99822835542633 L162.28714950092808 199.99835387810452 L162.28724188964534 199.99848375345644 L162.28732193844084 199.99861693147508 L162.28738974472648 199.99875239298086 L162.2874454797273 199.99888915464052 L162.2874893837232 199.99902627350704 L162.28752176108293 199.999162851075 L162.28754297513225 199.99929803684955 L162.28755344289812 199.99943103143025 L162.287553629768 199.9995610891134 L162.28754404410375 199.99968752002096 L162.28752523184576 199.99980969176505 L162.28749777114373 199.99992703066076 L162.28746226704638 200.00003902250165 L162.28741934628155 200.00014521291493 L162.2873696521559 200.0002452073146 L162.28731383960084 200.00033867047276 L162.28725257038926 200.00042532573102 L162.2871865085455 200.00050495387472 L162.28711631596832 200.00057739169395 L162.28704264828443 200.00064253025607 L162.28696615094785 200.00070031291537 L162.28688745559802 200.0007507330852 L162.28680717668698 200.0007938317994 L162.28672590838434 200.0008296950883 L162.28664422176575 200.00085845119585 L162.2865626622892 200.0008802676637 L162.2864817475609 200.0008953483071 L162.2864019653908 200.00090393010785 " stroke = "blue" stroke-width = "4" fill = "none" /></svg>