<svg width="372.55279383549293" height="207.8706099267153" viewbox = "0 0 372.55279383549293 207.8706099267153"  xmlns="http://www.w3.org/2000/svg">

<!--
<topfunctions>


function YofX(){
//foobar foobar
    X = plotparams.g*(x - plotparams.x0) - funcparams.X0;
    Y = Math.sin(funcparams.phi + (Math.PI*2*X/funcparams.T));
    y = plotparams.y0 - plotparams.G*(Y - funcparams.Y0);
}

//foo
function YofX2(){
    X = plotparams.g*(x - plotparams.x0) - funcparams.X0;
    Y = Math.sin(0.5*Math.PI + funcparams.phi + (Math.PI*2*X/funcparams.T));    
    y = plotparams.y0 - plotparams.G*(Y - funcparams.Y0);
 }

function XYofT(){
    T = plotparams.g*t;
    X = Math.exp(-T/funcparams.tau)*Math.cos(2*Math.PI*T/funcparams.T);
    Y = Math.exp(-T/funcparams.tau)*Math.sin(2*Math.PI*T/funcparams.T);
    y = plotparams.y0 - plotparams.G*(Y - funcparams.Y0);
    x = plotparams.x0 - plotparams.G*(X - funcparams.X0);    
}


function plotfunction(){

/*
    currentStroke = "blue";
    currentLineWidth = 4;
    ctx.strokeStyle = currentStroke;
    ctx.lineWidth = currentLineWidth;
    ctx.beginPath();	
    x = 0;
    y = 0;
    t= 0;
    XYofT();
    currentSVG += "	<path d = \"M";
    currentSVG += Math.round(x).toString() + " ";
    currentSVG += Math.round(y).toString() + " ";
    for(t = 1;t < plotparams.duration;t++){
        ctx.moveTo(x,y);
        XYofT();
        ctx.lineTo(x,y);
        currentSVG += "L" + x + " " + y + " ";
    }
    ctx.stroke();
    currentSVG += "\""+ " stroke = \"" + currentStroke + "\" stroke-width = \"" + currentLineWidth.toString() + "\" fill = \"" + "none" + "\" "+"/>";


    /*plot one function:*/
    currentStroke = "blue";
    currentLineWidth = 4;
    ctx.strokeStyle = currentStroke;
    ctx.lineWidth = currentLineWidth;
    ctx.beginPath();	
    x = 0;
    YofX();
    currentSVG += "	<path d = \"M";
    currentSVG += Math.round(x).toString() + " ";
    currentSVG += Math.round(y).toString() + " ";
    for(x = 1;x < plotparams.plotwidth;x++){
        ctx.moveTo(x-1,y);
        YofX();
        ctx.lineTo(x,y);
        currentSVG += "L" + x + " " + y + " ";
    }
    ctx.stroke();
    currentSVG += "\""+ " stroke = \"" + currentStroke + "\" stroke-width = \"" + currentLineWidth.toString() + "\" fill = \"" + "none" + "\" "+"/>";
    /*finish plot one function*/
    
    
        /*plot one function:*/
    currentStroke = "red";
    currentLineWidth = 4;
    ctx.strokeStyle = currentStroke;
    ctx.lineWidth = currentLineWidth;
    ctx.beginPath();	
    x = 0;
    YofX2();
    currentSVG += "	<path d = \"M";
    currentSVG += Math.round(x).toString() + " ";
    currentSVG += Math.round(y).toString() + " ";
    for(x = 1;x < plotparams.plotwidth;x++){
        ctx.moveTo(x-1,y);
        YofX2();
        ctx.lineTo(x,y);
        currentSVG += "L" + x + " " + y + " ";
    }
    ctx.stroke();
    currentSVG += "\""+ " stroke = \"" + currentStroke + "\" stroke-width = \"" + currentLineWidth.toString() + "\" fill = \"" + "none" + "\" "+"/>";
    /*finish plot one function*/

}





















</topfunctions>
-->

<!--
<imgurl>

</imgurl>
-->

<!--
<currentjson>
{
    "constants": {},
    "imgurl": "",
    "plotparams": {
        "G": 19.784466890013498,
        "g": 0.017985878990921366,
        "duration": 409.8080732190423,
        "plotwidth": 372.55279383549293,
        "plotheight": 207.8706099267153,
        "x0": 92.12624699075768,
        "y0": 94.77858253333044
    },
    "funcparams": {
        "phi": 0.2697881848638206,
        "T": 0.8272709219808261,
        "X0": 0,
        "Y0": 0
    }
}
</currentjson>
-->

<!--
<equation>

<h2>Sin/Cos</h2>
<p style="color:blue">

</p><p class="bigeq">
$$
Y = \cos{\phi + \frac{2\pi X}{T}}

$$
</p>
<p></p>

$$
X = g(x - x_0) - X_0
$$
$$
Y = f(X)
$$
    
$$
y = y_0 - G(Y - Y_0)
$$


<p>
    X and Y, and $X_0$ and $Y_0$ in physical units of the System. x and y and x0 and y0 in pixels.  G is in pixels per Y unit and g is in X units per pixel. 
</p>


</equation>
-->
	<path d = "M0 90 L1 87.29449373899227 L2 84.87017941642878 L3 82.63047532315196 L4 80.61711091660457 L5 78.86759856485902 L6 77.4145346280537 L7 76.2849921333331 L8 75.50001635877874 L9 75.07423272445224 L10 75.0155742962001 L11 75.32513397928273 L12 75.99714415570992 L13 77.01908414467266 L14 78.37191348390343 L15 80.03042668553955 L16 81.96372285679166 L17 84.13578143559322 L18 86.50613331430637 L19 89.03061484732072 L20 91.66219069411369 L21 94.35183016682063 L22 97.04942075448534 L23 99.70470180349538 L24 102.26820095816495 L25 104.692155914 L26 106.93140430983114 L27 108.94422517862597 L28 110.6931162793355 L29 112.1454928267738 L30 113.27429460101752 L31 114.05849012485442 L32 114.4834685156072 L33 114.54131171047266 L34 114.23094199336066 L35 113.55814207455899 L36 112.53544734910643 L37 111.1819123412819 L38 109.52275568674173 L39 107.58889026688608 L40 105.41634724984131 L41 103.04560476914511 L42 100.5208337479803 L43 97.88907492052113 L44 95.19936238386998 L45 92.50181001028741 L46 89.84667774139312 L47 87.28343516084892 L48 84.85983979274104 L49 82.62104729851414 L50 80.60877015098632 L51 78.86050046076411 L52 77.40881143511002 L53 76.28075048425923 L54 75.49733528263705 L55 75.07316217420444 L56 75.0161342179994 L57 75.32731394084348 L58 76.00090354067862 L59 77.02435290937903 L60 78.37859346239183 L61 80.03839341856607 L62 81.97282791070933 L63 84.14585516792059 L64 86.51698803445265 L65 89.04204831357748 L66 91.67398988175809 L67 94.3637752371248 L68 97.06128915068187 L69 99.7162723973846 L70 102.27925817010546 L71 104.70249372952027 L72 106.94083011802599 L73 108.95256336082187 L74 110.70021148116211 L75 112.15121285267747 L76 113.2785328772869 L77 114.06116768526819 L78 114.48453547270756 L79 114.5407481850528 L80 114.22875848484776 L81 113.55437926539221 L82 112.53017534675467 L83 111.17522937202351 L84 109.51478626554376 L85 107.57978287748065 L86 105.4062715782239 L87 103.03474854203876 L88 100.5093992351707 L89 97.8772751662301 L90 95.18741723738302 L91 92.48994202979131 L92 89.83510804734235 L93 87.27237931611938 L94 84.8495037863308 L95 82.61162370762165 L96 80.60043455297303 L97 78.85340816185267 L98 77.40309457676787 L99 76.27651558118072 L100 75.49466123819533 L101 75.07209881034879 L102 75.01670134698843 L103 75.32950099610947 L104 76.00466977370039 L105 77.02962814889554 L106 78.38527942181088 L107 80.0463655272089 L108 81.9819376347722 L109 84.15593277790938 L110 86.52784576752924 L111 89.0534838718974 L112 91.68579020161988 L113 94.3757204587055 L114 97.07315671439554 L115 99.7278411905421 L116 102.29031264661604 L117 104.7128279258781 L118 106.95025149075693 L119 108.9608963738926 L120 110.70730087651178 L121 112.15692654293687 L122 113.2827644067884 L123 114.06383821349407 L124 114.48559524322158 L125 114.54017745254632 L126 114.2265678830281 L127 113.55060960885882 L128 112.52489687055436 L129 111.16854042305337 L130 109.5068114701829 L131 107.57067081959096 L132 105.39619203078252 L133 103.02388930398185 L134 100.49796263238306 L135 97.86547428187338 L136 95.17547194179767 L137 92.47807488394209 L138 89.82354015613289 L139 87.26132620883563 L140 84.83917140096757 L141 82.60220455391122 L142 80.59210412560462 L143 78.84632167071115 L144 77.39738405511216 L145 76.27228742564202 L146 75.49199422642876 L147 75.07104263327305 L148 75.01727568296036 L149 75.33169514428309 L150 76.00844285340173 L151 77.03490986129839 L152 78.39197135972223 L153 80.0543430085607 L154 81.99105202565799 L155 84.16601426188438 L156 86.53870650957643 L157 89.06492151811003 L158 91.69759164939562 L159 94.3876658272064 L160 97.08502344129835 L161 99.73940817874883 L162 102.30136438366524 L163 104.72315849930469 L164 106.95966842458812 L165 108.96922421479915 L166 110.71438446279905 L167 112.16263389546825 L168 113.2869891879788 L169 114.06650170855815 L170 114.48664782676275 L171 114.53959951316133 L172 114.22437018870056 L173 113.54683310633354 L174 112.51961192243053 L175 111.1618454968109 L176 109.49883130356751 L177 107.56155409654002 L178 105.38610861119307 L179 103.01302705893464 L180 100.48652394378819 L181 97.85367227175456 L182 95.16352650147029 L183 92.46620857706762 L184 89.81197407198344 L185 87.25027584302862 L186 84.8288426404195 L187 82.59278984081789 L188 80.58377887191914 L189 78.83924098992394 L190 77.39167987222547 L191 76.2680660191851 L192 75.48933424831 L193 75.06999364336242 L194 75.01785722570571 L195 75.33389638456416 L196 76.01222277840662 L197 77.0401980446614 L198 78.39866927368544 L199 80.06232585971213 L200 82.00017108004282 L201 84.17609961616894 L202 86.54957025663327 L203 89.07636124804421 L204 91.70939422078146 L205 94.39961133827119 L206 97.09688932706258 L207 99.75097335778644 L208 102.31241337722258 L209 104.73348544603263 L210 106.96908091608522 L211 108.97754688050453 L212 110.72146223744063 L213 112.16833490819019 L214 113.29120721931734 L215 114.0691581694891 L216 114.4876932229472 L217 114.53901436710862 L218 114.22216540266666 L219 113.54304975919365 L220 112.51432050431053 L221 111.15514459573764 L222 109.49084576860788 L223 107.55243271165273 L224 105.37602132313297 L225 103.00216181085855 L226 100.47508317355768 L227 97.84186914017788 L228 95.15158092075727 L229 92.45434311349544 L230 89.80040979911219 L231 87.23922822272839 L232 84.8185175084534 L233 82.58337957177513 L234 80.57545879495275 L235 78.83216612207325 L236 77.38598203018806 L237 76.2638513633495 L238 75.48668130480908 L239 75.06895184099946 L240 75.01844597501241 L241 75.33610471614988 L242 76.01600954733657 L243 77.04549269705595 L244 78.40537316125777 L245 80.07031407775185 L246 82.009294794601 L247 84.18618883708503 L248 86.56043700473808 L249 89.0878030575279 L250 91.72119791147297 L251 94.41155698754336 L252 97.10875436736083 L253 99.76253672343718 L254 102.3234596232586 L255 104.74380876229561 L256 106.97848896181564 L257 108.98586436797333 L258 110.72853419785528 L259 112.1740295790236 L260 113.29541849926578 L261 114.07180759531812 L262 114.48873143139369 L263 114.5384220146016 L264 114.21995352573046 L265 113.5392595688189 L266 112.50902261812412 L267 111.14843772227736 L268 109.48285486821626 L269 107.54330666825547 L270 105.36593017028075 L271 102.99129356371603 L272 100.46364032586396 L273 97.83006489144765 L274 95.13963520401494 L275 92.44247849755277 L276 89.78884734173631 L277 87.22818335196376 L278 84.80819600883461 L279 82.57397375021485 L280 80.56714389773967 L281 78.82509706973934 L282 77.38029053107786 L283 76.2596434596722 L284 75.48403539689356 L285 75.06791722656409 L286 75.01904193066576 L287 75.33832013823493 L288 76.01980315881056 L289 77.05079381655118 L290 78.41208301999447 L291 80.07830765976679 L292 82.01842316600526 L293 84.19628192095321 L294 86.57130674992763 L295 89.09924694238846 L296 91.73300271716563 L297 94.42350277066662 L298 97.12061855786612 L299 99.77409827148394 L300 102.33450311774482 L301 104.75412844432898 L302 106.98789255834834 L303 108.99417667417251 L304 110.73560034146402 L305 112.17971790589166 L306 113.29962302628826 L307 114.07444998507896 L308 114.4897624517236 L309 114.53782245585626 L310 114.21773455869855 L311 113.53546253659157 L312 112.50371826580341 L313 111.14172487887602 L314 109.47485860530688 L315 107.53417596967647 L316 105.35583515631669 L317 102.98042232147046 L318 100.45219540488 L319 97.81825952986878 L320 95.12768935560004 L321 92.4306147335666 L322 89.77728670407264 L323 87.2171412347628 L324 84.79787814532747 L325 82.56457237956702 L326 80.55883418331219 L327 78.81803383550017 L328 77.37460537697054 L329 76.25544230968782 L330 75.48139652552831 L331 75.06688980043364 L332 75.01964509244841 L333 75.34054265001133 L334 76.02360361144508 L335 77.05610140121382 L336 78.41879884744844 L337 80.08630660284173 L338 82.02755619092659 L339 84.20637886409263 L340 86.58217948823791 L341 89.11069289845237 L342 91.74480863355431 L343 94.4354486832843 L344 97.13248189425173 L345 99.78565799771046 L346 102.34554385665378 L347 104.76444448836912 L348 106.9972917022539 L349 109.00248379607049 L350 110.74266066568968 L351 112.18539988671995 L352 113.30382079885149 L353 114.077085337808 L354 114.49078628356092 L355 114.53721569109128 L356 114.21550850238022 L357 113.53165866389631 L358 112.49840744928278 L359 111.13500606798169 L360 109.46685698279592 L361 107.52504061924562 L362 105.34573628492254 L363 102.96954808808681 L364 100.44074841477965 L365 97.80645305974679 L366 95.11574337986883 L367 92.41875182586327 L368 89.76572789033715 L369 87.20610187515233 L370 84.78756392169475 L371 82.55517546326067 L372 80.55052965470107 " stroke = "blue" stroke-width = "4" fill = "none" />	<path d = "M0 76 L1 76.464283610344 L2 77.65407734938384 L3 79.16292944637792 L4 80.96272744684707 L5 83.01993808436924 L6 85.29623206178093 L7 87.74919819050447 L8 90.33313358238397 L9 92.99989517142494 L10 95.69979670015518 L11 98.38253445824004 L12 100.99812452528478 L13 103.49783405541089 L14 105.83508925220933 L15 107.96634311696677 L16 109.85188680255625 L17 111.45658945610282 L18 112.7505527659095 L19 113.70966801733343 L20 114.31606527872279 L21 114.55844634832468 L22 114.4322952588025 L23 113.9399624173093 L24 113.09062081344605 L25 111.90009511102404 L26 110.39056680793982 L27 108.59016095753036 L28 106.53242215148528 L29 104.25568952763682 L30 101.80238244728407 L31 99.21821015108581 L32 96.5513201189626 L33 93.85140100149773 L34 91.16875683673332 L35 88.5533698012632 L36 86.05396895814576 L37 83.71712235243156 L38 81.5863693700941 L39 79.70140952597774 L40 78.09736279500804 L41 76.80411526794018 L42 75.84576232317968 L43 75.24015968932204 L44 74.99859076287157 L45 75.1255563795709 L46 75.61869095625448 L47 76.4688065656452 L48 77.66006412290585 L49 79.17026849445229 L50 80.97128203065405 L51 83.02954881761224 L52 85.30671988032141 L53 87.76036768862852 L54 90.34477665353943 L55 93.01179488559698 L56 95.71173134563743 L57 98.39428167249717 L58 101.00946543794058 L59 103.50855736617197 L60 105.8449951677452 L61 107.97524707339595 L62 109.85962290418213 L63 111.46301356632958 L64 112.75554519274965 L65 113.71313574347099 L66 114.31794369458244 L67 114.55870045585695 L68 114.43092032355632 L69 113.93698405664279 L70 113.086094519232 L71 111.89410521574298 L72 110.38322491342386 L73 108.58160385563323 L74 106.52280927541987 L75 104.24519998146597 L76 101.79121166891042 L77 99.20656627091464 L78 96.5394200820822 L79 93.83946652562693 L80 91.15701028124741 L81 88.54203002426435 L82 86.04324723876815 L83 83.70721845435548 L84 81.57746781961241 L85 79.6936761739602 L86 78.0909417268206 L87 76.79912611889205 L88 75.84229804951606 L89 75.23828483629282 L90 74.99834026214471 L91 75.1269348983966 L92 75.62167281050652 L93 76.47333619835939 L94 77.66605713939981 L95 79.17761323474045 L96 80.97984164986113 L97 83.03916383562364 L98 85.31721115316626 L99 87.77153974623332 L100 90.35642134166464 L101 93.02369524410082 L102 95.72366565080863 L103 98.40602756814089 L104 101.0208040782486 L105 103.5192774931886 L106 105.85489704745848 L107 107.98414621711856 L108 109.86735350588627 L109 111.46943159189223 L110 112.76053106355087 L111 113.71659656434483 L112 114.31981498461029 L113 114.55894734975557 L114 114.42953822127676 L115 113.93399870907707 L116 113.08156154843064 L117 111.88810907858252 L118 110.37587732803316 L119 108.5730417198966 L120 106.51319211633908 L121 104.23470698290366 L122 101.78003833309306 L123 99.19492077589709 L124 96.52751940303995 L125 93.82753239224343 L126 91.14526504651683 L127 88.53069252168092 L128 86.0325287050899 L129 83.69731859390777 L130 81.56857108346023 L131 79.6859483232743 L132 78.08452674446787 L133 76.7941435267923 L134 75.83884068174753 L135 75.23641710943696 L136 74.99809697509687 L137 75.128320584004 L138 75.62466165111374 L139 76.47787250683466 L140 77.67205639668009 L141 79.18496366456378 L142 80.98840630134669 L143 83.04878313489698 L144 85.32770587648938 L145 87.78271435924454 L146 90.36806764251283 L147 93.0355962425965 L148 95.73559961131637 L149 98.41777214088754 L150 101.0321404420738 L151 103.52999443255125 L152 105.86479488773801 L153 107.9930405448892 L154 109.87507860484938 L155 111.47584353045019 L156 112.76551037649489 L157 113.72005047869283 L158 114.32167914812388 L159 114.55918702993047 L160 114.42814895246784 L161 113.93100637570087 L162 113.07702190269507 L163 111.88210670172941 L164 110.36852405444729 L165 108.56447455344298 L166 106.50357067775023 L167 104.22421053577658 L168 101.76886244390684 L169 99.18327367028013 L170 96.5156180861759 L171 93.8155986056995 L172 91.1335211368249 L173 88.51935729764756 L174 86.02181336101995 L175 83.6874227746988 L176 81.55967916488213 L177 79.67822597673829 L178 78.07811785028929 L179 76.78916749345804 L180 75.83539022113496 L181 75.23455650943559 L182 74.99786090181675 L183 75.12971343588777 L184 75.62765747698612 L185 76.48241548941664 L186 77.67806189255879 L187 79.19231978124172 L188 80.99697598198728 L189 83.05840671192416 L190 85.33820404646343 L191 87.79389152358682 L192 90.37971555183665 L193 93.0474978767438 L194 95.74753322280849 L195 98.429515386454 L196 101.04347452528182 L197 103.54070818035159 L198 105.87468868497422 L199 108.0019300534641 L200 109.88279819825419 L201 111.48224937966508 L202 112.77048312976572 L203 113.72349748525536 L204 114.32353618444338 L205 114.55941949629425 L206 114.42675251763625 L207 113.92800705760547 L208 113.07247558368088 L209 111.87609808737261 L210 110.36116509534797 L211 108.55590235939671 L212 106.49394496316208 L213 104.21371064391269 L214 101.75768400542755 L215 99.17162495831128 L216 96.50371613583037 L217 93.8036651703472 L218 91.12177855645453 L219 88.5080243562982 L220 86.01110121046605 L221 83.67753100033745 L222 81.55079206712088 L223 79.67050913716848 L224 78.07171504662217 L225 76.78419802070397 L226 75.8319466689367 L227 75.23270303696728 L228 74.99763204239049 L229 75.1311134535399 L230 75.63066028703108 L231 76.48696514444856 L232 77.68407362484578 L233 79.19968158209153 L234 81.00555068865759 L235 83.06803456319568 L236 85.34870565925985 L237 87.80507123518397 L238 90.3913650653883 L239 93.05940014220239 L240 95.75946648093289 L241 98.44125730055758 L242 101.05480632373927 L243 103.55141873268234 L244 105.88457843555878 L245 108.01081473960133 L246 109.89051228328545 L247 111.48864913720072 L248 112.77544932154994 L249 113.72693758277538 L250 114.32538609289153 L251 114.55964474876214 L252 114.42534891729122 L253 113.92500075588468 L254 113.06792259304602 L255 111.87008323770348 L256 110.3538004534189 L257 108.54732514088417 L258 106.48431497608519 L259 104.20320731114121 L260 101.74650302173178 L261 99.15997464423887 L262 96.49181355634394 L263 93.79173209053876 L264 91.11003730968825 L265 88.4966937017658 L266 86.00039225733492 L267 83.66764327443121 L268 81.54190979341757 L269 79.6627978073791 L270 78.06531833580146 L271 76.77923511034246 L272 75.82851002640861 L273 75.23085669270796 L274 74.99741039690151 L275 75.13252063644984 L276 75.63367008015355 L277 76.4915214702712 L278 77.6900915913487 L279 79.20704906442836 L280 81.01413041823055 L281 83.0776666852001 L282 85.35921071104876 L283 87.81625348995892 L284 90.4030161789192 L285 93.07130303463144 L286 95.77139938133752 L287 98.45299787891624 L288 101.06613583331354 L289 103.5621260856375 L290 105.89446413588514 L291 108.01969460006087 L292 109.89822085712987 L293 111.49504280072321 L294 112.78040895003635 L295 113.73037076999825 L296 114.32722887279368 L297 114.559862787252 L298 114.42393815194465 L299 113.92198747163492 L300 113.06336293245099 L301 111.86406215491554 L302 110.34643013134594 L303 108.53874290103315 L304 106.47468072003132 L305 104.19270054129264 L306 101.73531949689725 L307 99.14832273231161 L308 96.47991035205742 L309 93.77979937062584 L310 91.09829740080778 L311 88.48536533818266 L312 85.98968650553202 L313 83.65775960058602 L314 81.53303234701154 L315 79.65509199018243 L316 78.05892772016006 L317 76.77427876418335 L318 75.825080294804 L319 75.22901747733096 L320 74.99719596543068 L321 75.1339349841044 L322 75.63668685525587 L323 76.4960844652229 L324 77.69611578987275 L325 79.21442222556546 L326 81.02271516757716 L327 83.08730307442481 L328 85.36971919799907 L329 87.82743828383362 L330 90.4146688881805 L331 93.08320654969033 L332 95.7833319196707 L333 98.46473711724798 L334 101.07746304987279 L335 103.57283023531218 L336 105.90434578234803 L337 108.02856963160428 L338 109.90592391697628 L339 111.50143036790082 L340 112.78536201341623 L341 113.73379704567195 L342 114.32906452347783 L343 114.56007361168429 L344 114.42252022211103 L345 113.91896720595506 L346 113.05879660355862 L347 111.85803484120467 L348 110.33905413181695 L349 108.53015564297361 L350 106.46504219851428 L351 104.18219033819861 L352 101.72413343500227 L353 99.13666922677882 L354 96.46800652731166 L355 93.76786701496023 L356 91.08655883409465 L357 88.4740392696799 L358 85.97898395896154 L359 83.64787998240638 L360 81.5241597311402 L361 79.6473916883887 L362 78.05254320202866 L363 76.7693289840343 L364 75.82165747537357 L365 75.22718539150705 L366 74.99698874805615 L367 75.1353564959878 L368 75.63971061123794 L369 76.50065412763965 L370 77.70214621822097 L371 79.22180106281385 L372 81.03130493356669 " stroke = "red" stroke-width = "4" fill = "none" /></svg>