<svg width="400" height="400" viewbox = "0 0 400 400"  xmlns="http://www.w3.org/2000/svg">

<!--
<topfunctions>



function XYofT(){
    T = plotparams.g*t;
    tau = Math.abs(0.25*funcparams.T/Math.log(constants.phi));
    X = Math.exp(-T/tau)*Math.cos(2*Math.PI*T/funcparams.T);
    Y = Math.exp(-T/tau)*Math.sin(2*Math.PI*T/funcparams.T);
    y = plotparams.y0 - plotparams.G*(Y - funcparams.Y0);
    x = plotparams.x0 - plotparams.G*(X - funcparams.X0);    
}


function plotfunction(){


    currentStroke = "blue";
    currentLineWidth = 4;
    ctx.strokeStyle = currentStroke;
    ctx.lineWidth = currentLineWidth;
    ctx.beginPath();	
    x = 0;
    y = 0;
    t= 0;
    XYofT();
    currentSVG += "	<path d = \"M";
    currentSVG += Math.round(x).toString() + " ";
    currentSVG += Math.round(y).toString() + " ";
    for(t = 1;t < plotparams.duration;t++){
        ctx.moveTo(x,y);
        XYofT();
        ctx.lineTo(x,y);
        currentSVG += "L" + x + " " + y + " ";
    }
    ctx.stroke();
    currentSVG += "\""+ " stroke = \"" + currentStroke + "\" stroke-width = \"" + currentLineWidth.toString() + "\" fill = \"" + "none" + "\" "+"/>";


}






















</topfunctions>
-->

<!--
<imgurl>
../symbol/geometry/goldenspiral/svg/svg1531179864.svg
</imgurl>
-->

<!--
<currentjson>
{
    "constants": {
        "phi": 1.618
    },
    "imgurl": "../symbol/geometry/goldenspiral/svg/svg1531179864.svg",
    "plotparams": {
        "G": 1585.4813285073162,
        "g": 0.017985878990921366,
        "duration": 545.4545454545454,
        "plotwidth": 400,
        "plotheight": 400,
        "x0": 271.82217062000007,
        "y0": 72.56846931505859
    },
    "funcparams": {
        "T": -1,
        "X0": 0,
        "Y0": 0
    }
}
</currentjson>
-->

<!--
<equation>

<h2>Golden Spiral</h2>
<p>
    Radius reduced by $\phi$ on every quarter turn.  One full turn takes T, so a quarter turn is $\frac{T}{4}$.  If we consider a quarter rotation starting at time $t_0$ and going to time $t_0 + \frac{T}{4}$ that should go down by $\phi$.  So  
    $$
    \frac{e^{-t_0/\tau}}{e^{-(t_0 + \frac{T}{4})/\tau}}=\phi
    $$
    $$
    e^{T/4\tau} = \phi
    $$
    $$
    \frac{T}{4\tau} = \ln{\phi}
    $$
    $$
    \tau = \frac{T}{4\ln{\phi}}
    $$
    
</p>
<p class="bigeq">
$$
(X,Y) = (e^{-t/\tau}\cos{\frac{2\pi t}{T}},e^{-t/\tau}\sin{\frac{2\pi t}{T}})
$$
</p>
<p></p>

$$
X = g(x - x_0) - X_0
$$
$$
Y = f(X)
$$
    
$$
y = y_0 - G(Y - Y_0)
$$


<p>
    X and Y, and $X_0$ and $Y_0$ in physical units of the System. x and y and x0 and y0 in pixels.  G is in pixels per Y unit and g is in X units per pixel. 
</p>


</equation>
-->
	<path d = "M-1314 73 L-1249.9421032505447 245.2767784750996 L-1169.9723835473264 404.10354318158954 L-1075.9152907665402 547.8362110430155 L-969.9811832400502 675.5468272705631 L-854.3926729791584 786.5855064466474 L-731.3538428085959 880.5705923276281 L-603.0217725011444 957.3758598896186 L-471.480603311036 1017.1151300053186 L-338.7183207384767 1060.1246772433276 L-206.60638668319245 1086.9438155796 L-76.88230495837263 1098.294045634042 L48.864841025664106 1095.0571407757536 L169.20588226286088 1078.2525385033643 L282.88013345083067 1049.014388361915 L388.801117711836 1008.5685887904996 L486.0595598469908 958.2101232087174 L573.9237904918348 899.2809808580089 L651.8377289215633 833.1489209313412 L719.416633675099 761.1873098617974 L776.4408276049612 684.7562317962129 L822.8476174458827 605.185041735443 L858.7216376118809 523.7565000367773 L884.2838538082326 441.69259637759933 L899.8794643524408 360.14214127241326 L905.9649360445043 280.17017418293767 L903.0944072506534 202.74920949087334 L891.905683831371 128.7523154037957 L873.1060439399203 58.94799648451209 L847.4580558432438 -6.0031718598746835 L815.7655990848821 -65.55022875520314 L778.860263836943 -119.2519227749884 L737.5882864934301 -166.7753215064756 L692.798161755308 -207.8930538743289 L645.3290529558483 -242.4793138594952 L596.0001034693648 -270.50476234331256 L545.600733019246 -292.03046951487045 L494.8819838168579 -307.2010436855229 L444.54896296651043 -316.2370935663715 L395.2544096865754 -319.4271702129179 L347.59339882328567 -317.11933207546144 L302.0991760476176 -309.71247207946897 L259.2401051776992 -297.6475395749611 L219.41769438489243 -281.39878252501967 L182.9656557208648 -261.4651266440894 L150.14994152063838 -238.36179854320548 L121.16969184312501 -212.61228948826712 L96.15901923316014 -184.74074532321927 L75.18955073226451 -155.26485664189659 L58.27364221328756 -124.68931159259844 L45.36817673146152 -93.4998619414215 L36.37885661853207 -62.15804136639309 L31.164898429245426 -31.096563554663177 L29.544040498704845 -0.7154166661248098 L31.29777469143974 28.621339768940707 L36.17671681546457 56.58807932602313 L43.90603402652471 82.8994275076854 L54.1908522430418 107.31141625698044 L66.72157201126387 129.62200303753667 L81.17902728131898 149.6709899896177 L97.23942805682972 167.33938438370282 L114.57903474363494 182.5482463675297 L132.87851913033364 195.25707383748642 L151.82697417266291 205.46177717188007 L171.12554201869875 213.192298564845 L190.49063690289685 218.50993182908803 L209.65674656203473 221.50439883638282 L228.37880260161765 222.29073828810843 L246.43411669259064 221.00606131260432 L263.6238855399835 217.80622653588836 L279.7742731817509 212.8624848360983 L294.7370843016028 206.35814104191297 L308.39004683781513 198.4852764453268 L320.6367262141399 189.4415722446226 L331.40609699157187 179.42726998920415 L340.6518006322521 168.64230083802317 L348.35112037903923 157.28361103951562 L354.5037059938926 145.54270656224764 L359.1300822800397 133.60343531724448 L362.26997595832086 121.64002097639434 L363.98049560431656 109.8153580627131 L364.3341990120687 98.27957381877877 L363.4170815689322 87.16885839485145 L361.32651804431845 76.60456117784219 L358.1691886555575 66.69254764018513 L354.0590184214789 57.5228079515943 L349.1151566945289 49.16930578845495 L343.46002142174063 41.6900533111349 L337.21743016997755 35.127396169025886 L330.5108373071457 29.50849064142772 L323.4616940027735 24.845953629056908 L316.18794494093663 21.138665170835864 L308.80267286610604 18.37270246406738 L301.4128993456524 16.522383999548026 L294.11854746594685 15.55140236948072 L287.01156961352433 15.414024545004025 L280.17524105644725 16.05633892897592 L273.6836177579969 17.417529243407877 L267.60115474568516 19.431156283107 L261.98247944008773 22.0264297299237 L256.87231263329414 25.129453547095608 L252.30552830530257 28.664429931803497 L248.3073421844645 32.55480836761743 L244.8936178977016 36.72436795891146 L242.07127871714607 41.09822291930983 L239.83881228859144 45.603742799699035 L238.18685531750134 50.1713807536194 L237.0988449816599 54.73540482594697 L236.55172382508056 59.234528893538936 L236.5166850528495 63.61244146483736 L236.9599454769376 67.8182320423371 L237.843533843152 71.80671615259288 L239.1260828828314 75.53866144061203 L240.7636141624252 78.98091839889946 L242.71030563213637 82.10646034821666 L244.91923268360006 84.8943382016418 L247.34307449845852 87.3295563222967 L249.9347784873588 89.40287642671825 L252.64817666555672 91.11055699082118 L255.43854887091328 92.45403598606472 L258.2631287874675 93.43956501377889 L261.0815497788494 94.07780302110692 L263.8562285476249 94.38337777947481 L266.5526856075476 94.37442319383487 L269.1398024752896 94.07210029703525 L271.59001634755805 93.50010947819432 L273.87945382103516 92.68420110715603 L275.98800593016267 91.65169125961904 L277.89934741669936 90.43098873027 L279.60090370187294 89.05113895517763 L281.08376950478936 87.54138986071781 L282.3425834388149 85.930784025079 L283.37536322134054 84.24778089027231 L284.1833063532257 82.51991210741207 L284.7705612648685 80.77347244513919 L285.14397398971533 79.03324804908735 L285.3128154174043 77.32228321715792 L285.28849410257385 75.66168625822037 L285.084259467227 74.07047443699794 L284.7149000404163 72.56545748079026 L284.1964411352738 71.16115863890764 L283.5458460766591 69.86977184694443 L282.78072476967384 68.70115315814469 L281.91905304678517 67.66284426509009 L280.97890585602323 66.76012564794377 L279.97820696126564 65.99609665089876 L278.93449742434507 65.37177960596436 L277.8647247336815 64.88624499175447 L276.7850540410694 64.53675453287676 L275.71070257242974 64.3189191106626 L274.65579789463294 64.2268683656349 L273.63326035326236 64.25342892317902 L272.6547096492777 64.39030826290093 L271.73039519926016 64.62828137538634 L270.86914962706425 64.95737750356844 L270.07836446649236 65.36706444557342 L269.3639869167466 65.84642809757001 L268.7305362860825 66.38434513461388 L268.18113858495076 66.96964696059733 L267.7175775881733 67.59127330113556 L267.3403605760908 68.23841406162622 L267.04879688647884 68.90063832308233 L266.84108736129724 69.56800959715201 L266.7144227536311 70.23118670575106 L266.6650891688048 70.88150988698077 L266.68857864766375 71.51107195481359 L266.77970305725995 72.11277455306079 L266.93270953232826 72.68036974237175 L267.1413958075395 73.2084873407688 L267.3992238930365 73.69264860214989 L267.6994306716126 74.1292669622749 L268.03513413248993 74.51563670729402 L268.39943410144286 74.84991052549547 L268.78550647748216 75.13106698855141 L269.18669014006593 75.3588690743112 L269.5965658455383 75.53381488957106 L270.009026585066 75.6570817789085 L270.41833902675296 75.73046501549045 L270.81919581004854 75.75631226280436 L271.2067585993981 75.7374549737398 L271.5766919348832 75.67713785670857 L271.9251880391415 75.57894748897897 L272.2489828511185 75.44674109663893 L272.54536365737647 75.28457645016292 L272.81216878016164 75.09664374603646 L273.04777985779333 74.88720025988984 L273.25110731697856 74.66050846668634 L273.4215696883234 74.42077823024371 L273.5590674557469 74.17211356921837 L273.66395215798747 73.91846441106264 L273.736991476356 73.66358365069449 L273.77933104788775 73.4109897379173 L273.7924537377447 73.16393492810754 L273.7781370898836 72.92537924534254 L273.7384096514616 72.69797012684155 L273.6755068351158 72.48402764308526 L273.5918269450518 72.28553511987955 L273.48988794879966 72.10413492742695 L273.37228552751725 71.94112914752873 L273.24165288484033 71.79748478360226 L273.10062273846097 71.67384313938757 L272.95179186081504 71.57053296104512 L272.7976884763867 71.48758691372487 L272.640742764056 71.42476094742727 L272.4832606544383 71.38155609780537 L272.3274010550394 71.35724226512602 L272.1751565809505 71.35088351849654 L272.02833781635456 71.3613644821968 L271.8885610828212 71.38741737601423 L271.7572396447028 71.42764930130018 L271.6355782402679 71.48056938846517 L271.52457078982457 71.54461544920521 L271.425001099207 71.61817980728969 L271.3374463487682 71.69963401463437 L271.26228313450747 71.78735219402895 L271.199695809169 71.87973278570425 L271.1496868570078 71.97521851134638 L271.1120890263199 72.07231440566534 L271.08657893859163 72.16960380170352 L271.07269189202526 72.265762191269 L271.0698375799753 72.359568915783 L271.0773164511934 72.44991667507013 L271.0943364483931 72.53581887187059 L271.1200298741749 72.61641483784135 L271.1534701484202 72.69097301231092 L271.19368823850743 72.7588921678846 L271.2396885627405 72.81970079703297 L271.2904641878327 72.87305479095326 L271.3450111627927 72.91873355623281 L271.4023418537465 72.95663472616862 L271.4614971667599 72.98676763204999 L271.5215575682708 73.00924570537008 L271.58165283499943 73.02427798490753 L271.64097048688666 73.03215990305125 L271.6987628774749 73.03326352379307 L271.75435293595507 73.02802740067087 L271.8071385736676 73.01694621681126 L271.85659578499303 73.00056036131117 L271.9022804881683 72.97944558673849 L271.9438291655038 72.95420288175306 L271.98095837468514 72.9254486809855 L272.01346321326423 72.89380552159416 L272.0412148270686 72.85989324257964 L272.06415706007203 72.82432080919153 L272.08230234832433 72.78767883082793 L272.0957269638598 72.75053282690344 L272.10456571618727 72.71341728143373 L272.1090062190739 72.67683051372627 L272.1092828289933 72.64123037973283 L272.1056703589177 72.60703080644694 L272.0984776672267 72.57459915034043 L272.088041216516 72.54425436032618 L272.07471869115227 72.51626591619376 L272.05888275568776 72.49085350495422 L272.04091502885444 72.46818739009494 L272.02120033995317 72.44838942241468 L272.00012132617843 72.43153463589348 L271.9780534209038 72.4176533679478 L271.95536027433997 72.4067338404089 L271.93238963937523 72.3987251356103 L271.90946974694356 72.39354050103304 L271.886906187038 72.39106091597957 L271.864979303591 72.39113885466561 L271.8439421039667 72.39360218186036 L271.8240186768233 72.3982581196905 L271.8054031056658 72.40489722737132 L271.78825885957815 72.41329733934883 L271.7727186374266 72.42322741154484 L271.75888463729984 72.43445123000089 L271.74682921910846 72.44673094112935 L271.73659592510967 72.45983036791371 L271.7282008206571 72.47351808167112 L271.7216341156793 72.4875702043178 L271.716862026249 72.50177292138822 L271.7138288350851 72.5159246912785 L271.7124591099041 72.52983814125213 L271.712660039154 72.54334164560203 L271.71432384579157 72.55628058595525 L271.7173302413414 72.5685182979934 L271.72154888445925 72.57993671280283 L271.72684181055376 72.59043670463626 L271.73306580164916 72.59993816003717 L271.7400746685383 72.60837978603419 L271.747721420327 72.61571867744648 L271.7558602996554 72.62192966524682 L271.7643486651445 72.6270044694139 L271.7730487059106 72.63095068077239 L271.7818289762676 72.63379059698659 L271.7905657419568 72.63555993815622 L271.7991441323624 72.63630646738318 L271.8074590961593 72.63608854126254 L271.8154161606582 72.63497361452637 L271.82293199774415 72.63303672206645 L271.8299348017155 72.63035896031262 L271.8363644865138 72.62702598848307 L271.8421727117659 72.6231265685815 L271.84732274874114 72.6187511612318 L271.85178919873675 72.61399059254468 L271.8555575775618 72.60893480523647 L271.8586237806772 72.60367170520054 L271.86099344418676 72.59828611269523 L271.86268121726005 72.59285882528953 L271.86370996172076 72.5874657977224 L271.8641098944626 72.58217744191194 L271.8639176880794 72.57705804851287 L271.8631755446282 72.5721653296901 L271.86193025680944 72.5675500811631 L271.86023227006285 72.56325596009879 L271.858134758161 72.55931937409733 L271.85569272385953 72.5557694753361 L271.85296213505325 72.55262825291612 L271.84999910570656 72.54991071559682 L271.84685912960714 72.54762515640932 L271.8435963737369 72.54577349010357 L271.8402630368004 72.54435165400803 L271.8369087771979 72.54335006265606 L271.83358021351046 72.54275410645334 L271.8303204993794 72.54254468471768 L271.8271689735357 72.54269876360591 L271.8241608846689 72.54318994974174 L271.8213271898392 72.54398907076106 L271.8186944242306 72.54506475448545 L271.81628463922794 72.54638399900813 L271.81411540508304 72.54791272661456 L271.8121998738127 72.54961631515181 L271.8105468974517 72.55146010119182 L271.8091611963634 72.55340985009217 L271.80804357199105 72.55543218883173 L271.80719115820807 72.55749499827664 L271.8065977052968 72.55956776230175 L271.8062538905456 72.56162187194775 L271.80614764949536 72.56363088352109 L271.8062645219895 72.56557073023824 L271.8065880073712 72.5674198876691 L271.80709992342827 72.56915949383927 L271.80778076399554 72.57077342540546 L271.80861005048394 72.57224833181571 L271.8095666730035 72.57357362980403 L271.81062921717745 72.57474146094762 L271.81177627319937 72.57574661532936 L271.81298672415426 72.57658642460234 L271.81424001110395 72.57726062794458 L271.8155163729177 72.57777121452483 L271.81679705930435 72.57812224617422 L271.81806451596606 72.5783196639785 L271.8193025412436 72.57837108247405 L271.8204964140472 72.57828557505091 L271.82163299327107 72.57807345404456 L271.82270078925603 72.57774604883589 L271.8236900082103 72.57731548508441 L271.8245925707952 72.57679446799467 L271.8254021063557 72.57619607226833 L271.826113924502 72.57553354112592 L271.8267249659402 72.57482009650126 L271.82723373460317 72.57406876221974 L271.8276402132479 72.57329220167578 L271.8279457647624 72.57250257122779 L271.8281530214693 72.57171139023549 L271.82826576472115 72.57092942837863 L271.82828879705966 72.5701666106198 L271.8282278091604 72.56943193991245 L271.82808924370534 72.56873343750901 L271.8278801582231 72.56807810049645 L271.82760808881636 72.56747187597922 L271.82728091655315 72.5669196511442 L271.82690673814534 72.56642525827903 L271.82649374237104 72.56599149367582 L271.82605009352255 72.56562014923678 L271.8255838229808 72.56531205550563 L271.82510272983507 72.5650671347808 L271.82461429128216 72.56488446291957 L271.82412558335847 72.56476233841883 L271.8236432123832 72.56469835735442 L271.82317325731975 72.56468949277668 L271.822721223102 72.56473217719399 L271.82229200482146 72.56482238682571 L271.8218898625316 72.56495572637024 L271.82151840629814 72.5651275131111 L271.82118059101253 72.56533285927134 L271.8208787203843 72.56556675162349 L271.82061445944527 72.56582412746506 L271.8203888548272 72.56609994617877 L271.8202023620197 72.56638925570796 L271.8200548787741 72.56668725339142 L271.81994578379147 72.56698934071453 L271.8198739798198 72.5672911716458 L271.8198379402854 72.56758869433622 L271.8198357585914 72.56787818606328 L271.81986519924254 72.56815628140038 L271.81992374998345 72.56841999368518 L271.82000867418043 72.56866672994569 L271.8201170627235 72.56889429952054 L271.82024588478237 72.56910091667896 L271.82039203680745 72.56928519760666 L271.82055238923374 72.5694461521751 L271.8207238304106 72.56958317095398 L271.8209033073521 72.56969600796035 L271.82108786296993 72.56978475966207 L271.8212746695231 72.56984984076922 L271.8214610580863 72.56989195735467 L271.8216445439057 72.56991207784482 L271.8218228475763 72.56991140241428 L271.82199391203386 72.56989133130338 L271.82215591541274 72.5698534325583 L271.8223072798733 72.5697994096667 L271.82244667654874 72.5697310695327 L271.82257302680466 72.56965029119982 L271.822685500041 72.56955899569382 L271.8227835082973 72.56945911731682 L271.8228666979476 72.56935257668273 L271.82293493879223 72.56924125574105 L271.82298831086683 72.56912697499259 L271.8230270892999 72.56901147305783 L271.823051727553 72.5688963887158 L271.823062839378 72.56878324549047 L271.8230611798209 72.56867343882197 L271.82304762559085 72.56856822582272 L271.82302315510253 72.56846871758353 L271.82298882848283 72.56837587396308 L271.8229457678129 72.56829050076455 L271.82289513785685 72.56821324917807 L271.82283812750455 72.56814461734474 L271.82277593212984 72.56808495387928 L271.82270973704226 72.56803446317292 L271.82264070218076 72.56799321228573 L271.82256994817385 72.56796113922924 L271.8224985438619 72.56793806243486 L271.82242749535254 72.56792369120082 L271.82235773665354 72.56791763691152 L271.8222901219046 72.56791942482648 L271.8222254192053 72.5679285062416 L271.8221643060162 72.56794427083396 L271.82210736608874 72.56796605901174 L271.8220550878647 72.56799317410186 L271.8220078642672 72.56802489422255 L271.8219659937929 72.56806048370134 L271.8219296828051 72.56809920391525 L271.8218990489146 72.56814032344553 L271.8218741253316 72.56818312745612 L271.8218548660635 72.56822692622103 L271.8218411518336 72.56827106274288 L271.821832796591 72.56831491942056 L271.821829554486 72.56835792373971 L271.8218311271842 72.56839955297484 L271.8218371713997 72.56843933790547 L271.8218473065296 72.56847686556273 L271.82186112228163 72.56851178103346 L271.82187818619104 72.56854378836138 L271.82189805093407 72.56857265059291 L271.8219202613524 72.56859818902463 L271.8219443611129 72.5686202817157 L271.82196989893873 72.56863886133475 L271.82199643435405 72.5686539124144 L271.8220235429 72.56866546809044 L271.8220508207855 72.56867360640378 L271.8220778889478 72.56867844624442 L271.8221043965088 72.56868014301625 L271.8221300236197 72.56867888409933 L271.8221544836974 72.56867488418479 L271.82217752506233 72.56866838055367 L271.82219893199675 72.56865962836694 L271.82221852524714 72.56864889602954 L271.82223616200145 72.56863646068615 L271.82225173537654 72.56862260390025 L271.8222651734558 72.56860760756281 L271.82227643791947 72.56859175007017 L271.8222855223139 72.56857530280472 L271.82229245000656 72.56855852694564 L271.82229727187666 72.56854167063038 L271.82230006378836 72.56852496648199 L271.8223009238971 72.56850862951092 L271.82229996983483 72.56849285539464 L271.82229733582153 72.56847781913297 L271.8222931697462 72.56846367407213 L271.8222876302587 72.56845055128599 L271.8222808839109 72.56843855929891 L271.8222731023832 72.56842778413123 L271.8222644598267 72.56841828964494 L271.8222551303506 72.56841011816509 L271.82224528567707 72.56840329134988 L271.8222350929868 72.5683978112812 L271.8222247129684 72.5683936617461 L271.82221429808686 72.56839080967917 L271.8222039910778 72.56838920673569 L271.8221939236746 72.5683887909654 L271.8221842155682 72.56838948855786 L271.82217497359903 72.56839121563081 L271.82216629117664 72.56839388003482 L271.82215824791854 72.56839738314848 L271.8221509094997 72.56840162164099 L271.82214432769996 72.56840648918009 L271.8221385406351 72.56841187806641 L271.8221335731574 72.56841768077672 L271.82212943740774 72.56842379140177 L271.8221261335023 72.56843010696603 L271.8221236503354 72.5684365286197 L271.82212196647976 72.56844296269527 L271.8221210511659 72.56844932162363 L271.82212086532184 72.56845552470668 L271.8221213626555 72.56846149874546 L271.8221224907613 72.56846717852547 L271.82212419223595 72.56847250716157 L271.8221264057865 72.56847743630776 L271.82212906731684 72.56848192623764 L271.8221321109793 72.5684859458034 L271.8221354701795 72.56848947228188 L271.8221390785241 72.5684924911173 L271.8221428707024 72.56849499557113 L271.8221467832943 72.56849698629004 L271.8221507554989 72.56849847080312 L271.822154729779 72.56849946296002 L271.8221586524182 72.56849998232137 L271.82216247398964 72.56850005351312 L271.8221661497354 72.56849970555564 L271.8221696398575 72.56849897117858 L271.82217290972267 72.56849788613152 L271.8221759299836 72.56849648849996 L271.82217867662115 72.56849481803569 L271.82218113091176 72.56849291550934 L271.8221832793253 72.5684908220927 L271.82218511336055 72.56848857877677 L271.82218662932286 72.56848622583126 L271.82218782805285 72.56848380231001 L271.82218871461157 72.56848134560578 L271.82218929792975 72.5684788910573 L271.8221895904289 72.56847647161027 L271.8221896076199 72.5684741175333 L271.82218936768777 72.56847185618894 L271.8221888910671 72.56846971185918 L271.82218820001657 72.56846770562422 L271.8221873181963 72.56846585529243 L271.8221862702557 72.56846417537916 L271.82218508143467 72.56846267713134 L271.8221837771839 72.56846136859448 L271.82218238280774 72.56846025471843 L271.82218092313275 72.56845933749764 L271.82217942220495 72.56845861614204 L271.82217790301814 72.56845808727395 L271.8221763872739 72.5684577451467 L271.82217489517586 72.56845758188058 L271.8221734452572 72.56845758771172 L271.8221720542428 72.56845775124982 L271.8221707369447 72.5684580597405 L271.82216950619016 72.56845849932839 L271.8221683727818 72.56845905531772 L271.82216734548723 72.56845971242652 " stroke = "blue" stroke-width = "4" fill = "none" /></svg>