<svg width="400" height="400" viewbox = "0 0 400 400"  xmlns="http://www.w3.org/2000/svg">

<!--
<json>
{
    "imgurl": "",
    "imgw": 2,
    "imgleft": -1,
    "imgtop": -1,
    "imgangle": 0,
    "svgwidth": 400,
    "svgheight": 400,
    "unit": 146.41000000000008,
    "x0": 684,
    "y0": 351.4475154247304,
    "x0rel": 0,
    "y0rel": -47.5524845752696,
    "glyph": "0331,0331,0336,0330,0337,0224,",
    "table": []
}
</json>
-->
    <line x1="273" y1="372" x2="127" y2="372" style="stroke:black;stroke-width:2" />
    <line x1="127" y1="372" x2="36" y2="258" style="stroke:black;stroke-width:2" />
    <line x1="36" y1="258" x2="68" y2="115" style="stroke:black;stroke-width:2" />
    <line x1="68" y1="115" x2="200" y2="51" style="stroke:black;stroke-width:2" />
    <line x1="200" y1="51" x2="332" y2="115" style="stroke:black;stroke-width:2" />
    <line x1="332" y1="115" x2="364" y2="258" style="stroke:black;stroke-width:2" />
    <line x1="364" y1="258" x2="273" y2="372" style="stroke:black;stroke-width:2" />
    <line x1="127" y1="374" x2="336" y2="112" style="stroke:black;stroke-width:2" />
    <line x1="336" y1="112" x2="34" y2="258" style="stroke:black;stroke-width:2" />
    <line x1="34" y1="258" x2="369" y2="258" style="stroke:black;stroke-width:2" />
    <line x1="369" y1="258" x2="67" y2="112" style="stroke:black;stroke-width:2" />
    <line x1="67" y1="112" x2="276" y2="374" style="stroke:black;stroke-width:2" />
    <line x1="276" y1="374" x2="201" y2="48" style="stroke:black;stroke-width:2" />
    <line x1="201" y1="48" x2="127" y2="374" style="stroke:black;stroke-width:2" />
    <line x1="273" y1="367" x2="330" y2="118" style="stroke:black;stroke-width:2" />
    <line x1="330" y1="118" x2="74" y2="118" style="stroke:black;stroke-width:2" />
    <line x1="74" y1="118" x2="131" y2="367" style="stroke:black;stroke-width:2" />
    <line x1="131" y1="367" x2="361" y2="256" style="stroke:black;stroke-width:2" />
    <line x1="361" y1="256" x2="202" y2="56" style="stroke:black;stroke-width:2" />
    <line x1="202" y1="56" x2="42" y2="256" style="stroke:black;stroke-width:2" />
    <line x1="42" y1="256" x2="273" y2="367" style="stroke:black;stroke-width:2" />
    <circle cx="126" cy = "372" r = "18.301250000000014" stroke = "black" stroke-width = "2" fill = "black" />
    <circle cx="35" cy = "258" r = "18.301250000000014" stroke = "red" stroke-width = "2" fill = "red" />
    <circle cx="68" cy = "115" r = "18.301250000000014" stroke = "orange" stroke-width = "2" fill = "orange" />
    <circle cx="199" cy = "51" r = "18.301250000000014" stroke = "yellow" stroke-width = "2" fill = "yellow" />
    <circle cx="331" cy = "115" r = "18.301250000000014" stroke = "green" stroke-width = "2" fill = "black" />
    <circle cx="364" cy = "258" r = "18.301250000000014" stroke = "blue" stroke-width = "2" fill = "blue" />
    <circle cx="273" cy = "372" r = "18.301250000000014" stroke = "purple" stroke-width = "2" fill = "purple" />
</svg>