<svg width="500" height="500" viewbox = "0 0 500 500"  xmlns="http://www.w3.org/2000/svg">

<!--
<json>
{
    "imgurl": "",
    "imgw": 4.809480018231663,
    "imgleft": -3.1768042421344775,
    "imgtop": -0.6768042421344779,
    "imgangle": -45,
    "svgwidth": 500,
    "svgheight": 500,
    "unit": 100,
    "x0": 752.5,
    "y0": 439,
    "x0rel": 0,
    "y0rel": 0,
    "glyph": "0210,0336,0332,0332,0232,0233,0231,",
    "table": []
}
</json>
-->
	<path d = "M101 188 L97 167 L91 179 L79 185 L101 188 Z" stroke = "black" stroke-width = "4" fill = "black" />    <line x1="101" y1="188" x2="39" y2="126" style="stroke:black;stroke-width:4" />
    <line x1="101" y1="188" x2="163" y2="250" style="stroke:black;stroke-width:4" />
	<path d = "M101 312 L122 308 L110 302 L104 290 L101 312 Z" stroke = "black" stroke-width = "4" fill = "black" />    <line x1="101" y1="312" x2="163" y2="250" style="stroke:black;stroke-width:4" />
    <line x1="101" y1="312" x2="39" y2="374" style="stroke:black;stroke-width:4" />
<path    d = "M163,250 C165,245 165,242 168,242" fill = "none" stroke-width = "4" stroke = "blue" /><path    d = "M168,242 C174,242 174,258 179,258" fill = "none" stroke-width = "4" stroke = "blue" /><path    d = "M179,258 C184,258 184,242 190,242" fill = "none" stroke-width = "4" stroke = "blue" /><path    d = "M190,242 C195,242 195,258 201,258" fill = "none" stroke-width = "4" stroke = "blue" /><path    d = "M201,258 C206,258 206,242 212,242" fill = "none" stroke-width = "4" stroke = "blue" /><path    d = "M212,242 C217,242 217,258 223,258" fill = "none" stroke-width = "4" stroke = "blue" /><path    d = "M223,258 C228,258 228,242 234,242" fill = "none" stroke-width = "4" stroke = "blue" /><path    d = "M234,242 C239,242 239,258 245,258" fill = "none" stroke-width = "4" stroke = "blue" /><path    d = "M245,258 C250,258 250,242 255,242" fill = "none" stroke-width = "4" stroke = "blue" /><path    d = "M255,242 C261,242 261,258 266,258" fill = "none" stroke-width = "4" stroke = "blue" /><path    d = "M266,258 C272,258 272,242 277,242" fill = "none" stroke-width = "4" stroke = "blue" /><path    d = "M277,242 C283,242 283,258 288,258" fill = "none" stroke-width = "4" stroke = "blue" /><path    d = "M288,258 C294,258 294,242 299,242" fill = "none" stroke-width = "4" stroke = "blue" /><path    d = "M299,242 C305,242 305,258 310,258" fill = "none" stroke-width = "4" stroke = "blue" /><path    d = "M310,258 C316,258 316,242 321,242" fill = "none" stroke-width = "4" stroke = "blue" /><path    d = "M321,242 C326,242 326,258 332,258" fill = "none" stroke-width = "4" stroke = "blue" /><path    d = "M332,258 C337,258 337,242 343,242" fill = "none" stroke-width = "4" stroke = "blue" /><path    d = "M343,242 C346,242 346,245 348,250" fill = "none" stroke-width = "4" stroke = "blue" />	<path d = "M410 188 L432 185 L420 179 L414 167 L410 188 Z" stroke = "black" stroke-width = "4" fill = "black" />    <line x1="410" y1="188" x2="472" y2="126" style="stroke:black;stroke-width:4" />
    <line x1="410" y1="188" x2="348" y2="250" style="stroke:black;stroke-width:4" />
	<path d = "M410 312 L407 290 L401 302 L389 308 L410 312 Z" stroke = "black" stroke-width = "4" fill = "black" />    <line x1="410" y1="312" x2="348" y2="250" style="stroke:black;stroke-width:4" />
    <line x1="410" y1="312" x2="472" y2="374" style="stroke:black;stroke-width:4" />
</svg>