<svg width="500" height="350" viewbox = "0 0 500 350"  xmlns="http://www.w3.org/2000/svg">

<!--
<json>
{
    "imgurl": "",
    "imgw": 2.983971328437751,
    "imgleft": -1.4873205904167783,
    "imgtop": -1.0519856642188752,
    "imgangle": 0,
    "svgwidth": 500,
    "svgheight": 350,
    "unit": 100,
    "x0": 684,
    "y0": 399,
    "x0rel": 0,
    "y0rel": 0,
    "glyph": "0211,0211,0211,0336,0332,0337,0322,0335,0306,0332,0362,0333,0331,0345,0330,0335,0346,0334,0334,0346,0363,0335,0335,0335,0335,0332,0362,0333,0331,0345,0330,0335,0346,0334,0334,0346,0363,0335,0335,0335,0335,",
    "table": []
}
</json>
-->
	<path d = "M250 45 M250.00000000000003 45.29743674227481           A149.7676196228642 149.7676196228642 0 0 1 250.00000000000003 304.70256325772516M474.65142943429635 175           A149.7676196228642 149.7676196228642 0 0 1 250.00000000000006 304.70256325772516M250.00000000000006 45.29743674227481           A149.7676196228642 149.7676196228642 0 0 1 474.65142943429635 175Z" stroke = "red" stroke-width = "4" fill = "red" />	<path d = "M250 305 M249.9999999999999 304.70256325772516           A149.7676196228642 149.7676196228642 0 0 1 249.99999999999983 45.29743674227481M25.348570565703596 175.00000000000003           A149.7676196228642 149.7676196228642 0 0 1 249.9999999999998 45.297436742274755M249.99999999999986 304.7025632577252           A149.7676196228642 149.7676196228642 0 0 1 25.348570565703596 175.00000000000003Z" stroke = "red" stroke-width = "4" fill = "red" /></svg>