<svg width="500" height="350" viewbox = "0 0 500 350"  xmlns="http://www.w3.org/2000/svg">

<!--
<json>
{
    "imgurl": "",
    "imgw": 2.983971328437751,
    "imgleft": -1.4873205904167783,
    "imgtop": -1.0519856642188752,
    "imgangle": 0,
    "svgwidth": 500,
    "svgheight": 350,
    "unit": 100,
    "x0": 734,
    "y0": 549,
    "x0rel": 50,
    "y0rel": 150,
    "glyph": "0336,0336,0336,0330,0330,0337,0337,0337,0211,0211,0337,0200,0311,0336,0335,0200,0334,0333,0337,0201,0334,0336,0201,0335,0337,0331,0336,0333,0330,0336,0200,0332,0330,0336,0331,0200,0336,0331,0337,0332,0336,0333,0200,0336,0333,0200,0332,0337,0332,0337,0337,0337,0331,0337,0350,0334,0333,0334,0334,0343,0334,0336,0336,0330,0334,0337,0343,0334,0336,0336,0330,0334,0337,0343,0334,0336,0336,0330,0334,0337,0343,0334,0336,0336,0330,0334,0337,0343,0334,0336,0336,0330,0334,0337,0343,",
    "table": []
}
</json>
-->
	<path d = "M300 300 L300 38 L38 38 L38 300 L300 300 Z" stroke = "black" stroke-width = "6" fill = "none" />	<path d = "M300 300 L462 300 L462 138 L300 138 L300 300 Z" stroke = "black" stroke-width = "6" fill = "none" />    <line x1="462" y1="300" x2="462" y2="38" style="stroke:black;stroke-width:6" />
    <line x1="462" y1="38" x2="300" y2="38" style="stroke:black;stroke-width:6" />
	<path d = "M462 138 L462 38 L362 38 L362 138 L462 138 Z" stroke = "black" stroke-width = "6" fill = "none" />	<path d = "M362 100 L362 38 L300 38 L300 100 L362 100 Z" stroke = "black" stroke-width = "6" fill = "none" />	<path d = "M338 138 L338 100 L300 100 L300 138 L338 138 Z" stroke = "black" stroke-width = "6" fill = "none" />	<path d = "M362 138 L362 115 L338 115 L338 138 L362 138 Z" stroke = "black" stroke-width = "6" fill = "none" />  <path d="M300.00000000000136 300.00000000000136           A261.80339887498945 261.80339887498945 0 0 1 38.19660112500907 38.196601125016144" fill = "none" stroke = "black" stroke-width = "6" />
  <path d="M461.80339887498906 138.196601125011           A161.80339887498945 161.80339887498945 0 0 1 300.00000000000136 300.00000000000136" fill = "none" stroke = "black" stroke-width = "6" />
  <path d="M361.80339887498906 38.19660112501157           A99.99999999999997 99.99999999999997 0 0 1 461.80339887498906 138.196601125011" fill = "none" stroke = "black" stroke-width = "6" />
  <path d="M299.9999999999996 100.00000000000071           A61.80339887498947 61.80339887498947 0 0 1 361.80339887498906 38.19660112501157" fill = "none" stroke = "black" stroke-width = "6" />
  <path d="M338.1966011250097 138.1966011250114           A38.1966011250105 38.1966011250105 0 0 1 299.9999999999996 100.00000000000071" fill = "none" stroke = "black" stroke-width = "6" />
  <path d="M361.8033988749889 114.58980337503283           A23.606797749978963 23.606797749978963 0 0 1 338.1966011250097 138.1966011250114" fill = "none" stroke = "black" stroke-width = "6" />
</svg>