<svg width="400" height="400" viewbox = "0 0 400 400"  xmlns="http://www.w3.org/2000/svg">

<!--
<topfunctions>




function YofX(){
    X = plotparams.g*(x - plotparams.x0) - funcparams.X0;
    Y = 0.5*X*(1 + Math.tanh(X + funcparams.Delta));
    y = plotparams.y0 - plotparams.G*(Y - funcparams.Y0);
}



function plotfunction(){
/*

    currentStroke = "blue";
    currentLineWidth = 4;
    ctx.strokeStyle = currentStroke;
    ctx.lineWidth = currentLineWidth;
    ctx.beginPath();	
    x = 0;
    y = 0;
    t= 0;
    XYofT();
    currentSVG += "	<path d = \"M";
    currentSVG += Math.round(x).toString() + " ";
    currentSVG += Math.round(y).toString() + " ";
    for(t = 1;t < plotparams.duration;t++){
        ctx.moveTo(x,y);
        XYofT();
        ctx.lineTo(x,y);
        currentSVG += "L" + x + " " + y + " ";
    }
    ctx.stroke();
    currentSVG += "\""+ " stroke = \"" + currentStroke + "\" stroke-width = \"" + currentLineWidth.toString() + "\" fill = \"" + "none" + "\" "+"/>";


    /*plot one function:*/
    currentStroke = "blue";
    currentLineWidth = 4;
    ctx.strokeStyle = currentStroke;
    ctx.lineWidth = currentLineWidth;
    ctx.beginPath();	
    x = 0;
    YofX();
    currentSVG += "	<path d = \"M";
    currentSVG += Math.round(x).toString() + " ";
    currentSVG += Math.round(y).toString() + " ";
    for(x = 1;x < plotparams.plotwidth;x++){
        ctx.moveTo(x-1,y);
        YofX();
        ctx.lineTo(x,y);
        currentSVG += "L" + x + " " + y + " ";
    }
    ctx.stroke();
    currentSVG += "\""+ " stroke = \"" + currentStroke + "\" stroke-width = \"" + currentLineWidth.toString() + "\" fill = \"" + "none" + "\" "+"/>";
    /*finish plot one function*/
    

}






























</topfunctions>
-->

<!--
<imgurl>

</imgurl>
-->

<!--
<currentjson>
{
    "constants": {},
    "imgurl": "",
    "plotparams": {
        "G": 24.129466340540677,
        "g": 0.06830134553650705,
        "duration": 545.4545454545454,
        "plotwidth": 400,
        "plotheight": 400,
        "x0": 200,
        "y0": 273.2053821460282
    },
    "funcparams": {
        "a": 0.12727272727272726,
        "Delta": 5,
        "b": 0,
        "c": 0,
        "X0": 0,
        "Y0": 0
    }
}
</currentjson>
-->

<!--
<equation>





<h2>X  times Hyperbolic Cotangent</h2>
<p style="color:blue">

</p><p class="bigeq">
$$
Y = \frac{1}{2}X(1 + \tanh{(X + \Delta)})$$
</p>
<p></p>

$$
X = g(x - x_0) - X_0
$$
$$
Y = f(X)
$$
    
$$
y = y_0 - G(Y - Y_0)
$$


<p>
    X and Y, and $X_0$ and $Y_0$ in physical units of the System. x and y and x0 and y0 in pixels.  G is in pixels per Y unit and g is in X units per pixel. 
</p>






</equation>
-->
	<path d = "M0 273 L1 273.20539344246987 L2 273.20539503088423 L3 273.20539684227373 L4 273.2053989078815 L5 273.2054012633199 L6 273.2054039491799 L7 273.2054070117257 L8 273.2054105036859 L9 273.20541448515456 L10 273.205419024618 L11 273.2054242001237 L12 273.2054301006122 L13 273.20543682743386 L14 273.2054444960761 L15 273.2054532381306 L16 273.2054632035333 L17 273.20547456311556 L18 273.20548751150835 L19 273.20550227045 L20 273.20551909255107 L21 273.20553826558194 L22 273.20556011735323 L23 273.20558502127176 L24 273.20561340266556 L25 273.2056457459831 L26 273.2056826029877 L27 273.2057246020846 L28 273.20577245893577 L29 273.20582698854014 L30 273.20588911898085 L31 273.2059599070687 L32 273.20604055614194 L33 273.2061324363192 L34 273.20623710754154 L35 273.20635634578673 L36 273.2064921728903 L37 273.2066468904682 L38 273.20682311850163 L39 273.20702383922327 L40 273.2072524470291 L41 273.20751280523973 L42 273.207809310647 L43 273.208146966908 L44 273.2085314679934 L45 273.2089692930614 L46 273.2094678143117 L47 273.21003541958777 L48 273.210681651731 L49 273.2114173669649 L50 273.21225491489014 L51 273.213208343023 L52 273.2142936292013 L53 273.21552894563007 L54 273.216934958844 L55 273.2185351704362 L56 273.2203563040534 L57 273.2224287448853 L58 273.2247870387126 L59 273.22747045850826 L60 273.2305236476511 L61 273.23399735000254 L62 273.2379492384489 L63 273.24244485503243 L64 273.24755867750724 L65 273.2533753290859 L66 273.25999095031085 L67 273.2675147544204 L68 273.27607079030776 L69 273.2857999402289 L70 273.2968621828288 L71 273.3094391558608 L72 273.32373705720477 L73 273.3399899274799 L74 273.3584633627228 L75 273.3794587112969 L76 273.4033178154232 L77 273.4304283644851 L78 273.46122993455765 L79 273.4962207963911 L80 273.53596558229435 L81 273.5811039108711 L82 273.63236007720707 L83 273.69055392460024 L84 273.75661302191304 L85 273.83158627756444 L86 273.91665912637444 L87 274.0131704279578 L88 274.1226312138866 L89 274.2467454137371 L90 274.3874326752817 L91 274.54685336873484 L92 274.72743582565136 L93 274.9319058054701 L94 275.16331810144067 L95 275.4250900862418 L96 275.7210368482075 L97 276.0554073726016 L98 276.43292096845255 L99 276.8588028187281 L100 277.3388171283461 L101 277.879295849569 L102 278.487160368954 L103 279.1699328403638 L104 279.9357330493907 L105 280.7932558144447 L106 281.7517230076687 L107 282.8208033822689 L108 284.0104926269833 L109 285.3309455851884 L110 286.79225258102304 L111 288.4041525480117 L112 290.17567746233203 L113 292.11472576750043 L114 294.227567333879 L115 296.5182892112205 L116 298.98819997835926 L117 301.6352205070521 L118 304.4532996177838 L119 307.43190306781844 L120 310.55563173003117 L121 313.80402753133467 L122 317.15162160848706 L123 320.5682666790615 L124 324.01977448046426 L125 327.4688506582154 L126 330.8762869216003 L127 334.2023384290193 L128 337.4081887239814 L129 340.4573900900872 L130 343.31716708710303 L131 345.9594857054155 L132 348.3618175485709 L133 350.5075629230373 L134 352.3861327707433 L135 353.9927214104381 L136 355.3278259128246 L137 356.3965815738375 L138 357.2079864328717 L139 357.7740828052872 L140 358.10915297235573 L141 358.22897230425104 L142 358.1501486415709 L143 357.88956353635473 L144 357.46392003489285 L145 356.88939350624184 L146 356.18137653500526 L147 355.3543057575295 L148 354.42155723893995 L149 353.3953970517427 L150 352.28697466084316 L151 351.1063481649972 L152 349.862532105204 L153 348.56356022822416 L154 347.21655716318224 L155 345.8278143621431 L156 344.4028668427831 L157 342.94656825054915 L158 341.4631625428134 L159 339.95635121077044 L160 338.4293554217212 L161 336.8849728104864 L162 335.32562889759254 L163 333.753423284351 L164 332.1701708885816 L165 330.57743855402003 L166 328.97657740302895 L167 327.3687513153039 L168 325.75496191193565 L169 324.1360704098673 L170 322.5128166905127 L171 320.88583590105344 L172 319.2556728798275 L173 317.62279466976906 L174 315.98760135705476 L175 314.35043544661823 L176 312.71158996240564 L177 311.07131543835646 L178 309.4298259461898 L179 307.78730428813213 L180 306.14390646666465 L181 304.4997655290859 L182 302.85499487204123 L183 301.20969108002873 L184 299.5639363621003 L185 297.9178006424073 L186 296.27134335275093 L187 294.62461496877137 L188 292.97765832573396 L189 291.3305097449379 L190 289.68319999749974 L191 288.03575512855735 L192 286.38819716173924 L193 284.7405447009719 L194 283.0928134443084 L195 281.4450166223976 L196 279.7971653724347 L197 278.1492690568995 L198 276.50133553507226 L199 274.8533713941769 L200 273.2053821460282 L201 271.55737239421705 L202 269.9093459761467 L203 268.26130608361433 L204 266.61325536509736 L205 264.96519601245 L206 263.3171298343216 L207 261.6690583182734 L208 260.0209826832822 L209 258.37290392407243 L210 256.7248228485068 L211 255.07674010908582 L212 253.42865622945007 L213 251.78057162664794 L214 250.13248662981817 L215 248.48440149583934 L216 246.83631642241642 L217 245.18823155900355 L218 243.54014701590236 L219 241.89206287182358 L220 240.2439791801559 L221 238.59589597414907 L222 236.94781327118648 L223 235.29973107629456 L224 233.651649385015 L225 232.00356818574497 L226 230.35548746163417 L227 228.70740719211403 L228 227.05932735412202 L229 225.41124792307374 L230 223.76316887362765 L231 222.11509018027908 L232 220.46701181781526 L233 218.81893376165633 L234 217.17085598810493 L235 215.52277847452152 L236 213.87470119944052 L237 212.22662414263976 L238 210.5785472851728 L239 208.93047060937278 L240 207.28239409883474 L241 205.63431773838118 L242 203.98624151401623 L243 202.33816541287118 L244 200.690089423145 L245 199.0420135340413 L246 197.39393773570436 L247 195.74586201915474 L248 194.09778637622628 L249 192.44971079950494 L250 190.8016352822695 L251 189.15355981843598 L252 187.50548440250407 L253 185.8574090295075 L254 184.2093336949673 L255 182.56125839484827 L256 180.91318312551874 L257 179.26510788371326 L258 177.61703266649835 L259 175.9689574712408 L260 174.32088229557903 L261 172.67280713739655 L262 171.02473199479786 L263 169.3766568660866 L264 167.7285817497454 L265 166.0805066444181 L266 164.4324315488932 L267 162.78435646208888 L268 161.13628138303986 L269 159.48820631088526 L270 157.84013124485745 L271 156.19205618427256 L272 154.54398112852135 L273 152.89590607706162 L274 151.24783102941055 L275 149.59975598513887 L276 147.9516809438648 L277 146.30360590524887 L278 144.65553086898953 L279 143.0074558348188 L280 141.35938080249886 L281 139.7113057718184 L282 138.06323074259 L283 136.4151557146474 L284 134.76708068784302 L285 133.1190056620461 L286 131.47093063714067 L287 129.82285561302388 L288 128.17478058960478 L289 126.52670556680269 L290 124.87863054454613 L291 123.23055552277188 L292 121.58248050142387 L293 119.93440548045263 L294 118.28633045981428 L295 116.63825543946999 L296 114.9901804193855 L297 113.3421053995304 L298 111.69403037987792 L299 110.04595536040429 L300 108.39788034108855 L301 106.74980532191219 L302 105.10173030285884 L303 103.45365528391403 L304 101.80558026506495 L305 100.15750524630042 L306 98.50943022761035 L307 96.86135520898603 L308 95.21328019041968 L309 93.56520517190444 L310 91.91713015343427 L311 90.26905513500381 L312 88.62098011660834 L313 86.97290509824376 L314 85.32483007990635 L315 83.67675506159293 L316 82.02868004330062 L317 80.38060502502691 L318 78.73253000676962 L319 77.08445498852669 L320 75.4363799702966 L321 73.78830495207757 L322 72.14022993386845 L323 70.49215491566804 L324 68.84407989747527 L325 67.1960048792892 L326 65.54792986110908 L327 63.89985484293422 L328 62.251779824763844 L329 60.603704806597506 L330 58.955629788434834 L331 57.3075547702752 L332 55.65947975211836 L333 54.01140473396393 L334 52.36332971581166 L335 50.71525469766124 L336 49.06717967951238 L337 47.41910466136511 L338 45.77102964321901 L339 44.12295462507416 L340 42.47487960693016 L341 40.82680458878704 L342 39.178729570644805 L343 37.53065455250311 L344 35.882579534362065 L345 34.234504516221534 L346 32.58642949808146 L347 30.93835447994175 L348 29.290279461802385 L349 27.642204443663417 L350 25.99412942552462 L351 24.346054407386134 L352 22.69797938924782 L353 21.049904371109704 L354 19.401829352971788 L355 17.7537543348339 L356 16.105679316696296 L357 14.457604298558692 L358 12.809529280421202 L359 11.161454262283769 L360 9.513379244146506 L361 7.865304226009243 L362 6.217229207871981 L363 4.569154189734888 L364 2.9210791715977393 L365 1.273004153460704 L366 -0.37507086467633144 L367 -2.023145882813367 L368 -3.6712209009502885 L369 -5.319295919087267 L370 -6.967370937224132 L371 -8.615445955361054 L372 -10.263520973497975 L373 -11.911595991634897 L374 -13.559671009771762 L375 -15.20774602790857 L376 -16.85582104604549 L377 -18.5038960641823 L378 -20.151971082319108 L379 -21.800046100455916 L380 -23.448121118592837 L381 -25.09619613672959 L382 -26.744271154866397 L383 -28.392346173003205 L384 -30.040421191140013 L385 -31.688496209276877 L386 -33.336571227413685 L387 -34.98464624555044 L388 -36.6327212636873 L389 -38.28079628182405 L390 -39.92887129996086 L391 -41.57694631809761 L392 -43.22502133623442 L393 -44.87309635437123 L394 -46.52117137250798 L395 -48.169246390644844 L396 -49.817321408781595 L397 -51.4653964269184 L398 -53.11347144505521 L399 -54.76154646319196 " stroke = "blue" stroke-width = "4" fill = "none" /></svg>