<svg width="500" height="500" viewbox = "0 0 500 500"  xmlns="http://www.w3.org/2000/svg">

<!--
<json>
{
    "imgurl": "",
    "imgw": 2,
    "imgleft": -1,
    "imgtop": -1,
    "imgangle": 0,
    "svgwidth": 500,
    "svgheight": 500,
    "unit": 100,
    "x0": 615.5,
    "y0": 359,
    "x0rel": 0,
    "y0rel": 0,
    "glyph": "0337,0341,0304,0336,0350,0330,0341,0331,0335,0330,0341,0331,0335,0330,0341,0331,0335,0330,0341,0331,0335,0330,0341,0331,0335,0330,0341,0331,0335,0330,0341,0331,0335,0330,0341,0331,0335,0310,0337,0341,0336,0336,0337,0337,0337,0342,0335,0342,0335,0342,0335,0342,0335,0342,0335,0342,0335,0342,0335,0342,",
    "table": []
}
</json>
-->
    <circle cx="250" cy = "250" r = "200" stroke = "black" stroke-width = "4" fill = "none" />
    <circle cx="250" cy = "150" r = "100" stroke = "black" stroke-width = "4" fill = "none" />
    <circle cx="321" cy = "179" r = "100" stroke = "black" stroke-width = "4" fill = "none" />
    <circle cx="350" cy = "250" r = "100" stroke = "black" stroke-width = "4" fill = "none" />
    <circle cx="321" cy = "321" r = "100" stroke = "black" stroke-width = "4" fill = "none" />
    <circle cx="250" cy = "350" r = "100" stroke = "black" stroke-width = "4" fill = "none" />
    <circle cx="179" cy = "321" r = "100" stroke = "black" stroke-width = "4" fill = "none" />
    <circle cx="150" cy = "250" r = "100" stroke = "black" stroke-width = "4" fill = "none" />
    <circle cx="179" cy = "179" r = "100" stroke = "black" stroke-width = "4" fill = "none" />
    <circle cx="250" cy = "250" r = "141.4213562373095" stroke = "black" stroke-width = "4" fill = "none" />
    <line x1="250" y1="250" x2="250" y2="50" style="stroke:black;stroke-width:4" />
    <line x1="250" y1="250" x2="391" y2="109" style="stroke:black;stroke-width:4" />
    <line x1="250" y1="250" x2="450" y2="250" style="stroke:black;stroke-width:4" />
    <line x1="250" y1="250" x2="391" y2="391" style="stroke:black;stroke-width:4" />
    <line x1="250" y1="250" x2="250" y2="450" style="stroke:black;stroke-width:4" />
    <line x1="250" y1="250" x2="109" y2="391" style="stroke:black;stroke-width:4" />
    <line x1="250" y1="250" x2="50" y2="250" style="stroke:black;stroke-width:4" />
    <line x1="250" y1="250" x2="109" y2="109" style="stroke:black;stroke-width:4" />
</svg>