<svg width="400" height="400" viewbox = "0 0 400 400"  xmlns="http://www.w3.org/2000/svg">

<!--
<topfunctions>






function XYofT(){
    T = plotparams.g*t;
    X = Math.exp(-T/funcparams.tau)*Math.cos(2*Math.PI*T/funcparams.T);
    Y = Math.exp(-T/funcparams.tau)*Math.sin(2*Math.PI*T/funcparams.T);
    y = plotparams.y0 - plotparams.G*(Y - funcparams.Y0);
    x = plotparams.x0 - plotparams.G*(X - funcparams.X0);    
}


function plotfunction(){


    currentStroke = "blue";
    currentLineWidth = 4;
    ctx.strokeStyle = currentStroke;
    ctx.lineWidth = currentLineWidth;
    ctx.beginPath();	
    x = 0;
    y = 0;
    t= 0;
    XYofT();
    currentSVG += "	<path d = \"M";
    currentSVG += Math.round(x).toString() + " ";
    currentSVG += Math.round(y).toString() + " ";
    for(t = 1;t < plotparams.duration;t++){
        ctx.moveTo(x,y);
        XYofT();
        ctx.lineTo(x,y);
        currentSVG += "L" + x + " " + y + " ";
    }
    ctx.stroke();
    currentSVG += "\""+ " stroke = \"" + currentStroke + "\" stroke-width = \"" + currentLineWidth.toString() + "\" fill = \"" + "none" + "\" "+"/>";


}
























</topfunctions>
-->

<!--
<imgurl>

</imgurl>
-->

<!--
<currentjson>
{
    "constants": {},
    "imgurl": "",
    "plotparams": {
        "G": 611.2716867218143,
        "g": 1.798587899092136,
        "duration": 410.377496908862,
        "plotwidth": 400,
        "plotheight": 400,
        "x0": 204.22402,
        "y0": 207.0463121396247
    },
    "funcparams": {
        "tau": 46.65073802097332,
        "T": 100,
        "X0": 0,
        "Y0": 0
    }
}
</currentjson>
-->

<!--
<equation>


<h2>General Log Spiral</h2>
<p>

</p>
<p class="bigeq">
$$
(X,Y) = (e^{-t/\tau}\cos{\frac{2\pi t}{T}},e^{-t/\tau}\sin{\frac{2\pi t}{T}})
$$
</p>
<p></p>

$$
X = g(x - x_0) - X_0
$$
$$
Y = f(X)
$$
    
$$
y = y_0 - G(Y - Y_0)
$$


<p>
    X and Y, and $X_0$ and $Y_0$ in physical units of the System. x and y and x0 and y0 in pixels.  G is in pixels per Y unit and g is in X units per pixel. 
</p>



</equation>
-->
	<path d = "M-407 207 L-380.1773823948414 140.7213367072235 L-347.29178561978904 80.22738857924628 L-309.28798305220664 25.960828480411436 L-267.06665276191086 -21.796745095142967 L-221.51943516371534 -62.87383867518432 L-173.51738354006062 -97.20324319709803 L-123.90055381108755 -124.81521610207525 L-73.46879168272005 -145.82983358687832 L-22.97375457901566 -160.44867941083047 L26.887813933937394 -168.9460333998662 L75.47955800510843 -171.65971753938734 L122.2297495069336 -168.98175052324095 L166.6343276494382 -161.34895305532055 L208.25878562350778 -149.23363631530842 L246.73896397919015 -133.134495033935 L281.780820997578 -113.56781480634979 L313.15925912145303 -91.05909082986355 L340.71609357935756 -66.1351424013744 L364.357254702105 -39.316794456687774 L384.0493191429779 -11.112184372574035 L399.81546734472226 17.98926063759785 L411.73096523597667 47.5221427585079 L419.9182673889752 77.04968873388316 L424.5418368426883 106.1676117099932 L425.80277361357093 134.50724125408988 L423.93333970903495 161.7379329593415 L419.19146336040495 187.56877807441333 L411.8552993384347 211.7496416724558 L402.21791574177985 234.0715649607148 L390.58217069174486 254.36657340460127 L377.2558350564783 272.50693739088143 L362.547009790945 288.4039361902784 L346.7598788355912 302.0061790202243 L330.1908308792923 313.2975390859731 L313.12497576515693 322.2947576357532 L295.8330739960303 329.04477535552394 L278.5688907652009 333.62184791161064 L261.5669792716905 336.12450119201856 L245.0408918428505 336.67237987173223 L229.1818116334025 335.40304040975616 L214.157592442563 332.46873655448485 L200.11218952206212 328.03324196886626 L187.16546016026007 322.26875076743704 L175.41330933404677 315.35289266229415 L164.92815282459125 307.4658951210033 L155.75966789058464 298.78792051995873 L147.93579987094816 289.49660180167126 L141.4639919285281 279.76479567932967 L136.33260452135926 269.75856803721916 L132.51249106743876 259.6354219061892 L129.95869661687092 249.54277429856387 L128.61224712216222 239.61668430982903 L128.4019980608844 229.98083127210737 L129.24651267025988 220.74573840756887 L131.05594185444158 212.00823440307798 L133.73387987572812 203.85114262902903 L137.17917219406573 196.34318536806268 L141.28765422902828 189.539088410189 L145.95380234037503 183.47986971147634 L151.07228091438535 178.19329450066283 L156.5393720628082 173.69447824411296 L162.2542770514292 169.98661823264473 L168.12028114087207 167.0618342185102 L174.04577601146184 164.90209848868508 L179.945136328339 163.48023599042918 L185.73944925762805 162.76097560350127 L191.35709784805968 162.7020343554317 L196.73420112740015 163.25521727566624 L201.81491551535063 164.3675166542159 L206.55160371378147 165.982195683373 L210.90487859422106 168.0398427898408 L214.84353075765713 170.4793843824612 L218.34434939222706 173.239045221574 L221.3918468024325 176.2572471349277 L223.97789753388895 179.47343833835183 L226.10130337742677 182.82884714500122 L227.7672957148302 186.2671553445695 L228.98698667661944 189.73508798498145 L229.7767804326013 193.1829176772841 L230.15775564218495 196.56488285540166 L230.15502966839998 199.8395206438674 L229.7971146225614 202.9699161084966 L229.11527467141514 205.92387067923949 L228.1428933213492 208.6739934352264 L226.9148586108037 211.197719725374 L225.46697330800015 213.47726226183377 L223.83539634172237 215.4995003678021 L222.05612080266133 217.25581348718984 L220.16449295552488 218.74186537431464 L218.19477581053877 219.9573455814272 L216.17975992892326 220.90567495601118 L214.1504232910894 221.59368185495728 L212.13564124817148 222.03125568630466 L210.16194681536487 222.23098420938945 L208.2533408564097 222.20778076959985 L206.43115105823335 221.97850732354368 L204.71393800778725 221.5615987335662 L203.11744616283178 220.97669338656127 L201.65459705701267 220.24427473021282 L200.33552169811884 219.3853278293172 L199.16762880693827 218.4210145345212 L198.15570530172295 217.37237033413356 L197.30204525812673 216.26002543461908 L196.6066034639988 215.1039520944126 L196.06716963932178 213.9232397256314 L195.67955939998785 212.73589878530078 L195.43781810563064 211.55869400732342 L195.33443384158963 210.40700708339514 L195.3605559381812 209.29472848943252 L195.5062156214845 208.23417777715014 L195.76054561338304 207.2360513107926 L196.11199574916193 206.30939612857708 L196.54854195310418 205.46160834834942 L197.0578862009283 204.69845431785856 L197.62764539740175 204.02411253188578 L198.24552740312603 203.44123420061837 L198.89949275166853 202.95102025503962 L199.57790090259556 202.5533125141532 L200.2696401735719 202.2466967136094 L200.96424078196165 202.02861510345667 L201.651970700122 201.89548636170286 L202.32391428607593 201.8428306373285 L202.97203389016204 201.86539762834332 L203.58921485669117 201.95729571430968 L204.16929453611925 202.11212029528457 L204.70707609670805 202.3230796371533 L205.19832807442344 202.58311668366352 L205.639770725615 202.8850254650075 L206.0290503488933 203.22156090853676 L206.36470282094498 203.58554103625633 L206.6461076464783 203.96994071343744 L206.87343385601093 204.36797629049755 L207.0475790979624 204.77318065392504 L207.17010326486604 205.17946836940803 L207.24315796899828 205.5811907596282 L207.2694131419975 205.9731809088201 L207.25198197787606 206.35078872483842 L207.19434537103865 206.70990631603834 L207.1002769223802 207.0469840539169 L206.97376949911737 207.3590377925892 L206.8189642395663 207.6436478024127 L206.64008279443425 207.8989500472735 L206.44136349309176 208.12362049326458 L206.22700201840783 208.31685318095512 L206.0010970686316 208.47833282458487 L205.76760138094613 208.6082027198801 L205.5302783900362 208.7070287484731 L205.29266469749672 208.77576026192918 L205.0580384352223 208.81568861304137 L204.82939351896923 208.82840407733158 L204.60941970783702 208.8157518746238 L204.4004883120988 208.77978796020986 L204.20464332608972 208.72273520860028 L204.02359770508227 208.64694056123946 L203.85873445543535 208.55483365395068 L203.71111216588048 208.44888738132082 L203.58147457455635 208.33158079475868 L203.47026374117766 208.20536466953536 L203.3776363762705 208.07263001465196 L203.30348286938911 207.93567973872632 L203.24744855523426 207.79670362601445 L203.20895676013868 207.65775671987947 L203.18723318093947 207.5207411570993 L203.18133116324066 207.38739144588908 L203.1901574658766 207.25926313384653 L203.2124981223858 207.1377247695603 L203.24704403785753 207.02395302362436 L203.29241598997842 206.9189308014645 L203.34718873584694 206.82344815181636 L203.4099139605279 206.7381057509366 L203.4791418387856 206.66332072364852 L203.5534410174042 206.59933454802444 L203.63141686144073 206.54622278074112 L203.7117278431768 206.5039063347059 L203.79309998698523 206.47216403919603 L203.87433931641286 206.45064621519413 L203.9543422811464 206.43888900452842 L204.0321041708709 206.43632920049234 L204.10672555010132 206.44231933947074 L204.1774167726607 206.45614282736858 L204.24350065644427 206.47702889094776 L204.304413418337 206.50416716215344 L204.3597039855872 206.53672172278414 L204.40903181355827 206.57384445706805 L204.45216335060917 206.61468758050543 L204.48896729895182 206.6584152343963 L204.51940882578725 206.70421405648315 L204.5435428819596 206.7513026588188 L204.5615067859291 206.798939964058 L204.57351222922384 206.84643237063955 L204.5798368558703 206.893139735566 L204.58081556282423 206.9384801805337 L204.57683166133648 206.98193374286288 L204.56830803070946 207.02304490691938 L204.55569838624953 207.0614240644141 L204.53947877261555 207.09674796305472 L204.5201393824224 207.128759212476 L204.49817678809097 207.15726492418045 L204.47408666274106 207.1821345683945 L204.4483570535975 207.20329713532624 L204.42146225909693 207.2207376913514 L204.39385734880958 207.23449342222818 L204.36597335357862 207.2446492556384 L204.33821314205997 207.2513331542673 L204.3109479892373 207.25471116838128 L204.28451483258996 207.25498233355708 L204.2592142024872 207.25237349498195 L204.23530880513843 207.24713413470812 L204.2130227290942 207.23953127253654 L204.19254123989822 207.22984450495017 L204.17401112205846 207.21836123984505 L204.15754152303268 207.20537217783797 L204.14320525040728 207.19116708378223 L204.1310404708589 207.17603088490705 L204.12105275779777 207.16024012481796 L204.1132174337533 207.14405979554834 L204.10748215352578 207.12774056302408 L204.10376967483398 207.11151639477154 L204.10198076457226 207.09560259253138 L204.10199719078196 207.08019422669287 L204.10368475297088 207.06546496418608 L204.10689630640346 207.0515662766973 L204.11147473936035 207.0386270118349 L204.11725586605354 207.02675330618843 L204.124071201808 207.0160288161001 L204.1317505912126 207.00651523940837 L204.1401246641316 206.99825309941963 L204.14902709869156 206.9912627609034 L204.15829667455284 206.98554564696775 L204.16777910388856 206.98108562523015 L204.17732863147322 206.97785053172197 L204.18680939908612 206.9757938014203 L204.19609657302004 206.97485617514698 L204.20507723682317 206.97496745377384 L204.21365105446046 206.9760482721825 L204.22173071184355 206.97801186719923 L204.2292421471252 206.98076581572246 L204.23612458227774 206.9842137214335 L204.24233037027 206.98825683078883 L204.2478246736214 206.99279556139535 L204.2525849912526 206.99773092832282 L204.2566005513753 207.0029658563805 L204.25987158868276 207.00840636883524 L204.2624085243344 207.0139626454486 L204.2642310671855 207.0195499450306 L204.26536725442548 207.02508938992017 L204.2658524492687 207.03050861188754 L204.26572831262263 207.0357422608904 L204.2650417647574 207.0407323798885 L204.26384395194992 207.04542865052017 L204.2621892318954 207.0497885158567 L204.26013419039907 207.05377718767468 L204.25773670050282 207.0573675467164 L204.25505503379318 207.06053994524675 L204.25214703219737 207.06328192186348 L204.24906934712973 207.0655878389808 L204.24587675141785 207.06745845369358 L204.24262152803783 207.068900432847 L204.23935293833586 207.0699258230988 L204.2361167711259 207.07055148657673 L204.23295497284101 207.07079851241895 L204.22990535779226 207.0706916140522 L204.2270013965615 207.0702585215266 L204.22427207962946 207.06952937760207 L204.22174185252527 207.0685361455848 L204.2194306180781 207.06731203615755 L204.2173538007609 207.06589095964972 L204.21552246763596 207.064307009366 L204.2139435000447 207.06259398074974 L204.21261980992233 207.0607849303121 L204.2115505944618 207.0589117774204 L204.21073162279026 207.05700495122304 L204.21015554835338 207.0550930842001 L204.20981224081925 207.05320275308003 L204.20968913150315 207.05135826715693 L204.20977156657688 207.0495815033936 L204.21004316264333 207.0478917870969 L204.21048615962792 207.04630581641956 L204.2110817663494 207.0448376284708 L204.21181049457712 207.04349860441187 L204.2126524778511 207.04229751057414 L204.21358777182562 207.04124057236282 L204.21459663339184 207.04033157749993 L204.21565977632844 207.039572005015 L204.2167586017183 207.03896117630435 L204.21787540184647 207.03849642455106 L204.21899353675204 207.03817327882123 L204.22009758304458 207.0379856592242 L204.2211734550032 207.03792607964087 L204.22220849835554 207.03798585468027 L204.22319155747914 207.03815530771405 L204.22411301707623 207.03842397705762 L204.22496481964535 207.0387808176099 L204.2257404603063 207.03921439552528 L204.22643496072996 207.0397130737664 L204.22704482408136 207.0402651866719 L204.2275679730017 207.04085920196152 L204.2280036727388 207.04148386889096 L204.2283524415813 207.04212835155312 L204.22861595076623 207.04278234660174 L204.2287969160131 207.04343618493988 L204.2288989827924 207.04408091716923 L204.22892660736596 207.04470838283456 L204.22888493554336 207.04531126371708 L204.22877968098518 207.04588312162937 L204.2286170047554 207.04641842134475 L204.22840339767995 207.04691253944966 L204.22814556691657 207.04736176004238 L204.22785032797717 207.04776325831338 L204.2275245032784 207.0481150731314 L204.22717482812627 207.04841606982714 L204.22680786487143 207.04866589441176 L204.22642992580572 207.04886492049357 L204.2260470052074 207.04901419016215 L204.22566472078813 207.04911535009762 L204.225288264646 207.04917058413537 L204.22492236369158 207.04918254347345 L204.22457124938614 207.04915427565368 L204.22423863651622 207.04908915338143 L204.22392771062405 207.04899080417113 L204.22364112362473 207.04886304172072 L204.22338099706175 207.04870979982692 L204.22314893238993 207.0485350695591 L204.2229460276233 207.0483428403102 L204.22277289964723 207.0481370452455 L204.2226297114687 207.04792151157037 L204.222516203665 207.04769991594048 L204.22243172928793 207.04747574524495 L204.222375291489 207.04725226290023 L204.22234558314778 207.04703248070808 L204.22234102781206 207.04681913625072 L204.22235982129055 207.04661467572143 L204.22239997328074 207.04642124202306 L204.22245934845787 207.0462406679065 L204.22253570650233 207.0460744738687 L204.2226267405956 207.04592387048672 L204.2227301139707 207.04578976482566 L204.22284349416086 207.045672770531 L204.2229645846472 207.04557322119337 L204.22309115366568 207.0454911865595 L204.22322105998836 207.04542649115666 L204.22335227555078 207.0453787348952 L204.22348290484913 207.04534731522105 L204.22361120108138 207.04533145039883 L204.22373557905217 207.045330203523 L204.2238546249055 207.0453425068736 L204.22396710278676 207.0453671862575 L204.22407195857087 207.04540298500257 L204.22416832082303 207.04544858730142 L204.2242554991843 207.04550264063337 L204.2243329803955 207.04556377702573 L204.22440042218886 207.0456306329488 L204.22445764528936 207.04570186767376 L204.22450462377603 207.04577617995565 L204.2245414740567 207.04585232293715 L204.22456844271025 207.0459291172009 L204.224585893447 207.046005461929 L204.2245942934317 207.04608034415705 L204.22459419920338 207.0461528461375 L204.22458624241534 207.04622215085138 L204.22457111560396 207.04628754573073 L204.22454955817892 207.04634842467314 L204.22452234281113 207.0464042884476 L204.22449026237453 207.0464547436056 L204.22445411758045 207.0464995000233 L204.22441470542188 207.04653836720982 L204.22437280852645 207.04657124952436 L204.2243291854964 207.04659814044788 L204.2242845622947 207.0466191160587 L204.22423962471765 207.04663432786035 L204.2241950119767 207.04664399510753 L204.22415131139493 207.04664839677366 L204.22410905420844 207.0466478632954 L204.22406871244772 207.04664276822496 L204.22403069686217 207.0466335199108 L204.22399535583824 207.04662055331883 L204.22396297525285 207.04660432209582 L204.22393377919414 207.04658529096565 L204.22390793147576 207.04656392853826 L204.2238855378647 207.04654070059865 L204.2238666489395 207.04651606393298 L204.2238512634925 207.04649046073592 L204.2238393323896 207.04646431363304 L204.2238307628003 207.04643802134103 L204.22382542271265 207.0464119549773 L204.22382314565024 207.04638645502195 L204.22382373551144 207.0463618289251 L204.2238269714555 207.0463383493442 L204.22383261276516 207.04631625298939 L204.2238404036208 207.04629574004676 L204.22385007772726 207.0462769741455 L204.2238613627409 207.046260082828 L204.22387398445102 207.04624515848 L204.22388767067642 207.04623225967336 L204.22390215484532 207.04622141287268 L204.22391717923236 207.0462126144554 L204.22393249783434 207.04620583299413 L204.22394787887183 207.0462010117507 L204.22396310691025 207.04619807133236 L204.2239779845995 207.04619691246086 L204.2239923340365 207.04619741880896 L204.22400599776046 207.0461994598598 L204.22401883939366 207.04620289374878 L204.22403074394612 207.04620757005006 L204.22404161780423 207.0462133324733 L204.22405138842745 207.046220021441 L204.22406000377873 207.04622747651962 L204.22406743151595 207.04623553868157 L204.22407365797372 207.04624405238076 L204.22407868696465 207.0462528674257 " stroke = "blue" stroke-width = "4" fill = "none" /></svg>