<svg width="372.55279383549293" height="500" viewbox = "0 0 372.55279383549293 500"  xmlns="http://www.w3.org/2000/svg">

<!--
<topfunctions>







function YofX(){
    X = plotparams.g*(x - plotparams.x0) - funcparams.X0;
    Y = funcparams.a*X*X*X + funcparams.b*X*X + funcparams.c*X + funcparams.d;
    y = plotparams.y0 - plotparams.G*(Y - funcparams.Y0);
}


function YofX2(){
    X = plotparams.g*(x - plotparams.x0) - funcparams.X0;
    Y = funcparams.b*X*X + funcparams.c*X + funcparams.d;
    y = plotparams.y0 - plotparams.G*(Y - funcparams.Y0);
 }

function XYofT(){
    T = plotparams.g*t;
    X = Math.exp(-T/funcparams.tau)*Math.cos(2*Math.PI*T/funcparams.T);
    Y = Math.exp(-T/funcparams.tau)*Math.sin(2*Math.PI*T/funcparams.T);
    y = plotparams.y0 - plotparams.G*(Y - funcparams.Y0);
    x = plotparams.x0 - plotparams.G*(X - funcparams.X0);    
}


function plotfunction(){


    currentStroke = "blue";
    currentLineWidth = 4;
    ctx.strokeStyle = currentStroke;
    ctx.lineWidth = currentLineWidth;
    ctx.beginPath();	
    x = 0;
    y = 0;
    t= 0;
    XYofT();
    currentSVG += "	<path d = \"M";
    currentSVG += Math.round(x).toString() + " ";
    currentSVG += Math.round(y).toString() + " ";
    for(t = 1;t < plotparams.duration;t++){
        ctx.moveTo(x,y);
        XYofT();
        ctx.lineTo(x,y);
        currentSVG += "L" + x + " " + y + " ";
    }
    ctx.stroke();
    currentSVG += "\""+ " stroke = \"" + currentStroke + "\" stroke-width = \"" + currentLineWidth.toString() + "\" fill = \"" + "none" + "\" "+"/>";


    /*plot one function:
    currentStroke = "blue";
    currentLineWidth = 4;
    ctx.strokeStyle = currentStroke;
    ctx.lineWidth = currentLineWidth;
    ctx.beginPath();	
    x = 0;
    YofX();
    currentSVG += "	<path d = \"M";
    currentSVG += Math.round(x).toString() + " ";
    currentSVG += Math.round(y).toString() + " ";
    for(x = 1;x < plotparams.plotwidth;x++){
        ctx.moveTo(x-1,y);
        YofX();
        ctx.lineTo(x,y);
        currentSVG += "L" + x + " " + y + " ";
    }
    ctx.stroke();
    currentSVG += "\""+ " stroke = \"" + currentStroke + "\" stroke-width = \"" + currentLineWidth.toString() + "\" fill = \"" + "none" + "\" "+"/>";
    /*finish plot one function*/
    

}







</topfunctions>
-->

<!--
<imgurl>
https://i.imgur.com/uKrbCTU.jpg
</imgurl>
-->

<!--
<currentjson>
{
    "constants": {},
    "imgurl": "https://i.imgur.com/uKrbCTU.jpg",
    "plotparams": {
        "G": 194.87171000000015,
        "g": 0.017985878990921366,
        "duration": 1414.7686146000008,
        "plotwidth": 372.55279383549293,
        "plotheight": 500,
        "x0": 179.52799286971313,
        "y0": 223.48293984071958
    },
    "funcparams": {
        "tau": 0.2697881848638206,
        "T": 1.0009978155968,
        "X0": 0,
        "Y0": 0
    }
}
</currentjson>
-->

<!--
<equation>

<h2>Equation Scroll</h2>
<p style="color:blue">

</p><p class="bigeq">
$$
(X,Y) = (e^{-t/\tau}\cos{\frac{2\pi t}{T}},e^{-t/\tau}\sin{\frac{2\pi t}{T}})

$$
</p>
<p></p>

$$
X = g(x - x_0) - X_0
$$
$$
Y = f(X)
$$
    
$$
y = y_0 - G(Y - Y_0)
$$


<p>
    X and Y, and $X_0$ and $Y_0$ in physical units of the System. x and y and x0 and y0 in pixels.  G is in pixels per Y unit and g is in X units per pixel. 
</p>


</equation>
-->
	<path d = "M-15 223 L-1.6153097901675437 202.9452640282982 L13.310433785570098 185.30128252760875 L29.044194514950107 170.4733272626455 L45.23226573356425 158.34817112162233 L61.55779194890077 148.78328625487902 L77.74126075965232 141.6127920387323 L93.5403332597026 136.65303585831623 L108.74909822699331 133.7077628591449 L123.19683400962175 132.57284289616348 L136.74635945841783 133.04053399087422 L149.2920517047962 134.90327163811935 L160.7576042251734 137.95698225424428 L171.09359363945282 142.00392691874276 L180.27491822068555 146.85508834181508 L188.29816529341898 152.33211971640247 L195.17895870373704 158.26887882477848 L200.94933147524446 164.51257451760483 L205.65516272904125 170.92455552757227 L209.3537120350166 177.380773587425 L212.11127865588332 183.77195406547625 L214.0010077104062 190.00350788609018 L215.10086017176747 195.99521844512367 L215.49175887259116 201.6807366382895 L215.2559183403548 207.0069160700598 L214.47536235611864 211.93301907616316 L213.2306296268096 216.4298224449571 L211.59966488956587 220.47864972916244 L209.65689012143955 224.07035486237749 L207.47244829834239 227.20427949231316 L205.11161031742472 229.88720406745972 L202.63433424660948 232.1323103131619 L200.0949649697327 233.9581703486106 L197.54206152893366 235.3877753643378 L195.0183389989116 236.44761453134885 L192.56071153050826 237.16681267375023 L190.20042324326658 237.57633322738866 L187.96325389760045 237.70825114367287 L185.86978670689382 237.595098692129 L183.93572622901576 237.2692855750614 L182.17225497742663 236.7625933970546 L180.58641818782795 236.1057433318207 L179.1815270425185 235.32803479708767 L177.95757156855012 234.45705208039462 L176.91163536678124 233.51843514828755 L176.0383052785079 232.53571031025558 L175.33007003817585 231.53017598720174 L174.7777028805791 230.52083854165505 L174.3706239568813 229.5243929519039 L174.09723925576267 228.55524304290287 L173.94525351595155 227.62555601109813 L173.90195534814475 226.74534608615048 L173.95447345336285 225.92258234803418 L174.09000342819752 225.1633159516346 L174.2960051836883 224.47182229174695 L174.5603714734717 223.8507539588968 L174.8715684292573 223.30130068097031 L175.21874933943067 222.823352808346 L175.59184318231047 222.4156652729668 L175.9816196426068 222.07601932733837 L176.37973250177697 221.80137974140106 L176.7787434045021 221.58804549807024 L177.1721280689367 221.43179237727813 L177.5542670324165 221.32800614969557 L177.9204230117305 221.2718054118477 L178.26670691264118 221.25815338166973 L178.59003445176367 221.2819582359583 L178.88807525972595 221.33816180755366 L179.15919622206977 221.4218166698878 L179.4024006876976 221.52815181970163 L179.617265037639 221.6526273256502 L179.8038739629904 221.79097844193345 L179.96275565325448 221.9392497930844 L180.094817947799 222.09382031994284 L180.20128635627069 222.25141973917823 L180.2836447106928 222.4091373111903 L180.34357907447375 222.56442373560424 L180.38292540317076 222.7150870017599 L180.4036213297913 222.85928301545604 L180.40766233459854 222.99550180464243 L180.39706245647866 223.1225500776023 L180.3738196103364 223.2395308692252 L180.33988549292113 223.34582096594224 L180.297139987943 223.44104674939177 L180.2473699201632 223.5250590443973 L180.19225195701543 223.59790749974317 L180.13333941481113 223.65981497177415 L180.07205269415826 223.71115232212603 L180.00967304527617 223.75241398289847 L179.94733934773902 223.78419458614522 L179.88604758011667 223.80716690039458 L179.82665265226547 223.82206126561294 L179.76987227590146 223.82964667004939 L179.7162925568234 223.83071356810945 L179.66637500400938 223.82605849805157 L179.6204646660866 223.81647052203678 L179.5787991236922 223.80271947896418 L179.54151808637934 223.7855460125876 L179.50867336438034 223.76565331356085 L179.48023900818671 223.7437004941748 L179.45612143205315 223.72029749845143 L179.43616936074545 223.6960014377381 L179.42018346174996 223.671314232748 L179.40792554741634 223.64668143686146 L179.3991272528366 223.6224921121444 L179.39349811544773 223.59907962866933 L179.3907330011981 223.5767232590406 L179.39051883950356 223.55565044323743 L179.39254064504303 223.53603960370418 L179.3964868186436 223.5180233967634 L179.40205373205757 223.50169229363638 L179.40894961234264 223.48709839237932 L179.41689775085098 223.47425937065236 L179.4256390695646 223.46316249822002 L179.4349340837559 223.4537686372451 L179.4445643047881 223.44601616761477 L179.45433313039712 223.43982478357523 L179.46406627212488 223.4350991167274 L179.47361177080984 223.4317321488353 L179.4828396513081 223.42960838584034 L179.49164126702695 223.42860677188176 L179.4999283835244 223.42860332894904 L179.50763204847254 223.42947351399457 L179.51470129281248 223.4310942908962 L179.52110170504508 223.4333459195668 L179.52681391740526 223.43611346876753 L179.53183203924624 223.43928806280235 L179.53616206939944 223.4427678752781 L179.53982031564794 223.4464588855332 L179.5428318458252 223.4502754152042 L179.545228991482 223.4541404637522 L179.54704992160646 223.45798586265235 L179.54833730057328 223.46175226840404 L179.54913704137465 223.4653890145941 L179.54949716227554 223.46885384298358 L179.54946675235684 223.4721125330414 L179.54909504897776 223.47513844855462 L179.54843062801314 223.47791201895197 L179.54752070580042 223.48042017182627 L179.54641055007085 223.4826557318663 L179.54514299572605 223.48461680005045 L179.54375806015523 223.48630612554263 L179.54229265184853 223.48773048129516 L179.54078036534423 223.48890005292998 L179.53925135502746 223.48982784906144 L179.53773227996652 223.49052913986063 L179.53624631180514 223.4910209293582 L179.53481319771348 223.49132146575437 L179.53344937051287 223.49144979286126 L179.53216809831642 223.49142534475152 L179.53097966634795 223.49126758473423 L179.5298915840005 223.49099568892618 L179.52890881065684 223.49062827393735 L179.52803399430044 223.4901831675396 L179.52726771748624 223.48967722063927 L179.52660874579936 223.48912615841843 L179.52605427449888 223.4885444681488 L179.52560016960894 223.48794532090275 L179.52524120027667 223.4873405241883 L179.5249712597525 223.48674050240956 L179.524783572862 223.48615430199266 L179.5246708883215 223.48558961801646 L179.52462565469895 223.48505283923535 L179.5246401792331 223.48454910847482 L179.52470676909957 223.48408239551046 L179.5248178550437 223.4836555797009 L179.5249660975953 223.48327053982894 L179.52514447633206 223.48292824880787 L179.52534636287334 223.48262887112313 L179.52556557846233 223.48237186110242 L179.52579643713477 223.48215606033142 L179.52603377557992 223.4819797927562 L179.5262729708747 223.481840956233 L179.52650994732025 223.4817371094975 L179.5267411736311 223.48166555372768 L179.5269636517261 223.4816234080645 L179.52717489835018 223.48160767863084 L179.52737292071666 223.4816153207515 L179.5275561873081 223.48164329422258 L179.5277235949096 223.48168861161 L179.52787443287374 223.4817483796711 L179.5280083455383 223.48181983409202 L179.5281252936299 223.48190036781693 L179.52822551540154 223.481987553314 L179.52830948816106 223.48207915917683 L179.52837789076028 223.482173161502 L179.5284315675277 223.4822677505116 L179.52847149404403 223.48236133290814 L179.52849874508067 223.48245253045667 L179.52851446494626 223.48254017528765 L179.52851984041737 223.48262330240576 L179.52851607636555 223.48270113987329 L179.5285043741362 223.48277309711665 L179.52848591268267 223.48283875177796 L179.52846183241564 223.48289783550456 L179.5284332216875 223.48295021903758 L179.52840110580055 223.48299589692647 L179.52836643840064 223.48303497216205 L179.52833009509644 223.48306764098507 L179.52829286912942 223.48309417809244 L179.52825546890793 223.4831149224295 L179.5282185172123 223.483130263723 L179.52818255187543 223.48314062987941 L179.52814802774333 223.4831464753425 L179.5281153197246 223.4831482704776 L179.52808472674405 223.4831464920256 L179.52805647642353 223.4831416146456 L179.52803073032467 223.4831341035469 L179.52800758959856 223.48312440819265 L179.5279871009011 223.48311295704247 L179.52796926244565 223.48310015328872 L179.52795403007875 223.4830863715312 L179.52794132327804 223.48307195532635 L179.52793103098622 223.48305721554132 L179.52792301720729 223.48304242943877 L179.527917126305 223.48302784041584 L179.52791318795565 223.48301365832015 L179.52791102171855 223.48300006026534 L179.52791044119869 223.48298719187088 L179.5279112577853 223.48297516885327 L179.5279132839595 223.48296407889913 L179.52791633617147 223.48295398375495 L179.52792023729475 223.4829449214728 L179.52792481867067 223.48293690875659 L179.52792992176202 223.48292994335836 L179.5279353994371 223.48292400648015 L179.5279411169106 223.48291906514203 L179.52794695236835 223.4829150744823 L179.52795279730586 223.48291197996156 L179.5279585566105 223.48290971944732 L179.52796414841845 223.4829082251602 L179.5279695037763 223.48290742546814 L179.5279745661377 223.4829072465183 L179.52797929072332 223.4829076137013 L179.52798364377156 223.4829084529444 L179.52798760170592 223.4829096918352 L179.52799115024237 223.48291126057774 L179.52799428345898 223.48291309278773 L179.52799700284743 223.48291512613346 L179.52799931636335 223.48291730283154 L179.52800123749188 223.48291957000782 L179.52800278434046 223.48292187993425 L179.52800397877112 223.48292419015354 L179.52800484558026 223.48292646350342 L179.528005411734 223.482928668053 L179.52800570566396 223.4829307769629 L179.5280057566274 223.48293276828088 L179.52800559413407 223.4829346246847 L179.52800524744032 223.48293633318247 L179.52800474511076 223.48293788478094 L179.5280041146454 223.48293927413084 L179.5280033821707 223.482940499158 L179.5280025721912 223.4829415606878 L179.52800170739803 223.48294246207018 L179.52800080853086 223.48294320881038 L179.52799989428794 223.48294380821162 L179.52799898128066 223.48294426903323 L179.527998084027 223.48294460116813 L179.52799721497948 223.48294481534242 L179.52799638458302 223.4829449228389 L179.52799560135756 223.4829449352463 L179.52799487200147 223.48294486423492 L179.52799420151135 223.4829447213588 L179.527993593314 223.48294451788462 L179.5279930494075 223.48294426464648 L179.52799257050737 223.48294397192586 L179.527992156195 223.48294364935532 L179.52799180506625 223.48294330584469 L179.52799151487685 223.4829429495281 L179.52799128268327 223.48294258773018 L179.52799110497753 223.48294222694932 L179.52799097781386 223.48294187285634 L179.52799089692678 223.48294153030682 L179.52799085783963 223.4829412033646 L179.5279908559628 223.48294089533553 L179.52799088668158 223.48294060880883 L179.52799094543354 223.48294034570495 L179.52799102777527 223.48294010732826 L179.52799112943882 223.48293989442288 L179.52799124637858 223.48293970723074 L179.52799137480847 223.48293954555038 L179.52799151123025 223.48293940879546 L179.52799165245406 223.4829392960523 L179.52799179561094 223.48293920613543 L179.52799193815906 223.48293913764044 L179.52799207788365 223.4829390889941 L179.5279922128917 223.48293905850048 L179.5279923416024 223.48293904438367 L179.5279924627334 223.4829390448263 L179.5279925752843 223.48293905800386 L179.52799267851734 223.48293908211488 L179.5279927719367 223.48293911540713 L179.52799285526612 223.48293915619954 L179.527992928426 223.4829392029003 L179.52799299151 223.48293925402146 L179.52799304476216 223.4829393081897 L179.52799308855396 223.48293936415413 L179.52799312336253 223.48293942079124 L179.5279931497499 223.48293947710684 L179.52799316834316 223.48293953223606 L179.52799317981646 223.4829395854411 L179.52799318487416 223.4829396361071 L179.5279931842358 223.48293968373676 L179.52799317862272 223.48293972794374 L179.52799316874606 223.48293976844485 L179.52799315529674 223.48293980505179 L179.5279931389369 223.4829398376624 L179.52799312029268 223.48293986625146 L179.52799309994893 223.48293989086156 L179.52799307844467 223.48293991159386 L179.52799305627036 223.48293992859925 L179.527993033866 223.48293994206966 L179.5279930116203 223.4829399522299 L179.52799298987102 223.48293995932988 L179.52799296890566 223.4829399636375 L179.5279929489633 223.4829399654321 L179.5279929302367 223.48293996499854 L179.52799291287505 223.4829399626219 L179.52799289698697 223.48293995858293 L179.52799288264387 223.48293995315407 L179.52799286988338 223.48293994659602 L179.527992858713 223.48293993915513 L179.52799284911373 223.48293993106117 L179.52799284104375 223.48293992252576 L179.52799283444185 223.48293991374118 L179.52799282923087 223.48293990487963 L179.5279928253209 223.4829398960932 L179.5279928226124 223.48293988751368 L179.5279928209989 223.48293987925314 L179.52799282036966 223.48293987140448 L179.52799282061193 223.48293986404244 L179.52799282161303 223.48293985722455 L179.5279928232621 223.4829398509925 L179.52799282545186 223.4829398453733 L179.52799282807953 223.4829398403807 L179.52799283104827 223.48293983601678 L179.5279928342678 223.48293983227316 L179.52799283765503 223.4829398291326 L179.52799284113462 223.48293982657026 L179.52799284463916 223.48293982455513 L179.52799284810916 223.48293982305134 L179.5279928514932 223.48293982201918 L179.5279928547476 223.48293982141638 L179.5279928578363 223.48293982119904 L179.52799286073028 223.4829398213225 L179.52799286340738 223.4829398217423 L179.52799286585164 223.48293982241464 L179.52799286805285 223.48293982329724 L179.52799287000596 223.48293982434964 L179.52799287171058 223.48293982553372 L179.5279928731703 223.48293982681406 L179.52799287439225 223.48293982815804 L179.5279928753865 223.48293982953612 L179.52799287616546 223.4829398309219 L179.52799287674347 223.48293983229215 L179.52799287713637 223.48293983362677 L179.52799287736093 223.4829398349088 L179.52799287743457 223.48293983612416 L179.5279928773749 223.48293983726168 L179.52799287719958 223.48293983831275 L179.52799287692582 223.48293983927132 L179.52799287657035 223.4829398401335 L179.52799287614903 223.48293984089747 L179.5279928756769 223.48293984156322 L179.52799287516783 223.4829398421323 L179.52799287463466 223.48293984260766 L179.52799287408897 223.48293984299335 L179.52799287354105 223.48293984329433 L179.52799287300004 223.48293984351636 L179.52799287247373 223.48293984366575 L179.52799287196873 223.48293984374914 L179.52799287149057 223.48293984377344 L179.5279928710435 223.4829398437456 L179.52799287063084 223.48293984367265 L179.52799287025496 223.48293984356133 L179.5279928699173 223.48293984341822 L179.52799286961852 223.48293984324962 L179.52799286935854 223.48293984306142 L179.5279928691367 223.48293984285908 L179.52799286895183 223.4829398426476 L179.52799286880227 223.48293984243153 L179.527992868686 223.48293984221493 L179.52799286860076 223.48293984200134 L179.52799286854406 223.4829398417938 L179.5279928685132 223.48293984159494 L179.52799286850546 223.4829398414068 L179.52799286851814 223.48293984123111 L179.5279928685484 223.48293984106914 L179.52799286859363 223.48293984092174 L179.52799286865118 223.48293984078953 L179.52799286871863 223.48293984067269 L179.52799286879363 223.48293984057116 L179.52799286887404 223.4829398404847 L179.5279928689579 223.48293984041283 L179.52799286904343 223.48293984035485 L179.52799286912906 223.48293984030997 L179.52799286921336 223.48293984027725 L179.5279928692952 223.48293984025577 L179.52799286937352 223.4829398402444 L179.52799286944753 223.48293984024207 L179.52799286951657 223.48293984024772 L179.52799286958015 223.48293984026026 L179.52799286963793 223.4829398402786 L179.5279928696897 223.48293984030173 L179.52799286973539 223.4829398403287 L179.527992869775 223.48293984035857 L179.5279928698087 223.48293984039054 L179.52799286983665 223.4829398404238 L179.52799286985913 223.48293984045765 L179.52799286987644 223.48293984049147 L179.52799286988898 223.48293984052475 L179.52799286989713 223.482939840557 L179.52799286990128 223.48293984058787 L179.5279928699019 223.48293984061698 L179.52799286989944 223.4829398406441 L179.52799286989426 223.48293984066905 L179.52799286988682 223.4829398406917 L179.52799286987752 223.48293984071196 L179.52799286986675 223.48293984072984 L179.52799286985484 223.4829398407453 L179.52799286984217 223.48293984075843 L179.52799286982898 223.4829398407693 L179.52799286981556 223.482939840778 L179.5279928698022 223.48293984078467 L179.52799286978907 223.48293984078947 L179.52799286977634 223.48293984079254 L179.5279928697642 223.48293984079407 L179.52799286975275 223.48293984079422 L179.5279928697421 223.48293984079314 L179.52799286973232 223.482939840791 L179.52799286972342 223.482939840788 L179.5279928697155 223.48293984078427 L179.5279928697085 223.48293984077995 L179.52799286970247 223.4829398407752 L179.52799286969736 223.48293984077017 L179.52799286969315 223.48293984076494 L179.52799286968977 223.48293984075963 L179.52799286968718 223.48293984075437 L179.52799286968536 223.48293984074917 L179.5279928696842 223.48293984074417 L179.52799286968363 223.4829398407394 L179.52799286968363 223.48293984073487 L179.5279928696841 223.4829398407307 L179.52799286968497 223.48293984072686 L179.5279928696862 223.48293984072336 L179.5279928696877 223.48293984072026 L179.5279928696894 223.48293984071753 L179.5279928696913 223.48293984071518 L179.5279928696933 223.4829398407132 L179.52799286969537 223.48293984071154 L179.52799286969747 223.48293984071023 L179.52799286969955 223.48293984070924 L179.5279928697016 223.48293984070855 L179.52799286970358 223.4829398407081 L179.52799286970546 223.4829398407079 L179.52799286970722 223.48293984070793 L179.52799286970887 223.48293984070813 L179.52799286971037 223.48293984070847 L179.52799286971174 223.48293984070898 L179.52799286971296 223.48293984070958 L179.52799286971404 223.48293984071026 L179.52799286971495 223.48293984071103 L179.52799286971572 223.4829398407118 L179.52799286971637 223.48293984071262 L179.52799286971685 223.48293984071347 L179.52799286971725 223.4829398407143 L179.5279928697175 223.4829398407151 L179.52799286971768 223.48293984071586 L179.52799286971776 223.4829398407166 L179.52799286971774 223.4829398407173 L179.52799286971765 223.48293984071796 L179.5279928697175 223.48293984071853 L179.5279928697173 223.48293984071907 L179.52799286971705 223.48293984071955 L179.5279928697168 223.48293984071998 L179.52799286971648 223.48293984072032 L179.52799286971617 223.48293984072063 L179.52799286971586 223.4829398407209 L179.52799286971552 223.48293984072106 L179.5279928697152 223.48293984072123 L179.5279928697149 223.48293984072131 L179.52799286971458 223.48293984072137 L179.52799286971427 223.4829398407214 L179.527992869714 223.4829398407214 L179.52799286971376 223.48293984072137 L179.52799286971353 223.48293984072131 L179.5279928697133 223.48293984072123 L179.52799286971313 223.48293984072112 L179.52799286971296 223.48293984072103 L179.52799286971282 223.4829398407209 L179.5279928697127 223.48293984072077 L179.52799286971262 223.48293984072063 L179.52799286971253 223.48293984072052 L179.52799286971248 223.48293984072038 L179.52799286971245 223.48293984072026 L179.52799286971242 223.48293984072015 L179.52799286971242 223.48293984072004 L179.52799286971242 223.48293984071992 L179.52799286971242 223.4829398407198 L179.52799286971245 223.48293984071972 L179.52799286971248 223.48293984071964 L179.52799286971253 223.48293984071958 L179.52799286971256 223.48293984071952 L179.52799286971262 223.48293984071947 L179.52799286971268 223.4829398407194 L179.5279928697127 223.48293984071938 L179.52799286971276 223.48293984071935 L179.52799286971282 223.48293984071933 L179.52799286971288 223.4829398407193 L179.5279928697129 223.4829398407193 L179.52799286971296 223.4829398407193 L179.527992869713 223.4829398407193 L179.52799286971305 223.4829398407193 L179.52799286971307 223.48293984071933 L179.5279928697131 223.48293984071933 L179.52799286971313 223.48293984071935 L179.52799286971316 223.48293984071935 L179.5279928697132 223.48293984071938 L179.5279928697132 223.4829398407194 L179.52799286971322 223.4829398407194 L179.52799286971322 223.48293984071944 L179.52799286971324 223.48293984071947 L179.52799286971324 223.48293984071947 L179.52799286971324 223.4829398407195 L179.52799286971324 223.48293984071952 L179.52799286971324 223.48293984071952 L179.52799286971324 223.48293984071955 L179.52799286971324 223.48293984071955 L179.52799286971324 223.48293984071958 L179.52799286971322 223.48293984071958 L179.52799286971322 223.48293984071958 L179.52799286971322 223.4829398407196 L179.52799286971322 223.4829398407196 L179.5279928697132 223.4829398407196 L179.5279928697132 223.4829398407196 L179.5279928697132 223.4829398407196 L179.52799286971316 223.48293984071964 L179.52799286971316 223.48293984071964 L179.52799286971316 223.48293984071964 L179.52799286971316 223.48293984071964 L179.52799286971313 223.48293984071964 L179.52799286971313 223.4829398407196 L179.52799286971313 223.4829398407196 L179.52799286971313 223.4829398407196 L179.52799286971313 223.4829398407196 L179.52799286971313 223.4829398407196 L179.52799286971313 223.4829398407196 L179.52799286971313 223.4829398407196 L179.5279928697131 223.4829398407196 L179.5279928697131 223.4829398407196 L179.5279928697131 223.4829398407196 L179.5279928697131 223.48293984071958 L179.5279928697131 223.48293984071958 L179.5279928697131 223.48293984071958 L179.5279928697131 223.48293984071958 L179.5279928697131 223.48293984071958 L179.5279928697131 223.48293984071958 L179.5279928697131 223.48293984071958 L179.52799286971313 223.48293984071958 L179.52799286971313 223.48293984071958 L179.52799286971313 223.48293984071958 L179.52799286971313 223.48293984071958 L179.52799286971313 223.48293984071958 L179.52799286971313 223.48293984071958 L179.52799286971313 223.48293984071958 L179.52799286971313 223.48293984071958 L179.52799286971313 223.48293984071958 L179.52799286971313 223.48293984071958 L179.52799286971313 223.48293984071958 L179.52799286971313 223.48293984071958 L179.52799286971313 223.48293984071958 L179.52799286971313 223.48293984071958 L179.52799286971313 223.48293984071958 L179.52799286971313 223.48293984071958 L179.52799286971313 223.48293984071958 L179.52799286971313 223.48293984071958 L179.52799286971313 223.48293984071958 L179.52799286971313 223.48293984071958 L179.52799286971313 223.48293984071958 L179.52799286971313 223.48293984071958 L179.52799286971313 223.48293984071958 L179.52799286971313 223.48293984071958 L179.52799286971313 223.48293984071958 L179.52799286971313 223.48293984071958 L179.52799286971313 223.48293984071958 L179.52799286971313 223.48293984071958 L179.52799286971313 223.48293984071958 L179.52799286971313 223.48293984071958 L179.52799286971313 223.48293984071958 L179.52799286971313 223.48293984071958 L179.52799286971313 223.48293984071958 L179.52799286971313 223.48293984071958 L179.52799286971313 223.48293984071958 L179.52799286971313 223.48293984071958 L179.52799286971313 223.48293984071958 L179.52799286971313 223.48293984071958 L179.52799286971313 223.48293984071958 L179.52799286971313 223.48293984071958 L179.52799286971313 223.48293984071958 L179.52799286971313 223.48293984071958 L179.52799286971313 223.48293984071958 L179.52799286971313 223.48293984071958 L179.52799286971313 223.48293984071958 L179.52799286971313 223.48293984071958 L179.52799286971313 223.48293984071958 L179.52799286971313 223.48293984071958 L179.52799286971313 223.48293984071958 L179.52799286971313 223.48293984071958 L179.52799286971313 223.48293984071958 L179.52799286971313 223.48293984071958 L179.52799286971313 223.48293984071958 L179.52799286971313 223.48293984071958 L179.52799286971313 223.48293984071958 L179.52799286971313 223.48293984071958 L179.52799286971313 223.48293984071958 L179.52799286971313 223.48293984071958 L179.52799286971313 223.48293984071958 L179.52799286971313 223.48293984071958 L179.52799286971313 223.48293984071958 L179.52799286971313 223.48293984071958 L179.52799286971313 223.48293984071958 L179.52799286971313 223.48293984071958 L179.52799286971313 223.48293984071958 L179.52799286971313 223.48293984071958 L179.52799286971313 223.48293984071958 L179.52799286971313 223.48293984071958 L179.52799286971313 223.48293984071958 L179.52799286971313 223.48293984071958 L179.52799286971313 223.48293984071958 L179.52799286971313 223.48293984071958 L179.52799286971313 223.48293984071958 L179.52799286971313 223.48293984071958 L179.52799286971313 223.48293984071958 L179.52799286971313 223.48293984071958 L179.52799286971313 223.48293984071958 L179.52799286971313 223.48293984071958 L179.52799286971313 223.48293984071958 L179.52799286971313 223.48293984071958 L179.52799286971313 223.48293984071958 L179.52799286971313 223.48293984071958 L179.52799286971313 223.48293984071958 L179.52799286971313 223.48293984071958 L179.52799286971313 223.48293984071958 L179.52799286971313 223.48293984071958 L179.52799286971313 223.48293984071958 L179.52799286971313 223.48293984071958 L179.52799286971313 223.48293984071958 L179.52799286971313 223.48293984071958 L179.52799286971313 223.48293984071958 L179.52799286971313 223.48293984071958 L179.52799286971313 223.48293984071958 L179.52799286971313 223.48293984071958 L179.52799286971313 223.48293984071958 L179.52799286971313 223.48293984071958 L179.52799286971313 223.48293984071958 L179.52799286971313 223.48293984071958 L179.52799286971313 223.48293984071958 L179.52799286971313 223.48293984071958 L179.52799286971313 223.48293984071958 L179.52799286971313 223.48293984071958 L179.52799286971313 223.48293984071958 L179.52799286971313 223.48293984071958 L179.52799286971313 223.48293984071958 L179.52799286971313 223.48293984071958 L179.52799286971313 223.48293984071958 L179.52799286971313 223.48293984071958 L179.52799286971313 223.48293984071958 L179.52799286971313 223.48293984071958 L179.52799286971313 223.48293984071958 L179.52799286971313 223.48293984071958 L179.52799286971313 223.48293984071958 L179.52799286971313 223.48293984071958 L179.52799286971313 223.48293984071958 L179.52799286971313 223.48293984071958 L179.52799286971313 223.48293984071958 L179.52799286971313 223.48293984071958 L179.52799286971313 223.48293984071958 L179.52799286971313 223.48293984071958 L179.52799286971313 223.48293984071958 L179.52799286971313 223.48293984071958 L179.52799286971313 223.48293984071958 L179.52799286971313 223.48293984071958 L179.52799286971313 223.48293984071958 L179.52799286971313 223.48293984071958 L179.52799286971313 223.48293984071958 L179.52799286971313 223.48293984071958 L179.52799286971313 223.48293984071958 L179.52799286971313 223.48293984071958 L179.52799286971313 223.48293984071958 L179.52799286971313 223.48293984071958 L179.52799286971313 223.48293984071958 L179.52799286971313 223.48293984071958 L179.52799286971313 223.48293984071958 L179.52799286971313 223.48293984071958 L179.52799286971313 223.48293984071958 L179.52799286971313 223.48293984071958 L179.52799286971313 223.48293984071958 L179.52799286971313 223.48293984071958 L179.52799286971313 223.48293984071958 L179.52799286971313 223.48293984071958 L179.52799286971313 223.48293984071958 L179.52799286971313 223.48293984071958 L179.52799286971313 223.48293984071958 L179.52799286971313 223.48293984071958 L179.52799286971313 223.48293984071958 L179.52799286971313 223.48293984071958 L179.52799286971313 223.48293984071958 L179.52799286971313 223.48293984071958 L179.52799286971313 223.48293984071958 L179.52799286971313 223.48293984071958 L179.52799286971313 223.48293984071958 L179.52799286971313 223.48293984071958 L179.52799286971313 223.48293984071958 L179.52799286971313 223.48293984071958 L179.52799286971313 223.48293984071958 L179.52799286971313 223.48293984071958 L179.52799286971313 223.48293984071958 L179.52799286971313 223.48293984071958 L179.52799286971313 223.48293984071958 L179.52799286971313 223.48293984071958 L179.52799286971313 223.48293984071958 L179.52799286971313 223.48293984071958 L179.52799286971313 223.48293984071958 L179.52799286971313 223.48293984071958 L179.52799286971313 223.48293984071958 L179.52799286971313 223.48293984071958 L179.52799286971313 223.48293984071958 L179.52799286971313 223.48293984071958 L179.52799286971313 223.48293984071958 L179.52799286971313 223.48293984071958 L179.52799286971313 223.48293984071958 L179.52799286971313 223.48293984071958 L179.52799286971313 223.48293984071958 L179.52799286971313 223.48293984071958 L179.52799286971313 223.48293984071958 L179.52799286971313 223.48293984071958 L179.52799286971313 223.48293984071958 L179.52799286971313 223.48293984071958 L179.52799286971313 223.48293984071958 L179.52799286971313 223.48293984071958 L179.52799286971313 223.48293984071958 L179.52799286971313 223.48293984071958 L179.52799286971313 223.48293984071958 L179.52799286971313 223.48293984071958 L179.52799286971313 223.48293984071958 L179.52799286971313 223.48293984071958 L179.52799286971313 223.48293984071958 L179.52799286971313 223.48293984071958 L179.52799286971313 223.48293984071958 L179.52799286971313 223.48293984071958 L179.52799286971313 223.48293984071958 L179.52799286971313 223.48293984071958 L179.52799286971313 223.48293984071958 L179.52799286971313 223.48293984071958 L179.52799286971313 223.48293984071958 L179.52799286971313 223.48293984071958 L179.52799286971313 223.48293984071958 L179.52799286971313 223.48293984071958 L179.52799286971313 223.48293984071958 L179.52799286971313 223.48293984071958 L179.52799286971313 223.48293984071958 L179.52799286971313 223.48293984071958 L179.52799286971313 223.48293984071958 L179.52799286971313 223.48293984071958 L179.52799286971313 223.48293984071958 L179.52799286971313 223.48293984071958 L179.52799286971313 223.48293984071958 L179.52799286971313 223.48293984071958 L179.52799286971313 223.48293984071958 L179.52799286971313 223.48293984071958 L179.52799286971313 223.48293984071958 L179.52799286971313 223.48293984071958 L179.52799286971313 223.48293984071958 L179.52799286971313 223.48293984071958 L179.52799286971313 223.48293984071958 L179.52799286971313 223.48293984071958 L179.52799286971313 223.48293984071958 L179.52799286971313 223.48293984071958 L179.52799286971313 223.48293984071958 L179.52799286971313 223.48293984071958 L179.52799286971313 223.48293984071958 L179.52799286971313 223.48293984071958 L179.52799286971313 223.48293984071958 L179.52799286971313 223.48293984071958 L179.52799286971313 223.48293984071958 L179.52799286971313 223.48293984071958 L179.52799286971313 223.48293984071958 L179.52799286971313 223.48293984071958 L179.52799286971313 223.48293984071958 L179.52799286971313 223.48293984071958 L179.52799286971313 223.48293984071958 L179.52799286971313 223.48293984071958 L179.52799286971313 223.48293984071958 L179.52799286971313 223.48293984071958 L179.52799286971313 223.48293984071958 L179.52799286971313 223.48293984071958 L179.52799286971313 223.48293984071958 L179.52799286971313 223.48293984071958 L179.52799286971313 223.48293984071958 L179.52799286971313 223.48293984071958 L179.52799286971313 223.48293984071958 L179.52799286971313 223.48293984071958 L179.52799286971313 223.48293984071958 L179.52799286971313 223.48293984071958 L179.52799286971313 223.48293984071958 L179.52799286971313 223.48293984071958 L179.52799286971313 223.48293984071958 L179.52799286971313 223.48293984071958 L179.52799286971313 223.48293984071958 L179.52799286971313 223.48293984071958 L179.52799286971313 223.48293984071958 L179.52799286971313 223.48293984071958 L179.52799286971313 223.48293984071958 L179.52799286971313 223.48293984071958 L179.52799286971313 223.48293984071958 L179.52799286971313 223.48293984071958 L179.52799286971313 223.48293984071958 L179.52799286971313 223.48293984071958 L179.52799286971313 223.48293984071958 L179.52799286971313 223.48293984071958 L179.52799286971313 223.48293984071958 L179.52799286971313 223.48293984071958 L179.52799286971313 223.48293984071958 L179.52799286971313 223.48293984071958 L179.52799286971313 223.48293984071958 L179.52799286971313 223.48293984071958 L179.52799286971313 223.48293984071958 L179.52799286971313 223.48293984071958 L179.52799286971313 223.48293984071958 L179.52799286971313 223.48293984071958 L179.52799286971313 223.48293984071958 L179.52799286971313 223.48293984071958 L179.52799286971313 223.48293984071958 L179.52799286971313 223.48293984071958 L179.52799286971313 223.48293984071958 L179.52799286971313 223.48293984071958 L179.52799286971313 223.48293984071958 L179.52799286971313 223.48293984071958 L179.52799286971313 223.48293984071958 L179.52799286971313 223.48293984071958 L179.52799286971313 223.48293984071958 L179.52799286971313 223.48293984071958 L179.52799286971313 223.48293984071958 L179.52799286971313 223.48293984071958 L179.52799286971313 223.48293984071958 L179.52799286971313 223.48293984071958 L179.52799286971313 223.48293984071958 L179.52799286971313 223.48293984071958 L179.52799286971313 223.48293984071958 L179.52799286971313 223.48293984071958 L179.52799286971313 223.48293984071958 L179.52799286971313 223.48293984071958 L179.52799286971313 223.48293984071958 L179.52799286971313 223.48293984071958 L179.52799286971313 223.48293984071958 L179.52799286971313 223.48293984071958 L179.52799286971313 223.48293984071958 L179.52799286971313 223.48293984071958 L179.52799286971313 223.48293984071958 L179.52799286971313 223.48293984071958 L179.52799286971313 223.48293984071958 L179.52799286971313 223.48293984071958 L179.52799286971313 223.48293984071958 L179.52799286971313 223.48293984071958 L179.52799286971313 223.48293984071958 L179.52799286971313 223.48293984071958 L179.52799286971313 223.48293984071958 L179.52799286971313 223.48293984071958 L179.52799286971313 223.48293984071958 L179.52799286971313 223.48293984071958 L179.52799286971313 223.48293984071958 L179.52799286971313 223.48293984071958 L179.52799286971313 223.48293984071958 L179.52799286971313 223.48293984071958 L179.52799286971313 223.48293984071958 L179.52799286971313 223.48293984071958 L179.52799286971313 223.48293984071958 L179.52799286971313 223.48293984071958 L179.52799286971313 223.48293984071958 L179.52799286971313 223.48293984071958 L179.52799286971313 223.48293984071958 L179.52799286971313 223.48293984071958 L179.52799286971313 223.48293984071958 L179.52799286971313 223.48293984071958 L179.52799286971313 223.48293984071958 L179.52799286971313 223.48293984071958 L179.52799286971313 223.48293984071958 L179.52799286971313 223.48293984071958 L179.52799286971313 223.48293984071958 L179.52799286971313 223.48293984071958 L179.52799286971313 223.48293984071958 L179.52799286971313 223.48293984071958 L179.52799286971313 223.48293984071958 L179.52799286971313 223.48293984071958 L179.52799286971313 223.48293984071958 L179.52799286971313 223.48293984071958 L179.52799286971313 223.48293984071958 L179.52799286971313 223.48293984071958 L179.52799286971313 223.48293984071958 L179.52799286971313 223.48293984071958 L179.52799286971313 223.48293984071958 L179.52799286971313 223.48293984071958 L179.52799286971313 223.48293984071958 L179.52799286971313 223.48293984071958 L179.52799286971313 223.48293984071958 L179.52799286971313 223.48293984071958 L179.52799286971313 223.48293984071958 L179.52799286971313 223.48293984071958 L179.52799286971313 223.48293984071958 L179.52799286971313 223.48293984071958 L179.52799286971313 223.48293984071958 L179.52799286971313 223.48293984071958 L179.52799286971313 223.48293984071958 L179.52799286971313 223.48293984071958 L179.52799286971313 223.48293984071958 L179.52799286971313 223.48293984071958 L179.52799286971313 223.48293984071958 L179.52799286971313 223.48293984071958 L179.52799286971313 223.48293984071958 L179.52799286971313 223.48293984071958 L179.52799286971313 223.48293984071958 L179.52799286971313 223.48293984071958 L179.52799286971313 223.48293984071958 L179.52799286971313 223.48293984071958 L179.52799286971313 223.48293984071958 L179.52799286971313 223.48293984071958 L179.52799286971313 223.48293984071958 L179.52799286971313 223.48293984071958 L179.52799286971313 223.48293984071958 L179.52799286971313 223.48293984071958 L179.52799286971313 223.48293984071958 L179.52799286971313 223.48293984071958 L179.52799286971313 223.48293984071958 L179.52799286971313 223.48293984071958 L179.52799286971313 223.48293984071958 L179.52799286971313 223.48293984071958 L179.52799286971313 223.48293984071958 L179.52799286971313 223.48293984071958 L179.52799286971313 223.48293984071958 L179.52799286971313 223.48293984071958 L179.52799286971313 223.48293984071958 L179.52799286971313 223.48293984071958 L179.52799286971313 223.48293984071958 L179.52799286971313 223.48293984071958 L179.52799286971313 223.48293984071958 L179.52799286971313 223.48293984071958 L179.52799286971313 223.48293984071958 L179.52799286971313 223.48293984071958 L179.52799286971313 223.48293984071958 L179.52799286971313 223.48293984071958 L179.52799286971313 223.48293984071958 L179.52799286971313 223.48293984071958 L179.52799286971313 223.48293984071958 L179.52799286971313 223.48293984071958 L179.52799286971313 223.48293984071958 L179.52799286971313 223.48293984071958 L179.52799286971313 223.48293984071958 L179.52799286971313 223.48293984071958 L179.52799286971313 223.48293984071958 L179.52799286971313 223.48293984071958 L179.52799286971313 223.48293984071958 L179.52799286971313 223.48293984071958 L179.52799286971313 223.48293984071958 L179.52799286971313 223.48293984071958 L179.52799286971313 223.48293984071958 L179.52799286971313 223.48293984071958 L179.52799286971313 223.48293984071958 L179.52799286971313 223.48293984071958 L179.52799286971313 223.48293984071958 L179.52799286971313 223.48293984071958 L179.52799286971313 223.48293984071958 L179.52799286971313 223.48293984071958 L179.52799286971313 223.48293984071958 L179.52799286971313 223.48293984071958 L179.52799286971313 223.48293984071958 L179.52799286971313 223.48293984071958 L179.52799286971313 223.48293984071958 L179.52799286971313 223.48293984071958 L179.52799286971313 223.48293984071958 L179.52799286971313 223.48293984071958 L179.52799286971313 223.48293984071958 L179.52799286971313 223.48293984071958 L179.52799286971313 223.48293984071958 L179.52799286971313 223.48293984071958 L179.52799286971313 223.48293984071958 L179.52799286971313 223.48293984071958 L179.52799286971313 223.48293984071958 L179.52799286971313 223.48293984071958 L179.52799286971313 223.48293984071958 L179.52799286971313 223.48293984071958 L179.52799286971313 223.48293984071958 L179.52799286971313 223.48293984071958 L179.52799286971313 223.48293984071958 L179.52799286971313 223.48293984071958 L179.52799286971313 223.48293984071958 L179.52799286971313 223.48293984071958 L179.52799286971313 223.48293984071958 L179.52799286971313 223.48293984071958 L179.52799286971313 223.48293984071958 L179.52799286971313 223.48293984071958 L179.52799286971313 223.48293984071958 L179.52799286971313 223.48293984071958 L179.52799286971313 223.48293984071958 L179.52799286971313 223.48293984071958 L179.52799286971313 223.48293984071958 L179.52799286971313 223.48293984071958 L179.52799286971313 223.48293984071958 L179.52799286971313 223.48293984071958 L179.52799286971313 223.48293984071958 L179.52799286971313 223.48293984071958 L179.52799286971313 223.48293984071958 L179.52799286971313 223.48293984071958 L179.52799286971313 223.48293984071958 L179.52799286971313 223.48293984071958 L179.52799286971313 223.48293984071958 L179.52799286971313 223.48293984071958 L179.52799286971313 223.48293984071958 L179.52799286971313 223.48293984071958 L179.52799286971313 223.48293984071958 L179.52799286971313 223.48293984071958 L179.52799286971313 223.48293984071958 L179.52799286971313 223.48293984071958 L179.52799286971313 223.48293984071958 L179.52799286971313 223.48293984071958 L179.52799286971313 223.48293984071958 L179.52799286971313 223.48293984071958 L179.52799286971313 223.48293984071958 L179.52799286971313 223.48293984071958 L179.52799286971313 223.48293984071958 L179.52799286971313 223.48293984071958 L179.52799286971313 223.48293984071958 L179.52799286971313 223.48293984071958 L179.52799286971313 223.48293984071958 L179.52799286971313 223.48293984071958 L179.52799286971313 223.48293984071958 L179.52799286971313 223.48293984071958 L179.52799286971313 223.48293984071958 L179.52799286971313 223.48293984071958 L179.52799286971313 223.48293984071958 L179.52799286971313 223.48293984071958 L179.52799286971313 223.48293984071958 L179.52799286971313 223.48293984071958 L179.52799286971313 223.48293984071958 L179.52799286971313 223.48293984071958 L179.52799286971313 223.48293984071958 L179.52799286971313 223.48293984071958 L179.52799286971313 223.48293984071958 L179.52799286971313 223.48293984071958 L179.52799286971313 223.48293984071958 L179.52799286971313 223.48293984071958 L179.52799286971313 223.48293984071958 L179.52799286971313 223.48293984071958 L179.52799286971313 223.48293984071958 L179.52799286971313 223.48293984071958 L179.52799286971313 223.48293984071958 L179.52799286971313 223.48293984071958 L179.52799286971313 223.48293984071958 L179.52799286971313 223.48293984071958 L179.52799286971313 223.48293984071958 L179.52799286971313 223.48293984071958 L179.52799286971313 223.48293984071958 L179.52799286971313 223.48293984071958 L179.52799286971313 223.48293984071958 L179.52799286971313 223.48293984071958 L179.52799286971313 223.48293984071958 L179.52799286971313 223.48293984071958 L179.52799286971313 223.48293984071958 L179.52799286971313 223.48293984071958 L179.52799286971313 223.48293984071958 L179.52799286971313 223.48293984071958 L179.52799286971313 223.48293984071958 L179.52799286971313 223.48293984071958 L179.52799286971313 223.48293984071958 L179.52799286971313 223.48293984071958 L179.52799286971313 223.48293984071958 L179.52799286971313 223.48293984071958 L179.52799286971313 223.48293984071958 L179.52799286971313 223.48293984071958 L179.52799286971313 223.48293984071958 L179.52799286971313 223.48293984071958 L179.52799286971313 223.48293984071958 L179.52799286971313 223.48293984071958 L179.52799286971313 223.48293984071958 L179.52799286971313 223.48293984071958 L179.52799286971313 223.48293984071958 L179.52799286971313 223.48293984071958 L179.52799286971313 223.48293984071958 L179.52799286971313 223.48293984071958 L179.52799286971313 223.48293984071958 L179.52799286971313 223.48293984071958 L179.52799286971313 223.48293984071958 L179.52799286971313 223.48293984071958 L179.52799286971313 223.48293984071958 L179.52799286971313 223.48293984071958 L179.52799286971313 223.48293984071958 L179.52799286971313 223.48293984071958 L179.52799286971313 223.48293984071958 L179.52799286971313 223.48293984071958 L179.52799286971313 223.48293984071958 L179.52799286971313 223.48293984071958 L179.52799286971313 223.48293984071958 L179.52799286971313 223.48293984071958 L179.52799286971313 223.48293984071958 L179.52799286971313 223.48293984071958 L179.52799286971313 223.48293984071958 L179.52799286971313 223.48293984071958 L179.52799286971313 223.48293984071958 L179.52799286971313 223.48293984071958 L179.52799286971313 223.48293984071958 L179.52799286971313 223.48293984071958 L179.52799286971313 223.48293984071958 L179.52799286971313 223.48293984071958 L179.52799286971313 223.48293984071958 L179.52799286971313 223.48293984071958 L179.52799286971313 223.48293984071958 L179.52799286971313 223.48293984071958 L179.52799286971313 223.48293984071958 L179.52799286971313 223.48293984071958 L179.52799286971313 223.48293984071958 L179.52799286971313 223.48293984071958 L179.52799286971313 223.48293984071958 L179.52799286971313 223.48293984071958 L179.52799286971313 223.48293984071958 L179.52799286971313 223.48293984071958 L179.52799286971313 223.48293984071958 L179.52799286971313 223.48293984071958 L179.52799286971313 223.48293984071958 L179.52799286971313 223.48293984071958 L179.52799286971313 223.48293984071958 L179.52799286971313 223.48293984071958 L179.52799286971313 223.48293984071958 L179.52799286971313 223.48293984071958 L179.52799286971313 223.48293984071958 L179.52799286971313 223.48293984071958 L179.52799286971313 223.48293984071958 L179.52799286971313 223.48293984071958 L179.52799286971313 223.48293984071958 L179.52799286971313 223.48293984071958 L179.52799286971313 223.48293984071958 L179.52799286971313 223.48293984071958 L179.52799286971313 223.48293984071958 L179.52799286971313 223.48293984071958 L179.52799286971313 223.48293984071958 L179.52799286971313 223.48293984071958 L179.52799286971313 223.48293984071958 L179.52799286971313 223.48293984071958 L179.52799286971313 223.48293984071958 L179.52799286971313 223.48293984071958 L179.52799286971313 223.48293984071958 L179.52799286971313 223.48293984071958 L179.52799286971313 223.48293984071958 L179.52799286971313 223.48293984071958 L179.52799286971313 223.48293984071958 L179.52799286971313 223.48293984071958 L179.52799286971313 223.48293984071958 L179.52799286971313 223.48293984071958 L179.52799286971313 223.48293984071958 L179.52799286971313 223.48293984071958 L179.52799286971313 223.48293984071958 L179.52799286971313 223.48293984071958 L179.52799286971313 223.48293984071958 L179.52799286971313 223.48293984071958 L179.52799286971313 223.48293984071958 L179.52799286971313 223.48293984071958 L179.52799286971313 223.48293984071958 L179.52799286971313 223.48293984071958 L179.52799286971313 223.48293984071958 L179.52799286971313 223.48293984071958 L179.52799286971313 223.48293984071958 L179.52799286971313 223.48293984071958 L179.52799286971313 223.48293984071958 L179.52799286971313 223.48293984071958 L179.52799286971313 223.48293984071958 L179.52799286971313 223.48293984071958 L179.52799286971313 223.48293984071958 L179.52799286971313 223.48293984071958 L179.52799286971313 223.48293984071958 L179.52799286971313 223.48293984071958 L179.52799286971313 223.48293984071958 L179.52799286971313 223.48293984071958 L179.52799286971313 223.48293984071958 L179.52799286971313 223.48293984071958 L179.52799286971313 223.48293984071958 L179.52799286971313 223.48293984071958 L179.52799286971313 223.48293984071958 L179.52799286971313 223.48293984071958 L179.52799286971313 223.48293984071958 L179.52799286971313 223.48293984071958 L179.52799286971313 223.48293984071958 L179.52799286971313 223.48293984071958 L179.52799286971313 223.48293984071958 L179.52799286971313 223.48293984071958 L179.52799286971313 223.48293984071958 L179.52799286971313 223.48293984071958 L179.52799286971313 223.48293984071958 L179.52799286971313 223.48293984071958 L179.52799286971313 223.48293984071958 L179.52799286971313 223.48293984071958 L179.52799286971313 223.48293984071958 L179.52799286971313 223.48293984071958 L179.52799286971313 223.48293984071958 L179.52799286971313 223.48293984071958 L179.52799286971313 223.48293984071958 L179.52799286971313 223.48293984071958 L179.52799286971313 223.48293984071958 L179.52799286971313 223.48293984071958 L179.52799286971313 223.48293984071958 L179.52799286971313 223.48293984071958 L179.52799286971313 223.48293984071958 L179.52799286971313 223.48293984071958 L179.52799286971313 223.48293984071958 L179.52799286971313 223.48293984071958 L179.52799286971313 223.48293984071958 L179.52799286971313 223.48293984071958 L179.52799286971313 223.48293984071958 L179.52799286971313 223.48293984071958 L179.52799286971313 223.48293984071958 L179.52799286971313 223.48293984071958 L179.52799286971313 223.48293984071958 L179.52799286971313 223.48293984071958 L179.52799286971313 223.48293984071958 L179.52799286971313 223.48293984071958 L179.52799286971313 223.48293984071958 L179.52799286971313 223.48293984071958 L179.52799286971313 223.48293984071958 L179.52799286971313 223.48293984071958 L179.52799286971313 223.48293984071958 L179.52799286971313 223.48293984071958 L179.52799286971313 223.48293984071958 L179.52799286971313 223.48293984071958 L179.52799286971313 223.48293984071958 L179.52799286971313 223.48293984071958 L179.52799286971313 223.48293984071958 L179.52799286971313 223.48293984071958 L179.52799286971313 223.48293984071958 L179.52799286971313 223.48293984071958 L179.52799286971313 223.48293984071958 L179.52799286971313 223.48293984071958 L179.52799286971313 223.48293984071958 L179.52799286971313 223.48293984071958 L179.52799286971313 223.48293984071958 L179.52799286971313 223.48293984071958 L179.52799286971313 223.48293984071958 L179.52799286971313 223.48293984071958 L179.52799286971313 223.48293984071958 L179.52799286971313 223.48293984071958 L179.52799286971313 223.48293984071958 L179.52799286971313 223.48293984071958 L179.52799286971313 223.48293984071958 L179.52799286971313 223.48293984071958 L179.52799286971313 223.48293984071958 L179.52799286971313 223.48293984071958 L179.52799286971313 223.48293984071958 L179.52799286971313 223.48293984071958 L179.52799286971313 223.48293984071958 L179.52799286971313 223.48293984071958 L179.52799286971313 223.48293984071958 L179.52799286971313 223.48293984071958 L179.52799286971313 223.48293984071958 L179.52799286971313 223.48293984071958 L179.52799286971313 223.48293984071958 L179.52799286971313 223.48293984071958 L179.52799286971313 223.48293984071958 L179.52799286971313 223.48293984071958 L179.52799286971313 223.48293984071958 L179.52799286971313 223.48293984071958 L179.52799286971313 223.48293984071958 L179.52799286971313 223.48293984071958 L179.52799286971313 223.48293984071958 L179.52799286971313 223.48293984071958 L179.52799286971313 223.48293984071958 L179.52799286971313 223.48293984071958 L179.52799286971313 223.48293984071958 L179.52799286971313 223.48293984071958 L179.52799286971313 223.48293984071958 L179.52799286971313 223.48293984071958 L179.52799286971313 223.48293984071958 L179.52799286971313 223.48293984071958 L179.52799286971313 223.48293984071958 L179.52799286971313 223.48293984071958 L179.52799286971313 223.48293984071958 L179.52799286971313 223.48293984071958 L179.52799286971313 223.48293984071958 L179.52799286971313 223.48293984071958 L179.52799286971313 223.48293984071958 L179.52799286971313 223.48293984071958 L179.52799286971313 223.48293984071958 L179.52799286971313 223.48293984071958 L179.52799286971313 223.48293984071958 L179.52799286971313 223.48293984071958 L179.52799286971313 223.48293984071958 L179.52799286971313 223.48293984071958 L179.52799286971313 223.48293984071958 L179.52799286971313 223.48293984071958 L179.52799286971313 223.48293984071958 L179.52799286971313 223.48293984071958 L179.52799286971313 223.48293984071958 L179.52799286971313 223.48293984071958 L179.52799286971313 223.48293984071958 L179.52799286971313 223.48293984071958 L179.52799286971313 223.48293984071958 L179.52799286971313 223.48293984071958 L179.52799286971313 223.48293984071958 L179.52799286971313 223.48293984071958 L179.52799286971313 223.48293984071958 L179.52799286971313 223.48293984071958 L179.52799286971313 223.48293984071958 L179.52799286971313 223.48293984071958 L179.52799286971313 223.48293984071958 L179.52799286971313 223.48293984071958 L179.52799286971313 223.48293984071958 L179.52799286971313 223.48293984071958 L179.52799286971313 223.48293984071958 L179.52799286971313 223.48293984071958 L179.52799286971313 223.48293984071958 L179.52799286971313 223.48293984071958 L179.52799286971313 223.48293984071958 L179.52799286971313 223.48293984071958 L179.52799286971313 223.48293984071958 L179.52799286971313 223.48293984071958 L179.52799286971313 223.48293984071958 L179.52799286971313 223.48293984071958 L179.52799286971313 223.48293984071958 L179.52799286971313 223.48293984071958 L179.52799286971313 223.48293984071958 L179.52799286971313 223.48293984071958 L179.52799286971313 223.48293984071958 L179.52799286971313 223.48293984071958 L179.52799286971313 223.48293984071958 L179.52799286971313 223.48293984071958 L179.52799286971313 223.48293984071958 L179.52799286971313 223.48293984071958 L179.52799286971313 223.48293984071958 L179.52799286971313 223.48293984071958 L179.52799286971313 223.48293984071958 L179.52799286971313 223.48293984071958 L179.52799286971313 223.48293984071958 L179.52799286971313 223.48293984071958 L179.52799286971313 223.48293984071958 L179.52799286971313 223.48293984071958 L179.52799286971313 223.48293984071958 L179.52799286971313 223.48293984071958 L179.52799286971313 223.48293984071958 L179.52799286971313 223.48293984071958 L179.52799286971313 223.48293984071958 L179.52799286971313 223.48293984071958 L179.52799286971313 223.48293984071958 L179.52799286971313 223.48293984071958 L179.52799286971313 223.48293984071958 L179.52799286971313 223.48293984071958 L179.52799286971313 223.48293984071958 L179.52799286971313 223.48293984071958 L179.52799286971313 223.48293984071958 L179.52799286971313 223.48293984071958 L179.52799286971313 223.48293984071958 L179.52799286971313 223.48293984071958 L179.52799286971313 223.48293984071958 L179.52799286971313 223.48293984071958 L179.52799286971313 223.48293984071958 L179.52799286971313 223.48293984071958 L179.52799286971313 223.48293984071958 L179.52799286971313 223.48293984071958 L179.52799286971313 223.48293984071958 L179.52799286971313 223.48293984071958 L179.52799286971313 223.48293984071958 L179.52799286971313 223.48293984071958 L179.52799286971313 223.48293984071958 L179.52799286971313 223.48293984071958 L179.52799286971313 223.48293984071958 L179.52799286971313 223.48293984071958 L179.52799286971313 223.48293984071958 L179.52799286971313 223.48293984071958 L179.52799286971313 223.48293984071958 L179.52799286971313 223.48293984071958 L179.52799286971313 223.48293984071958 L179.52799286971313 223.48293984071958 L179.52799286971313 223.48293984071958 L179.52799286971313 223.48293984071958 L179.52799286971313 223.48293984071958 L179.52799286971313 223.48293984071958 L179.52799286971313 223.48293984071958 L179.52799286971313 223.48293984071958 L179.52799286971313 223.48293984071958 L179.52799286971313 223.48293984071958 L179.52799286971313 223.48293984071958 L179.52799286971313 223.48293984071958 L179.52799286971313 223.48293984071958 L179.52799286971313 223.48293984071958 L179.52799286971313 223.48293984071958 L179.52799286971313 223.48293984071958 L179.52799286971313 223.48293984071958 L179.52799286971313 223.48293984071958 L179.52799286971313 223.48293984071958 L179.52799286971313 223.48293984071958 L179.52799286971313 223.48293984071958 L179.52799286971313 223.48293984071958 L179.52799286971313 223.48293984071958 L179.52799286971313 223.48293984071958 L179.52799286971313 223.48293984071958 L179.52799286971313 223.48293984071958 L179.52799286971313 223.48293984071958 L179.52799286971313 223.48293984071958 L179.52799286971313 223.48293984071958 L179.52799286971313 223.48293984071958 L179.52799286971313 223.48293984071958 L179.52799286971313 223.48293984071958 L179.52799286971313 223.48293984071958 L179.52799286971313 223.48293984071958 L179.52799286971313 223.48293984071958 L179.52799286971313 223.48293984071958 L179.52799286971313 223.48293984071958 L179.52799286971313 223.48293984071958 L179.52799286971313 223.48293984071958 L179.52799286971313 223.48293984071958 L179.52799286971313 223.48293984071958 " stroke = "blue" stroke-width = "4" fill = "none" /></svg>