<svg width="558" height="744" viewbox = "0 0 558 744"  xmlns="http://www.w3.org/2000/svg">

<!--
<json>
{
    "imgurl": "https://i.imgur.com/gR0paGq.jpg",
    "marker0": "crystal and 18th",
    "marker1": "crystal and 12th",
    "latlon0": "38.857588, -77.049260",
    "latlon1": "38.862408, -77.048743",
    "x0overwidth": 0.32595870206489674,
    "y0overwidth": 0.4941002949852507,
    "x1overwidth": 0.3407079646017699,
    "y1overwidth": 0.25958702064896755,
    "widthfeet": 7503.689181884197
}
</json>
-->
    <line x1="156" y1="468" x2="122" y2="457" style="stroke:black;stroke-width:4" />
    <line x1="177" y1="213" x2="141" y2="214" style="stroke:black;stroke-width:4" />
    <line x1="177" y1="313" x2="141" y2="312" style="stroke:black;stroke-width:4" />
    <line x1="170" y1="384" x2="134" y2="381" style="stroke:black;stroke-width:4" />
    <line x1="110" y1="554" x2="118" y2="675" style="stroke:black;stroke-width:4" />
    <line x1="118" y1="409" x2="109" y2="530" style="stroke:black;stroke-width:4" />
    <line x1="118" y1="409" x2="132" y2="202" style="stroke:black;stroke-width:4" />
    <line x1="145" y1="270" x2="145" y2="233" style="stroke:black;stroke-width:4" />
    <line x1="182" y1="276" x2="146" y2="275" style="stroke:black;stroke-width:4" />
    <line x1="176" y1="138" x2="140" y2="133" style="stroke:black;stroke-width:4" />
    <line x1="185" y1="222" x2="179" y2="195" style="stroke:black;stroke-width:4" />
    <line x1="179" y1="191" x2="194" y2="158" style="stroke:black;stroke-width:4" />
    <line x1="176" y1="412" x2="182" y2="376" style="stroke:black;stroke-width:4" />
    <line x1="125" y1="559" x2="162" y2="459" style="stroke:black;stroke-width:4" />
    <line x1="182" y1="276" x2="182" y2="240" style="stroke:black;stroke-width:4" />
</svg>