<svg width="400" height="400" viewbox = "0 0 400 400"  xmlns="http://www.w3.org/2000/svg">

<!--
<topfunctions>




function YofX(){
    X = plotparams.g*(x - plotparams.x0) - funcparams.X0;
    Y = funcparams.a*X*X*X + funcparams.b*X*X + funcparams.c*X + funcparams.d;
    y = plotparams.y0 - plotparams.G*(Y - funcparams.Y0);
}


function YofX2(){
    X = plotparams.g*(x - plotparams.x0) - funcparams.X0;
    Y = funcparams.b*X*X + funcparams.c*X + funcparams.d;
    y = plotparams.y0 - plotparams.G*(Y - funcparams.Y0);
 }

function XYofT(){
    T = plotparams.g*t;
    X = funcparams.a*Math.cosh(2*Math.PI*T/funcparams.T);
    Y = funcparams.b*Math.sinh(2*Math.PI*T/funcparams.T);
    y = plotparams.y0 - plotparams.G*(Y - funcparams.Y0);
    x = plotparams.x0 - plotparams.G*(X - funcparams.X0);    
}

function XYofT2(){
    T = plotparams.g*t;
    X = -funcparams.a*Math.cosh(2*Math.PI*T/funcparams.T);
    Y = funcparams.b*Math.sinh(2*Math.PI*T/funcparams.T);
    y = plotparams.y0 - plotparams.G*(Y - funcparams.Y0);
    x = plotparams.x0 - plotparams.G*(X - funcparams.X0);   
}

function plotfunction(){


    currentStroke = "blue";
    currentLineWidth = 4;
    ctx.strokeStyle = currentStroke;
    ctx.lineWidth = currentLineWidth;
    ctx.beginPath();	
    x = 0;
    y = 0;
    t = plotparams.tstart;
    XYofT();
    currentSVG += "	<path d = \"M";
    currentSVG += Math.round(x).toString() + " ";
    currentSVG += Math.round(y).toString() + " ";
    for(t = 1 + plotparams.tstart; t < plotparams.tstart + plotparams.duration;t++){
        ctx.moveTo(x,y);
        XYofT();
        ctx.lineTo(x,y);
        currentSVG += "L" + x + " " + y + " ";
    }
    ctx.stroke();
    currentSVG += "\""+ " stroke = \"" + currentStroke + "\" stroke-width = \"" + currentLineWidth.toString() + "\" fill = \"" + "none" + "\" "+"/>";


    currentStroke = "blue";
    currentLineWidth = 4;
    ctx.strokeStyle = currentStroke;
    ctx.lineWidth = currentLineWidth;
    ctx.beginPath();	
    x = 0;
    y = 0;
    t = plotparams.tstart;
    XYofT();
    currentSVG += "	<path d = \"M";
    currentSVG += Math.round(x).toString() + " ";
    currentSVG += Math.round(y).toString() + " ";
    for(t = 1 + plotparams.tstart; t < plotparams.tstart + plotparams.duration;t++){
        ctx.moveTo(x,y);
        XYofT2();
        ctx.lineTo(x,y);
        currentSVG += "L" + x + " " + y + " ";
    }
    ctx.stroke();
    currentSVG += "\""+ " stroke = \"" + currentStroke + "\" stroke-width = \"" + currentLineWidth.toString() + "\" fill = \"" + "none" + "\" "+"/>";

    /*plot one function:
    currentStroke = "blue";
    currentLineWidth = 4;
    ctx.strokeStyle = currentStroke;
    ctx.lineWidth = currentLineWidth;
    ctx.beginPath();	
    x = 0;
    YofX();
    currentSVG += "	<path d = \"M";
    currentSVG += Math.round(x).toString() + " ";
    currentSVG += Math.round(y).toString() + " ";
    for(x = 1;x < plotparams.plotwidth;x++){
        ctx.moveTo(x-1,y);
        YofX();
        ctx.lineTo(x,y);
        currentSVG += "L" + x + " " + y + " ";
    }
    ctx.stroke();
    currentSVG += "\""+ " stroke = \"" + currentStroke + "\" stroke-width = \"" + currentLineWidth.toString() + "\" fill = \"" + "none" + "\" "+"/>";
    /*finish plot one function*/
    

}






















</topfunctions>
-->

<!--
<imgurl>

</imgurl>
-->

<!--
<currentjson>
{
    "constants": {},
    "imgurl": "",
    "plotparams": {
        "G": 100.79476910000022,
        "g": 0.017985878990921366,
        "tstart": -200,
        "duration": 545.4545454545454,
        "plotwidth": 400,
        "plotheight": 400,
        "x0": 200,
        "y0": 200
    },
    "funcparams": {
        "a": 1,
        "b": 1,
        "T": 1.4655609018152753,
        "X0": 0,
        "Y0": 0
    }
}
</currentjson>
-->

<!--
<equation>

<h2>Log Spiral</h2>
<p style="color:blue">

</p><p class="bigeq">
$$
(X,Y) = (\pm a\cosh{\frac{2\pi t}{T}},b\sinh{\frac{2\pi t}{T}})
$$
</p>
<p></p>

$$
X = g(x - x_0) - X_0
$$
$$
Y = f(X)
$$
    
$$
y = y_0 - G(Y - Y_0)
$$


<p>
    X and Y, and $X_0$ and $Y_0$ in physical units of the System. x and y and x0 and y0 in pixels.  G is in pixels per Y unit and g is in X units per pixel. 
</p>


</equation>
-->
	<path d = "M-251217738 251218138 L-232574480.73545685 232574880.735435 L-215314767.30369747 215315167.3036739 L-199335922.91066754 199336322.91064203 L-184542892.3574004 184543292.35737288 L-170847674.63280997 170848074.63278025 L-158168799.4119024 158169199.4118703 L-146430842.40383738 146431242.4038027 L-135563976.66672614 135564376.66668868 L-125503557.2200321 125503957.21999164 L-116189736.48349972 116190136.48345602 L-107567108.25493498 107567508.25488776 L-99584378.10892648 99584778.10887545 L-92194058.25576498 92194458.25570987 L-85352185.0453389 85352585.04527938 L-79018057.43548758 79018457.4354233 L-73153994.86900464 73154394.8689352 L-67725113.11895227 67725513.11887726 L-62699116.76882667 62699516.76874566 L-58046107.0930802 58046507.092992686 L-53738404.195117 53738804.19502247 L-49750382.344691075 49750782.344588965 L-46058317.53516215 46058717.53505187 L-42640246.353755675 42640646.35363654 L-39475835.325268984 39476235.325140305 L-36546259.9519767 36546659.95183771 L-33834092.73016526 33834492.73001512 L-31323199.477126673 31323599.476964496 L-28998643.351880115 28999043.351704936 L-26846595.998659596 26846995.99847038 L-24854255.284575257 24854655.284370873 L-23009769.142085113 23010169.14186435 L-21302165.063230865 21302565.062992405 L-19721284.826211195 19721684.82595362 L-18257724.06599336 18258124.065715134 L-16902776.329479627 16903176.3291791 L-15648381.282423297 15648781.282098679 L-14487076.75998636 14487476.759635722 L-13411954.3756968 13412354.375318054 L-12416618.424731538 12417018.424322434 L-11495147.837047504 11495547.836605605 L-10642060.95402775 10642460.953550424 L-9852282.919105276 9852682.91858969 L-9121115.48837686 9121515.487819944 L-8444209.08161652 8444609.081014963 L-7817536.907424689 7817936.90677491 L-7237371.008588652 7237771.007886789 L-6700260.085152617 6700660.084394491 L-6203008.963270524 6203408.962451626 L-5742659.587706003 5743059.586821462 L-5316473.424907331 5316873.423951886 L-4921915.171976162 4922315.170944127 L-4556637.674618068 4557037.673503305 L-4218467.964354504 4218867.963150381 L-3905394.331933984 3905794.3306333385 L-3615554.360044621 3615954.3586397157 L-3347223.8441370144 3347623.8426194917 L-3098806.535449298 3099206.53381013 L-2868824.645217557 2869224.6434469926 L-2655910.053582985 2656310.0516704917 L-2458796.170899105 2459196.1688333056 L-2276310.4030235056 2276710.4007921116 L-2107367.1757715014 2107767.1733612376 L-1950961.4770354887 1951361.474432017 L-1806162.8781532075 1806562.8753410412 L-1672109.9989592093 1672509.9959216188 L-1548005.383593075 1548405.3803119904 L-1433110.7565815456 1433510.7530374483 L-1326742.6309738604 1327142.6271456673 L-1228268.242403914 1228668.2382688515 L-1137101.7848917237 1137501.7804251935 L-1052700.9259916602 1053100.9211670915 L-974563.580556735 974963.5753454276 L-902224.9239266416 902624.9182975941 L-835254.6267715553 835654.6206912816 L-773254.295142302 773654.2885746319 L-715855.1004982115 716255.0934040747 L-662715.5856141412 663115.5779513363 L-613519.6333143986 613919.6250373408 L-567974.5859499557 568374.5770094068 L-525809.504432058 526209.4947748317 L-486773.5564655417 487173.5460341893 L-450634.5243937625 451034.51312622963 L-417177.4237785725 417577.4116078309 L-386203.2244975426 386603.21135119046 L-357527.6667504575 357927.6525502898 L-330980.1649317437 331380.14959328633 L-306402.792848155 306802.77628016216 L-283649.3442449688 284049.3263488806 L-262584.46305193525 262984.4437212912 L-243082.83817497385 243482.8172947795 L-225028.458043582 225428.43548962483 L-208313.92047939062 208713.8961175014 L-192839.79378041098 193239.76746566527 L-178514.0252201731 178913.99679602933 L-165251.39344302914 165651.36274039737 L-152973.00149802424 153372.96833426013 L-141605.80749547976 142005.7716732982 L-131082.19009426265 131482.1514005641 L-121339.54623489553 121739.5044394983 L-112319.91872549699 112719.87357976798 L-103969.65146513584 104369.60270051146 L-96239.07025357944 96639.0175799679 L-89082.18728863628 89482.13039269196 L-82456.42759319986 82856.36613645927 L-76322.37574456091 76722.30936142926 L-70643.54139932468 71043.46969490097 L-65386.14221908743 65786.06476681525 L-60518.902905533556 60918.81924466362 L-56012.869149453385 56412.7787823026 L-51841.235386895845 52241.1377758867 L-47979.1853378119 48379.079902274505 L-44403.74437858003 44803.6304912978 L-41093.64287020643 41493.51985368494 L-38029.189629164975 38429.056751601616 L-35192.15478817672 35592.01125910737 L-32565.66135009138 32965.506315688064 L-30134.08478974284 30533.91732773448 L-27882.960106530078 28282.779220716067 L-25798.895774795852 26198.700389119826 L-23869.49408010966 24269.283032258278 L-22083.277367550654 22483.04940203915 L-20429.61976325497 20829.37352395855 L-18898.683963051313 19298.417985137814 L-17481.362712152335 17881.075413368188 L-16169.224627775131 16568.914299032847 L-14954.46404239998 15354.128837611092 L-13829.854569293182 14229.492494386204 L-12788.706114065086 13188.315015123162 L-11824.825076532125 12224.402626979767 L-10932.477506131281 11332.021192893993 L-10106.354991705504 10505.862100259981 L-9341.54308274459 9741.010680970503 L-8633.492054225191 9032.916974962556 L-7977.989841135626 8377.368663343947 L-7371.136981677763 7770.466010084898 L-6809.3234200878305 7208.59866320749 L-6289.207031080287 6688.424177467433 L-5807.693738160784 6206.848130763618 L-5361.919107535614 5761.005715991653 L-4949.2313081232205 5348.244698834589 L-4567.1753363000835 4966.109640110044 L-4213.4784115368275 4612.327288815248 L-3886.036456045946 4284.79305897601 L-3582.9015780109867 3981.5585098527954 L-3302.270483937323 3700.8197550260493 L-3042.473751191666 3440.9067314085164 L-2801.965896914627 3200.273264347853 L-2579.3161842281697 2977.4878697187337 L-2373.200111045725 2771.2252382877327 L-2182.3915308535225 2580.2583516930827 L-2005.7553585910387 2403.45118313866 L-1842.2408182392924 2239.7519393800735 L-1690.8751919480512 2088.1868038005823 L-1550.7580335166979 1947.8541433555981 L-1421.0558118058193 1817.9191449239675 L-1300.9969522141491 1697.6088491586322 L-1189.867246723537 1586.207552294007 L-1087.0056052071384 1483.052548556243 L-991.8001227261514 1387.5301878487753 L-903.6844394201628 1299.0722252610503 L-822.1343713367652 1217.1524406843262 L-746.6647921578868 1141.2835084252847 L-676.8267472727678 1071.0140981953277 L-612.2047830297706 1005.9261902299208 L-552.4144752792077 945.6325885660868 L-497.10014250495874 889.7746176850171 L-445.9327299407173 838.0199888175489 L-398.60785208385755 790.0608232195451 L-354.84398196220695 745.6118206580165 L-314.3807763819983 704.4085622126422 L-276.97752719421317 666.2059372963669 L-242.41172936619023 630.7766855377165 L-210.47775734021076 597.9100448507509 L-180.985641804973 567.4104976502779 L-153.75993960318573 539.0966077537894 L-128.6386900525768 512.7999410510674 L-105.47245147165756 488.36406352072004 L-84.12341217871466 465.6436106330311 L-64.46457067552728 444.5034226031787 L-46.3789801388715 424.8177403505961 L-29.759052725432667 406.4694573813904 L-14.505919551563721 389.34942314340327 L-0.5288425405269948 373.355793709703 L12.255325361594004 358.39342592784135 L23.922634812386065 344.3733114307835 L34.54249248444589 331.21204714254435 L44.17807395287721 318.83133912866856 L52.88669951513833 307.15753684005074 L60.72017517892246 296.12119497939926 L67.72510084654485 285.6566603839676 L73.9431475291695 275.70168146699496 L79.41130523997043 266.1970378944951 L84.16210304089991 257.0861882944091 L88.22380255207966 248.3149339024086 L91.62056607496815 239.83109614344028 L94.37260032943642 231.58420623100434 L96.49627665981885 223.52520493764936 L98.00422842502182 215.60615075067415 L98.90542615204649 207.77993467690868 L99.20523089999978 200 L98.90542615204649 192.22006532309132 L98.00422842502182 184.39384924932585 L96.49627665981885 176.47479506235064 L94.37260032943642 168.41579376899566 L91.62056607496815 160.16890385655972 L88.22380255207966 151.6850660975914 L84.16210304089991 142.9138117055909 L79.41130523997043 133.8029621055049 L73.9431475291695 124.29831853300506 L67.72510084654485 114.3433396160324 L60.72017517892246 103.87880502060075 L52.88669951513833 92.84246315994925 L44.17807395287721 81.16866087133141 L34.54249248444589 68.78795285745565 L23.922634812386065 55.6266885692165 L12.255325361594004 41.60657407215862 L-0.5288425405269948 26.644206290297006 L-14.505919551563721 10.650576856596729 L-29.759052725432667 -6.469457381390356 L-46.3789801388715 -24.817740350596125 L-64.46457067552728 -44.503422603178706 L-84.12341217871466 -65.64361063303107 L-105.47245147165756 -88.36406352072004 L-128.6386900525768 -112.79994105106749 L-153.75993960318573 -139.09660775378939 L-180.985641804973 -167.41049765027782 L-210.47775734021076 -197.91004485075092 L-242.41172936619023 -230.77668553771656 L-276.97752719421317 -266.20593729636687 L-314.3807763819983 -304.40856221264215 L-354.84398196220695 -345.61182065801654 L-398.60785208385755 -390.0608232195451 L-445.9327299407173 -438.0199888175489 L-497.10014250495874 -489.7746176850171 L-552.4144752792077 -545.6325885660868 L-612.2047830297706 -605.9261902299208 L-676.8267472727678 -671.0140981953277 L-746.6647921578868 -741.2835084252847 L-822.1343713367652 -817.1524406843262 L-903.6844394201628 -899.0722252610503 L-991.8001227261514 -987.5301878487753 L-1087.0056052071384 -1083.052548556243 L-1189.867246723537 -1186.207552294007 L-1300.9969522141491 -1297.6088491586322 L-1421.0558118058193 -1417.9191449239675 L-1550.7580335166979 -1547.8541433555981 L-1690.8751919480512 -1688.186803800582 L-1842.2408182392924 -1839.7519393800735 L-2005.7553585910387 -2003.4511831386599 L-2182.3915308535225 -2180.2583516930827 L-2373.200111045725 -2371.2252382877327 L-2579.3161842281697 -2577.4878697187337 L-2801.965896914627 -2800.273264347853 L-3042.473751191666 -3040.9067314085164 L-3302.270483937323 -3300.8197550260493 L-3582.9015780109867 -3581.5585098527954 L-3886.036456045946 -3884.79305897601 L-4213.4784115368275 -4212.327288815248 L-4567.1753363000835 -4566.109640110044 L-4949.2313081232205 -4948.244698834589 L-5361.919107535614 -5361.005715991653 L-5807.693738160784 -5806.848130763618 L-6289.207031080287 -6288.424177467433 L-6809.3234200878305 -6808.59866320749 L-7371.136981677763 -7370.466010084898 L-7977.989841135626 -7977.368663343947 L-8633.492054225191 -8632.916974962556 L-9341.54308274459 -9341.010680970503 L-10106.354991705504 -10105.862100259981 L-10932.477506131281 -10932.021192893993 L-11824.825076532125 -11824.402626979767 L-12788.706114065086 -12788.315015123162 L-13829.854569293182 -13829.492494386204 L-14954.46404239998 -14954.128837611092 L-16169.224627775131 -16168.914299032847 L-17481.362712152335 -17481.075413368188 L-18898.683963051313 -18898.417985137814 L-20429.61976325497 -20429.37352395855 L-22083.277367550654 -22083.04940203915 L-23869.49408010966 -23869.283032258278 L-25798.895774795852 -25798.700389119826 L-27882.960106530078 -27882.779220716067 L-30134.08478974284 -30133.91732773448 L-32565.66135009138 -32565.506315688064 L-35192.15478817672 -35192.01125910737 L-38029.189629164975 -38029.056751601616 L-41093.64287020643 -41093.51985368494 L-44403.74437858003 -44403.6304912978 L-47979.1853378119 -47979.079902274505 L-51841.235386895845 -51841.1377758867 L-56012.869149453385 -56012.7787823026 L-60518.902905533556 -60518.81924466362 L-65386.14221908743 -65386.06476681525 L-70643.54139932468 -70643.46969490097 L-76322.37574456091 -76322.30936142926 L-82456.42759319986 -82456.36613645927 L-89082.18728863628 -89082.13039269196 L-96239.07025357944 -96239.0175799679 L-103969.65146513584 -103969.60270051146 L-112319.91872549699 -112319.87357976798 L-121339.54623489553 -121339.5044394983 L-131082.19009426265 -131082.1514005641 L-141605.80749547976 -141605.7716732982 L-152973.00149802424 -152972.96833426013 L-165251.39344302914 -165251.36274039737 L-178514.0252201731 -178513.99679602933 L-192839.79378041098 -192839.76746566527 L-208313.92047939062 -208313.8961175014 L-225028.458043582 -225028.43548962483 L-243082.83817497385 -243082.8172947795 L-262584.46305193525 -262584.4437212912 L-283649.3442449688 -283649.3263488806 L-306402.792848155 -306402.77628016216 L-330980.1649317437 -330980.14959328633 L-357527.6667504575 -357527.6525502898 L-386203.2244975426 -386203.21135119046 L-417177.4237785725 -417177.4116078309 L-450634.5243937625 -450634.51312622963 L-486773.5564655417 -486773.5460341893 L-525809.504432058 -525809.4947748317 L-567974.5859499557 -567974.5770094068 L-613519.6333143986 -613519.6250373408 L-662715.5856141412 -662715.5779513363 L-715855.1004982115 -715855.0934040747 L-773254.295142302 -773254.2885746319 L-835254.6267715553 -835254.6206912816 L-902224.9239266416 -902224.9182975941 L-974563.580556735 -974563.5753454276 L-1052700.9259916602 -1052700.9211670915 L-1137101.7848917237 -1137101.7804251935 L-1228268.242403914 -1228268.2382688515 L-1326742.6309738604 -1326742.6271456673 L-1433110.7565815456 -1433110.7530374483 L-1548005.383593075 -1548005.3803119904 L-1672109.9989592093 -1672109.9959216188 L-1806162.8781532075 -1806162.8753410412 L-1950961.4770354887 -1950961.474432017 L-2107367.1757715014 -2107367.1733612376 L-2276310.4030235056 -2276310.4007921116 L-2458796.170899105 -2458796.1688333056 L-2655910.053582985 -2655910.0516704917 L-2868824.645217557 -2868824.6434469926 L-3098806.535449298 -3098806.53381013 L-3347223.8441370144 -3347223.8426194917 L-3615554.360044621 -3615554.3586397157 L-3905394.331933984 -3905394.3306333385 L-4218467.964354504 -4218467.963150381 L-4556637.674618068 -4556637.673503305 L-4921915.171976162 -4921915.170944127 L-5316473.424907331 -5316473.423951886 L-5742659.587706003 -5742659.586821462 L-6203008.963270524 -6203008.962451626 L-6700260.085152617 -6700260.084394491 L-7237371.008588652 -7237371.007886789 L-7817536.907424689 -7817536.90677491 L-8444209.08161652 -8444209.081014963 L-9121115.48837686 -9121115.487819944 L-9852282.919105276 -9852282.91858969 L-10642060.95402775 -10642060.953550424 L-11495147.837047504 -11495147.836605605 L-12416618.424731538 -12416618.424322434 L-13411954.3756968 -13411954.375318054 L-14487076.75998636 -14487076.759635722 L-15648381.282423297 -15648381.282098679 L-16902776.329479627 -16902776.3291791 L-18257724.06599336 -18257724.065715134 L-19721284.826211195 -19721284.82595362 L-21302165.063230865 -21302165.062992405 L-23009769.142085113 -23009769.14186435 L-24854255.284575257 -24854255.284370873 L-26846595.998659596 -26846595.99847038 L-28998643.351880115 -28998643.351704936 L-31323199.477126673 -31323199.476964496 L-33834092.73016526 -33834092.73001512 L-36546259.9519767 -36546259.95183771 L-39475835.325268984 -39475835.325140305 L-42640246.353755675 -42640246.35363654 L-46058317.53516215 -46058317.53505187 L-49750382.344691075 -49750382.344588965 L-53738404.195117 -53738404.19502247 L-58046107.0930802 -58046107.092992686 L-62699116.76882667 -62699116.76874566 L-67725113.11895227 -67725113.11887726 L-73153994.86900464 -73153994.8689352 L-79018057.43548758 -79018057.4354233 L-85352185.0453389 -85352185.04527938 L-92194058.25576498 -92194058.25570987 L-99584378.10892648 -99584378.10887545 L-107567108.25493498 -107567108.25488776 L-116189736.48349972 -116189736.48345602 L-125503557.2200321 -125503557.21999164 L-135563976.66672614 -135563976.66668868 L-146430842.40383738 -146430842.4038027 L-158168799.4119024 -158168799.4118703 L-170847674.63280997 -170847674.63278025 L-184542892.3574004 -184542892.35737288 L-199335922.91066754 -199335922.91064203 L-215314767.30369747 -215314767.3036739 L-232574480.73545685 -232574480.735435 L-251217738.05864638 -251217738.0586262 L-271355444.57346547 -271355444.57344675 L-293107395.7827962 -293107395.7827788 L-316602990.0335559 -316602990.03353983 L-341981998.28360784 -341981998.28359306 L-369395395.57341784 -369395395.57340413 L-399006259.1487274 -399006259.14871466 L-430990738.57701904 -430990738.5770072 L-465539103.6288218 -465539103.6288109 L-502856876.1574804 -502856876.1574703 L-543166052.7107716 -543166052.7107621 L-586706425.1474386 -586706425.1474301 L-633737007.1147262 -633737007.1147182 L-684537574.872827 -684537574.8728195 L-739410331.6322566 -739410331.6322497 L-798681705.3050318 -798681705.3050255 L-862704290.3641294 -862704290.3641233 L-931858945.3629911 -931858945.3629855 L-1006557058.5928317 -1006557058.5928268 L-1087242995.3557324 -1087242995.355728 L-1174396741.411867 -1174396741.4118624 L-1268536758.326327 -1268536758.326323 L-1370223067.7013204 -1370223067.7013166 L-1480060582.6414628 -1480060582.6414592 L-1598702706.2702787 -1598702706.2702758 L-1726855218.704908 -1726855218.7049048 L-1865280475.61188 -1865280475.6118772 L-2014801943.3204093 -2014801943.3204072 L-2176309097.471747 -2176309097.471745 L-2350762714.34576 -2350762714.345758 L-2539200586.3418646 -2539200586.341862 L-2742743695.614652 -2742743695.6146507 L-2962602882.590031 -2962602882.5900297 L-3200086049.031653 -3200086049.0316515 L-3456605938.507341 -3456605938.5073395 L-3733688540.540084 -3733688540.5400825 L-4032982168.438341 -4032982168.4383397 L-4356267264.807933 -4356267264.807931 L-4705466993.076886 -4705466993.076884 L-5082658678.040007 -5082658678.040005 L-5490086163.481056 -5490086163.481055 L-5930173160.385687 -5930173160.385686 L-6405537665.151184 -6405537665.151182 L-6919007533.564303 -6919007533.564303 L-7473637303.193926 -7473637303.193926 L-8072726364.271824 -8072726364.271824 L-8719838587.156782 -8719838587.156782 L-9418823523.142223 -9418823523.142223 L-10173839304.727032 -10173839304.727032 L-10989377381.579084 -10989377381.579084 L-11870289239.34118 -11870289239.34118 L-12821815260.224411 -12821815260.224411 L-13849615897.075905 -13849615897.075905 L-14959805346.368927 -14959805346.368927 L-16158987920.430351 -16158987920.430351 L-17454297335.276924 -17454297335.276924 L-18853439147.776466 -18853439147.776466 L-20364736594.58487 -20364736594.58487 L-21997180105.54623 -21997180105.54623 L-23760480786.102257 -23760480786.102257 L-25665128186.867943 -25665128186.867943 L-27722452704.03398 -27722452704.03398 L-29944692981.804516 -29944692981.804516 L-32345068717.83496 -32345068717.83496 L-34937859304.77532 -34937859304.77532 L-37738488775.74476 -37738488775.74476 L-40763617559.06017 -40763617559.06017 L-44031241588.052376 -44031241588.052376 L-47560799355.55515 -47560799355.55515 L-51373287549.91497 -51373287549.91497 L-55491385960.418335 -55491385960.418335 L-59939592395.17636 -59939592395.17636 L-64744368414.06808 -64744368414.06808 L-69934296743.68095 -69934296743.68095 L-75540251310.68098 -75540251310.68098 L-81595580905.10965 -81595580905.10965 L-88136307566.18666 -88136307566.18666 L-95201340870.7796 -95201340870.7796 L-102832709399.30084 -102832709399.30084 L-111075810755.98471 -111075810755.98471 L-119979681630.86307 -119979681630.86307 L-129597289509.99269 -129597289509.99269 L-139985847769.2633 -139985847769.2633 L-151207156026.2211 -151207156026.2211 L-163327967774.59836 -163327967774.59836 L-176420387488.53912 -176420387488.53912 L-190562299558.8205 -190562299558.8205 L-205837831612.73236 -205837831612.73236 L-222337854973.81995 -222337854973.81995 L-240160525238.63272 -240160525238.63272 L-259411866186.266 -259411866186.266 L-280206400494.27826 -280206400494.27826 L-302667831012.9798 -302667831012.9798 L-326929776650.8818 -326929776650.8818 L-353136567248.938 -353136567248.938 L-381444102172.1737 -381444102172.1737 L-412020777726.2379 -412020777726.2379 L-445048488915.99347 -445048488915.99347 L-480723711505.35425 -480723711505.35425 L-519258670815.3795 -519258670815.3795 L-560882604213.5658 -560882604213.5658 L-605843124804.7056 -605843124804.7056 L-654407694435.5522 -654407694435.5522 L-706865214776.0583 -706865214776.0583 L-763527745942.1335 -763527745942.1335 L-824732362883.711 -824732362883.711 L-890843160581.5154 -890843160581.5154 L-962253419980.9292 -962253419980.9292 L-1039387947547.837 -1039387947547.837 L-1122705602363.959 -1122705602363.959 L-1212702025794.9226 -1212702025794.9226 L-1309912589969.335 -1309912589969.335 L-1414915582608.902 -1414915582608.902 L-1528335647155.4119 -1528335647155.4119 L-1650847498659.414 -1650847498659.414 L-1783179937535.6404 -1783179937535.6404 L-1926120185062.2966 -1926120185062.2966 L-2080518566415.264 -2080518566415.264 L-2247293569095.8203 -2247293569095.8203 L-2427437306843.3984 -2427437306843.3984 L-2622021421537.304 -2622021421537.304 L-2832203458196.5986 -2832203458196.5986 L-3059233751002.1245 -3059233751002.1245 L-3304462861303.8022 -3304462861303.8022 L-3569349611861.2207 -3569349611861.2207 L-3855469765111.1836 -3855469765111.1836 L-4164525397087.9165 -4164525397087.9165 L-4498355022759.46 -4498355022759.46 L-4858944533014.441 -4858944533014.441 L-5248439008360.484 -5248439008360.484 L-5669155479612.853 -5669155479612.853 L-6123596711483.488 -6123596711483.488 L-6614466091066.615 -6614466091066.615 L-7144683709790.434 -7144683709790.434 L-7717403734502.296 -7717403734502.296 L-8336033171025.81 -8336033171025.81 L-9004252131810.254 -9004252131810.254 L-9726035728240.988 -9726035728240.988 L-10505677717843.965 -10505677717843.965 L-11347816047057.848 -11347816047057.848 L-12257460441521.865 -12257460441521.865 L-13240022208010.059 -13240022208010.059 L-14301346425297.463 -14301346425297.463 L-15447746715456.025 -15447746715456.025 L-16686042802427.934 -16686042802427.934 L-18023601081306.18 -18023601081306.18 " stroke = "blue" stroke-width = "4" fill = "none" />	<path d = "M-251217738 251218138 L232574880.73545685 232574880.735435 L215315167.30369747 215315167.3036739 L199336322.91066754 199336322.91064203 L184543292.3574004 184543292.35737288 L170848074.63280997 170848074.63278025 L158169199.4119024 158169199.4118703 L146431242.40383738 146431242.4038027 L135564376.66672614 135564376.66668868 L125503957.2200321 125503957.21999164 L116190136.48349972 116190136.48345602 L107567508.25493498 107567508.25488776 L99584778.10892648 99584778.10887545 L92194458.25576498 92194458.25570987 L85352585.0453389 85352585.04527938 L79018457.43548758 79018457.4354233 L73154394.86900464 73154394.8689352 L67725513.11895227 67725513.11887726 L62699516.76882667 62699516.76874566 L58046507.0930802 58046507.092992686 L53738804.195117 53738804.19502247 L49750782.344691075 49750782.344588965 L46058717.53516215 46058717.53505187 L42640646.353755675 42640646.35363654 L39476235.325268984 39476235.325140305 L36546659.9519767 36546659.95183771 L33834492.73016526 33834492.73001512 L31323599.477126673 31323599.476964496 L28999043.351880115 28999043.351704936 L26846995.998659596 26846995.99847038 L24854655.284575257 24854655.284370873 L23010169.142085113 23010169.14186435 L21302565.063230865 21302565.062992405 L19721684.826211195 19721684.82595362 L18258124.06599336 18258124.065715134 L16903176.329479627 16903176.3291791 L15648781.282423297 15648781.282098679 L14487476.75998636 14487476.759635722 L13412354.3756968 13412354.375318054 L12417018.424731538 12417018.424322434 L11495547.837047504 11495547.836605605 L10642460.95402775 10642460.953550424 L9852682.919105276 9852682.91858969 L9121515.48837686 9121515.487819944 L8444609.08161652 8444609.081014963 L7817936.907424689 7817936.90677491 L7237771.008588652 7237771.007886789 L6700660.085152617 6700660.084394491 L6203408.963270524 6203408.962451626 L5743059.587706003 5743059.586821462 L5316873.424907331 5316873.423951886 L4922315.171976162 4922315.170944127 L4557037.674618068 4557037.673503305 L4218867.964354504 4218867.963150381 L3905794.331933984 3905794.3306333385 L3615954.360044621 3615954.3586397157 L3347623.8441370144 3347623.8426194917 L3099206.535449298 3099206.53381013 L2869224.645217557 2869224.6434469926 L2656310.053582985 2656310.0516704917 L2459196.170899105 2459196.1688333056 L2276710.4030235056 2276710.4007921116 L2107767.1757715014 2107767.1733612376 L1951361.4770354887 1951361.474432017 L1806562.8781532075 1806562.8753410412 L1672509.9989592093 1672509.9959216188 L1548405.383593075 1548405.3803119904 L1433510.7565815456 1433510.7530374483 L1327142.6309738604 1327142.6271456673 L1228668.242403914 1228668.2382688515 L1137501.7848917237 1137501.7804251935 L1053100.9259916602 1053100.9211670915 L974963.580556735 974963.5753454276 L902624.9239266416 902624.9182975941 L835654.6267715553 835654.6206912816 L773654.295142302 773654.2885746319 L716255.1004982115 716255.0934040747 L663115.5856141412 663115.5779513363 L613919.6333143986 613919.6250373408 L568374.5859499557 568374.5770094068 L526209.504432058 526209.4947748317 L487173.5564655417 487173.5460341893 L451034.5243937625 451034.51312622963 L417577.4237785725 417577.4116078309 L386603.2244975426 386603.21135119046 L357927.6667504575 357927.6525502898 L331380.1649317437 331380.14959328633 L306802.792848155 306802.77628016216 L284049.3442449688 284049.3263488806 L262984.46305193525 262984.4437212912 L243482.83817497385 243482.8172947795 L225428.458043582 225428.43548962483 L208713.92047939062 208713.8961175014 L193239.79378041098 193239.76746566527 L178914.0252201731 178913.99679602933 L165651.39344302914 165651.36274039737 L153373.00149802424 153372.96833426013 L142005.80749547976 142005.7716732982 L131482.19009426265 131482.1514005641 L121739.54623489553 121739.5044394983 L112719.91872549699 112719.87357976798 L104369.65146513584 104369.60270051146 L96639.07025357944 96639.0175799679 L89482.18728863628 89482.13039269196 L82856.42759319986 82856.36613645927 L76722.37574456091 76722.30936142926 L71043.54139932468 71043.46969490097 L65786.14221908743 65786.06476681525 L60918.902905533556 60918.81924466362 L56412.869149453385 56412.7787823026 L52241.235386895845 52241.1377758867 L48379.1853378119 48379.079902274505 L44803.74437858003 44803.6304912978 L41493.64287020643 41493.51985368494 L38429.189629164975 38429.056751601616 L35592.15478817672 35592.01125910737 L32965.66135009138 32965.506315688064 L30534.08478974284 30533.91732773448 L28282.960106530078 28282.779220716067 L26198.895774795852 26198.700389119826 L24269.49408010966 24269.283032258278 L22483.277367550654 22483.04940203915 L20829.61976325497 20829.37352395855 L19298.683963051313 19298.417985137814 L17881.362712152335 17881.075413368188 L16569.224627775133 16568.914299032847 L15354.46404239998 15354.128837611092 L14229.854569293182 14229.492494386204 L13188.706114065086 13188.315015123162 L12224.825076532125 12224.402626979767 L11332.477506131281 11332.021192893993 L10506.354991705504 10505.862100259981 L9741.54308274459 9741.010680970503 L9033.492054225191 9032.916974962556 L8377.989841135626 8377.368663343947 L7771.136981677763 7770.466010084898 L7209.3234200878305 7208.59866320749 L6689.207031080287 6688.424177467433 L6207.693738160784 6206.848130763618 L5761.919107535614 5761.005715991653 L5349.2313081232205 5348.244698834589 L4967.1753363000835 4966.109640110044 L4613.4784115368275 4612.327288815248 L4286.036456045946 4284.79305897601 L3982.9015780109867 3981.5585098527954 L3702.270483937323 3700.8197550260493 L3442.473751191666 3440.9067314085164 L3201.965896914627 3200.273264347853 L2979.3161842281697 2977.4878697187337 L2773.200111045725 2771.2252382877327 L2582.3915308535225 2580.2583516930827 L2405.7553585910387 2403.45118313866 L2242.2408182392924 2239.7519393800735 L2090.875191948051 2088.1868038005823 L1950.7580335166979 1947.8541433555981 L1821.0558118058193 1817.9191449239675 L1700.9969522141491 1697.6088491586322 L1589.867246723537 1586.207552294007 L1487.0056052071384 1483.052548556243 L1391.8001227261514 1387.5301878487753 L1303.6844394201628 1299.0722252610503 L1222.134371336765 1217.1524406843262 L1146.664792157887 1141.2835084252847 L1076.8267472727678 1071.0140981953277 L1012.2047830297706 1005.9261902299208 L952.4144752792077 945.6325885660868 L897.1001425049587 889.7746176850171 L845.9327299407173 838.0199888175489 L798.6078520838576 790.0608232195451 L754.843981962207 745.6118206580165 L714.3807763819983 704.4085622126422 L676.9775271942132 666.2059372963669 L642.4117293661902 630.7766855377165 L610.4777573402107 597.9100448507509 L580.985641804973 567.4104976502779 L553.7599396031858 539.0966077537894 L528.6386900525767 512.7999410510674 L505.47245147165756 488.36406352072004 L484.12341217871466 465.6436106330311 L464.4645706755273 444.5034226031787 L446.3789801388715 424.8177403505961 L429.75905272543264 406.4694573813904 L414.5059195515637 389.34942314340327 L400.52884254052697 373.355793709703 L387.74467463840597 358.39342592784135 L376.07736518761396 344.3733114307835 L365.4575075155541 331.21204714254435 L355.8219260471228 318.83133912866856 L347.11330048486167 307.15753684005074 L339.27982482107757 296.12119497939926 L332.2748991534552 285.6566603839676 L326.0568524708305 275.70168146699496 L320.58869476002957 266.1970378944951 L315.8378969591001 257.0861882944091 L311.77619744792037 248.3149339024086 L308.37943392503183 239.83109614344028 L305.6273996705636 231.58420623100434 L303.5037233401812 223.52520493764936 L301.99577157497816 215.60615075067415 L301.0945738479535 207.77993467690868 L300.7947691000002 200 L301.0945738479535 192.22006532309132 L301.99577157497816 184.39384924932585 L303.5037233401812 176.47479506235064 L305.6273996705636 168.41579376899566 L308.37943392503183 160.16890385655972 L311.77619744792037 151.6850660975914 L315.8378969591001 142.9138117055909 L320.58869476002957 133.8029621055049 L326.0568524708305 124.29831853300506 L332.2748991534552 114.3433396160324 L339.27982482107757 103.87880502060075 L347.11330048486167 92.84246315994925 L355.8219260471228 81.16866087133141 L365.4575075155541 68.78795285745565 L376.07736518761396 55.6266885692165 L387.74467463840597 41.60657407215862 L400.52884254052697 26.644206290297006 L414.5059195515637 10.650576856596729 L429.75905272543264 -6.469457381390356 L446.3789801388715 -24.817740350596125 L464.4645706755273 -44.503422603178706 L484.12341217871466 -65.64361063303107 L505.47245147165756 -88.36406352072004 L528.6386900525767 -112.79994105106749 L553.7599396031858 -139.09660775378939 L580.985641804973 -167.41049765027782 L610.4777573402107 -197.91004485075092 L642.4117293661902 -230.77668553771656 L676.9775271942132 -266.20593729636687 L714.3807763819983 -304.40856221264215 L754.843981962207 -345.61182065801654 L798.6078520838576 -390.0608232195451 L845.9327299407173 -438.0199888175489 L897.1001425049587 -489.7746176850171 L952.4144752792077 -545.6325885660868 L1012.2047830297706 -605.9261902299208 L1076.8267472727678 -671.0140981953277 L1146.664792157887 -741.2835084252847 L1222.134371336765 -817.1524406843262 L1303.6844394201628 -899.0722252610503 L1391.8001227261514 -987.5301878487753 L1487.0056052071384 -1083.052548556243 L1589.867246723537 -1186.207552294007 L1700.9969522141491 -1297.6088491586322 L1821.0558118058193 -1417.9191449239675 L1950.7580335166979 -1547.8541433555981 L2090.875191948051 -1688.186803800582 L2242.2408182392924 -1839.7519393800735 L2405.7553585910387 -2003.4511831386599 L2582.3915308535225 -2180.2583516930827 L2773.200111045725 -2371.2252382877327 L2979.3161842281697 -2577.4878697187337 L3201.965896914627 -2800.273264347853 L3442.473751191666 -3040.9067314085164 L3702.270483937323 -3300.8197550260493 L3982.9015780109867 -3581.5585098527954 L4286.036456045946 -3884.79305897601 L4613.4784115368275 -4212.327288815248 L4967.1753363000835 -4566.109640110044 L5349.2313081232205 -4948.244698834589 L5761.919107535614 -5361.005715991653 L6207.693738160784 -5806.848130763618 L6689.207031080287 -6288.424177467433 L7209.3234200878305 -6808.59866320749 L7771.136981677763 -7370.466010084898 L8377.989841135626 -7977.368663343947 L9033.492054225191 -8632.916974962556 L9741.54308274459 -9341.010680970503 L10506.354991705504 -10105.862100259981 L11332.477506131281 -10932.021192893993 L12224.825076532125 -11824.402626979767 L13188.706114065086 -12788.315015123162 L14229.854569293182 -13829.492494386204 L15354.46404239998 -14954.128837611092 L16569.224627775133 -16168.914299032847 L17881.362712152335 -17481.075413368188 L19298.683963051313 -18898.417985137814 L20829.61976325497 -20429.37352395855 L22483.277367550654 -22083.04940203915 L24269.49408010966 -23869.283032258278 L26198.895774795852 -25798.700389119826 L28282.960106530078 -27882.779220716067 L30534.08478974284 -30133.91732773448 L32965.66135009138 -32565.506315688064 L35592.15478817672 -35192.01125910737 L38429.189629164975 -38029.056751601616 L41493.64287020643 -41093.51985368494 L44803.74437858003 -44403.6304912978 L48379.1853378119 -47979.079902274505 L52241.235386895845 -51841.1377758867 L56412.869149453385 -56012.7787823026 L60918.902905533556 -60518.81924466362 L65786.14221908743 -65386.06476681525 L71043.54139932468 -70643.46969490097 L76722.37574456091 -76322.30936142926 L82856.42759319986 -82456.36613645927 L89482.18728863628 -89082.13039269196 L96639.07025357944 -96239.0175799679 L104369.65146513584 -103969.60270051146 L112719.91872549699 -112319.87357976798 L121739.54623489553 -121339.5044394983 L131482.19009426265 -131082.1514005641 L142005.80749547976 -141605.7716732982 L153373.00149802424 -152972.96833426013 L165651.39344302914 -165251.36274039737 L178914.0252201731 -178513.99679602933 L193239.79378041098 -192839.76746566527 L208713.92047939062 -208313.8961175014 L225428.458043582 -225028.43548962483 L243482.83817497385 -243082.8172947795 L262984.46305193525 -262584.4437212912 L284049.3442449688 -283649.3263488806 L306802.792848155 -306402.77628016216 L331380.1649317437 -330980.14959328633 L357927.6667504575 -357527.6525502898 L386603.2244975426 -386203.21135119046 L417577.4237785725 -417177.4116078309 L451034.5243937625 -450634.51312622963 L487173.5564655417 -486773.5460341893 L526209.504432058 -525809.4947748317 L568374.5859499557 -567974.5770094068 L613919.6333143986 -613519.6250373408 L663115.5856141412 -662715.5779513363 L716255.1004982115 -715855.0934040747 L773654.295142302 -773254.2885746319 L835654.6267715553 -835254.6206912816 L902624.9239266416 -902224.9182975941 L974963.580556735 -974563.5753454276 L1053100.9259916602 -1052700.9211670915 L1137501.7848917237 -1137101.7804251935 L1228668.242403914 -1228268.2382688515 L1327142.6309738604 -1326742.6271456673 L1433510.7565815456 -1433110.7530374483 L1548405.383593075 -1548005.3803119904 L1672509.9989592093 -1672109.9959216188 L1806562.8781532075 -1806162.8753410412 L1951361.4770354887 -1950961.474432017 L2107767.1757715014 -2107367.1733612376 L2276710.4030235056 -2276310.4007921116 L2459196.170899105 -2458796.1688333056 L2656310.053582985 -2655910.0516704917 L2869224.645217557 -2868824.6434469926 L3099206.535449298 -3098806.53381013 L3347623.8441370144 -3347223.8426194917 L3615954.360044621 -3615554.3586397157 L3905794.331933984 -3905394.3306333385 L4218867.964354504 -4218467.963150381 L4557037.674618068 -4556637.673503305 L4922315.171976162 -4921915.170944127 L5316873.424907331 -5316473.423951886 L5743059.587706003 -5742659.586821462 L6203408.963270524 -6203008.962451626 L6700660.085152617 -6700260.084394491 L7237771.008588652 -7237371.007886789 L7817936.907424689 -7817536.90677491 L8444609.08161652 -8444209.081014963 L9121515.48837686 -9121115.487819944 L9852682.919105276 -9852282.91858969 L10642460.95402775 -10642060.953550424 L11495547.837047504 -11495147.836605605 L12417018.424731538 -12416618.424322434 L13412354.3756968 -13411954.375318054 L14487476.75998636 -14487076.759635722 L15648781.282423297 -15648381.282098679 L16903176.329479627 -16902776.3291791 L18258124.06599336 -18257724.065715134 L19721684.826211195 -19721284.82595362 L21302565.063230865 -21302165.062992405 L23010169.142085113 -23009769.14186435 L24854655.284575257 -24854255.284370873 L26846995.998659596 -26846595.99847038 L28999043.351880115 -28998643.351704936 L31323599.477126673 -31323199.476964496 L33834492.73016526 -33834092.73001512 L36546659.9519767 -36546259.95183771 L39476235.325268984 -39475835.325140305 L42640646.353755675 -42640246.35363654 L46058717.53516215 -46058317.53505187 L49750782.344691075 -49750382.344588965 L53738804.195117 -53738404.19502247 L58046507.0930802 -58046107.092992686 L62699516.76882667 -62699116.76874566 L67725513.11895227 -67725113.11887726 L73154394.86900464 -73153994.8689352 L79018457.43548758 -79018057.4354233 L85352585.0453389 -85352185.04527938 L92194458.25576498 -92194058.25570987 L99584778.10892648 -99584378.10887545 L107567508.25493498 -107567108.25488776 L116190136.48349972 -116189736.48345602 L125503957.2200321 -125503557.21999164 L135564376.66672614 -135563976.66668868 L146431242.40383738 -146430842.4038027 L158169199.4119024 -158168799.4118703 L170848074.63280997 -170847674.63278025 L184543292.3574004 -184542892.35737288 L199336322.91066754 -199335922.91064203 L215315167.30369747 -215314767.3036739 L232574880.73545685 -232574480.735435 L251218138.05864638 -251217738.0586262 L271355844.57346547 -271355444.57344675 L293107795.7827962 -293107395.7827788 L316603390.0335559 -316602990.03353983 L341982398.28360784 -341981998.28359306 L369395795.57341784 -369395395.57340413 L399006659.1487274 -399006259.14871466 L430991138.57701904 -430990738.5770072 L465539503.6288218 -465539103.6288109 L502857276.1574804 -502856876.1574703 L543166452.7107716 -543166052.7107621 L586706825.1474386 -586706425.1474301 L633737407.1147262 -633737007.1147182 L684537974.872827 -684537574.8728195 L739410731.6322566 -739410331.6322497 L798682105.3050318 -798681705.3050255 L862704690.3641294 -862704290.3641233 L931859345.3629911 -931858945.3629855 L1006557458.5928317 -1006557058.5928268 L1087243395.3557324 -1087242995.355728 L1174397141.411867 -1174396741.4118624 L1268537158.326327 -1268536758.326323 L1370223467.7013204 -1370223067.7013166 L1480060982.6414628 -1480060582.6414592 L1598703106.2702787 -1598702706.2702758 L1726855618.704908 -1726855218.7049048 L1865280875.61188 -1865280475.6118772 L2014802343.3204093 -2014801943.3204072 L2176309497.471747 -2176309097.471745 L2350763114.34576 -2350762714.345758 L2539200986.3418646 -2539200586.341862 L2742744095.614652 -2742743695.6146507 L2962603282.590031 -2962602882.5900297 L3200086449.031653 -3200086049.0316515 L3456606338.507341 -3456605938.5073395 L3733688940.540084 -3733688540.5400825 L4032982568.438341 -4032982168.4383397 L4356267664.807933 -4356267264.807931 L4705467393.076886 -4705466993.076884 L5082659078.040007 -5082658678.040005 L5490086563.481056 -5490086163.481055 L5930173560.385687 -5930173160.385686 L6405538065.151184 -6405537665.151182 L6919007933.564303 -6919007533.564303 L7473637703.193926 -7473637303.193926 L8072726764.271824 -8072726364.271824 L8719838987.156782 -8719838587.156782 L9418823923.142223 -9418823523.142223 L10173839704.727032 -10173839304.727032 L10989377781.579084 -10989377381.579084 L11870289639.34118 -11870289239.34118 L12821815660.224411 -12821815260.224411 L13849616297.075905 -13849615897.075905 L14959805746.368927 -14959805346.368927 L16158988320.430351 -16158987920.430351 L17454297735.276924 -17454297335.276924 L18853439547.776466 -18853439147.776466 L20364736994.58487 -20364736594.58487 L21997180505.54623 -21997180105.54623 L23760481186.102257 -23760480786.102257 L25665128586.867943 -25665128186.867943 L27722453104.03398 -27722452704.03398 L29944693381.804516 -29944692981.804516 L32345069117.83496 -32345068717.83496 L34937859704.77532 -34937859304.77532 L37738489175.74476 -37738488775.74476 L40763617959.06017 -40763617559.06017 L44031241988.052376 -44031241588.052376 L47560799755.55515 -47560799355.55515 L51373287949.91497 -51373287549.91497 L55491386360.418335 -55491385960.418335 L59939592795.17636 -59939592395.17636 L64744368814.06808 -64744368414.06808 L69934297143.68095 -69934296743.68095 L75540251710.68098 -75540251310.68098 L81595581305.10965 -81595580905.10965 L88136307966.18666 -88136307566.18666 L95201341270.7796 -95201340870.7796 L102832709799.30084 -102832709399.30084 L111075811155.98471 -111075810755.98471 L119979682030.86307 -119979681630.86307 L129597289909.99269 -129597289509.99269 L139985848169.2633 -139985847769.2633 L151207156426.2211 -151207156026.2211 L163327968174.59836 -163327967774.59836 L176420387888.53912 -176420387488.53912 L190562299958.8205 -190562299558.8205 L205837832012.73236 -205837831612.73236 L222337855373.81995 -222337854973.81995 L240160525638.63272 -240160525238.63272 L259411866586.266 -259411866186.266 L280206400894.27826 -280206400494.27826 L302667831412.9798 -302667831012.9798 L326929777050.8818 -326929776650.8818 L353136567648.938 -353136567248.938 L381444102572.1737 -381444102172.1737 L412020778126.2379 -412020777726.2379 L445048489315.99347 -445048488915.99347 L480723711905.35425 -480723711505.35425 L519258671215.3795 -519258670815.3795 L560882604613.5658 -560882604213.5658 L605843125204.7056 -605843124804.7056 L654407694835.5522 -654407694435.5522 L706865215176.0583 -706865214776.0583 L763527746342.1335 -763527745942.1335 L824732363283.711 -824732362883.711 L890843160981.5154 -890843160581.5154 L962253420380.9292 -962253419980.9292 L1039387947947.837 -1039387947547.837 L1122705602763.959 -1122705602363.959 L1212702026194.9226 -1212702025794.9226 L1309912590369.335 -1309912589969.335 L1414915583008.902 -1414915582608.902 L1528335647555.4119 -1528335647155.4119 L1650847499059.414 -1650847498659.414 L1783179937935.6404 -1783179937535.6404 L1926120185462.2966 -1926120185062.2966 L2080518566815.264 -2080518566415.264 L2247293569495.8203 -2247293569095.8203 L2427437307243.3984 -2427437306843.3984 L2622021421937.304 -2622021421537.304 L2832203458596.5986 -2832203458196.5986 L3059233751402.1245 -3059233751002.1245 L3304462861703.8022 -3304462861303.8022 L3569349612261.2207 -3569349611861.2207 L3855469765511.1836 -3855469765111.1836 L4164525397487.9165 -4164525397087.9165 L4498355023159.46 -4498355022759.46 L4858944533414.441 -4858944533014.441 L5248439008760.484 -5248439008360.484 L5669155480012.853 -5669155479612.853 L6123596711883.488 -6123596711483.488 L6614466091466.615 -6614466091066.615 L7144683710190.434 -7144683709790.434 L7717403734902.296 -7717403734502.296 L8336033171425.81 -8336033171025.81 L9004252132210.254 -9004252131810.254 L9726035728640.988 -9726035728240.988 L10505677718243.965 -10505677717843.965 L11347816047457.848 -11347816047057.848 L12257460441921.865 -12257460441521.865 L13240022208410.059 -13240022208010.059 L14301346425697.463 -14301346425297.463 L15447746715856.025 -15447746715456.025 L16686042802827.934 -16686042802427.934 L18023601081706.18 -18023601081306.18 " stroke = "blue" stroke-width = "4" fill = "none" /></svg>