<svg width="400" height="400" viewbox = "0 0 400 400"  xmlns="http://www.w3.org/2000/svg">

<!--
<topfunctions>




function XYofT(){
    T = plotparams.g*t;
    
    
    X = funcparams.a*Math.cosh(2*Math.PI*T/funcparams.T);
    Y = funcparams.b*Math.sinh(2*Math.PI*T/funcparams.T);
    
    Xrot = Math.cos(Math.PI*funcparams.theta/180)*X - Math.sin(funcparams.theta*Math.PI/180)*Y;
    Yrot = Math.sin(funcparams.theta*Math.PI/180)*X + Math.cos(funcparams.theta*Math.PI/180)*Y;
    X = Xrot;
    Y = Yrot;
    y = plotparams.y0 - plotparams.G*(Y - funcparams.Y0);
    x = plotparams.x0 - plotparams.G*(X - funcparams.X0);    
}

function XYofT2(){
    T = plotparams.g*t;
    X = -funcparams.a*Math.cosh(2*Math.PI*T/funcparams.T);
    Y = funcparams.b*Math.sinh(2*Math.PI*T/funcparams.T);
       Xrot = Math.cos(funcparams.theta*Math.PI/180)*X - Math.sin(funcparams.theta*Math.PI/180)*Y;
    Yrot = Math.sin(funcparams.theta*Math.PI/180)*X + Math.cos(funcparams.theta*Math.PI/180)*Y;
    X = Xrot;
    Y = Yrot;
    y = plotparams.y0 - plotparams.G*(Y - funcparams.Y0);
    x = plotparams.x0 - plotparams.G*(X - funcparams.X0);   
}

function plotfunction(){


    currentStroke = "blue";
    currentLineWidth = 4;
    ctx.strokeStyle = currentStroke;
    ctx.lineWidth = currentLineWidth;
    ctx.beginPath();	
    x = 0;
    y = 0;
    t = plotparams.tstart;
    XYofT();
    currentSVG += "	<path d = \"M";
    currentSVG += Math.round(x).toString() + " ";
    currentSVG += Math.round(y).toString() + " ";
    for(t = 1 + plotparams.tstart; t < plotparams.tstart + plotparams.duration;t++){
        ctx.moveTo(x,y);
        XYofT();
        ctx.lineTo(x,y);
        currentSVG += "L" + x + " " + y + " ";
    }
    ctx.stroke();
    currentSVG += "\""+ " stroke = \"" + currentStroke + "\" stroke-width = \"" + currentLineWidth.toString() + "\" fill = \"" + "none" + "\" "+"/>";


    currentStroke = "blue";
    currentLineWidth = 4;
    ctx.strokeStyle = currentStroke;
    ctx.lineWidth = currentLineWidth;
    ctx.beginPath();	
    x = 0;
    y = 0;
    t = plotparams.tstart;
    XYofT();
    currentSVG += "	<path d = \"M";
    currentSVG += Math.round(x).toString() + " ";
    currentSVG += Math.round(y).toString() + " ";
    for(t = 1 + plotparams.tstart; t < plotparams.tstart + plotparams.duration;t++){
        ctx.moveTo(x,y);
        XYofT2();
        ctx.lineTo(x,y);
        currentSVG += "L" + x + " " + y + " ";
    }
    ctx.stroke();
    currentSVG += "\""+ " stroke = \"" + currentStroke + "\" stroke-width = \"" + currentLineWidth.toString() + "\" fill = \"" + "none" + "\" "+"/>";

    /*plot one function:
    currentStroke = "blue";
    currentLineWidth = 4;
    ctx.strokeStyle = currentStroke;
    ctx.lineWidth = currentLineWidth;
    ctx.beginPath();	
    x = 0;
    YofX();
    currentSVG += "	<path d = \"M";
    currentSVG += Math.round(x).toString() + " ";
    currentSVG += Math.round(y).toString() + " ";
    for(x = 1;x < plotparams.plotwidth;x++){
        ctx.moveTo(x-1,y);
        YofX();
        ctx.lineTo(x,y);
        currentSVG += "L" + x + " " + y + " ";
    }
    ctx.stroke();
    currentSVG += "\""+ " stroke = \"" + currentStroke + "\" stroke-width = \"" + currentLineWidth.toString() + "\" fill = \"" + "none" + "\" "+"/>";
    /*finish plot one function*/
    

}






















</topfunctions>
-->

<!--
<imgurl>

</imgurl>
-->

<!--
<currentjson>
{
    "constants": {},
    "imgurl": "",
    "plotparams": {
        "G": 100.79476910000022,
        "g": 0.017985878990921366,
        "tstart": -200,
        "duration": 545.4545454545454,
        "plotwidth": 400,
        "plotheight": 400,
        "x0": 200,
        "y0": 200
    },
    "funcparams": {
        "theta": 90,
        "a": 0.564473930053777,
        "b": -0.466507380209733,
        "T": 1.4655609018152753,
        "X0": 0,
        "Y0": 0
    }
}
</currentjson>
-->

<!--
<equation>

<h2>Hyperbola</h2>
<p style="color:blue">

</p><p class="bigeq">
$$
(X,Y) = (\pm a\cosh{\frac{2\pi t}{T}},b\sinh{\frac{2\pi t}{T}})
$$
</p>
<p></p>

$$
X = g(x - x_0) - X_0
$$
$$
Y = f(X)
$$
    
$$
y = y_0 - G(Y - Y_0)
$$


<p>
    X and Y, and $X_0$ and $Y_0$ in physical units of the System. x and y and x0 and y0 in pixels.  G is in pixels per Y unit and g is in X units per pixel. 
</p>


</equation>
-->
	<path d = "M117195222 -141805777 L108498005.01300284 -131282144.0657458 L100446221.31678121 -121539485.79331858 L92991972.48020893 -112519844.70106724 L86090914.5514408 -104169564.60725893 L79701994.4093392 -96438971.23531723 L73787205.54602642 -89282076.7107101 L68311361.97317831 -82656305.98756535 L63241888.90706635 -76522243.57757144 L58548628.98717666 -70843399.07450661 L54203662.87563234 -65585990.07953981 L50181143.17020047 -60718741.23596924 L46457140.64286301 -56212698.17789306 L43009501.889250755 -52041055.28602453 L39817717.54212567 -48178996.22600567 L36862800.26493758 -44603546.32061076 L34127171.79965925 -41293435.8776269 L31594558.396971293 -38228973.66037761 L29249894.006727718 -35391929.748186275 L27079230.652801663 -32765427.08993941 L25069655.4591477 -30333841.10562208 L23209213.83348279 -28082706.738571823 L21486838.35162109 -25998632.40552378 L19892282.919408638 -24069220.33255171 L18416061.82059808 -22282992.802996315 L17049393.288071737 -20629323.87864526 L15784147.262728568 -19098376.187986318 L14612797.029261626 -17681042.405498117 L13528374.441116301 -16368891.073849611 L12524428.46827156 -15154116.446715396 L11594986.821251808 -14029492.053830063 L10734520.423077933 -12988327.71204892 L9937910.517807929 -12024429.726682201 L9200418.220001625 -11132064.046347363 L8517656.323965004 -10305922.152154708 L7885563.205072472 -9541089.478307333 L7300378.65791092 -8833016.176255452 L6758621.52751101 -8177490.048486249 L6257069.000598133 -7570611.490937536 L5792737.433670602 -7008770.294972359 L5362864.603854502 -6488624.170913389 L4964893.276949143 -6007078.865377901 L4596455.99491242 -5561269.754135065 L4255360.992289345 -5148544.800984472 L3939579.1578035695 -4766448.781281884 L3647231.963548505 -4412708.676260475 L3376580.289971182 -4085220.151261315 L3126014.08017076 -3782035.0374345626 L2894042.7619668436 -3501349.7424421287 L2679286.3807604294 -3241494.521219421 L2480467.390438505 -3000923.5429699156 L2296403.053487727 -2778205.6953027067 L2125998.405107041 -2572016.070808775 L1968239.7394640145 -2381128.085431154 L1822188.5793457446 -2204406.1817425317 L1686976.093330937 -2040799.0737234666 L1561797.9272720164 -1889333.4928557423 L1445909.4193406086 -1749108.3983274049 L1338621.1701716196 -1619289.6169070976 L1239294.9417535395 -1499104.8806013358 L1147339.8606681956 -1387839.2325746068 L1062208.903093737 -1284830.774002986 L983395.6406607833 -1189466.7265600788 L910431.2278034401 -1101179.7871117545 L842881.6126834697 -1019444.7529343929 L780344.9550959435 -943775.3973807326 L722449.2359959598 -873721.5774071984 L668850.0444259394 -808866.5557559375 L619228.5286783456 -748824.5218617137 L573289.499505668 -693238.2967359934 L530759.674094022 -641777.2081750066 L491386.0503540744 -594135.1236517733 L454934.40185826813 -550028.6291901517 L421187.88447099295 -509195.34338735207 L389945.7463828059 -471392.35655535123 L361022.1338749342 -436394.78569594916 L334244.98570977047 -403994.4367132777 L309455.00957029895 -373998.56590551534 L286504.7344594695 -346228.73336814146 L265257.63342243154 -320519.74148784904 L245587.31137285198 -296718.6522124034 L227376.75319185347 -274683.8772503692 L210517.62762664785 -254284.33578847253 L194909.64284788855 -235398.67471601162 L180459.9498320716 -217914.5467175797 L167082.59001981327 -201727.9419395986 L154697.98396423145 -186742.5692548794 L143232.45792748933 -172869.28344446217 L132617.8056093138 -160025.554889145 L122790.88240029158 -148134.97861599745 L113693.2297462307 -137126.81977926454 L105270.72738900172 -126935.59287181296 L97473.27141509998 -117500.67216392235 L90254.47619670354 -108765.93105199926 L83571.39845212625 -100679.40817176092 L77384.281784153 -93192.99828966038 L71656.32017656408 -86262.16613372281 L66353.4390419299 -79845.6814614228 L61444.092518174686 -73905.37378857547 L56899.07580805956 -68405.90532016422 L52691.35144522791 -63314.560732312864 L48795.888453304324 -58601.05255485742 L45189.513441231196 -54237.3409967703 L41850.7727490385 -50197.467142613896 L38759.804823976105 -46457.39852773898 L35898.222067799084 -42994.88617358411 L33249.00145233586 -39789.332232604254 L30796.38325263285 -36821.66745547423 L28525.777295256343 -34074.23775164022 L26423.67616404125 -31530.69916839067 L24477.57484696267 -29175.920663694793 L22675.896346125475 -26995.89409442399 L21007.922808338302 -24977.65088449113 L19463.73176658116 -23109.18487718255 L18034.137113078876 -21379.38091274585 L16710.63445283955 -19777.948706353716 L15485.350512577099 -18295.36163309723 L14350.996304060038 -16922.80005585064 L13300.82376326458 -15652.098858876469 L12328.585607386052 -14475.698875057553 L11428.498170905385 -13386.60191780562 L10595.20699962934 -12378.329150139698 L9823.75499802993 -11444.882543279602 L9109.552940397089 -10580.70919547862 L8448.352170381115 -9780.668298834937 L7836.219326519451 -9040.000557573303 L7269.512943394717 -8354.299875872166 L6744.86178922822 -7719.487146811864 L6259.144811043844 -7131.785986519841 L5809.4725680993615 -6587.700269159299 L5393.170043136202 -6083.993329121195 L5007.760729195061 -5617.668706697369 L4650.951897332629 -5185.952322694269 L4320.620957599861 -4786.275975947305 L4014.802832145751 -4416.262065565691 L3731.6782653315354 -4073.7094470231386 L3469.563001314363 -3756.580337954959 L3226.897764719823 -3462.9881957664916 L3002.238984800267 -3191.1864949390842 L2794.250207898616 -2939.558337271824 L2601.69414713197 -2706.606833252266 L2423.4253220000896 -2490.9461973367443 L2258.383244133115 -2291.2935041676938 L2105.5861086418 -2106.461056687262 L1964.1249535412492 -1935.3493207464962 L1833.1582525036813 -1776.9403841794442 L1711.9069087734756 -1630.2919014313723 L1599.6496204642203 -1494.5314877188111 L1495.7185896667984 -1368.8515293733421 L1399.4955498427566 -1252.5043794967955 L1310.4080878706773 -1144.797910347722 L1227.926238866053 -1045.0913960010616 L1151.55933351792 -952.7917007877747 L1080.8530791875987 -867.3497508401065 L1015.3868574055471 -788.2572677523927 L954.7712216896513 -715.0437449265467 L898.6455807999065 -647.2736486150621 L846.6760536476236 -584.5438270110574 L798.553483098394 -526.4811119725131 L753.9915968533043 -472.7400991138044 L712.725304467814 -423.0010930586991 L674.5091203775808 -376.9682056315105 L639.1157035501056 -334.3675956729044 L606.3345050748454 -294.9458400093291 L575.9705156465711 -258.46842588528983 L547.8431054909668 -224.7183558902048 L521.7849498314074 -193.49485708082204 L497.6410335047179 -164.61218662000164 L475.2677288045483 -137.8985268268251 L454.531941066634 -113.19496306489395 L435.31031691317787 -90.35453838845962 L417.48851044635114 -69.24137932264983 L400.9605030256321 -49.729887577221376 L385.62797258246115 -31.703992885489384 L371.3997087203853 -15.056462523713662 L358.19107012122765 0.31173659660294106 L345.9234810294924 14.492027058296856 L334.5239638196841 27.56876479463179 L323.9247048658697 39.619740907191755 L314.06265113092206 50.716644430800244 L304.8791350756286 60.92548879836977 L296.3195256563175 70.30700454264206 L288.3329033348532 78.9170005709295 L280.8717571676924 86.8066961620137 L273.8917021720417 94.02302566019128 L267.3512152877787 100.60891767903347 L261.21138836442435 106.60355047579283 L255.43569670372952 112.04258501563159 L249.98978178098002 116.95837711212792 L244.8412468524685 121.38016990604477 L239.95946423323954 125.33426782738215 L235.3153930986395 128.84419307558113 L230.88140672580533 131.93082554875082 L226.63112814738432 134.6125270543323 L222.53927323981904 136.90525054010544 L218.58150031275832 138.82263499533363 L214.73426530482976 140.37608658659596 L210.97468172435987 141.57484651096908 L207.28038450185517 142.42604597020477 L203.6293969443275 142.9347485929339 L200 143.1039805572599 L196.3706030556725 142.9347485929339 L192.71961549814483 142.42604597020477 L189.02531827564013 141.57484651096908 L185.26573469517024 140.37608658659596 L181.41849968724168 138.82263499533363 L177.46072676018096 136.90525054010544 L173.36887185261565 134.6125270543323 L169.11859327419467 131.93082554875082 L164.6846069013605 128.84419307558113 L160.04053576676046 125.33426782738215 L155.1587531475315 121.38016990604477 L150.01021821901998 116.95837711212792 L144.56430329627048 112.04258501563159 L138.78861163557565 106.60355047579283 L132.6487847122213 100.60891767903347 L126.10829782795831 94.02302566019128 L119.12824283230754 86.8066961620137 L111.66709666514674 78.9170005709295 L103.68047434368245 70.30700454264206 L95.12086492437142 60.92548879836977 L85.93734886907791 50.716644430800244 L76.07529513413029 39.619740907191755 L65.47603618031587 27.56876479463179 L54.07651897050755 14.492027058296856 L41.80892987877226 0.31173659660294106 L28.600291279614623 -15.056462523713662 L14.372027417538817 -31.703992885489384 L-0.9605030256321356 -49.729887577221376 L-17.48851044635117 -69.24137932264983 L-35.31031691317784 -90.35453838845962 L-54.53194106663395 -113.19496306489395 L-75.26772880454831 -137.8985268268251 L-97.64103350471788 -164.61218662000164 L-121.78494983140752 -193.49485708082204 L-147.84310549096693 -224.7183558902048 L-175.9705156465713 -258.46842588528983 L-206.33450507484542 -294.9458400093291 L-239.11570355010565 -334.3675956729044 L-274.5091203775808 -376.9682056315105 L-312.725304467814 -423.0010930586991 L-353.99159685330426 -472.7400991138044 L-398.55348309839405 -526.4811119725131 L-446.6760536476237 -584.5438270110574 L-498.6455807999067 -647.2736486150621 L-554.7712216896515 -715.0437449265467 L-615.3868574055471 -788.2572677523927 L-680.8530791875986 -867.3497508401065 L-751.5593335179202 -952.7917007877747 L-827.9262388660529 -1045.0913960010616 L-910.4080878706773 -1144.797910347722 L-999.4955498427566 -1252.5043794967955 L-1095.7185896667988 -1368.8515293733421 L-1199.6496204642206 -1494.5314877188111 L-1311.9069087734758 -1630.2919014313723 L-1433.1582525036813 -1776.9403841794442 L-1564.1249535412492 -1935.3493207464962 L-1705.5861086418 -2106.461056687262 L-1858.383244133115 -2291.2935041676938 L-2023.4253220000896 -2490.9461973367443 L-2201.69414713197 -2706.606833252266 L-2394.2502078986167 -2939.558337271824 L-2602.2389848002676 -3191.1864949390842 L-2826.897764719824 -3462.9881957664916 L-3069.563001314363 -3756.580337954959 L-3331.6782653315354 -4073.7094470231386 L-3614.802832145751 -4416.262065565691 L-3920.620957599861 -4786.275975947305 L-4250.951897332629 -5185.952322694269 L-4607.760729195061 -5617.668706697369 L-4993.170043136204 -6083.993329121195 L-5409.472568099362 -6587.700269159299 L-5859.144811043846 -7131.785986519841 L-6344.86178922822 -7719.487146811864 L-6869.512943394717 -8354.299875872166 L-7436.219326519451 -9040.000557573303 L-8048.352170381115 -9780.668298834937 L-8709.552940397089 -10580.70919547862 L-9423.75499802993 -11444.882543279602 L-10195.206999629343 -12378.329150139698 L-11028.498170905388 -13386.60191780562 L-11928.585607386056 -14475.698875057553 L-12900.82376326458 -15652.098858876469 L-13950.996304060038 -16922.80005585064 L-15085.350512577099 -18295.36163309723 L-16310.63445283955 -19777.948706353716 L-17634.137113078876 -21379.38091274585 L-19063.73176658116 -23109.18487718255 L-20607.922808338306 -24977.65088449113 L-22275.896346125483 -26995.89409442399 L-24077.574846962678 -29175.920663694793 L-26023.67616404125 -31530.69916839067 L-28125.777295256343 -34074.23775164022 L-30396.38325263285 -36821.66745547423 L-32849.00145233586 -39789.332232604254 L-35498.222067799084 -42994.88617358411 L-38359.804823976105 -46457.39852773898 L-41450.77274903851 -50197.467142613896 L-44789.51344123121 -54237.3409967703 L-48395.88845330433 -58601.05255485742 L-52291.35144522791 -63314.560732312864 L-56499.07580805956 -68405.90532016422 L-61044.092518174686 -73905.37378857547 L-65953.4390419299 -79845.6814614228 L-71256.32017656408 -86262.16613372281 L-76984.281784153 -93192.99828966038 L-83171.39845212628 -100679.40817176092 L-89854.47619670356 -108765.93105199926 L-97073.27141510001 -117500.67216392235 L-104870.72738900172 -126935.59287181296 L-113293.2297462307 -137126.81977926454 L-122390.88240029158 -148134.97861599745 L-132217.8056093138 -160025.554889145 L-142832.45792748933 -172869.28344446217 L-154297.98396423145 -186742.5692548794 L-166682.59001981333 -201727.9419395986 L-180059.94983207167 -217914.5467175797 L-194509.6428478886 -235398.67471601162 L-210117.62762664785 -254284.33578847253 L-226976.75319185347 -274683.8772503692 L-245187.31137285198 -296718.6522124034 L-264857.63342243154 -320519.74148784904 L-286104.7344594695 -346228.73336814146 L-309055.00957029895 -373998.56590551534 L-333844.9857097706 -403994.4367132777 L-360622.13387493434 -436394.78569594916 L-389545.74638280604 -471392.35655535123 L-420787.88447099295 -509195.34338735207 L-454534.40185826813 -550028.6291901517 L-490986.0503540744 -594135.1236517733 L-530359.674094022 -641777.2081750066 L-572889.499505668 -693238.2967359934 L-618828.5286783458 -748824.5218617137 L-668450.0444259397 -808866.5557559375 L-722049.2359959601 -873721.5774071984 L-779944.9550959438 -943775.3973807326 L-842481.6126834697 -1019444.7529343929 L-910031.2278034401 -1101179.7871117545 L-982995.6406607833 -1189466.7265600788 L-1061808.903093737 -1284830.774002986 L-1146939.8606681956 -1387839.2325746068 L-1238894.9417535397 -1499104.8806013358 L-1338221.1701716199 -1619289.6169070976 L-1445509.419340609 -1749108.3983274049 L-1561397.9272720166 -1889333.4928557423 L-1686576.093330937 -2040799.0737234666 L-1821788.5793457446 -2204406.1817425317 L-1967839.7394640145 -2381128.085431154 L-2125598.405107041 -2572016.070808775 L-2296003.053487727 -2778205.6953027067 L-2480067.3904385054 -3000923.5429699156 L-2678886.3807604304 -3241494.521219421 L-2893642.7619668446 -3501349.7424421287 L-3125614.080170761 -3782035.0374345626 L-3376180.289971182 -4085220.151261315 L-3646831.963548505 -4412708.676260475 L-3939179.1578035695 -4766448.781281884 L-4254960.992289345 -5148544.800984472 L-4596055.99491242 -5561269.754135065 L-4964493.276949145 -6007078.865377901 L-5362464.6038545035 -6488624.170913389 L-5792337.433670604 -7008770.294972359 L-6256669.0005981345 -7570611.490937536 L-6758221.52751101 -8177490.048486249 L-7299978.65791092 -8833016.176255452 L-7885163.205072472 -9541089.478307333 L-8517256.323965004 -10305922.152154708 L-9200018.220001625 -11132064.046347363 L-9937510.51780793 -12024429.726682201 L-10734120.423077935 -12988327.71204892 L-11594586.821251811 -14029492.053830063 L-12524028.468271563 -15154116.446715396 L-13527974.441116301 -16368891.073849611 L-14612397.029261626 -17681042.405498117 L-15783747.262728568 -19098376.187986318 L-17048993.288071737 -20629323.87864526 L-18415661.82059808 -22282992.802996315 L-19891882.919408645 -24069220.33255171 L-21486438.351621095 -25998632.40552378 L-23208813.8334828 -28082706.738571823 L-25069255.459147703 -30333841.10562208 L-27078830.652801663 -32765427.08993941 L-29249494.006727718 -35391929.748186275 L-31594158.396971293 -38228973.66037761 L-34126771.79965925 -41293435.8776269 L-36862400.26493758 -44603546.32061076 L-39817317.54212568 -48178996.22600567 L-43009101.88925076 -52041055.28602453 L-46456740.64286302 -56212698.17789306 L-50180743.17020048 -60718741.23596924 L-54203262.87563234 -65585990.07953981 L-58548228.98717666 -70843399.07450661 L-63241488.90706635 -76522243.57757144 L-68310961.97317831 -82656305.98756535 L-73786805.54602642 -89282076.7107101 L-79701594.40933923 -96438971.23531723 L-86090514.55144083 -104169564.60725893 L-92991572.48020896 -112519844.70106724 L-100445821.31678124 -121539485.79331858 L-108497605.01300284 -131282144.0657458 L-117194822.14542069 -141805776.79597044 L-126589210.8550821 -153172987.13465992 L-136736656.62819752 -165451396.52012882 L-147697524.74859092 -178714046.94580412 L-159537019.39964446 -193039835.47357816 L-172325571.55196282 -208513983.57788274 L-186139257.94422874 -225228544.112524 L-201060253.6496936 -243282948.91613594 L-217177320.92054 -262784600.3138596 L-234586337.21814767 -283849510.03396446 L-253390865.57043543 -306602989.3402322 L-273702770.6492214 -331180394.48556286 L-295642884.2325201 -357727931.92135394 L-319341724.0105191 -386403528.05273235 L-344940270.01124674 -417377768.7136125 L-372590803.2647655 -450834913.95036983 L-402457811.6949401 -486973994.15088093 L-434718968.6277671 -526009994.03960145 L-469566189.73723036 -568175131.5820515 L-507206774.7162595 -613720239.4066767 L-547864640.4643712 -662916256.9618918 L-591781653.1280361 -716055842.2849262 L-639219066.917761 -773455112.9704928 L-690459078.2612343 -835455526.6960955 L-745806504.5378327 -902425912.4907794 L-805590597.3810067 -974764664.8310199 L-870167001.3355376 -1052902113.6160022 L-939919869.521358 -1137303084.1208448 L-1015264148.8896282 -1228469662.1564517 L-1096648048.6656363 -1326944180.8854215 L-1184555706.662836 -1433312447.0620332 L-1279510069.3294282 -1548207225.8886092 L-1382076002.6603541 -1672312005.2190294 L-1492863652.480947 -1806365061.5019467 L-1612532074.0919406 -1951163851.6512492 L-1741793152.8679311 -2107569756.970198 L-1881415839.1322138 -2276513207.3499804 L-2032230722.5004432 -2458999216.2255373 L-2195134972.9051433 -2656113359.2152247 L-2371097677.6941833 -2869028232.009963 L-2561165606.552727 -3099010425.928801 L-2766469438.5430756 -3347428062.637122 L-2988230488.305924 -3615758932.8501697 L-3227767971.4359655 -3905599287.4375186 L-3486506852.252208 -4218673333.2251725 L-3765986320.647967 -4556843489.984041 L-4067868948.447726 -4922121469.621749 L-4393950579.740361 -5316680243.485839 L-4746171014.024495 -5742866968.96964 L-5126625545.718031 -6203216952.318816 L-5537577428.678314 -6700468730.700762 L-5981471339.881943 -7237580363.257151 L-6460947922.357428 -7817747028.052487 L-6978859493.8836 -8444420029.599159 L-7538287014.90216 -9121327330.031616 L-8142558416.583238 -9852495726.065718 L-8795268398.074297 -10642274803.6699 L-9500299810.702543 -11495362812.950079 L-10261846756.341507 -12416834617.173223 L-11084439537.34974 -13412171882.193186 L-11972971606.504217 -14487295685.870102 L-12932728677.248598 -15648601741.470804 L-13969420167.427877 -16902998444.587736 L-15089213163.56245 -18257947969.91057 L-16298769107.708452 -19721510662.327232 L-17605283425.14858 -21302392986.429783 L-19016528328.65011 -23009999319.666637 L-20540899053.925632 -24854487897.25002 L-22187463801.34227 -26846831241.624146 L-23966017680.973602 -28998881435.97806 L-25887140981.903393 -31323440630.103107 L-27962262112.414433 -33834337198.021473 L-30203725585.48216 -36546508000.43342 L-32624865454.006138 -39476087241.347435 L-35240084632.63211 -42640502447.484856 L-38064940578.03549 -46058578141.42296 L-41116237837.362495 -49750647825.20861 L-44412128015.38265 -53738674940.613014 L-47972217755.0381 -58046383525.5961 L-51817685373.74799 -62699399344.23507 L-55971406849.31323 -67725402329.66902 L-60458091904.89048 -73154291246.9175 L-65304431002.578995 -79018361555.1206 L-70539254120.05823 -85352497527.27046 L-76193702254.80905 -92194379770.31897 L-82301412676.16583 -99584709380.16066 L-88898719027.22919 -107567450064.94731 L-96024867467.00941 -116190089677.0814 L-103722250138.58977 -125503922709.69363 L-112036657352.16948 -135564355438.1251 L-121017549983.17424 -146431235521.64084 L-130718353705.88647 -158169208026.12265 L-141196776812.92886 -170848099985.64395 L-152515153511.25748 -184543335790.62158 L-164740814736.86176 -199336385873.60272 L-177946488694.09598 -215315251361.85614 L-192210733502.34546 -232574987579.838 L-207618404523.802 -251218269515.8004 L-224261159152.36377 -271356002616.36017 L-242238002066.5723 -293107982542.5525 L-261655874190.18457 -316603607812.1234 L-282630288864.02295 -341982649567.4679 L-305286019013.5224 -369396083048.3622 L-329757839399.8707 -399006985715.84357 L-356191328370.20886 -430991507369.9527 L-384743733876.3644 -465539918032.40094 L-415584908913.94275 -502857739827.8707 L-448898321946.4607 -543166969597.2175 L-484882148325.4143 -586707399515.7513 L-523750449198.9022 -633738043572.6718 L-565734444921.9269 -684538678397.5316 L-611083890543.6421 -739411507599.807 L-660068561554.1085 -798682959522.4713 L-712979858728.9196 -862705629103.9928 L-770132541618.6954 -931860375400.6217 L-831866600995.6084 -1006558587246.6862 L-898549281395.7996 -1087244630530.9176 L-970577265789.3958 -1174398491647.169 L-1048379035374.3732 -1268538632844.9917 L-1132417418532.185 -1370225076465.944 L-1223192344108.4692 -1480062736413.248 L-1321243815397.5427 -1598705016673.0269 L-1427155122522.4973 -1726857698294.222 L-1541556312320.4968 -1865283137949.8008 L-1665127936375.307 -2014804803056.1216 L-1798605099493.1543 -2176312170428.7168 L-1942781832705.683 -2350766017615.8774 L-2098515816814.111 -2539204138387.074 L-2266733484574.273 -2742747516376.8706 L-2448435531874.1196 -2962606993609.6855 L-2644702870689.146 -3200090473575.8667 L-2856703059228.4004 -3456610701708.3643 L-3085697247522.9014 -3733693669544.711 L-3333047679774.7935 -4032987692569.5 L-3600225798096.7773 -4356273215739.101 L-3888820995849.985 -4705473405020.482 L-4200550072652.0063 -5082665587950.928 L-4537267447301.268 -5490093611276.534 L-4900976189372.456 -5930181189182.672 L-5293839935108.227 -6405546321522.954 L-5718195758492.1045 -6919016867817.446 L-6176568074070.759 -7473647369667.618 L-6671683654230.651 -8072737221661.088 L-7206487850264.199 -8719850298861.683 L-7784162113721.428 -9418836157644.93 L-8408142922278.758 -10173852935999.299 " stroke = "blue" stroke-width = "4" fill = "none" />	<path d = "M117195222 -141805777 L108498005.01300284 131282544.0657458 L100446221.31678124 121539885.79331858 L92991972.48020896 112520244.70106724 L86090914.55144083 104169964.60725893 L79701994.40933923 96439371.23531723 L73787205.54602642 89282476.7107101 L68311361.97317831 82656705.98756535 L63241888.90706635 76522643.57757144 L58548628.98717666 70843799.07450661 L54203662.87563234 65586390.07953981 L50181143.17020048 60719141.23596924 L46457140.64286302 56213098.17789306 L43009501.88925076 52041455.28602453 L39817717.54212568 48179396.22600567 L36862800.26493758 44603946.32061076 L34127171.79965925 41293835.8776269 L31594558.396971293 38229373.66037761 L29249894.006727718 35392329.748186275 L27079230.652801663 32765827.08993941 L25069655.459147703 30334241.10562208 L23209213.8334828 28083106.738571823 L21486838.351621095 25999032.40552378 L19892282.919408645 24069620.33255171 L18416061.82059808 22283392.802996315 L17049393.288071737 20629723.87864526 L15784147.262728568 19098776.187986318 L14612797.029261626 17681442.405498117 L13528374.441116301 16369291.073849611 L12524428.468271563 15154516.446715396 L11594986.821251811 14029892.053830063 L10734520.423077935 12988727.71204892 L9937910.51780793 12024829.726682201 L9200418.220001625 11132464.046347363 L8517656.323965004 10306322.152154708 L7885563.205072472 9541489.478307333 L7300378.65791092 8833416.176255452 L6758621.52751101 8177890.048486249 L6257069.0005981345 7571011.490937536 L5792737.433670604 7009170.294972359 L5362864.6038545035 6489024.170913389 L4964893.276949145 6007478.865377901 L4596455.99491242 5561669.754135065 L4255360.992289345 5148944.800984472 L3939579.1578035695 4766848.781281884 L3647231.963548505 4413108.676260475 L3376580.289971182 4085620.151261315 L3126014.080170761 3782435.0374345626 L2894042.7619668446 3501749.7424421287 L2679286.3807604304 3241894.521219421 L2480467.3904385054 3001323.5429699156 L2296403.053487727 2778605.6953027067 L2125998.405107041 2572416.070808775 L1968239.7394640145 2381528.085431154 L1822188.5793457446 2204806.1817425317 L1686976.093330937 2041199.0737234666 L1561797.9272720166 1889733.4928557423 L1445909.419340609 1749508.3983274049 L1338621.1701716199 1619689.6169070976 L1239294.9417535397 1499504.8806013358 L1147339.8606681956 1388239.2325746068 L1062208.903093737 1285230.774002986 L983395.6406607833 1189866.7265600788 L910431.2278034401 1101579.7871117545 L842881.6126834697 1019844.7529343929 L780344.9550959438 944175.3973807326 L722449.2359959601 874121.5774071984 L668850.0444259397 809266.5557559375 L619228.5286783458 749224.5218617137 L573289.499505668 693638.2967359934 L530759.674094022 642177.2081750066 L491386.0503540744 594535.1236517733 L454934.40185826813 550428.6291901517 L421187.88447099295 509595.34338735207 L389945.74638280604 471792.35655535123 L361022.13387493434 436794.78569594916 L334244.9857097706 404394.4367132777 L309455.00957029895 374398.56590551534 L286504.7344594695 346628.73336814146 L265257.63342243154 320919.74148784904 L245587.31137285198 297118.6522124034 L227376.75319185347 275083.8772503692 L210517.62762664785 254684.33578847253 L194909.6428478886 235798.67471601162 L180459.94983207167 218314.5467175797 L167082.59001981333 202127.9419395986 L154697.98396423145 187142.5692548794 L143232.45792748933 173269.28344446217 L132617.8056093138 160425.554889145 L122790.88240029158 148534.97861599745 L113693.2297462307 137526.81977926454 L105270.72738900172 127335.59287181296 L97473.27141510001 117900.67216392235 L90254.47619670356 109165.93105199926 L83571.39845212628 101079.40817176092 L77384.281784153 93592.99828966038 L71656.32017656408 86662.16613372281 L66353.4390419299 80245.6814614228 L61444.092518174686 74305.37378857547 L56899.07580805956 68805.90532016422 L52691.35144522791 63714.560732312864 L48795.88845330433 59001.05255485742 L45189.51344123121 54637.3409967703 L41850.77274903851 50597.467142613896 L38759.804823976105 46857.39852773898 L35898.222067799084 43394.88617358411 L33249.00145233586 40189.332232604254 L30796.38325263285 37221.66745547423 L28525.777295256343 34474.23775164022 L26423.67616404125 31930.69916839067 L24477.574846962678 29575.920663694793 L22675.896346125483 27395.89409442399 L21007.922808338306 25377.65088449113 L19463.73176658116 23509.18487718255 L18034.137113078876 21779.38091274585 L16710.63445283955 20177.948706353716 L15485.350512577099 18695.36163309723 L14350.996304060038 17322.80005585064 L13300.82376326458 16052.098858876469 L12328.585607386056 14875.698875057553 L11428.498170905388 13786.60191780562 L10595.206999629343 12778.329150139698 L9823.75499802993 11844.882543279602 L9109.552940397089 10980.70919547862 L8448.352170381115 10180.668298834937 L7836.219326519451 9440.000557573303 L7269.512943394717 8754.299875872166 L6744.86178922822 8119.487146811864 L6259.144811043846 7531.785986519841 L5809.472568099362 6987.700269159299 L5393.170043136204 6483.993329121195 L5007.760729195061 6017.668706697369 L4650.951897332629 5585.952322694269 L4320.620957599861 5186.275975947305 L4014.802832145751 4816.262065565691 L3731.6782653315354 4473.709447023139 L3469.563001314363 4156.580337954959 L3226.897764719824 3862.9881957664916 L3002.2389848002676 3591.1864949390842 L2794.2502078986167 3339.558337271824 L2601.69414713197 3106.606833252266 L2423.4253220000896 2890.9461973367443 L2258.383244133115 2691.2935041676938 L2105.5861086418 2506.461056687262 L1964.1249535412492 2335.3493207464962 L1833.1582525036813 2176.940384179444 L1711.9069087734758 2030.2919014313723 L1599.6496204642206 1894.5314877188111 L1495.7185896667988 1768.8515293733421 L1399.4955498427566 1652.5043794967955 L1310.4080878706773 1544.797910347722 L1227.926238866053 1445.0913960010616 L1151.55933351792 1352.7917007877747 L1080.8530791875987 1267.3497508401065 L1015.3868574055471 1188.2572677523926 L954.7712216896515 1115.0437449265467 L898.6455807999067 1047.273648615062 L846.6760536476237 984.5438270110574 L798.553483098394 926.4811119725131 L753.9915968533043 872.7400991138044 L712.725304467814 823.0010930586991 L674.5091203775808 776.9682056315105 L639.1157035501056 734.3675956729044 L606.3345050748454 694.9458400093291 L575.9705156465714 658.4684258852899 L547.843105490967 624.7183558902047 L521.7849498314075 593.494857080822 L497.6410335047179 564.6121866200017 L475.2677288045483 537.8985268268251 L454.531941066634 513.194963064894 L435.31031691317787 490.3545383884596 L417.48851044635114 469.24137932264983 L400.96050302563214 449.72988757722135 L385.6279725824612 431.70399288548936 L371.3997087203854 415.05646252371366 L358.19107012122777 399.68826340339706 L345.92348102949245 385.50797294170314 L334.5239638196841 372.43123520536824 L323.9247048658697 360.3802590928083 L314.06265113092206 349.2833555691998 L304.8791350756286 339.07451120163023 L296.3195256563175 329.69299545735794 L288.33290333485326 321.08299942907047 L280.87175716769246 313.1933038379863 L273.8917021720417 305.97697433980875 L267.3512152877787 299.3910823209665 L261.21138836442435 293.3964495242072 L255.43569670372952 287.9574149843684 L249.98978178098002 283.0416228878721 L244.8412468524685 278.6198300939552 L239.95946423323954 274.6657321726178 L235.3153930986395 271.15580692441887 L230.88140672580533 268.0691744512492 L226.63112814738435 265.3874729456677 L222.53927323981904 263.09474945989456 L218.58150031275832 261.1773650046664 L214.73426530482976 259.623913413404 L210.97468172435987 258.4251534890309 L207.28038450185517 257.57395402979523 L203.6293969443275 257.0652514070661 L200 256.8960194427401 L196.3706030556725 257.0652514070661 L192.71961549814483 257.57395402979523 L189.02531827564013 258.4251534890309 L185.26573469517024 259.623913413404 L181.41849968724168 261.1773650046664 L177.46072676018096 263.09474945989456 L173.36887185261568 265.3874729456677 L169.11859327419467 268.0691744512492 L164.6846069013605 271.15580692441887 L160.04053576676046 274.6657321726178 L155.1587531475315 278.6198300939552 L150.01021821901998 283.0416228878721 L144.56430329627048 287.9574149843684 L138.78861163557565 293.3964495242072 L132.6487847122213 299.3910823209665 L126.10829782795834 305.97697433980875 L119.12824283230756 313.1933038379863 L111.66709666514677 321.08299942907047 L103.68047434368248 329.69299545735794 L95.12086492437142 339.07451120163023 L85.93734886907791 349.2833555691998 L76.07529513413029 360.3802590928083 L65.47603618031587 372.43123520536824 L54.07651897050761 385.50797294170314 L41.80892987877232 399.68826340339706 L28.600291279614652 415.05646252371366 L14.372027417538845 431.70399288548936 L-0.9605030256320788 449.72988757722135 L-17.48851044635117 469.24137932264983 L-35.31031691317784 490.3545383884596 L-54.53194106663395 513.194963064894 L-75.26772880454831 537.8985268268251 L-97.64103350471788 564.6121866200017 L-121.78494983140746 593.494857080822 L-147.84310549096682 624.7183558902047 L-175.9705156465712 658.4684258852899 L-206.33450507484542 694.9458400093291 L-239.11570355010565 734.3675956729044 L-274.5091203775808 776.9682056315105 L-312.725304467814 823.0010930586991 L-353.99159685330426 872.7400991138044 L-398.55348309839405 926.4811119725131 L-446.6760536476236 984.5438270110574 L-498.6455807999065 1047.273648615062 L-554.7712216896513 1115.0437449265467 L-615.3868574055471 1188.2572677523926 L-680.8530791875986 1267.3497508401065 L-751.5593335179202 1352.7917007877747 L-827.9262388660529 1445.0913960010616 L-910.4080878706773 1544.797910347722 L-999.4955498427566 1652.5043794967955 L-1095.7185896667984 1768.8515293733421 L-1199.6496204642203 1894.5314877188111 L-1311.9069087734756 2030.2919014313723 L-1433.1582525036813 2176.940384179444 L-1564.1249535412492 2335.3493207464962 L-1705.5861086418 2506.461056687262 L-1858.383244133115 2691.2935041676938 L-2023.4253220000896 2890.9461973367443 L-2201.69414713197 3106.606833252266 L-2394.250207898616 3339.558337271824 L-2602.238984800267 3591.1864949390842 L-2826.897764719823 3862.9881957664916 L-3069.563001314363 4156.580337954959 L-3331.6782653315354 4473.709447023139 L-3614.802832145751 4816.262065565691 L-3920.620957599861 5186.275975947305 L-4250.951897332629 5585.952322694269 L-4607.760729195061 6017.668706697369 L-4993.170043136202 6483.993329121195 L-5409.4725680993615 6987.700269159299 L-5859.144811043844 7531.785986519841 L-6344.86178922822 8119.487146811864 L-6869.512943394717 8754.299875872166 L-7436.219326519451 9440.000557573303 L-8048.352170381115 10180.668298834937 L-8709.552940397089 10980.70919547862 L-9423.75499802993 11844.882543279602 L-10195.20699962934 12778.329150139698 L-11028.498170905385 13786.60191780562 L-11928.585607386052 14875.698875057553 L-12900.82376326458 16052.098858876469 L-13950.996304060038 17322.80005585064 L-15085.350512577099 18695.36163309723 L-16310.63445283955 20177.948706353716 L-17634.137113078876 21779.38091274585 L-19063.73176658116 23509.18487718255 L-20607.922808338302 25377.65088449113 L-22275.896346125475 27395.89409442399 L-24077.57484696267 29575.920663694793 L-26023.67616404125 31930.69916839067 L-28125.777295256343 34474.23775164022 L-30396.38325263285 37221.66745547423 L-32849.00145233586 40189.332232604254 L-35498.222067799084 43394.88617358411 L-38359.804823976105 46857.39852773898 L-41450.7727490385 50597.467142613896 L-44789.513441231196 54637.3409967703 L-48395.888453304324 59001.05255485742 L-52291.35144522791 63714.560732312864 L-56499.07580805956 68805.90532016422 L-61044.092518174686 74305.37378857547 L-65953.4390419299 80245.6814614228 L-71256.32017656408 86662.16613372281 L-76984.281784153 93592.99828966038 L-83171.39845212625 101079.40817176092 L-89854.47619670354 109165.93105199926 L-97073.27141509998 117900.67216392235 L-104870.72738900172 127335.59287181296 L-113293.2297462307 137526.81977926454 L-122390.88240029158 148534.97861599745 L-132217.8056093138 160425.554889145 L-142832.45792748933 173269.28344446217 L-154297.98396423145 187142.5692548794 L-166682.59001981327 202127.9419395986 L-180059.9498320716 218314.5467175797 L-194509.64284788855 235798.67471601162 L-210117.62762664785 254684.33578847253 L-226976.75319185347 275083.8772503692 L-245187.31137285198 297118.6522124034 L-264857.63342243154 320919.74148784904 L-286104.7344594695 346628.73336814146 L-309055.00957029895 374398.56590551534 L-333844.98570977047 404394.4367132777 L-360622.1338749342 436794.78569594916 L-389545.7463828059 471792.35655535123 L-420787.88447099295 509595.34338735207 L-454534.40185826813 550428.6291901517 L-490986.0503540744 594535.1236517733 L-530359.674094022 642177.2081750066 L-572889.499505668 693638.2967359934 L-618828.5286783456 749224.5218617137 L-668450.0444259394 809266.5557559375 L-722049.2359959598 874121.5774071984 L-779944.9550959435 944175.3973807326 L-842481.6126834697 1019844.7529343929 L-910031.2278034401 1101579.7871117545 L-982995.6406607833 1189866.7265600788 L-1061808.903093737 1285230.774002986 L-1146939.8606681956 1388239.2325746068 L-1238894.9417535395 1499504.8806013358 L-1338221.1701716196 1619689.6169070976 L-1445509.4193406086 1749508.3983274049 L-1561397.9272720164 1889733.4928557423 L-1686576.093330937 2041199.0737234666 L-1821788.5793457446 2204806.1817425317 L-1967839.7394640145 2381528.085431154 L-2125598.405107041 2572416.070808775 L-2296003.053487727 2778605.6953027067 L-2480067.390438505 3001323.5429699156 L-2678886.3807604294 3241894.521219421 L-2893642.7619668436 3501749.7424421287 L-3125614.08017076 3782435.0374345626 L-3376180.289971182 4085620.151261315 L-3646831.963548505 4413108.676260475 L-3939179.1578035695 4766848.781281884 L-4254960.992289345 5148944.800984472 L-4596055.99491242 5561669.754135065 L-4964493.276949143 6007478.865377901 L-5362464.603854502 6489024.170913389 L-5792337.433670602 7009170.294972359 L-6256669.000598133 7571011.490937536 L-6758221.52751101 8177890.048486249 L-7299978.65791092 8833416.176255452 L-7885163.205072472 9541489.478307333 L-8517256.323965004 10306322.152154708 L-9200018.220001625 11132464.046347363 L-9937510.517807929 12024829.726682201 L-10734120.423077933 12988727.71204892 L-11594586.821251808 14029892.053830063 L-12524028.46827156 15154516.446715396 L-13527974.441116301 16369291.073849611 L-14612397.029261626 17681442.405498117 L-15783747.262728568 19098776.187986318 L-17048993.288071737 20629723.87864526 L-18415661.82059808 22283392.802996315 L-19891882.919408638 24069620.33255171 L-21486438.35162109 25999032.40552378 L-23208813.83348279 28083106.738571823 L-25069255.4591477 30334241.10562208 L-27078830.652801663 32765827.08993941 L-29249494.006727718 35392329.748186275 L-31594158.396971293 38229373.66037761 L-34126771.79965925 41293835.8776269 L-36862400.26493758 44603946.32061076 L-39817317.54212567 48179396.22600567 L-43009101.889250755 52041455.28602453 L-46456740.64286301 56213098.17789306 L-50180743.17020047 60719141.23596924 L-54203262.87563234 65586390.07953981 L-58548228.98717666 70843799.07450661 L-63241488.90706635 76522643.57757144 L-68310961.97317831 82656705.98756535 L-73786805.54602642 89282476.7107101 L-79701594.4093392 96439371.23531723 L-86090514.5514408 104169964.60725893 L-92991572.48020893 112520244.70106724 L-100445821.31678121 121539885.79331858 L-108497605.01300284 131282544.0657458 L-117194822.14542069 141806176.79597044 L-126589210.8550821 153173387.13465992 L-136736656.62819752 165451796.52012882 L-147697524.74859092 178714446.94580412 L-159537019.3996444 193040235.47357816 L-172325571.55196276 208514383.57788274 L-186139257.9442287 225228944.112524 L-201060253.64969355 243283348.91613594 L-217177320.92054 262785000.3138596 L-234586337.21814767 283849910.03396446 L-253390865.57043543 306603389.3402322 L-273702770.6492214 331180794.48556286 L-295642884.2325201 357728331.92135394 L-319341724.010519 386403928.05273235 L-344940270.0112466 417378168.7136125 L-372590803.2647654 450835313.95036983 L-402457811.69494 486974394.15088093 L-434718968.6277671 526010394.03960145 L-469566189.73723036 568175531.5820515 L-507206774.7162595 613720639.4066767 L-547864640.4643712 662916656.9618918 L-591781653.1280361 716056242.2849262 L-639219066.9177607 773455512.9704928 L-690459078.2612342 835455926.6960955 L-745806504.5378326 902426312.4907794 L-805590597.3810066 974765064.8310199 L-870167001.3355376 1052902513.6160022 L-939919869.521358 1137303484.1208448 L-1015264148.8896282 1228470062.1564517 L-1096648048.6656363 1326944580.8854215 L-1184555706.662836 1433312847.0620332 L-1279510069.329428 1548207625.8886092 L-1382076002.660354 1672312405.2190294 L-1492863652.4809465 1806365461.5019467 L-1612532074.0919402 1951164251.6512492 L-1741793152.8679311 2107570156.970198 L-1881415839.1322138 2276513607.3499804 L-2032230722.5004432 2458999616.2255373 L-2195134972.9051433 2656113759.2152247 L-2371097677.6941833 2869028632.009963 L-2561165606.5527263 3099010825.928801 L-2766469438.5430746 3347428462.637122 L-2988230488.3059235 3615759332.8501697 L-3227767971.435965 3905599687.4375186 L-3486506852.252208 4218673733.2251725 L-3765986320.647967 4556843889.984041 L-4067868948.447726 4922121869.621749 L-4393950579.740361 5316680643.485839 L-4746171014.024495 5742867368.96964 L-5126625545.718029 6203217352.318816 L-5537577428.678313 6700469130.700762 L-5981471339.881941 7237580763.257151 L-6460947922.357427 7817747428.052487 L-6978859493.8836 8444420429.599159 L-7538287014.90216 9121327730.031616 L-8142558416.583238 9852496126.065718 L-8795268398.074297 10642275203.6699 L-9500299810.702543 11495363212.950079 L-10261846756.341503 12416835017.173223 L-11084439537.349735 13412172282.193186 L-11972971606.504213 14487296085.870102 L-12932728677.248594 15648602141.470804 L-13969420167.427877 16902998844.587736 L-15089213163.56245 18257948369.91057 L-16298769107.708452 19721511062.327232 L-17605283425.14858 21302393386.429783 L-19016528328.65011 23009999719.666637 L-20540899053.92563 24854488297.25002 L-22187463801.342262 26846831641.624146 L-23966017680.973595 28998881835.97806 L-25887140981.903385 31323441030.103107 L-27962262112.414433 33834337598.021473 L-30203725585.48216 36546508400.43342 L-32624865454.006138 39476087641.347435 L-35240084632.63211 42640502847.484856 L-38064940578.03549 46058578541.42296 L-41116237837.36248 49750648225.20861 L-44412128015.382645 53738675340.613014 L-47972217755.03809 58046383925.5961 L-51817685373.74798 62699399744.23507 L-55971406849.31323 67725402729.66902 L-60458091904.89048 73154291646.9175 L-65304431002.578995 79018361955.1206 L-70539254120.05823 85352497927.27046 L-76193702254.80905 92194380170.31897 L-82301412676.1658 99584709780.16066 L-88898719027.22917 107567450464.94731 L-96024867467.0094 116190090077.0814 L-103722250138.58975 125503923109.69363 L-112036657352.16948 135564355838.1251 L-121017549983.17424 146431235921.64084 L-130718353705.88647 158169208426.12265 L-141196776812.92886 170848100385.64395 L-152515153511.25748 184543336190.62158 L-164740814736.8617 199336386273.60272 L-177946488694.09592 215315251761.85614 L-192210733502.3454 232574987979.838 L-207618404523.80197 251218269915.8004 L-224261159152.36377 271356003016.36017 L-242238002066.5723 293107982942.5525 L-261655874190.18457 316603608212.1234 L-282630288864.02295 341982649967.4679 L-305286019013.5224 369396083448.3622 L-329757839399.8706 399006986115.84357 L-356191328370.20874 430991507769.9527 L-384743733876.3643 465539918432.40094 L-415584908913.9426 502857740227.8707 L-448898321946.4607 543166969997.2175 L-484882148325.4143 586707399915.7513 L-523750449198.9022 633738043972.6718 L-565734444921.9269 684538678797.5316 L-611083890543.6421 739411507999.807 L-660068561554.1084 798682959922.4713 L-712979858728.9194 862705629503.9928 L-770132541618.6953 931860375800.6217 L-831866600995.6082 1006558587646.6862 L-898549281395.7996 1087244630930.9176 L-970577265789.3958 1174398492047.169 L-1048379035374.3732 1268538633244.9917 L-1132417418532.185 1370225076865.944 L-1223192344108.4692 1480062736813.248 L-1321243815397.5425 1598705017073.0269 L-1427155122522.497 1726857698694.222 L-1541556312320.4963 1865283138349.8008 L-1665127936375.3066 2014804803456.1216 L-1798605099493.1543 2176312170828.7168 L-1942781832705.683 2350766018015.8774 L-2098515816814.111 2539204138787.074 L-2266733484574.273 2742747516776.8706 L-2448435531874.1196 2962606994009.6855 L-2644702870689.1455 3200090473975.8667 L-2856703059228.3994 3456610702108.3643 L-3085697247522.901 3733693669944.711 L-3333047679774.7925 4032987692969.5 L-3600225798096.7773 4356273216139.101 L-3888820995849.985 4705473405420.482 L-4200550072652.0063 5082665588350.928 L-4537267447301.268 5490093611676.534 L-4900976189372.456 5930181189582.672 L-5293839935108.225 6405546321922.954 L-5718195758492.103 6919016868217.446 L-6176568074070.758 7473647370067.618 L-6671683654230.649 8072737222061.088 L-7206487850264.199 8719850299261.683 L-7784162113721.428 9418836158044.93 L-8408142922278.758 10173852936399.299 " stroke = "blue" stroke-width = "4" fill = "none" /></svg>