<svg width="600" height="600" viewbox = "0 0 600 600"  xmlns="http://www.w3.org/2000/svg">

<!--
<json>
{
    "imgurl": "",
    "imgw": 2,
    "imgleft": -1,
    "imgtop": -1,
    "imgangle": 0,
    "svgwidth": 600,
    "svgheight": 600,
    "unit": 100,
    "x0": 666.565740045079,
    "y0": 391.0395151082747,
    "x0rel": -17.434259954921004,
    "y0rel": -7.960484891725287,
    "glyph": "0300,0312,0306,0350,0334,0334,0334,0334,0334,0337,0201,0335,0335,0335,0335,0201,0335,0335,0335,0335,0335,0336,0336,0336,0336,0336,0336,0362,0203,0203,0203,0203,0203,0203,0203,0364,0330,0336,0330,0337,0362,0203,0203,0203,0203,0203,0203,0203,0203,0203,0203,0203,0203,0203,0203,0364,0330,0336,0330,0337,0362,0203,0203,0203,0203,0203,0203,0203,0334,0334,0334,0334,0334,0203,0203,0203,0203,0203,0203,0203,0203,0203,0203,0203,0203,0336,0203,0337,0364,0330,0330,0362,0203,0203,0203,0203,0203,0203,0203,0203,0203,0203,0203,0203,0336,0203,0334,0334,0334,0334,0337,0337,0337,0337,0203,0203,0336,0337,0203,0336,0336,0203,0364,0330,0362,0203,0203,0203,0203,0336,0203,0334,0334,0334,0334,0334,0337,0337,0203,0203,0203,0203,0336,0203,0336,0203,0364,0330,0330,0337,0337,0362,0203,0203,0203,0203,0336,0203,0336,0203,0335,0335,0335,0335,0335,0337,0337,0203,0203,0203,0364,0336,0336,0330,0337,0337,0362,0203,0203,0203,0203,0203,0336,0203,0336,0203,0335,0335,0335,0335,0337,0337,0337,0337,0203,0336,0336,0203,0336,0336,0203,0364,0330,0336,0330,0337,0337,0337,0362,0203,0203,0203,0203,0336,0336,0336,0203,0364,",
    "table": []
}
</json>
-->
    <line x1="283" y1="292" x2="196" y2="442" style="stroke:black;stroke-width:8" />
    <line x1="196" y1="442" x2="109" y2="292" style="stroke:black;stroke-width:8" />
	<path d = "M109 292 L115 295 L120 298 L126 302 L132 305 L137 308 L143 311 L148 314 " stroke = "black" stroke-width = "8" fill = "none" />	<path d = "M157 320 L163 323 L168 326 L174 329 L179 332 L185 336 L190 339 L196 342 L201 345 L207 348 L213 352 L218 355 L224 358 L229 361 L235 364 " stroke = "black" stroke-width = "8" fill = "none" />	<path d = "M244 370 L249 373 L255 376 L260 379 L266 382 L271 386 L277 389 L282 392 L279 386 L276 381 L273 375 L270 370 L266 364 L263 359 L260 353 L257 348 L254 342 L250 336 L247 331 L244 325 L242 322 " stroke = "black" stroke-width = "8" fill = "none" />	<path d = "M236 311 L232 305 L229 300 L226 294 L223 289 L220 283 L216 278 L213 272 L210 267 L207 261 L204 255 L200 250 L197 244 L195 241 L179 270 L162 299 L145 328 L140 337 " stroke = "black" stroke-width = "8" fill = "none" />	<path d = "M134 347 L129 357 L123 366 L118 376 L112 385 L109 391 L125 381 L142 372 L159 362 L175 353 L185 347 L191 344 " stroke = "black" stroke-width = "8" fill = "none" />	<path d = "M202 337 L218 328 L235 318 L252 308 L268 299 L278 293 L284 290 L274 307 L264 323 L255 340 " stroke = "black" stroke-width = "8" fill = "none" />	<path d = "M252 346 L242 362 L232 379 L223 396 L213 412 L203 429 L198 439 L195 444 L166 394 L156 377 L153 372 " stroke = "black" stroke-width = "8" fill = "none" />	<path d = "M148 363 L138 346 L129 330 L119 313 L109 296 L108 293 " stroke = "black" stroke-width = "8" fill = "none" /></svg>