<svg width="500" height="500" viewbox = "0 0 500 500"  xmlns="http://www.w3.org/2000/svg">

<!--
<json>
{
    "imgurl": "",
    "imgw": 2,
    "imgleft": -1,
    "imgtop": -1,
    "imgangle": 0,
    "svgwidth": 500,
    "svgheight": 500,
    "unit": 90.90909090909092,
    "x0": 680.120275236712,
    "y0": 411.1569459444388,
    "x0rel": -3.8797247632879817,
    "y0rel": 12.156945944438803,
    "glyph": "0211,0327,0243,0210,0210,0335,0243,0335,0210,0210,0243,0210,0210,0335,0243,0341,",
    "table": []
}
</json>
-->
<path    d = "M185,178 C154,136 246,106 246,54" fill = "none" stroke-width = "6" stroke = "purple" /><path    d = "M246,54 C246,106 338,136 307,178" fill = "none" stroke-width = "6" stroke = "purple" /><path    d = "M307,178 C338,136 395,214 444,198" fill = "none" stroke-width = "6" stroke = "purple" /><path    d = "M444,198 C395,214 395,310 345,294" fill = "none" stroke-width = "6" stroke = "purple" /><path    d = "M345,294 C395,310 338,388 368,430" fill = "none" stroke-width = "6" stroke = "purple" /><path    d = "M368,430 C338,388 246,418 246,366" fill = "none" stroke-width = "6" stroke = "purple" /><path    d = "M246,366 C246,418 154,388 124,430" fill = "none" stroke-width = "6" stroke = "purple" /><path    d = "M124,430 C154,388 98,310 147,294" fill = "none" stroke-width = "6" stroke = "purple" /><path    d = "M147,294 C98,310 98,214 48,198" fill = "none" stroke-width = "6" stroke = "purple" /><path    d = "M48,198 C98,214 154,136 185,178" fill = "none" stroke-width = "6" stroke = "purple" /><path    d = "M303,135 C303,111 346,125 360,105" fill = "none" stroke-width = "6" stroke = "purple" /><path    d = "M360,105 C346,125 372,161 349,169" fill = "none" stroke-width = "6" stroke = "purple" /><path    d = "M384,277 C407,270 407,315 430,322" fill = "none" stroke-width = "6" stroke = "purple" /><path    d = "M430,322 C407,315 381,351 367,331" fill = "none" stroke-width = "6" stroke = "purple" /><path    d = "M275,398 C289,418 246,432 246,456" fill = "none" stroke-width = "6" stroke = "purple" /><path    d = "M246,456 C246,432 203,418 218,398" fill = "none" stroke-width = "6" stroke = "purple" /><path    d = "M126,331 C111,351 85,315 62,322" fill = "none" stroke-width = "6" stroke = "purple" /><path    d = "M62,322 C85,315 85,270 108,277" fill = "none" stroke-width = "6" stroke = "purple" /><path    d = "M143,169 C120,161 146,125 132,105" fill = "none" stroke-width = "6" stroke = "purple" /><path    d = "M132,105 C146,125 189,111 189,135" fill = "none" stroke-width = "6" stroke = "purple" /><path    d = "M246,183 C246,143 316,166 340,134" fill = "none" stroke-width = "6" stroke = "purple" /><path    d = "M340,134 C316,166 359,225 322,238" fill = "none" stroke-width = "6" stroke = "purple" /><path    d = "M322,238 C359,225 359,299 397,311" fill = "none" stroke-width = "6" stroke = "purple" /><path    d = "M397,311 C359,299 316,359 293,326" fill = "none" stroke-width = "6" stroke = "purple" /><path    d = "M293,326 C316,359 246,381 246,421" fill = "none" stroke-width = "6" stroke = "purple" /><path    d = "M246,421 C246,381 176,359 199,326" fill = "none" stroke-width = "6" stroke = "purple" /><path    d = "M199,326 C176,359 133,299 95,311" fill = "none" stroke-width = "6" stroke = "purple" /><path    d = "M95,311 C133,299 133,225 171,238" fill = "none" stroke-width = "6" stroke = "purple" /><path    d = "M171,238 C133,225 176,166 153,134" fill = "none" stroke-width = "6" stroke = "purple" /><path    d = "M153,134 C176,166 246,143 246,183" fill = "none" stroke-width = "6" stroke = "purple" /><path    d = "M338,209 C349,194 369,222 387,216" fill = "none" stroke-width = "6" stroke = "purple" /><path    d = "M387,216 C369,222 369,256 352,251" fill = "none" stroke-width = "6" stroke = "purple" /><path    d = "M325,333 C342,339 322,367 333,382" fill = "none" stroke-width = "6" stroke = "purple" /><path    d = "M333,382 C322,367 290,378 290,359" fill = "none" stroke-width = "6" stroke = "purple" /><path    d = "M203,359 C203,378 170,367 159,382" fill = "none" stroke-width = "6" stroke = "purple" /><path    d = "M159,382 C170,367 150,339 167,333" fill = "none" stroke-width = "6" stroke = "purple" /><path    d = "M141,251 C123,256 123,222 105,216" fill = "none" stroke-width = "6" stroke = "purple" /><path    d = "M105,216 C123,222 143,194 154,209" fill = "none" stroke-width = "6" stroke = "purple" /><path    d = "M224,158 C213,143 246,133 246,114" fill = "none" stroke-width = "6" stroke = "purple" /><path    d = "M246,114 C246,133 279,143 268,158" fill = "none" stroke-width = "6" stroke = "purple" /><path    d = "M282,213 C300,188 333,234 362,225" fill = "none" stroke-width = "6" stroke = "purple" /><path    d = "M362,225 C333,234 333,290 304,281" fill = "none" stroke-width = "6" stroke = "purple" /><path    d = "M304,281 C333,290 300,336 317,360" fill = "none" stroke-width = "6" stroke = "purple" /><path    d = "M317,360 C300,336 246,353 246,323" fill = "none" stroke-width = "6" stroke = "purple" /><path    d = "M246,323 C246,353 193,336 175,360" fill = "none" stroke-width = "6" stroke = "purple" /><path    d = "M175,360 C193,336 160,290 188,281" fill = "none" stroke-width = "6" stroke = "purple" /><path    d = "M188,281 C160,290 160,234 131,225" fill = "none" stroke-width = "6" stroke = "purple" /><path    d = "M131,225 C160,234 193,188 210,213" fill = "none" stroke-width = "6" stroke = "purple" /><path    d = "M210,213 C193,188 246,171 246,141" fill = "none" stroke-width = "6" stroke = "purple" /><path    d = "M246,141 C246,171 300,188 282,213" fill = "none" stroke-width = "6" stroke = "purple" /><path    d = "M327,271 C340,267 340,293 354,297" fill = "none" stroke-width = "6" stroke = "purple" /><path    d = "M354,297 C340,293 325,314 316,302" fill = "none" stroke-width = "6" stroke = "purple" /><path    d = "M263,342 C271,353 246,361 246,375" fill = "none" stroke-width = "6" stroke = "purple" /><path    d = "M246,375 C246,361 221,353 230,342" fill = "none" stroke-width = "6" stroke = "purple" /><path    d = "M176,302 C167,314 152,293 139,297" fill = "none" stroke-width = "6" stroke = "purple" /><path    d = "M139,297 C152,293 152,267 165,271" fill = "none" stroke-width = "6" stroke = "purple" /><path    d = "M186,208 C173,203 188,182 180,171" fill = "none" stroke-width = "6" stroke = "purple" /><path    d = "M180,171 C188,182 213,174 213,188" fill = "none" stroke-width = "6" stroke = "purple" /><path    d = "M279,188 C279,174 304,182 313,171" fill = "none" stroke-width = "6" stroke = "purple" /><path    d = "M313,171 C304,182 320,203 306,208" fill = "none" stroke-width = "6" stroke = "purple" /><path    d = "M290,248 C312,241 312,284 334,291" fill = "none" stroke-width = "6" stroke = "purple" /><path    d = "M334,291 C312,284 287,318 273,300" fill = "none" stroke-width = "6" stroke = "purple" /><path    d = "M273,300 C287,318 246,332 246,355" fill = "none" stroke-width = "6" stroke = "purple" /><path    d = "M246,355 C246,332 205,318 219,300" fill = "none" stroke-width = "6" stroke = "purple" /><path    d = "M219,300 C205,318 180,284 158,291" fill = "none" stroke-width = "6" stroke = "purple" /><path    d = "M158,291 C180,284 180,241 202,248" fill = "none" stroke-width = "6" stroke = "purple" /><path    d = "M202,248 C180,241 205,206 192,187" fill = "none" stroke-width = "6" stroke = "purple" /><path    d = "M192,187 C205,206 246,193 246,216" fill = "none" stroke-width = "6" stroke = "purple" /><path    d = "M246,216 C246,193 287,206 301,187" fill = "none" stroke-width = "6" stroke = "purple" /><path    d = "M301,187 C287,206 312,241 290,248" fill = "none" stroke-width = "6" stroke = "purple" /><path    d = "M292,304 C302,307 291,323 297,332" fill = "none" stroke-width = "6" stroke = "purple" /><path    d = "M297,332 C291,323 272,329 272,319" fill = "none" stroke-width = "6" stroke = "purple" /><path    d = "M221,319 C221,329 202,323 195,332" fill = "none" stroke-width = "6" stroke = "purple" /><path    d = "M195,332 C202,323 190,307 200,304" fill = "none" stroke-width = "6" stroke = "purple" /><path    d = "M185,255 C174,259 174,239 164,235" fill = "none" stroke-width = "6" stroke = "purple" /><path    d = "M164,235 C174,239 186,223 192,231" fill = "none" stroke-width = "6" stroke = "purple" /><path    d = "M233,202 C227,193 246,187 246,176" fill = "none" stroke-width = "6" stroke = "purple" /><path    d = "M246,176 C246,187 265,193 259,202" fill = "none" stroke-width = "6" stroke = "purple" /><path    d = "M300,231 C306,223 318,239 328,235" fill = "none" stroke-width = "6" stroke = "purple" /><path    d = "M328,235 C318,239 318,259 308,255" fill = "none" stroke-width = "6" stroke = "purple" />    <circle cx="246" cy = "262" r = "46.37074813415476" stroke = "purple" stroke-width = "6" fill = "none" />
</svg>