<svg width="500" height="500" viewbox = "0 0 500 500"  xmlns="http://www.w3.org/2000/svg">

<!--
<json>
{
    "imgurl": "",
    "imgw": 2.983971328437751,
    "imgleft": -1.4873205904167783,
    "imgtop": -1.0519856642188752,
    "imgangle": 0,
    "svgwidth": 500,
    "svgheight": 500,
    "unit": 161.0510000000001,
    "x0": 684,
    "y0": 399,
    "x0rel": 0,
    "y0rel": 0,
    "glyph": "0336,0336,0332,0330,0332,0332,0343,0333,0333,0343,0333,0333,0343,0333,0333,0343,0332,0332,0332,0337,0337,0343,0331,0331,0330,0330,0335,0335,0342,0330,0336,0336,0332,0343,0335,0335,0333,0330,0330,0333,0333,0333,0333,",
    "table": []
}
</json>
-->
  <path d="M88.94899999999986 209.73724999999996           A40.262750000000025 40.262750000000025 0 0 1 169.47449999999992 209.73724999999996" fill = "none" stroke = "black" stroke-width = "4" />
  <path d="M169.47449999999992 209.73724999999996           A40.262750000000025 40.262750000000025 0 0 1 250 209.73724999999996" fill = "none" stroke = "black" stroke-width = "4" />
  <path d="M250 209.73724999999996           A40.262750000000025 40.262750000000025 0 0 1 330.5255000000001 209.73724999999996" fill = "none" stroke = "black" stroke-width = "4" />
  <path d="M330.5255000000001 209.73724999999996           A40.262750000000025 40.262750000000025 0 0 1 411.05100000000016 209.73724999999996" fill = "none" stroke = "black" stroke-width = "4" />
  <path d="M88.9489999999999 209.73724999999993           A161.0510000000001 161.0510000000001 0 0 1 411.0510000000001 209.73724999999996" fill = "none" stroke = "black" stroke-width = "4" />
    <line x1="250" y1="210" x2="250" y2="371" style="stroke:black;stroke-width:4" />
  <path d="M330.5255000000001 370.7882500000001           A40.262750000000025 40.262750000000025 0 0 1 250 370.7882500000001" fill = "none" stroke = "black" stroke-width = "4" />
</svg>