<svg width="600" height="600" viewbox = "0 0 600 600"  xmlns="http://www.w3.org/2000/svg">

<!--
<json>
{
    "imgurl": "",
    "imgw": 2,
    "imgleft": -1,
    "imgtop": -1,
    "imgangle": 0,
    "svgwidth": 600,
    "svgheight": 600,
    "unit": 100,
    "x0": 666.565740045079,
    "y0": 391.0395151082747,
    "x0rel": -17.434259954921004,
    "y0rel": -7.960484891725287,
    "glyph": "0300,0332,0332,0330,0336,0336,0333,0331,0337,0337,0337,0337,0306,0350,0312,0335,0335,0335,0335,0336,0336,0336,0336,0336,0336,0362,0203,0203,0203,0203,0203,0203,0203,0364,0330,0336,0330,0337,0362,0203,0203,0203,0203,0203,0203,0203,0203,0203,0203,0203,0203,0203,0203,0364,0330,0336,0330,0337,0362,0203,0203,0203,0203,0203,0203,0203,0334,0334,0334,0334,0334,0203,0203,0203,0203,0203,0203,0203,0203,0203,0203,0203,0203,0336,0203,0337,0364,0330,0330,0362,0203,0203,0203,0203,0203,0203,0203,0203,0203,0203,0203,0203,0336,0203,0334,0334,0334,0334,0337,0337,0337,0337,0203,0203,0336,0337,0203,0336,0336,0203,0364,0330,0362,0203,0203,0203,0203,0336,0203,0334,0334,0334,0334,0334,0337,0337,0203,0203,0203,0203,0336,0203,0336,0203,0364,0330,0330,0337,0337,0362,0203,0203,0203,0203,0336,0203,0336,0203,0335,0335,0335,0335,0335,0337,0337,0203,0203,0203,0364,0336,0336,0330,0337,0337,0362,0203,0203,0203,0203,0203,0336,0203,0336,0336,0203,0335,0335,0335,0335,0337,0337,0337,0337,0337,0337,0337,0336,0336,0203,0336,0336,0203,0336,0336,0203,0336,0364,0330,0330,0362,0337,0203,0203,0337,0203,0203,0203,0203,0203,0203,0364,",
    "table": []
}
</json>
-->
	<path d = "M108 217 L120 224 L133 232 L146 239 L159 247 L172 254 L185 261 L197 269 " stroke = "black" stroke-width = "4" fill = "none" />	<path d = "M218 281 L230 288 L243 295 L256 303 L269 310 L282 318 L295 325 L307 332 L320 340 L333 347 L346 355 L359 362 L372 369 L384 377 L397 384 " stroke = "black" stroke-width = "4" fill = "none" />	<path d = "M417 396 L430 403 L443 411 L456 418 L469 426 L482 433 L494 440 L507 448 L500 435 L492 422 L485 409 L478 396 L470 384 L463 371 L455 358 L448 345 L441 332 L433 320 L426 307 L418 294 L414 286 " stroke = "black" stroke-width = "4" fill = "none" />	<path d = "M399 261 L392 248 L384 235 L377 222 L370 209 L362 197 L355 184 L347 171 L340 158 L333 145 L325 132 L318 120 L310 107 L306 99 L268 166 L229 233 L191 299 L178 322 " stroke = "black" stroke-width = "4" fill = "none" />	<path d = "M165 344 L152 366 L139 388 L127 411 L114 433 L106 446 L145 423 L183 401 L222 379 L260 357 L282 344 L295 336 " stroke = "black" stroke-width = "4" fill = "none" />	<path d = "M321 322 L359 299 L398 277 L436 255 L475 233 L497 220 L510 213 L488 251 L466 289 L443 328 " stroke = "black" stroke-width = "4" fill = "none" />	<path d = "M436 341 L414 379 L391 418 L369 456 L347 495 L325 533 L312 555 L308 563 L241 447 L219 409 L211 396 " stroke = "black" stroke-width = "4" fill = "none" />	<path d = "M203 381 L195 368 L188 356 L175 333 L162 311 L150 289 L137 267 L124 245 L111 222 " stroke = "black" stroke-width = "4" fill = "none" /></svg>