<svg width="300" height="300" viewbox = "0 0 300 300"  xmlns="http://www.w3.org/2000/svg">

<!--
<json>
{
    "imgurl": "",
    "imgw": 2,
    "imgleft": -1,
    "imgtop": -1,
    "imgangle": 0,
    "svgwidth": 300,
    "svgheight": 300,
    "unit": 100.00000000000001,
    "x0": 679.7323027603832,
    "y0": 467.37264053888276,
    "x0rel": -4.267697239616837,
    "y0rel": 68.37264053888276,
    "glyph": "0332,0332,0332,0331,0336,0336,0330,0337,0337,0336,0335,0333,0362,0332,0346,0332,0332,0335,0335,0345,0335,0335,0333,0337,0345,0363,0321,0336,0332,0340,0320,0333,0333,0340,0334,0330,0337,0341,0333,0333,0333,0332,0362,0333,0345,0333,0203,0203,0334,0203,0203,0334,0203,0203,0363,",
    "table": []
}
</json>
-->
	<path d = "M-154 343 M-154.2676972396169 243.37264053888276           A50.00000000000001 50.00000000000001 0 0 1 -154.2676972396169 343.37264053888276M-154.2676972396169 243.37264053888276           A50.00000000000001 50.00000000000001 0 0 1 -154.2676972396169 143.37264053888276M-154.2676972396169 143.37264053888276           A100.00000000000001 100.00000000000001 0 0 1 -154.26769723961684 343.37264053888276Z" stroke = "black" stroke-width = "8" fill = "black" /><circle cx="-154" cy = "193" r = "8" stroke = "white" stroke-width = "8" fill = "white" />
<circle cx="-154" cy = "293" r = "8" stroke = "black" stroke-width = "8" fill = "black" />
    <circle cx="-154" cy = "243" r = "100.00000000000001" stroke = "black" stroke-width = "8" fill = "none" />
	<path d = "M46 243 M45.732302760383206 243.37264053888265           A100.00000000000001 100.00000000000001 0 0 1 245.73230276038322 243.37264053888262L246 143 L246 43 L146 43 L46 43 L46 143 L46 243 Z" stroke = "black" stroke-width = "8" fill = "black" /></svg>