<svg width="800" height="800" viewbox = "0 0 800 800"  xmlns="http://www.w3.org/2000/svg">

<!--
<json>
{
    "imgurl": "",
    "imgw": 6,
    "imgleft": -3,
    "imgtop": -2,
    "imgangle": 0,
    "svgwidth": 800,
    "svgheight": 800,
    "unit": 90.90909090909092,
    "x0": 680.120275236712,
    "y0": 361.1569459444388,
    "x0rel": -3.8797247632879817,
    "y0rel": -37.8430540555612,
    "glyph": "0337,0327,0243,0335,0316,0336,0313,0337,0337,0243,0334,0316,0336,0313,0337,0337,0243,0335,0316,0336,0313,0337,0337,0243,0334,0316,0336,0313,0337,0337,0243,0335,0316,0336,0313,0337,0337,0243,0334,0316,0336,0313,0337,0337,0243,0335,0316,0336,0313,0337,0337,0243,0341,0334,0336,0340,0337,0337,0337,0337,",
    "table": []
}
</json>
-->
<path    d = "M289,215 C236,142 396,89 396,-1" fill = "none" stroke-width = "6" stroke = "purple" /><path    d = "M396,-1 C396,89 556,142 503,215" fill = "none" stroke-width = "6" stroke = "purple" /><path    d = "M503,215 C556,142 655,278 742,250" fill = "none" stroke-width = "6" stroke = "purple" /><path    d = "M742,250 C655,278 655,446 569,418" fill = "none" stroke-width = "6" stroke = "purple" /><path    d = "M569,418 C655,446 556,583 610,656" fill = "none" stroke-width = "6" stroke = "purple" /><path    d = "M610,656 C556,583 396,635 396,544" fill = "none" stroke-width = "6" stroke = "purple" /><path    d = "M396,544 C396,635 236,583 182,656" fill = "none" stroke-width = "6" stroke = "purple" /><path    d = "M182,656 C236,583 137,446 223,418" fill = "none" stroke-width = "6" stroke = "purple" /><path    d = "M223,418 C137,446 137,278 50,250" fill = "none" stroke-width = "6" stroke = "purple" /><path    d = "M50,250 C137,278 236,142 289,215" fill = "none" stroke-width = "6" stroke = "purple" /><path    d = "M496,140 C496,98 570,122 595,88" fill = "none" stroke-width = "6" stroke = "purple" /><path    d = "M595,88 C570,122 616,186 576,199" fill = "none" stroke-width = "6" stroke = "purple" /><path    d = "M638,388 C678,375 678,454 718,467" fill = "none" stroke-width = "6" stroke = "purple" /><path    d = "M718,467 C678,454 632,517 607,483" fill = "none" stroke-width = "6" stroke = "purple" /><path    d = "M446,600 C471,634 396,658 396,701" fill = "none" stroke-width = "6" stroke = "purple" /><path    d = "M396,701 C396,658 321,634 346,600" fill = "none" stroke-width = "6" stroke = "purple" /><path    d = "M185,483 C160,517 114,454 74,467" fill = "none" stroke-width = "6" stroke = "purple" /><path    d = "M74,467 C114,454 114,375 155,388" fill = "none" stroke-width = "6" stroke = "purple" /><path    d = "M216,199 C176,186 222,122 197,88" fill = "none" stroke-width = "6" stroke = "purple" /><path    d = "M197,88 C222,122 297,98 297,140" fill = "none" stroke-width = "6" stroke = "purple" /><path    d = "M396,217 C396,144 524,186 567,127" fill = "none" stroke-width = "6" stroke = "purple" /><path    d = "M567,127 C524,186 604,295 534,317" fill = "none" stroke-width = "6" stroke = "purple" /><path    d = "M534,317 C604,295 604,430 673,452" fill = "none" stroke-width = "6" stroke = "purple" /><path    d = "M673,452 C604,430 524,539 482,480" fill = "none" stroke-width = "6" stroke = "purple" /><path    d = "M482,480 C524,539 396,580 396,653" fill = "none" stroke-width = "6" stroke = "purple" /><path    d = "M396,653 C396,580 268,539 311,480" fill = "none" stroke-width = "6" stroke = "purple" /><path    d = "M311,480 C268,539 189,430 119,452" fill = "none" stroke-width = "6" stroke = "purple" /><path    d = "M119,452 C189,430 189,295 258,317" fill = "none" stroke-width = "6" stroke = "purple" /><path    d = "M258,317 C189,295 268,186 225,127" fill = "none" stroke-width = "6" stroke = "purple" /><path    d = "M225,127 C268,186 396,144 396,217" fill = "none" stroke-width = "6" stroke = "purple" /><path    d = "M565,265 C585,238 622,289 654,278" fill = "none" stroke-width = "6" stroke = "purple" /><path    d = "M654,278 C622,289 622,352 589,341" fill = "none" stroke-width = "6" stroke = "purple" /><path    d = "M540,493 C572,503 535,554 555,581" fill = "none" stroke-width = "6" stroke = "purple" /><path    d = "M555,581 C535,554 476,573 476,539" fill = "none" stroke-width = "6" stroke = "purple" /><path    d = "M316,539 C316,573 257,554 237,581" fill = "none" stroke-width = "6" stroke = "purple" /><path    d = "M237,581 C257,554 220,503 252,493" fill = "none" stroke-width = "6" stroke = "purple" /><path    d = "M203,341 C171,352 171,289 138,278" fill = "none" stroke-width = "6" stroke = "purple" /><path    d = "M138,278 C171,289 208,238 227,265" fill = "none" stroke-width = "6" stroke = "purple" /><path    d = "M356,172 C336,144 396,125 396,91" fill = "none" stroke-width = "6" stroke = "purple" /><path    d = "M396,91 C396,125 456,144 436,172" fill = "none" stroke-width = "6" stroke = "purple" /><path    d = "M328,268 C294,221 396,188 396,129" fill = "none" stroke-width = "6" stroke = "purple" /><path    d = "M396,129 C396,188 499,221 465,268" fill = "none" stroke-width = "6" stroke = "purple" /><path    d = "M465,268 C499,221 562,308 617,290" fill = "none" stroke-width = "6" stroke = "purple" /><path    d = "M617,290 C562,308 562,416 507,398" fill = "none" stroke-width = "6" stroke = "purple" /><path    d = "M507,398 C562,416 499,503 533,550" fill = "none" stroke-width = "6" stroke = "purple" /><path    d = "M533,550 C499,503 396,537 396,479" fill = "none" stroke-width = "6" stroke = "purple" /><path    d = "M396,479 C396,537 294,503 259,550" fill = "none" stroke-width = "6" stroke = "purple" /><path    d = "M259,550 C294,503 230,416 285,398" fill = "none" stroke-width = "6" stroke = "purple" /><path    d = "M285,398 C230,416 230,308 175,290" fill = "none" stroke-width = "6" stroke = "purple" /><path    d = "M175,290 C230,308 294,221 328,268" fill = "none" stroke-width = "6" stroke = "purple" /><path    d = "M460,220 C460,193 508,209 524,187" fill = "none" stroke-width = "6" stroke = "purple" /><path    d = "M524,187 C508,209 537,249 511,258" fill = "none" stroke-width = "6" stroke = "purple" /><path    d = "M551,379 C576,371 576,421 602,429" fill = "none" stroke-width = "6" stroke = "purple" /><path    d = "M602,429 C576,421 547,461 531,439" fill = "none" stroke-width = "6" stroke = "purple" /><path    d = "M428,514 C444,536 396,552 396,579" fill = "none" stroke-width = "6" stroke = "purple" /><path    d = "M396,579 C396,552 348,536 364,514" fill = "none" stroke-width = "6" stroke = "purple" /><path    d = "M261,439 C245,461 216,421 190,429" fill = "none" stroke-width = "6" stroke = "purple" /><path    d = "M190,429 C216,421 216,371 242,379" fill = "none" stroke-width = "6" stroke = "purple" /><path    d = "M281,258 C255,249 285,209 269,187" fill = "none" stroke-width = "6" stroke = "purple" /><path    d = "M269,187 C285,209 332,193 332,220" fill = "none" stroke-width = "6" stroke = "purple" /><path    d = "M396,269 C396,223 478,249 506,212" fill = "none" stroke-width = "6" stroke = "purple" /><path    d = "M506,212 C478,249 529,319 485,333" fill = "none" stroke-width = "6" stroke = "purple" /><path    d = "M485,333 C529,319 529,405 573,420" fill = "none" stroke-width = "6" stroke = "purple" /><path    d = "M573,420 C529,405 478,475 451,437" fill = "none" stroke-width = "6" stroke = "purple" /><path    d = "M451,437 C478,475 396,502 396,548" fill = "none" stroke-width = "6" stroke = "purple" /><path    d = "M396,548 C396,502 314,475 341,437" fill = "none" stroke-width = "6" stroke = "purple" /><path    d = "M341,437 C314,475 263,405 219,420" fill = "none" stroke-width = "6" stroke = "purple" /><path    d = "M219,420 C263,405 263,319 308,333" fill = "none" stroke-width = "6" stroke = "purple" /><path    d = "M308,333 C263,319 314,249 287,212" fill = "none" stroke-width = "6" stroke = "purple" /><path    d = "M287,212 C314,249 396,223 396,269" fill = "none" stroke-width = "6" stroke = "purple" /><path    d = "M504,300 C517,283 540,315 561,309" fill = "none" stroke-width = "6" stroke = "purple" /><path    d = "M561,309 C540,315 540,355 520,349" fill = "none" stroke-width = "6" stroke = "purple" /><path    d = "M488,446 C509,452 485,485 498,502" fill = "none" stroke-width = "6" stroke = "purple" /><path    d = "M498,502 C485,485 447,497 447,476" fill = "none" stroke-width = "6" stroke = "purple" /><path    d = "M345,476 C345,497 307,485 294,502" fill = "none" stroke-width = "6" stroke = "purple" /><path    d = "M294,502 C307,485 283,452 304,446" fill = "none" stroke-width = "6" stroke = "purple" /><path    d = "M272,349 C252,355 252,315 231,309" fill = "none" stroke-width = "6" stroke = "purple" /><path    d = "M231,309 C252,315 275,283 288,300" fill = "none" stroke-width = "6" stroke = "purple" /><path    d = "M371,240 C358,223 396,210 396,189" fill = "none" stroke-width = "6" stroke = "purple" /><path    d = "M396,189 C396,210 434,223 422,240" fill = "none" stroke-width = "6" stroke = "purple" /><path    d = "M352,302 C330,272 396,250 396,213" fill = "none" stroke-width = "6" stroke = "purple" /><path    d = "M396,213 C396,250 462,272 440,302" fill = "none" stroke-width = "6" stroke = "purple" /><path    d = "M440,302 C462,272 502,328 538,316" fill = "none" stroke-width = "6" stroke = "purple" /><path    d = "M538,316 C502,328 502,397 467,385" fill = "none" stroke-width = "6" stroke = "purple" /><path    d = "M467,385 C502,397 462,453 484,483" fill = "none" stroke-width = "6" stroke = "purple" /><path    d = "M484,483 C462,453 396,474 396,437" fill = "none" stroke-width = "6" stroke = "purple" /><path    d = "M396,437 C396,474 330,453 309,483" fill = "none" stroke-width = "6" stroke = "purple" /><path    d = "M309,483 C330,453 290,397 325,385" fill = "none" stroke-width = "6" stroke = "purple" /><path    d = "M325,385 C290,397 290,328 254,316" fill = "none" stroke-width = "6" stroke = "purple" /><path    d = "M254,316 C290,328 330,272 352,302" fill = "none" stroke-width = "6" stroke = "purple" /><path    d = "M437,271 C437,254 467,264 478,250" fill = "none" stroke-width = "6" stroke = "purple" /><path    d = "M478,250 C467,264 486,290 470,295" fill = "none" stroke-width = "6" stroke = "purple" /><path    d = "M495,373 C512,368 512,400 528,405" fill = "none" stroke-width = "6" stroke = "purple" /><path    d = "M528,405 C512,400 493,426 482,412" fill = "none" stroke-width = "6" stroke = "purple" /><path    d = "M417,460 C427,474 396,484 396,501" fill = "none" stroke-width = "6" stroke = "purple" /><path    d = "M396,501 C396,484 366,474 376,460" fill = "none" stroke-width = "6" stroke = "purple" /><path    d = "M310,412 C300,426 281,400 264,405" fill = "none" stroke-width = "6" stroke = "purple" /><path    d = "M264,405 C281,400 281,368 297,373" fill = "none" stroke-width = "6" stroke = "purple" /><path    d = "M322,295 C306,290 325,264 315,250" fill = "none" stroke-width = "6" stroke = "purple" /><path    d = "M315,250 C325,264 355,254 355,271" fill = "none" stroke-width = "6" stroke = "purple" /><path    d = "M396,303 C396,273 449,290 466,266" fill = "none" stroke-width = "6" stroke = "purple" /><path    d = "M466,266 C449,290 481,335 453,344" fill = "none" stroke-width = "6" stroke = "purple" /><path    d = "M453,344 C481,335 481,390 509,399" fill = "none" stroke-width = "6" stroke = "purple" /><path    d = "M509,399 C481,390 449,434 431,410" fill = "none" stroke-width = "6" stroke = "purple" /><path    d = "M431,410 C449,434 396,452 396,481" fill = "none" stroke-width = "6" stroke = "purple" /><path    d = "M396,481 C396,452 344,434 361,410" fill = "none" stroke-width = "6" stroke = "purple" /><path    d = "M361,410 C344,434 311,390 283,399" fill = "none" stroke-width = "6" stroke = "purple" /><path    d = "M283,399 C311,390 311,335 339,344" fill = "none" stroke-width = "6" stroke = "purple" /><path    d = "M339,344 C311,335 344,290 326,266" fill = "none" stroke-width = "6" stroke = "purple" /><path    d = "M326,266 C344,290 396,273 396,303" fill = "none" stroke-width = "6" stroke = "purple" /><path    d = "M465,323 C473,311 488,332 502,328" fill = "none" stroke-width = "6" stroke = "purple" /><path    d = "M502,328 C488,332 488,358 475,354" fill = "none" stroke-width = "6" stroke = "purple" /><path    d = "M455,416 C468,420 453,441 461,452" fill = "none" stroke-width = "6" stroke = "purple" /><path    d = "M461,452 C453,441 429,449 429,435" fill = "none" stroke-width = "6" stroke = "purple" /><path    d = "M364,435 C364,449 339,441 331,452" fill = "none" stroke-width = "6" stroke = "purple" /><path    d = "M331,452 C339,441 324,420 337,416" fill = "none" stroke-width = "6" stroke = "purple" /><path    d = "M317,354 C304,358 304,332 291,328" fill = "none" stroke-width = "6" stroke = "purple" /><path    d = "M291,328 C304,332 319,311 327,323" fill = "none" stroke-width = "6" stroke = "purple" /><path    d = "M380,284 C372,273 396,265 396,251" fill = "none" stroke-width = "6" stroke = "purple" /><path    d = "M396,251 C396,265 421,273 412,284" fill = "none" stroke-width = "6" stroke = "purple" /><path    d = "M368,324 C354,304 396,291 396,267" fill = "none" stroke-width = "6" stroke = "purple" /><path    d = "M396,267 C396,291 438,304 424,324" fill = "none" stroke-width = "6" stroke = "purple" /><path    d = "M424,324 C438,304 464,340 487,333" fill = "none" stroke-width = "6" stroke = "purple" /><path    d = "M487,333 C464,340 464,384 441,377" fill = "none" stroke-width = "6" stroke = "purple" /><path    d = "M441,377 C464,384 438,420 452,439" fill = "none" stroke-width = "6" stroke = "purple" /><path    d = "M452,439 C438,420 396,434 396,410" fill = "none" stroke-width = "6" stroke = "purple" /><path    d = "M396,410 C396,434 354,420 340,439" fill = "none" stroke-width = "6" stroke = "purple" /><path    d = "M340,439 C354,420 328,384 351,377" fill = "none" stroke-width = "6" stroke = "purple" /><path    d = "M351,377 C328,384 328,340 305,333" fill = "none" stroke-width = "6" stroke = "purple" /><path    d = "M305,333 C328,340 354,304 368,324" fill = "none" stroke-width = "6" stroke = "purple" /><path    d = "M422,304 C422,293 442,299 448,290" fill = "none" stroke-width = "6" stroke = "purple" /><path    d = "M448,290 C442,299 454,316 443,319" fill = "none" stroke-width = "6" stroke = "purple" /><path    d = "M459,369 C470,366 470,386 481,390" fill = "none" stroke-width = "6" stroke = "purple" /><path    d = "M481,390 C470,386 458,403 451,394" fill = "none" stroke-width = "6" stroke = "purple" /><path    d = "M409,425 C416,433 396,440 396,451" fill = "none" stroke-width = "6" stroke = "purple" /><path    d = "M396,451 C396,440 377,433 383,425" fill = "none" stroke-width = "6" stroke = "purple" /><path    d = "M341,394 C334,403 322,386 312,390" fill = "none" stroke-width = "6" stroke = "purple" /><path    d = "M312,390 C322,386 322,366 333,369" fill = "none" stroke-width = "6" stroke = "purple" /><path    d = "M349,319 C338,316 350,299 344,290" fill = "none" stroke-width = "6" stroke = "purple" /><path    d = "M344,290 C350,299 370,293 370,304" fill = "none" stroke-width = "6" stroke = "purple" /><path    d = "M396,324 C396,305 430,316 441,300" fill = "none" stroke-width = "6" stroke = "purple" /><path    d = "M441,300 C430,316 451,344 432,350" fill = "none" stroke-width = "6" stroke = "purple" /><path    d = "M432,350 C451,344 451,380 469,386" fill = "none" stroke-width = "6" stroke = "purple" /><path    d = "M469,386 C451,380 430,408 419,393" fill = "none" stroke-width = "6" stroke = "purple" /><path    d = "M419,393 C430,408 396,419 396,438" fill = "none" stroke-width = "6" stroke = "purple" /><path    d = "M396,438 C396,419 363,408 374,393" fill = "none" stroke-width = "6" stroke = "purple" /><path    d = "M374,393 C363,408 342,380 324,386" fill = "none" stroke-width = "6" stroke = "purple" /><path    d = "M324,386 C342,380 342,344 360,350" fill = "none" stroke-width = "6" stroke = "purple" /><path    d = "M360,350 C342,344 363,316 351,300" fill = "none" stroke-width = "6" stroke = "purple" /><path    d = "M351,300 C363,316 396,305 396,324" fill = "none" stroke-width = "6" stroke = "purple" /><path    d = "M440,337 C446,330 455,343 464,340" fill = "none" stroke-width = "6" stroke = "purple" /><path    d = "M464,340 C455,343 455,359 447,357" fill = "none" stroke-width = "6" stroke = "purple" /><path    d = "M434,396 C442,399 433,412 438,420" fill = "none" stroke-width = "6" stroke = "purple" /><path    d = "M438,420 C433,412 417,418 417,409" fill = "none" stroke-width = "6" stroke = "purple" /><path    d = "M375,409 C375,418 360,412 354,420" fill = "none" stroke-width = "6" stroke = "purple" /><path    d = "M354,420 C360,412 350,399 358,396" fill = "none" stroke-width = "6" stroke = "purple" /><path    d = "M345,357 C337,359 337,343 329,340" fill = "none" stroke-width = "6" stroke = "purple" /><path    d = "M329,340 C337,343 347,330 352,337" fill = "none" stroke-width = "6" stroke = "purple" /><path    d = "M386,312 C380,305 396,300 396,291" fill = "none" stroke-width = "6" stroke = "purple" /><path    d = "M396,291 C396,300 412,305 407,312" fill = "none" stroke-width = "6" stroke = "purple" />    <circle cx="396" cy = "362" r = "38.130036363636364" stroke = "purple" stroke-width = "6" fill = "none" />
<circle cx="396" cy = "362" r = "6" stroke = "purple" stroke-width = "6" fill = "purple" />
</svg>