<svg width="600" height="600" viewbox = "0 0 600 600"  xmlns="http://www.w3.org/2000/svg">

<!--
<json>
{
    "imgurl": "",
    "imgw": 2,
    "imgleft": -1,
    "imgtop": -1,
    "imgangle": 0,
    "svgwidth": 600,
    "svgheight": 600,
    "unit": 121.00000000000003,
    "x0": 662.9045454545455,
    "y0": 389.36781328101245,
    "x0rel": -21.09545454545446,
    "y0rel": -9.632186718987555,
    "glyph": "0330,0332,0336,0331,0332,0336,0333,0337,0332,0337,0335,0306,0362,0203,0334,0334,0203,0334,0334,0203,0354,0334,0330,0335,0330,0334,0334,0362,0203,0335,0335,0203,0335,0335,0203,0354,0335,0335,0330,0330,0330,0362,0203,0335,0335,0203,0335,0335,0203,0354,0336,0331,0335,0335,0331,0336,0330,0337,0337,0342,0336,0336,0330,0334,0334,0337,0330,0335,0337,0330,0334,0330,0335,0335,0362,0203,0334,0334,0203,0334,0334,0203,0354,0335,0335,0335,0336,0330,0335,0331,0336,0330,0337,0337,0342,0334,0336,0336,0333,0337,0331,0337,0331,0331,0336,0330,0332,0334,0341,0340,0335,0330,0330,0330,0330,0330,0330,0331,0331,0331,0332,0331,0332,0334,0334,0331,0337,0305,0362,0203,0334,0334,0203,0334,0334,0203,0334,0334,0203,0334,0334,0203,0354,0330,",
    "table": []
}
</json>
-->
	<path d = "M67 230 L188 230 L128 125 L67 230 Z" stroke = "black" stroke-width = "8" fill = "none" />	<path d = "M67 439 L188 439 L128 544 L67 439 Z" stroke = "black" stroke-width = "8" fill = "none" />	<path d = "M430 439 L551 439 L491 544 L430 439 Z" stroke = "black" stroke-width = "8" fill = "none" />    <line x1="430" y1="492" x2="551" y2="492" style="stroke:black;stroke-width:8" />
	<path d = "M430 230 L551 230 L491 125 L430 230 Z" stroke = "black" stroke-width = "8" fill = "none" />    <line x1="430" y1="177" x2="551" y2="177" style="stroke:black;stroke-width:8" />
    <circle cx="309" cy = "335" r = "60.500000000000014" stroke = "black" stroke-width = "8" fill = "none" />
<circle cx="309" cy = "335" r = "8" stroke = "black" stroke-width = "8" fill = "black" />
	<path d = "M370 125 L249 125 L347 196 L309 81 L272 196 L370 125 Z" stroke = "black" stroke-width = "8" fill = "none" /></svg>