<svg width="600" height="600" viewbox = "0 0 600 600"  xmlns="http://www.w3.org/2000/svg">

<!--
<json>
{
    "imgurl": "",
    "imgw": 2,
    "imgleft": -1,
    "imgtop": -1,
    "imgangle": 0,
    "svgwidth": 600,
    "svgheight": 600,
    "unit": 75.13148009015778,
    "x0": 684,
    "y0": 425.91386832123067,
    "x0rel": 0,
    "y0rel": 26.913868321230666,
    "glyph": "0321,0220,0221,0222,",
    "table": []
}
</json>
-->
    <line x1="300" y1="327" x2="300" y2="325" style="stroke:black;stroke-width:5" />
    <line x1="300" y1="325" x2="300" y2="320" style="stroke:black;stroke-width:5" />
    <line x1="300" y1="320" x2="292" y2="315" style="stroke:black;stroke-width:5" />
    <line x1="292" y1="315" x2="300" y2="310" style="stroke:black;stroke-width:5" />
    <line x1="300" y1="310" x2="308" y2="306" style="stroke:black;stroke-width:5" />
    <line x1="308" y1="306" x2="300" y2="301" style="stroke:black;stroke-width:5" />
    <line x1="300" y1="301" x2="292" y2="296" style="stroke:black;stroke-width:5" />
    <line x1="292" y1="296" x2="300" y2="292" style="stroke:black;stroke-width:5" />
    <line x1="300" y1="292" x2="308" y2="287" style="stroke:black;stroke-width:5" />
    <line x1="308" y1="287" x2="300" y2="282" style="stroke:black;stroke-width:5" />
    <line x1="300" y1="282" x2="292" y2="278" style="stroke:black;stroke-width:5" />
    <line x1="292" y1="278" x2="300" y2="273" style="stroke:black;stroke-width:5" />
    <line x1="300" y1="273" x2="308" y2="268" style="stroke:black;stroke-width:5" />
    <line x1="308" y1="268" x2="300" y2="264" style="stroke:black;stroke-width:5" />
    <line x1="300" y1="264" x2="300" y2="254" style="stroke:black;stroke-width:5" />
    <line x1="300" y1="254" x2="300" y2="252" style="stroke:black;stroke-width:5" />
<path    d = "M300,252 C300,239 325,233 325,246" fill = "none" stroke-width = "2" stroke = "black" /><path    d = "M325,246 C325,258 300,246 300,233" fill = "none" stroke-width = "2" stroke = "black" /><path    d = "M300,233 C300,220 325,214 325,227" fill = "none" stroke-width = "2" stroke = "black" /><path    d = "M325,227 C325,239 300,227 300,214" fill = "none" stroke-width = "2" stroke = "black" /><path    d = "M300,214 C300,202 325,195 325,208" fill = "none" stroke-width = "2" stroke = "black" /><path    d = "M325,208 C325,220 300,208 300,195" fill = "none" stroke-width = "2" stroke = "black" /><path    d = "M300,195 C300,183 325,177 325,189" fill = "none" stroke-width = "2" stroke = "black" /><path    d = "M325,189 C325,202 300,189 300,177" fill = "none" stroke-width = "2" stroke = "black" />    <line x1="300" y1="177" x2="300" y2="158" style="stroke:black;stroke-width:5" />
    <line x1="300" y1="158" x2="300" y2="148" style="stroke:black;stroke-width:5" />
    <line x1="300" y1="148" x2="281" y2="148" style="stroke:black;stroke-width:5" />
    <line x1="300" y1="148" x2="319" y2="148" style="stroke:black;stroke-width:5" />
    <line x1="300" y1="130" x2="319" y2="130" style="stroke:black;stroke-width:5" />
    <line x1="300" y1="130" x2="281" y2="130" style="stroke:black;stroke-width:5" />
    <line x1="300" y1="130" x2="300" y2="120" style="stroke:black;stroke-width:5" />
    <line x1="300" y1="120" x2="300" y2="102" style="stroke:black;stroke-width:5" />
</svg>