<svg width="600" height="600" viewbox = "0 0 600 600"  xmlns="http://www.w3.org/2000/svg">

<!--
<json>
{
    "imgurl": "https://i.imgur.com/iCpHMWG.jpg",
    "imgw": 5.875142362225413,
    "imgleft": -3.4633120303347846,
    "imgtop": -2.2979198145591777,
    "imgangle": 0,
    "svgwidth": 600,
    "svgheight": 600,
    "unit": 114.12466824440008,
    "x0": 678.9087077046024,
    "y0": 405.2878574632175,
    "x0rel": -5.091292295397579,
    "y0rel": 6.287857463217506,
    "glyph": "0200,0335,0350,0335,0304,0336,0350,0201,0335,0335,0201,0335,0201,0201,0335,0201,0335,0335,0342,0334,0334,0201,0335,0201,0201,0335,0201,0335,0335,0342,0334,0334,0201,0335,0201,0201,0335,0201,0335,0335,0342,0334,0334,0201,0335,0201,0201,0335,0201,0335,0335,",
    "table": []
}
</json>
-->
	<path d = "M295 306 L295 192 L181 192 L181 306 L295 306 Z" stroke = "black" stroke-width = "4" fill = "none" />    <line x1="295" y1="306" x2="335" y2="347" style="stroke:black;stroke-width:4" />
    <line x1="335" y1="347" x2="295" y2="387" style="stroke:black;stroke-width:4" />
    <line x1="295" y1="387" x2="238" y2="387" style="stroke:black;stroke-width:4" />
    <line x1="238" y1="387" x2="181" y2="387" style="stroke:black;stroke-width:4" />
    <line x1="181" y1="387" x2="140" y2="347" style="stroke:black;stroke-width:4" />
    <line x1="140" y1="347" x2="181" y2="306" style="stroke:black;stroke-width:4" />
    <line x1="140" y1="347" x2="100" y2="306" style="stroke:black;stroke-width:4" />
    <line x1="100" y1="306" x2="100" y2="249" style="stroke:black;stroke-width:4" />
    <line x1="100" y1="249" x2="100" y2="192" style="stroke:black;stroke-width:4" />
    <line x1="100" y1="192" x2="140" y2="152" style="stroke:black;stroke-width:4" />
    <line x1="140" y1="152" x2="181" y2="192" style="stroke:black;stroke-width:4" />
    <line x1="140" y1="152" x2="181" y2="111" style="stroke:black;stroke-width:4" />
    <line x1="181" y1="111" x2="238" y2="111" style="stroke:black;stroke-width:4" />
    <line x1="238" y1="111" x2="295" y2="111" style="stroke:black;stroke-width:4" />
    <line x1="295" y1="111" x2="335" y2="152" style="stroke:black;stroke-width:4" />
    <line x1="335" y1="152" x2="295" y2="192" style="stroke:black;stroke-width:4" />
    <line x1="335" y1="152" x2="376" y2="192" style="stroke:black;stroke-width:4" />
    <line x1="376" y1="192" x2="376" y2="249" style="stroke:black;stroke-width:4" />
    <line x1="376" y1="249" x2="376" y2="306" style="stroke:black;stroke-width:4" />
    <line x1="376" y1="306" x2="335" y2="347" style="stroke:black;stroke-width:4" />
</svg>