<svg width="800" height="800" viewbox = "0 0 800 800"  xmlns="http://www.w3.org/2000/svg">

<!--
<json>
{
    "imgurl": "",
    "imgw": 6,
    "imgleft": -3,
    "imgtop": -2,
    "imgangle": 0,
    "svgwidth": 800,
    "svgheight": 800,
    "unit": 90.90909090909092,
    "x0": 680.120275236712,
    "y0": 361.1569459444388,
    "x0rel": -3.8797247632879817,
    "y0rel": -37.8430540555612,
    "glyph": "0337,0327,0243,0210,0210,0335,0243,0210,0210,0335,0243,0335,0210,0210,0243,0335,0210,0210,0243,0335,0210,0210,0243,0335,0210,0210,0243,0335,0210,0210,0243,",
    "table": []
}
</json>
-->
<path    d = "M289,215 C236,142 396,89 396,-1" fill = "none" stroke-width = "6" stroke = "purple" /><path    d = "M396,-1 C396,89 556,142 503,215" fill = "none" stroke-width = "6" stroke = "purple" /><path    d = "M503,215 C556,142 655,278 742,250" fill = "none" stroke-width = "6" stroke = "purple" /><path    d = "M742,250 C655,278 655,446 569,418" fill = "none" stroke-width = "6" stroke = "purple" /><path    d = "M569,418 C655,446 556,583 610,656" fill = "none" stroke-width = "6" stroke = "purple" /><path    d = "M610,656 C556,583 396,635 396,544" fill = "none" stroke-width = "6" stroke = "purple" /><path    d = "M396,544 C396,635 236,583 182,656" fill = "none" stroke-width = "6" stroke = "purple" /><path    d = "M182,656 C236,583 137,446 223,418" fill = "none" stroke-width = "6" stroke = "purple" /><path    d = "M223,418 C137,446 137,278 50,250" fill = "none" stroke-width = "6" stroke = "purple" /><path    d = "M50,250 C137,278 236,142 289,215" fill = "none" stroke-width = "6" stroke = "purple" /><path    d = "M496,140 C496,98 570,122 595,88" fill = "none" stroke-width = "6" stroke = "purple" /><path    d = "M595,88 C570,122 616,186 576,199" fill = "none" stroke-width = "6" stroke = "purple" /><path    d = "M638,388 C678,375 678,454 718,467" fill = "none" stroke-width = "6" stroke = "purple" /><path    d = "M718,467 C678,454 632,517 607,483" fill = "none" stroke-width = "6" stroke = "purple" /><path    d = "M446,600 C471,634 396,658 396,701" fill = "none" stroke-width = "6" stroke = "purple" /><path    d = "M396,701 C396,658 321,634 346,600" fill = "none" stroke-width = "6" stroke = "purple" /><path    d = "M185,483 C160,517 114,454 74,467" fill = "none" stroke-width = "6" stroke = "purple" /><path    d = "M74,467 C114,454 114,375 155,388" fill = "none" stroke-width = "6" stroke = "purple" /><path    d = "M216,199 C176,186 222,122 197,88" fill = "none" stroke-width = "6" stroke = "purple" /><path    d = "M197,88 C222,122 297,98 297,140" fill = "none" stroke-width = "6" stroke = "purple" /><path    d = "M396,223 C396,154 519,194 559,137" fill = "none" stroke-width = "6" stroke = "purple" /><path    d = "M559,137 C519,194 594,298 528,319" fill = "none" stroke-width = "6" stroke = "purple" /><path    d = "M528,319 C594,298 594,427 660,448" fill = "none" stroke-width = "6" stroke = "purple" /><path    d = "M660,448 C594,427 519,531 478,475" fill = "none" stroke-width = "6" stroke = "purple" /><path    d = "M478,475 C519,531 396,571 396,640" fill = "none" stroke-width = "6" stroke = "purple" /><path    d = "M396,640 C396,571 274,531 314,475" fill = "none" stroke-width = "6" stroke = "purple" /><path    d = "M314,475 C274,531 198,427 132,448" fill = "none" stroke-width = "6" stroke = "purple" /><path    d = "M132,448 C198,427 198,298 264,319" fill = "none" stroke-width = "6" stroke = "purple" /><path    d = "M264,319 C198,298 274,194 233,137" fill = "none" stroke-width = "6" stroke = "purple" /><path    d = "M233,137 C274,194 396,154 396,223" fill = "none" stroke-width = "6" stroke = "purple" /><path    d = "M557,270 C576,244 611,292 642,282" fill = "none" stroke-width = "6" stroke = "purple" /><path    d = "M642,282 C611,292 611,352 581,342" fill = "none" stroke-width = "6" stroke = "purple" /><path    d = "M534,487 C564,497 529,545 548,571" fill = "none" stroke-width = "6" stroke = "purple" /><path    d = "M548,571 C529,545 472,564 472,531" fill = "none" stroke-width = "6" stroke = "purple" /><path    d = "M320,531 C320,564 263,545 244,571" fill = "none" stroke-width = "6" stroke = "purple" /><path    d = "M244,571 C263,545 228,497 259,487" fill = "none" stroke-width = "6" stroke = "purple" /><path    d = "M212,342 C181,352 181,292 150,282" fill = "none" stroke-width = "6" stroke = "purple" /><path    d = "M150,282 C181,292 216,244 235,270" fill = "none" stroke-width = "6" stroke = "purple" /><path    d = "M358,180 C339,154 396,136 396,103" fill = "none" stroke-width = "6" stroke = "purple" /><path    d = "M396,103 C396,136 453,154 434,180" fill = "none" stroke-width = "6" stroke = "purple" /><path    d = "M458,276 C490,233 547,313 598,297" fill = "none" stroke-width = "6" stroke = "purple" /><path    d = "M598,297 C547,313 547,411 497,395" fill = "none" stroke-width = "6" stroke = "purple" /><path    d = "M497,395 C547,411 490,491 521,534" fill = "none" stroke-width = "6" stroke = "purple" /><path    d = "M521,534 C490,491 396,521 396,468" fill = "none" stroke-width = "6" stroke = "purple" /><path    d = "M396,468 C396,521 303,491 271,534" fill = "none" stroke-width = "6" stroke = "purple" /><path    d = "M271,534 C303,491 245,411 295,395" fill = "none" stroke-width = "6" stroke = "purple" /><path    d = "M295,395 C245,411 245,313 194,297" fill = "none" stroke-width = "6" stroke = "purple" /><path    d = "M194,297 C245,313 303,233 334,276" fill = "none" stroke-width = "6" stroke = "purple" /><path    d = "M334,276 C303,233 396,203 396,150" fill = "none" stroke-width = "6" stroke = "purple" /><path    d = "M396,150 C396,203 490,233 458,276" fill = "none" stroke-width = "6" stroke = "purple" /><path    d = "M537,377 C561,370 561,416 584,423" fill = "none" stroke-width = "6" stroke = "purple" /><path    d = "M584,423 C561,416 534,453 519,433" fill = "none" stroke-width = "6" stroke = "purple" /><path    d = "M425,501 C440,521 396,535 396,560" fill = "none" stroke-width = "6" stroke = "purple" /><path    d = "M396,560 C396,535 353,521 367,501" fill = "none" stroke-width = "6" stroke = "purple" /><path    d = "M273,433 C259,453 232,416 208,423" fill = "none" stroke-width = "6" stroke = "purple" /><path    d = "M208,423 C232,416 232,370 255,377" fill = "none" stroke-width = "6" stroke = "purple" /><path    d = "M291,267 C268,259 294,222 280,202" fill = "none" stroke-width = "6" stroke = "purple" /><path    d = "M280,202 C294,222 338,208 338,233" fill = "none" stroke-width = "6" stroke = "purple" /><path    d = "M454,233 C454,208 498,222 512,202" fill = "none" stroke-width = "6" stroke = "purple" /><path    d = "M512,202 C498,222 525,259 501,267" fill = "none" stroke-width = "6" stroke = "purple" /><path    d = "M473,337 C512,325 512,400 550,412" fill = "none" stroke-width = "6" stroke = "purple" /><path    d = "M550,412 C512,400 468,461 444,428" fill = "none" stroke-width = "6" stroke = "purple" /><path    d = "M444,428 C468,461 396,484 396,524" fill = "none" stroke-width = "6" stroke = "purple" /><path    d = "M396,524 C396,484 325,461 348,428" fill = "none" stroke-width = "6" stroke = "purple" /><path    d = "M348,428 C325,461 280,400 242,412" fill = "none" stroke-width = "6" stroke = "purple" /><path    d = "M242,412 C280,400 280,325 319,337" fill = "none" stroke-width = "6" stroke = "purple" /><path    d = "M319,337 C280,325 325,264 301,231" fill = "none" stroke-width = "6" stroke = "purple" /><path    d = "M301,231 C325,264 396,241 396,281" fill = "none" stroke-width = "6" stroke = "purple" /><path    d = "M396,281 C396,241 468,264 491,231" fill = "none" stroke-width = "6" stroke = "purple" /><path    d = "M491,231 C468,264 512,325 473,337" fill = "none" stroke-width = "6" stroke = "purple" /><path    d = "M476,435 C494,441 474,469 485,484" fill = "none" stroke-width = "6" stroke = "purple" /><path    d = "M485,484 C474,469 440,480 440,461" fill = "none" stroke-width = "6" stroke = "purple" /><path    d = "M352,461 C352,480 318,469 307,484" fill = "none" stroke-width = "6" stroke = "purple" /><path    d = "M307,484 C318,469 298,441 316,435" fill = "none" stroke-width = "6" stroke = "purple" /><path    d = "M288,350 C270,356 270,321 253,316" fill = "none" stroke-width = "6" stroke = "purple" /><path    d = "M253,316 C270,321 291,293 302,308" fill = "none" stroke-width = "6" stroke = "purple" /><path    d = "M374,256 C363,241 396,230 396,211" fill = "none" stroke-width = "6" stroke = "purple" /><path    d = "M396,211 C396,230 429,241 418,256" fill = "none" stroke-width = "6" stroke = "purple" /><path    d = "M490,308 C501,293 522,321 540,316" fill = "none" stroke-width = "6" stroke = "purple" /><path    d = "M540,316 C522,321 522,356 504,350" fill = "none" stroke-width = "6" stroke = "purple" /><path    d = "M455,381 C484,391 451,437 469,462" fill = "none" stroke-width = "6" stroke = "purple" /><path    d = "M469,462 C451,437 396,455 396,424" fill = "none" stroke-width = "6" stroke = "purple" /><path    d = "M396,424 C396,455 342,437 323,462" fill = "none" stroke-width = "6" stroke = "purple" /><path    d = "M323,462 C342,437 308,391 337,381" fill = "none" stroke-width = "6" stroke = "purple" /><path    d = "M337,381 C308,391 308,333 278,324" fill = "none" stroke-width = "6" stroke = "purple" /><path    d = "M278,324 C308,333 342,287 360,312" fill = "none" stroke-width = "6" stroke = "purple" /><path    d = "M360,312 C342,287 396,269 396,238" fill = "none" stroke-width = "6" stroke = "purple" /><path    d = "M396,238 C396,269 451,287 433,312" fill = "none" stroke-width = "6" stroke = "purple" /><path    d = "M433,312 C451,287 484,333 514,324" fill = "none" stroke-width = "6" stroke = "purple" /><path    d = "M514,324 C484,333 484,391 455,381" fill = "none" stroke-width = "6" stroke = "purple" /><path    d = "M413,443 C422,455 396,463 396,477" fill = "none" stroke-width = "6" stroke = "purple" /><path    d = "M396,477 C396,463 371,455 379,443" fill = "none" stroke-width = "6" stroke = "purple" /><path    d = "M324,403 C316,415 300,393 286,398" fill = "none" stroke-width = "6" stroke = "purple" /><path    d = "M286,398 C300,393 300,367 314,371" fill = "none" stroke-width = "6" stroke = "purple" /><path    d = "M335,307 C321,302 337,281 328,269" fill = "none" stroke-width = "6" stroke = "purple" /><path    d = "M328,269 C337,281 362,272 362,287" fill = "none" stroke-width = "6" stroke = "purple" /><path    d = "M430,287 C430,272 455,281 464,269" fill = "none" stroke-width = "6" stroke = "purple" /><path    d = "M464,269 C455,281 471,302 457,307" fill = "none" stroke-width = "6" stroke = "purple" /><path    d = "M478,371 C492,367 492,393 506,398" fill = "none" stroke-width = "6" stroke = "purple" /><path    d = "M506,398 C492,393 476,415 468,403" fill = "none" stroke-width = "6" stroke = "purple" /><path    d = "M424,400 C438,420 396,433 396,457" fill = "none" stroke-width = "6" stroke = "purple" /><path    d = "M396,457 C396,433 354,420 368,400" fill = "none" stroke-width = "6" stroke = "purple" /><path    d = "M368,400 C354,420 329,384 306,391" fill = "none" stroke-width = "6" stroke = "purple" /><path    d = "M306,391 C329,384 329,340 351,348" fill = "none" stroke-width = "6" stroke = "purple" /><path    d = "M351,348 C329,340 354,305 341,286" fill = "none" stroke-width = "6" stroke = "purple" /><path    d = "M341,286 C354,305 396,291 396,315" fill = "none" stroke-width = "6" stroke = "purple" /><path    d = "M396,315 C396,291 438,305 452,286" fill = "none" stroke-width = "6" stroke = "purple" /><path    d = "M452,286 C438,305 464,340 441,348" fill = "none" stroke-width = "6" stroke = "purple" /><path    d = "M441,348 C464,340 464,384 486,391" fill = "none" stroke-width = "6" stroke = "purple" /><path    d = "M486,391 C464,384 438,420 424,400" fill = "none" stroke-width = "6" stroke = "purple" /><path    d = "M370,420 C370,431 351,425 344,433" fill = "none" stroke-width = "6" stroke = "purple" /><path    d = "M344,433 C351,425 339,408 349,405" fill = "none" stroke-width = "6" stroke = "purple" /><path    d = "M333,355 C323,359 323,338 312,335" fill = "none" stroke-width = "6" stroke = "purple" /><path    d = "M312,335 C323,338 335,322 341,331" fill = "none" stroke-width = "6" stroke = "purple" /><path    d = "M383,300 C377,291 396,285 396,274" fill = "none" stroke-width = "6" stroke = "purple" /><path    d = "M396,274 C396,285 416,291 409,300" fill = "none" stroke-width = "6" stroke = "purple" /><path    d = "M451,331 C457,322 469,338 480,335" fill = "none" stroke-width = "6" stroke = "purple" /><path    d = "M480,335 C469,338 469,359 459,355" fill = "none" stroke-width = "6" stroke = "purple" /><path    d = "M443,405 C453,408 441,425 448,433" fill = "none" stroke-width = "6" stroke = "purple" /><path    d = "M448,433 C441,425 422,431 422,420" fill = "none" stroke-width = "6" stroke = "purple" /><path    d = "M396,398 C396,416 364,406 354,421" fill = "none" stroke-width = "6" stroke = "purple" /><path    d = "M354,421 C364,406 345,379 362,373" fill = "none" stroke-width = "6" stroke = "purple" /><path    d = "M362,373 C345,379 345,345 327,340" fill = "none" stroke-width = "6" stroke = "purple" /><path    d = "M327,340 C345,345 364,318 375,333" fill = "none" stroke-width = "6" stroke = "purple" /><path    d = "M375,333 C364,318 396,308 396,290" fill = "none" stroke-width = "6" stroke = "purple" /><path    d = "M396,290 C396,308 428,318 417,333" fill = "none" stroke-width = "6" stroke = "purple" /><path    d = "M417,333 C428,318 448,345 465,340" fill = "none" stroke-width = "6" stroke = "purple" /><path    d = "M465,340 C448,345 448,379 430,373" fill = "none" stroke-width = "6" stroke = "purple" /><path    d = "M430,373 C448,379 428,406 439,421" fill = "none" stroke-width = "6" stroke = "purple" /><path    d = "M439,421 C428,406 396,416 396,398" fill = "none" stroke-width = "6" stroke = "purple" /><path    d = "M354,386 C349,393 340,380 332,383" fill = "none" stroke-width = "6" stroke = "purple" /><path    d = "M332,383 C340,380 340,365 348,367" fill = "none" stroke-width = "6" stroke = "purple" /><path    d = "M360,330 C352,327 362,315 357,308" fill = "none" stroke-width = "6" stroke = "purple" /><path    d = "M357,308 C362,315 376,310 376,318" fill = "none" stroke-width = "6" stroke = "purple" /><path    d = "M416,318 C416,310 431,315 436,308" fill = "none" stroke-width = "6" stroke = "purple" /><path    d = "M436,308 C431,315 440,327 432,330" fill = "none" stroke-width = "6" stroke = "purple" /><path    d = "M444,367 C452,365 452,380 460,383" fill = "none" stroke-width = "6" stroke = "purple" /><path    d = "M460,383 C452,380 443,393 438,386" fill = "none" stroke-width = "6" stroke = "purple" /><path    d = "M406,409 C411,416 396,421 396,429" fill = "none" stroke-width = "6" stroke = "purple" /><path    d = "M396,429 C396,421 381,416 386,409" fill = "none" stroke-width = "6" stroke = "purple" /><path    d = "M380,384 C372,396 357,375 344,379" fill = "none" stroke-width = "6" stroke = "purple" /><path    d = "M344,379 C357,375 357,349 370,354" fill = "none" stroke-width = "6" stroke = "purple" /><path    d = "M370,354 C357,349 372,329 364,317" fill = "none" stroke-width = "6" stroke = "purple" /><path    d = "M364,317 C372,329 396,321 396,335" fill = "none" stroke-width = "6" stroke = "purple" /><path    d = "M396,335 C396,321 420,329 429,317" fill = "none" stroke-width = "6" stroke = "purple" /><path    d = "M429,317 C420,329 436,349 422,354" fill = "none" stroke-width = "6" stroke = "purple" /><path    d = "M422,354 C436,349 436,375 449,379" fill = "none" stroke-width = "6" stroke = "purple" /><path    d = "M449,379 C436,375 420,396 412,384" fill = "none" stroke-width = "6" stroke = "purple" /><path    d = "M412,384 C420,396 396,404 396,417" fill = "none" stroke-width = "6" stroke = "purple" /><path    d = "M396,417 C396,404 372,396 380,384" fill = "none" stroke-width = "6" stroke = "purple" /><path    d = "M359,358 C353,360 353,348 347,346" fill = "none" stroke-width = "6" stroke = "purple" /><path    d = "M347,346 C353,348 360,339 364,344" fill = "none" stroke-width = "6" stroke = "purple" /><path    d = "M389,326 C385,321 396,317 396,311" fill = "none" stroke-width = "6" stroke = "purple" /><path    d = "M396,311 C396,317 407,321 404,326" fill = "none" stroke-width = "6" stroke = "purple" /><path    d = "M428,344 C432,339 439,348 445,346" fill = "none" stroke-width = "6" stroke = "purple" /><path    d = "M445,346 C439,348 439,360 433,358" fill = "none" stroke-width = "6" stroke = "purple" /><path    d = "M423,387 C430,389 423,399 426,404" fill = "none" stroke-width = "6" stroke = "purple" /><path    d = "M426,404 C423,399 411,402 411,396" fill = "none" stroke-width = "6" stroke = "purple" /><path    d = "M381,396 C381,402 370,399 366,404" fill = "none" stroke-width = "6" stroke = "purple" /><path    d = "M366,404 C370,399 363,389 369,387" fill = "none" stroke-width = "6" stroke = "purple" /></svg>