<svg width="600" height="600" viewbox = "0 0 600 600"  xmlns="http://www.w3.org/2000/svg">

<!--
<json>
{
    "imgurl": "",
    "imgw": 2,
    "imgleft": -1,
    "imgtop": -1,
    "imgangle": 0,
    "svgwidth": 600,
    "svgheight": 600,
    "unit": 75.13148009015778,
    "x0": 684,
    "y0": 525.9138683212307,
    "x0rel": 0,
    "y0rel": 126.91386832123067,
    "glyph": "0336,0337,0337,0336,0341,0220,0221,0333,0341,0336,0330,0337,0341,0336,0333,0330,0333,0341,0330,0330,0332,0332,0332,0332,0321,0332,0332,0331,0332,0332,0332,0336,0362,0203,0350,0350,0350,0335,0210,0210,0203,0335,0203,0210,0210,0335,0203,0320,0203,0335,0203,0335,0203,0335,0203,0335,0203,0335,0203,0335,0335,0210,0210,0335,0203,0364,0330,",
    "table": []
}
</json>
-->
    <circle cx="300" cy = "427" r = "75.13148009015778" stroke = "black" stroke-width = "2" fill = "none" />
<path    d = "M305,427 C314,427 305,389 314,389" fill = "none" stroke-width = "2" stroke = "black" /><path    d = "M314,389 C305,389 314,352 305,352" fill = "none" stroke-width = "2" stroke = "black" />    <line x1="300" y1="427" x2="300" y2="352" style="stroke:black;stroke-width:2" />
	<path d = "M300 352 L298 356 L302 356 L300 352 Z" stroke = "black" stroke-width = "2" fill = "black" />    <circle cx="375" cy = "427" r = "75.13148009015778" stroke = "black" stroke-width = "2" fill = "none" />
    <circle cx="375" cy = "389" r = "75.13148009015778" stroke = "black" stroke-width = "2" fill = "none" />
    <circle cx="450" cy = "352" r = "37.56574004507889" stroke = "black" stroke-width = "2" fill = "none" />
	<path d = "M112 314 L112 295 L115 281 L120 268 L127 259 L133 250 L140 242 L150 236 L160 232 L170 230 L181 230 L188 234 " stroke = "black" stroke-width = "2" fill = "none" /></svg>