<svg width="400" height="400" viewbox = "0 0 400 400"  xmlns="http://www.w3.org/2000/svg">

<!--
<json>
{
    "imgurl": "",
    "imgw": 6,
    "imgleft": -3,
    "imgtop": -2,
    "imgangle": 0,
    "svgwidth": 400,
    "svgheight": 400,
    "unit": 90.90909090909092,
    "x0": 680.120275236712,
    "y0": 361.1569459444388,
    "x0rel": -3.8797247632879817,
    "y0rel": -37.8430540555612,
    "glyph": "0336,0336,0331,0332,0336,0336,0332,0337,0337,0336,0337,0366,0333,0333,0333,0331,0333,0336,0332,0336,0333,0337,0337,0337,0337,0367,0335,0335,0336,0366,0335,0335,0331,0331,0332,0336,0336,0336,0330,0330,0333,0337,0337,0367,0335,0335,0366,0332,0336,0332,0336,0333,0336,0332,0337,0330,0337,0337,0350,0335,0367,0335,0335,0335,0304,0330,0332,0332,0332,0336,0330,0332,0336,0333,0336,0332,0337,0337,0337,0337,0201,0201,0201,0336,0336,0201,0336,0201,0336,0201,0337,0337,0331,0331,0336,0331,0336,0330,0337,0337,0334,0337,0201,0336,0336,0336,0342,0335,0335,0337,0330,0330,0330,0330,0337,0337,0201,0336,0201,0336,0201,0334,0337,0337,0331,0331,0331,0331,0331,0331,0331,0331,0331,0332,0331,0332,0331,0332,0332,0332,0337,0123,0101,0124,0125,0122,0116,0365,",
    "table": []
}
</json>
-->
<path    d = "M168,185 C168,162 253,117 253,208" fill = "none" stroke-width = "10" stroke = "black" /><path    d = "M253,208 C253,253 213,264 213,287" fill = "none" stroke-width = "10" stroke = "black" /><path    d = "M213,287 C213,310 228,309 244,293" fill = "none" stroke-width = "10" stroke = "black" />    <line x1="168" y1="259" x2="168" y2="213" style="stroke:black;stroke-width:10" />
    <line x1="168" y1="213" x2="168" y2="168" style="stroke:black;stroke-width:10" />
    <line x1="168" y1="168" x2="168" y2="122" style="stroke:black;stroke-width:10" />
    <line x1="168" y1="122" x2="168" y2="111" style="stroke:black;stroke-width:10" />
    <line x1="168" y1="111" x2="168" y2="105" style="stroke:black;stroke-width:10" />
    <line x1="168" y1="105" x2="168" y2="102" style="stroke:black;stroke-width:10" />
    <line x1="168" y1="128" x2="145" y2="128" style="stroke:black;stroke-width:10" />
    <line x1="145" y1="128" x2="142" y2="128" style="stroke:black;stroke-width:10" />
    <line x1="168" y1="128" x2="190" y2="128" style="stroke:black;stroke-width:10" />
    <line x1="190" y1="128" x2="202" y2="128" style="stroke:black;stroke-width:10" />
    <line x1="202" y1="128" x2="207" y2="128" style="stroke:black;stroke-width:10" />
    <text x="94" y = "378" fill = "black" font-size = "45.45454545454546px" font-family = "arial">SATURN</text>
</svg>