<svg width="500" height="100" viewbox = "0 0 500 100"  xmlns="http://www.w3.org/2000/svg">

<!--
<json>
{
    "imgurl": "",
    "imgw": 2,
    "imgleft": -1,
    "imgtop": -1,
    "imgangle": 0,
    "svgwidth": 500,
    "svgheight": 100,
    "unit": 100.00000000000001,
    "x0": 615.5,
    "y0": 357.5670793520086,
    "x0rel": 0,
    "y0rel": -1.4329206479914092,
    "glyph": "0332,0336,0332,0332,0331,0336,0330,0336,0332,0330,0337,0337,0306,0350,0335,0306,0362,0203,0335,0203,0335,0335,0203,0335,0203,0363,0331,0335,0335,0324,0362,0203,0335,0203,0335,0335,0203,0335,0203,0363,0331,0335,0335,0320,0362,0203,0335,0203,0335,0335,0203,0335,0203,0363,0331,0335,0335,0324,0362,0203,0335,0203,0335,0335,0203,0335,0203,0363,0331,0335,0335,0320,0362,0203,0335,0203,0335,0335,0203,0335,0203,0363,0331,0324,0335,0335,0362,0203,0335,0203,0335,0335,0203,0335,0203,0363,0331,0335,0335,0320,0362,0203,0335,0203,0335,0335,0203,0335,0203,0363,0331,0335,0335,0324,0362,0203,0335,0203,0335,0335,0203,0335,0203,0363,0320,0331,",
    "table": []
}
</json>
-->
	<path d = "M37 61 L62 18 L113 18 L88 61 L38 61 Z" stroke = "black" stroke-width = "2" fill = "black" />	<path d = "M88 61 L112 18 L162 18 L138 61 L88 61 Z" stroke = "yellow" stroke-width = "2" fill = "yellow" />	<path d = "M138 61 L163 18 L213 18 L188 61 L138 61 Z" stroke = "black" stroke-width = "2" fill = "black" />	<path d = "M188 61 L213 18 L263 18 L238 61 L188 61 Z" stroke = "yellow" stroke-width = "2" fill = "yellow" />	<path d = "M238 61 L262 18 L312 18 L288 61 L238 61 Z" stroke = "black" stroke-width = "2" fill = "black" />	<path d = "M288 61 L312 18 L362 18 L338 61 L288 61 Z" stroke = "yellow" stroke-width = "2" fill = "yellow" />	<path d = "M338 61 L362 18 L412 18 L388 61 L338 61 Z" stroke = "black" stroke-width = "2" fill = "black" />	<path d = "M388 61 L412 18 L462 18 L438 61 L388 61 Z" stroke = "yellow" stroke-width = "2" fill = "yellow" /></svg>