<svg width="600" height="600" viewbox = "0 0 600 600"  xmlns="http://www.w3.org/2000/svg">

<!--
<json>
{
    "imgurl": "",
    "imgw": 2,
    "imgleft": -1,
    "imgtop": -1,
    "imgangle": 0,
    "svgwidth": 600,
    "svgheight": 600,
    "unit": 146.41000000000008,
    "x0": 684,
    "y0": 351.4475154247304,
    "x0rel": 0,
    "y0rel": -47.5524845752696,
    "glyph": "0336,0336,0336,0336,0334,0362,0203,0337,0337,0337,0335,0203,0334,0350,0334,0336,0304,0203,0335,0336,0203,0335,0337,0203,0203,0335,0203,0203,0335,0336,0203,0335,0203,0203,0350,0334,0334,0334,0304,0203,0203,0203,0203,0335,0203,0334,0203,0203,0334,0203,0337,0203,0203,0334,0203,0203,0203,0203,0203,0334,0203,0203,0203,0203,0203,0334,0203,0203,0203,0203,0203,0334,0203,0203,0336,0203,0363,",
    "table": []
}
</json>
-->
	<path d = "M300 252 L291 252 L291 179 L265 205 L252 192 L278 166 L304 140 L330 166 L356 192 L343 205 L330 192 L317 179 L317 198 L317 216 L317 234 L317 252 L298 252 L298 271 L298 289 L317 289 L353 289 L390 289 L390 252 L390 216 L390 179 L390 143 L390 106 L353 106 L317 106 L280 106 L244 106 L207 106 L207 143 L207 179 L207 216 L207 252 L207 289 L244 289 L280 289 L298 289 Z" stroke = "black" stroke-width = "2" fill = "black" /></svg>