<svg width="800" height="600" viewbox = "0 0 800 600"  xmlns="http://www.w3.org/2000/svg">

<!--
<json>
{
    "imgurl": "",
    "imgw": 2.983971328437751,
    "imgleft": -1.4873205904167783,
    "imgtop": -1.0519856642188752,
    "imgangle": 0,
    "svgwidth": 800,
    "svgheight": 600,
    "unit": 161.0510000000001,
    "x0": 615.5,
    "y0": 359,
    "x0rel": 0,
    "y0rel": 0,
    "glyph": "0336,0333,0336,0331,0332,0332,0337,0330,0330,0332,0332,0330,0332,0336,0331,0332,0337,0336,0221,0333,0333,0333,0333,0333,0222,0333,0333,0333,0333,0227,0337,0333,0333,0333,0333,0331,0333,0234,0331,0331,0337,0331,0331,0332,0332,0332,0332,0332,0332,0332,0332,0330,0336,0333,0235,0333,0333,0333,0333,0333,0320,0332,0336,0333,0333,0333,0333,0333,0333,0333,0236,0304,0333,0333,0333,0333,0224,",
    "table": []
}
</json>
-->
<circle cx="118" cy = "139" r = "4" stroke = "black" stroke-width = "4" fill = "black" />
    <circle cx="118" cy = "139" r = "20.131375000000013" stroke = "black" stroke-width = "4" fill = "none" />
<path    d = "M118,114 C109,109 127,89 118,84" fill = "none" stroke-width = "4" stroke = "black" /><path    d = "M143,139 C148,130 168,148 174,139" fill = "none" stroke-width = "4" stroke = "black" /><path    d = "M118,164 C127,169 109,189 118,194" fill = "none" stroke-width = "4" stroke = "black" /><path    d = "M93,139 C88,148 68,130 63,139" fill = "none" stroke-width = "4" stroke = "black" /><path    d = "M319,139 C330,122 370,156 380,139" fill = "none" stroke-width = "4" stroke = "black" /><path    d = "M299,159 C309,142 350,177 360,159" fill = "none" stroke-width = "4" stroke = "black" /><path    d = "M259,119 C269,101 309,136 319,119" fill = "none" stroke-width = "4" stroke = "black" /><path    d = "M219,139 C229,122 269,156 279,139" fill = "none" stroke-width = "4" stroke = "black" /><path    d = "M340,119 C350,101 390,136 400,119" fill = "none" stroke-width = "4" stroke = "black" /><path    d = "M199,159 C209,142 249,177 259,159" fill = "none" stroke-width = "4" stroke = "black" />	<path d = "M481 139 L481 134 L501 134 L501 139 L481 139 Z" stroke = "black" stroke-width = "4" fill = "none" /><path    d = "M488,134 C488,129 481,114 491,114" fill = "none" stroke-width = "4" stroke = "black" /><path    d = "M491,114 C501,114 493,129 493,134" fill = "none" stroke-width = "4" stroke = "black" />	<path d = "M501 179 L501 184 L481 184 L481 179 L501 179 Z" stroke = "black" stroke-width = "4" fill = "none" /><path    d = "M493,184 C493,189 501,204 491,204" fill = "none" stroke-width = "4" stroke = "black" /><path    d = "M491,204 C481,204 488,189 488,184" fill = "none" stroke-width = "4" stroke = "black" />    <line x1="483" y1="179" x2="483" y2="139" style="stroke:black;stroke-width:4" />
    <line x1="498" y1="179" x2="498" y2="139" style="stroke:black;stroke-width:4" />
	<path d = "M551 139 L551 134 L571 134 L571 139 L551 139 Z" stroke = "black" stroke-width = "4" fill = "none" /><path    d = "M559,134 C559,129 551,114 561,114" fill = "none" stroke-width = "4" stroke = "black" /><path    d = "M561,114 C571,114 564,129 564,134" fill = "none" stroke-width = "4" stroke = "black" />	<path d = "M571 179 L571 184 L551 184 L551 179 L571 179 Z" stroke = "black" stroke-width = "4" fill = "none" /><path    d = "M564,184 C564,189 571,204 561,204" fill = "none" stroke-width = "4" stroke = "black" /><path    d = "M561,204 C551,204 559,189 559,184" fill = "none" stroke-width = "4" stroke = "black" />    <line x1="554" y1="179" x2="554" y2="139" style="stroke:black;stroke-width:4" />
    <line x1="569" y1="179" x2="569" y2="139" style="stroke:black;stroke-width:4" />
    <line x1="554" y1="141" x2="513" y2="141" style="stroke:black;stroke-width:4" />
    <line x1="513" y1="141" x2="503" y2="141" style="stroke:black;stroke-width:4" />
    <line x1="503" y1="141" x2="498" y2="141" style="stroke:black;stroke-width:4" />
    <line x1="498" y1="177" x2="538" y2="177" style="stroke:black;stroke-width:4" />
    <line x1="538" y1="177" x2="548" y2="177" style="stroke:black;stroke-width:4" />
    <line x1="548" y1="177" x2="554" y2="177" style="stroke:black;stroke-width:4" />
	<path d = "M687 184 L687 179 L687 174 L687 169 L687 164 L687 159 L687 154 L687 149 L687 144 L687 139 L687 134 M686.8720937500001 133.91615625000577           A5.032843750000003 5.032843750000003 0 0 1 691.9049375000002 128.8833125000059L697 129 L702 129 L707 129 L712 129 L717 129 L722 129 L727 129 M727.1348437500001 128.8833125000067           A5.032843750000003 5.032843750000003 0 0 1 732.1676874999999 133.91615625000682L732 139 L732 144 L732 149 L732 154 L732 159 L732 164 L732 169 L732 174 L732 179 L732 184 M732.1676874999988 184.244593750007           A5.032843750000003 5.032843750000003 0 0 1 727.1348437499987 189.2774375000069L722 189 L717 189 L712 189 L707 189 L702 189 L697 189 L692 189 M691.9049374999987 189.2774375000065           A5.032843750000003 5.032843750000003 0 0 1 686.8720937499988 184.24459375000643Z" stroke = "white" stroke-width = "8" fill = "white" />	<path d = "M687 184 L687 179 L687 174 L687 169 L687 164 L687 159 L687 154 L687 149 L687 144 L687 139 L687 134 M686.8720937499988 133.91615625000628           A5.032843750000003 5.032843750000003 0 0 1 691.9049374999988 128.88331250000633L697 129 L702 129 L707 129 L712 129 L717 129 L722 129 L727 129 M727.1348437499987 128.88331250000633           A5.032843750000003 5.032843750000003 0 0 1 732.1676874999987 133.91615625000634L732 139 L732 144 L732 149 L732 154 L732 159 L732 164 L732 169 L732 174 L732 179 L732 184 M732.1676874999987 184.24459375000652           A5.032843750000003 5.032843750000003 0 0 1 727.1348437499987 189.27743750000653L722 189 L717 189 L712 189 L707 189 L702 189 L697 189 L692 189 M691.9049374999987 189.27743750000693           A5.032843750000003 5.032843750000003 0 0 1 686.8720937499987 184.24459375000697Z" stroke = "black" stroke-width = "4" fill = "none" />	<path d = "M692 189 L692 184 L692 179 L692 174 L692 169 L692 164 L692 159 L692 154 L692 149 L692 144 L692 139 M691.9049374999977 138.94900000000675           A5.032843750000003 5.032843750000003 0 0 1 696.9377812499976 133.91615625000668L702 134 L707 134 L712 134 L717 134 L722 134 L727 134 L732 134 M732.1676874999974 133.91615625000588           A5.032843750000003 5.032843750000003 0 0 1 737.2005312499975 138.94900000000578L737 144 L737 149 L737 154 L737 159 L737 164 L737 169 L737 174 L737 179 L737 184 L737 189 M737.2005312499987 189.27743750000596           A5.032843750000003 5.032843750000003 0 0 1 732.1676874999988 194.31028125000608L727 194 L722 194 L717 194 L712 194 L707 194 L702 194 L697 194 M696.9377812499988 194.31028125000728           A5.032843750000003 5.032843750000003 0 0 1 691.9049374999987 189.27743750000744Z" stroke = "white" stroke-width = "8" fill = "white" />	<path d = "M692 189 L692 184 L692 179 L692 174 L692 169 L692 164 L692 159 L692 154 L692 149 L692 144 L692 139 M691.9049374999964 138.9490000000073           A5.032843750000003 5.032843750000003 0 0 1 696.9377812499962 133.9161562500071L702 134 L707 134 L712 134 L717 134 L722 134 L727 134 L732 134 M732.1676874999961 133.9161562500055           A5.032843750000003 5.032843750000003 0 0 1 737.2005312499963 138.9490000000053L737 144 L737 149 L737 154 L737 159 L737 164 L737 169 L737 174 L737 179 L737 184 L737 189 M737.2005312499986 189.27743750000548           A5.032843750000003 5.032843750000003 0 0 1 732.1676874999988 194.31028125000572L727 194 L722 194 L717 194 L712 194 L707 194 L702 194 L697 194 M696.9377812499988 194.3102812500077           A5.032843750000003 5.032843750000003 0 0 1 691.9049374999986 189.27743750000798Z" stroke = "black" stroke-width = "4" fill = "none" />	<path d = "M697 194 L697 189 L697 184 L697 179 L697 174 L697 169 L697 164 L697 159 L697 154 L697 149 L697 144 M696.9377812499955 143.98184375000758           A5.032843750000003 5.032843750000003 0 0 1 701.9706249999952 138.9490000000073L707 139 L712 139 L717 139 L722 139 L727 139 L732 139 L737 139 M737.200531249995 138.9490000000049           A5.032843750000003 5.032843750000003 0 0 1 742.2333749999954 143.98184375000457L742 149 L742 154 L742 159 L742 164 L742 169 L742 174 L742 179 L742 184 L742 189 L742 194 M742.2333749999988 194.31028125000475           A5.032843750000003 5.032843750000003 0 0 1 737.2005312499991 199.34312500000505L732 199 L727 199 L722 199 L717 199 L712 199 L707 199 L702 199 M701.9706249999992 199.34312500000743           A5.032843750000003 5.032843750000003 0 0 1 696.9377812499989 194.31028125000776Z" stroke = "white" stroke-width = "8" fill = "white" />	<path d = "M697 194 L697 189 L697 184 L697 179 L697 174 L697 169 L697 164 L697 159 L697 154 L697 149 L697 144 M696.9377812499955 143.98184375000758           A5.032843750000003 5.032843750000003 0 0 1 701.9706249999952 138.94900000000723L707 139 L712 139 L717 139 L722 139 L727 139 L732 139 L737 139 M737.2005312499952 138.94900000000445           A5.032843750000003 5.032843750000003 0 0 1 742.2333749999955 143.98184375000406L742 149 L742 154 L742 159 L742 164 L742 169 L742 174 L742 179 L742 184 L742 189 L742 194 M742.233375 194.31028125000424           A5.032843750000003 5.032843750000003 0 0 1 737.2005312500005 199.34312500000465L732 199 L727 199 L722 199 L717 199 L712 199 L707 199 L702 199 M701.9706250000006 199.34312500000783           A5.032843750000003 5.032843750000003 0 0 1 696.9377812500002 194.31028125000827Z" stroke = "black" stroke-width = "4" fill = "none" />	<path d = "M702 199 L702 194 L702 189 L702 184 L702 179 L702 174 L702 169 L702 164 L702 159 L702 154 L702 149 M701.9706249999961 149.0146875000076           A5.032843750000003 5.032843750000003 0 0 1 707.0034687499956 143.98184375000713L712 144 L717 144 L722 144 L727 144 L732 144 L737 144 L742 144 M742.2333749999956 143.98184375000355           A5.032843750000003 5.032843750000003 0 0 1 747.266218749996 149.01468750000305L747 154 L747 159 L747 164 L747 169 L747 174 L747 179 L747 184 L747 189 L747 194 L747 199 M747.2662187500017 199.34312500000323           A5.032843750000003 5.032843750000003 0 0 1 742.2333750000023 204.37596875000375L737 204 L732 204 L727 204 L722 204 L717 204 L712 204 L707 204 M707.0034687500024 204.37596875000773           A5.032843750000003 5.032843750000003 0 0 1 701.9706250000019 199.34312500000829Z" stroke = "white" stroke-width = "8" fill = "white" />	<path d = "M702 199 L702 194 L702 189 L702 184 L702 179 L702 174 L702 169 L702 164 L702 159 L702 154 L702 149 M701.9706249999962 149.0146875000081           A5.032843750000003 5.032843750000003 0 0 1 707.0034687499956 143.98184375000753L712 144 L717 144 L722 144 L727 144 L732 144 L737 144 L742 144 M742.2333749999956 143.98184375000315           A5.032843750000003 5.032843750000003 0 0 1 747.2662187499961 149.01468750000254L747 154 L747 159 L747 164 L747 169 L747 174 L747 179 L747 184 L747 189 L747 194 L747 199 M747.266218750003 199.34312500000271           A5.032843750000003 5.032843750000003 0 0 1 742.2333750000037 204.37596875000335L737 204 L732 204 L727 204 L722 204 L717 204 L712 204 L707 204 M707.0034687500038 204.37596875000813           A5.032843750000003 5.032843750000003 0 0 1 701.9706250000031 199.3431250000088Z" stroke = "black" stroke-width = "4" fill = "none" />	<path d = "M707 204 L707 199 L707 194 L707 189 L707 184 L707 179 L707 174 L707 169 L707 164 L707 159 L707 154 M707.003468749997 154.0475312500079           A5.032843750000003 5.032843750000003 0 0 1 712.0363124999963 149.0146875000072L717 149 L722 149 L727 149 L732 149 L737 149 L742 149 L747 149 M747.2662187499963 149.01468750000203           A5.032843750000003 5.032843750000003 0 0 1 752.2990624999969 154.0475312500013L752 159 L752 164 L752 169 L752 174 L752 179 L752 184 L752 189 L752 194 L752 199 L752 204 M752.2990625000049 204.37596875000148           A5.032843750000003 5.032843750000003 0 0 1 747.2662187500057 209.40881250000223L742 209 L737 209 L732 209 L727 209 L722 209 L717 209 L712 209 M712.0363125000058 209.4088125000078           A5.032843750000003 5.032843750000003 0 0 1 707.003468750005 204.37596875000858Z" stroke = "white" stroke-width = "8" fill = "white" />	<path d = "M707 204 L707 199 L707 194 L707 189 L707 184 L707 179 L707 174 L707 169 L707 164 L707 159 L707 154 M707.0034687499971 154.0475312500084           A5.032843750000003 5.032843750000003 0 0 1 712.0363124999963 149.0146875000076L717 149 L722 149 L727 149 L732 149 L737 149 L742 149 L747 149 M747.2662187499963 149.01468750000163           A5.032843750000003 5.032843750000003 0 0 1 752.299062499997 154.0475312500008L752 159 L752 164 L752 169 L752 174 L752 179 L752 184 L752 189 L752 194 L752 199 L752 204 M752.2990625000061 204.37596875000094           A5.032843750000003 5.032843750000003 0 0 1 747.266218750007 209.4088125000018L742 209 L737 209 L732 209 L727 209 L722 209 L717 209 L712 209 M712.0363125000072 209.40881250000797           A5.032843750000003 5.032843750000003 0 0 1 707.0034687500063 204.37596875000884Z" stroke = "black" stroke-width = "4" fill = "none" />	<path d = "M712 209 L712 204 L712 199 L712 194 L712 189 L712 184 L712 179 L712 174 L712 169 L712 164 L712 159 M712.0363124999981 159.08037500000773           A5.032843750000003 5.032843750000003 0 0 1 717.0691562499971 154.04753125000684L722 154 L727 154 L732 154 L737 154 L742 154 L747 154 L752 154 M752.2990624999971 154.04753125000028           A5.032843750000003 5.032843750000003 0 0 1 757.331906249998 159.08037499999935L757 164 L757 169 L757 174 L757 179 L757 184 L757 189 L757 194 L757 199 L757 204 L757 209 M757.3319062500083 209.40881249999953           A5.032843750000003 5.032843750000003 0 0 1 752.2990625000093 214.44165625000048L747 214 L742 214 L737 214 L732 214 L727 214 L722 214 L717 214 M717.0691562500094 214.44165625000744           A5.032843750000003 5.032843750000003 0 0 1 712.0363125000084 209.40881250000842Z" stroke = "white" stroke-width = "8" fill = "white" />	<path d = "M712 209 L712 204 L712 199 L712 194 L712 189 L712 184 L712 179 L712 174 L712 169 L712 164 L712 159 M712.0363124999982 159.08037500000825           A5.032843750000003 5.032843750000003 0 0 1 717.0691562499971 154.04753125000724L722 154 L727 154 L732 154 L737 154 L742 154 L747 154 L752 154 M752.2990624999971 154.04753124999988           A5.032843750000003 5.032843750000003 0 0 1 757.3319062499982 159.08037499999884L757 164 L757 169 L757 174 L757 179 L757 184 L757 189 L757 194 L757 199 L757 204 L757 209 M757.3319062500095 209.40881249999902           A5.032843750000003 5.032843750000003 0 0 1 752.2990625000107 214.44165625000008L747 214 L742 214 L737 214 L732 214 L727 214 L722 214 L717 214 M717.0691562500108 214.44165625000784           A5.032843750000003 5.032843750000003 0 0 1 712.0363125000097 209.40881250000893Z" stroke = "black" stroke-width = "4" fill = "none" /><circle cx="78" cy = "340" r = "4" stroke = "black" stroke-width = "4" fill = "black" />
    <line x1="78" y1="340" x2="118" y2="340" style="stroke:black;stroke-width:4" />
<circle cx="118" cy = "340" r = "4" stroke = "black" stroke-width = "4" fill = "black" />
    <line x1="118" y1="340" x2="98" y2="305" style="stroke:black;stroke-width:4" />
<circle cx="98" cy = "305" r = "4" stroke = "black" stroke-width = "4" fill = "black" />
    <line x1="98" y1="305" x2="78" y2="340" style="stroke:black;stroke-width:4" />
  <path d="M37.63525000003892 340.2627500001593           A40.262750000000025 40.262750000000025 0 0 1 57.766625000030444 305.3941856739322" fill = "none" stroke = "black" stroke-width = "4" />
  <path d="M57.76662500004784 375.1313143263763           A40.262750000000025 40.262750000000025 0 0 1 37.63525000003892 340.2627500001593" fill = "none" stroke = "black" stroke-width = "4" />
  <path d="M98.02937500004806 375.1313143263659           A40.262750000000025 40.262750000000025 0 0 1 57.76662500004784 375.1313143263763" fill = "none" stroke = "black" stroke-width = "4" />
  <path d="M57.76662500003003 305.39418567393227           A40.262750000000025 40.262750000000025 0 0 1 77.89800000002155 270.52562134770517" fill = "none" stroke = "black" stroke-width = "4" />
  <path d="M77.89800000002155 270.52562134770517           A40.262750000000025 40.262750000000025 0 0 1 118.16075000002178 270.5256213476955" fill = "none" stroke = "black" stroke-width = "4" />
  <path d="M118.16075000002178 270.5256213476955           A40.262750000000025 40.262750000000025 0 0 1 138.29212500003007 305.3941856739129" fill = "none" stroke = "black" stroke-width = "4" />
  <path d="M138.29212500002967 305.3941856739129           A40.262750000000025 40.262750000000025 0 0 1 158.42350000003796 340.26275000013027" fill = "none" stroke = "black" stroke-width = "4" />
  <path d="M158.42350000003796 340.26275000013027           A40.262750000000025 40.262750000000025 0 0 1 138.29212500004584 375.13131432635697" fill = "none" stroke = "black" stroke-width = "4" />
  <path d="M138.29212500004584 375.13131432635697           A40.262750000000025 40.262750000000025 0 0 1 98.0293750000456 375.13131432636595" fill = "none" stroke = "black" stroke-width = "4" />
  <path d="M57.76662500003016 305.3941856739308           A40.262750000000025 40.262750000000025 0 0 1 98.02937500003038 305.3941856739219" fill = "none" stroke = "blue" stroke-width = "2" />
  <path d="M118.16075000003795 340.26275000013976           A40.262750000000025 40.262750000000025 0 0 1 98.02937500004508 375.131314326366" fill = "none" stroke = "blue" stroke-width = "2" />
  <path d="M98.02937500003019 305.3941856739223           A40.262750000000025 40.262750000000025 0 0 1 138.2921250000304 305.39418567391346" fill = "none" stroke = "blue" stroke-width = "2" />
  <path d="M98.02937500004488 375.13131432636567           A40.262750000000025 40.262750000000025 0 0 1 77.89800000003792 340.26275000014755" fill = "none" stroke = "blue" stroke-width = "2" />
  <path d="M138.29212500003143 305.39418567391454           A40.262750000000025 40.262750000000025 0 0 1 118.16075000003734 340.2627500001401" fill = "none" stroke = "blue" stroke-width = "2" />
  <path d="M77.8980000000376 340.2627500001471           A40.262750000000025 40.262750000000025 0 0 1 57.76662500003138 305.3941856739291" fill = "none" stroke = "blue" stroke-width = "2" />
  <path d="M118.16075000003782 340.2627500001398           A40.262750000000025 40.262750000000025 0 0 1 77.8980000000376 340.2627500001471" fill = "none" stroke = "red" stroke-width = "4" />
  <path d="M98.02937500002955 305.3941856739205           A40.262750000000025 40.262750000000025 0 0 1 118.16075000003762 340.26275000013686" fill = "none" stroke = "red" stroke-width = "4" />
  <path d="M77.89800000003918 340.2627500001498           A40.262750000000025 40.262750000000025 0 0 1 98.02937500002719 305.39418567392187" fill = "none" stroke = "red" stroke-width = "4" />
    <circle cx="380" cy = "340" r = "20.131375000000013" stroke = "black" stroke-width = "4" fill = "none" />
<circle cx="380" cy = "340" r = "4" stroke = "black" stroke-width = "4" fill = "black" />
	<path d = "M380 320 L415 320 L397 350 L380 381 L362 350 L345 320 L380 320 Z" stroke = "black" stroke-width = "4" fill = "none" />    <line x1="380" y1="340" x2="380" y2="300" style="stroke:black;stroke-width:4" />
    <line x1="380" y1="340" x2="415" y2="320" style="stroke:black;stroke-width:4" />
    <line x1="380" y1="340" x2="415" y2="360" style="stroke:black;stroke-width:4" />
    <line x1="380" y1="340" x2="380" y2="381" style="stroke:black;stroke-width:4" />
    <line x1="380" y1="340" x2="345" y2="360" style="stroke:black;stroke-width:4" />
    <line x1="380" y1="340" x2="345" y2="320" style="stroke:black;stroke-width:4" />
	<path d = "M380 300 L415 360 L345 360 L380 300 Z" stroke = "black" stroke-width = "4" fill = "none" />	<path d = "M380 300 L415 320 L415 360 L380 381 L345 360 L345 320 L380 300 Z" stroke = "black" stroke-width = "4" fill = "none" />    <circle cx="380" cy = "340" r = "40.262750000000025" stroke = "black" stroke-width = "4" fill = "none" />
    <line x1="541" y1="340" x2="541" y2="327" style="stroke:black;stroke-width:4" />
    <line x1="541" y1="327" x2="554" y2="327" style="stroke:black;stroke-width:4" />
    <line x1="554" y1="327" x2="568" y2="327" style="stroke:black;stroke-width:4" />
    <line x1="568" y1="327" x2="581" y2="327" style="stroke:black;stroke-width:4" />
    <line x1="595" y1="327" x2="608" y2="327" style="stroke:black;stroke-width:4" />
    <line x1="608" y1="327" x2="608" y2="340" style="stroke:black;stroke-width:4" />
    <line x1="608" y1="340" x2="608" y2="354" style="stroke:black;stroke-width:4" />
    <line x1="608" y1="354" x2="608" y2="367" style="stroke:black;stroke-width:4" />
    <line x1="608" y1="381" x2="608" y2="394" style="stroke:black;stroke-width:4" />
    <line x1="608" y1="394" x2="595" y2="394" style="stroke:black;stroke-width:4" />
    <line x1="595" y1="394" x2="581" y2="394" style="stroke:black;stroke-width:4" />
    <line x1="581" y1="394" x2="568" y2="394" style="stroke:black;stroke-width:4" />
    <line x1="554" y1="394" x2="541" y2="394" style="stroke:black;stroke-width:4" />
    <line x1="541" y1="394" x2="541" y2="381" style="stroke:black;stroke-width:4" />
    <line x1="541" y1="381" x2="541" y2="367" style="stroke:black;stroke-width:4" />
    <line x1="541" y1="367" x2="541" y2="354" style="stroke:black;stroke-width:4" />
    <line x1="535" y1="378" x2="525" y2="369" style="stroke:black;stroke-width:4" />
    <line x1="525" y1="369" x2="535" y2="359" style="stroke:black;stroke-width:4" />
    <line x1="535" y1="359" x2="544" y2="350" style="stroke:black;stroke-width:4" />
    <line x1="544" y1="350" x2="554" y2="340" style="stroke:black;stroke-width:4" />
    <line x1="563" y1="331" x2="573" y2="321" style="stroke:black;stroke-width:4" />
    <line x1="573" y1="321" x2="582" y2="331" style="stroke:black;stroke-width:4" />
    <line x1="582" y1="331" x2="592" y2="340" style="stroke:black;stroke-width:4" />
    <line x1="592" y1="340" x2="601" y2="350" style="stroke:black;stroke-width:4" />
    <line x1="611" y1="359" x2="620" y2="369" style="stroke:black;stroke-width:4" />
    <line x1="620" y1="369" x2="611" y2="378" style="stroke:black;stroke-width:4" />
    <line x1="611" y1="378" x2="601" y2="388" style="stroke:black;stroke-width:4" />
    <line x1="601" y1="388" x2="592" y2="397" style="stroke:black;stroke-width:4" />
    <line x1="582" y1="407" x2="573" y2="416" style="stroke:black;stroke-width:4" />
    <line x1="573" y1="416" x2="563" y2="407" style="stroke:black;stroke-width:4" />
    <line x1="563" y1="407" x2="554" y2="397" style="stroke:black;stroke-width:4" />
    <line x1="554" y1="397" x2="544" y2="388" style="stroke:black;stroke-width:4" />
</svg>