<svg width="600" height="600" viewbox = "0 0 600 600"  xmlns="http://www.w3.org/2000/svg">

<!--
<json>
{
    "imgurl": "",
    "imgw": 2.983971328437751,
    "imgleft": -1.4873205904167783,
    "imgtop": -1.0519856642188752,
    "imgangle": 0,
    "svgwidth": 600,
    "svgheight": 600,
    "unit": 161.0510000000001,
    "x0": 615.5,
    "y0": 359,
    "x0rel": 0,
    "y0rel": 0,
    "glyph": "0336,0330,0332,0336,0331,0333,0337,0330,0330,0332,0332,0333,0336,0221,0333,0333,0333,0333,0333,0333,0222,0331,0331,0331,0331,0332,0332,0332,0332,0332,0332,0332,0332,0332,0227,0337,0333,0333,0333,0333,0333,0331,0332,0333,0234,0333,0333,0333,0333,0235,0331,0331,0331,0332,0332,0332,0332,0332,0332,0332,0337,0224,0333,0333,0333,0336,0333,0331,0333,0210,0210,0236,",
    "table": []
}
</json>
-->
<circle cx="179" cy = "99" r = "4" stroke = "black" stroke-width = "4" fill = "black" />
    <circle cx="179" cy = "99" r = "20.131375000000013" stroke = "black" stroke-width = "4" fill = "none" />
<path    d = "M179,74 C170,68 188,48 179,43" fill = "none" stroke-width = "4" stroke = "black" /><path    d = "M204,99 C209,90 230,107 235,99" fill = "none" stroke-width = "4" stroke = "black" /><path    d = "M179,124 C188,129 170,149 179,154" fill = "none" stroke-width = "4" stroke = "black" /><path    d = "M154,99 C149,107 129,90 124,99" fill = "none" stroke-width = "4" stroke = "black" /><path    d = "M421,99 C431,81 471,116 481,99" fill = "none" stroke-width = "4" stroke = "black" /><path    d = "M401,119 C411,101 451,136 461,119" fill = "none" stroke-width = "4" stroke = "black" /><path    d = "M360,79 C370,61 411,96 421,79" fill = "none" stroke-width = "4" stroke = "black" /><path    d = "M320,99 C330,81 370,116 381,99" fill = "none" stroke-width = "4" stroke = "black" /><path    d = "M441,79 C451,61 491,96 501,79" fill = "none" stroke-width = "4" stroke = "black" /><path    d = "M300,119 C310,101 350,136 360,119" fill = "none" stroke-width = "4" stroke = "black" />	<path d = "M58 260 L58 255 L79 255 L79 260 L58 260 Z" stroke = "black" stroke-width = "4" fill = "none" /><path    d = "M66,255 C66,250 58,235 68,235" fill = "none" stroke-width = "4" stroke = "black" /><path    d = "M68,235 C79,235 71,250 71,255" fill = "none" stroke-width = "4" stroke = "black" />	<path d = "M79 300 L79 305 L58 305 L58 300 L79 300 Z" stroke = "black" stroke-width = "4" fill = "none" /><path    d = "M71,305 C71,310 79,325 68,325" fill = "none" stroke-width = "4" stroke = "black" /><path    d = "M68,325 C58,325 66,310 66,305" fill = "none" stroke-width = "4" stroke = "black" />    <line x1="61" y1="300" x2="61" y2="260" style="stroke:black;stroke-width:4" />
    <line x1="76" y1="300" x2="76" y2="260" style="stroke:black;stroke-width:4" />
	<path d = "M129 260 L129 255 L149 255 L149 260 L129 260 Z" stroke = "black" stroke-width = "4" fill = "none" /><path    d = "M136,255 C136,250 129,235 139,235" fill = "none" stroke-width = "4" stroke = "black" /><path    d = "M139,235 C149,235 141,250 141,255" fill = "none" stroke-width = "4" stroke = "black" />	<path d = "M149 300 L149 305 L129 305 L129 300 L149 300 Z" stroke = "black" stroke-width = "4" fill = "none" /><path    d = "M141,305 C141,310 149,325 139,325" fill = "none" stroke-width = "4" stroke = "black" /><path    d = "M139,325 C129,325 136,310 136,305" fill = "none" stroke-width = "4" stroke = "black" />    <line x1="131" y1="300" x2="131" y2="260" style="stroke:black;stroke-width:4" />
    <line x1="146" y1="300" x2="146" y2="260" style="stroke:black;stroke-width:4" />
    <line x1="131" y1="262" x2="91" y2="262" style="stroke:black;stroke-width:4" />
    <line x1="91" y1="262" x2="81" y2="262" style="stroke:black;stroke-width:4" />
    <line x1="81" y1="262" x2="76" y2="262" style="stroke:black;stroke-width:4" />
    <line x1="76" y1="297" x2="116" y2="297" style="stroke:black;stroke-width:4" />
    <line x1="116" y1="297" x2="126" y2="297" style="stroke:black;stroke-width:4" />
    <line x1="126" y1="297" x2="131" y2="297" style="stroke:black;stroke-width:4" />
	<path d = "M265 305 L265 300 L265 295 L265 290 L265 285 L265 280 L265 275 L265 270 L265 265 L265 260 L265 255 M264.77009374999926 254.70440625000217           A5.032843750000003 5.032843750000003 0 0 1 269.80293749999936 249.6715625000023L275 250 L280 250 L285 250 L290 250 L295 250 L300 250 L305 250 M305.0328437499993 249.6715625000031           A5.032843750000003 5.032843750000003 0 0 1 310.06568749999917 254.70440625000322L310 260 L310 265 L310 270 L310 275 L310 280 L310 285 L310 290 L310 295 L310 300 L310 305 M310.0656874999986 305.0328437500031           A5.032843750000003 5.032843750000003 0 0 1 305.03284374999856 310.065687500003L300 310 L295 310 L290 310 L285 310 L280 310 L275 310 L270 310 M269.8029374999986 310.0656875000026           A5.032843750000003 5.032843750000003 0 0 1 264.7700937499987 305.03284375000254Z" stroke = "white" stroke-width = "8" fill = "white" />	<path d = "M265 305 L265 300 L265 295 L265 290 L265 285 L265 280 L265 275 L265 270 L265 265 L265 260 L265 255 M264.7700937499987 254.70440625000265           A5.032843750000003 5.032843750000003 0 0 1 269.8029374999987 249.6715625000027L275 250 L280 250 L285 250 L290 250 L295 250 L300 250 L305 250 M305.0328437499986 249.6715625000027           A5.032843750000003 5.032843750000003 0 0 1 310.0656874999986 254.7044062500027L310 260 L310 265 L310 270 L310 275 L310 280 L310 285 L310 290 L310 295 L310 300 L310 305 M310.06568749999917 305.0328437500026           A5.032843750000003 5.032843750000003 0 0 1 305.03284374999924 310.0656875000026L300 310 L295 310 L290 310 L285 310 L280 310 L275 310 L270 310 M269.8029374999993 310.065687500003           A5.032843750000003 5.032843750000003 0 0 1 264.77009374999926 305.03284375000305Z" stroke = "black" stroke-width = "4" fill = "none" />	<path d = "M270 310 L270 305 L270 300 L270 295 L270 290 L270 285 L270 280 L270 275 L270 270 L270 265 L270 260 M269.8029374999982 259.73725000000314           A5.032843750000003 5.032843750000003 0 0 1 274.8357812499981 254.70440625000307L280 255 L285 255 L290 255 L295 255 L300 255 L305 255 L310 255 M310.06568749999803 254.70440625000228           A5.032843750000003 5.032843750000003 0 0 1 315.09853124999813 259.7372500000022L315 265 L315 270 L315 275 L315 280 L315 285 L315 290 L315 295 L315 300 L315 305 L315 310 M315.09853124999984 310.06568750000207           A5.032843750000003 5.032843750000003 0 0 1 310.0656875 315.09853125000217L305 315 L300 315 L295 315 L290 315 L285 315 L280 315 L275 315 M274.83578125000014 315.09853125000336           A5.032843750000003 5.032843750000003 0 0 1 269.8029375 310.06568750000355Z" stroke = "white" stroke-width = "8" fill = "white" />	<path d = "M270 310 L270 305 L270 300 L270 295 L270 290 L270 285 L270 280 L270 275 L270 270 L270 265 L270 260 M269.8029374999983 259.7372500000037           A5.032843750000003 5.032843750000003 0 0 1 274.8357812499981 254.70440625000353L280 255 L285 255 L290 255 L295 255 L300 255 L305 255 L310 255 M310.06568749999803 254.70440625000194           A5.032843750000003 5.032843750000003 0 0 1 315.0985312499982 259.7372500000017L315 265 L315 270 L315 275 L315 280 L315 285 L315 290 L315 295 L315 300 L315 305 L315 310 M315.09853125000046 310.0656875000016           A5.032843750000003 5.032843750000003 0 0 1 310.0656875000007 315.0985312500018L305 315 L300 315 L295 315 L290 315 L285 315 L280 315 L275 315 M274.83578125000076 315.0985312500038           A5.032843750000003 5.032843750000003 0 0 1 269.80293750000055 310.0656875000041Z" stroke = "black" stroke-width = "4" fill = "none" />	<path d = "M275 315 L275 310 L275 305 L275 300 L275 295 L275 290 L275 285 L275 280 L275 275 L275 270 L275 265 M274.835781249998 264.770093750004           A5.032843750000003 5.032843750000003 0 0 1 279.8686249999977 259.7372500000037L285 260 L290 260 L295 260 L300 260 L305 260 L310 260 L315 260 M315.0985312499976 259.7372500000013           A5.032843750000003 5.032843750000003 0 0 1 320.1313749999979 264.77009375000097L320 270 L320 275 L320 280 L320 285 L320 290 L320 295 L320 300 L320 305 L320 310 L320 315 M320.1313750000013 315.09853125000086           A5.032843750000003 5.032843750000003 0 0 1 315.09853125000166 320.1313750000011L310 320 L305 320 L300 320 L295 320 L290 320 L285 320 L280 320 M279.8686250000017 320.1313750000035           A5.032843750000003 5.032843750000003 0 0 1 274.8357812500014 315.0985312500039Z" stroke = "white" stroke-width = "8" fill = "white" />	<path d = "M275 315 L275 310 L275 305 L275 300 L275 295 L275 290 L275 285 L275 280 L275 275 L275 270 L275 265 M274.8357812499974 264.770093750004           A5.032843750000003 5.032843750000003 0 0 1 279.868624999997 259.73725000000366L285 260 L290 260 L295 260 L300 260 L305 260 L310 260 L315 260 M315.09853124999694 259.73725000000087           A5.032843750000003 5.032843750000003 0 0 1 320.1313749999973 264.77009375000046L320 270 L320 275 L320 280 L320 285 L320 290 L320 295 L320 300 L320 305 L320 310 L320 315 M320.13137500000187 315.09853125000035           A5.032843750000003 5.032843750000003 0 0 1 315.09853125000234 320.13137500000073L310 320 L305 320 L300 320 L295 320 L290 320 L285 320 L280 320 M279.8686250000024 320.1313750000039           A5.032843750000003 5.032843750000003 0 0 1 274.83578125000196 315.0985312500044Z" stroke = "black" stroke-width = "4" fill = "none" />	<path d = "M280 320 L280 315 L280 310 L280 305 L280 300 L280 295 L280 290 L280 285 L280 280 L280 275 L280 270 M279.86862499999734 269.80293750000396           A5.032843750000003 5.032843750000003 0 0 1 284.9014687499968 264.7700937500035L290 265 L295 265 L300 265 L305 265 L310 265 L315 265 L320 265 M320.13137499999675 264.77009374999994           A5.032843750000003 5.032843750000003 0 0 1 325.16421874999725 269.8029374999994L325 275 L325 280 L325 285 L325 290 L325 295 L325 300 L325 305 L325 310 L325 315 L325 320 M325.16421875000293 320.1313749999993           A5.032843750000003 5.032843750000003 0 0 1 320.1313750000035 325.1642187499998L315 325 L310 325 L305 325 L300 325 L295 325 L290 325 L285 325 M284.90146875000363 325.1642187500038           A5.032843750000003 5.032843750000003 0 0 1 279.8686250000031 320.13137500000437Z" stroke = "white" stroke-width = "8" fill = "white" />	<path d = "M280 320 L280 315 L280 310 L280 305 L280 300 L280 295 L280 290 L280 285 L280 280 L280 275 L280 270 M279.8686249999974 269.8029375000045           A5.032843750000003 5.032843750000003 0 0 1 284.9014687499968 264.7700937500039L290 265 L295 265 L300 265 L305 265 L310 265 L315 265 L320 265 M320.13137499999675 264.77009374999955           A5.032843750000003 5.032843750000003 0 0 1 325.1642187499973 269.8029374999989L325 275 L325 280 L325 285 L325 290 L325 295 L325 300 L325 305 L325 310 L325 315 L325 320 M325.16421875000356 320.1313749999988           A5.032843750000003 5.032843750000003 0 0 1 320.1313750000042 325.1642187499994L315 325 L310 325 L305 325 L300 325 L295 325 L290 325 L285 325 M284.90146875000426 325.1642187500042           A5.032843750000003 5.032843750000003 0 0 1 279.86862500000365 320.1313750000049Z" stroke = "black" stroke-width = "4" fill = "none" />	<path d = "M285 325 L285 320 L285 315 L285 310 L285 305 L285 300 L285 295 L285 290 L285 285 L285 280 L285 275 M284.9014687499975 274.83578125000423           A5.032843750000003 5.032843750000003 0 0 1 289.9343124999968 269.80293750000357L295 270 L300 270 L305 270 L310 270 L315 270 L320 270 L325 270 M325.16421874999673 269.8029374999984           A5.032843750000003 5.032843750000003 0 0 1 330.1970624999974 274.83578124999764L330 280 L330 285 L330 290 L330 295 L330 300 L330 305 L330 310 L330 315 L330 320 L330 325 M330.1970625000048 325.16421874999753           A5.032843750000003 5.032843750000003 0 0 1 325.16421875000555 330.19706249999825L320 330 L315 330 L310 330 L305 330 L300 330 L295 330 L290 330 M289.9343125000056 330.1970625000038           A5.032843750000003 5.032843750000003 0 0 1 284.9014687500049 325.16421875000464Z" stroke = "white" stroke-width = "8" fill = "white" />	<path d = "M285 325 L285 320 L285 315 L285 310 L285 305 L285 300 L285 295 L285 290 L285 285 L285 280 L285 275 M284.9014687499969 274.83578125000474           A5.032843750000003 5.032843750000003 0 0 1 289.9343124999961 269.80293750000396L295 270 L300 270 L305 270 L310 270 L315 270 L320 270 L325 270 M325.16421874999605 269.802937499998           A5.032843750000003 5.032843750000003 0 0 1 330.19706249999683 274.8357812499971L330 280 L330 285 L330 290 L330 295 L330 300 L330 305 L330 310 L330 315 L330 320 L330 325 M330.19706250000536 325.164218749997           A5.032843750000003 5.032843750000003 0 0 1 325.1642187500062 330.19706249999786L320 330 L315 330 L310 330 L305 330 L300 330 L295 330 L290 330 M289.9343125000063 330.1970625000042           A5.032843750000003 5.032843750000003 0 0 1 284.90146875000545 325.16421875000515Z" stroke = "black" stroke-width = "4" fill = "none" />	<path d = "M290 330 L290 325 L290 320 L290 315 L290 310 L290 305 L290 300 L290 295 L290 290 L290 285 L290 280 M289.93431249999725 279.8686250000043           A5.032843750000003 5.032843750000003 0 0 1 294.9671562499963 274.8357812500034L300 275 L305 275 L310 275 L315 275 L320 275 L325 275 L330 275 M330.19706249999626 274.8357812499966           A5.032843750000003 5.032843750000003 0 0 1 335.22990624999716 279.86862499999563L335 285 L335 290 L335 295 L335 300 L335 305 L335 310 L335 315 L335 320 L335 325 L335 330 M335.2299062500068 330.1970624999955           A5.032843750000003 5.032843750000003 0 0 1 330.1970625000078 335.2299062499965L325 335 L320 335 L315 335 L310 335 L305 335 L300 335 L295 335 M294.96715625000786 335.22990625000364           A5.032843750000003 5.032843750000003 0 0 1 289.9343125000069 330.1970625000047Z" stroke = "white" stroke-width = "8" fill = "white" />	<path d = "M290 330 L290 325 L290 320 L290 315 L290 310 L290 305 L290 300 L290 295 L290 290 L290 285 L290 280 M289.9343124999967 279.8686250000048           A5.032843750000003 5.032843750000003 0 0 1 294.96715624999564 274.8357812500038L300 275 L305 275 L310 275 L315 275 L320 275 L325 275 L330 275 M330.1970624999956 274.8357812499962           A5.032843750000003 5.032843750000003 0 0 1 335.2299062499966 279.8686249999951L335 285 L335 290 L335 295 L335 300 L335 305 L335 310 L335 315 L335 320 L335 325 L335 330 M335.2299062500074 330.197062499995           A5.032843750000003 5.032843750000003 0 0 1 330.1970625000085 335.2299062499961L325 335 L320 335 L315 335 L310 335 L305 335 L300 335 L295 335 M294.96715625000854 335.22990625000403           A5.032843750000003 5.032843750000003 0 0 1 289.9343125000075 330.1970625000052Z" stroke = "black" stroke-width = "4" fill = "none" /><circle cx="421" cy = "300" r = "4" stroke = "black" stroke-width = "4" fill = "black" />
    <line x1="421" y1="300" x2="461" y2="300" style="stroke:black;stroke-width:4" />
<circle cx="461" cy = "300" r = "4" stroke = "black" stroke-width = "4" fill = "black" />
    <line x1="461" y1="300" x2="441" y2="265" style="stroke:black;stroke-width:4" />
<circle cx="441" cy = "265" r = "4" stroke = "black" stroke-width = "4" fill = "black" />
    <line x1="441" y1="265" x2="421" y2="300" style="stroke:black;stroke-width:4" />
  <path d="M380.52550000000116 299.99999999998516           A40.262750000000025 40.262750000000025 0 0 1 400.6568749999927 265.13143567375806" fill = "none" stroke = "black" stroke-width = "4" />
  <path d="M400.6568750000101 334.86856432620215           A40.262750000000025 40.262750000000025 0 0 1 380.52550000000116 299.99999999998516" fill = "none" stroke = "black" stroke-width = "4" />
  <path d="M440.91962500001034 334.86856432619174           A40.262750000000025 40.262750000000025 0 0 1 400.6568750000101 334.86856432620215" fill = "none" stroke = "black" stroke-width = "4" />
  <path d="M400.6568749999923 265.1314356737581           A40.262750000000025 40.262750000000025 0 0 1 420.7882499999838 230.26287134753102" fill = "none" stroke = "black" stroke-width = "4" />
  <path d="M420.7882499999838 230.26287134753102           A40.262750000000025 40.262750000000025 0 0 1 461.05099999998407 230.26287134752135" fill = "none" stroke = "black" stroke-width = "4" />
  <path d="M461.05099999998407 230.26287134752135           A40.262750000000025 40.262750000000025 0 0 1 481.18237499999236 265.13143567373874" fill = "none" stroke = "black" stroke-width = "4" />
  <path d="M481.18237499999196 265.13143567373874           A40.262750000000025 40.262750000000025 0 0 1 501.31375000000025 299.9999999999561" fill = "none" stroke = "black" stroke-width = "4" />
  <path d="M501.31375000000025 299.9999999999561           A40.262750000000025 40.262750000000025 0 0 1 481.1823750000081 334.8685643261828" fill = "none" stroke = "black" stroke-width = "4" />
  <path d="M481.1823750000081 334.8685643261828           A40.262750000000025 40.262750000000025 0 0 1 440.9196250000079 334.8685643261918" fill = "none" stroke = "black" stroke-width = "4" />
  <path d="M400.6568749999924 265.13143567375664           A40.262750000000025 40.262750000000025 0 0 1 440.9196249999926 265.1314356737478" fill = "none" stroke = "blue" stroke-width = "2" />
  <path d="M461.0510000000002 299.9999999999656           A40.262750000000025 40.262750000000025 0 0 1 440.91962500000733 334.86856432619186" fill = "none" stroke = "blue" stroke-width = "2" />
  <path d="M440.91962499999244 265.1314356737482           A40.262750000000025 40.262750000000025 0 0 1 481.1823749999927 265.1314356737393" fill = "none" stroke = "blue" stroke-width = "2" />
  <path d="M440.91962500000716 334.8685643261915           A40.262750000000025 40.262750000000025 0 0 1 420.7882500000002 299.9999999999734" fill = "none" stroke = "blue" stroke-width = "2" />
  <path d="M481.1823749999937 265.1314356737404           A40.262750000000025 40.262750000000025 0 0 1 461.0509999999996 299.99999999996595" fill = "none" stroke = "blue" stroke-width = "2" />
  <path d="M420.7882499999999 299.99999999997294           A40.262750000000025 40.262750000000025 0 0 1 400.65687499999365 265.13143567375494" fill = "none" stroke = "blue" stroke-width = "2" />
  <path d="M461.0510000000001 299.99999999996567           A40.262750000000025 40.262750000000025 0 0 1 420.7882499999999 299.99999999997294" fill = "none" stroke = "red" stroke-width = "4" />
  <path d="M440.9196249999918 265.13143567374635           A40.262750000000025 40.262750000000025 0 0 1 461.05099999999993 299.9999999999627" fill = "none" stroke = "red" stroke-width = "4" />
  <path d="M420.7882500000014 299.99999999997567           A40.262750000000025 40.262750000000025 0 0 1 440.9196249999895 265.1314356737477" fill = "none" stroke = "red" stroke-width = "4" />
    <line x1="139" y1="421" x2="139" y2="401" style="stroke:black;stroke-width:4" />
    <line x1="139" y1="401" x2="159" y2="401" style="stroke:black;stroke-width:4" />
    <line x1="159" y1="401" x2="179" y2="401" style="stroke:black;stroke-width:4" />
    <line x1="179" y1="401" x2="199" y2="401" style="stroke:black;stroke-width:4" />
    <line x1="219" y1="401" x2="240" y2="401" style="stroke:black;stroke-width:4" />
    <line x1="240" y1="401" x2="240" y2="421" style="stroke:black;stroke-width:4" />
    <line x1="240" y1="421" x2="240" y2="441" style="stroke:black;stroke-width:4" />
    <line x1="240" y1="441" x2="240" y2="461" style="stroke:black;stroke-width:4" />
    <line x1="240" y1="481" x2="240" y2="501" style="stroke:black;stroke-width:4" />
    <line x1="240" y1="501" x2="219" y2="501" style="stroke:black;stroke-width:4" />
    <line x1="219" y1="501" x2="199" y2="501" style="stroke:black;stroke-width:4" />
    <line x1="199" y1="501" x2="179" y2="501" style="stroke:black;stroke-width:4" />
    <line x1="159" y1="501" x2="139" y2="501" style="stroke:black;stroke-width:4" />
    <line x1="139" y1="501" x2="139" y2="481" style="stroke:black;stroke-width:4" />
    <line x1="139" y1="481" x2="139" y2="461" style="stroke:black;stroke-width:4" />
    <line x1="139" y1="461" x2="139" y2="441" style="stroke:black;stroke-width:4" />
    <line x1="132" y1="463" x2="118" y2="449" style="stroke:black;stroke-width:4" />
    <line x1="118" y1="449" x2="132" y2="435" style="stroke:black;stroke-width:4" />
    <line x1="132" y1="435" x2="146" y2="421" style="stroke:black;stroke-width:4" />
    <line x1="146" y1="421" x2="160" y2="407" style="stroke:black;stroke-width:4" />
    <line x1="175" y1="392" x2="189" y2="378" style="stroke:black;stroke-width:4" />
    <line x1="189" y1="378" x2="203" y2="392" style="stroke:black;stroke-width:4" />
    <line x1="203" y1="392" x2="217" y2="407" style="stroke:black;stroke-width:4" />
    <line x1="217" y1="407" x2="231" y2="421" style="stroke:black;stroke-width:4" />
    <line x1="246" y1="435" x2="260" y2="449" style="stroke:black;stroke-width:4" />
    <line x1="260" y1="449" x2="246" y2="463" style="stroke:black;stroke-width:4" />
    <line x1="246" y1="463" x2="231" y2="478" style="stroke:black;stroke-width:4" />
    <line x1="231" y1="478" x2="217" y2="492" style="stroke:black;stroke-width:4" />
    <line x1="203" y1="506" x2="189" y2="520" style="stroke:black;stroke-width:4" />
    <line x1="189" y1="520" x2="175" y2="506" style="stroke:black;stroke-width:4" />
    <line x1="175" y1="506" x2="160" y2="492" style="stroke:black;stroke-width:4" />
    <line x1="160" y1="492" x2="146" y2="478" style="stroke:black;stroke-width:4" />
    <circle cx="461" cy = "461" r = "30.75800403892036" stroke = "black" stroke-width = "4" fill = "none" />
<circle cx="461" cy = "461" r = "4" stroke = "black" stroke-width = "4" fill = "black" />
	<path d = "M461 430 L514 430 L488 476 L461 523 L434 476 L408 430 L461 430 Z" stroke = "black" stroke-width = "4" fill = "none" />    <line x1="461" y1="461" x2="461" y2="400" style="stroke:black;stroke-width:4" />
    <line x1="461" y1="461" x2="514" y2="430" style="stroke:black;stroke-width:4" />
    <line x1="461" y1="461" x2="514" y2="492" style="stroke:black;stroke-width:4" />
    <line x1="461" y1="461" x2="461" y2="523" style="stroke:black;stroke-width:4" />
    <line x1="461" y1="461" x2="408" y2="492" style="stroke:black;stroke-width:4" />
    <line x1="461" y1="461" x2="408" y2="430" style="stroke:black;stroke-width:4" />
	<path d = "M461 400 L514 492 L408 492 L461 400 Z" stroke = "black" stroke-width = "4" fill = "none" />	<path d = "M461 400 L514 430 L514 492 L461 523 L408 492 L408 430 L461 400 Z" stroke = "black" stroke-width = "4" fill = "none" />    <circle cx="461" cy = "461" r = "61.51600807784072" stroke = "black" stroke-width = "4" fill = "none" />
</svg>