<svg width="600" height="600" viewbox = "0 0 600 600"  xmlns="http://www.w3.org/2000/svg">

<!--
<json>
{
    "imgurl": "",
    "imgw": 2,
    "imgleft": -1,
    "imgtop": -1,
    "imgangle": 0,
    "svgwidth": 600,
    "svgheight": 600,
    "unit": 100,
    "x0": 735.065740045079,
    "y0": 431.0395151082747,
    "x0rel": -17.434259954921004,
    "y0rel": -7.960484891725287,
    "glyph": "0331,0331,0332,0336,0226,0226,0226,0332,0343,0335,0335,0333,0201,0201,0201,0201,0201,0201,0332,0343,0332,0332,0332,0343,0335,0335,0333,0201,0201,0201,0201,0201,0201,0332,0343,0333,0333,0333,0333,",
    "table": []
}
</json>
-->
<path    d = "M212,446 C221,455 233,467 233,492" fill = "none" stroke-width = "4" stroke = "black" /><path    d = "M203,438 C194,429 183,417 183,392" fill = "none" stroke-width = "4" stroke = "black" /><path    d = "M183,492 C183,442 233,442 233,392" fill = "none" stroke-width = "4" stroke = "black" /><path    d = "M212,346 C221,355 233,367 233,392" fill = "none" stroke-width = "4" stroke = "black" /><path    d = "M203,338 C194,329 183,317 183,292" fill = "none" stroke-width = "4" stroke = "black" /><path    d = "M183,392 C183,342 233,342 233,292" fill = "none" stroke-width = "4" stroke = "black" /><path    d = "M212,246 C221,255 233,267 233,292" fill = "none" stroke-width = "4" stroke = "black" /><path    d = "M203,238 C194,229 183,217 183,192" fill = "none" stroke-width = "4" stroke = "black" /><path    d = "M183,292 C183,242 233,242 233,192" fill = "none" stroke-width = "4" stroke = "black" />  <path d="M82.56574004507951 192.03951510827284           A50 50 0 0 1 182.5657400450795 192.03951510827466" fill = "none" stroke = "black" stroke-width = "4" />
    <line x1="83" y1="192" x2="83" y2="242" style="stroke:black;stroke-width:4" />
    <line x1="83" y1="242" x2="83" y2="292" style="stroke:black;stroke-width:4" />
    <line x1="83" y1="292" x2="83" y2="342" style="stroke:black;stroke-width:4" />
    <line x1="83" y1="342" x2="83" y2="392" style="stroke:black;stroke-width:4" />
    <line x1="83" y1="392" x2="83" y2="442" style="stroke:black;stroke-width:4" />
    <line x1="83" y1="442" x2="83" y2="492" style="stroke:black;stroke-width:4" />
  <path d="M182.56574004507303 492.03951510827443           A50 50 0 0 1 82.56574004507303 492.0395151082723" fill = "none" stroke = "black" stroke-width = "4" />
  <path d="M332.565740045073 492.0395151082773           A50 50 0 0 1 232.56574004507303 492.0395151082752" fill = "none" stroke = "black" stroke-width = "4" />
    <line x1="333" y1="492" x2="333" y2="442" style="stroke:black;stroke-width:4" />
    <line x1="333" y1="442" x2="333" y2="392" style="stroke:black;stroke-width:4" />
    <line x1="333" y1="392" x2="333" y2="342" style="stroke:black;stroke-width:4" />
    <line x1="333" y1="342" x2="333" y2="292" style="stroke:black;stroke-width:4" />
    <line x1="333" y1="292" x2="333" y2="242" style="stroke:black;stroke-width:4" />
    <line x1="333" y1="242" x2="333" y2="192" style="stroke:black;stroke-width:4" />
  <path d="M232.56574004508053 192.03951510827534           A50 50 0 0 1 332.56574004508053 192.03951510827784" fill = "none" stroke = "black" stroke-width = "4" />
</svg>