<svg width="600" height="600" viewbox = "0 0 600 600"  xmlns="http://www.w3.org/2000/svg">

<!--
<json>
{
    "imgurl": "",
    "imgw": 2,
    "imgleft": -1,
    "imgtop": -1,
    "imgangle": 0,
    "svgwidth": 600,
    "svgheight": 600,
    "unit": 100,
    "x0": 666.565740045079,
    "y0": 391.0395151082747,
    "x0rel": -17.434259954921004,
    "y0rel": -7.960484891725287,
    "glyph": "0331,0331,0332,0332,0336,0227,0227,0227,0227,0335,0335,0332,0332,0332,0332,0332,0226,0226,0226,0226,0335,0335,0333,0333,0226,0226,0226,0226,",
    "table": []
}
</json>
-->
<path    d = "M133,492 C133,442 83,442 83,392" fill = "none" stroke-width = "8" stroke = "black" /><path    d = "M83,492 C83,467 94,455 103,446" fill = "none" stroke-width = "8" stroke = "black" /><path    d = "M112,438 C121,429 133,417 133,392" fill = "none" stroke-width = "8" stroke = "black" /><path    d = "M133,392 C133,342 83,342 83,292" fill = "none" stroke-width = "8" stroke = "black" /><path    d = "M83,392 C83,367 94,355 103,346" fill = "none" stroke-width = "8" stroke = "black" /><path    d = "M112,338 C121,329 133,317 133,292" fill = "none" stroke-width = "8" stroke = "black" /><path    d = "M133,292 C133,242 83,242 83,192" fill = "none" stroke-width = "8" stroke = "black" /><path    d = "M83,292 C83,267 94,255 103,246" fill = "none" stroke-width = "8" stroke = "black" /><path    d = "M112,238 C121,229 133,217 133,192" fill = "none" stroke-width = "8" stroke = "black" /><path    d = "M133,192 C133,142 83,142 83,92" fill = "none" stroke-width = "8" stroke = "black" /><path    d = "M83,192 C83,167 94,155 103,146" fill = "none" stroke-width = "8" stroke = "black" /><path    d = "M112,138 C121,129 133,117 133,92" fill = "none" stroke-width = "8" stroke = "black" /><path    d = "M303,138 C294,129 283,117 283,92" fill = "none" stroke-width = "8" stroke = "black" /><path    d = "M312,146 C321,155 333,167 333,192" fill = "none" stroke-width = "8" stroke = "black" /><path    d = "M333,92 C333,142 283,142 283,192" fill = "none" stroke-width = "8" stroke = "black" /><path    d = "M303,238 C294,229 283,217 283,192" fill = "none" stroke-width = "8" stroke = "black" /><path    d = "M312,246 C321,255 333,267 333,292" fill = "none" stroke-width = "8" stroke = "black" /><path    d = "M333,192 C333,242 283,242 283,292" fill = "none" stroke-width = "8" stroke = "black" /><path    d = "M303,338 C294,329 283,317 283,292" fill = "none" stroke-width = "8" stroke = "black" /><path    d = "M312,346 C321,355 333,367 333,392" fill = "none" stroke-width = "8" stroke = "black" /><path    d = "M333,292 C333,342 283,342 283,392" fill = "none" stroke-width = "8" stroke = "black" /><path    d = "M303,438 C294,429 283,417 283,392" fill = "none" stroke-width = "8" stroke = "black" /><path    d = "M312,446 C321,455 333,467 333,492" fill = "none" stroke-width = "8" stroke = "black" /><path    d = "M333,392 C333,442 283,442 283,492" fill = "none" stroke-width = "8" stroke = "black" /><path    d = "M462,446 C471,455 483,467 483,492" fill = "none" stroke-width = "8" stroke = "black" /><path    d = "M453,438 C444,429 433,417 433,392" fill = "none" stroke-width = "8" stroke = "black" /><path    d = "M433,492 C433,442 483,442 483,392" fill = "none" stroke-width = "8" stroke = "black" /><path    d = "M462,346 C471,355 483,367 483,392" fill = "none" stroke-width = "8" stroke = "black" /><path    d = "M453,338 C444,329 433,317 433,292" fill = "none" stroke-width = "8" stroke = "black" /><path    d = "M433,392 C433,342 483,342 483,292" fill = "none" stroke-width = "8" stroke = "black" /><path    d = "M462,246 C471,255 483,267 483,292" fill = "none" stroke-width = "8" stroke = "black" /><path    d = "M453,238 C444,229 433,217 433,192" fill = "none" stroke-width = "8" stroke = "black" /><path    d = "M433,292 C433,242 483,242 483,192" fill = "none" stroke-width = "8" stroke = "black" /><path    d = "M462,146 C471,155 483,167 483,192" fill = "none" stroke-width = "8" stroke = "black" /><path    d = "M453,138 C444,129 433,117 433,92" fill = "none" stroke-width = "8" stroke = "black" /><path    d = "M433,192 C433,142 483,142 483,92" fill = "none" stroke-width = "8" stroke = "black" /></svg>