<svg width="600" height="600" viewbox = "0 0 600 600"  xmlns="http://www.w3.org/2000/svg">

<!--
<json>
{
    "imgurl": "",
    "imgw": 2,
    "imgleft": -1,
    "imgtop": -1,
    "imgangle": 0,
    "svgwidth": 600,
    "svgheight": 600,
    "unit": 100,
    "x0": 752.5,
    "y0": 439,
    "x0rel": 0,
    "y0rel": 0,
    "glyph": "0331,0337,0233,0336,0330,0336,0335,0335,0331,0231,0335,0335,0333,0333,0330,0333,0333,0333,",
    "table": []
}
</json>
-->
  <path d="M299.99999999999994 200           A200 200 0 0 1 399.9999999999999 226.79491924311222" fill = "none" stroke = "black" stroke-width = "7" />
  <path d="M248.2361909794958 206.81483474218635           A200 200 0 0 1 299.99999999999994 200" fill = "none" stroke = "black" stroke-width = "7" />
  <path d="M223.46331352698198 215.22409349774267           A200 200 0 0 1 248.23619097949575 206.81483474218635" fill = "none" stroke = "black" stroke-width = "7" />
  <path d="M158.57864376269052 258.5786437626905           A200 200 0 0 1 178.24771419825586 241.32933194175297" fill = "none" stroke = "black" stroke-width = "7" />
  <path d="M141.329331941753 278.24771419825584           A200 200 0 0 1 158.57864376269052 258.5786437626905" fill = "none" stroke = "black" stroke-width = "7" />
  <path d="M126.7949192431123 299.99999999999994           A200 200 0 0 1 141.329331941753 278.24771419825584" fill = "none" stroke = "black" stroke-width = "7" />
  <path d="M115.2240934977427 323.46331352698195           A200 200 0 0 1 126.7949192431123 299.99999999999994" fill = "none" stroke = "black" stroke-width = "7" />
  <path d="M106.81483474218638 348.2361909794957           A200 200 0 0 1 115.2240934977427 323.46331352698195" fill = "none" stroke = "black" stroke-width = "7" />
  <path d="M101.71102772523795 373.89476155598953           A200 200 0 0 1 106.81483474218638 348.2361909794957" fill = "none" stroke = "black" stroke-width = "7" />
  <path d="M100 399.9999999999998           A200 200 0 0 1 101.71102772523795 373.89476155598953" fill = "none" stroke = "black" stroke-width = "7" />
  <path d="M400.0000000000001 226.79491924311233           A200 200 0 0 1 500 400.0000000000001" fill = "none" stroke = "black" stroke-width = "7" />
  <path d="M226.79491924311236 326.7949192431123           A200 200 0 0 1 200.0000000000001 226.79491924311228" fill = "none" stroke = "black" stroke-width = "7" />
  <path d="M258.5786437626906 368.2162754804218           A200 200 0 0 1 226.79491924311242 326.7949192431124" fill = "none" stroke = "black" stroke-width = "7" />
  <path d="M278.24771419825595 385.4655873013594           A200 200 0 0 1 258.5786437626906 368.2162754804218" fill = "none" stroke = "black" stroke-width = "7" />
  <path d="M348.23619097949586 419.98008450092595           A200 200 0 0 1 323.4633135269821 411.5708257453697" fill = "none" stroke = "black" stroke-width = "7" />
  <path d="M373.89476155598965 425.08389151787435           A200 200 0 0 1 348.23619097949586 419.98008450092595" fill = "none" stroke = "black" stroke-width = "7" />
  <path d="M399.99999999999994 426.7949192431123           A200 200 0 0 1 373.89476155598965 425.08389151787435" fill = "none" stroke = "black" stroke-width = "7" />
  <path d="M426.10523844401024 425.08389151787446           A200 200 0 0 1 399.99999999999994 426.7949192431123" fill = "none" stroke = "black" stroke-width = "7" />
  <path d="M451.763809020504 419.98008450092607           A200 200 0 0 1 426.10523844401024 425.08389151787446" fill = "none" stroke = "black" stroke-width = "7" />
  <path d="M476.5366864730178 411.5708257453698           A200 200 0 0 1 451.763809020504 419.98008450092607" fill = "none" stroke = "black" stroke-width = "7" />
  <path d="M499.9999999999999 400.0000000000002           A200 200 0 0 1 476.5366864730178 411.5708257453698" fill = "none" stroke = "black" stroke-width = "7" />
  <path d="M200.0000000000001 226.7949192431122           A200 200 0 0 1 300.00000000000017 53.58983848622458" fill = "none" stroke = "black" stroke-width = "7" />
  <path d="M373.2050807568877 326.7949192431124           A200 200 0 0 1 299.9999999999999 400.00000000000006" fill = "none" stroke = "black" stroke-width = "7" />
  <path d="M393.18516525781365 278.5587282636166           A200 200 0 0 1 373.2050807568877 326.7949192431124" fill = "none" stroke = "black" stroke-width = "7" />
  <path d="M398.28897227476216 252.9001576871228           A200 200 0 0 1 393.18516525781365 278.5587282636166" fill = "none" stroke = "black" stroke-width = "7" />
  <path d="M393.1851652578139 175.03111022260833           A200 200 0 0 1 398.2889722747623 200.68968079910218" fill = "none" stroke = "black" stroke-width = "7" />
  <path d="M384.7759065022576 150.25823277009454           A200 200 0 0 1 393.1851652578139 175.03111022260833" fill = "none" stroke = "black" stroke-width = "7" />
  <path d="M373.20508075688804 126.79491924311247           A200 200 0 0 1 384.7759065022576 150.25823277009454" fill = "none" stroke = "black" stroke-width = "7" />
  <path d="M358.6706680582473 105.04263344136831           A200 200 0 0 1 373.20508075688804 126.79491924311247" fill = "none" stroke = "black" stroke-width = "7" />
  <path d="M341.42135623730985 85.37356300580291           A200 200 0 0 1 358.6706680582473 105.04263344136831" fill = "none" stroke = "black" stroke-width = "7" />
  <path d="M321.75228580174445 68.12425118486533           A200 200 0 0 1 341.42135623730985 85.37356300580291" fill = "none" stroke = "black" stroke-width = "7" />
  <path d="M300.00000000000034 53.58983848622461           A200 200 0 0 1 321.75228580174445 68.12425118486533" fill = "none" stroke = "black" stroke-width = "7" />
  <path d="M299.9999999999999 400.00000000000006           A200 200 0 0 1 99.99999999999991 399.9999999999998" fill = "none" stroke = "black" stroke-width = "7" />
<circle cx="500" cy = "400" r = "7" stroke = "black" stroke-width = "7" fill = "black" />
<circle cx="300" cy = "54" r = "7" stroke = "black" stroke-width = "7" fill = "black" />
<circle cx="100" cy = "400" r = "7" stroke = "black" stroke-width = "7" fill = "black" />
  <path d="M350.00000000000006 250.00000000000009           A50 50 0 0 1 343.30127018922195 275.00000000000006" fill = "none" stroke = "black" stroke-width = "7" />
  <path d="M343.30127018922195 275.00000000000006           A50 50 0 0 1 325.00000000000006 293.30127018922195" fill = "none" stroke = "black" stroke-width = "7" />
  <path d="M325.00000000000006 293.30127018922195           A50 50 0 0 1 300.00000000000006 300" fill = "none" stroke = "black" stroke-width = "7" />
  <path d="M287.059047744874 298.2962913144534           A50 50 0 0 1 280.8658283817456 296.19397662556435" fill = "none" stroke = "black" stroke-width = "7" />
  <path d="M300.00000000000006 300           A50 50 0 0 1 287.059047744874 298.2962913144534" fill = "none" stroke = "black" stroke-width = "7" />
  <path d="M269.56192854956396 289.6676670145617           A50 50 0 0 1 260.3323329854382 280.4380714504359" fill = "none" stroke = "black" stroke-width = "7" />
  <path d="M260.3323329854382 280.4380714504359           A50 50 0 0 1 253.80602337443563 269.1341716182543" fill = "none" stroke = "black" stroke-width = "7" />
  <path d="M253.80602337443563 269.1341716182543           A50 50 0 0 1 250.4277569313095 256.52630961100226" fill = "none" stroke = "black" stroke-width = "7" />
  <path d="M250.4277569313095 256.52630961100226           A50 50 0 0 1 250.00000000000006 249.99999999999966" fill = "none" stroke = "black" stroke-width = "7" />
  <path d="M299.99999999999943 336.60254037844385           A50 50 0 0 1 281.69872981077765 318.3012701892218" fill = "none" stroke = "black" stroke-width = "7" />
  <path d="M281.69872981077765 318.3012701892218           A50 50 0 0 1 274.9999999999998 293.3012701892218" fill = "none" stroke = "black" stroke-width = "7" />
  <path d="M274.9999999999998 293.3012701892218           A50 50 0 0 1 281.698729810778 268.30127018922184" fill = "none" stroke = "black" stroke-width = "7" />
  <path d="M289.6446609406726 257.9459311298945           A50 50 0 0 1 294.561928549564 253.63360317466015" fill = "none" stroke = "black" stroke-width = "7" />
  <path d="M281.69872981077793 268.30127018922195           A50 50 0 0 1 289.6446609406726 257.9459311298945" fill = "none" stroke = "black" stroke-width = "7" />
  <path d="M305.86582838174564 247.10729356365763           A50 50 0 0 1 318.4736903889977 243.72902712053155" fill = "none" stroke = "black" stroke-width = "7" />
  <path d="M318.4736903889977 243.72902712053155           A50 50 0 0 1 331.5263096110029 243.72902712053167" fill = "none" stroke = "black" stroke-width = "7" />
  <path d="M331.5263096110029 243.72902712053167           A50 50 0 0 1 344.1341716182548 247.10729356365803" fill = "none" stroke = "black" stroke-width = "7" />
  <path d="M344.1341716182548 247.10729356365803           A50 50 0 0 1 350.00000000000034 250.0000000000005" fill = "none" stroke = "black" stroke-width = "7" />
  <path d="M250.0000000000004 249.9999999999992           A50 50 0 0 1 275.00000000000045 243.3012701892215" fill = "none" stroke = "black" stroke-width = "7" />
  <path d="M275.00000000000045 243.3012701892215           A50 50 0 0 1 300.00000000000034 249.9999999999999" fill = "none" stroke = "black" stroke-width = "7" />
  <path d="M300.00000000000034 249.9999999999999           A50 50 0 0 1 318.301270189222 268.30127018922207" fill = "none" stroke = "black" stroke-width = "7" />
  <path d="M323.29629131445336 280.36031793409603           A50 50 0 0 1 324.5722430686904 286.7749605782196" fill = "none" stroke = "black" stroke-width = "7" />
  <path d="M318.30127018922195 268.30127018922195           A50 50 0 0 1 323.29629131445336 280.36031793409603" fill = "none" stroke = "black" stroke-width = "7" />
  <path d="M324.5722430686902 299.8275798002248           A50 50 0 0 1 321.1939766255638 312.4354418074767" fill = "none" stroke = "black" stroke-width = "7" />
  <path d="M321.1939766255638 312.4354418074767           A50 50 0 0 1 314.667667014561 323.7393416396582" fill = "none" stroke = "black" stroke-width = "7" />
  <path d="M314.667667014561 323.7393416396582           A50 50 0 0 1 305.4380714504351 332.9689372037838" fill = "none" stroke = "black" stroke-width = "7" />
  <path d="M305.4380714504351 332.9689372037838           A50 50 0 0 1 299.9999999999989 336.6025403784439" fill = "none" stroke = "black" stroke-width = "7" />
<circle cx="300" cy = "337" r = "7" stroke = "black" stroke-width = "7" fill = "black" />
<circle cx="250" cy = "250" r = "7" stroke = "black" stroke-width = "7" fill = "black" />
<circle cx="350" cy = "250" r = "7" stroke = "black" stroke-width = "7" fill = "black" />
</svg>