<svg width="600" height="600" viewbox = "0 0 600 600"  xmlns="http://www.w3.org/2000/svg">

<!--
<json>
{
    "imgurl": "",
    "imgw": 2,
    "imgleft": -1,
    "imgtop": -1,
    "imgangle": 0,
    "svgwidth": 600,
    "svgheight": 600,
    "unit": 100,
    "x0": 666.565740045079,
    "y0": 391.0395151082747,
    "x0rel": -17.434259954921004,
    "y0rel": -7.960484891725287,
    "glyph": "0336,0331,0331,0226,0226,0336,0333,0343,0335,0335,0330,0330,0330,0330,0330,0330,0330,0330,0343,0335,0335,0333,0333,0333,0333,",
    "table": []
}
</json>
-->
<path    d = "M312,346 C321,355 333,367 333,392" fill = "none" stroke-width = "4" stroke = "black" /><path    d = "M303,338 C294,329 283,317 283,292" fill = "none" stroke-width = "4" stroke = "black" /><path    d = "M283,392 C283,342 333,342 333,292" fill = "none" stroke-width = "4" stroke = "black" /><path    d = "M312,246 C321,255 333,267 333,292" fill = "none" stroke-width = "4" stroke = "black" /><path    d = "M303,238 C294,229 283,217 283,192" fill = "none" stroke-width = "4" stroke = "black" /><path    d = "M283,292 C283,242 333,242 333,192" fill = "none" stroke-width = "4" stroke = "black" />  <path d="M282.5657400450792 192.03951510827463           A25 25 0 0 1 332.5657400450792 192.03951510827483" fill = "none" stroke = "black" stroke-width = "4" />
  <path d="M332.56574004507786 392.0395151082749           A25 25 0 0 1 282.56574004507786 392.0395151082745" fill = "none" stroke = "black" stroke-width = "4" />
</svg>