<svg width="600" height="600" viewbox = "0 0 600 600"  xmlns="http://www.w3.org/2000/svg">

<!--
<json>
{
    "imgurl": "",
    "imgw": 2,
    "imgleft": -1,
    "imgtop": -1,
    "imgangle": 0,
    "svgwidth": 600,
    "svgheight": 600,
    "unit": 75.13148009015778,
    "x0": 684,
    "y0": 425.91386832123067,
    "x0rel": 0,
    "y0rel": 26.913868321230666,
    "glyph": "0336,0331,0333,0332,0332,0332,0310,0337,0313,0330,0332,0332,0330,0332,0220,0221,0222,0223,0231,0232,0233,0236,",
    "table": []
}
</json>
-->
    <line x1="65" y1="258" x2="79" y2="258" style="stroke:black;stroke-width:2" />
	<path d = "M105 272 L105 245 L79 245 L79 272 L105 272 " stroke = "black" stroke-width = "2" fill = "none" />    <text x="85" y = "265" fill = "black" font-size = "13.281494763083163px" font-family = "arial">X</text>
    <line x1="105" y1="258" x2="119" y2="258" style="stroke:black;stroke-width:2" />
    <line x1="119" y1="258" x2="132" y2="258" style="stroke:black;stroke-width:2" />
	<path d = "M158 272 L158 245 L132 245 L132 272 L158 272 " stroke = "black" stroke-width = "2" fill = "none" />    <text x="139" y = "265" fill = "black" font-size = "13.281494763083163px" font-family = "arial">Y</text>
    <line x1="158" y1="258" x2="172" y2="258" style="stroke:black;stroke-width:2" />
    <line x1="172" y1="258" x2="185" y2="258" style="stroke:black;stroke-width:2" />
	<path d = "M212 272 L212 245 L185 245 L185 272 L212 272 " stroke = "black" stroke-width = "2" fill = "none" />    <text x="192" y = "265" fill = "black" font-size = "13.281494763083163px" font-family = "arial">Z</text>
    <line x1="212" y1="258" x2="225" y2="258" style="stroke:black;stroke-width:2" />
    <line x1="225" y1="258" x2="238" y2="258" style="stroke:black;stroke-width:2" />
	<path d = "M265 272 L265 245 L238 245 L238 272 L265 272 " stroke = "black" stroke-width = "2" fill = "none" />    <text x="245" y = "265" fill = "black" font-size = "13.281494763083163px" font-family = "arial">H</text>
    <line x1="265" y1="258" x2="278" y2="258" style="stroke:black;stroke-width:2" />
    <line x1="278" y1="258" x2="331" y2="258" style="stroke:black;stroke-width:2" />
    <line x1="278" y1="311" x2="331" y2="311" style="stroke:black;stroke-width:2" />
    <line x1="305" y1="311" x2="305" y2="258" style="stroke:black;stroke-width:2" />
    <line x1="305" y1="311" x2="314" y2="302" style="stroke:black;stroke-width:2" />
    <line x1="305" y1="311" x2="314" y2="321" style="stroke:black;stroke-width:2" />
    <line x1="305" y1="311" x2="295" y2="321" style="stroke:black;stroke-width:2" />
    <line x1="305" y1="311" x2="295" y2="302" style="stroke:black;stroke-width:2" />
    <line x1="305" y1="258" x2="314" y2="249" style="stroke:black;stroke-width:2" />
    <line x1="305" y1="258" x2="314" y2="268" style="stroke:black;stroke-width:2" />
    <line x1="305" y1="258" x2="295" y2="268" style="stroke:black;stroke-width:2" />
    <line x1="305" y1="258" x2="295" y2="249" style="stroke:black;stroke-width:2" />
    <line x1="331" y1="258" x2="384" y2="258" style="stroke:black;stroke-width:2" />
    <circle cx="358" cy = "258" r = "6.640747381541582" stroke = "black" stroke-width = "2" fill = "black" />
    <line x1="331" y1="311" x2="344" y2="311" style="stroke:black;stroke-width:2" />
	<path d = "M371 325 L371 298 L344 298 L344 325 L371 325 " stroke = "black" stroke-width = "2" fill = "none" />    <text x="351" y = "318" fill = "black" font-size = "13.281494763083163px" font-family = "arial">Z</text>
    <line x1="371" y1="311" x2="384" y2="311" style="stroke:black;stroke-width:2" />
    <line x1="358" y1="298" x2="358" y2="285" style="stroke:black;stroke-width:2" />
    <line x1="358" y1="285" x2="358" y2="272" style="stroke:black;stroke-width:2" />
    <line x1="358" y1="272" x2="358" y2="258" style="stroke:black;stroke-width:2" />
    <line x1="384" y1="258" x2="437" y2="258" style="stroke:black;stroke-width:2" />
    <circle cx="411" cy = "258" r = "6.640747381541582" stroke = "black" stroke-width = "2" fill = "black" />
    <line x1="384" y1="311" x2="398" y2="311" style="stroke:black;stroke-width:2" />
	<path d = "M424 325 L424 298 L398 298 L398 325 L424 325 " stroke = "black" stroke-width = "2" fill = "none" />    <text x="404" y = "318" fill = "black" font-size = "13.281494763083163px" font-family = "arial">S</text>
    <line x1="424" y1="311" x2="437" y2="311" style="stroke:black;stroke-width:2" />
    <line x1="411" y1="298" x2="411" y2="285" style="stroke:black;stroke-width:2" />
    <line x1="411" y1="285" x2="411" y2="272" style="stroke:black;stroke-width:2" />
    <line x1="411" y1="272" x2="411" y2="258" style="stroke:black;stroke-width:2" />
    <line x1="437" y1="258" x2="490" y2="258" style="stroke:black;stroke-width:2" />
    <line x1="490" y1="285" x2="490" y2="232" style="stroke:black;stroke-width:2" />
    <line x1="490" y1="232" x2="544" y2="232" style="stroke:black;stroke-width:2" />
    <line x1="544" y1="232" x2="570" y2="232" style="stroke:black;stroke-width:2" />
    <line x1="570" y1="232" x2="570" y2="258" style="stroke:black;stroke-width:2" />
    <line x1="570" y1="258" x2="570" y2="285" style="stroke:black;stroke-width:2" />
    <line x1="570" y1="285" x2="544" y2="285" style="stroke:black;stroke-width:2" />
    <line x1="544" y1="285" x2="517" y2="285" style="stroke:black;stroke-width:2" />
    <line x1="517" y1="285" x2="490" y2="285" style="stroke:black;stroke-width:2" />
  <path d="M495.1955731403591 264.4983214754353           A40.58463662475229 40.58463662475229 0 0 1 565.4902257811507 264.4983214754357" fill = "none" stroke = "black" stroke-width = "2" />
    <line x1="530" y1="285" x2="557" y2="239" style="stroke:black;stroke-width:2" />
    <line x1="557" y1="239" x2="551" y2="242" style="stroke:black;stroke-width:2" />
    <line x1="557" y1="239" x2="557" y2="245" style="stroke:black;stroke-width:2" />
</svg>