<svg width="600" height="600" viewbox = "0 0 600 600"  xmlns="http://www.w3.org/2000/svg">

<!--
<json>
{
    "imgurl": "",
    "imgw": 2,
    "imgleft": -1,
    "imgtop": -1,
    "imgangle": 0,
    "svgwidth": 600,
    "svgheight": 600,
    "unit": 75.13148009015778,
    "x0": 684,
    "y0": 425.91386832123067,
    "x0rel": 0,
    "y0rel": 26.913868321230666,
    "glyph": "0330,0332,0321,0230,0236,",
    "table": []
}
</json>
-->
    <line x1="225" y1="252" x2="300" y2="252" style="stroke:black;stroke-width:5" />
    <line x1="225" y1="327" x2="300" y2="327" style="stroke:black;stroke-width:5" />
    <circle cx="262" cy = "327" r = "9.391435011269722" stroke = "black" stroke-width = "5" fill = "none" />
    <line x1="262" y1="327" x2="262" y2="336" style="stroke:black;stroke-width:5" />
    <line x1="262" y1="327" x2="262" y2="252" style="stroke:black;stroke-width:5" />
    <circle cx="262" cy = "252" r = "9.391435011269722" stroke = "black" stroke-width = "5" fill = "black" />
    <line x1="300" y1="252" x2="375" y2="252" style="stroke:black;stroke-width:5" />
	<path d = "M375 289 L375 214 L450 214 L488 214 L488 252 L488 289 L450 289 L413 289 L375 289 " stroke = "black" stroke-width = "5" fill = "none" />  <path d="M381.77426459431945 260.6504565067976           A57.395343538708524 57.395343538708524 0 0 1 481.18591572123273 260.6504565067975" fill = "none" stroke = "black" stroke-width = "5" />
    <line x1="431" y1="289" x2="469" y2="224" style="stroke:black;stroke-width:5" />
    <line x1="469" y1="224" x2="461" y2="229" style="stroke:black;stroke-width:5" />
    <line x1="469" y1="224" x2="469" y2="234" style="stroke:black;stroke-width:5" />
	<path d = "M469 234 L469 224 L461 229 " stroke = "black" stroke-width = "5" fill = "none" /></svg>