<svg width="350" height="350" viewbox = "0 0 350 350"  xmlns="http://www.w3.org/2000/svg">

<!--
<json>
{
    "imgurl": "",
    "imgw": 2,
    "imgleft": -1,
    "imgtop": -1,
    "imgangle": 0,
    "svgwidth": 350,
    "svgheight": 350,
    "unit": 110.00000000000003,
    "x0": 610.7950000000001,
    "y0": 488.4045946091137,
    "x0rel": -73.20499999999993,
    "y0rel": 89.4045946091137,
    "glyph": "0336,0321,01244,0336,0336,0333,0337,0337,01110,01245,0330,0330,0332,0332,0330,0332,0332,0337,0337,0223,",
    "table": []
}
</json>
-->
	<path d = "M157 264 L157 209 L102 209 L102 264 L157 264 Z" stroke = "black" stroke-width = "4" fill = "none" />    <line x1="102" y1="237" x2="116" y2="237" style="stroke:black;stroke-width:4" />
	<path d = "M143 251 L143 223 L116 223 L116 251 L143 251 Z" stroke = "black" stroke-width = "4" fill = "none" />    <line x1="122" y1="244" x2="136" y2="244" style="stroke:black;stroke-width:4" />
    <line x1="198" y1="264" x2="198" y2="209" style="stroke:black;stroke-width:4" />
    <line x1="171" y1="264" x2="171" y2="209" style="stroke:black;stroke-width:4" />
    <line x1="171" y1="237" x2="198" y2="237" style="stroke:black;stroke-width:4" />
	<path d = "M267 264 L267 209 L212 209 L212 264 L267 264 Z" stroke = "black" stroke-width = "4" fill = "none" />    <line x1="212" y1="237" x2="226" y2="237" style="stroke:black;stroke-width:4" />
	<path d = "M253 251 L253 223 L226 223 L226 251 L253 251 Z" stroke = "black" stroke-width = "4" fill = "none" />    <text x="232" y = "244" fill = "black" font-size = "13.750000000000004px" font-family = "arial">A</text>
    <line x1="253" y1="237" x2="267" y2="237" style="stroke:black;stroke-width:4" />
    <line x1="47" y1="99" x2="102" y2="99" style="stroke:black;stroke-width:4" />
	<path d = "M212 154 L212 44 L102 44 L102 154 L212 154 Z" stroke = "black" stroke-width = "4" fill = "none" />    <text x="129" y = "127" fill = "black" font-size = "55.000000000000014px" font-family = "arial">H</text>
    <line x1="212" y1="99" x2="267" y2="99" style="stroke:black;stroke-width:4" />
</svg>