<svg width="400" height="400" viewbox = "0 0 400 400"  xmlns="http://www.w3.org/2000/svg">

<!--
<topfunctions>



function YofX(){
    X = plotparams.g*(x - plotparams.x0) - funcparams.X0;
    Y = 1/Math.tanh(X);
    y = plotparams.y0 - plotparams.G*(Y - funcparams.Y0);
}


function YofX2(){
    X = plotparams.g*(x - plotparams.x0) - funcparams.X0;
    Y = funcparams.b*X*X + funcparams.c*X + funcparams.d;
    y = plotparams.y0 - plotparams.G*(Y - funcparams.Y0);
 }

function XYofT(){
    T = plotparams.g*t;
    X = Math.exp(-T/funcparams.tau)*Math.cos(2*Math.PI*T/funcparams.T);
    Y = Math.exp(-T/funcparams.tau)*Math.sin(2*Math.PI*T/funcparams.T);
    y = plotparams.y0 - plotparams.G*(Y - funcparams.Y0);
    x = plotparams.x0 - plotparams.G*(X - funcparams.X0);    
}


function plotfunction(){
/*

    currentStroke = "blue";
    currentLineWidth = 4;
    ctx.strokeStyle = currentStroke;
    ctx.lineWidth = currentLineWidth;
    ctx.beginPath();	
    x = 0;
    y = 0;
    t= 0;
    XYofT();
    currentSVG += "	<path d = \"M";
    currentSVG += Math.round(x).toString() + " ";
    currentSVG += Math.round(y).toString() + " ";
    for(t = 1;t < plotparams.duration;t++){
        ctx.moveTo(x,y);
        XYofT();
        ctx.lineTo(x,y);
        currentSVG += "L" + x + " " + y + " ";
    }
    ctx.stroke();
    currentSVG += "\""+ " stroke = \"" + currentStroke + "\" stroke-width = \"" + currentLineWidth.toString() + "\" fill = \"" + "none" + "\" "+"/>";


    /*plot one function:*/
    currentStroke = "blue";
    currentLineWidth = 4;
    ctx.strokeStyle = currentStroke;
    ctx.lineWidth = currentLineWidth;
    ctx.beginPath();	
    x = 0;
    YofX();
    currentSVG += "	<path d = \"M";
    currentSVG += Math.round(x).toString() + " ";
    currentSVG += Math.round(y).toString() + " ";
    for(x = 1;x < plotparams.plotwidth;x++){
        ctx.moveTo(x-1,y);
        YofX();
        ctx.lineTo(x,y);
        currentSVG += "L" + x + " " + y + " ";
    }
    ctx.stroke();
    currentSVG += "\""+ " stroke = \"" + currentStroke + "\" stroke-width = \"" + currentLineWidth.toString() + "\" fill = \"" + "none" + "\" "+"/>";
    /*finish plot one function*/
    

}


























</topfunctions>
-->

<!--
<imgurl>

</imgurl>
-->

<!--
<currentjson>
{
    "constants": {},
    "imgurl": "",
    "plotparams": {
        "G": 3.58669141914442,
        "g": 0.0197844668900135,
        "duration": 545.4545454545454,
        "plotwidth": 400,
        "plotheight": 400,
        "x0": 200,
        "y0": 204.90403660952114
    },
    "funcparams": {
        "a": 0.12727272727272726,
        "b": 0,
        "c": 0,
        "X0": 0,
        "Y0": 0
    }
}
</currentjson>
-->

<!--
<equation>



<h2>Hyperbolic Cotangent</h2>
<p style="color:blue">

</p><p class="bigeq">
$$
Y = \coth{X}$$
</p>
<p></p>

$$
X = g(x - x_0) - X_0
$$
$$
Y = f(X)
$$
    
$$
y = y_0 - G(Y - Y_0)
$$


<p>
    X and Y, and $X_0$ and $Y_0$ in physical units of the System. x and y and x0 and y0 in pixels.  G is in pixels per Y unit and g is in X units per pixel. 
</p>




</equation>
-->
	<path d = "M0 208 L1 208.49345801145077 L2 208.49356824322376 L3 208.4936829277894 L4 208.49380224516838 L5 208.493926382672 L6 208.4940555351981 L7 208.4941899055398 L8 208.49432970470627 L9 208.49447515225705 L10 208.4946264766499 L11 208.49478391560282 L12 208.49494771647127 L13 208.4951181366405 L14 208.4952954439343 L15 208.49547991704029 L16 208.4956718459529 L17 208.49587153243473 L18 208.49607929049654 L19 208.49629544689736 L20 208.49652034166513 L21 208.49675432863887 L22 208.49699777603342 L23 208.4972510670273 L24 208.497514600375 L25 208.49778879104514 L26 208.49807407088431 L27 208.49837088930926 L28 208.4986797140275 L29 208.49900103178814 L30 208.49933534916394 L31 208.49968319336617 L32 208.50004511309334 L33 208.50042167941595 L34 208.5008134866978 L35 208.5012211535566 L36 208.5016453238645 L37 208.5020866677913 L38 208.5025458828913 L39 208.50302369523646 L40 208.5035208605975 L41 208.50403816567504 L42 208.50457642938338 L43 208.50513650418875 L44 208.50571927750502 L45 208.50632567314898 L46 208.5069566528582 L47 208.5076132178741 L48 208.50829641059346 L49 208.50900731629108 L50 208.50974706491738 L51 208.51051683297393 L52 208.51131784547084 L53 208.51215137796964 L54 208.51301875871576 L55 208.5139213708647 L56 208.51486065480654 L57 208.51583811059322 L58 208.51685530047354 L59 208.51791385154135 L60 208.51901545850194 L61 208.52016188656268 L62 208.52135497445403 L63 208.522596637587 L64 208.52388887135425 L65 208.52523375458168 L66 208.5266334531381 L67 208.5280902237111 L68 208.52960641775758 L69 208.53118448563757 L70 208.5328269809412 L71 208.5345365650186 L72 208.53631601172367 L73 208.5381682123823 L74 208.54009618099795 L75 208.54210305970653 L76 208.54419212449454 L77 208.5463667911943 L78 208.54863062177216 L79 208.5509873309254 L80 208.55344079300536 L81 208.5559950492849 L82 208.5586543155901 L83 208.56142299031728 L84 208.56430566285687 L85 208.5673071224488 L86 208.57043236749453 L87 208.57368661535298 L88 208.57707531264947 L89 208.5806041461288 L90 208.58427905408632 L91 208.58810623841228 L92 208.59209217728832 L93 208.5962436385772 L94 208.60056769395027 L95 208.60507173380046 L96 208.60976348299184 L97 208.61465101750164 L98 208.6197427820135 L99 208.6250476085273 L100 208.630574736054 L101 208.63633383147112 L102 208.6423350116197 L103 208.64858886673045 L104 208.6551064852742 L105 208.66189948033966 L106 208.66898001765014 L107 208.67636084534055 L108 208.6840553256268 L109 208.6920774685105 L110 208.70044196767594 L111 208.70916423874885 L112 208.71826046010295 L113 208.7277476164171 L114 208.73764354520466 L115 208.74796698655746 L116 208.75873763637028 L117 208.7699762033369 L118 208.78170447003743 L119 208.79394535846853 L120 208.80672300040274 L121 208.820062813003 L122 208.83399158016135 L123 208.8485375400806 L124 208.86373047967177 L125 208.87960183640132 L126 208.89618480829117 L127 208.91351447285152 L128 208.9316279158132 L129 208.95056437062397 L130 208.97036536978393 L131 208.99107490921992 L132 209.01273962703954 L133 209.03540899816676 L134 209.05913554654228 L135 209.08397507677992 L136 209.10998692740668 L137 209.13723424808444 L138 209.1657843035211 L139 209.1957088071344 L140 209.2270842879402 L141 209.25999249460833 L142 209.2945208411728 L143 209.33076289951399 L144 209.36881894446117 L145 209.40879655821516 L146 209.45081130178383 L147 209.49498746228423 L148 209.54145888632857 L149 209.59036991131373 L150 209.64187640832537 L151 209.6961469526075 L152 209.75336414020663 L153 209.81372607256785 L154 209.87744803464787 L155 209.94476439665576 L156 210.01593077500692 L157 210.09122649469705 L158 210.17095740334275 L159 210.25545909694003 L160 210.34510062940296 L161 210.44028879272676 L162 210.5414730729036 L163 210.64915140945 L164 210.76387691481835 L165 210.88626574568457 L166 211.01700636328013 L167 211.1568704774308 L168 211.30672604263117 L169 211.46755276953797 L170 211.64046073883222 L171 211.82671286631972 L172 212.02775218210144 L173 212.24523517192887 L174 212.48107281289538 L175 212.73748145790276 L176 213.01704644148845 L177 213.32280227875933 L178 213.65833473708514 L179 214.0279120715008 L180 214.43665563114598 L181 214.8907643418933 L182 215.3978140170481 L183 215.96716230771344 L184 216.6105055102085 L185 217.34265809720208 L186 218.18266633445634 L187 219.15543587547145 L188 220.29417315451425 L189 221.64415844977168 L190 223.2687827857605 L191 225.25960943890504 L192 227.75398157410325 L193 230.9677221433204 L194 235.26053368529688 L195 241.2798778879894 L196 250.32067449859414 L197 265.4043980589205 L198 295.59546485493945 L199 386.2159415798921 L200 -Infinity L201 23.592131639150182 L202 114.21260836410283 L203 144.4036751601218 L204 159.48739872044814 L205 168.5281953310529 L206 174.5475395337454 L207 178.84035107572188 L208 182.05409164493904 L209 184.54846378013724 L210 186.5392904332818 L211 188.1639147692706 L212 189.51390006452803 L213 190.65263734357083 L214 191.62540688458594 L215 192.4654151218402 L216 193.1975677088338 L217 193.84091091132885 L218 194.4102592019942 L219 194.917308877149 L220 195.3714175878963 L221 195.7801611475415 L222 196.14973848195714 L223 196.48527094028296 L224 196.79102677755384 L225 197.07059176113953 L226 197.3270004061469 L227 197.56283804711342 L228 197.78032103694085 L229 197.98136035272256 L230 198.16761248021007 L231 198.3405204495043 L232 198.50134717641112 L233 198.65120274161148 L234 198.79106685576215 L235 198.92180747335772 L236 199.04419630422393 L237 199.15892180959227 L238 199.26660014613867 L239 199.36778442631552 L240 199.46297258963932 L241 199.55261412210226 L242 199.63711581569953 L243 199.71684672434523 L244 199.79214244403536 L245 199.86330882238653 L246 199.93062518439442 L247 199.99434714647444 L248 200.05470907883566 L249 200.11192626643478 L250 200.1661968107169 L251 200.21770330772856 L252 200.26661433271371 L253 200.31308575675806 L254 200.35726191725846 L255 200.39927666082713 L256 200.43925427458112 L257 200.4773103195283 L258 200.51355237786947 L259 200.54808072443396 L260 200.5809889311021 L261 200.6123644119079 L262 200.6422889155212 L263 200.67083897095785 L264 200.6980862916356 L265 200.72409814226236 L266 200.7489376725 L267 200.77266422087553 L268 200.79533359200275 L269 200.81699830982237 L270 200.83770784925835 L271 200.85750884841832 L272 200.87644530322908 L273 200.89455874619077 L274 200.91188841075112 L275 200.92847138264096 L276 200.9443427393705 L277 200.9595356789617 L278 200.97408163888093 L279 200.98801040603928 L280 201.00135021863954 L281 201.01412786057375 L282 201.02636874900486 L283 201.03809701570538 L284 201.049335582672 L285 201.06010623248483 L286 201.07042967383762 L287 201.08032560262518 L288 201.08981275893933 L289 201.09890898029343 L290 201.10763125136634 L291 201.1159957505318 L292 201.1240178934155 L293 201.13171237370173 L294 201.13909320139214 L295 201.14617373870263 L296 201.1529667337681 L297 201.15948435231184 L298 201.16573820742258 L299 201.17173938757117 L300 201.17749848298828 L301 201.183025610515 L302 201.18833043702878 L303 201.19342220154064 L304 201.19830973605045 L305 201.20300148524183 L306 201.20750552509202 L307 201.2118295804651 L308 201.21598104175396 L309 201.21996698063 L310 201.22379416495596 L311 201.2274690729135 L312 201.23099790639282 L313 201.2343866036893 L314 201.23764085154775 L315 201.2407660965935 L316 201.24376755618542 L317 201.246650228725 L318 201.24941890345218 L319 201.2520781697574 L320 201.25463242603692 L321 201.25708588811688 L322 201.25944259727012 L323 201.261706427848 L324 201.26388109454774 L325 201.26597015933575 L326 201.26797703804434 L327 201.26990500666 L328 201.27175720731861 L329 201.27353665402367 L330 201.2752462381011 L331 201.27688873340472 L332 201.2784668012847 L333 201.27998299533118 L334 201.2814397659042 L335 201.2828394644606 L336 201.28418434768804 L337 201.2854765814553 L338 201.28671824458826 L339 201.2879113324796 L340 201.28905776054035 L341 201.29015936750093 L342 201.29121791856875 L343 201.29223510844906 L344 201.29321256423574 L345 201.2941518481776 L346 201.29505446032653 L347 201.29592184107264 L348 201.29675537357144 L349 201.29755638606835 L350 201.2983261541249 L351 201.2990659027512 L352 201.29977680844883 L353 201.30046000116818 L354 201.30111656618408 L355 201.3017475458933 L356 201.30235394153726 L357 201.30293671485353 L358 201.3034967896589 L359 201.30403505336724 L360 201.3045523584448 L361 201.30504952380582 L362 201.305527336151 L363 201.30598655125098 L364 201.3064278951778 L365 201.30685206548569 L366 201.30725973234448 L367 201.30765153962633 L368 201.30802810594895 L369 201.30839002567612 L370 201.30873786987834 L371 201.30907218725415 L372 201.30939350501478 L373 201.30970232973303 L374 201.30999914815797 L375 201.31028442799715 L376 201.31055861866727 L377 201.310822152015 L378 201.31107544300886 L379 201.3113188904034 L380 201.31155287737715 L381 201.31177777214492 L382 201.31199392854575 L383 201.31220168660755 L384 201.3124013730894 L385 201.312593302002 L386 201.31277777510797 L387 201.31295508240177 L388 201.313125502571 L389 201.31328930343946 L390 201.3134467423924 L391 201.31359806678523 L392 201.313743514336 L393 201.3138833135025 L394 201.31401768384418 L395 201.3141468363703 L396 201.3142709738739 L397 201.3143902912529 L398 201.31450497581852 L399 201.31461520759152 " stroke = "blue" stroke-width = "4" fill = "none" /></svg>