<svg width="400" height="400" viewbox = "0 0 400 400"  xmlns="http://www.w3.org/2000/svg">

<!--
<topfunctions>







function YofX(){
    X = plotparams.g*(x - plotparams.x0) - funcparams.X0;
    Y = Math.cosh(X);
    y = plotparams.y0 - plotparams.G*(Y - funcparams.Y0);
}


function YofX2(){
    X = plotparams.g*(x - plotparams.x0) - funcparams.X0;
    Y = funcparams.b*X*X + funcparams.c*X + funcparams.d;
    y = plotparams.y0 - plotparams.G*(Y - funcparams.Y0);
 }

function XYofT(){
    T = plotparams.g*t;
    X = Math.exp(-T/funcparams.tau)*Math.cos(2*Math.PI*T/funcparams.T);
    Y = Math.exp(-T/funcparams.tau)*Math.sin(2*Math.PI*T/funcparams.T);
    y = plotparams.y0 - plotparams.G*(Y - funcparams.Y0);
    x = plotparams.x0 - plotparams.G*(X - funcparams.X0);    
}


function plotfunction(){
/*

    currentStroke = "blue";
    currentLineWidth = 4;
    ctx.strokeStyle = currentStroke;
    ctx.lineWidth = currentLineWidth;
    ctx.beginPath();	
    x = 0;
    y = 0;
    t= 0;
    XYofT();
    currentSVG += "	<path d = \"M";
    currentSVG += Math.round(x).toString() + " ";
    currentSVG += Math.round(y).toString() + " ";
    for(t = 1;t < plotparams.duration;t++){
        ctx.moveTo(x,y);
        XYofT();
        ctx.lineTo(x,y);
        currentSVG += "L" + x + " " + y + " ";
    }
    ctx.stroke();
    currentSVG += "\""+ " stroke = \"" + currentStroke + "\" stroke-width = \"" + currentLineWidth.toString() + "\" fill = \"" + "none" + "\" "+"/>";


    /*plot one function:*/
    currentStroke = "blue";
    currentLineWidth = 4;
    ctx.strokeStyle = currentStroke;
    ctx.lineWidth = currentLineWidth;
    ctx.beginPath();	
    x = 0;
    YofX();
    currentSVG += "	<path d = \"M";
    currentSVG += Math.round(x).toString() + " ";
    currentSVG += Math.round(y).toString() + " ";
    for(x = 1;x < plotparams.plotwidth;x++){
        ctx.moveTo(x-1,y);
        YofX();
        ctx.lineTo(x,y);
        currentSVG += "L" + x + " " + y + " ";
    }
    ctx.stroke();
    currentSVG += "\""+ " stroke = \"" + currentStroke + "\" stroke-width = \"" + currentLineWidth.toString() + "\" fill = \"" + "none" + "\" "+"/>";
    /*finish plot one function*/
    

}
























</topfunctions>
-->

<!--
<imgurl>

</imgurl>
-->

<!--
<currentjson>
{
    "constants": {},
    "imgurl": "",
    "plotparams": {
        "G": 56.896019442740155,
        "g": 0.008390545288824004,
        "duration": 545.4545454545454,
        "plotwidth": 400,
        "plotheight": 400,
        "x0": 200,
        "y0": 272.7272727272727
    },
    "funcparams": {
        "a": 0.12727272727272726,
        "b": 0,
        "c": 0,
        "X0": 0,
        "Y0": 0
    }
}
</currentjson>
-->

<!--
<equation>


<h2>Hyperbolic Cosine</h2>
<p style="color:blue">

</p><p class="bigeq">
$$
Y = \cosh{X}$$
</p>
<p></p>

$$
X = g(x - x_0) - X_0
$$
$$
Y = f(X)
$$
    
$$
y = y_0 - G(Y - Y_0)
$$


<p>
    X and Y, and $X_0$ and $Y_0$ in physical units of the System. x and y and x0 and y0 in pixels.  G is in pixels per Y unit and g is in X units per pixel. 
</p>



</equation>
-->
	<path d = "M0 115 L1 116.29244216609942 L2 117.50963109859981 L3 118.71589245096033 L4 119.91131114598642 L5 121.09597134314257 L6 122.26995644447706 L7 123.43334910049364 L8 124.58623121597049 L9 125.7286839557259 L10 126.86078775033303 L11 127.98262230178204 L12 129.0942665890913 L13 130.19579887386752 L14 131.28729670581572 L15 132.36883692819882 L16 133.44049568324724 L17 134.50234841751984 L18 135.55446988721533 L19 136.5969341634351 L20 137.62981463739806 L21 138.65318402560754 L22 139.6671143749707 L23 140.67167706787046 L24 141.66694282719138 L25 142.6529817212982 L26 143.62986316896922 L27 144.5976559442831 L28 145.556428181461 L29 146.50624737966302 L30 147.44718040774057 L31 148.37929350894387 L32 149.30265230558558 L33 150.2173218036608 L34 151.12336639742355 L35 152.0208498739202 L36 152.90983541748025 L37 153.79038561416462 L38 154.66256245617177 L39 155.52642734620198 L40 156.38204110178037 L41 157.22946395953852 L42 158.068755579455 L43 158.89997504905597 L44 159.72318088757447 L45 160.53843105007087 L46 161.34578293151253 L47 162.14529337081476 L48 162.93701865484232 L49 163.721014522372 L50 164.49733616801694 L51 165.2660382461122 L52 166.02717487456266 L53 166.7807996386529 L54 167.5269655948198 L55 168.2657252743878 L56 168.99713068726706 L57 169.72123332561517 L58 170.43808416746228 L59 171.14773368029995 L60 171.85023182463422 L61 172.5456280575029 L62 173.23397133595745 L63 173.91531012050956 L64 174.5896923785429 L65 175.2571655876901 L66 175.9177767391753 L67 176.57157234112236 L68 177.21859842182903 L69 177.85890053300767 L70 178.49252375299184 L71 179.11951268991012 L72 179.73991148482656 L73 180.35376381484815 L74 180.96111289619995 L75 181.5620014872675 L76 182.15647189160705 L77 182.7445659609238 L78 183.32632509801846 L79 183.90179025970184 L80 184.47100195967846 L81 185.0340002713988 L82 185.59082483088045 L83 186.14151483949848 L84 186.68610906674547 L85 187.22464585296086 L86 187.75716311203013 L87 188.28369833405395 L88 188.80428858798786 L89 189.31897052425148 L90 189.8277803773093 L91 190.3307539682212 L92 190.82792670716455 L93 191.31933359592716 L94 191.8050092303713 L95 192.28498780286947 L96 192.75930310471148 L97 193.22798852848354 L98 193.691077070419 L99 194.14860133272146 L100 194.60059352585995 L101 195.04708547083675 L102 195.4881086014273 L103 195.9236939663936 L104 196.35387223166987 L105 196.7786736825214 L106 197.19812822567698 L107 197.61226539143405 L108 198.02111433573793 L109 198.42470384223435 L110 198.82306232429585 L111 199.21621782702206 L112 199.6041980292144 L113 199.98703024532432 L114 200.3647414273767 L115 200.7373581668669 L116 201.10490669663324 L117 201.46741289270344 L118 201.8249022761167 L119 202.17740001472023 L120 202.52493092494112 L121 202.8675194735335 L122 203.20518977930095 L123 203.5379656147947 L124 203.86587040798702 L125 204.18892724392077 L126 204.50715886633452 L127 204.82058767926384 L128 205.12923574861838 L129 205.43312480373572 L130 205.73227623891069 L131 206.0267111149019 L132 206.31645016041438 L133 206.60151377355885 L134 206.8819220232878 L135 207.15769465080842 L136 207.42885107097237 L137 207.6954103736426 L138 207.9573913250374 L139 208.21481236905154 L140 208.46769162855463 L141 208.71604690666715 L142 208.95989568801377 L143 209.19925513995432 L144 209.43414211379223 L145 209.66457314596127 L146 209.89056445918928 L147 210.11213196364065 L148 210.3292912580362 L149 210.54205763075146 L150 210.7504460608929 L151 210.9544712193527 L152 211.15414746984132 L153 211.3494888698989 L154 211.54050917188493 L155 211.72722182394642 L156 211.90963997096455 L157 212.0877764554803 L158 212.26164381859854 L159 212.43125430087076 L160 212.59661984315704 L161 212.7577520874666 L162 212.91466237777743 L163 213.06736176083498 L164 213.21586098692978 L165 213.36017051065437 L166 213.5003004916392 L167 213.63626079526802 L168 213.7680609933724 L169 213.89571036490543 L170 214.0192178965952 L171 214.13859228357742 L172 214.2538419300074 L173 214.36497494965204 L174 214.47199916646068 L175 214.57492211511624 L176 214.67375104156548 L177 214.7684929035292 L178 214.85915437099206 L179 214.9457418266722 L180 215.02826136647047 L181 215.10671879989974 L182 215.18111965049383 L183 215.25146915619638 L184 215.31777226972957 L185 215.3800336589429 L186 215.4382577071417 L187 215.49244851339583 L188 215.54260989282818 L189 215.58874537688328 L190 215.63085821357598 L191 215.66895136771998 L192 215.70302752113673 L193 215.7330890728441 L194 215.7591381392253 L195 215.78117655417796 L196 215.79920586924317 L197 215.81322735371464 L198 215.82324199472825 L199 215.82925049733134 L200 215.83125328453252 L201 215.82925049733134 L202 215.82324199472825 L203 215.81322735371464 L204 215.79920586924317 L205 215.78117655417796 L206 215.7591381392253 L207 215.7330890728441 L208 215.70302752113673 L209 215.66895136771998 L210 215.63085821357598 L211 215.58874537688328 L212 215.54260989282818 L213 215.49244851339583 L214 215.4382577071417 L215 215.3800336589429 L216 215.31777226972957 L217 215.25146915619638 L218 215.18111965049383 L219 215.10671879989974 L220 215.02826136647047 L221 214.9457418266722 L222 214.85915437099206 L223 214.7684929035292 L224 214.67375104156548 L225 214.57492211511624 L226 214.47199916646068 L227 214.36497494965204 L228 214.2538419300074 L229 214.13859228357742 L230 214.0192178965952 L231 213.89571036490543 L232 213.7680609933724 L233 213.63626079526802 L234 213.5003004916392 L235 213.36017051065437 L236 213.21586098692978 L237 213.06736176083498 L238 212.91466237777743 L239 212.7577520874666 L240 212.59661984315704 L241 212.43125430087076 L242 212.26164381859854 L243 212.0877764554803 L244 211.90963997096455 L245 211.72722182394642 L246 211.54050917188493 L247 211.3494888698989 L248 211.15414746984132 L249 210.9544712193527 L250 210.7504460608929 L251 210.54205763075146 L252 210.3292912580362 L253 210.11213196364065 L254 209.89056445918928 L255 209.66457314596127 L256 209.43414211379223 L257 209.19925513995432 L258 208.95989568801377 L259 208.71604690666715 L260 208.46769162855463 L261 208.21481236905154 L262 207.9573913250374 L263 207.6954103736426 L264 207.42885107097237 L265 207.15769465080842 L266 206.8819220232878 L267 206.60151377355885 L268 206.31645016041438 L269 206.0267111149019 L270 205.73227623891069 L271 205.43312480373572 L272 205.12923574861838 L273 204.82058767926384 L274 204.50715886633452 L275 204.18892724392077 L276 203.86587040798702 L277 203.5379656147947 L278 203.20518977930095 L279 202.8675194735335 L280 202.52493092494112 L281 202.17740001472023 L282 201.8249022761167 L283 201.46741289270344 L284 201.10490669663324 L285 200.7373581668669 L286 200.3647414273767 L287 199.98703024532432 L288 199.6041980292144 L289 199.21621782702206 L290 198.82306232429585 L291 198.42470384223435 L292 198.02111433573793 L293 197.61226539143405 L294 197.19812822567698 L295 196.7786736825214 L296 196.35387223166987 L297 195.9236939663936 L298 195.4881086014273 L299 195.04708547083675 L300 194.60059352585995 L301 194.14860133272146 L302 193.691077070419 L303 193.22798852848354 L304 192.75930310471148 L305 192.28498780286947 L306 191.8050092303713 L307 191.31933359592716 L308 190.82792670716455 L309 190.3307539682212 L310 189.8277803773093 L311 189.31897052425148 L312 188.80428858798786 L313 188.28369833405395 L314 187.75716311203013 L315 187.22464585296086 L316 186.68610906674547 L317 186.14151483949848 L318 185.59082483088045 L319 185.0340002713988 L320 184.47100195967846 L321 183.90179025970184 L322 183.32632509801846 L323 182.7445659609238 L324 182.15647189160705 L325 181.5620014872675 L326 180.96111289619995 L327 180.35376381484815 L328 179.73991148482656 L329 179.11951268991012 L330 178.49252375299184 L331 177.85890053300767 L332 177.21859842182903 L333 176.57157234112236 L334 175.9177767391753 L335 175.2571655876901 L336 174.5896923785429 L337 173.91531012050956 L338 173.23397133595745 L339 172.5456280575029 L340 171.85023182463422 L341 171.14773368029995 L342 170.43808416746228 L343 169.72123332561517 L344 168.99713068726706 L345 168.2657252743878 L346 167.5269655948198 L347 166.7807996386529 L348 166.02717487456266 L349 165.2660382461122 L350 164.49733616801694 L351 163.721014522372 L352 162.93701865484232 L353 162.14529337081476 L354 161.34578293151253 L355 160.53843105007087 L356 159.72318088757447 L357 158.89997504905597 L358 158.068755579455 L359 157.22946395953852 L360 156.38204110178037 L361 155.52642734620198 L362 154.66256245617177 L363 153.79038561416462 L364 152.90983541748025 L365 152.0208498739202 L366 151.12336639742355 L367 150.2173218036608 L368 149.30265230558558 L369 148.37929350894387 L370 147.44718040774057 L371 146.50624737966302 L372 145.556428181461 L373 144.5976559442831 L374 143.62986316896922 L375 142.6529817212982 L376 141.66694282719138 L377 140.67167706787046 L378 139.6671143749707 L379 138.65318402560754 L380 137.62981463739806 L381 136.5969341634351 L382 135.55446988721533 L383 134.50234841751984 L384 133.44049568324724 L385 132.36883692819882 L386 131.28729670581572 L387 130.19579887386752 L388 129.0942665890913 L389 127.98262230178204 L390 126.86078775033303 L391 125.7286839557259 L392 124.58623121597049 L393 123.43334910049364 L394 122.26995644447706 L395 121.09597134314257 L396 119.91131114598642 L397 118.71589245096033 L398 117.50963109859981 L399 116.29244216609942 " stroke = "blue" stroke-width = "4" fill = "none" /></svg>