<svg width="500" height="500" viewbox = "0 0 500 500"  xmlns="http://www.w3.org/2000/svg">

<!--
<json>
{
    "imgurl": "",
    "imgw": 5.875142362225413,
    "imgleft": -3.4633120303347846,
    "imgtop": -2.2979198145591777,
    "imgangle": 0,
    "svgwidth": 500,
    "svgheight": 500,
    "unit": 103.74969840400007,
    "x0": 677.1424449089471,
    "y0": 404.71623405747044,
    "x0rel": -6.857555091052859,
    "y0rel": 5.716234057470444,
    "glyph": "0331,0336,0336,0336,0330,0330,0333,0330,0337,0337,0337,0337,0335,0362,0203,0305,0335,0335,0203,0335,0335,0203,0335,0335,0203,0335,0335,0203,0354,0330,0335,0336,0333,0337,0335,0336,0362,0203,0334,0203,0334,0203,0334,0203,0334,0203,0354,0335,0330,0330,0335,0331,0350,0350,0335,0305,0366,0335,0367,0366,0335,0367,0366,0335,0367,0366,0335,0367,0366,0335,0367,0360,",
    "table": []
}
</json>
-->
	<path d = "M256 321 L464 321 L296 443 L360 245 L424 443 L256 321 Z" stroke = "black" stroke-width = "4" fill = "none" />	<path d = "M192 199 L296 199 L328 100 L244 39 L160 100 L192 199 Z" stroke = "black" stroke-width = "4" fill = "none" /><path    d = "M108,382 C47,298 169,298 108,382" fill = "none" stroke-width = "2" stroke = "black" /><path    d = "M108,382 C169,298 207,414 108,382" fill = "none" stroke-width = "2" stroke = "black" /><path    d = "M108,382 C207,414 108,485 108,382" fill = "none" stroke-width = "2" stroke = "black" /><path    d = "M108,382 C108,485 9,414 108,382" fill = "none" stroke-width = "2" stroke = "black" /><path    d = "M108,382 C9,414 47,298 108,382" fill = "none" stroke-width = "2" stroke = "black" /> M108,382 C47,298 </svg>