<svg width="350" height="100" viewbox = "0 0 350 100"  xmlns="http://www.w3.org/2000/svg">

<!--
<json>
{
    "imgurl": "",
    "imgw": 2,
    "imgleft": -1,
    "imgtop": -1,
    "imgangle": 0,
    "svgwidth": 350,
    "svgheight": 100,
    "unit": 110.00000000000003,
    "x0": 610.7950000000001,
    "y0": 438.4045946091137,
    "x0rel": -73.20499999999993,
    "y0rel": 39.4045946091137,
    "glyph": "0336,0332,0332,0332,0336,0332,0337,0336,0336,0330,0332,0336,0333,0337,0337,0337,0333,0333,01220,01223,01230,01236,01331,01236,",
    "table": []
}
</json>
-->
	<path d = "M67 76 L67 21 L12 21 L12 76 L67 76 Z" stroke = "black" stroke-width = "4" fill = "none" /><path    d = "M43,76 C50,76 43,48 50,48" fill = "none" stroke-width = "2" stroke = "black" /><path    d = "M50,48 C43,48 50,21 43,21" fill = "none" stroke-width = "2" stroke = "black" />	<path d = "M122 76 L122 21 L67 21 L67 76 L122 76 Z" stroke = "black" stroke-width = "4" fill = "none" />    <line x1="67" y1="21" x2="67" y2="-7" style="stroke:black;stroke-width:4" />
    <line x1="67" y1="-7" x2="95" y2="-7" style="stroke:black;stroke-width:4" />
    <line x1="95" y1="-7" x2="122" y2="-7" style="stroke:black;stroke-width:4" />
    <line x1="122" y1="-7" x2="136" y2="-7" style="stroke:black;stroke-width:4" />
    <line x1="136" y1="-7" x2="136" y2="-21" style="stroke:black;stroke-width:4" />
    <line x1="136" y1="-21" x2="150" y2="-7" style="stroke:black;stroke-width:4" />
    <line x1="150" y1="-7" x2="164" y2="7" style="stroke:black;stroke-width:4" />
    <line x1="164" y1="7" x2="150" y2="21" style="stroke:black;stroke-width:4" />
    <line x1="150" y1="21" x2="136" y2="34" style="stroke:black;stroke-width:4" />
    <line x1="136" y1="34" x2="136" y2="21" style="stroke:black;stroke-width:4" />
    <line x1="136" y1="21" x2="122" y2="21" style="stroke:black;stroke-width:4" />
    <line x1="122" y1="21" x2="95" y2="21" style="stroke:black;stroke-width:4" />
    <line x1="95" y1="21" x2="67" y2="21" style="stroke:black;stroke-width:4" />
	<path d = "M122 76 L122 21 L170 48 L122 76 Z" stroke = "black" stroke-width = "4" fill = "none" />	<path d = "M177 76 L177 21 L122 21 L122 76 L177 76 Z" stroke = "black" stroke-width = "4" fill = "none" />	<path d = "M232 76 L232 21 L177 21 L177 76 L232 76 Z" stroke = "black" stroke-width = "4" fill = "none" />	<path d = "M198 34 L212 34 L212 48 L219 48 L212 55 L205 62 L198 55 L191 48 L198 48 L198 34 " stroke = "black" stroke-width = "4" fill = "none" /></svg>