<svg width="400" height="200" viewbox = "0 0 400 200"  xmlns="http://www.w3.org/2000/svg">

<!--
<json>
{
    "imgurl": "",
    "imgw": 4,
    "imgleft": -2,
    "imgtop": -2,
    "imgangle": 0,
    "svgwidth": 400,
    "svgheight": 200,
    "unit": 100.00000000000001,
    "x0": 684,
    "y0": 397.5670793520086,
    "x0rel": 0,
    "y0rel": -1.4329206479914092,
    "glyph": "0330,0336,0332,0335,0336,0330,0330,0333,0333,0362,0203,0336,0203,0334,0331,0350,0335,0345,0335,0330,0335,0335,0203,0203,0203,0203,0203,0203,0335,0335,0203,0335,0335,0203,0203,0203,0203,0203,0203,0335,0334,0334,0334,0203,0203,0203,0335,0335,0203,0363,0331,0331,0331,0331,0331,0331,0331,0304,0335,0362,0203,0334,0203,0203,0203,0203,0203,0334,0203,0334,0203,0203,0203,0203,0203,0363,0335,0330,0330,0335,0362,0203,0203,0203,0203,0203,0203,0203,0334,0203,0334,0203,0203,0203,0203,0203,0203,0203,0334,0203,0363,0334,0332,0332,0332,0332,0362,0203,0203,0203,0203,0203,0203,0335,0331,0350,0334,0346,0334,0330,0334,0334,0203,0203,0304,0203,0334,0203,0334,0203,0203,0203,0335,0203,0203,0203,0203,0203,0203,0334,0203,0363,0334,0332,0332,0332,0362,0203,0203,0203,0203,0203,0334,0203,0334,0203,0203,0203,0203,0203,0334,0203,0363,0334,0333,0333,0333,0333,0333,0333,0333,0333,0333,0333,0333,0330,0333,0333,0330,0333,0330,0333,0330,0332,0333,0330,0330,0362,0203,0335,0203,0203,0334,0331,0350,0335,0345,0335,0330,0335,0335,0203,0203,0335,0335,0304,0203,0335,0203,0203,0334,0203,0203,0363,",
    "table": []
}
</json>
-->
	<path d = "M200 49 L225 49 L238 49 M237.5 48.56707935200858           A12.500000000000002 12.500000000000002 0 0 1 250 61.06707935200858L250 74 L250 86 L250 99 L250 111 L250 124 L250 136 L238 136 L238 124 L238 111 L238 99 L238 86 L238 74 L238 61 L225 61 L213 61 L200 61 L200 49 Z" stroke = "black" stroke-width = "4" fill = "black" />	<path d = "M200 136 L213 136 L213 124 L213 111 L213 99 L213 86 L213 74 L200 74 L200 86 L200 99 L200 111 L200 124 L200 136 Z" stroke = "black" stroke-width = "4" fill = "black" />	<path d = "M175 136 L175 124 L175 111 L175 99 L175 86 L175 74 L175 61 L175 49 L163 49 L163 61 L163 74 L163 86 L163 99 L163 111 L163 124 L163 136 L175 136 Z" stroke = "black" stroke-width = "4" fill = "black" />	<path d = "M125 136 L125 124 L125 111 L125 99 L125 86 L125 74 L125 61 M112.5 48.56707935200859           A12.500000000000002 12.500000000000002 0 0 1 125 61.06707935200859L100 49 L88 49 L75 49 L75 61 L88 61 L100 61 L113 61 L113 74 L113 86 L113 99 L113 111 L113 124 L113 136 L125 136 Z" stroke = "black" stroke-width = "4" fill = "black" />	<path d = "M88 136 L88 124 L88 111 L88 99 L88 86 L88 74 L75 74 L75 86 L75 99 L75 111 L75 124 L75 136 L88 136 Z" stroke = "black" stroke-width = "4" fill = "black" />	<path d = "M275 61 L275 49 L288 49 L300 49 M300 48.56707935200859           A12.500000000000002 12.500000000000002 0 0 1 312.5 61.0670793520086L313 74 L313 86 L300 86 L300 74 L300 61 L288 61 L275 61 Z" stroke = "black" stroke-width = "4" fill = "black" /></svg>