<svg width="600" height="600" viewbox = "0 0 600 600"  xmlns="http://www.w3.org/2000/svg">

<!--
<json>
{
    "imgurl": "",
    "imgw": 2,
    "imgleft": -3,
    "imgtop": -2,
    "imgangle": 0,
    "svgwidth": 600,
    "svgheight": 600,
    "unit": 40,
    "x0": 702,
    "y0": 343,
    "x0rel": 18,
    "y0rel": -56,
    "glyph": "0360,0330,0330,0331,0331,0331,0331,0362,0203,0203,0203,0203,0333,0333,0332,0332,0335,0203,0203,0335,0203,0203,0203,0203,0203,0335,0203,0203,0363,0330,0330,0330,0330,0330,0335,0222,0351,0350,0306,0330,0330,0330,0335,0330,0330,0330,0330,0330,0330,",
    "table": []
}
</json>
-->
 M318,244 C318,204 	<path d = "M318 324 L318 284 L318 244 L318 204 L318 164 L358 164 L398 164 L398 204 L398 244 L398 284 L398 324 L398 364 L358 364 L318 364 Z" stroke = "black" stroke-width = "4" fill = "black" />    <line x1="118" y1="364" x2="118" y2="324" style="stroke:black;stroke-width:4" />
    <line x1="118" y1="324" x2="158" y2="324" style="stroke:black;stroke-width:4" />
    <line x1="158" y1="324" x2="178" y2="324" style="stroke:black;stroke-width:4" />
    <line x1="178" y1="324" x2="178" y2="304" style="stroke:black;stroke-width:4" />
    <line x1="178" y1="304" x2="198" y2="324" style="stroke:black;stroke-width:4" />
    <line x1="198" y1="324" x2="218" y2="344" style="stroke:black;stroke-width:4" />
    <line x1="218" y1="344" x2="198" y2="364" style="stroke:black;stroke-width:4" />
    <line x1="198" y1="364" x2="178" y2="384" style="stroke:black;stroke-width:4" />
    <line x1="178" y1="384" x2="178" y2="364" style="stroke:black;stroke-width:4" />
    <line x1="178" y1="364" x2="158" y2="364" style="stroke:black;stroke-width:4" />
    <line x1="158" y1="364" x2="118" y2="364" style="stroke:black;stroke-width:4" />
</svg>