<svg width="500" height="500" viewbox = "0 0 500 500"  xmlns="http://www.w3.org/2000/svg">

<!--
<json>
{
    "imgurl": "",
    "imgw": 2,
    "imgleft": -1,
    "imgtop": -1,
    "imgangle": 0,
    "svgwidth": 500,
    "svgheight": 500,
    "unit": 75.13148009015778,
    "x0": 749.2936158981091,
    "y0": 452.8036367685069,
    "x0rel": -3.206384101890876,
    "y0rel": 13.80363676850692,
    "glyph": "0331,0336,0336,0330,0332,0337,0337,0326,0334,0362,0203,0203,0306,0335,0335,0337,0203,0203,0335,0335,0203,0203,0335,0335,0203,0354,0335,0335,0336,0336,0332,0337,0366,0336,0330,0332,0330,0332,0330,0335,0335,0335,0337,0367,0336,0335,0335,0335,0350,0334,0304,0331,0331,0336,0331,0337,0332,0332,0333,0336,0341,0333,0333,0333,0332,0336,0333,0337,0333,0347,0331,0331,0331,0331,0331,0331,0331,0332,0332,0331,0320,0332,0332,0332,0332,0332,0332,0332,0331,0362,0203,0335,0337,0337,0203,0203,0203,0203,0336,0336,0203,0334,0203,0335,0350,0335,0310,0337,0203,0203,0335,0335,0203,0203,0335,0335,0335,0336,0203,0304,0334,0313,0337,0337,0203,0203,0203,0203,0336,0336,0203,0335,0203,0363,0330,0330,0332,0330,0336,0330,0335,0335,0333,0332,0332,0332,0332,0336,0330,0337,0337,0337,0320,0350,0335,0362,0203,0334,0334,0334,0203,0334,0203,0334,0334,0334,0203,0363,0335,0335,0335,0335,0330,0324,0362,0203,0335,0335,0335,0203,0335,0203,0335,0335,0335,0203,0363,0335,0320,0330,0335,0335,0335,0362,0203,0334,0334,0334,0203,0334,0203,0334,0334,0334,0203,0363,0331,0334,0334,0335,0324,0362,0203,0334,0334,0334,0203,0334,0203,0334,0334,0334,0203,0363,0320,0331,0335,0335,0335,0335,0362,0203,0335,0335,0335,0203,0335,0203,0335,0335,0335,0203,0363,0335,0330,0324,0335,0335,0335,0362,0203,0334,0334,0334,0203,0334,0203,0334,0334,0334,0203,0363,0331,0335,0335,0335,0320,0335,0362,0203,0335,0335,0335,0203,0335,0203,0335,0335,0335,0203,0363,0334,0331,0331,0331,0335,0334,0334,0362,0203,0335,0335,0335,0203,0335,0203,0335,0335,0335,0203,0363,0324,0362,0203,0335,0203,0335,0335,0335,0203,0335,0203,0363,0335,0335,0335,0320,0330,0362,0203,0335,0203,0335,0335,0335,0203,0335,0203,0363,0334,0331,0324,0334,0334,0334,0362,0203,0334,0203,0334,0334,0334,0203,0334,0203,0363,0331,0320,0334,0334,0334,0362,0203,0334,0203,0334,0334,0334,0203,0334,0203,0363,0331,0334,0334,0334,0324,0362,0203,0334,0203,0334,0334,0334,0203,0334,0203,0363,0320,0331,0334,0334,0334,0362,0203,0334,0203,0334,0334,0334,0203,0334,0203,0363,0334,0334,0334,0330,0330,0335,0330,0330,0336,0336,0304,0335,0337,0337,0337,0337,0306,0334,",
    "table": []
}
</json>
-->
	<path d = "M228 320 L153 320 L78 320 L153 190 L228 60 L303 190 L378 320 L228 320 Z" stroke = "blue" stroke-width = "6" fill = "none" /><path    d = "M209,288 C247,223 190,190 228,125" fill = "none" stroke-width = "6" stroke = "blue" />    <circle cx="190" cy = "219" r = "18.782870022539445" stroke = "blue" stroke-width = "6" fill = "none" />
    <circle cx="256" cy = "219" r = "18.782870022539445" stroke = "blue" stroke-width = "6" fill = "blue" />
	<path d = "M87 388 L87 369 L162 369 L237 369 L313 369 L388 369 L406 369 L406 350 L425 369 L444 388 L425 407 L406 425 L406 407 L331 407 L256 407 L181 407 L106 407 L87 407 L87 388 Z" stroke = "black" stroke-width = "1" fill = "black" />	<path d = "M97 327 L70 353 L108 353 L134 327 L97 327 Z" stroke = "black" stroke-width = "1" fill = "black" />	<path d = "M134 327 L172 327 L145 353 L108 353 L134 327 Z" stroke = "yellow" stroke-width = "1" fill = "yellow" />	<path d = "M172 327 L145 353 L183 353 L209 327 L172 327 Z" stroke = "black" stroke-width = "1" fill = "black" />	<path d = "M209 327 L183 353 L220 353 L247 327 L209 327 Z" stroke = "yellow" stroke-width = "1" fill = "yellow" />	<path d = "M247 327 L284 327 L258 353 L220 353 L247 327 Z" stroke = "black" stroke-width = "1" fill = "black" />	<path d = "M284 327 L258 353 L295 353 L322 327 L284 327 Z" stroke = "yellow" stroke-width = "1" fill = "yellow" />	<path d = "M322 327 L359 327 L333 353 L295 353 L322 327 Z" stroke = "black" stroke-width = "1" fill = "black" />	<path d = "M322 440 L295 413 L333 413 L359 440 L322 440 Z" stroke = "black" stroke-width = "1" fill = "black" />	<path d = "M322 440 L284 440 L258 413 L295 413 L322 440 Z" stroke = "yellow" stroke-width = "1" fill = "yellow" />	<path d = "M284 440 L247 440 L220 413 L258 413 L284 440 Z" stroke = "black" stroke-width = "1" fill = "black" />	<path d = "M247 440 L220 413 L183 413 L209 440 L247 440 Z" stroke = "yellow" stroke-width = "1" fill = "yellow" />	<path d = "M209 440 L183 413 L145 413 L172 440 L209 440 Z" stroke = "black" stroke-width = "1" fill = "black" />	<path d = "M172 440 L145 413 L108 413 L134 440 L172 440 Z" stroke = "yellow" stroke-width = "1" fill = "yellow" />	<path d = "M134 440 L108 413 L70 413 L97 440 L134 440 Z" stroke = "black" stroke-width = "1" fill = "black" /></svg>