<svg width="400" height="400" viewbox = "0 0 400 400"  xmlns="http://www.w3.org/2000/svg">

<!--
<topfunctions>










function YofX(){
    X = plotparams.g*(x - plotparams.x0) - funcparams.X0;
    Y = funcparams.a*X*X*X + funcparams.b*X*X + funcparams.c*X + funcparams.d;
    y = plotparams.y0 - plotparams.G*(Y - funcparams.Y0);
}


function YofX2(){
    X = plotparams.g*(x - plotparams.x0) - funcparams.X0;
    Y = funcparams.b*X*X + funcparams.c*X + funcparams.d;
    y = plotparams.y0 - plotparams.G*(Y - funcparams.Y0);
 }

function XYofT(){
    T = plotparams.g*t;
    tau = 0.25*funcparams.T/Math.log(constants.phi);
    X = Math.exp(-T/tau)*Math.cos(2*Math.PI*T/funcparams.T);
    Y = Math.exp(-T/tau)*Math.sin(2*Math.PI*T/funcparams.T);
    y = plotparams.y0 - plotparams.G*(Y - funcparams.Y0);
    x = plotparams.x0 - plotparams.G*(X - funcparams.X0);    
}


function plotfunction(){


    currentStroke = "blue";
    currentLineWidth = 4;
    ctx.strokeStyle = currentStroke;
    ctx.lineWidth = currentLineWidth;
    ctx.beginPath();	
    x = 0;
    y = 0;
    t= 0;
    XYofT();
    currentSVG += "	<path d = \"M";
    currentSVG += Math.round(x).toString() + " ";
    currentSVG += Math.round(y).toString() + " ";
    for(t = 1;t < plotparams.duration;t++){
        ctx.moveTo(x,y);
        XYofT();
        ctx.lineTo(x,y);
        currentSVG += "L" + x + " " + y + " ";
    }
    ctx.stroke();
    currentSVG += "\""+ " stroke = \"" + currentStroke + "\" stroke-width = \"" + currentLineWidth.toString() + "\" fill = \"" + "none" + "\" "+"/>";


    /*plot one function:
    currentStroke = "blue";
    currentLineWidth = 4;
    ctx.strokeStyle = currentStroke;
    ctx.lineWidth = currentLineWidth;
    ctx.beginPath();	
    x = 0;
    YofX();
    currentSVG += "	<path d = \"M";
    currentSVG += Math.round(x).toString() + " ";
    currentSVG += Math.round(y).toString() + " ";
    for(x = 1;x < plotparams.plotwidth;x++){
        ctx.moveTo(x-1,y);
        YofX();
        ctx.lineTo(x,y);
        currentSVG += "L" + x + " " + y + " ";
    }
    ctx.stroke();
    currentSVG += "\""+ " stroke = \"" + currentStroke + "\" stroke-width = \"" + currentLineWidth.toString() + "\" fill = \"" + "none" + "\" "+"/>";
    /*finish plot one function*/
    

}


























</topfunctions>
-->

<!--
<imgurl>
https://upload.wikimedia.org/wikipedia/commons/e/e5/2005_Penny_Rev_Unc_D.png
</imgurl>
-->

<!--
<currentjson>
{
    "constants": {
        "phi": 1.618
    },
    "imgurl": "https://upload.wikimedia.org/wikipedia/commons/e/e5/2005_Penny_Rev_Unc_D.png",
    "plotparams": {
        "G": 288.6463829552962,
        "g": 0.017985878990921366,
        "duration": 545.4545454545454,
        "plotwidth": 400,
        "plotheight": 400,
        "x0": 194.93370038309274,
        "y0": 188.4090470508413
    },
    "funcparams": {
        "tau": 0.9418499929055854,
        "T": 1.4510503978369063,
        "X0": 0,
        "Y0": 0
    }
}
</currentjson>
-->

<!--
<equation>



<h2>Golden Spiral</h2>
<p>
    Radius reduced by $\phi$ on every quarter turn.  One full turn takes T, so a quarter turn is $\frac{T}{4}$.  If we consider a quarter rotation starting at time $t_0$ and going to time $t_0 + \frac{T}{4}$ that should go down by $\phi$.  So  
    $$
    \frac{e^{-t_0/\tau}}{e^{-(t_0 + \frac{T}{4})/\tau}}=\phi
    $$
    $$
    e^{T/4\tau} = \phi
    $$
    $$
    \frac{T}{4\tau} = \ln{\phi}
    $$
    $$
    \tau = \frac{T}{4\ln{\phi}}
    $$
    
</p>
<p class="bigeq">
$$
(X,Y) = (e^{-t/\tau}\cos{\frac{2\pi t}{T}},e^{-t/\tau}\sin{\frac{2\pi t}{T}})
$$
</p>
<p></p>

$$
X = g(x - x_0) - X_0
$$
$$
Y = f(X)
$$
    
$$
y = y_0 - G(Y - Y_0)
$$


<p>
    X and Y, and $X_0$ and $Y_0$ in physical units of the System. x and y and x0 and y0 in pixels.  G is in pixels per Y unit and g is in X units per pixel. 
</p>




</equation>
-->
	<path d = "M-94 188 L-86.05346783856214 166.48125898541667 L-76.93168733574743 145.71717604393862 L-66.4745541063782 126.19702706748993 L-54.812000399202645 107.98924795339794 L-42.075709632872645 91.15058800859525 L-28.398182125917913 75.72628702033957 L-13.911839069166632 61.75031860267296 L1.2518312393349618 49.245695154808914 L16.96308133782557 38.224829585995224 L33.0946636262089 28.689948819600346 L49.5225378378058 20.633553986269106 L66.12652477859172 14.038922150848634 L82.79090460448526 8.880644389054765 L99.40495834696308 5.1251950360270655 L115.86345182484804 2.731526968336482 L132.06706149335076 1.6516878518629028 L147.92274217832647 1.8314523883232425 L163.34403702244148 3.210965721083511 L178.2513303289067 5.725393314118378 L192.57204432623936 9.305572794415582 L206.24078119294603 13.878663445537597 L219.19941197308768 19.368789256191974 L231.39711428158574 25.697671660252297 L242.7903609412458 32.78524835144364 L253.34286191139853 40.55027481459848 L263.0254620605431 48.9109054837711 L271.8159975023704 57.78525171338356 L279.69911335614313 67.09191402982559 L286.6660459088881 76.75048641547255 L292.71437224863126 86.68203066293168 L297.84773050551837 96.80951912254883 L302.0755138818355 107.05824444901309 L305.41254167343493 117.35619523153694 L307.87871048484647 127.63439666498226 L309.4986288193894 137.82721568492974 L310.30123818501863 147.8726302466742 L310.31942379761256 157.71246267522008 L309.58961788717465 167.29257724939023 L308.15139852028045 176.5630424071556 L306.04708674538944 185.47825817033987 L303.3213447477266 193.99704958419116 L300.02077756871506 202.08272715031092 L296.1935408028135 209.7031153995583 L291.8889565334771 216.83055090442417 L287.157139611231 223.44185116770356 L282.0486362118876 229.51825594592722 L276.614076443121 235.04534267188973 L270.90384259425815 240.01291773077193 L264.96775444853887 244.41488541896135 L258.8547729004883 248.24909647395305 L252.61272294461216 251.51717810800855 L246.28803692651445 254.22434750796344 L239.92551877481395 256.3792107791958 L233.5681297629068 257.99354931385767 L227.2567961846325 259.08209555263676 L221.0302391681073 259.66230008623813 L214.9248266981911 259.7540920081707 L208.97444777096518 259.3796343850533 L203.2104084638607 258.5630766553122 L197.6613495732503 257.33030570265663 L192.35318534788365 255.70869727792547 L187.3090627319279 253.72686936266456 L182.54934042588036 251.4144389809755 L178.0915869775329 248.80178387365478 L173.95059702864717 245.91981035127043 L170.1384247661832 242.79972854146553 L166.6644335598358 239.47283614127258 L163.5353607102707 235.97031167839418 L160.75539618472567 232.3230181770553 L158.32627417841115 228.56131801492933 L156.2473763112192 224.71489964852918 L154.51584524937897 220.8126167760414 L153.1267075305904 216.88234039953593 L152.07300436848698 212.9508241434332 L151.345929217649 209.0435830836454 L150.9349708934038 205.1847862424707 L150.82806106086053 201.39716280860483 L151.0117249345779 197.70192204999378 L151.47123406345736 194.11868680009496 L152.19076011439128 190.66544031578593 L153.1535286123505 187.3584862279782 L154.34197164344587 184.21242123421226 L155.73787858050252 181.24012011634667 L157.32254394731063 178.45273260606953 L159.0769115974271 175.85969156648335 L160.98171444566538 173.4687319095173 L163.01760905470658 171.28591962644052 L165.16530444508376 169.31569027228062 L167.4056845636291 167.56089621445335 L169.71992391286128 166.0228619312925 L172.0895959112535 164.70144662732997 L174.4967736214335 163.5951134189581 L176.92412254969366 162.70100433633945 L179.35498528535237 162.01502038490634 L181.77345781213168 161.53190591228662 L184.16445738545877 161.24533653375454 L186.51378192915797 161.14800988106376 L188.8081609620785 161.2317384554932 L191.03529811955997 161.48754388581878 L193.1839053860361 161.90575191541149 L195.24372920333118 162.47608746942888 L197.20556866414407 163.18776918279042 L199.06128604169962 164.02960280197465 L200.80380994448177 164.9900729083181 L202.42713141925248 166.05743244709967 L203.92629335616212 167.21978958493156 L205.2973735766425 168.4651914575252 L206.5374620079409 169.78170441044264 L207.64463236762458 171.15749037666694 L208.61790879721084 172.5808790764365 L209.45722789631967 174.04043576649642 L210.1633966174964 175.52502430745102 L210.7380464872141 177.02386535899657 L211.18358462066368 178.526589553224 L211.50314199691266 180.02328553567938 L211.70051945701303 181.50454280224355 L211.7801318808291 182.96148929694021 L211.74695098891223 184.38582377133335 L211.60644720385753 185.76984294006235 L211.36453099142355 187.1064634991508 L211.02749408548254 188.3892391038831 L210.60195098279402 189.61237243117145 L210.09478107386116 190.77072247734407 L209.5130717549457 191.8598072661041 L208.86406284388508 192.87580216298642 L208.155092598879 193.8155340119398 L207.39354561509472 194.67647132666937 L206.58680284897332 195.45671078407773 L205.7421939946997 196.15496027956635 L204.86695241160922 196.77051881411543 L203.96817277552393 197.3032534909999 L203.05277160131402 197.75357390576772 L202.1274507585237 198.12240421676998 L201.198664076844 198.41115318516614 L200.27258711369817 198.6216824730114 L199.35509013236202 198.75627348586758 L198.45171431599718 198.81759304245418 L197.56765122084008 198.80865814828923 L196.70772545066237 198.73280014316663 L195.87638051459635 198.59362848379746 L195.07766781156917 198.3949944131289 L194.31523866699138 198.14095475686895 L193.59233933104437 197.83573607571424 L192.91180883295903 197.48369938882794 L192.27607957210566 197.08930567037274 L191.68718051454655 196.65708230649486 L191.14674285295268 196.19159068520483 L190.6560079784552 195.6973950762292 L190.21583760508918 195.17903294223672 L189.82672588097228 194.64098680698413 L189.48881331522455 194.08765778999737 L189.20190234584697 193.52334090150347 L188.96547437129286 192.95220217556547 L188.77870806724957 192.3782577038363 L188.64049881014233 191.80535461713427 L188.5494790300212 191.2371540472287 L188.50403931773877 190.6771160868951 L188.50235011459938 190.12848675251684 L188.54238381689532 189.59428694034528 L188.62193713286746 189.07730335503456 L188.7386535355631 188.58008137729294 L188.89004566173645 188.1049198264816 L189.0735175142687 187.65386756377941 L189.28638633349755 187.22872187214827 L189.52590401126292 186.83102854079942 L189.78927793031508 186.46208357419343 L190.07369112092195 186.12293643881262 L190.37632163597215 185.814394755031 L190.6943610555305 185.5370303363666 L191.0250320415886 185.2911864742302 L191.36560487359552 185.07698636296706 L191.71341290518885 184.89434255750612 L192.06586689230681 184.74296735426222 L192.42046815249185 184.6223839850553 L192.77482052463728 184.53193851368056 L193.1266411076282 184.4708123253579 L193.47376976523904 184.43803510056398 L193.81417739322765 184.43249816666884 L194.14597295277014 184.45296812331986 L194.4674092821752 184.49810064058997 L194.77688770617254 184.56645433249548 L195.07296146895501 184.65650461253756 L195.35433802355246 184.76665744238798 L195.61988021600183 184.89526288967267 L195.86860640814237 185.0406284159587 L196.0996895876951 185.20103182147415 L196.3124555185766 185.37473377873502 L196.5063799881437 185.55998989307713 L196.68108521127218 185.7550622340419 L196.83633545384058 185.95823028760395 L196.97203194032974 186.16780128530812 L197.08820711186863 186.38211987246612 L197.18501830217207 186.5995770836049 L197.26274089944386 186.8186185993283 L197.3217610624734 187.03775226460886 L197.3625680588639 187.25555485424132 L197.38574629260907 187.4706780767285 L197.39196708711685 187.68185381320782 L197.3819802882811 187.88789859313923 L197.3566057503576 188.08771731333565 L197.31672476523605 188.28030621151157 L197.2632714932422 188.4647551098303 L197.19722445088615 188.6402489479372 L197.11959810802182 188.80606862865807 L197.0314346437295 188.9615912029129 L196.93379590690836 189.1062894234368 L196.82775562409648 189.23973069960792 L196.71439189345566 189.36157548805537 L196.59478000018933 189.47157515575788 L196.46998558493846 189.56956935404924 L196.34105819294425 189.6554829433233 L196.20902522800628 189.72932250928702 L196.07488633152437 189.79117251235047 L195.93960820321365 189.8411911121822 L195.80411987645067 189.8796057096011 L195.6693084576599 189.90670824784326 L195.5360153357068 189.92285031484073 L195.4050328639433 189.9284380874973 L195.277101514366 189.9239271580606 L195.15290750031738 189.90981728158394 L195.03308086129124 189.88664708216658 L194.91819400071222 189.85498875417017 L194.80876066505164 189.81544279295716 L194.70523535032555 189.76863278789432 L194.60801311990485 189.71520030843675 L194.51742981565192 189.65579991206866 L194.43376264268974 189.59109430074793 L194.35723110660777 189.52174965029752 L194.28799828061435 189.44843113492854 L194.22617237905658 189.3717986667825 L194.17180861284422 189.29250286806098 L194.12491130162752 189.21118129098718 L194.08543621708944 189.12845489852734 L194.05329313141002 189.04492481651053 L194.02834854484115 188.9611693655319 L194.0104285663848 188.87774137882124 L193.9993219217877 188.79516581012035 L193.99478306344304 188.71393763354544 L193.99653535731375 188.63452003542858 L194.0042743226523 188.55734289624147 L194.01767090107967 188.4828015589153 L194.03637473248713 188.4112558781874 L194.06001741623118 188.343029544036 L194.0882157371899 188.2784096708128 L194.12057483742882 188.21764664235397 L194.1566913154732 188.16095420214512 L194.19615623649184 188.10850977653814 L194.23855803805168 188.06045501806796 L194.28348531749407 188.0168965550961 L194.3305294883993 187.97790693331268 L194.37928729503838 187.94352573406113 L194.42936317514764 187.91376085400518 L194.48037146279367 187.8885899303346 L194.53193842451603 187.8679618954995 L194.58370412333147 187.85179864537074 L194.63532410655068 187.83999680474005 L194.686470914688 187.83242957419213 L194.73683541002978 187.82894864259828 L194.78612792466168 187.82938614979048 L194.83407922893315 187.833556684369 L194.88044132245537 187.84125930207009 L194.9249880507791 187.85227955066694 L194.96751555188226 187.86639148798733 L195.00784253750598 187.883359680302 L195.0458104152122 187.90294116905838 L195.08128325779478 187.9248873946996 L195.11414762735393 187.94894606711117 L195.14431226194554 187.974862973071 L195.17170763323747 188.0023837119342 L195.1962853840476 188.03125535165776 L195.21801765500211 188.06122799815398 L195.23689630984134 188.09205627184875 L195.25293206911093 188.12350068620793 L195.26615356211724 188.15532892387318 L195.27660630709394 188.18731700691464 L195.28435162952866 188.21925035855702 L195.28946552853458 188.25092475456037 L195.29203750102903 188.28214716323717 L195.292169333298 188.31273647385495 L195.28997386929163 188.34252411390906 L195.28557376470982 188.3713545564463 L195.27910023560833 188.39908571927754 L195.27069180988286 188.42558925853186 L195.2604930895822 188.45075075957436 L195.24865353155954 188.47446982883397 L195.23532625350316 188.4966600905633 L195.22066687189525 188.51724909298164 L195.20483237793553 188.53617812863084 L195.18798005693932 188.5534019741045 L195.17026645618134 188.56888855459292 L195.1518464056116 188.58261853891835 L195.13287209532078 188.5945848709227 L195.1134922130842 188.6047922432063 L195.09385114477004 188.61325651931307 L195.07408823985975 188.62000411050394 L195.05433714380308 188.6250713132717 L195.03472519841628 188.62850361371483 L195.01537291103594 188.6303549648197 L194.99639349266187 188.6306870425929 L194.9778924648652 188.62956848684559 L194.95996733480317 188.6270741322617 L194.9427073372711 188.623284235181 L194.92619324233846 188.61828370130397 L194.9104972267591 188.61216131927586 L194.89568280701596 188.60500900483908 L194.8818048315627 188.59692105995524 L194.8689095295539 188.58799345099723 L194.8570346131161 188.57832310979632 L194.84620943000328 188.56800726100502 L194.8364551632998 188.55714277890542 L194.82778507468635 188.5458255764554 L194.82020478766353 188.53415002902693 L194.81371260703716 188.52220843495124 L194.80829987090746 188.51009051464877 L194.8039513313679 188.49788294978984 L194.8006455601113 188.48566896360396 L194.79835537515592 188.4735279431391 L194.7970482849447 188.46153510396115 L194.79668694613218 188.4497611974882 L194.79722963145716 188.4382722608672 L194.79863070420188 188.42712940903135 L194.80084109585823 188.4163886683184 L194.80380878375863 188.40610085079115 L194.80747926558087 188.39631146817732 L194.81179602779952 188.38706068414024 L194.81670100533296 188.37838330340296 L194.82213502982003 188.37030879607926 L194.82803826415318 188.3628613554137 L194.83435062109493 188.35605998700007 L194.84101216400882 188.3499186274333 L194.84796348794308 188.34444629025617 L194.85514607951515 188.33964723698287 L194.8625026542544 188.33552117092424 L194.86997747026896 188.332063451497 L194.8775166173091 188.32926532667489 L194.88506828050123 188.3271141812309 L194.89258297822548 188.3255937984282 L194.90001377380133 188.32468463283746 L194.9073164608307 188.32436409199678 L194.91444972222598 188.32460682467772 L194.92137526311924 188.32538501358292 L194.92805791800953 188.32666867037418 L194.93446573265393 188.3284259310116 L194.94057002134986 188.33062334947678 L194.94634540038356 188.33322618805406 L194.9517697985394 188.3361987024498 L194.95682444567024 188.3395044201447 L194.96149384042528 188.34310641049154 L194.96576569831575 188.34696754519447 L194.9696308813706 188.351050747931 L194.97308331069533 188.3553192320064 L194.97611986329755 188.35973672505943 L194.9787402545793 188.36426767996744 L194.9809469079259 188.36887747122825 L194.98274481283642 188.37353257622428 L194.98414137304837 188.37820074089922 L194.98514624610652 188.38285112950064 L194.9857711758129 188.38745445816218 L194.98602981897517 188.39198311221205 L194.98593756784 188.39641124720785 L194.98551136956345 188.40071487380075 L194.98476954402426 188.40487192663355 L194.98373160123765 188.40886231757017 L194.9824180595703 188.41266797364207 L194.98085026589624 188.41627286017805 L194.97905021876772 188.41966298965784 L194.97704039560583 188.42282641689758 L194.97484358484223 188.42575322123503 L194.9724827238682 188.42843547643582 L194.96998074357026 188.43086720908752 L194.96736042015118 188.43304434628746 L194.9646442348575 188.43496465346183 L194.96185424215247 188.43662766317863 L194.9590119467952 188.43803459583495 L194.9561381902066 188.43918827311077 L194.95325304642523 188.44009302508678 L194.95037572788024 188.44075459192283 L194.94752450113364 188.44118002098708 L194.9447166126732 188.44137756031404 L194.9419682247684 188.44135654925228 L194.93929436133547 188.441127307141 L194.93670886369588 188.44070102082796 L194.934224356054 188.4400896318113 L194.93185222046398 188.43930572375336 L194.92960258100663 188.43836241107772 L194.92748429684886 188.43727322932008 L194.92550496381725 188.43605202786168 L194.92367092407864 188.43471286562828 L194.92198728348717 188.4332699102925 L194.92045793612868 188.43173734146828 L194.91908559556768 188.43012925833895 L194.91787183228254 188.4284595921099 L194.91681711675812 188.42674202362846 L194.91592086769313 188.424989906463 L194.91518150477182 188.42321619568574 L194.91459650544564 188.42143338255391 L194.91416246517022 188.4196534352379 L194.91387516054675 188.4178877456981 L194.91372961482358 188.41614708276828 L194.91372016522385 188.41444155145962 L194.91384053157816 188.4127805584597 L194.91408388575712 188.41117278376032 L194.91444292141668 188.40962615831336 L194.91490992359044 188.40814784757748 L194.9154768376851 188.4067442407885 L194.91613533746028 188.40542094575565 L194.91687689159974 188.40418278896036 L194.91769282850885 188.4030338207096 L194.91857439900085 188.401977325075 L194.91951283656493 188.4010158343303 L194.92049941493826 188.40015114758438 L194.92152550273477 188.39938435329307 L194.9225826149143 188.398715855324 L194.9236624609058 188.39814540223963 L194.92475698922928 188.397672119459 L194.92585842849002 188.39729454395618 L194.92695932464952 188.39701066115182 L194.9280525745046 188.39681794365765 L194.92913145533487 188.39671339153568 L194.93018965070527 188.3966935737419 L194.93122127243524 188.39675467043014 L194.93222087877155 188.39689251580225 L194.9331834888234 188.39710264120217 L194.93410459334103 188.39738031816276 L194.93498016193786 188.39772060112932 L194.93580664687553 188.39811836959822 L194.93658098354743 188.39856836942468 L194.9373005878111 188.39906525307137 L194.93796335033397 188.39960361858633 L194.93856762812817 188.40017804711707 L194.93911223345987 188.400783138786 L194.9395964203277 188.40141354677172 L194.94001986871086 188.40206400945837 L194.94038266679297 188.40272938053562 L194.94068529137073 188.40340465694914 L194.94092858665934 188.40408500462158 L194.9411137417064 188.40476578188063 L194.94124226662512 188.40544256054952 L194.94131596785607 188.4061111446727 L194.94133692266297 188.40676758686516 L194.94130745306308 188.40740820229024 L194.94123009938738 188.40802958028652 L194.94110759365932 188.40862859367724 L194.94094283297252 188.4092024058104 L194.9407388530402 188.40974847538993 L194.94049880207933 188.4102645591688 L194.9402259151835 188.41074871258712 L194.9399234893268 188.41119928844626 L194.9395948591321 188.41161493371922 L194.93924337352465 188.41199458460505 L194.93887237338055 188.41233745994057 L194.93848517026908 188.41264305308937 L194.93808502637523 188.41291112243064 L194.9376751356775 188.41314168057556 L194.93725860644423 188.41333498243972 L194.93683844510076 188.4134915123023 L194.93641754150758 188.4136119699834 L194.93599865567913 188.4136972562692 L194.93558440596254 188.41374845771543 L194.93517725868404 188.4137668309559 L194.9347795192626 188.4137537866406 L194.93439332477925 188.41371087312535 L194.9340206379827 188.41363976002947 L194.93366324270326 188.41354222177438 L194.93332274063872 188.41342012121083 L194.9330005494695 188.41327539343604 L194.93269790225327 188.41311002989752 L194.9324158480428 188.4129260628722 L194.9321552536672 188.41272555040487 L194.9319168066094 188.41251056178106 L194.93170101891118 188.41228316360454 L194.93150823203246 188.4120454065404 L194.93133862258813 188.4117993127793 L194.9311922088857 188.41154686427035 L194.93106885818278 188.41128999176243 L194.93096829458486 188.41103056468802 L194.93089010750185 188.4107703819153 L194.93083376058289 188.41051116338795 L194.93079860104908 188.41025454266577 L194.93078386934522 188.41000206037205 L194.93078870903335 188.40975515854817 L194.93081217685256 188.40951517590932 L194.93085325287225 188.40928334399078 L194.93091085066877 188.40906078416728 L194.93098382745845 188.40884850552496 L194.93107099412342 188.40864740355926 L194.93117112507028 188.40845825966926 L194.93128296786566 188.40828174141416 L194.9314052525965 188.40811840349514 L194.9315367009075 188.40796868942206 L194.9316760346719 188.40783293382268 L194.93182198425734 188.4077113653491 L194.93197329635063 188.4076041101351 L194.93212874131328 188.40751119575643 L194.93228712004026 188.40743255564416 L194.93244727030174 188.4073680339027 L194.93260807255072 188.40731739048124 L194.93276845518335 188.4072803066493 L194.93292739924397 188.40725639072673 L194.93308394256977 188.4072451840189 L194.93323718337496 188.40724616690935 L194.93338628327655 188.40725876506306 L194.9335304697689 188.407282355695 L194.93366903815624 188.40731627386023 L194.93380135295624 188.40735981872402 L194.93392684878975 188.40741225977214 L194.93404503077542 188.407472842924 L194.93415547444926 188.4075407965135 L194.93425782523207 188.4076153371051 L194.93435179746913 188.40769567511524 L194.93443717306843 188.40778102021122 L194.93451379976466 188.40787058646399 L194.9345815890381 188.4079635972317 L194.93464051371745 188.40805928975618 L194.93469060529753 188.40815691945468 L194.93473195100148 188.4082557638947 L194.93476469061955 188.40835512643935 L194.93478901315456 188.40845433955667 L194.93480515330492 188.40855276778566 L194.9348133878159 188.40864981035676 L194.93481403172828 188.4087449034654 L194.93480743455427 188.40883752220054 L194.934793976408 188.4089271821312 L194.93477406411844 188.40901344055712 L194.9347481273502 188.4090958974309 L194.93471661475743 188.409174195961 L194.93467999019396 188.40924802290652 L194.93463872900136 188.40931710857632 L194.93459331439595 188.409381226546 L194.93454423397276 188.4094401931082 L194.93449197634442 188.40949386647162 L194.93443702792976 188.40954214572616 L194.93437986990642 188.4095849695915 L194.93432097533932 188.40962231496724 L194.9342608064956 188.40965419530363 L194.93419981235425 188.4096806588114 L194.9341384263183 188.4097017865298 L194.93407706413402 188.4097176902724 L194.9340161220217 188.40972851046908 L194.93395597501976 188.40973441392325 L194.93389697554343 188.4097355915031 L194.93383945215675 188.40973225578423 L194.93378370855646 188.40972463866183 L194.93373002276425 188.40971298894885 L194.93367864652268 188.40969756997674 " stroke = "blue" stroke-width = "4" fill = "none" /></svg>