<svg width="600" height="400" viewbox = "0 0 600 400"  xmlns="http://www.w3.org/2000/svg">

<!--
<topfunctions>
function YofX(){
    X = plotparams.g*(x - plotparams.x0) - funcparams.X0;
    Y = funcparams.a*X*X*X + funcparams.b*X*X + funcparams.c*X + funcparams.d;
    y = plotparams.y0 - plotparams.G*(Y - funcparams.Y0);
}


function YofX2(){
    X = plotparams.g*(x - plotparams.x0) - funcparams.X0;
    Y = funcparams.b*X*X + funcparams.c*X + funcparams.d;
    y = plotparams.y0 - plotparams.G*(Y - funcparams.Y0);
}

function XYofT(){
    T = plotparams.g*t;
    X = Math.exp(-T/funcparams.tau)*Math.cos(2*Math.PI*T/funcparams.T);
    Y = Math.exp(-T/funcparams.tau)*Math.sin(2*Math.PI*T/funcparams.T);
    y = plotparams.y0 - plotparams.G*(Y - funcparams.Y0);
    x = plotparams.x0 - plotparams.G*(X - funcparams.X0);    
}


function plotfunction(){


    currentStroke = "blue";
    currentLineWidth = 4;
    ctx.strokeStyle = currentStroke;
    ctx.lineWidth = currentLineWidth;
    ctx.beginPath();	
    x = 0;
    y = 0;
    t= 0;
    XYofT();
    currentSVG += "	<path d = \"M";
    currentSVG += Math.round(x).toString() + " ";
    currentSVG += Math.round(y).toString() + " ";
    for(t = 1;t < plotparams.duration;t++){
        ctx.moveTo(x,y);
        XYofT();
        ctx.lineTo(x,y);
        currentSVG += "L" + x + " " + y + " ";
    }
    ctx.stroke();
    currentSVG += "\""+ " stroke = \"" + currentStroke + "\" stroke-width = \"" + currentLineWidth.toString() + "\" fill = \"" + "none" + "\" "+"/>";


    /*plot one function:
    currentStroke = "blue";
    currentLineWidth = 4;
    ctx.strokeStyle = currentStroke;
    ctx.lineWidth = currentLineWidth;
    ctx.beginPath();	
    x = 0;
    YofX();
    currentSVG += "	<path d = \"M";
    currentSVG += Math.round(x).toString() + " ";
    currentSVG += Math.round(y).toString() + " ";
    for(x = 1;x < plotparams.plotwidth;x++){
        ctx.moveTo(x-1,y);
        YofX();
        ctx.lineTo(x,y);
        currentSVG += "L" + x + " " + y + " ";
    }
    ctx.stroke();
    currentSVG += "\""+ " stroke = \"" + currentStroke + "\" stroke-width = \"" + currentLineWidth.toString() + "\" fill = \"" + "none" + "\" "+"/>";
    /*finish plot one function*/
    

}


   
   
  
   

</topfunctions>
-->

<!--
<imgurl>

</imgurl>
-->

<!--
<currentjson>
{
    "constants": {},
    "imgurl": "",
    "plotparams": {
        "G": 194.87171000000015,
        "g": 0.017985878990921366,
        "duration": 1414.7686146000008,
        "plotwidth": 600,
        "plotheight": 400,
        "x0": 341.9624203972771,
        "y0": 223.48293984071958
    },
    "funcparams": {
        "tau": 0.6361464275587274,
        "T": 1.0009978155968,
        "X0": 0,
        "Y0": 0
    }
}
</currentjson>
-->

<!--
<equation>
<p style="color:blue">

</p><p class="bigeq">
$$
(X,Y) = (e^{-t/\tau}\cos{\frac{2\pi t}{T}},e^{-t/\tau}\sin{\frac{2\pi t}{T}})

$$
</p>
<p></p>

$$
X = g(x - x_0) - X_0
$$
$$
Y = f(X)
$$
    
$$
y = y_0 - G(Y - Y_0)
$$


<p>
    X and Y, and $X_0$ and $Y_0$ in physical units of the System. x and y and x0 and y0 in pixels.  G is in pixels per Y unit and g is in X units per pixel. 
</p>


</equation>
-->
	<path d = "M147 223 L153.72916056613045 202.1414184553773 L162.4786996888227 182.2539267621244 L173.10817279375354 164.00212964397411 L185.37440421003535 147.53618832420864 L199.0260572084902 132.9745171061561 L213.8073888019225 120.40397109128497 L229.46185607723248 109.88043871230829 L245.7355347834278 101.42980903136987 L262.3803155284996 95.04928047572457 L279.15684776829806 90.70897502425834 L295.83720672738434 88.35381981868824 L312.2072634031736 87.90565674610977 L328.06874280160446 89.26553970982079 L343.2409604701393 92.31617905112353 L357.56223217178683 96.92449287778754 L370.8909561268778 102.94422586111244 L383.1063715879449 110.21859734423437 L394.109001563617 118.58294231654452 L403.8207912325008 127.86731090658267 L412.1849569564776 137.89899447976632 L419.16556378998877 148.50494914729464 L424.7468519693882 159.51409044702592 L428.9323350422413 170.75943609431633 L431.74369405455764 182.08007696940666 L433.2194935542001 193.32295985773976 L433.41374609645266 204.3444688420497 L432.39435246343794 215.01179561390168 L430.24144494792733 225.20409228400683 L427.0456608235394 234.81340348467873 L422.90637255056373 243.7453776373193 L417.92990037615243 251.9197601697108 L412.2277318085577 259.2706741830639 L405.9147710088456 265.74669656231924 L399.1076394831108 271.3107397745167 L391.9230476078174 275.9397515928252 L384.4762545152938 279.6242467060747 L376.8796317405083 282.36768561756463 L369.24134381865264 284.18571739884726 L361.66415675953965 285.1053037443243 L354.24438304202624 285.1637423747575 L347.07096950068603 284.4076081695401 L340.2247322469947 282.89163047931333 L333.77774060544715 280.67752489558626 L327.79284997597546 277.8327973482963 L322.3233815799092 274.4295377837568 L317.41294522689276 270.54321986400396 L313.0953995712046 266.2515221454662 L309.3949428214774 261.6331850625037 L306.32632553862726 256.7669167827984 L303.8951760107305 251.73035964032127 L302.09842773563054 246.59912741120567 L300.9248377744852 241.44592220161314 L300.35558416190116 236.33973818735137 L300.3649301678992 231.34515790451394 L300.92094299855796 226.52174525965134 L301.98625448853 221.92353792654367 L303.5188514705484 217.59864034266636 L305.4728837937031 213.5889171284439 L307.7994783913924 209.929785441133 L310.44754835796226 206.65010355558704 L313.364586665708 203.7721518472347 L316.4974349259766 201.31170134739995 L319.7930184539629 199.2781641546821 L323.19903982055814 197.67481922363257 L326.6646240504232 196.49910641662188 L330.1409096375962 195.74298119796146 L333.5815805831205 195.39332197062274 L336.94333569862795 195.43238180322658 L340.1862924515254 195.83827616474966 L343.27432363826205 196.58549827159254 L346.17532614994974 197.6454537499905 L348.8614220283283 198.987006518819 L351.3090928898438 200.57702809528888 L353.49924961284563 202.380942909687 L355.4172399302854 204.36326267540906 L357.0527972418291 206.48810338679863 L358.3999345503177 208.71967909918936 L359.45678793466976 211.0227672723337 L360.22541439256185 213.36314111937827 L360.71154922072697 215.707965088138 L360.92432834884585 218.02615029932795 L360.8759812062567 220.288667467714 L360.58149978159594 222.4688155274388 L360.0582895374643 224.54244486324419 L359.3258077696114 226.48813470681347 L358.40519485799075 228.28732488460992 L357.31890365105903 229.92440269380975 L356.09033196109345 231.38674623048564 L354.74346283371136 232.66472599423216 L353.30251689614505 233.75166704197568 L351.79162069328635 234.64377435770328 L350.23449449530096 235.34002444210122 L348.6541626129513 235.84202640529006 L347.07268879377744 236.1538560665044 L345.5109388009021 236.28186672700593 L343.9883718031125 236.2344803877976 L342.5228617363425 236.0219632335909 L341.13054933865163 235.65618920134798 L339.8257251187104 235.1503953985376 L338.62074309660517 234.51893303645653 L337.5259647598501 233.7770174014528 L336.5497323106692 232.9404802058665 L335.6983699461011 232.0255274454762 L334.97621161291994 231.04850564590416 L334.38565341676417 230.02567911161285 L333.927228640652 228.97302050270548 L333.59970314307475 227.90601676159335 L333.4001887603682 226.8394920985093 L333.3242722318232 225.78744942649791 L333.36615709823053 224.7629313173705 L333.51881599406033 223.77790123442546 L333.7741507585813 222.84314548945625 L334.1231578299275 221.96819607435643 L334.5560964560475 221.1612742347789 L335.062657354995 220.42925438774853 L335.6321295812703 219.7776477394066 L336.2535635018508 219.21060473532134 L336.91592795197346 218.73093527576884 L337.60825982339685 218.3401454533989 L338.31980453347467 218.0384894216753 L339.04014602863367 217.82503487995498 L339.75932518753956 217.69774056519734 L340.4679457042072 217.65354407087236 L341.15726674657077 217.6884582701199 L341.8192818987158 217.79767460175538 L342.44678410244074 217.97567148317785 L343.03341651361507 218.21632614223574 L343.57370937872713 218.51302820902845 L344.0631032151132 218.85879347668154 L344.4979587429387 219.24637632537633 L344.87555416663645 219.66837940427925 L345.1940705370572 220.11735927934956 L345.4525660421691 220.58592687910007 L345.65094017317233 221.06684170302526 L345.7898887940141 221.553098896374 L345.8708512054357 222.0380084380593 L345.89595033999893 222.51526583365265 L345.8679272524169 222.9790138505818 L345.79007108054464 223.42389497593285 L345.66614564734493 223.84509441686345 L345.5003138539909 224.2383735979339 L345.29706098008785 224.60009423718103 L345.06111796002176 224.92723320218863 L344.79738564598233 225.2173884576267 L344.5108609996729 225.46877651579157 L344.20656607756166 225.680221890825 L343.8894805902317 225.85113913494976 L343.5644787264626 225.9815081008408 L343.23627083860646 226.07184312794445 L342.9093504890789 226.1231568921185 L342.5879472597842 226.13691968751831 L342.2759856283973 226.11501492746456 L341.97705011891225 226.0596916575123 L341.6943568399296 225.97351486963404 L341.43073143389273 225.85931439198134 L341.18859337487646 225.72013310484888 L340.9699464724501 225.55917520106112 L340.77637536533615 225.3797551689306 L340.60904772168533 225.18524812915047 L340.46872180328916 224.97904210446245 L340.3557589993354 224.76449274369472 L340.27014089162327 224.54488096080263 L340.21149037763035 224.3233738858772 L340.17909635048744 224.1029894596949 L340.17194141566495 223.88656493722655 L340.18873211283204 223.67672949951142 L340.2279311076169 223.47588110829784 L340.2877908215115 223.2861676746522 L340.366387978483 223.1094725520781 L340.46165856346073 222.94740430722075 L340.57143271020516 222.80129066754512 L340.69346906352047 222.672176495962 L340.82548819270266 222.56082559765346 L340.96520466885795 222.4677261246462 L341.1103574575977 222.3930993092456 L341.25873831993454 222.33691122843777 L341.4082179572938 222.2988872778737 L341.55676968074624 222.27852901607696 L341.70249042922484 222.2751330269947 L341.8436190059935 222.28781144180735 L341.9785514464162 222.3155137588285 L342.1058534725882 222.35704960310585 L342.2242700311567 222.41111207467813 L342.33273194922646 222.47630134599743 L342.4303597792376 222.5511481844145 L342.51646493678214 222.6341370944276 L342.59054826521964 222.72372879618217 L342.65229618743973 222.81838178102655 L342.7015746280458 222.91657271131893 L342.73842090848336 223.01681545968307 L342.76303383316844 223.11767861206647 L342.7757621964791 223.21780128881875 L342.77709194860796 223.31590716814776 L342.7676322628293 223.41081662631484 L342.7481007478534 223.50145693841176 L342.719308046787 223.58687051216017 L342.6821420590105 223.66622115456457 L342.6375520132526 223.7387983971337 L342.58653260954645 223.80401992951124 L342.5301084348816 223.86143221349718 L342.4693188425035 223.91070936942077 L342.40520346827054 223.95165044449502 L342.3387885395648 223.98417518803987 L342.27107411328075 224.00831847123547 L342.2030223596851 224.02422349932957 L342.1355469887668 224.0321339719743 L342.0695038953522 224.03238535264566 L342.00568307903814 224.02539541096948 L341.9448018751418 224.0116542023357 L341.88749951363474 223.99171364754673 L341.834333004622 223.96617687156063 L341.78577433156227 223.93568745481292 L341.7422089172517 223.9009187433139 L341.70393531277836 223.86256335490597 L341.67116604630274 223.8213230089344 L341.64402955673484 223.7778987953322 L341.62257312722795 223.73298198696435 L341.60676672493344 223.68724548622 L341.59650764668464 223.64133598349656 L341.5916258651912 223.5958668915863 L341.59188996690756 223.55141210625098 L341.5970135709387 223.50850062963733 L341.6066621181018 223.46761207982084 L341.62045992048917 223.42917309682989 L341.6379973644795 223.3935546431392 L341.6588381640114 223.36107018496733 L341.6825265659459 223.33197472987717 L341.70859441537027 223.30646468626225 L341.7365679956056 223.28467850138136 L341.76597456532977 223.26669802674706 L341.7963485234767 223.25255055291882 L341.82723714128184 223.24221145013314 L341.85820580987075 223.23560734672773 L341.88884276099714 223.23261977398414 L341.91876322779757 223.233089203801 L341.94761302161857 223.23681940448927 L341.97507150996773 223.24358203990298 L342.000853989342 223.25312143802947 L342.0247134549875 223.26515945699649 L342.04644177746724 223.27940037913126 L342.0658703031713 223.29553576715298 L342.08286990254095 223.31324922070024 L342.0973504957347 223.3322209761057 L342.10926009070585 223.3521322975284 L342.1185833731502 223.3726696131537 L342.12533989150893 223.39352835606718 L342.1295818831649 223.41441647551574 L342.13139179015286 223.43505759048924 L342.1308795141314 223.45519376380395 L342.1281794610612 223.47458788106132 L342.1234474260249 223.49302562491118 L342.1168573679544 223.51031704089903 L342.1085981227455 223.5262976967533 L342.0988701013817 223.54082944221514 L342.08788201732597 223.5538007813764 L342.07584768461953 223.56512687393158 L342.0629829249184 223.57474918572836 L342.04950261816435 223.58263481249455 L342.0356179277899 223.58877550360427 L342.0215337273609 223.59318641521708 L342.00744625143443 223.59590462406868 L341.99354098920435 223.59698743462283 L341.9799908352956 223.596510513212 L341.96695450789343 223.59456588322305 L341.95457524031974 223.5912598153386 L341.94297974823286 223.58671064635567 L341.93227747088474 223.5810465592005 L341.92256008134825 223.57440335547386 L341.9139012573707 223.56692225023912 L341.9063567015383 223.55874771683676 L341.899964396781 223.55002540732573 L341.89474508091763 223.54090017174795 L341.8907029219566 223.53151419683837 L341.88782637423327 223.5220052820973 L341.8860891941792 223.51250526835022 L341.8854515935857 223.50313863108238 L341.8858615076331 223.49402124799337 L341.8872559546956 223.4852593474047 L341.88956246498907 223.47694864141093 L341.89270055548496 223.46917364501994 L341.89658322914465 223.4620071800137 L341.9011184774165 223.4555100598999 L341.90621076605197 223.44973095014325 L341.9117624856131 223.44470639587828 L341.91767534953243 223.44046100753152 L341.9238517242184 223.43700779322975 L341.930195877446 223.43434862555236 L341.9366151331027 223.43247482910147 L341.9430209222497 223.4313678745192 L341.94932972237166 223.4310001639704 L341.95546387860776 223.4313358927298 L341.961352302649 223.4323319713566 L341.9669310468353 223.43393899299443 L341.9721437527602 223.43610223059244 L341.97694197538226 223.43876264928448 L341.98128538522417 223.44185791977614 L341.98514185270193 223.44532341935394 L341.9884874199544 223.4490932080299 L341.9913061667303 223.45310096834777 L341.9935899779194 223.4572808984867 L341.99533822119446 223.4615685494815 L341.99655734394577 223.46590159861944 L341.99726039924695 223.47022055234805 L341.9974665109901 223.47446937332438 L341.997200288569 223.47859602752672 L341.99649120158523 223.48255294862733 L341.99537292499826 223.48629741806639 L341.9938826649602 223.48979186046213 L341.99206047526377 223.49300405512585 L341.9899485739124 223.49590726551176 L341.9875906687945 223.4984802894107 L341.9850313008324 223.5007074335848 L341.98231521228564 223.50257841733054 L341.97948674713405 223.50408821014625 L341.97658928966587 223.5052368092623 L341.9736647465546 223.50602896326626 L341.9707530768466 223.50647384842225 L341.9678918734079 223.50658470454303 L341.9651159985075 223.50637843742817 L341.962457275354 223.5058751949361 L341.95994423656674 223.50509792371594 L341.95760192976064 223.5040719134933 L341.9554517796618 223.50282433558874 L341.95351150545935 223.50138378205645 L341.95179509144486 223.49977981147123 L341.950312808395 223.49804250697318 L341.94907128262724 223.4962020517096 L341.9480736091986 223.49428832630244 L341.94731950533196 223.49233053242554 L341.9468054998399 223.49035684600727 L341.94652515407586 223.48839410299246 L341.94646930977177 223.48646752000607 L341.94662635902546 223.48460045167548 L341.9469825316668 223.48281418578708 L341.947522195269 223.4811277768924 L341.94822816316224 223.47955791843867 L341.9490820059578 223.4781188529872 L341.9500643622931 223.47682231960755 L341.95115524475193 223.47567753709504 L341.95233433720097 223.47469122126293 L341.95358128010383 223.47386763420874 L341.95487594072006 223.47320866314857 L341.9561986654662 223.47271392615693 L341.95753051209965 223.47238090194196 L341.9588534597805 223.47220508062762 L341.96015059546477 223.47218013240442 L341.9614062754777 223.47229809084774 L341.96260626150695 223.47254954768653 L341.9637378306328 223.47292385582995 L341.9647898593754 223.47340933752824 L341.965752882082 223.47399349464658 L341.96661912429704 223.47466321817046 L341.96738251205113 223.4754049942284 L341.968038658271 223.47620510411366 L341.96858482774655 223.4770498160039 L341.96901988229575 223.47792556631296 L341.96934420793565 223.4788191288595 L341.9695596260086 223.4797177702969 L341.9696692903137 223.4806093905151 L341.96967757236587 223.48148264699398 L341.96958993694597 223.48232706235467 L341.96941281011084 223.48313311461752 L341.96915344181576 223.48389230993058 L341.9688197652514 223.48459723777577 L341.96842025492674 223.48524160888897 L341.9679637854338 223.48582027634689 L341.9674594927144 223.48632924046754 L341.96691663951543 223.48676563835056 L341.96634448657437 223.48712771903922 L341.965752170912 223.48741480542088 L341.96514859244434 223.4876272440971 L341.9645423099465 223.48776634454305 L341.96394144722467 223.48783430894633 L341.9633536101671 223.4878341541602 L341.9627858151689 223.48776962723096 L341.9622444292459 223.4876451159649 L341.9617351219829 223.48746555598288 L341.96126282929765 223.48723633567892 L341.9608317288485 223.48696320044814 L341.96044522676726 223.48665215748397 L341.9601059552711 223.48630938236528 L341.9598157805856 223.4859411285645 L341.95957582050823 223.48555364090595 L341.95938647085126 223.48515307389582 L341.95924743992794 223.4847454157301 L341.95915779018634 223.48433641866808 L341.9591159860498 223.48393153633745 L341.95911994699435 223.48353586841412 L341.9591671048756 223.48315411299953 L341.9592544645187 223.48279052689864 L341.95937866659483 223.4824488938863 L341.95953605183 223.48213250094082 L341.9597227256303 223.48184412231905 L341.9599346222492 223.48158601125132 L341.9601675676788 223.4813598989467 L341.9604173405071 223.48116700051972 L341.9606797300535 223.48100802738006 L341.9609505911668 223.48088320556684 L341.9612258951487 223.48079229945964 L341.9615017763455 223.48073464025873 L341.96177457403417 223.48070915859756 L341.9620408693093 223.48071442063153 L341.9622975167616 223.48074866693705 L341.9625416708172 223.48080985355472 L341.9627708066845 223.48089569451903 L341.9629827359299 223.48100370523312 L341.9631756167733 223.4811312460718 L341.9633479592562 223.48127556562682 L341.9634986254997 223.48143384304475 L341.96362682531515 223.48160322895095 L341.9637321074838 223.48178088449876 L341.9638143470563 223.48196401813343 L341.9638737290592 223.48214991971264 L341.96391072901906 223.48233599168046 L341.96392609073666 223.4825197770462 L341.96392080175383 223.4826989839764 L341.96389606696283 223.4828715068619 L341.9638532808078 223.48303544377745 L341.96379399852094 223.48318911030182 L341.96371990682474 223.48333104971735 L341.963632794516 223.48346003965315 L341.9635345233235 223.4835750952808 L341.96342699940925 223.48367546920935 L341.96331214585126 223.4837606482631 L341.9631918764175 223.4838303473553 L341.96306807090343 223.4838845006988 L341.9629425522725 223.48392325061457 L341.96281706580135 223.4839469342186 L341.96269326039277 223.48395606827805 L341.9625726721844 223.48395133253683 L341.9624567105416 223.48393355181415 L341.9623466464878 223.4839036771788 L341.96224360359116 223.48386276649785 L341.9621485512916 223.4838119646497 L341.96206230062194 223.4837524836806 L341.96198550224864 223.48368558316832 L341.961918646729 223.4836125510405 L341.96186206686065 223.48353468507423 L341.9618159419774 223.4834532752835 L341.961780304027 223.48336958737687 L341.96175504525377 223.48328484744434 L341.9617399272967 223.48320022800735 L341.9617345915052 223.48311683554022 L341.96173857027 223.48303569954646 L341.96175129916435 223.48295776324827 L341.9617721296915 223.48288387592262 L341.9618003424371 223.48281478689464 L341.9618351604311 223.4827511411759 L341.9618757625328 223.4826934767148 L341.9619212966603 223.48264222320614 L341.9619708927002 223.4825977023906 L341.9620236749445 223.48256012975733 L341.9620787739173 223.48252961755088 L341.9621353374697 223.48250617897082 L341.96219254103613 223.48248973344332 L341.9622495969647 223.48248011283644 L341.9623057628485 223.48247706848548 L341.9623603488039 223.48248027889147 L341.96241272365796 223.4824893579544 L341.96246232002323 223.48250386360368 L341.96250863825423 223.48252330669033 L341.9625512492959 223.4825471600095 L341.9625897964466 223.48257486732774 L341.9626239960721 223.48260585229562 L341.9626536373199 223.48263952713506 L341.9626785808911 223.48267530099943 L341.96269875693946 223.48271258791436 L341.9627141621712 223.48275081421775 L341.96272485623 223.4827894254291 L341.9627309574519 223.48282789248861 L341.96273263808234 223.48286571731893 L341.96273011904617 223.4829024376737 L341.9627236643657 223.48293763124803 L341.962713575318 223.48297091903785 L341.962700184424 223.48300196794463 L341.96268384935655 223.48303049263347 L341.9626649468526 223.48305625666035 L341.96264386670987 223.48307907289455 L341.96262100594095 223.4830988032691 L341.9625967631544 223.48311535789944 L341.96257153322375 223.483128693617 L341.96254570229837 223.48313881196867 L341.96251964320385 223.48314575673797 L341.9624937112702 223.48314961104725 L341.9624682406197 223.48315049410147 L341.96244354093756 223.48314855763638 L341.9624198947419 223.48314398213424 L341.9623975551611 223.48313697286915 L341.9623767442197 223.48312775584395 L341.962357651628 223.48311657367776 L341.9623404340629 223.4831036815009 L341.9623252149235 223.48308934291114 L341.9623120845368 223.48307382604065 L341.96230110078824 223.4830573997798 L341.9622922901435 223.48304033019832 L341.96228564902805 223.4830228772005 L341.9622811455252 223.48300529144535 L341.9622787213547 223.48298781155756 L341.96227829408843 223.48297066165034 L341.9622797595622 223.48295404917513 L341.96228299444124 223.4829381631087 L341.96228785889616 223.48292317248323 L341.96229419934934 223.482909225259 L341.962301851251 223.48289644753683 L341.9623106418468 223.48288494310108 L341.96232039290123 223.48287479328118 L341.96233092334387 223.4828660571165 L341.96234205180673 223.48285877180513 L341.9623535990265 223.48285295341526 L341.96236539008703 223.4828485978356 L341.9623772564808 223.48284568193887 L341.9623890379737 223.48284416493132 L341.9624005842574 223.4828439898608 L341.96241175638136 223.4828450852541 L341.96242242795574 223.48284736685554 L341.9624324861237 223.482850739438 L341.96244183230175 223.48285509865872 L341.96245038269194 223.482860332933 L341.96245806857127 223.48286632530025 L341.9624648363668 223.48287295525787 L341.96247064752754 223.48288010054122 L341.9624754782057 223.4828876388288 L341.96247931876195 223.48289544935434 L341.96248217311125 223.4829034144099 L341.962484057926 223.48291142072608 L341.9624850017154 223.48291936071803 L341.96248504379975 223.48292713358805 L341.9624842331987 223.48293464627832 L341.9624826274536 223.48294181426965 L341.9624802914014 223.4829485622236 L341.9624772959213 223.48295482446898 L341.96247371667 223.48296054533404 L341.96246963282374 223.4829656793292 L341.96246512584344 223.48297019118547 L341.96246027827743 223.48297405575667 L341.962455172616 223.48297725779355 L341.9624498902092 223.48297979160031 L341.96244451025984 223.48298166058433 L341.9624391088993 223.48298287671082 L341.9624337583551 223.482983459875 L341.9624285262155 223.48298343720438 L341.9624234747954 223.48298284230438 L341.96241866060666 223.48298171446004 L341.9624141339336 223.48298009780706 L341.96240993851393 223.4829780404846 L341.9624061113236 223.4829755937818 L341.96240268246186 223.48297281129015 L341.9623996751335 223.4829697480718 L341.9623971057227 223.48296645985445 L341.9623949839524 223.48296300226173 L341.96239331312256 223.4829594300872 L341.9623920904202 223.48295579661928 L341.9623913072921 223.482952153023 L341.962390949873 223.4829485477837 L341.9623909994601 223.48294502621653 L341.9623914330251 223.48294163004473 L341.9623922237547 223.4829383970483 L341.9623933416115 223.48293536078359 L341.9623947539065 223.48293255037444 L341.96239642587466 223.48292999037253 L341.9623983212465 223.48292770068585 L341.9624004028078 223.4829256965721 L341.96240263294123 223.48292398869376 L341.9624049741431 223.48292258323028 L341.96240738951053 223.48292148204345 L341.962409843194 223.48292068289012 L341.96241230081074 223.48292017967756 L341.96241472981666 223.48291996275503 L341.96241709983315 223.48292001923653 L341.9624193829276 223.4829203333481 L341.9624215538466 223.482920886794 L341.96242359020056 223.4829216591362 L341.96242547260096 223.4829226281808 L341.96242718475037 223.48292377036665 L341.96242871348676 223.48292506115044 L341.9624300487845 223.4829264753834 L341.9624311837135 223.48292798767562 L341.96243211436047 223.48292957274307 L341.96243283971444 223.4829312057345 L341.96243336152037 223.48293286253457 L341.96243368410495 223.48293452004046 L341.96243381417736 223.48293615641026 L341.96243376061057 223.4829377512809 L341.9624335342051 223.48293928595467 L341.96243314744135 223.48294074355366 L341.9624326142229 223.48294210914173 L341.9624319496156 223.48294336981422 L341.9624311695851 223.48294451475599 L341.9624302907378 223.48294553526884 L341.96242933006687 223.48294642476952 L341.96242830470754 223.48294717876013 L341.96242723170405 223.48294779477246 L341.96242612779014 223.4829482722891 L341.9624250091863 223.48294861264282 L341.9624238914144 223.4829488188974 L341.9624227891321 223.48294889571213 L341.9624217159875 223.48294884919287 L341.96242068449493 223.48294868673204 L341.962419705933 223.4829484168409 L341.96241879026377 223.48294804897586 L341.96241794607454 223.4829475933622 L341.9624171805401 223.48294706081737 L341.96241649940623 223.482946462576 L341.96241590699253 223.48294581011928 L341.9624154062142 223.48294511501032 L341.96241499862055 223.48294438873768 L341.9624146844502 223.48294364256813 L341.9624144626996 223.4829428874108 L341.96241433120474 223.48294213369329 L341.9624142867333 223.48294139125096 L341.96241432508594 223.48294066923017 L341.9624144412047 223.48293997600575 L341.9624146292868 223.4829393191134 L341.9624148829018 223.48293870519652 L341.96241519511074 223.482938139968 L341.9624155585855 223.48293762818622 L341.9624159657264 223.48293717364487 L341.96241640877713 223.48293677917616 L341.9624168799356 223.48293644666637 L341.96241737145874 223.48293617708302 L341.9624178757614 223.48293597051276 L341.9624183855073 223.48293582620857 L341.96241889369196 223.4829357426454 L341.96241939371635 223.4829357175831 L341.9624198794518 223.4829357481351 L341.96242034529433 223.48293583084202 L341.9624207862099 223.48293596174855 L341.96242119776906 223.48293613648286 L341.96242157617195 223.48293635033693 L341.9624219182639 223.48293659834695 L341.9624222215412 223.48293687537281 L341.9624224841485 223.48293717617523 L341.9624227048672 223.48293749549018 L341.962422883097 223.48293782809964 L341.96242301882927 223.48293816889748 L341.962423112615 223.48293851295057 L341.9624231655266 223.4829388555543 L341.96242317911526 223.48293919228158 L341.96242315536404 223.4829395190262 L341.96242309663825 223.48293983203888 L341.9624230056331 223.48294012795714 L341.9624228853205 223.48294040382825 L341.9624227388942 223.48294065712548 L341.96242256971595 223.48294088575796 L341.96242238126206 223.4829410880742 L341.9624221770712 223.48294126285973 L341.96242196069437 223.48294140932893 L341.962421735648 223.4829415271119 L341.96242150536887 223.4829416162364 L341.96242127317385 223.48294167710557 L341.96242104222256 223.4829417104722 L341.9624208154847 223.48294171740937 L341.962420595711 223.48294169927885 L341.9624203854097 223.48294165769727 L341.9624201868263 223.48294159450091 L341.9624200019288 223.48294151170936 L341.96241983239696 223.48294141148898 L341.962419679616 223.48294129611628 L341.96241954467484 223.4829411679419 L341.96241942836764 223.48294102935571 L341.96241933119984 223.48294088275307 L341.9624192533975 223.48294073050317 L341.9624191949193 223.4829405749192 L341.9624191554721 223.482940418231 L341.9624191345285 223.48294026256045 L341.96241913134673 223.48294010989926 L341.9624191449922 223.48293996209014 L341.96241917436026 223.48293982081066 L341.9624192182002 223.4829396875602 L341.96241927513967 223.48293956365018 L341.96241934370954 223.48293945019705 L341.9624194223685 223.48293934811824 L341.9624195095271 223.4829392581312 L341.96241960357156 223.48293918075493 L341.9624197028863 223.48293911631384 L341.962419805875 223.48293906494453 L341.96241991098117 223.48293902660404 L341.96242001670566 223.48293900108044 L341.96242012162384 223.4829389880048 L341.96242022439986 223.48293898686478 L341.9624203237996 223.4829389970192 L341.9624204187012 223.48293901771356 L341.96242050810343 223.48293904809614 L341.96242059113285 223.48293908723468 L341.96242066704747 223.48293913413295 L341.9624207352399 223.48293918774746 L341.9624207952377 223.48293924700369 L341.9624208467021 223.482939310812 L341.96242088942535 223.48293937808282 L341.96242092332596 223.48293944774085 L341.962420948443 223.4829395187386 L341.96242096492915 223.48293959006847 L341.9624209730419 223.48293966077392 L341.96242097313495 223.4829397299592 L341.96242096564794 223.48293979679787 L341.9624209510961 223.48293986053963 L341.9624209300592 223.48293992051634 L341.9624209031706 223.48293997614604 L341.9624208711056 223.48294002693592 L341.96242083457065 223.482940072484 L341.9624207942921 223.48294011247933 L341.9624207510055 223.48294014670103 L341.9624207054457 223.48294017501635 L341.96242065833695 223.4829401973776 L341.9624206103841 223.48294021381793 L341.9624205622643 223.48294022444662 L341.96242051461974 223.4829402294434 L341.962420468051 223.48294022905208 L341.9624204231115 223.48294022357408 L341.96242038030283 223.48294021336113 L341.96242034007093 223.48294019880785 L341.9624203028034 223.48294018034434 L341.9624202688275 223.48294015842842 L341.9624202384091 223.48294013353816 L341.9624202117528 223.48294010616453 L341.96242018900244 223.4829400768041 L341.96242017024247 223.48294004595235 L341.96242015550035 223.48294001409707 L341.9624201447491 223.48293998171246 L341.9624201379107 223.48293994925365 L341.96242013486005 223.48293991715164 L341.96242013542894 223.48293988580912 L341.962420139411 223.4829398555966 L341.9624201465661 223.48293982684942 L341.9624201566258 223.4829397998651 L341.96242016929796 223.48293977490175 L341.96242018427233 223.48293975217658 L341.96242020122537 223.48293973186546 L341.9624202198252 223.4829397141029 L341.9624202397368 223.48293969898242 L341.96242026062595 223.48293968655764 L341.96242028216426 223.48293967684384 L341.9624203040326 223.48293966981973 L341.9624203259253 223.4829396654298 L341.96242034755295 223.48293966358705 L341.96242036864567 223.4829396641756 L341.96242038895537 223.48293966705413 L341.9624204082579 223.4829396720588 L341.96242042635487 223.4829396790069 L341.9624204430744 223.48293968770025 L341.96242045827233 223.4829396979285 L341.96242047183233 223.4829397094727 L341.96242048366616 223.4829397221087 L341.962420493713 223.48293973561022 L341.962420501939 223.4829397497521 L341.962420508336 223.4829397643131 L341.9624205129204 223.48293977907863 L341.96242051573154 223.48293979384323 L341.96242051683004 223.48293980841274 L341.9624205162955 223.48293982260623 L341.96242051422473 223.48293983625766 L341.9624205107295 223.48293984921725 L341.962420505934 223.4829398613526 L341.9624204999729 223.48293987254934 L341.9624204929886 223.48293988271186 L341.9624204851293 223.48293989176327 L341.96242047654647 223.48293989964563 L341.9624204673928 223.4829399063195 L341.96242045782003 223.48293991176357 L341.96242044797714 223.4829399159738 L341.9624204380085 223.48293991896264 L341.9624204280521 223.48293992075796 L341.96242041823825 223.48293992140174 L341.9624204086882 223.4829399209488 L341.9624203995131 223.48293991946545 L341.96242039081307 223.48293991702778 L341.9624203826763 223.48293991372037 L341.96242037517897 223.48293990963452 L341.96242036838447 223.48293990486678 L341.9624203623436 223.48293989951736 L341.96242035709435 223.4829398936886 L341.96242035266226 223.48293988748352 L341.9624203490607 223.48293988100446 L341.9624203462914 223.48293987435164 L341.96242034434505 223.4829398676222 L341.9624203432019 223.48293986090886 L341.962420342833 223.48293985429902 L341.9624203432005 223.48293984787392 L341.96242034425916 223.48293984170797 L341.962420345957 223.482939835868 L341.9624203482366 223.48293983041293 L341.962420351036 223.48293982539332 L341.96242035428963 223.48293982085127 L341.96242035792994 223.4829398168203 L341.96242036188767 223.48293981332532 L341.96242036609334 223.48293981038282 L341.962420370478 223.48293980800116 L341.96242037497416 223.4829398061808 L341.96242037951646 223.48293980491485 L341.9624203840427 223.4829398041895 L341.96242038849414 223.48293980398455 L341.9624203928164 223.48293980427408 L341.9624203969597 223.4829398050271 L341.9624204008794 223.4829398062082 L341.9624204045362 223.48293980777837 L341.9624204078965 223.48293980969552 L341.9624204109324 223.48293981191537 L341.9624204136217 223.48293981439207 L341.9624204159482 223.48293981707894 L341.96242041790117 223.48293981992904 L341.9624204194755 223.48293982289596 L341.96242042067126 223.4829398259342 L341.96242042149356 223.4829398289999 L341.9624204219521 223.48293983205122 L341.96242042206086 223.48293983504882 L341.96242042183763 223.4829398379562 L341.9624204213036 223.4829398407401 L341.96242042048283 223.48293984337067 L341.962420419402 223.48293984582176 L341.96242041808955 223.48293984807097 L341.96242041657547 223.48293985009983 L341.96242041489074 223.48293985189375 L341.962420413067 223.48293985344205 L341.9624204111358 223.48293985473788 L341.96242040912847 223.48293985577808 L341.96242040707557 223.482939856563 L341.9624204050067 223.48293985709637 L341.9624204029499 223.482939857385 L341.9624204009315 223.48293985743854 L341.962420398976 223.4829398572692 L341.9624203971057 223.48293985689148 L341.9624203953405 223.4829398563218 L341.96242039369776 223.4829398555782 L341.9624203921924 223.48293985468 L341.96242039083677 223.4829398536476 L341.96242038964033 223.48293985250186 L341.9624203886101 223.48293985126415 L341.96242038775057 223.48293984995576 L341.9624203870636 223.48293984859782 L341.96242038654873 223.4829398472109 L341.9624203862033 223.48293984581483 L341.96242038602253 223.4829398444285 L341.96242038599974 223.4829398430696 L341.96242038612655 223.4829398417545 L341.9624203863931 223.4829398404981 L341.9624203867881 223.48293983931364 L341.9624203872994 223.48293983821284 L341.9624203879138 223.4829398372055 L341.9624203886176 223.48293983629978 L341.96242038939664 223.482939835502 L341.9624203902365 223.4829398348167 L341.9624203911228 223.48293983424674 L341.96242039204134 223.48293983379324 L341.96242039297823 223.4829398334558 L341.9624203939202 223.48293983323245 L341.9624203948545 223.48293983311987 L341.96242039576936 223.48293983311345 L341.96242039665367 223.4829398332074 L341.9624203974976 223.48293983339505 L341.9624203982923 223.48293983366872 L341.9624203990299 223.48293983402007 L341.9624203997039 223.48293983444026 L341.9624204003089 223.48293983491993 L341.96242040084076 223.4829398354495 L341.9624204012965 223.4829398360193 L341.9624204016743 223.48293983661964 L341.96242040197353 223.48293983724085 L341.96242040219454 223.4829398378737 L341.9624204023387 223.48293983850917 L341.9624204024083 223.4829398391388 L341.9624204024067 223.4829398397546 L341.9624204023376 223.48293984034925 L341.9624204022058 223.48293984091606 L341.96242040201633 223.48293984144914 L341.96242040177503 223.4829398419433 L341.96242040148775 223.4829398423942 L341.96242040116095 223.4829398427983 L341.96242040080097 223.48293984315282 L341.9624204004145 223.48293984345582 L341.96242040000794 223.48293984370622 L341.9624203995878 223.48293984390352 L341.9624203991604 223.48293984404813 L341.96242039873175 223.482939844141 L341.9624203983075 223.48293984418373 L341.96242039789297 223.48293984417856 L341.9624203974932 223.48293984412817 L341.96242039711257 223.4829398440357 L341.96242039675496 223.48293984390475 L341.96242039642397 223.48293984373905 L341.96242039612235 223.48293984354274 L341.96242039585246 223.4829398433201 L341.9624203956162 223.4829398430755 L341.96242039541477 223.48293984281335 L341.96242039524896 223.48293984253806 L341.9624203951189 223.482939842254 L341.96242039502437 223.48293984196536 L341.9624203949647 223.4829398416762 L341.96242039493865 223.48293984139036 L341.96242039494484 223.48293984111143 L341.9624203949814 223.48293984084265 L341.96242039504614 223.48293984058705 L341.96242039513663 223.48293984034723 L341.9624203952503 223.4829398401255 L341.96242039538447 223.48293983992377 L341.96242039553607 223.4829398397436 L341.9624203957023 223.48293983958618 L341.96242039588003 223.4829398394523 L341.9624203960664 223.4829398393425 L341.9624203962585 223.4829398392568 L341.96242039645335 223.48293983919507 L341.9624203966484 223.4829398391568 L341.96242039684097 223.48293983914118 L341.96242039702867 223.48293983914718 L341.96242039720937 223.48293983917355 L341.962420397381 223.48293983921877 L341.9624203975418 223.48293983928127 L341.9624203976903 223.48293983935926 L341.9624203978252 223.48293983945086 L341.9624203979455 223.4829398395541 L341.96242039805037 223.48293983966698 L341.9624203981393 223.48293983978752 L341.962420398212 223.4829398399137 L341.9624203982684 223.48293984004354 L341.96242039830867 223.48293984017513 L341.96242039833317 223.48293984030664 L341.9624203983424 223.48293984043636 L341.96242039833714 223.48293984056266 L341.9624203983182 223.4829398406841 L341.9624203982866 223.48293984079933 L341.9624203982435 223.48293984090716 L341.96242039819003 223.4829398410066 L341.9624203981275 223.4829398410968 L341.96242039805725 223.48293984117709 L341.96242039798057 223.48293984124695 L341.9624203978988 223.482939841306 L341.96242039781345 223.48293984135412 L341.9624203977257 223.48293984139124 L341.96242039763683 223.48293984141748 L341.96242039754816 223.48293984143308 L341.9624203974608 223.48293984143848 L341.9624203973758 223.48293984143407 L341.9624203972942 223.48293984142055 L341.9624203972168 223.48293984139855 L341.9624203971445 223.48293984136882 L341.96242039707795 223.48293984133218 L341.96242039701764 223.4829398412895 L341.9624203969641 223.48293984124166 L341.96242039691754 223.4829398411896 L341.9624203968783 223.4829398411342 L341.9624203968465 223.4829398410764 L341.9624203968221 223.48293984101707 L341.96242039680504 223.4829398409571 L341.9624203967951 223.48293984089733 L341.962420396792 223.48293984083847 L341.96242039679555 223.4829398407813 L341.9624203968052 223.48293984072646 L341.9624203968205 223.48293984067453 L341.962420396841 223.48293984062607 L341.9624203968661 223.48293984058148 L341.96242039689525 223.48293984054118 L341.96242039692777 223.48293984050542 L341.9624203969631 223.48293984047447 L341.9624203970007 223.48293984044844 L341.9624203970398 223.4829398404274 L341.9624203970799 223.48293984041135 L341.96242039712035 223.48293984040026 L341.96242039716066 223.48293984039395 L341.9624203972003 223.4829398403923 L341.96242039723876 223.48293984039503 L341.9624203972756 223.48293984040188 L341.96242039731044 223.48293984041254 L341.96242039734295 223.48293984042664 L341.9624203973728 223.48293984044383 L341.96242039739974 223.4829398404637 L341.96242039742356 223.48293984048584 L341.9624203974442 223.48293984050983 L341.96242039746147 223.48293984053527 L341.96242039747534 223.48293984056176 L341.9624203974859 223.48293984058884 L341.9624203974931 223.48293984061615 L341.96242039749706 223.48293984064333 L341.9624203974979 223.48293984067 L341.9624203974958 223.48293984069588 L341.962420397491 223.48293984072063 L341.9624203974836 223.48293984074402 L341.96242039747386 223.4829398407658 L341.9624203974621 223.48293984078578 L341.96242039744857 223.48293984080377 L341.9624203974335 223.48293984081968 L341.9624203974172 223.48293984083338 L341.96242039739997 223.48293984084486 L341.96242039738206 223.48293984085404 L341.96242039736376 223.48293984086095 L341.96242039734534 223.4829398408656 L341.96242039732704 223.4829398408681 L341.9624203973091 223.4829398408685 L341.9624203972916 223.48293984086695 L341.962420397275 223.4829398408635 L341.96242039725934 223.4829398408584 L341.9624203972447 223.4829398408517 L341.96242039723137 223.48293984084364 L341.9624203972193 223.4829398408344 L341.96242039720875 223.48293984082417 L341.9624203971996 223.48293984081312 L341.962420397192 223.48293984080144 L341.96242039718595 223.48293984078933 L341.9624203971814 223.48293984077696 L341.9624203971784 223.48293984076454 L341.9624203971768 223.48293984075218 L341.9624203971767 223.4829398407401 L341.9624203971778 223.4829398407284 L341.96242039718027 223.48293984071722 L341.9624203971838 223.48293984070668 L341.9624203971884 223.4829398406969 L341.9624203971939 223.48293984068798 L341.9624203972002 223.48293984067993 L341.96242039720715 223.48293984067286 L341.96242039721466 223.48293984066677 L341.96242039722256 223.48293984066174 L341.9624203972308 223.48293984065774 L341.96242039723916 223.48293984065478 L341.9624203972475 223.48293984065282 L341.96242039725587 223.48293984065185 L341.962420397264 223.48293984065182 L341.96242039727184 223.4829398406527 L341.96242039727935 223.48293984065438 L341.9624203972864 223.48293984065685 L341.962420397293 223.48293984066 L341.96242039729896 223.4829398406638 L341.9624203973043 223.48293984066808 L341.962420397309 223.4829398406728 L341.96242039731305 223.4829398406779 L341.9624203973164 223.48293984068326 L341.9624203973191 223.4829398406888 L341.962420397321 223.48293984069443 L341.96242039732226 223.48293984070008 L341.96242039732283 223.48293984070568 L341.96242039732283 223.48293984071117 L341.9624203973222 223.48293984071645 L341.962420397321 223.4829398407215 L341.9624203973193 223.48293984072626 L341.96242039731715 223.48293984073064 L341.96242039731453 223.48293984073464 L341.96242039731163 223.48293984073823 L341.9624203973084 223.48293984074135 L341.962420397305 223.48293984074405 L341.96242039730134 223.48293984074627 L341.9624203972976 223.482939840748 L341.9624203972938 223.48293984074928 L341.96242039729 223.48293984075008 L341.96242039728617 223.48293984075045 L341.9624203972825 223.4829398407504 L341.96242039727895 223.48293984074994 L341.96242039727554 223.48293984074908 L341.96242039727235 223.48293984074792 L341.9624203972694 223.48293984074644 L341.9624203972667 223.48293984074468 L341.96242039726434 223.4829398407427 L341.96242039726224 223.4829398407405 L341.9624203972605 223.48293984073814 L341.962420397259 223.4829398407357 L341.96242039725786 223.48293984073317 L341.962420397257 223.48293984073058 L341.9624203972565 223.48293984072802 L341.96242039725627 223.48293984072546 L341.9624203972564 223.482939840723 L341.96242039725666 223.4829398407206 L341.9624203972573 223.48293984071833 L341.9624203972581 223.4829398407162 L341.9624203972591 223.4829398407142 L341.9624203972603 223.48293984071242 L341.96242039726167 223.48293984071083 L341.96242039726314 223.48293984070943 L341.96242039726474 223.48293984070824 L341.9624203972664 223.48293984070727 L341.9624203972681 223.48293984070654 L341.96242039726985 223.482939840706 L341.9624203972716 223.48293984070565 L341.9624203972733 223.4829398407055 L341.96242039727497 223.48293984070557 L341.96242039727656 223.48293984070582 L341.9624203972781 223.48293984070622 L341.9624203972795 223.4829398407068 L341.9624203972809 223.4829398407075 L341.9624203972821 223.4829398407083 L341.9624203972831 223.48293984070924 L341.96242039728406 223.48293984071023 L341.96242039728486 223.4829398407113 L341.9624203972855 223.48293984071245 L341.962420397286 223.4829398407136 L341.96242039728634 223.48293984071478 L341.96242039728656 223.48293984071594 L341.9624203972866 223.4829398407171 L341.96242039728656 223.48293984071822 L341.9624203972864 223.4829398407193 L341.9624203972861 223.48293984072032 L341.9624203972857 223.4829398407213 L341.96242039728526 223.48293984072217 L341.9624203972847 223.48293984072296 L341.96242039728406 223.48293984072367 L341.9624203972834 223.4829398407243 L341.96242039728264 223.4829398407248 L341.9624203972819 223.48293984072524 L341.9624203972811 223.48293984072558 L341.9624203972803 223.4829398407258 L341.9624203972795 223.48293984072595 L341.9624203972787 223.48293984072598 L341.962420397278 223.48293984072595 L341.96242039727724 223.48293984072583 L341.96242039727656 223.48293984072563 L341.96242039727593 223.48293984072535 L341.9624203972753 223.48293984072504 L341.9624203972748 223.48293984072464 L341.96242039727434 223.4829398407242 L341.9624203972739 223.48293984072376 L341.96242039727355 223.48293984072325 L341.96242039727326 223.48293984072274 L341.9624203972731 223.48293984072222 L341.9624203972729 223.48293984072168 L341.9624203972728 223.48293984072114 L341.9624203972728 223.48293984072063 L341.96242039727287 223.48293984072012 L341.9624203972729 223.48293984071964 L341.9624203972731 223.48293984071915 L341.96242039727326 223.48293984071873 L341.9624203972735 223.48293984071833 L341.9624203972737 223.482939840718 L341.962420397274 223.48293984071765 L341.96242039727434 223.4829398407174 L341.9624203972747 223.48293984071717 L341.962420397275 223.48293984071697 L341.96242039727537 223.48293984071682 L341.96242039727576 223.48293984071674 L341.9624203972761 223.48293984071668 L341.96242039727645 223.48293984071665 L341.9624203972768 223.48293984071668 L341.9624203972771 223.48293984071677 L341.9624203972774 223.48293984071685 L341.9624203972777 223.48293984071697 L341.962420397278 223.48293984071714 L341.9624203972782 223.4829398407173 L341.96242039727844 223.4829398407175 L341.9624203972786 223.48293984071773 L341.9624203972788 223.48293984071796 L341.9624203972789 223.4829398407182 L341.962420397279 223.48293984071842 L341.96242039727906 223.48293984071867 L341.96242039727906 223.4829398407189 L341.9624203972791 223.48293984071915 L341.96242039727906 223.48293984071938 L341.962420397279 223.4829398407196 L341.96242039727895 223.4829398407198 L341.9624203972789 223.48293984072 L341.9624203972788 223.48293984072018 L341.96242039727866 223.48293984072035 L341.9624203972785 223.4829398407205 L341.9624203972784 223.4829398407206 L341.9624203972782 223.4829398407207 L341.96242039727804 223.48293984072077 L341.96242039727787 223.48293984072083 L341.96242039727775 223.4829398407209 L341.9624203972776 223.48293984072092 L341.9624203972774 223.48293984072092 L341.96242039727724 223.4829398407209 L341.9624203972771 223.48293984072086 L341.96242039727696 223.4829398407208 L341.96242039727684 223.48293984072075 L341.96242039727673 223.4829398407207 L341.9624203972766 223.4829398407206 L341.9624203972765 223.48293984072052 L341.96242039727645 223.4829398407204 L341.9624203972764 223.48293984072032 L341.96242039727633 223.4829398407202 L341.9624203972763 223.4829398407201 L341.9624203972763 223.48293984071998 L341.9624203972762 223.48293984071987 L341.9624203972762 223.48293984071975 L341.9624203972762 223.48293984071967 L341.9624203972763 223.48293984071955 L341.9624203972763 223.48293984071947 L341.96242039727633 223.48293984071938 L341.9624203972764 223.4829398407193 L341.96242039727645 223.4829398407192 L341.9624203972765 223.48293984071915 L341.96242039727656 223.4829398407191 L341.9624203972766 223.48293984071907 L341.96242039727673 223.48293984071904 L341.9624203972768 223.482939840719 L341.96242039727684 223.48293984071898 L341.96242039727696 223.48293984071898 L341.962420397277 223.48293984071898 L341.96242039727707 223.48293984071898 L341.9624203972771 223.482939840719 L341.9624203972772 223.482939840719 L341.9624203972773 223.48293984071904 L341.9624203972773 223.4829398407191 L341.96242039727736 223.48293984071913 L341.9624203972774 223.48293984071915 L341.96242039727747 223.4829398407192 L341.96242039727747 223.48293984071927 L341.9624203972775 223.4829398407193 L341.9624203972775 223.48293984071935 L341.9624203972775 223.4829398407194 L341.9624203972775 223.48293984071947 L341.9624203972775 223.4829398407195 L341.9624203972775 223.48293984071955 L341.9624203972775 223.4829398407196 L341.9624203972775 223.48293984071964 L341.96242039727747 223.4829398407197 L341.96242039727747 223.48293984071972 L341.9624203972774 223.48293984071975 L341.9624203972774 223.48293984071978 L341.96242039727736 223.4829398407198 L341.96242039727736 223.4829398407198 L341.9624203972773 223.48293984071984 L341.9624203972773 223.48293984071984 L341.96242039727724 223.48293984071987 L341.9624203972772 223.48293984071987 L341.9624203972772 223.48293984071987 L341.9624203972771 223.48293984071987 L341.9624203972771 223.48293984071984 L341.96242039727707 223.48293984071984 L341.96242039727707 223.4829398407198 L341.962420397277 223.4829398407198 L341.962420397277 223.48293984071978 L341.962420397277 223.48293984071978 L341.96242039727696 223.48293984071975 L341.96242039727696 223.48293984071972 L341.96242039727696 223.4829398407197 L341.96242039727696 223.48293984071967 L341.96242039727696 223.48293984071967 L341.96242039727696 223.48293984071964 L341.96242039727696 223.4829398407196 L341.96242039727696 223.48293984071958 L341.96242039727696 223.48293984071958 L341.96242039727696 223.48293984071955 L341.96242039727696 223.48293984071952 L341.96242039727696 223.48293984071952 L341.962420397277 223.4829398407195 L341.962420397277 223.4829398407195 L341.962420397277 223.48293984071947 L341.962420397277 223.48293984071947 L341.96242039727707 223.48293984071947 L341.96242039727707 223.48293984071947 L341.96242039727707 223.48293984071947 L341.96242039727707 223.48293984071947 L341.9624203972771 223.48293984071947 L341.9624203972771 223.48293984071947 L341.9624203972771 223.48293984071947 L341.9624203972771 223.48293984071947 L341.9624203972772 223.48293984071947 L341.9624203972772 223.48293984071947 L341.9624203972772 223.4829398407195 L341.9624203972772 223.4829398407195 L341.9624203972772 223.4829398407195 L341.9624203972772 223.48293984071952 L341.9624203972772 223.48293984071952 L341.9624203972772 223.48293984071955 L341.9624203972772 223.48293984071955 L341.9624203972772 223.48293984071955 L341.9624203972772 223.48293984071958 L341.9624203972772 223.48293984071958 L341.9624203972772 223.48293984071958 L341.9624203972772 223.4829398407196 L341.9624203972772 223.4829398407196 L341.9624203972772 223.4829398407196 L341.9624203972772 223.4829398407196 L341.9624203972772 223.4829398407196 L341.9624203972772 223.48293984071964 L341.9624203972772 223.48293984071964 L341.9624203972772 223.48293984071964 L341.9624203972771 223.48293984071964 L341.9624203972771 223.48293984071964 L341.9624203972771 223.48293984071964 L341.9624203972771 223.48293984071964 L341.9624203972771 223.48293984071964 L341.9624203972771 223.48293984071964 L341.9624203972771 223.48293984071964 L341.9624203972771 223.48293984071964 L341.9624203972771 223.48293984071964 L341.9624203972771 223.4829398407196 L341.96242039727707 223.4829398407196 L341.96242039727707 223.4829398407196 L341.96242039727707 223.4829398407196 L341.96242039727707 223.4829398407196 L341.96242039727707 223.4829398407196 L341.96242039727707 223.48293984071958 L341.96242039727707 223.48293984071958 L341.96242039727707 223.48293984071958 L341.96242039727707 223.48293984071958 L341.96242039727707 223.48293984071958 L341.96242039727707 223.48293984071958 L341.96242039727707 223.48293984071958 L341.96242039727707 223.48293984071955 L341.9624203972771 223.48293984071955 L341.9624203972771 223.48293984071955 L341.9624203972771 223.48293984071955 L341.9624203972771 223.48293984071955 L341.9624203972771 223.48293984071955 L341.9624203972771 223.48293984071955 L341.9624203972771 223.48293984071955 L341.9624203972771 223.48293984071955 L341.9624203972771 223.48293984071955 L341.9624203972771 223.48293984071955 L341.9624203972771 223.48293984071955 L341.9624203972771 223.48293984071955 L341.9624203972771 223.48293984071955 L341.9624203972771 223.48293984071955 L341.9624203972771 223.48293984071955 L341.9624203972771 223.48293984071955 L341.9624203972771 223.48293984071955 L341.9624203972771 223.48293984071958 L341.9624203972771 223.48293984071958 L341.9624203972771 223.48293984071958 L341.9624203972771 223.48293984071958 L341.9624203972771 223.48293984071958 L341.9624203972771 223.48293984071958 L341.9624203972771 223.48293984071958 L341.9624203972771 223.48293984071958 L341.9624203972771 223.48293984071958 L341.9624203972771 223.48293984071958 L341.9624203972771 223.48293984071958 L341.9624203972771 223.48293984071958 L341.9624203972771 223.48293984071958 L341.9624203972771 223.48293984071958 L341.9624203972771 223.48293984071958 L341.9624203972771 223.48293984071958 L341.9624203972771 223.48293984071958 L341.9624203972771 223.48293984071958 L341.9624203972771 223.48293984071958 L341.9624203972771 223.48293984071958 L341.9624203972771 223.48293984071958 L341.9624203972771 223.48293984071958 L341.9624203972771 223.48293984071958 L341.9624203972771 223.48293984071958 L341.9624203972771 223.48293984071958 L341.9624203972771 223.48293984071958 L341.9624203972771 223.48293984071958 L341.9624203972771 223.48293984071958 L341.9624203972771 223.48293984071958 L341.9624203972771 223.48293984071958 L341.9624203972771 223.48293984071958 L341.9624203972771 223.48293984071958 L341.9624203972771 223.48293984071958 L341.9624203972771 223.48293984071958 L341.9624203972771 223.48293984071958 L341.9624203972771 223.48293984071958 L341.9624203972771 223.48293984071958 L341.9624203972771 223.48293984071958 L341.9624203972771 223.48293984071958 L341.9624203972771 223.48293984071958 L341.9624203972771 223.48293984071958 L341.9624203972771 223.48293984071958 L341.9624203972771 223.48293984071958 L341.9624203972771 223.48293984071958 L341.9624203972771 223.48293984071958 L341.9624203972771 223.48293984071958 L341.9624203972771 223.48293984071958 L341.9624203972771 223.48293984071958 L341.9624203972771 223.48293984071958 L341.9624203972771 223.48293984071958 L341.9624203972771 223.48293984071958 L341.9624203972771 223.48293984071958 L341.9624203972771 223.48293984071958 L341.9624203972771 223.48293984071958 L341.9624203972771 223.48293984071958 L341.9624203972771 223.48293984071958 L341.9624203972771 223.48293984071958 L341.9624203972771 223.48293984071958 L341.9624203972771 223.48293984071958 L341.9624203972771 223.48293984071958 L341.9624203972771 223.48293984071958 L341.9624203972771 223.48293984071958 L341.9624203972771 223.48293984071958 L341.9624203972771 223.48293984071958 L341.9624203972771 223.48293984071958 L341.9624203972771 223.48293984071958 L341.9624203972771 223.48293984071958 L341.9624203972771 223.48293984071958 L341.9624203972771 223.48293984071958 L341.9624203972771 223.48293984071958 L341.9624203972771 223.48293984071958 L341.9624203972771 223.48293984071958 L341.9624203972771 223.48293984071958 L341.9624203972771 223.48293984071958 L341.9624203972771 223.48293984071958 L341.9624203972771 223.48293984071958 L341.9624203972771 223.48293984071958 L341.9624203972771 223.48293984071958 L341.9624203972771 223.48293984071958 L341.9624203972771 223.48293984071958 L341.9624203972771 223.48293984071958 L341.9624203972771 223.48293984071958 L341.9624203972771 223.48293984071958 L341.9624203972771 223.48293984071958 L341.9624203972771 223.48293984071958 L341.9624203972771 223.48293984071958 L341.9624203972771 223.48293984071958 L341.9624203972771 223.48293984071958 L341.9624203972771 223.48293984071958 L341.9624203972771 223.48293984071958 L341.9624203972771 223.48293984071958 L341.9624203972771 223.48293984071958 L341.9624203972771 223.48293984071958 L341.9624203972771 223.48293984071958 L341.9624203972771 223.48293984071958 L341.9624203972771 223.48293984071958 L341.9624203972771 223.48293984071958 L341.9624203972771 223.48293984071958 L341.9624203972771 223.48293984071958 L341.9624203972771 223.48293984071958 L341.9624203972771 223.48293984071958 L341.9624203972771 223.48293984071958 L341.9624203972771 223.48293984071958 L341.9624203972771 223.48293984071958 L341.9624203972771 223.48293984071958 L341.9624203972771 223.48293984071958 L341.9624203972771 223.48293984071958 L341.9624203972771 223.48293984071958 L341.9624203972771 223.48293984071958 L341.9624203972771 223.48293984071958 L341.9624203972771 223.48293984071958 L341.9624203972771 223.48293984071958 L341.9624203972771 223.48293984071958 " stroke = "blue" stroke-width = "4" fill = "none" /></svg>