<svg width="357.3660265549571" height="448.84400000000005" viewbox = "0 0 357.3660265549571 448.84400000000005"  xmlns="http://www.w3.org/2000/svg">

<!--
<topfunctions>







function YofX(){
    X = plotparams.g*(x - plotparams.x0) - funcparams.X0;
    Y = funcparams.a*X*X*X + funcparams.b*X*X + funcparams.c*X + funcparams.d;
    y = plotparams.y0 - plotparams.G*(Y - funcparams.Y0);
}


function YofX2(){
    X = plotparams.g*(x - plotparams.x0) - funcparams.X0;
    Y = funcparams.b*X*X + funcparams.c*X + funcparams.d;
    y = plotparams.y0 - plotparams.G*(Y - funcparams.Y0);
 }

function XYofT(){
    T = plotparams.g*t;
    X = funcparams.a*Math.cos(2*Math.PI*T/funcparams.T);
    Y = funcparams.b*Math.sin(2*Math.PI*T/funcparams.T);

    Xrot = Math.cos(Math.PI*funcparams.theta/180)*X - Math.sin(funcparams.theta*Math.PI/180)*Y;
    Yrot = Math.sin(funcparams.theta*Math.PI/180)*X + Math.cos(funcparams.theta*Math.PI/180)*Y;
    X = Xrot;
    Y = Yrot;

    y = plotparams.y0 - plotparams.G*(Y - funcparams.Y0);
    x = plotparams.x0 - plotparams.G*(X - funcparams.X0);    
}


function plotfunction(){


    currentStroke = "blue";
    currentLineWidth = 4;
    ctx.strokeStyle = currentStroke;
    ctx.lineWidth = currentLineWidth;
    ctx.beginPath();	
    x = 0;
    y = 0;
    t= 0;
    XYofT();
    currentSVG += "	<path d = \"M";
    currentSVG += Math.round(x).toString() + " ";
    currentSVG += Math.round(y).toString() + " ";
    for(t = 1;t < plotparams.duration;t++){
        ctx.moveTo(x,y);
        XYofT();
        ctx.lineTo(x,y);
        currentSVG += "L" + x + " " + y + " ";
    }
    ctx.stroke();
    currentSVG += "\""+ " stroke = \"" + currentStroke + "\" stroke-width = \"" + currentLineWidth.toString() + "\" fill = \"" + "none" + "\" "+"/>";


    /*plot one function:
    currentStroke = "blue";
    currentLineWidth = 4;
    ctx.strokeStyle = currentStroke;
    ctx.lineWidth = currentLineWidth;
    ctx.beginPath();	
    x = 0;
    YofX();
    currentSVG += "	<path d = \"M";
    currentSVG += Math.round(x).toString() + " ";
    currentSVG += Math.round(y).toString() + " ";
    for(x = 1;x < plotparams.plotwidth;x++){
        ctx.moveTo(x-1,y);
        YofX();
        ctx.lineTo(x,y);
        currentSVG += "L" + x + " " + y + " ";
    }
    ctx.stroke();
    currentSVG += "\""+ " stroke = \"" + currentStroke + "\" stroke-width = \"" + currentLineWidth.toString() + "\" fill = \"" + "none" + "\" "+"/>";
    /*finish plot one function*/
    

}
























</topfunctions>
-->

<!--
<imgurl>
https://i.imgur.com/YonhNjg.jpg
</imgurl>
-->

<!--
<currentjson>
{
    "constants": {},
    "imgurl": "https://i.imgur.com/YonhNjg.jpg",
    "plotparams": {
        "G": -49.83900508704825,
        "g": 0.017985878990921366,
        "duration": 545.4545454545454,
        "plotwidth": 357.3660265549571,
        "plotheight": 448.84400000000005,
        "x0": 144.66692765119703,
        "y0": 310.8343304989851
    },
    "funcparams": {
        "theta": 90.26623758344712,
        "a": 0.7911227781140419,
        "b": 3.8072204259575315,
        "T": 1.4655609018152753,
        "X0": 0,
        "Y0": 0
    }
}
</currentjson>
-->

<!--
<equation>


<h2>Ellipse</h2>
<p style="color:blue">

</p><p class="bigeq">
$$
(X,Y) = (a\cos{\frac{2\pi t}{T}},b\sin{\frac{2\pi t}{T}})
$$
</p>
<p></p>

$$
X = g(x - x_0) - X_0
$$
$$
Y = f(X)
$$
    
$$
y = y_0 - G(Y - Y_0)
$$


<p>
    X and Y, and $X_0$ and $Y_0$ in physical units of the System. x and y and x0 and y0 in pixels.  G is in pixels per Y unit and g is in X units per pixel. 
</p>



</equation>
-->
	<path d = "M144 350 L129.86753906986948 350.07759684265 L115.33931602143788 349.6592969710087 L100.98538472197119 349.0102632982199 L86.89104948544795 348.13435298167485 L73.1400718663337 347.0367714892765 L59.81417287108036 345.72404166374236 L46.99254729644572 344.2039649578501 L34.75139308088413 342.4855750710013 L23.163458466036076 340.5790842626381 L12.297609659501632 338.4958226615679 L2.2184215682453328 336.24817093187556 L-7.014205965129008 333.84948669558565 L-15.34540414255332 331.3140251493379 L-22.72566129155831 328.656854346846 L-29.111117109349806 325.8937656506085 L-34.46382332122789 323.0411798850516 L-38.75196920427578 320.11604974882766 L-41.95007063604919 317.13575906622583 L-44.039121544763304 314.1180194764362 L-45.00670686092144 311.0807651746352 L-44.84707629912165 308.04204633043753 L-43.56117853156263 305.0199218171212 L-41.156655550157154 302.03235188912714 L-37.64779725075991 299.0970914456431 L-33.05545650941119 296.23158451459824 L-27.406925255292123 293.4528605841413 L-20.735772276880738 290.7774333976976 L-13.081643725213667 288.2212028140569 L-4.490027499848395 285.7993603157308 L4.988017082239168 283.52629872713595 L15.296162728262999 281.41552667914175 L26.373148918413108 279.4795883283113 L38.153145972430565 277.72998880794074 L50.566146270354125 276.17712585393315 L63.538380302442064 274.83022801185064 L76.99275507571626 273.6972997923755 L90.84931227171342 272.7850741011161 L105.02570343264534 272.09897222546493 L119.43767935197414 271.643071616303 L133.99959076099302 271.42008165602147 L148.62489733586636 271.4313275568698 L163.22668200014587 271.6767424853208 L177.71816746629514 272.1548679592573 L192.01323194646176 272.86286251561955 L206.0269209676643 273.79651859700243 L219.67595224971592 274.95028755684694 L232.87921064543542 276.3173126346213 L245.55823020175166 277.88946970502366 L257.63766047685147 279.6574155590363 L269.045714342082 281.6106434299009 L279.71459460735616 283.73754543402856 L289.5808969346599 286.0254815557625 L298.5859866451736 288.46085476602263 L306.6763471806777 291.0291918284079 L313.803898148357 293.71522931253105 L319.92628105889185 296.5030043034161 L325.0071110597144 299.3759492678792 L329.01619316740044 302.3169905141087 L331.92970171414197 305.3086496593077 L333.73032194186567 308.3331475023839 L334.4073529025137 311.3725096843794 L333.95677105295806 314.408673508709 L332.381254166609 317.42359528638207 L329.69016541961304 320.39935756826367 L325.89949774621437 323.31827562710225 L321.03177879397197 326.1630025565087 L315.1159370436762 328.9166323622916 L308.1871298896035 331.56280043348625 L300.2865347018163 334.085780795983 L291.46110411220724 336.47057957078715 L281.7632869786053 338.7030240814925 L271.2507166852321 340.7698470814121 L259.9858686319145 342.65876559980796 L248.0356889475715 344.3585539386459 L235.47119663449763 345.8591103860584 L222.3670615078733 347.1515172500444 L208.801160438777 348.2280938556296 L194.85411453790272 349.0824421905296 L180.60881003047894 349.70948492804644 L166.14990566978173 350.1054956012323 L151.56332961665038 350.2681207489969 L136.9357687750097 350.1963939025468 L122.35415361824313 349.890741329035 L107.90514156804939 349.35297949828816 L93.67460199602374 348.5863042876655 L79.74710590856215 347.59527198920455 L66.20542334785023 346.3857722319265 L53.1300314958424 344.96499298022246 L40.59863640453743 343.3413778163315 L28.685711194862975 341.5245757607785 L17.4620534686252 339.5253839289843 L6.994364563784785 337.3556833648362 L-2.655146846484996 335.028368432554 L-11.429134455174932 332.55727018647184 L-19.275455126150717 329.9570741741417 L-26.147478776814467 327.24323316124946 L-32.00436549711449 324.4318752970122 L-36.81130825800025 321.53970826582355 L-40.53973976693047 318.5839199947648 L-43.16750224110328 315.5820765070717 L-44.67897908946216 312.5520175286036 L-45.06518772089993 309.51175046772 L-44.32383292710949 306.47934339863195 L-42.45932052283109 303.4728176842217 L-39.4827311624328 300.5100408764634 L-35.411754488430205 297.6086205309306 L-30.27058400329713 294.7857995664431 L-24.08977328933304 292.05835379172083 L-16.906054431064945 289.44249220803835 L-8.762119719282992 286.95376068037166 L0.29363206597284375 284.6069495495143 L10.207383285653691 282.41600573421476 L20.920217275808568 280.39394984570697 L32.36846848480346 278.5527988072155 L44.48410083281735 276.9034944383012 L57.195112045051616 275.45583842846634 L70.42596155573297 274.2184340864643 L84.09801943990837 273.1986352114953 L98.13003370506362 272.40250239014074 L112.43861316549155 271.8347669787619 L126.93872302971836 271.4988029854111 L141.54419025575467 271.3966070183609 L156.1682156708819 271.5287864204136 L170.7238898124855 271.8945556595098 L185.1247094243331 272.4917409970853 L199.28509153879736 273.31679340643234 L213.12088208987763 274.36480966429417 L226.5498560343654 275.62956149034454 L239.49220600897667 277.1035325613809 L251.87101661939744 278.77796318025725 L263.6127215425792 280.642902334093 L274.6475407257608 282.68726683238015 L284.9098950839747 284.8989071735354 L294.338796231526 287.26467974845747 L302.87820893129526 289.77052495198836 L310.4773841078594 292.4015507380703 L317.09116044535904 295.142121122034 L322.6802327777384 297.97594910405786 L327.2113856763361 300.88619346155997 L330.65769084663225 303.8555588352936 L332.9986671610403 306.8663985143422 L334.22040237667915 309.9008193091703 L334.315635814766 312.940787889478 L333.2838015102746 315.9682379549013 L331.13103157542207 318.9651776016513 L327.87011975699556 321.9137962470193 L323.5204454040957 324.79657047630593 L318.10785829814876 327.596368183132 L311.66452502963733 330.2965503842336 L304.2287378345169 332.88107010366565 L295.8446870263907 335.33456773874997 L286.56219837686285 337.64246234101734 L276.43643700479566 339.7910382696668 L265.5275795342317 341.7675267025689 L253.9004564693305 343.5601815203966 L241.62416691164935 345.1583491129127 L228.7716679094742 346.55253169255946 L215.4193408796737 347.734443739082 L201.64653767879093 348.69706123974066 L187.53510902103736 349.4346634324806 L173.1689180457723 349.942866803982 L158.63334192528725 350.2186511405444 L144.01476447481534 350.26037747698496 L129.40006278013547 350.0677978368831 L114.87609089370494 349.64205670628525 L100.52916366768284 348.9856842321123 L86.44454379137655 348.1025811856899 L72.70593508160985 346.9979957807636 L59.39498503735402 345.67849248376626 L46.590799614896454 344.1519130016976 L34.36947310720329 342.42732967945994 L22.80363592136588 340.51499158360724 L11.962022941657409 338.42626359292854 L1.9090650433802807 336.1735588578434 L-7.2954938148896815 333.7702650300001 L-15.59695164506914 331.230664700488 L-22.945973519294142 328.5698505194925 L-29.298884763616 325.8036355018315 L-34.61793051324105 322.94845905141983 L-38.87150008680044 320.02128926315174 L-42.03431484620853 317.0395220828119 L-44.08757842567084 314.0208779243035 L-45.01908843704635 310.9832963585855 L-44.82330898770573 307.944829500177 L-43.50140357991663 304.92353472482364 L-41.061228196239085 301.9373673558974 L-37.51728461202282 299.00407395728485 L-32.890634212467916 296.1410868669182 L-27.208772826425445 293.3654205977262 L-20.505467320793628 290.6935707216873 L-12.820554926615614 288.1414158379099 L-4.199706489465797 285.7241232073333 L5.305844948884896 283.4560586148589 L15.639608624510856 281.35070099459085 L26.740171771615053 279.42056232556325 L38.541564593889206 277.6771132740076 L50.97365231796135 276.1307150240619 L63.962551998978455 274.7905577020474 L77.43107160128723 273.66460576025213 L91.29916874478928 272.75955064480064 L105.48442639067218 272.0807710289028 L119.90254263955862 271.6323008478108 L134.4678317312322 271.4168053254512 L149.09373326854856 271.4355651352029 L163.69332663924376 271.688468788954 L178.17984757847114 272.17401329966657 L192.46720380218017 272.8893131135136 L206.47048664696842 273.8301172585046 L220.10647567575745 274.990834607686 L233.2941332504775 276.3645671067806 L245.95508613254333 277.9431507687957 L258.0140912490007 279.71720419197186 L269.39948285635035 281.67618431273513 L280.04359844456764 283.80844906231624 L289.8831808502165 286.10132655467305 L298.85975418892497 288.54119039453843 L306.9199713730862 291.11354065804363 L314.01593114951254 293.8030900646546 L320.1054627729138 296.5938548283093 L325.15237662340405 299.46924964783284 L329.12667927864277 302.4121862721132 L332.00475176244254 305.4051750542667 L333.76948991053746 308.4304288912704 L334.4104060193198 311.46996893135264 L333.9236911734592 314.505731420931 L332.31223788199463 317.5196750561166 L329.5856228883749 320.49388820080054 L325.76005025660606 323.41069533413474 L320.8582550717404 326.2527620947986 L314.9093683270079 329.00319829778 L307.94874380055535 331.64565831145075 L300.01774795065137 334.1644381984031 L291.1635140779946 336.54456904274656 L281.43866221611813 338.7719059092282 L270.9009864145625 340.83321190549924 L259.61311127326604 342.71623684795185 L247.6421197693679 344.40979006362187 L235.05915458821127 345.9038068955012 L221.9389953278171 347.1894085160228 L208.35961408946187 348.2589546932531 L194.4017120954535 349.10608919620455 L180.1482400879502 349.72577756942985 L165.68390535905513 350.11433705240466 L151.09466834186935 350.2694584658914 L136.46723175422372 350.19021993521426 L121.88852533106966 349.8770923688904 L107.44518920772458 349.3319366600558 L93.22305902418549 348.5579926273209 L79.30665581049705 347.55985976077596 L65.77868368474486 346.3434698875743 L52.719538348820606 344.9160519195382 L40.20682930292163 343.2860888922892 L28.314918618239773 341.46326755121765 L17.11447900886897 339.4584207838972 L6.672073829279952 337.2834632410637 L-2.9502385065954684 334.9513205287585 L-11.695273333763822 332.4758523924426 L-19.51105958025275 329.8717703495907 L-26.351148627210137 327.15455026027036 L-32.17489034948693 324.3403403552911 L-36.94767469621678 321.4458652685061 L-40.64113737569653 318.48832664359423 L-43.23332842219875 315.48530090600985 L-44.70884264293596 312.4546348076333 L-45.05891116994175 309.4143393648909 L-44.28145357278083 306.3824828206651 L-42.381090222387826 303.3770832661108 L-39.369114832556704 300.41600156052044 L-35.263427342265146 297.5168351856055 L-30.08842753770847 294.6968136650109 L-23.874870046239835 291.9726961705761 L-16.65968156397588 289.3606719238607 L-8.485741403271248 286.87626398484144 L0.5983733357498977 284.5342369995555 L10.538676455177836 282.3485094549409 L21.276093495155536 280.33207096233446 L32.74681280886793 278.49690506120726 L44.882664790267896 276.8539180019076 L57.61152700082533 275.4128739306504 L70.8577527876515 274.1823368619449 L84.54262084576206 273.1696197833121 L98.58480305276116 272.3807411947604 L112.90084779564197 271.8203893413013 L127.40567591732903 271.4918943510682 L142.01308633559037 271.3972084446202 L156.63626832946488 271.536894333045 L171.1883174487259 271.9101218738097 L185.5827519803708 272.5146730042346 L199.734026902816 273.3469549232697 L213.5580422734036 274.4020214432358 L226.97264302792127 275.6736023846392 L239.89810722185183 277.154140839368 L252.2576198117826 278.83483808081814 L263.9777291613202 280.70570585405085 L274.98878355854606 282.7556257352279 L285.22534515079326 284.97241520755074 L294.6265788367992 287.342900061026 L303.13661380504846 289.85299268578547 L310.70487556972614 292.4877757936724 L317.28638653100984 295.23159107054147 L322.84203327350446 298.0681322324219 L327.3387990142672 300.9805419325112 L330.74995981902293 303.9515119430977 L333.05524342045715 306.9633860170314 L334.24094969474675 309.9982648174463 L334.30003208034725 313.03811229215114 L333.23213945516784 316.0648628605032 L331.0436182232627 319.0605287757707 L327.7474745986383 322.00730702493394 L323.3632973103197 324.8876851306272 L317.9171411880359 327.68454522644964 L311.441372320361 330.3812657871352 L303.97447570553106 332.96182040900226 L295.5608265380479 335.4108730536436 L286.2504264902974 337.71386918882774 L276.0986065564417 339.8571222849685 L265.1656982245615 341.8278951531219 L253.5166749312419 343.61447564112444 L241.22076592941903 345.2062462380157 L228.35104486423245 346.5937471730928 L214.98399550195433 347.7687326346025 L201.1990571928173 348.7242197739694 L187.0781527690546 349.4545302043294 L172.70520168377533 349.95532374674787 L158.16562128408793 350.2236242235709 L143.54581918234925 350.2578371456206 L128.93267974234863 350.05775918812265 L114.4130477321804 349.6245793990492 L100.07321221245425 348.96087213269846 L85.99839372700903 348.0705817505041 L72.27223784375268 346.9589991799973 L58.976318055465725 345.63273047123033 L46.18965099477336 344.0996575375264 L33.988226844360554 342.3688913138734 L22.444557733134474 340.4507176113349 L11.627246802198783 338.3565359892631 L1.6005805016414172 336.0987920085911 L-7.575853458910501 333.69090326881803 L-15.847520235488133 331.14717966824236 L-23.16526194617606 328.4827383613337 L-29.4855898126404 325.7134139186414 L-34.770942610606085 322.855664223155 L-38.989909893335096 319.9264726623667 L-42.1174186615043 316.94324719730093 L-44.13488237012032 313.92371690833505 L-45.030311386932055 310.8858266326334 L-44.79838424589627 307.84763031935466 L-43.44047927224315 304.8271837364163 L-40.9646663911941 301.8424371664467 L-37.38565916901575 298.91112872963373 L-32.724727371421864 296.0506789674335 L-27.00957055898573 293.2780873136279 L-20.274153470773513 290.60983106799165 L-12.558504174504236 288.0617674729633 L-3.9084761828048613 285.649039475266 L5.624524050695015 283.38598573253824 L15.983842635984018 281.2860553997877 L27.107914936395687 279.3617282020945 L38.93063144252277 277.6244402685616 L51.38173065597526 276.08451616827443 L64.38721664807474 274.75110755217895 L77.86979881199248 273.6321387655207 L91.74935119490425 272.73425975406855 L105.94338868038655 272.062806543996 L120.36755719114689 271.6217695302867 L134.93613499884262 271.41376976212297 L149.56254216174136 271.4400433661909 L164.1598550626841 271.70043420047443 L178.6413229894815 272.1933947821955 L192.92088368775072 272.91599548438546 L206.91367482229685 273.86394194643344 L220.53653830747322 275.031600595143 L233.70851450931042 276.4120321246257 L246.3513233824195 277.99703273606434 L258.38982968230107 279.7771828922605 L269.75248948835474 281.74190329722364 L280.37177538390745 283.87951776811474 L290.1845777664845 286.17732262590795 L299.1325799033396 288.6216621923809 L307.1626045033297 291.1980099447645 L314.2269297454804 293.8910548457543 L320.2835728861166 296.6847923358334 L325.2965397590852 299.56261944714146 L329.23603868633165 302.50743347364244 L332.07865752755833 305.5017336111956 L333.8075028167801 308.52772496349274 L334.4123001588998 311.5674242957656 L333.8894552896503 314.60276690777056 L332.24207543603126 317.6157139909189 L329.47995085029777 320.58835983153415 L325.6194966272414 323.5030382231361 L320.6836551505392 326.34242745535323 L314.7017597479246 329.08965325552 L307.70936036546937 331.728389071186 L299.748012296977 334.242953097567 L290.86502922405515 336.61840147330895 L281.1132020345325 338.84061709071085 L270.5504850902544 340.8963934926149 L259.2396518087526 342.7735133573689 L247.24792160563345 344.46082110543324 L234.64656041474055 345.9482891961352 L221.51045716017376 347.2270777205747 L207.91767869714167 348.2895869365264 L193.94900586663448 349.12950243312434 L179.68745342106592 349.74183265692295 L165.2177766739635 350.12293857631613 L150.62596780563246 350.27055530802363 L135.9987448182207 350.1838055771186 L121.42303617726579 349.8632049306055 L106.98546420249787 349.31065867356347 L92.77183027801865 348.5294505460644 L78.86660494125873 347.5242232081576 L65.35242588103743 346.3009506488961 L52.30960682811228 344.8669026833778 L39.81566025683226 343.23060174879146 L27.94483673444124 341.40177225622534 L16.76768365564267 339.391282799237 L6.350625984840178 337.2110815626345 L-3.2444285023362056 334.87412531532993 L-11.960457132201356 332.3943024092535 L-19.74566121439082 329.7863502419429 L-26.553773877510395 327.0657676733194 L-32.3443350296111 324.24872291714905 L-37.082931809413 321.3519574545885 L-40.74140309930385 318.39268654084447 L-43.2980068847036 315.3884968962311 L-44.737549465191194 312.3572421896389 L-45.05147574950209 309.3169369355478 L-44.23792009778029 306.2856494351483 L-42.301717408932944 303.28139439781154 L-39.25437438719672 300.3220258810518 L-35.114001158675876 297.4251311852305 L-29.90520364425069 294.60792633357784 L-23.65893732847448 291.88715375868554 L-16.41232329350092 289.27898280351263 L-8.20842761133656 286.7989136282194 L0.9039945945253578 284.4616850939027 L10.870788897069474 282.2811871706738 L21.63272340136531 280.27037839063075 L33.12584075518497 278.4412088362942 L45.28183824264818 276.8045491221824 L58.028473702025465 275.3701257915827 L71.28999485536973 274.14646351245017 L84.98758949850635 273.1408344159579 L99.03985387591979 272.3592148787796 L113.36327645703686 271.80625000594046 L127.87273423885341 271.4852260253141 L142.481998625426 271.39805075782186 L157.10424787779792 271.5452422793996 L171.6525830889551 271.92592584211167 L186.04054461736624 272.53783907271117 L200.18262591000936 273.3773454177507 L213.99478166126426 274.43945575534076 L227.39492728773064 275.7178580451196 L240.30342675060615 277.2049548402243 L252.64356582657575 278.8919084383362 L264.34200801455734 280.76869340346866 L275.3292303689102 282.8241561463648 L285.5399366689753 285.04608120942424 L294.91344546950745 287.4212638622305 L303.3940507258641 289.9355885762544 L310.93135285075203 292.57411291235684 L317.48055823511805 295.3211563225604 L323.0027454531321 298.16039333834374 L327.4650965692449 301.07495059165285 L330.8410921726571 304.04750709203046 L333.11066898015264 307.0603971639398 L334.26033907064885 310.09571543251735 L334.28327004288053 313.1354232338458 L333.17932561983673 316.1614558173499 L330.95506645864396 319.15582970322805 L327.62371116108466 322.1007495568913 L323.20505771645907 324.9787139452759 L317.72536584364974 327.77261934651926 L311.21720093162855 330.4658617948776 L303.71924050584073 333.0424355568247 L295.27604437063627 335.4870282518991 L285.9377897937668 337.7851118530076 L275.75997330672817 339.9230290253776 L264.8030808931211 341.88807429105196 L253.13222852509432 343.6685695365691 L240.8167751841014 345.25393341509886 L227.92991066579282 346.63474423057454 L214.54822061866673 347.80279593011136 L200.7512314014292 348.7511468719498 L186.62093746393057 349.47416107910124 L172.2413140604439 349.96754173352633 L157.6978181911562 350.2283567117966 L143.07688073775688 350.2550560104787 L128.46539281134181 350.04748095768605 L113.95018936518937 349.60686515605397 L99.6175331412939 348.93582715153366 L85.55260201748453 348.0383548715738 L71.83898280184297 346.9197819251742 L58.55817448268763 345.58675590565497 L45.78910388634425 344.0471988845196 L33.60765662105656 342.3102603311907 L22.086226094637325 340.38626273841464 L11.293283285980237 338.28664027647653 L1.2929698272930352 336.0238708408044 L-7.8552831847189 333.61140189679134 L-16.09710838330591 331.0635705625382 L-23.383525232762253 328.3955184044617 L-29.671231116005202 325.62310145212285 L-34.9228586787066 322.76279596705916 L-39.107197900617564 319.8316005256245 L-42.19938157432745 316.8469349977525 L-44.18103308917344 313.8265370220027 L-45.040375642027385 310.7883565921364 L-44.772302225936926 307.75044938167616 L-43.37840598067527 304.7308694404229 L-40.86697072483389 301.7475619006207 L-37.252921725722956 298.81825633041063 L-32.557736999652946 295.960361368367 L-26.80931966972574 293.1908612652892 L-20.041832139715268 290.5262149481033 L-12.295493069517022 287.9822582057189 L-3.616338358737437 285.57410957814994 L5.9440524411385525 283.3160805081877 L16.32886266005832 281.2215902895956 L27.476376166531367 279.3030863172717 L39.3203441418605 277.5719701133365 L51.79037879180163 276.0385295687594 L64.81237165582499 274.7118778032118 L78.30893402803144 273.59989900649384 L92.19985687228575 272.7092015833998 L106.40258749838492 272.0450788804739 L120.83272016637186 271.6114777280573 L135.40449770336915 271.4109749845784 L150.0313211519003 271.44476222247994 L164.6262644208527 271.7126386467958 L179.10259088057836 272.21301228845977 L193.3742688320374 272.9429094652557 L207.35648278660045 273.89799245418357 L220.96613751798654 275.07258527021423 L234.12235189083935 276.45970739823406 L246.74693953111148 278.05111527771146 L258.7648734816963 279.8373512935451 L270.10473208188716 281.8077999819467 L280.6991234208293 283.9507511173274 L290.4850858424943 286.2534693052737 L299.40446212196343 288.70226966801795 L307.40424508937326 291.2825991726211 L314.4368926474551 293.97912311853037 L320.4606103105822 296.7758162705312 " stroke = "blue" stroke-width = "4" fill = "none" /></svg>