<svg width="372.55279383549293" height="490.1480247034604" viewbox = "0 0 372.55279383549293 490.1480247034604"  xmlns="http://www.w3.org/2000/svg">

<!--
<topfunctions>























function YofX(){
    X = plotparams.g*(x - plotparams.x0) - funcparams.X0;
    Y = funcparams.a*X*X*X + funcparams.b*X*X + funcparams.c*X + funcparams.d;
    y = plotparams.y0 - plotparams.G*(Y - funcparams.Y0);
}


function YofX2(){
    X = plotparams.g*(x - plotparams.x0) - funcparams.X0;
    Y = funcparams.b*X*X + funcparams.c*X + funcparams.d;
    y = plotparams.y0 - plotparams.G*(Y - funcparams.Y0);
 }

function XYofT(){
    T = plotparams.g*t;
    X = Math.exp(-T/funcparams.tau)*Math.cos(2*Math.PI*T/funcparams.T);
    Y = Math.exp(-T/funcparams.tau)*Math.sin(2*Math.PI*T/funcparams.T);
    y = plotparams.y0 - plotparams.G*(Y - funcparams.Y0);
    x = plotparams.x0 - plotparams.G*(X - funcparams.X0);    
}


function plotfunction(){


    currentStroke = "blue";
    currentLineWidth = 4;
    ctx.strokeStyle = currentStroke;
    ctx.lineWidth = currentLineWidth;
    ctx.beginPath();	
    x = 0;
    y = 0;
    t= 0;
    XYofT();
    currentSVG += "	<path d = \"M";
    currentSVG += Math.round(x).toString() + " ";
    currentSVG += Math.round(y).toString() + " ";
    for(t = 1;t < plotparams.duration;t++){
        ctx.moveTo(x,y);
        XYofT();
        ctx.lineTo(x,y);
        currentSVG += "L" + x + " " + y + " ";
    }
    ctx.stroke();
    currentSVG += "\""+ " stroke = \"" + currentStroke + "\" stroke-width = \"" + currentLineWidth.toString() + "\" fill = \"" + "none" + "\" "+"/>";


    /*plot one function:
    currentStroke = "blue";
    currentLineWidth = 4;
    ctx.strokeStyle = currentStroke;
    ctx.lineWidth = currentLineWidth;
    ctx.beginPath();	
    x = 0;
    YofX();
    currentSVG += "	<path d = \"M";
    currentSVG += Math.round(x).toString() + " ";
    currentSVG += Math.round(y).toString() + " ";
    for(x = 1;x < plotparams.plotwidth;x++){
        ctx.moveTo(x-1,y);
        YofX();
        ctx.lineTo(x,y);
        currentSVG += "L" + x + " " + y + " ";
    }
    ctx.stroke();
    currentSVG += "\""+ " stroke = \"" + currentStroke + "\" stroke-width = \"" + currentLineWidth.toString() + "\" fill = \"" + "none" + "\" "+"/>";
    /*finish plot one function*/
    

}















</topfunctions>
-->

<!--
<imgurl>
https://i.imgur.com/uKrbCTU.jpg
</imgurl>
-->

<!--
<currentjson>
{
    "constants": {},
    "imgurl": "https://i.imgur.com/uKrbCTU.jpg",
    "plotparams": {
        "G": 259.37424601000026,
        "g": 0.017985878990921366,
        "duration": 409.8080732190423,
        "plotwidth": 372.55279383549293,
        "plotheight": 490.1480247034604,
        "x0": 134.88203821916838,
        "y0": 270.4143572072707
    },
    "funcparams": {
        "tau": 0.2697881848638206,
        "T": 1.0009978155968,
        "X0": 0,
        "Y0": 0
    }
}
</currentjson>
-->

<!--
<equation>

<h2>Equation Scroll</h2>
<p style="color:blue">

</p><p class="bigeq">
$$
(X,Y) = (e^{-t/\tau}\cos{\frac{2\pi t}{T}},e^{-t/\tau}\sin{\frac{2\pi t}{T}})

$$
</p>
<p></p>

$$
X = g(x - x_0) - X_0
$$
$$
Y = f(X)
$$
    
$$
y = y_0 - G(Y - Y_0)
$$


<p>
    X and Y, and $X_0$ and $Y_0$ in physical units of the System. x and y and x0 and y0 in pixels.  G is in pixels per Y unit and g is in X units per pixel. 
</p>


</equation>
-->
	<path d = "M-124 270 L-106.21969762113287 243.07871070093782 L-86.35353292182606 219.5945713235202 L-65.41189739102126 199.8585628658541 L-43.86557459904583 183.71998004215223 L-22.13629920643291 170.9891182845169 L-0.5961022193226029 161.4451904828256 L20.432463278244356 154.84375500669185 L40.675329449708286 150.92359664479483 L59.90526577638674 149.4130181740665 L77.93968414873432 150.03551502112649 L94.63800052866391 152.5148188296098 L109.89865093328599 156.57930765967205 L123.65585284369189 161.96579100811957 L135.87619586131268 168.4226868622288 L146.55513771512085 175.71261562180462 L155.7134737442542 183.61444199505306 L163.3938399031306 191.92480096220498 L169.65730130193413 200.45914768647162 L174.5800704281873 209.05237392413562 L178.25039160056093 217.55903514042183 L180.76562097213088 225.85323327565897 L182.22952459820272 233.82820002973253 L182.74981076899905 241.39562474483623 L182.43590702059248 248.48476956852252 L181.39698700557412 255.0414126696461 L179.74024774286377 261.02665795351083 L177.56943367759237 266.4156470687882 L174.98360046121627 271.1962066010974 L172.07610839467395 275.3674602835418 L168.9338330420725 278.9384328930619 L165.63657859181743 281.9266693060914 L162.25667808429444 284.35688901327364 L158.8587636045909 286.2596932892066 L155.49968891713152 287.67033922049825 L152.2285867566867 288.6275919480345 L149.08704304636805 289.17266380492725 L146.10937064728643 289.3482465515015 L143.32296581645588 289.19764063849664 L140.74873132040017 288.76398337967964 L138.40155108453507 288.08957609075264 L136.2908023175792 287.2153086539263 L134.42089220317231 286.18017859419666 L132.7918074673204 285.02090059827816 L131.39966638276604 283.7716014616437 L130.2372640352742 282.46359470222313 L129.29460293039224 281.1252285182385 L128.55940224363098 279.7818003782158 L128.01758019618921 278.45553129825703 L127.65370515900032 277.1655927693767 L127.45141213931171 275.9281793300446 L127.39378227796088 274.7566199199392 L127.46368387600616 273.66152138450644 L127.64407427251112 272.6509378108986 L127.91826260906932 271.7305597495881 L128.270134140771 270.9039177985646 L128.68433728892168 270.1725954856444 L129.1464350803624 269.5364468671815 L129.64302298523543 268.99381475759174 L130.16181545388986 268.5417460039603 L130.69170366944536 268.17620071507775 L131.2227871809725 267.89225283720447 L131.74638216933494 267.68427993343016 L132.25500912972657 267.54614046451775 L132.7423627381935 267.4713372824422 L133.20326661030563 267.45316643027536 L133.63361556487763 267.48485069133346 L134.03030788027544 267.5596576451269 L134.39116988115507 267.6710022668936 L134.7148750249057 267.8125343512958 L135.00085947467767 267.97821124971335 L135.2492359543204 268.16235658548635 L135.4607074840619 268.3597057538683 L135.63648239810064 268.5654391251169 L135.7781918497765 268.77520395211917 L135.88781081951234 268.98512604046726 L135.96758345770476 269.1918122713622 L136.01995342120048 269.3923450786154 L136.04749969953238 269.58426997284494 L136.05287827693087 269.765577181252 L136.0387698391533 269.9346784325616 L136.00783361093795 270.0903798662117 L135.9626673006582 270.23185198494207 L135.90577303353237 270.3585975027134 L135.83952907331744 270.47041786736577 L135.76616706436775 270.5673791614311 L135.68775447069382 270.64977800670437 L135.60618184550484 270.71810802002267 L135.5231545328428 270.7730272905108 L135.44018838142082 270.8153272734322 L135.35860903871549 270.84590342369813 L135.27955438974556 270.8657278238038 L135.20397970880506 270.8758239971087 L135.1326651027121 270.8772440384266 L135.0662248399167 270.8710481401796 L135.00511818014147 270.85828654410386 L134.9496613432145 270.83998390577426 L134.9000402825511 270.817126022027 L134.85632395757042 270.79064883962246 L134.8184778294767 270.7614296370196 L134.78637733564295 270.7302802497118 L134.7598211287324 270.69794219290236 L134.73854389716942 270.6650835230605 L134.72222861319136 270.6322972717355 L134.71051808310568 270.60010128053716 L134.7030257012411 270.5689392650318 L134.69934533417486 270.539182937056 L134.69906028495942 270.51113501922197 L134.7017513081325 270.4850329918032 L134.70700366519486 270.46105342036503 L134.71441322694884 270.439316722103 L134.72359164360824 270.4198922395298 L134.73417061596285 270.40280350161123 L134.7458053111707 270.38803356440377 L134.75817697505934 270.3755303354462 L134.77099479925312 270.3652117983682 L134.78399710613874 270.3569710662116 L134.79695191777842 270.3506812036371 L134.8096569765281 270.34619976937273 L134.82193928547127 270.3433730408264 L134.83365423599307 270.34203989264756 L134.84468438805118 270.3420353101041 L134.85493796609714 270.3431935263997 L134.8643471303136 270.34535078045576 L134.8728660789952 270.34834769821634 L134.88046903364662 270.35203130620255 L134.88714815381695 270.3562566908629 L134.89291142395084 270.3608883212681 L134.89778054970762 270.36580105591764 L134.90178889637355 270.3708808569097 L134.90497949724272 270.37602523652714 L134.9074031552384 270.3811434624632 L134.90911665664325 270.3861565485187 L134.91018111164985 270.3909970576977 L134.91066043256896 270.39560874428406 L134.91061995696714 270.39994606075106 L134.9101252197696 270.40397355429917 L134.90924087546568 270.407665176498 L134.90802976900056 270.4110035279737 L134.9065521517245 270.413979058387 L134.90486503689158 270.41658924014007 L134.9030216876468 270.41883773237015 L134.90107122919062 270.42073354987684 L134.89905837585337 270.4222902497228 L134.89702326312175 270.4235251463737 L134.89500137421564 270.4244585644274 L134.89302355059286 270.42511313624874 L134.89111607573685 270.42551315019205 L134.88930082173283 270.42568395357125 L134.88759544843936 270.4256514131372 L134.8860136454893 270.4254414345542 L134.88456540788488 270.4250795412337 L134.88325733656447 270.42459051188354 L134.8820929559941 270.4239980752682 L134.88107304155437 270.42332465994383 L134.88019595023917 270.4225911961279 L134.8794579489382 270.421816966379 L134.87885353532968 270.4210195013945 L134.87837574714845 270.4202145169676 L134.87801645631077 270.4194158879801 L134.8777666450595 270.41863565522516 L134.87761666193614 270.4178840608529 L134.87755645598452 270.4171696082952 L134.87757578813947 270.4164991426529 L134.87766441925172 270.41587794769737 L134.87781227464336 270.41530985585484 L134.87800958547956 270.4147973677853 L134.87824700757818 270.4143417784362 L134.8785157185646 270.41394330673785 L134.87880749451355 270.4136012264003 L134.8791147674066 270.4133139955741 L134.87943066487708 270.4130793834314 L134.8797490338144 270.41289459201903 L134.88006444946345 270.41275637201414 L134.8803722116832 270.4126611312845 L134.88066833002765 270.4126050354068 L134.8809494992843 270.4125840995306 L134.88121306705406 270.4125942711932 L134.88145699488732 270.4126315038832 L134.88167981440486 270.41269182132584 L134.88188057973517 270.4127713726152 L134.8820588174917 270.4128664784494 L134.8822144754016 270.4129736688373 L134.88234787057968 270.4130897127339 L134.8824596383226 270.4132116401373 L134.88255068218214 270.4133367572321 L134.88262212595956 270.4134626552039 L134.88267526815278 270.41358721337366 L134.88271153928255 270.41370859731074 L134.8827324624237 270.4138252525808 L134.88273961717573 270.413935894775 L134.88273460722277 270.4140394964443 L134.88271903155547 270.4141352715352 L134.88269445936083 270.4142226578894 L134.88266240852545 270.4143012983295 L134.88262432764625 270.414371020812 L134.88258158140073 270.4144318180821 L134.88253543909144 270.41448382722064 L134.88248706615354 270.41452730942405 L134.88243751839147 270.414562630314 L134.88238773869665 270.4145902410266 L134.88233855598978 270.41461066028825 L134.8822906861264 270.41462445764245 L134.88224473450657 270.4146322379538 L134.88220120013366 270.41463462727864 L134.88216048087654 270.414632260159 L134.88212287969992 270.41462576836625 L134.88208861164236 270.41461577109385 L134.8820578113359 270.41460286657735 L134.88203054087958 270.4145876250965 L134.88200679789537 270.41457058330025 L134.881986523615 270.41455223978096 L134.88196961086325 270.4145330518123 L134.88195591182284 270.41451343315845 L134.88194524548308 270.41449375285595 L134.88193740469214 270.41447433486644 L134.88193216274917 270.41445545849706 L134.8819292794876 270.4144373594861 L134.88192850681565 270.4144202316531 L134.8819295936924 270.41440422901667 L134.8819322905303 270.4143894682877 L134.88193635302446 270.4143760316508 L134.8819415454195 270.41436396975325 L134.88194764323086 270.41435330482796 L134.88195443544544 270.4143440338829 L134.881961726231 270.41433613189804 L134.8819693361882 270.414329554977 L134.88197710318246 270.4143242434089 L134.88198488279428 270.4143201246018 L134.88199254842877 270.41431711585733 L134.88199999112516 270.4143151269612 L134.88200711910645 270.414314062571 L134.88201385710948 270.4143138243888 L134.88202014553295 270.41431431310934 L134.88202593944018 270.4143154301419 L134.88203120745078 270.4143170791056 L134.88203593055277 270.4143191671019 L134.88204010086412 270.4143216057734 L134.88204372037012 270.41432431215657 L134.88204679965983 270.4143272093417 L134.88204935668188 270.4143302269534 L134.88205141553738 270.41433330146543 L134.88205300532456 270.4143363763673 L134.88205415904753 270.414339402196 L134.88205491259814 270.4143423364515 L134.8820553038189 270.41434514341057 L134.88205537165126 270.4143477938548 L134.88205515537263 270.4143502647283 L134.88205469392327 270.4143525387388 L134.88205402532262 270.41435460391637 L134.88205318617324 270.41435645314107 L134.88205221124943 270.4143580836522 L134.8820511331667 270.41435949654846 L134.882049982127 270.4143606962884 L134.88204878573475 270.4143616901996 L134.88204756887743 270.4143624880026 L134.88204635366475 270.4143631013562 L134.8820451594201 270.4143635434277 L134.8820440027179 270.4143638284937 L134.8820428974602 270.4143639715715 L134.8820418549871 270.4143639880858 L134.88204088421418 270.41436389356966 L134.8820399917918 270.41436370340153 L134.88203918228115 270.4143634325774 L134.8820384583416 270.41436309551744 L134.8820378209255 270.4143627059063 L134.88203726947575 270.4143622765649 L134.8820368021234 270.4143618193522 L134.88203641588126 270.41436134509485 L134.88203610683163 270.41436086354184 L134.8820358703053 270.4143603833425 L134.88203570105043 270.41435991204474 L134.88203559338973 270.4143594561113 L134.88203554136476 270.4143590209512 L134.8820355388667 270.41435861096454 L134.8820355797534 270.4143582295975 L134.88203565795226 270.4143578794062 L134.88203576754907 270.41435756212684 L134.88203590286327 270.4143572787498 L134.8820360585101 270.41435702959706 L134.88203622945025 270.4143568144005 L134.88203641102768 270.4143566323797 L134.88203659899656 270.41435648231857 L134.88203678953838 270.4143563626392 L134.88203697926994 270.4143562714724 L134.88203716524333 270.4143562067241 L134.88203734493905 270.41435616613705 L134.882037516253 270.41435614734763 L134.8820376774784 270.41435614793676 L134.8820378272836 270.4143561654761 L134.8820379646868 270.4143561975678 L134.88203808902796 270.41435624187983 L134.88203819993942 270.4143562961745 L134.88203829731518 270.41435635833324 L134.88203838128 270.41435642637555 L134.88203845215864 270.41435649847347 L134.8820385104455 270.4143565729621 L134.88203855677574 270.4143566483461 L134.88203859189733 270.41435672330215 L134.88203861664496 270.41435679667916 L134.88203863191592 270.41435686749503 L134.8820386386477 270.4143569349315 L134.88203863779808 270.4143569983266 L134.88203863032706 270.41435705716606 L134.8820386171812 270.41435711107306 L134.88203859928018 270.4143571597969 L134.8820385775052 270.41435720320163 L134.88203855268978 270.41435724125364 L134.88203852561222 270.41435727400966 L134.88203849699005 270.41435730160435 L134.88203846747606 270.41435732423855 L134.88203843765584 270.4143573421677 L134.88203840804684 270.414357355691 L134.88203837909853 270.41435736514103 L134.88203835119364 270.4143573708745 L134.88203832465035 270.4143573732631 L134.88203829972525 270.414357372686 L134.8820382766169 270.4143573695227 L134.88203825546987 270.41435736414684 L134.8820382363792 270.414357356921 L134.88203821939496 270.41435734819225 L134.8820382045272 270.4143573382884 L134.88203819175058 270.4143573275154 L134.88203818100945 270.41435731615474 L134.8820381722223 270.41435730446244 L134.88203816528647 270.4143572926678 L134.88203816008232 270.41435728097304 L134.8820381564773 270.41435726955365 L134.88203815432973 270.4143572585589 L134.88203815349223 270.4143572481123 L134.88203815381468 270.4143572383134 L134.88203815514711 270.4143572292388 L134.8820381573421 270.41435722094394 L134.88203816025663 270.41435721346477 L134.88203816375406 270.41435720681966 L134.88203816770545 270.4143572010113 L134.88203817199062 270.41435719602856 L134.88203817649904 270.4143571918484 L134.88203818113038 270.414357188438 L134.8820381857949 270.4143571857558 L134.88203819041348 270.41435718375425 L134.88203819491764 270.41435718238046 L134.88203819924925 270.41435718157817 L134.88203820336028 270.41435718128884 L134.8820382072122 270.4143571814532 L134.88203821077542 270.41435718201194 L134.88203821402874 270.4143571829068 L134.88203821695853 270.41435718408155 L134.88203821955813 270.4143571854823 L134.88203822182697 270.41435718705833 L134.88203822376988 270.41435718876244 L134.88203822539631 270.4143571905513 L134.88203822671963 270.4143571923855 L134.88203822775642 270.41435719423 L134.88203822852577 270.4143571960538 L134.88203822904873 270.4143571978302 L134.88203822934761 270.41435719953654 L134.8820382294456 270.4143572011542 L134.88203822936623 270.4143572026682 L134.88203822913286 270.41435720406724 L134.8820382287685 270.4143572053431 L134.88203822829533 270.41435720649065 L134.88203822773457 270.41435720750746 L134.88203822710614 270.4143572083936 L134.8820382264286 270.41435720915104 L134.88203822571896 270.41435720978376 L134.8820382249926 270.41435721029706 L134.88203822426337 270.4143572106977 L134.88203822354325 270.4143572109932 L134.88203822284274 270.41435721119205 L134.8820382221706 270.41435721130307 L134.88203822153412 270.4143572113354 L134.88203822093908 270.41435721129835 L134.88203822038986 270.41435721120126 L134.88203821988958 270.4143572110531 L134.88203821944015 270.41435721086265 L134.88203821904244 270.41435721063823 L134.8820382186964 270.4143572103877 L134.88203821840116 270.4143572101184 L134.8820382181551 270.4143572098369 L134.88203821795602 270.41435720954934 L134.8820382178013 270.414357209261 L134.88203821768784 270.41435720897675 L134.88203821761235 270.4143572087005 L134.88203821757128 270.4143572084358 L134.882038217561 270.4143572081854 L134.88203821757784 270.4143572079516 L134.88203821761812 270.414357207736 L134.8820382176783 270.4143572075398 L134.8820382177549 270.4143572073638 L134.8820382178447 270.4143572072083 L134.8820382179445 270.4143572070732 L134.88203821805155 270.41435720695813 L134.8820382181632 270.4143572068624 L134.88203821827702 270.41435720678527 L134.882038218391 270.4143572067255 L134.8820382185032 270.414357206682 L134.8820382186121 270.41435720665334 L134.88203821871636 270.4143572066382 L134.88203821881487 270.41435720663515 L134.88203821890676 270.41435720664265 L134.88203821899137 270.41435720665936 L134.88203821906828 270.41435720668375 L134.8820382191372 270.41435720671456 L134.882038219198 270.4143572067504 L134.88203821925075 270.4143572067902 L134.8820382192956 270.41435720683273 L134.88203821933277 270.414357206877 L134.8820382193627 270.4143572069221 L134.88203821938575 270.4143572069671 " stroke = "blue" stroke-width = "4" fill = "none" /></svg>