<svg width="372.55279383549293" height="490.1480247034604" viewbox = "0 0 372.55279383549293 490.1480247034604"  xmlns="http://www.w3.org/2000/svg">

<!--
<topfunctions>


function YofX(){
//foobar foobar
    X = plotparams.g*(x - plotparams.x0) - funcparams.X0;
    Y = Math.sin(funcparams.phi + (Math.PI*2*X/funcparams.T));
    y = plotparams.y0 - plotparams.G*(Y - funcparams.Y0);
}

//foo
function YofX2(){
    X = plotparams.g*(x - plotparams.x0) - funcparams.X0;
    Y = funcparams.b*X*X + funcparams.c*X + funcparams.d;
    y = plotparams.y0 - plotparams.G*(Y - funcparams.Y0);
 }

function XYofT(){
    T = plotparams.g*t;
    X = Math.exp(-T/funcparams.tau)*Math.cos(2*Math.PI*T/funcparams.T);
    Y = Math.exp(-T/funcparams.tau)*Math.sin(2*Math.PI*T/funcparams.T);
    y = plotparams.y0 - plotparams.G*(Y - funcparams.Y0);
    x = plotparams.x0 - plotparams.G*(X - funcparams.X0);    
}


function plotfunction(){

/*
    currentStroke = "blue";
    currentLineWidth = 4;
    ctx.strokeStyle = currentStroke;
    ctx.lineWidth = currentLineWidth;
    ctx.beginPath();	
    x = 0;
    y = 0;
    t= 0;
    XYofT();
    currentSVG += "	<path d = \"M";
    currentSVG += Math.round(x).toString() + " ";
    currentSVG += Math.round(y).toString() + " ";
    for(t = 1;t < plotparams.duration;t++){
        ctx.moveTo(x,y);
        XYofT();
        ctx.lineTo(x,y);
        currentSVG += "L" + x + " " + y + " ";
    }
    ctx.stroke();
    currentSVG += "\""+ " stroke = \"" + currentStroke + "\" stroke-width = \"" + currentLineWidth.toString() + "\" fill = \"" + "none" + "\" "+"/>";


    /*plot one function:*/
    currentStroke = "blue";
    currentLineWidth = 4;
    ctx.strokeStyle = currentStroke;
    ctx.lineWidth = currentLineWidth;
    ctx.beginPath();	
    x = 0;
    YofX();
    currentSVG += "	<path d = \"M";
    currentSVG += Math.round(x).toString() + " ";
    currentSVG += Math.round(y).toString() + " ";
    for(x = 1;x < plotparams.plotwidth;x++){
        ctx.moveTo(x-1,y);
        YofX();
        ctx.lineTo(x,y);
        currentSVG += "L" + x + " " + y + " ";
    }
    ctx.stroke();
    currentSVG += "\""+ " stroke = \"" + currentStroke + "\" stroke-width = \"" + currentLineWidth.toString() + "\" fill = \"" + "none" + "\" "+"/>";
    /*finish plot one function*/
    

}





















</topfunctions>
-->

<!--
<imgurl>

</imgurl>
-->

<!--
<currentjson>
{
    "constants": {},
    "imgurl": "",
    "plotparams": {
        "G": 133.10000000000005,
        "g": 0.017985878990921366,
        "duration": 409.8080732190423,
        "plotwidth": 372.55279383549293,
        "plotheight": 490.1480247034604,
        "x0": 92.12624699075768,
        "y0": 223.48293984071955
    },
    "funcparams": {
        "phi": 0.2697881848638206,
        "T": 2.145727716347745,
        "X0": 0,
        "Y0": 0
    }
}
</currentjson>
-->

<!--
<equation>

<h2>Sin/Cos</h2>
<p style="color:blue">

</p><p class="bigeq">
$$
Y = \cos{\phi + \frac{2\pi X}{T}}

$$
</p>
<p></p>

$$
X = g(x - x_0) - X_0
$$
$$
Y = f(X)
$$
    
$$
y = y_0 - G(Y - Y_0)
$$


<p>
    X and Y, and $X_0$ and $Y_0$ in physical units of the System. x and y and x0 and y0 in pixels.  G is in pixels per Y unit and g is in X units per pixel. 
</p>


</equation>
-->
	<path d = "M0 92 L1 92.60177420420251 L2 94.05729661056421 L3 95.87173582088906 L4 98.04006012193936 L5 100.5562564238152 L6 103.41334693515876 L7 106.60340851362066 L8 110.1175946379274 L9 113.94615994061695 L10 118.07848723341124 L11 122.50311695027794 L12 127.20777892653362 L13 132.17942642585837 L14 137.40427232086125 L15 142.86782732686078 L16 148.5549401828541 L17 154.44983966824637 L18 160.5361783388201 L19 166.79707786066118 L20 173.21517581632114 L21 179.77267385341585 L22 186.4513870421374 L23 193.23279430480392 L24 200.09808977759798 L25 207.02823496205923 L26 214.00401152170866 L27 221.00607457739034 L28 228.0150063535358 L29 235.01137002657924 L30 241.97576362619867 L31 248.88887383990112 L32 255.73152957174736 L33 262.48475510668885 L34 269.1298227330842 L35 275.64830467746384 L36 282.02212420752204 L37 288.23360576161826 L38 294.2655239657725 L39 300.10115140222126 L40 305.72430499706707 L41 311.11939089838023 L42 316.27144772029874 L43 321.1661880332048 L44 325.79003798491993 L45 330.130174943041 L46 334.17456305403164 L47 337.9119866204568 L48 341.3320812038017 L49 344.42536236662045 L50 347.1832519743099 L51 349.59810198356917 L52 351.66321565157557 L53 353.3728661070612 L54 354.72231223178966 L55 355.70781180839106 L56 356.32663189809443 L57 356.5770564195785 L58 356.4583909079242 L59 355.97096444046963 L60 355.1161287242297 L61 353.896254347409 L62 352.3147242054031 L63 350.3759241195203 L64 348.08523067443895 L65 345.44899630812756 L66 342.4745316955779 L67 339.17008547520203 L68 335.5448213741151 L69 331.6087927957402 L70 327.3729149402063 L71 322.8489345348537 L72 318.0493972587902 L73 312.98761295183294 L74 307.677618704318 L75 302.13413993013387 L76 296.3725495309315 L77 290.40882526475184 L78 284.2595054372962 L79 277.9416430387135 L80 271.4727584530898 L81 264.8707908717842 L82 258.15404854534904 L83 251.3411580119932 L84 244.45101244338628 L85 237.50271925104735 L86 230.51554709861492 L87 223.50887246694006 L88 216.50212592018647 L89 209.51473822194922 L90 202.56608645082036 L91 195.6754402648314 L92 188.86190846378884 L93 182.14438599769406 L94 175.54150156820086 L95 169.07156596841966 L96 162.75252130433014 L97 156.6018912386187 L98 150.6367323949222 L99 144.87358705724165 L100 139.32843729569663 L101 134.01666064583748 L102 128.9529874644232 L103 124.15146007992307 L104 119.62539385102473 L105 115.3873402411388 L106 111.4490520113003 L107 107.82145062799191 L108 104.51459597627242 L109 101.53765846219997 L110 98.89889358191498 L111 96.60561902790556 L112 94.66419439594424 L113 93.08000354897072 L114 91.85743968682914 L115 90.99989316326307 L116 90.50974208395394 L117 90.38834571167575 L118 90.63604069685465 L119 91.25214014398671 L120 92.23493551650236 L121 93.58170137479595 L122 95.28870293428008 L123 97.35120642250597 L124 99.76349220662743 L125 102.51887065480439 L126 105.60970068755937 L127 109.0274109676423 L128 112.76252366963932 L129 116.80468076341064 L130 121.14267273846826 L131 125.76446968963685 L132 130.65725467779308 L133 135.8074592731682 L134 141.2008011826481 L135 146.82232385672265 L136 152.65643796625088 L137 158.68696463401912 L138 164.89718030120378 L139 171.26986310431994 L140 177.7873406340421 L141 184.43153894345755 L142 191.18403266984407 L143 198.026096130975 L144 204.9387552542581 L145 211.90284019469576 L146 218.89903849575353 L147 225.90794864571046 L148 232.9101338809738 L149 239.8861760871526 L150 246.81672964841303 L151 253.68257509578567 L152 260.46467240564806 L153 267.14421380057775 L154 273.7026759061523 L155 280.1218711190567 L156 286.38399804404736 L157 292.47169085990174 L158 298.3680674774568 L159 304.05677635618565 L160 309.52204184948147 L161 314.74870795290263 L162 319.72228033405554 L163 324.428966527562 L164 328.85571418364276 L165 332.9902472642499 L166 336.82110008636926 L167 340.33764911808686 L168 343.53014243924247 L169 346.38972678497373 L170 348.9084720971529 L171 351.07939351563266 L172 352.8964707483153 L173 354.35466476632973 L174 355.44993177801723 L175 356.17923444297514 L176 356.54055029505923 L177 356.53287735098706 L178 356.15623688898825 L179 355.4116733897969 L180 354.3012516401494 L181 352.82805100681946 L182 350.9961568970705 L183 348.81064942920545 L184 346.2775893446342 L185 343.40400120052414 L186 340.1978538896453 L187 336.6680385414301 L188 332.8243438655328 L189 328.6774290062623 L190 324.23879398317 L191 319.52074779976306 L192 314.53637430878405 L193 309.2994959287156 L194 303.8246353121327 L195 298.12697507219923 L196 292.22231567899473 L197 286.1270316424309 L198 279.858026103269 L199 273.4326839581649 L200 266.8688236487311 L201 260.1846477483153 L202 253.39869248352136 L203 246.52977633046186 L204 239.59694782828885 L205 232.61943275472558 L206 225.6165808100888 L207 218.60781195765537 L208 211.61256256917846 L209 204.6502315249012 L210 197.74012641754044 L211 190.9014100094224 L212 184.15304709125755 L213 177.51375188991884 L214 171.00193617107135 L215 164.63565818057327 L216 158.43257256624014 L217 152.40988141884642 L218 146.5842865681371 L219 140.97194326613814 L220 135.58841538620914 L221 130.44863226207764 L222 125.56684728654864 L223 120.95659838469874 L224 116.63067047117106 L225 112.60105999568097 L226 108.87894167505416 L227 105.4746375040537 L228 102.39758813093354 L229 99.65632667709879 L230 97.25845507347518 L231 95.21062297920906 L232 93.5185093411612 L233 92.18680664533176 L234 91.21920790388961 L235 90.61839641389341 L236 90.38603831610476 L237 90.52277797452868 L238 91.02823618949537 L239 91.90101124923805 L240 93.13868281705044 L241 94.73781864324559 L242 96.69398408330088 L243 99.00175439579519 L244 101.65472978603437 L245 104.64555315364561 L246 107.9659304949252 L247 111.60665390335964 L248 115.55762710453821 L249 119.80789345464153 L250 124.34566632486695 L251 129.1583617875238 L252 134.23263351316112 L253 139.55440978195094 L254 145.10893250668386 L255 150.88079815917104 L256 156.85400048654643 L257 163.0119748990173 L258 169.33764440596707 L259 175.8134669730218 L260 182.42148416875523 L261 189.14337096612257 L262 195.9604865605225 L263 202.8539260635541 L264 209.80457292912286 L265 216.79315196649924 L266 223.80028279332873 L267 230.80653358034948 L268 237.79247493878245 L269 244.73873380095458 L270 251.6260471447307 L271 258.435315412778 L272 265.14765547851425 L273 271.7444530118628 L274 278.2074140995928 L275 284.5186159770969 L276 290.66055673091745 L277 296.61620383418824 L278 302.3690413803975 L279 307.90311588448367 L280 313.20308052425395 L281 318.25423769943217 L282 323.0425797903198 L283 327.5548280030347 L284 331.77846919360593 L285 335.7017905688089 L286 339.31391216750274 L287 342.6048170324035 L288 345.5653789886141 L289 348.1873879518827 L290 350.46357269640316 L291 352.38762101901875 L292 353.9541972439132 L293 355.1589570192424 L294 355.9985593646775 L295 356.47067593644584 L296 356.5739974841795 L297 356.3082374816631 L298 355.67413292141515 L299 354.6734422708957 L300 353.308940596012 L301 351.58441186544223 L302 349.5046384571209 L303 347.07538789598397 L304 344.3033968597533 L305 341.1963524971157 L306 337.7628711101002 L307 334.0124742597757 L308 329.9555623615277 L309 325.6033858431394 L310 320.96801394566154 L311 316.0623012535883 L312 310.89985204715856 L313 305.49498257563727 L314 299.86268135620077 L315 294.0185676085194 L316 287.97884794031023 L317 281.76027140397144 L318 275.3800830489375 L319 268.85597609856023 L320 262.20604288413415 L321 255.44872467213713 L322 248.6027605238206 L323 241.68713532897058 L324 234.72102715794733 L325 227.72375407800888 L326 220.71472058140003 L327 213.71336377377204 L328 206.7390994721615 L329 199.81126836200465 L330 192.94908236250433 L331 186.1715713490828 L332 179.49753038067135 L333 172.94546757818176 L334 166.53355279869666 L335 160.2795672477221 L336 154.20085416922373 L337 148.3142707501998 L338 142.63614137316364 L339 137.18221234616942 L340 131.96760823593064 L341 127.00678992511652 L342 122.31351451014733 L343 117.90079715069311 L344 113.78087497667629 L345 109.9651731528656 L346 106.46427319517504 L347 103.28788362652536 L348 100.44481305364714 L349 97.94294573948883 L350 95.78921973896686 L351 93.98960765869475 L352 92.54910009404531 L353 91.47169178947794 L354 90.76037056051038 L355 90.41710900805626 L356 90.44285904810579 L357 90.83754927191924 L358 91.60008514405405 L359 92.72835203767661 L360 94.21922109874089 L361 96.06855792277213 L362 98.27123402019315 L363 100.82114103839811 L364 103.71120770113556 L365 106.93341941822044 L366 110.47884051120255 L367 114.33763899334679 L368 118.499113835214 L369 122.95172464022845 L370 127.68312364793405 L371 132.68018997619552 L372 137.92906600738036 " stroke = "blue" stroke-width = "4" fill = "none" /></svg>