<svg width="372.55279383549293" height="490.1480247034604" viewbox = "0 0 372.55279383549293 490.1480247034604"  xmlns="http://www.w3.org/2000/svg">

<!--
<topfunctions>


function YofX(){
//foobar foobar
    X = plotparams.g*(x - plotparams.x0) - funcparams.X0;
    Y = Math.sin(funcparams.phi + (Math.PI*2*X/funcparams.T));
    y = plotparams.y0 - plotparams.G*(Y - funcparams.Y0);
}

//foo
function YofX2(){
    X = plotparams.g*(x - plotparams.x0) - funcparams.X0;
    Y = Math.sin(0.5*Math.PI + funcparams.phi + (Math.PI*2*X/funcparams.T));    
    y = plotparams.y0 - plotparams.G*(Y - funcparams.Y0);
 }

function XYofT(){
    T = plotparams.g*t;
    X = Math.exp(-T/funcparams.tau)*Math.cos(2*Math.PI*T/funcparams.T);
    Y = Math.exp(-T/funcparams.tau)*Math.sin(2*Math.PI*T/funcparams.T);
    y = plotparams.y0 - plotparams.G*(Y - funcparams.Y0);
    x = plotparams.x0 - plotparams.G*(X - funcparams.X0);    
}


function plotfunction(){

/*
    currentStroke = "blue";
    currentLineWidth = 4;
    ctx.strokeStyle = currentStroke;
    ctx.lineWidth = currentLineWidth;
    ctx.beginPath();	
    x = 0;
    y = 0;
    t= 0;
    XYofT();
    currentSVG += "	<path d = \"M";
    currentSVG += Math.round(x).toString() + " ";
    currentSVG += Math.round(y).toString() + " ";
    for(t = 1;t < plotparams.duration;t++){
        ctx.moveTo(x,y);
        XYofT();
        ctx.lineTo(x,y);
        currentSVG += "L" + x + " " + y + " ";
    }
    ctx.stroke();
    currentSVG += "\""+ " stroke = \"" + currentStroke + "\" stroke-width = \"" + currentLineWidth.toString() + "\" fill = \"" + "none" + "\" "+"/>";


    /*plot one function:*/
    currentStroke = "blue";
    currentLineWidth = 4;
    ctx.strokeStyle = currentStroke;
    ctx.lineWidth = currentLineWidth;
    ctx.beginPath();	
    x = 0;
    YofX();
    currentSVG += "	<path d = \"M";
    currentSVG += Math.round(x).toString() + " ";
    currentSVG += Math.round(y).toString() + " ";
    for(x = 1;x < plotparams.plotwidth;x++){
        ctx.moveTo(x-1,y);
        YofX();
        ctx.lineTo(x,y);
        currentSVG += "L" + x + " " + y + " ";
    }
    ctx.stroke();
    currentSVG += "\""+ " stroke = \"" + currentStroke + "\" stroke-width = \"" + currentLineWidth.toString() + "\" fill = \"" + "none" + "\" "+"/>";
    /*finish plot one function*/
    
    
        /*plot one function:*/
    currentStroke = "red";
    currentLineWidth = 4;
    ctx.strokeStyle = currentStroke;
    ctx.lineWidth = currentLineWidth;
    ctx.beginPath();	
    x = 0;
    YofX2();
    currentSVG += "	<path d = \"M";
    currentSVG += Math.round(x).toString() + " ";
    currentSVG += Math.round(y).toString() + " ";
    for(x = 1;x < plotparams.plotwidth;x++){
        ctx.moveTo(x-1,y);
        YofX2();
        ctx.lineTo(x,y);
        currentSVG += "L" + x + " " + y + " ";
    }
    ctx.stroke();
    currentSVG += "\""+ " stroke = \"" + currentStroke + "\" stroke-width = \"" + currentLineWidth.toString() + "\" fill = \"" + "none" + "\" "+"/>";
    /*finish plot one function*/

}





















</topfunctions>
-->

<!--
<imgurl>

</imgurl>
-->

<!--
<currentjson>
{
    "constants": {},
    "imgurl": "",
    "plotparams": {
        "G": 133.10000000000005,
        "g": 0.017985878990921366,
        "duration": 409.8080732190423,
        "plotwidth": 372.55279383549293,
        "plotheight": 490.1480247034604,
        "x0": 92.12624699075768,
        "y0": 223.48293984071955
    },
    "funcparams": {
        "phi": 0.2697881848638206,
        "T": 6.122011594275015,
        "X0": 0,
        "Y0": 0
    }
}
</currentjson>
-->

<!--
<equation>

<h2>Sin/Cos</h2>
<p style="color:blue">

</p><p class="bigeq">
$$
Y = \cos{\phi + \frac{2\pi X}{T}}

$$
</p>
<p></p>

$$
X = g(x - x_0) - X_0
$$
$$
Y = f(X)
$$
    
$$
y = y_0 - G(Y - Y_0)
$$


<p>
    X and Y, and $X_0$ and $Y_0$ in physical units of the System. x and y and x0 and y0 in pixels.  G is in pixels per Y unit and g is in X units per pixel. 
</p>


</equation>
-->
	<path d = "M0 355 L1 354.9156138219005 L2 354.50556911958466 L3 354.0508798360312 L4 353.5517009018253 L5 353.0082024069326 L6 352.420569542742 L7 351.78900253896416 L8 351.113716595405 L9 350.39494180863903 L10 349.63292309360605 L11 348.82792010015896 L12 347.98020712459095 L13 347.09007301617197 L14 346.1578210787261 L15 345.1837689672844 L16 344.1682485798468 L17 343.1116059442918 L18 342.01420110047087 L19 340.87640797752863 L20 339.6986142664906 L21 338.48122128816146 L22 337.2246438563793 L23 335.929310136672 L24 334.5956615003644 L25 333.2241523741858 L26 331.8152500854289 L27 330.3694347027125 L28 328.8871988724036 L29 327.3690476507532 L30 325.8154983318037 L31 324.2270802711265 L32 322.60433470544933 L33 320.94781456823614 L34 319.25808430128 L35 317.53571966237644 L36 315.7813075291393 L37 313.9954456990289 L38 312.1787426856582 L39 310.331817511449 L40 308.45529949670595 L41 306.54982804518255 L42 304.616052426211 L43 302.6546315534705 L44 300.66623376046925 L45 298.65153657281724 L46 296.611226477366 L47 294.5459986882958 L48 292.4565569102285 L49 290.343613098448 L50 288.20788721630834 L51 286.0501069899144 L52 283.87100766015664 L53 281.6713317321853 L54 279.4518287224099 L55 277.2132549031094 L56 274.9563730447401 L57 272.6819521560299 L58 270.3907672219467 L59 268.08359893963024 L60 265.7612334523778 L61 263.4244620817743 L62 261.0740810580578 L63 258.7108912488121 L64 256.33569788608 L65 253.94931029198878 L66 251.55254160298193 L67 249.14620849275198 L68 246.73113089396713 L69 244.308131718888 L70 241.878036578969 L71 239.4416735035397 L72 236.9998726576628 L73 234.55346605926397 L74 232.10328729563057 L75 229.6501712393755 L76 227.1949537639633 L77 224.73847145889485 L78 222.28156134464845 L79 219.82506058747387 L80 217.3698062141368 L81 214.91663482671072 L82 212.4663823175136 L83 210.01988358428642 L84 207.5779722457105 L85 205.14148035736076 L86 202.7112381281915 L87 200.28807363765145 L88 197.87281255352448 L89 195.46627785059192 L90 193.06928953021261 L91 190.68266434091606 L92 188.30721550010395 L93 185.94375241695494 L94 183.59308041662698 L95 181.25600046585123 L96 178.93330890001113 L97 176.62579715179936 L98 174.33425148154572 L99 172.059452709307 L100 169.8021759488108 L101 167.56319034334385 L102 165.34325880367427 L103 163.143137748098 L104 160.96357684469712 L105 158.80531875589833 L106 156.66909888541858 L107 154.555645127684 L108 152.4656776198076 L109 150.39990849620986 L110 148.3590416459669 L111 146.3437724729672 L112 144.35478765896045 L113 142.3927649295776 L114 140.45837282340335 L115 138.55227046417838 L116 136.67510733621003 L117 134.82752306306736 L118 133.0101471896361 L119 131.22359896760784 L120 129.4684871444766 L121 127.7454097561145 L122 126.05495392299734 L123 124.39769565014953 L124 122.77419963087631 L125 121.18501905435059 L126 119.63069541711951 L127 118.11175833859514 L128 116.62872538059239 L129 115.1821018709751 L130 113.77238073147099 L131 112.40004230971378 L132 111.06555421556975 L133 109.76937116180459 L134 108.51193480914482 L135 107.29367361578669 L136 106.11500269140328 L137 104.97632365570051 L138 103.87802450156934 L139 102.82047946288125 L140 101.80404888697207 L141 100.82907911185737 L142 99.89590234822138 L143 99.00483656621991 L144 98.15618538713504 L145 97.35023797991963 L146 96.58726896266593 L147 95.8675383090324 L148 95.19129125966037 L149 94.55875823861092 L150 93.97015477485033 L151 93.42568142881075 L152 92.92552372405149 L153 92.46985208404368 L154 92.05882177410038 L155 91.69257284847146 L156 91.3712301026217 L157 91.09490303070794 L158 90.86368578827015 L159 90.67765716014895 L160 90.5368805336405 L161 90.44140387689785 L162 90.39125972258637 L163 90.38646515679866 L164 90.42702181323253 L165 90.51291587263432 L166 90.64411806750783 L167 90.82058369208667 L168 91.04225261756753 L169 91.30904931259823 L170 91.62088286901437 L171 91.97764703281524 L172 92.37922024036882 L173 92.82546565983324 L174 93.3162312377809 L175 93.85134975100891 L176 94.4306388635188 L177 95.05390118864548 L178 95.7209243563147 L179 96.43148108540595 L180 97.18532926119607 L181 97.98221201785728 L182 98.82185782598157 L183 99.70398058510143 L184 100.62827972117559 L185 101.5944402890064 L186 102.60213307955422 L187 103.65101473211185 L188 104.74072785130107 L189 105.87090112885137 L190 107.04114947011932 L191 108.25107412530551 L192 109.50026282532441 L193 110.78828992228071 L194 112.11471653450411 L195 113.47909069609406 L196 114.88094751092207 L197 116.31980931104029 L198 117.79518581944168 L199 119.30657431711707 L200 120.85345981435094 L201 122.4353152261991 L202 124.05160155208712 L203 125.70176805946925 L204 127.38525247148468 L205 129.1014811585472 L206 130.84986933380395 L207 132.629821252395 L208 134.44073041444727 L209 136.28197977173306 L210 138.15294193792232 L211 140.05297940235857 L212 141.98144474728343 L213 143.93768086843778 L214 145.92102119896276 L215 147.93078993652557 L216 149.9663022735921 L217 152.0268646307678 L218 154.11177489312757 L219 156.22032264945375 L220 158.35178943430185 L221 160.50544897280957 L222 162.6805674281676 L223 164.87640365166652 L224 167.0922094352358 L225 169.3272297663874 L226 171.58070308547872 L227 173.85186154520548 L228 176.13993127223833 L229 178.4441326309116 L230 180.76368048887574 L231 183.09778448462342 L232 185.4456492967966 L233 187.80647491518405 L234 190.17945691331593 L235 192.56378672256434 L236 194.9586519076542 L237 197.36323644349199 L238 199.77672099321774 L239 202.19828318738564 L240 204.62709790417728 L241 207.06233755055376 L242 209.50317234424907 L243 211.94877059650963 L244 214.39829899548354 L245 216.85092289016274 L246 219.30580657478177 L247 221.7621135735752 L248 224.21900692579854 L249 226.67564947091358 L250 229.13120413384186 L251 231.58483421018948 L252 234.03570365134485 L253 236.48297734935412 L254 238.92582142147467 L255 241.36340349431256 L256 243.7948929874446 L257 246.21946139643 L258 248.63628257511445 L259 251.04453301713087 L260 253.44339213650048 L261 255.83204254723847 L262 258.20967034187044 L263 260.5754653687621 L264 262.92862150817024 L265 265.26833694691965 L266 267.5938144516118 L267 269.90426164027485 L268 272.1988912523585 L269 274.4769214169854 L270 276.737575919365 L271 278.98008446528036 L272 281.2036829435588 L273 283.4076136864335 L274 285.59112572771164 L275 287.7534750586577 L276 289.89392488150725 L277 292.0117458605223 L278 294.1062163705053 L279 296.1766227426851 L280 298.22225950789215 L281 300.2424296369394 L282 302.2364447781282 L283 304.20362549179646 L284 306.14330148183075 L285 308.05481182406254 L286 309.9375051914713 L287 311.790740076117 L288 313.6138850077277 L289 315.40631876886584 L290 317.1674306066019 L291 318.8966204406222 L292 320.5932990676991 L293 322.25688836245695 L294 323.88682147436145 L295 325.4825430208679 L296 327.0435092766629 L297 328.5691883589317 L298 330.0590604085928 L299 331.5126177674339 L300 332.9293651510911 L301 334.3088198178119 L302 335.6505117329447 L303 336.95398372909756 L304 338.21879166191343 L305 339.4445045614081 L306 340.63070477881774 L307 341.77698812890935 L308 342.88296402770175 L309 343.94825562555366 L310 344.9724999355708 L311 345.9553479572899 L312 346.89646479559724 L313 347.79552977484013 L314 348.65223654809427 L315 349.46629320154796 L316 350.23742235396855 L317 350.9653612512176 L318 351.6498618557812 L319 352.29069093128606 L320 352.8876301219729 L321 353.4404760270983 L322 353.9490402702417 L323 354.4131495634924 L324 354.83264576649606 L325 355.20738594033867 L326 355.5372423962521 L327 355.82210273912256 L328 356.0618699057877 L329 356.25646219811034 L330 356.4058133108159 L331 356.5098723540856 L332 356.5686038708959 L333 356.5819878491012 L334 356.55001972825164 L335 356.4727104011479 L336 356.350086210129 L337 356.18218893809694 L338 355.96907579427904 L339 355.710819394735 L340 355.4075077376134 L341 355.05924417316766 L342 354.6661473685399 L343 354.22835126732707 L344 353.74600504394056 L345 353.21927305277677 L346 352.6483347722151 L347 352.03338474346265 L348 351.3746325042661 L349 350.6723025175143 L350 349.92663409475455 L351 349.1378813146498 L352 348.30631293640437 L353 347.4322123081865 L354 346.5158772705808 L355 345.55762005510223 L356 344.5577671778063 L357 343.5166593280325 L358 342.4346512523174 L359 341.3121116335192 L360 340.1494229651925 L361 338.9469814212577 L362 337.705196721009 L363 336.4244919895068 L364 335.10530361340227 L365 333.74808109224347 L366 332.3532868853127 L367 330.92139625404843 L368 329.45289710010536 L369 327.9482897991066 L370 326.40808703014613 L371 324.83281360109913 L372 323.22300626979836 " stroke = "blue" stroke-width = "4" fill = "none" />	<path d = "M0 205 L1 202.48145869874742 L2 200.05900727479272 L3 197.64453730920215 L4 195.23887150719173 L5 192.84282957405145 L6 190.45722793583928 L7 188.08287946119276 L8 185.72059318435225 L9 183.37117402949147 L10 181.03542253644758 L11 178.71413458794603 L12 176.40810113841172 L13 174.11810794445975 L14 171.8449352971569 L15 169.58935775614586 L16 167.35214388572223 L17 165.13405599295405 L18 162.935849867934 L19 160.75827452625174 L20 158.60207195377467 L21 156.46797685382427 L22 154.35671639683346 L23 152.2690099725711 L24 150.20556894501732 L25 148.16709640997385 L26 146.1542869554917 L27 144.16782642519723 L28 142.2083916845983 L29 140.27665039044973 L30 138.37326076325593 L31 136.49887136298935 L32 134.6541208681005 L33 132.83963785789507 L34 131.0560405983519 L35 129.30393683145564 L36 127.58392356811498 L37 125.89658688473737 L38 124.24250172352973 L39 122.62223169659298 L40 121.03632889387707 L41 119.48533369506225 L42 117.96977458543029 L43 116.4901679757887 L44 115.04701802650919 L45 113.64081647574046 L46 112.27204247185337 L47 110.94116241017632 L48 109.64862977407599 L49 108.39488498043751 L50 107.1803552295972 L51 106.00545435977845 L52 104.87058270608084 L53 103.77612696406989 L54 102.72246005801495 L55 101.70994101381895 L56 100.73891483668422 L57 99.80971239355557 L58 98.92265030038087 L59 98.07803081422742 L60 97.27614173029117 L61 96.51725628383343 L62 95.80163305707894 L63 95.12951589110656 L64 94.50113380276312 L65 93.91670090662822 L66 93.37641634205707 L67 92.88046420532578 L68 92.42901348690248 L69 92.0222180138656 L70 91.66021639748897 L71 91.34313198601143 L72 91.07107282260725 L73 90.84413160857156 L74 90.66238567173326 L75 90.52589694010655 L76 90.43471192078948 L77 90.38886168411719 L78 90.38836185307503 L79 90.43321259797511 L80 90.52339863639847 L81 90.65888923840214 L82 90.8396382369902 L83 91.06558404384475 L84 91.33664967031135 L85 91.65274275363211 L86 92.01375558841738 L87 92.41956516334531 L88 92.87003320307642 L89 93.3650062153697 L90 93.90431554338332 L91 94.4877774231428 L92 95.11519304615658 L93 95.78634862715784 L94 96.50101547694977 L95 97.25895008032887 L96 98.0598941790602 L97 98.90357485987617 L98 99.78970464746888 L99 100.71798160244433 L100 101.68808942420497 L101 102.69969755872596 L102 103.75246131118786 L103 104.84602196342775 L104 105.98000689616879 L105 107.15402971598614 L106 108.36769038696663 L107 109.62057536701667 L108 110.91225774877235 L109 112.24229740506377 L110 113.61024113888348 L111 115.0156228378089 L112 116.45796363282507 L113 117.93677206149404 L114 119.45154423541595 L115 121.00176401192326 L116 122.58690316995117 L117 124.20642159002342 L118 125.85976743829208 L119 127.54637735456942 L120 129.26567664428666 L121 131.01707947431535 L122 132.7999890725838 L123 134.61379793142055 L124 136.45788801455677 L125 138.33163096771517 L126 140.23438833271524 L127 142.16551176502125 L128 144.12434325465858 L129 146.11021535042408 L130 148.12245138731254 L131 150.16036571708358 L132 152.22326394188897 L133 154.31044315088116 L134 156.4211921597231 L135 158.55479175291646 L136 160.71051492886704 L137 162.88762714760279 L138 165.08538658106042 L139 167.30304436585584 L140 169.53984485845103 L141 171.7950258926321 L142 174.0678190392091 L143 176.35744986785014 L144 178.66313821096057 L145 180.98409842951668 L146 183.3195396807641 L147 185.66866618768907 L148 188.03067751017105 L149 190.40476881772423 L150 192.79013116373505 L151 195.18595176110242 L152 197.59141425918614 L153 200.00569902196997 L154 202.4279834073437 L155 204.85744204741002 L156 207.29324712971996 L157 209.73456867934115 L158 212.18057484166312 L159 214.6304321658428 L160 217.08330588879434 L161 219.53836021962582 L162 221.99475862442617 L163 224.4516641113052 L164 226.90823951558988 L165 229.36364778507925 L166 231.81705226526137 L167 234.26761698439432 L168 236.71450693835504 L169 239.15688837515765 L170 241.5939290790463 L171 244.0247986540636 L172 246.4486688069993 L173 248.86471362962254 L174 251.27210988010125 L175 253.6700372635134 L176 256.0576787113537 L177 258.434220659941 L178 260.7988533276316 L179 263.15077099074415 L180 265.4891722581008 L181 267.81326034409346 L182 270.12224334018 L183 272.41533448471836 L184 274.69175243104763 L185 276.95072151372364 L186 279.1914720128188 L187 281.413240416196 L188 283.6152696796674 L189 285.7968094849491 L190 287.9571164953245 L191 290.0954546089281 L192 292.21109520956475 L193 294.303317414978 L194 296.37140832248247 L195 298.41466325187895 L196 300.432385985566 L197 302.42388900576907 L198 304.38849372880486 L199 306.32553073630163 L200 308.2343400032963 L201 310.1142711231313 L202 311.96468352907345 L203 313.78494671258056 L204 315.57444043814064 L205 317.33255495461015 L206 319.058691202981 L207 320.7522610205029 L208 322.41268734109417 L209 324.0394043919707 L210 325.63185788642687 L211 327.18950521270324 L212 328.71181561887573 L213 330.1982703937035 L214 331.64836304337484 L215 333.0615994640888 L216 334.4374981104168 L217 335.77559015938346 L218 337.07541967021353 L219 338.33654373968847 L220 339.5585326530615 L221 340.7409700304781 L222 341.8834529688532 L223 342.9855921791561 L224 344.04701211905655 L225 345.0673511208869 L226 346.0462615148768 L227 346.9834097476173 L228 347.87847649571665 L229 348.73115677460555 L230 349.54116004245776 L231 350.3082102991893 L232 351.0320461805023 L233 351.7124210469424 L234 352.34910306793813 L235 352.9418753007954 L236 353.4905357646178 L237 353.99489750912966 L238 354.45478867837767 L239 354.87005256928853 L240 355.24054768506437 L241 355.56614778339565 L242 355.8467419194776 L243 356.08223448381307 L244 356.2725452347905 L245 356.4176093260255 L246 356.5173773284566 L247 356.5718152471874 L248 356.58090453307045 L249 356.5446420890272 L250 356.4630402711037 L251 356.33612688426007 L252 356.16394517289655 L253 355.946553806118 L254 355.6840268577437 L255 355.37645378106674 L256 355.02393937837417 L257 354.62660376523684 L258 354.18458232958073 L259 353.69802568555554 L260 353.16709962221427 L261 352.5919850470222 L262 351.9728779242148 L263 351.30998920802494 L264 350.6035447708022 L265 349.85378532604966 L266 349.06096634640306 L267 348.2253579765812 L268 347.347244941337 L269 346.42692644844055 L270 345.4647160867271 L271 344.4609417192454 L272 343.415945371541 L273 342.3300831151156 L274 341.2037249460987 L275 340.0372546591757 L276 338.8310697168137 L277 337.5855811138306 L278 336.30121323735256 L279 334.9784037222089 L280 333.6176033018125 L281 332.21927565457725 L282 330.7838972459243 L283 329.31195716593163 L284 327.80395696268175 L285 326.26041047136437 L286 324.6818436391926 L287 323.06879434619213 L288 321.4218122219237 L289 319.74145845820317 L290 318.02830561788136 L291 316.28293743974854 L292 314.5059486396326 L293 312.69794470775514 L294 310.8595417024173 L295 308.99136604008476 L296 307.09405428194185 L297 305.16825291699155 L298 303.21461814176973 L299 301.2338156367541 L300 299.2265203395399 L301 297.19341621486274 L302 295.1351960215441 L303 293.0525610764415 L304 290.9462210154819 L305 288.816893551861 L306 286.66530423149015 L307 284.4921861857732 L308 282.29827988180136 L309 280.08433287004533 L310 277.85109952963626 L311 275.5993408113185 L312 273.329823978164 L313 271.0433223441351 L314 268.7406150105867 L315 266.4224866007945 L316 264.08972699260414 L317 261.74313104928774 L318 259.38349834870286 L319 257.011632910845 L320 254.62834292388592 L321 252.2344404687923 L322 249.83074124261742 L323 247.41806428056157 L324 244.99723167689328 L325 242.56906830483072 L326 240.1344015354741 L327 237.69406095588752 L328 235.2488780864263 L329 232.79968609740504 L330 230.34731952520366 L331 227.8926139879078 L332 225.4364059005807 L333 222.97953219026425 L334 220.52283001080352 L335 218.067136457597 L336 215.61328828236404 L337 213.1621216080308 L338 210.71447164383056 L339 208.27117240071433 L340 205.83305640717109 L341 203.40095442555173 L342 200.9756951689961 L343 198.55810501905754 L344 196.14900774412197 L345 193.74922421871767 L346 191.35957214381074 L347 188.98086576818258 L348 186.6139156109821 L349 184.25952818555135 L350 181.91850572461334 L351 179.59164590692023 L352 177.27974158545285 L353 174.983580517264 L354 172.7039450950586 L355 170.44161208060197 L356 168.19735234004588 L357 165.97193058126487 L358 163.76610509328873 L359 161.58062748792517 L360 159.41624244365465 L361 157.2736874518897 L362 155.1536925656822 L363 153.05698015096607 L364 150.98426464041742 L365 148.93625229002092 L366 146.91364093841887 L367 144.91711976913092 L368 142.94736907572178 L369 141.00506002999856 L370 139.09085445331553 L371 137.2054045910664 L372 135.34935289043733 " stroke = "red" stroke-width = "4" fill = "none" /></svg>