<svg width="400" height="400" viewbox = "0 0 400 400"  xmlns="http://www.w3.org/2000/svg">

<!--
<topfunctions>





function YofX(){
    X = plotparams.g*(x - plotparams.x0) - funcparams.X0;
    Y = funcparams.a*X*X*X + funcparams.b*X*X + funcparams.c*X + funcparams.d;
    y = plotparams.y0 - plotparams.G*(Y - funcparams.Y0);
}


function YofX2(){
    X = plotparams.g*(x - plotparams.x0) - funcparams.X0;
    Y = funcparams.b*X*X + funcparams.c*X + funcparams.d;
    y = plotparams.y0 - plotparams.G*(Y - funcparams.Y0);
 }

function XYofT(){
    T = plotparams.g*t;
    X = Math.exp(-T/funcparams.tau)*Math.cos(2*Math.PI*T/funcparams.T);
    Y = Math.exp(-T/funcparams.tau)*Math.sin(2*Math.PI*T/funcparams.T);
    y = plotparams.y0 - plotparams.G*(Y - funcparams.Y0);
    x = plotparams.x0 - plotparams.G*(X - funcparams.X0);    
}


function plotfunction(){


    currentStroke = "blue";
    currentLineWidth = 4;
    ctx.strokeStyle = currentStroke;
    ctx.lineWidth = currentLineWidth;
    ctx.beginPath();	
    x = 0;
    y = 0;
    t= 0;
    XYofT();
    currentSVG += "	<path d = \"M";
    currentSVG += Math.round(x).toString() + " ";
    currentSVG += Math.round(y).toString() + " ";
    for(t = 1;t < plotparams.duration;t++){
        ctx.moveTo(x,y);
        XYofT();
        ctx.lineTo(x,y);
        currentSVG += "L" + x + " " + y + " ";
    }
    ctx.stroke();
    currentSVG += "\""+ " stroke = \"" + currentStroke + "\" stroke-width = \"" + currentLineWidth.toString() + "\" fill = \"" + "none" + "\" "+"/>";


    /*plot one function:
    currentStroke = "blue";
    currentLineWidth = 4;
    ctx.strokeStyle = currentStroke;
    ctx.lineWidth = currentLineWidth;
    ctx.beginPath();	
    x = 0;
    YofX();
    currentSVG += "	<path d = \"M";
    currentSVG += Math.round(x).toString() + " ";
    currentSVG += Math.round(y).toString() + " ";
    for(x = 1;x < plotparams.plotwidth;x++){
        ctx.moveTo(x-1,y);
        YofX();
        ctx.lineTo(x,y);
        currentSVG += "L" + x + " " + y + " ";
    }
    ctx.stroke();
    currentSVG += "\""+ " stroke = \"" + currentStroke + "\" stroke-width = \"" + currentLineWidth.toString() + "\" fill = \"" + "none" + "\" "+"/>";
    /*finish plot one function*/
    

}

























</topfunctions>
-->

<!--
<imgurl>

</imgurl>
-->

<!--
<currentjson>
{
    "constants": {},
    "imgurl": "",
    "plotparams": {
        "G": 235.79476910000022,
        "g": 0.017985878990921366,
        "duration": 545.4545454545454,
        "plotwidth": 400,
        "plotheight": 400,
        "x0": 200,
        "y0": 200
    },
    "funcparams": {
        "tau": 0.7076258398990122,
        "T": 1.4655609018152753,
        "X0": 0,
        "Y0": 0
    }
}
</currentjson>
-->

<!--
<equation>

<h2>Log Spiral</h2>
<p style="color:blue">

</p><p class="bigeq">
$$
(X,Y) = (e^{-t/\tau}\cos{\frac{2\pi t}{T}},e^{-t/\tau}\sin{\frac{2\pi t}{T}})
$$
</p>
<p></p>

$$
X = g(x - x_0) - X_0
$$
$$
Y = f(X)
$$
    
$$
y = y_0 - G(Y - Y_0)
$$


<p>
    X and Y, and $X_0$ and $Y_0$ in physical units of the System. x and y and x0 and y0 in pixels.  G is in pixels per Y unit and g is in X units per pixel. 
</p>


</equation>
-->
	<path d = "M-36 200 L-29.193976220713324 182.2918654524783 L-21.448087699362475 165.57516704981157 L-12.663615753773655 149.9081471487181 L-2.948464907469031 135.33941863692326 L7.588830157240551 121.90812993679366 L18.83983301903467 109.64418262695396 L30.696897202786232 98.56849767600957 L43.05381850776993 88.69332616877874 L55.806445739251444 80.02260032381794 L68.85324798203723 72.5523205504368 L82.09583692598359 66.2709742726316 L95.43944311604336 61.159982255071895 L108.79334535127909 57.19416820099704 L122.07125279666674 54.342247452050316 L135.19163969688748 52.56733070405619 L148.0780328912643 51.827438758807574 L160.65925262231656 52.07602445829869 L172.8696074060232 53.262498092702145 L184.64904398890303 55.33275273488968 L195.94325365472068 58.22968613058467 L206.70373636142958 61.893715962432765 L216.88782438646092 66.2632855065404 L226.45866733539756 71.27535690951888 L235.38518052531646 76.86588953098119 L243.64195888966313 82.97030101901312 L251.20915866659092 89.52390901266202 L258.0723492275359 96.46235159431318 L264.222337477794 103.72198484436326 L269.6549673165267 111.24025607934766 L274.37089668054494 118.95605158120408 L278.37535471509483 126.81001784830818 L281.6778816164767 134.74485561705097 L284.29205367650457 142.70558611487152 L286.23519602847335 150.6397892107549 L287.5280855494111 158.49781332627742 L288.19464631495475 166.23295715846814 L288.2616399322563 173.80162344428555 L287.75835299397204 181.1634451647113 L286.7162838037039 188.2813847437756 L285.16883042136396 195.12180694377537 L283.1509819669212 201.6545262921533 L280.6990150039831 207.85282999769956 L277.85019670175456 213.6934774237155 L274.64249634618875 219.15667728345556 L271.1143066396555 224.226043808507 L267.3041760942376 228.88853321385085 L263.25055368781705 233.13436184430378 L258.9915468153923 236.95690743608176 L254.5646934314951 240.352594964626 L250.0067491440095 243.32076857592915 L245.35348988597508 245.8635511137842 L240.63953066082877 247.98569276009712 L235.89816072873646 249.69441030014025 L231.16119547782932 250.99921850991444 L226.4588451049001 251.91175513918265 L221.81960011596098 252.44560093184407 L217.27013354850675 252.61609608574068 L212.835219714776 252.44015450736575 L208.537669169128 251.93607716392705 L204.3982795131487 251.12336577646056 L200.4358015695138 250.0225380338574 L196.66692038016052 248.65494543941773 L193.10625041607517 247.04259482954015 L189.76634432508428 245.20797452903804 L186.65771449045798 243.17388602998716 L183.78886662688768 240.96328200156935 L181.1663446014088 238.59911135768772 L178.7947856350028 236.10417202776966 L176.67698501577615 233.5009719947039 L174.81396943659124 230.8115990827993 L173.2050780585931 228.05759989851452 L171.84805039698355 225.25986824794938 L170.7391201263598 222.43854327815785 L169.8731139096493 219.61291751463312 L169.24355436681088 216.8013548952043 L168.84276631668607 214.0212188314026 L168.6619854473126 211.28881026240379 L168.69146859627645 208.6193156041914 L168.92060485290452 206.02676443785205 L169.33802672788278 203.52399672608573 L169.93172067284706 201.1226392962642 L170.68913627222688 198.83309128181475 L171.5972934717427 196.66451817143817 L172.64288725207214 194.6248540777482 L173.8123892019276 192.72081180337148 L175.09214549175485 190.95790025337516 L176.46847079710565 189.34044871805708 L177.92773776910587 187.87163752959228 L179.456461697997 186.55353457969622 L181.04138006415494 185.3871371732318 L182.66952671897621 184.3724186844392 L184.32830048528677 183.508379478048 L186.00552801319992 182.79310155678866 L187.68952077238356 182.22380639957385 L189.36912610526286 181.7969154606748 L191.03377230757445 181.50811280938007 L192.67350774272037 181.35240940167134 L194.2790340343734 181.32420849016953 L195.84173341762317 181.4173716957651 L197.35369036249463 181.62528528371686 L198.8077076148218 181.94092620835187 L200.1973168281342 182.35692751358908 L201.51678398635175 182.86564270110566 L202.76110984064232 183.45920870383657 L203.92602560475495 184.12960712941413 L205.0079841714881 184.86872346589126 L206.00414712870534 185.6684039704298 L206.91236786649526 186.5205099903637 L207.73117107772578 187.41696949496043 L208.4597289624325 188.34982562510854 L209.09783445226608 189.31128209686943 L209.64587177469238 190.29374532317303 L210.10478467788306 191.28986314574493 L210.4760426363531 192.29256009647582 L210.7616053545101 193.29506913374195 L210.96388588049393 194.29095982452955 L211.08571263612893 195.27416296749217 L211.13029066061628 196.2389916751727 L211.1011623558926 197.18015895546364 L211.0021680105116 198.09279185288074 L210.83740636660633 198.97244222932073 L210.61119548109906 199.81509428161255 L210.32803411798912 200.6171689093089 L209.99256389339692 201.37552506077645 L209.60953237922126 202.08745819870512 L209.18375735490568 202.75069603766613 L208.72009238004222 203.36339171630812 L208.22339384349564 203.92411457519933 L207.69848962753 204.43183871822995 L207.1501495081817 204.885929540907 L206.5830573959609 205.2861284128482 L206.0017855039824 205.63253570435418 L205.4107705139297 205.92559234816358 L204.8142917939323 206.16606012743424 L204.21645170657595 206.35500087970627 L203.62115802994418 206.49375480416109 L203.0321084998818 206.5839180559673 L202.45277746763892 206.6273198069731 L201.8864046537553 206.62599894654974 L201.33598596652752 206.5821805900857 L200.80426634170908 206.49825255556703 L200.2937345492582 206.3767419609303 L199.80661990299814 206.220292086533 L199.3448908000096 206.0316396382273 L198.9102550084498 205.81359253723593 L198.50416161528904 205.5690083533889 L198.1278045391824 205.30077348837065 L197.78212750833598 205.01178320552316 L197.46783039878116 204.70492259252757 L197.18537682491484 204.3830485330157 L196.93500287147933 204.04897275291273 L196.71672685431702 203.70544599714694 L196.53035999620982 203.3551433823441 L196.3755179038707 203.00065096130868 L196.25163273265477 202.64445352553625 L196.15796592676284 202.2889236627466 L196.09362142457465 201.93631207752492 L196.05755922123234 201.58873917464243 L196.0486091836465 201.24818789653912 L196.06548501667095 200.91649779881627 L196.10679828324018 200.59536034043515 L196.17107238573524 200.28631535867018 L196.25675642068776 199.99074869273917 L196.3622388241033 199.709890914442 L196.48586073012854 199.44481711909478 L196.62592897145976 199.196447725549 L196.78072865573887 198.96555023014332 L196.94853525816686 198.7527418560397 L197.1276261766347 198.55849303654747 L197.3162917017849 198.38313166872345 L197.51284536053532 198.22684807174664 L197.71563359767512 198.089700583286 L197.92304476615033 197.9716217262896 L198.1335174025525 197.87242487831094 L198.34554777008017 197.79181137562227 L198.55769665682647 197.72937798493194 L198.7685954226328 197.68462467648953 L198.97695129290958 197.6569626337095 L199.18155190274166 197.64572243614012 L199.3812690992479 197.65016235462082 L199.57506201453393 197.66947669978316 L199.7619794256504 197.70280416762347 L199.94116142173658 197.74923612868355 L200.11184040197864 197.80782481038753 L200.27334143113953 197.87759132527088 L200.42508198221796 197.95753350116846 L200.56657109826628 198.04663347287988 L200.69740800753945 198.1438649983679 L200.81728022796668 198.2482004661465 L200.9259611984328 198.35861756415184 L201.02330747553825 198.47410558403584 L201.10925553538158 198.59367133845595 L201.18381822048485 198.71634467253196 L201.2470808722741 198.8411835541811 L201.29919718954332 198.9672787315055 L201.34038485308704 199.0937579487731 L201.37092095619684 199.21978971578812 L201.39113727999677 199.34458662857395 L201.40141545165764 199.46740824227595 L201.40218202239686 199.58756350002412 L201.39390350085682 199.70441272416122 L201.37708137597713 199.81736917873678 L201.35224716185252 199.92590021447984 L201.319957495317 200.02952800958943 L201.28078931513204 200.12782992161706 L201.23533514970126 200.22043846745703 L201.18419853820268 200.30704095000496 L201.12798960793887 200.3873787513961 L201.06732082857124 200.46124631388815 L201.0028029617454 200.52848983041702 L200.9350412224404 200.58900566762713 L200.86463166620686 200.64273854476465 L200.79215781430463 200.68967949223332 L200.7181875266276 200.72986361384645 L200.64327013022174 200.7633676768793 L200.5679338091734 200.79030755393762 L200.49268325967958 200.81083554041894 L200.4179976122197 200.8251375709649 L200.34432862093772 200.8334303577911 L200.27209911862101 200.83595847314882 L200.20170173403665 200.8329913974295 L200.13349786686115 200.82482055357568 L200.0678169140208 200.81175634752773 L200.00495573995164 200.79412523341836 L199.94517838209194 200.7722668211396 L199.88871598184014 200.746531042763 L199.83576693024685 200.71727539309728 L199.78649721686193 200.68486225843463 L199.7410409694263 200.6496563462741 L199.6995011714833 200.61202222752738 L199.66195054448076 200.57232200142013 L199.6284325805455 200.5309130920073 L199.59896271182737 200.48814618393334 L199.5735296021331 200.4443633037961 L199.55209654649144 200.3998960522218 L199.53460296430987 200.35506399053807 L199.52096597189276 200.31017318474602 L199.5110820202863 200.26551490834754 L199.5048285846907 200.22136450448755 L199.50206589203302 200.1779804068234 L199.50263867371044 200.1356033175443 L199.5063779309985 200.09445554003187 L199.51310270115573 200.05474046278354 L199.52262181284578 200.0166421904173 L199.53473562012965 199.9803253168375 L199.54923770495242 199.94593483497337 L199.56591653874943 199.91359617690037 L199.58455709452463 199.88341537762486 L199.6049424015005 199.85547935535047 L199.6268550351995 199.82985630065252 L199.6500785365857 199.80659616666296 L199.6743987546662 199.78573125211005 L199.69960510772205 199.76727686886613 L199.72549175909967 199.75123208552571 L199.75185870424517 199.7375805384702 L199.77851276639728 199.72629130186363 L199.80526849907076 199.71731980807004 L199.8319489941527 199.7106088100817 L199.85838659509903 199.70608937769262 L199.88442351535338 199.70368191934648 L199.90991236271364 199.70329722182237 L199.93471657093943 199.70483750019542 L199.958710740425 199.70819745081874 L199.98178089025728 199.71326530041284 L200.003824624431 199.71992384471648 L200.02475121540854 199.72805147054459 L200.0444816085845 199.7375231555101 L200.06294835154597 199.7482114400951 L200.0800954523112 199.7599873671974 L200.0958781709767 199.77272138472958 L200.11026274941187 199.7862842073033 L200.12322608380856 199.80054763349222 L200.13475534502064 199.81538531562487 L200.14484755172052 199.83067347951592 L200.15350910145298 199.84629159199352 L200.16075526468555 199.86212297452207 L200.16660964693924 199.87805536165095 L200.17110362403696 199.89398140343607 L200.1742757554298 199.90979911138405 L200.17617118045618 199.92541224785376 L200.17684100225807 199.94073065921611 L200.1763416639234 199.95567055341968 L200.17473432124768 199.9701547229348 L200.17208421631122 199.98411271435089 L200.1684600558557 199.99748094618215 L200.16393339821494 200.01020277669147 L200.15857805231457 200.0222285237745 L200.1524694920025 200.0335154391517 L200.1456842887126 200.04402763929988 L200.1382995651976 200.05373599570973 L200.13039247279536 200.0626179871913 L200.1220396944206 200.07065751705665 L200.11331697519913 200.07784469809528 L200.10429868238967 200.0841756083193 L200.0950573959689 200.08965202049677 L200.08566353098917 200.09428110850922 L200.07618499256074 200.09807513356878 L200.06668686405706 200.10105111330807 L200.05723112889993 200.10323047671832 L200.04787642604683 200.1046387078529 L200.03867783908092 200.10530498114215 L200.02968671859307 200.10526179107794 L200.02095053734664 200.10454457892544 L200.01251277753053 200.10319135900806 L200.00441284923454 200.1012423469862 L199.99668603912295 200.09873959241983 L199.98936348813942 200.09572661776244 L199.98247219694764 200.09224806578626 L199.97603505769766 200.08834935728626 L199.9700709106096 200.08407636075194 L199.96459462378076 200.07947507553547 L199.9596171945528 200.074591329883 L199.9551458707188 200.06947049503148 L199.95118428980885 200.06415721641199 L199.94773263466274 200.05869516283775 L199.94478780348376 200.05312679439703 L199.94234359256322 200.04749314961433 L199.94039088987367 200.04183365229258 L199.93891787774928 200.03618593830117 L199.93791024290027 200.0305857024343 L199.93735139204918 200.02506656532813 L199.93722267152526 200.01965996029784 L199.93750358921005 200.01439503983397 L199.93817203729193 200.00929860138444 L199.93920451435872 200.0043950319429 L199.94057634543438 199.99970627086736 L199.94226189864847 199.9952517902646 L199.94423479731324 199.99104859219528 L199.9464681262739 199.98711122188425 L199.9489346314901 199.9834517960581 L199.95160691190227 199.9800800454778 L199.9544576027329 199.97700337068977 L199.95745954946926 199.97422690998232 L199.9605859718725 199.97175361850572 L199.96381061745345 199.96958435749428 L199.96710790395147 199.9677179925171 L199.9704530504463 199.96615149967815 L199.97382219682382 199.96488007869027 L199.9771925114058 199.9638972717553 L199.98054228663878 199.96319508719952 L199.98385102281924 199.96276412683412 L199.98709949991022 199.96259371603819 L199.99026983757847 199.96267203559367 L199.99334554364984 199.96298625433823 L199.99631155124638 199.9635226617441 L199.99915424492698 199.96426679957415 L200.0018614762089 199.9652035918157 L200.0044225688968 199.9663174721428 L200.0068283146904 199.9675925082102 L200.00907095958027 199.9690125221384 L200.01114418157633 199.97056120660383 L200.01304306034152 199.97222223600704 L200.01476403932648 199.97397937224798 L200.01630488102106 199.9758165646967 L200.01766461595008 199.977718044005 L200.01884348605236 199.97966840946134 L200.0198428830838 199.98165270964833 L200.02066528268793 199.9836565162161 L200.02131417477148 199.98566599063952 L200.02179399081544 199.98766794387768 L200.02211002874097 199.98964988890432 L200.02226837593304 199.99160008612526 L200.02227583100847 199.99350758174353 L200.02213982489263 199.99536223917517 L200.02186834174626 199.99715476365864 L200.0214698402575 199.99887672023684 L200.02095317578707 200.0005205453248 L200.02032752382394 200.0020795521067 L200.01960230517864 200.00354793003328 L200.01878711330832 200.00492073871553 L200.01789164413483 200.00619389653107 L200.01692562868325 200.00736416427938 L200.01589876883347 200.00842912423522 L200.01482067644343 200.00938715496372 L200.013700816068 200.01023740226847 L200.0125484514631 200.01097974665132 L200.01137259603118 200.01161476766526 L200.01018196733094 200.01214370554396 L200.00898494574216 200.0125684204889 L200.0077895373452 200.0128913499921 L200.00660334104464 200.01311546456571 L200.00543351993798 200.01324422224207 L200.00428677690297 200.013281522197 L200.00316933435104 200.0132316578382 L200.00208691807066 200.01309926968622 L200.00104474506168 200.01288929836127 L200.00004751524074 200.0126069379723 L199.99909940687954 200.01225759018806 L199.99820407561995 200.01184681925133 L199.99736465689512 200.01138030817842 L199.99658377157218 200.0108638163668 L199.9958635346208 200.0103031388129 L199.99520556660173 200.00970406712298 L199.99461100776153 200.00907235247794 L199.99408053451472 200.00841367069353 L199.99361437808778 200.00773358949633 L199.9932123450993 200.00703753811615 L199.99287383984742 200.00633077927512 L199.99259788807694 200.00561838363467 L199.99238316200027 200.00490520674273 L199.99222800634905 200.0041958685055 L199.9921304652383 200.00349473519003 L199.99208830962993 200.0028059039485 L199.99209906519005 200.00213318983793 L199.99216004034068 200.0014801152954 L199.99226835431728 200.00084990201475 L199.9924209650502 200.00024546515752 L199.9926146967011 199.99966940982 L199.9928462666932 199.99912402966729 L199.9931123120878 199.99861130763514 L199.99340941516957 199.99813291859357 L199.99373412811576 199.99769023385687 L199.9940829966359 199.99728432742037 L199.9944525824814 199.99691598379766 L199.99483948473653 199.9965857073292 L199.99524035981432 199.99629373282895 L199.99565194009298 199.9960400374349 L199.99607105114094 199.9958243535275 L199.9964946274891 199.99564618257958 L199.99691972692185 199.99550480980375 L199.9973435432677 199.99539931946242 L199.99776341768234 199.9953286107102 L199.99817684842586 199.99529141383988 L199.99858149914624 199.9952863068081 L199.99897520569004 199.9953117319204 L199.99935598146925 199.99536601256065 L199.9997220214214 199.99544736985524 L200.00007170460768 199.99555393916833 L200.00040359549928 199.99568378633006 L200.00071644400896 199.99583492350752 L200.00100918433006 199.99600532463353 L200.00128093264902 199.99619294031638 L200.0015309838025 199.99639571216042 L200.0017588069524 199.99661158643474 L200.00196404035557 199.99683852703438 L200.00214648530638 199.9970745276858 L200.0023060993325 199.99731762335603 L200.002442988724 199.99756590083112 L200.00255740047757 199.99781750843763 L200.00264971373562 199.99807066488697 L200.00272043080147 199.998323667229 L200.0027701678081 199.99857489790855 L200.00279964511864 199.99882283092344 L200.002809677533 199.99906603708925 L200.00280116437315 199.99930318842104 L200.0027750795169 199.99953306164818 L200.00273246144698 199.99975454088207 L200.002674403378 199.99996661946182 L200.00260204352125 200.00016840100707 L200.00251655554322 200.00035909970993 L200.002419139269 200.0005380399023 L200.00231101167847 200.00070465493732 L200.00219339823872 200.00085848542554 L200.00206752461136 200.00099917686993 L200.00193460876974 200.00112647674408 L200.0017958535562 200.00124023106025 L200.00165243970534 200.0013403804747 L200.00150551935522 200.00142695597768 L200.00135621006385 200.0015000742174 L200.0012055893442 200.00155993250488 L200.00105468972768 200.00160680354864 L200.0009044943607 200.001641029966 L200.0007559331373 200.00166301861717 L200.00060987936507 200.00167323480758 L200.0004671469601 200.00167219640224 L200.0003284881623 200.00166046789403 L200.00019459176028 200.00163865446663 L200.00006608181158 200.00160739609018 L199.99994351684248 200.00156736168614 L199.99982738950808 200.0015192433956 L199.99971812669258 200.0014637509822 L199.99961609002693 200.00140160639955 L199.99952157680013 200.00133353854946 L199.9994348212386 200.00126027825524 L199.99935599612706 200.00118255347215 L199.99928521474428 200.00110108475323 L199.99922253308432 200.0010165809877 L199.9991679523365 200.00092973542547 L199.99912142159388 200.00084122199902 L199.99908284076238 200.00075169195182 L199.99905206364173 200.00066177077952 L199.99902890114979 200.00057205548808 L199.9990131246625 200.0004831121711 L199.99900446944238 200.00039547390534 L199.99900263812904 200.00030963896307 L199.99900730426612 200.0002260693362 L199.9990181158406 200.0001451895671 L199.9990346988106 200.00006738587732 L199.99905666059988 199.99999300558625 L199.9990835935384 199.99992235680804 L199.99911507822893 199.99985570841565 L199.99915068682256 199.99979329025862 L199.99918998618583 199.99973529362077 L199.99923254094492 199.99968187190294 L199.99927791639348 199.99963314151518 L199.99932568125178 199.99958918296247 L199.99937541026745 199.99955004210713 L199.99942668664823 199.9995157315913 L199.99947910432007 199.99948623240206 L199.99953227000435 199.99946149556288 L199.9995858051099 199.999441443933 L199.99963934743704 199.999425974099 L199.99969255269178 199.99941495834136 L199.99974509580994 199.99940824665944 L199.99979667209206 199.9994056688395 L199.9998469981515 199.99940703654985 L199.99989581267826 199.9994121454486 L199.99994287702353 199.99942077728988 L199.9999879756093 199.99943270201493 L200.00003091616983 199.99944767981526 L200.00007152983125 199.99946546315647 L200.00010967103674 199.9994857987512 L200.00014521732615 199.9995084294713 L200.0001780689776 199.99953309618982 L200.00020814852127 199.9995595395447 L200.00023540013396 199.99958750161647 L200.000259788925 199.99961672751348 L200.0002813001226 199.9996469668592 L200.00029993817182 199.99967797517667 L200.00031572575338 199.9997095151667 L200.00032870273427 199.99974135787622 L200.00033892505968 199.9997732837555 L200.00034646359688 199.99980508360227 L200.00035140294034 199.9998365593928 L200.00035384018796 199.99986752499976 L200.00035388369756 199.99989780679832 L200.00035165183283 199.99992724416163 L200.00034727170708 199.9999556898486 L200.00034087793298 199.9999830102861 L200.0003326113862 200.00000908574953 L200.00032261799 200.0000338104457 L200.00031104752784 200.00005709250175 L200.00029805248974 200.0000788538653 L200.00028378695865 200.00009903012102 L200.0002684055418 200.00011757022835 L200.00025206235136 200.00013443618656 L200.00023491003932 200.00014960263246 L200.0002170988891 200.000163056377 L200.0001987759675 200.00017479588666 L200.00018008433966 200.00018483071543 L200.0001611623482 200.0001931808941 L200.00014214295877 200.00019987628212 L200.00012315317224 200.00020495588888 L200.00010431350478 200.00020846716936 L200.00008573753493 200.0002104653009 " stroke = "blue" stroke-width = "4" fill = "none" /></svg>