<svg width="400" height="400" viewbox = "0 0 400 400"  xmlns="http://www.w3.org/2000/svg">

<!--
<topfunctions>













function YofX(){
    X = plotparams.g*(x - plotparams.x0) - funcparams.X0;
    Y = funcparams.a*X*X*X + funcparams.b*X*X + funcparams.c*X + funcparams.d;
    y = plotparams.y0 - plotparams.G*(Y - funcparams.Y0);
}


function YofX2(){
    X = plotparams.g*(x - plotparams.x0) - funcparams.X0;
    Y = funcparams.b*X*X + funcparams.c*X + funcparams.d;
    y = plotparams.y0 - plotparams.G*(Y - funcparams.Y0);
 }

function XYofT(){
    T = plotparams.g*t;
    tau = 0.25*funcparams.T/Math.log(constants.phi);
    X = Math.exp(-T/tau)*Math.cos(2*Math.PI*T/funcparams.T);
    Y = Math.exp(-T/tau)*Math.sin(2*Math.PI*T/funcparams.T);
    y = plotparams.y0 - plotparams.G*(Y - funcparams.Y0);
    x = plotparams.x0 - plotparams.G*(X - funcparams.X0);    
}


function plotfunction(){


    currentStroke = "blue";
    currentLineWidth = 4;
    ctx.strokeStyle = currentStroke;
    ctx.lineWidth = currentLineWidth;
    ctx.beginPath();	
    x = 0;
    y = 0;
    t= 0;
    XYofT();
    currentSVG += "	<path d = \"M";
    currentSVG += Math.round(x).toString() + " ";
    currentSVG += Math.round(y).toString() + " ";
    for(t = 1;t < plotparams.duration;t++){
        ctx.moveTo(x,y);
        XYofT();
        ctx.lineTo(x,y);
        currentSVG += "L" + x + " " + y + " ";
    }
    ctx.stroke();
    currentSVG += "\""+ " stroke = \"" + currentStroke + "\" stroke-width = \"" + currentLineWidth.toString() + "\" fill = \"" + "none" + "\" "+"/>";


    /*plot one function:
    currentStroke = "blue";
    currentLineWidth = 4;
    ctx.strokeStyle = currentStroke;
    ctx.lineWidth = currentLineWidth;
    ctx.beginPath();	
    x = 0;
    YofX();
    currentSVG += "	<path d = \"M";
    currentSVG += Math.round(x).toString() + " ";
    currentSVG += Math.round(y).toString() + " ";
    for(x = 1;x < plotparams.plotwidth;x++){
        ctx.moveTo(x-1,y);
        YofX();
        ctx.lineTo(x,y);
        currentSVG += "L" + x + " " + y + " ";
    }
    ctx.stroke();
    currentSVG += "\""+ " stroke = \"" + currentStroke + "\" stroke-width = \"" + currentLineWidth.toString() + "\" fill = \"" + "none" + "\" "+"/>";
    /*finish plot one function*/
    

}




























</topfunctions>
-->

<!--
<imgurl>
https://upload.wikimedia.org/wikipedia/commons/e/e5/2005_Penny_Rev_Unc_D.png
</imgurl>
-->

<!--
<currentjson>
{
    "constants": {
        "phi": 1.618
    },
    "imgurl": "https://upload.wikimedia.org/wikipedia/commons/e/e5/2005_Penny_Rev_Unc_D.png",
    "plotparams": {
        "G": 1004.4436372315087,
        "g": 0.017985878990921366,
        "duration": 545.4545454545454,
        "plotwidth": 400,
        "plotheight": 400,
        "x0": 215.343720244016,
        "y0": 342.1082233470155
    },
    "funcparams": {
        "tau": 0.9418499929055854,
        "T": 1.4510503978369063,
        "X0": 0,
        "Y0": 0
    }
}
</currentjson>
-->

<!--
<equation>




<h2>Golden Spiral</h2>
<p>
    Radius reduced by $\phi$ on every quarter turn.  One full turn takes T, so a quarter turn is $\frac{T}{4}$.  If we consider a quarter rotation starting at time $t_0$ and going to time $t_0 + \frac{T}{4}$ that should go down by $\phi$.  So  
    $$
    \frac{e^{-t_0/\tau}}{e^{-(t_0 + \frac{T}{4})/\tau}}=\phi
    $$
    $$
    e^{T/4\tau} = \phi
    $$
    $$
    \frac{T}{4\tau} = \ln{\phi}
    $$
    $$
    \tau = \frac{T}{4\ln{\phi}}
    $$
    
</p>
<p class="bigeq">
$$
(X,Y) = (e^{-t/\tau}\cos{\frac{2\pi t}{T}},e^{-t/\tau}\sin{\frac{2\pi t}{T}})
$$
</p>
<p></p>

$$
X = g(x - x_0) - X_0
$$
$$
Y = f(X)
$$
    
$$
y = y_0 - G(Y - Y_0)
$$


<p>
    X and Y, and $X_0$ and $Y_0$ in physical units of the System. x and y and x0 and y0 in pixels.  G is in pixels per Y unit and g is in X units per pixel. 
</p>





</equation>
-->
	<path d = "M-789 342 L-762.4470643633622 265.80299833303036 L-730.7047148058633 193.54728260232247 L-694.3155495290242 125.62025979863938 L-653.7317121529727 62.260075991663086 L-609.4114400913897 3.664209769838351 L-561.8158134399816 -50.009911581602694 L-511.4056369426022 -98.64406527355413 L-458.638469024168 -142.15817180621144 L-403.96581027539764 -180.50903622391377 L-347.8304621648599 -213.6889091864989 L-290.6640651494722 -241.72388557010254 L-232.88482376562845 -264.67215853702317 L-174.89542471911332 -282.6221471142543 L-117.0811524618417 -295.69051529878845 L-59.808205255577406 -304.02010057063444 L-3.4222132848026376 -307.77776944793175 L51.753041000178115 -307.15221736929925 L105.4167014467438 -302.3517297436438 L157.2917180560524 -293.6019204744442 L207.12553169320705 -281.1434636515562 L254.69056831062963 -265.22983341661995 L299.7845483601269 -246.12506625601316 L342.2306180013754 -224.10155916592305 L381.8773095605661 -199.43791627537598 L418.5983394512847 -172.4168556128625 L452.2922524395218 -143.3231867682623 L482.8819217158175 -112.4418692417434 L510.3139147302844 -80.05616029260261 L534.5577351515839 -46.445860110855506 L555.6049516302867 -11.88566113968568 L573.4682242823422 23.356392615664618 L588.1802399620695 59.02033144109845 L599.7925674688926 94.85556704712127 L608.37444383124 130.62207805033316 L614.0115027380835 166.09147179508065 L616.8044560473703 201.0479214016556 L616.8677390952025 235.28897778727432 L614.3281302643278 268.6262572274409 L609.3233549498776 300.88600580477174 L602.000683688939 331.90954282675955 L592.51553380327 361.5535859806643 L581.030083446088 389.69046163052263 L567.7119064492756 416.208204246323 L552.7326358414349 441.010549487383 L536.2666633548489 464.01682593986305 L518.4898816653975 485.16175093161377 L499.5784755185299 504.3951362159863 L479.7077672911464 521.6815096299811 L459.051121928171 536.9996590917234 L437.77891557800876 550.3421055085407 L416.05757163713554 561.7145113210486 L394.04866730470474 571.1350315120591 L371.908113147006 578.6336139634748 L349.78540758237546 584.2512560516137 L327.8229676230117 588.0392243337014 L306.1555366541069 590.0582440979608 L284.90966949549784 590.3776654293159 L264.2032944792061 589.0746122848345 L244.14535178996724 586.2331208804623 L224.83550685711126 581.9432734661937 L206.36393715663385 576.3003333135208 L188.81119038344113 569.4038864597943 L172.24811158664644 561.3569954520239 L156.73583652642904 552.2653700106786 L142.3258482098871 542.2365591952076 L129.06009329600892 531.3791693003005 L116.97115482642732 519.8021113482346 L106.08247753901337 507.61388167091775 L96.40864185528176 494.92187869819026 L87.9556824995446 481.83175868928873 L80.72144760709313 468.4468327646864 L74.69599410953964 454.867507218262 L69.86201514680465 441.19076871725116 L66.1952952459028 427.50971563187016 L63.66518902537396 413.91313637994375 L62.23511922949041 400.4851353261864 L61.86308996670837 387.304806442714 L62.50221112061263 374.4459546184726 L64.10123001711565 361.97686420197516 L66.60506656716461 349.9601140752519 L69.95534825786515 338.4524382883371 L74.09094153491921 327.5046310338308 L78.94847630371976 317.1614945108328 L84.46286047349489 307.4618280174194 L90.5677816766725 298.43845642126155 L97.1961935123049 290.1182959892193 L104.28078388613292 282.52245540892415 L111.75442324890264 275.6663697084525 L119.55059076714025 269.5599646740641 L127.60377669508249 264.20784928031566 L135.8498594512256 259.60953358130666 L144.22645613648632 255.75966946581156 L152.67324546178065 252.6483116520318 L161.1322622795792 250.26119628891766 L169.54816313539874 248.58003453969013 L177.8684624700473 247.58281854846626 L186.04373931069264 247.24413723180686 L194.0278144874507 247.5354993925901 L201.77789860134243 248.42566172280567 L209.25471114832504 249.88095934359234 L216.42257137202455 251.8656366239877 L223.2494615741733 254.34217612329178 L229.7070637561285 257.2716236145085 L235.7707705968424 260.61390726688023 L241.419671891986 264.3281491929035 L246.63651768541413 268.372967698274 L251.40765941771426 272.70676871083214 L255.72297049720547 277.28802500565143 L259.5757477665047 282.07554198687217 L262.96259539285006 287.028708931674 L265.8832927529736 292.1077347469269 L268.3406479137613 297.27386743357704 L270.340338328601 302.4895965968261 L271.89074037662084 307.7188384807937 L273.0027493684446 312.9271031437883 L273.6895916281706 318.0816435238551 L273.9666302375856 323.1515862731861 L273.85116599576025 328.10804436369074 L273.36223510578964 332.924211583952 L272.52040505119277 337.5754391594493 L271.34757006806024 342.0392948328763 L269.86674755614456 346.29560483926514 L268.1018767034174 350.32647930113257 L266.07762052490375 354.1163216517469 L263.8191724385393 357.65182276970535 L261.3520684191097 360.92194057516986 L258.702005686699 363.9178658972939 L255.89466879920136 366.6329754735402 L252.95556392998878 369.06277298481643 L249.90986202243414 371.2048190657027 L246.78225142327787 373.0586512566714 L243.59680050740133 374.6256948852729 L240.3768307179916 375.90916587601015 L237.14480035888255 376.9139664943071 L233.92219939054627 377.64657502888144 L230.72945539823735 378.1149304092878 L227.5858508206009 378.3283127417482 L224.50945145002822 378.2972207270088 L221.5170461425272 378.0332468992464 L218.62409760519705 377.54895159540416 L215.84470406380677 376.8577365301825 L213.19157155173357 375.9737188136871 L210.67599650479693 374.9116062068663 L208.30785829448837 373.6865743648087 L206.0956212848704 372.31414677014953 L204.04634595607303 370.81007800869486 L202.165708599906 369.19024098734633 L200.4580290606375 367.47051864092015 L198.92630596645353 365.6667006199226 L197.572258874438 363.79438539615916 L196.39637673404604 361.8688881676212 L195.39797206085169 359.90515488876787 L194.57524020371562 357.9176826974611 L193.92532308428102 355.9204469557548 L193.4443767876861 353.92683506879314 L193.12764238738342 351.94958719452706 L192.9695193947707 350.00074390709074 L192.96364123573065 348.09160082872364 L193.1029521709112 346.2326701993068 L193.37978509440308 344.4336493091025 L193.78593966612462 342.7033956793122 L194.31276025644303 341.04990883675083 L194.9512132070751 339.48031849339895 L195.691962939846 338.0008789089389 L196.52544647417162 336.6169691846843 L197.44194594489474 335.3330992106289 L198.43165874408137 334.15292096370007 L199.4847649433069 333.0792448347214 L200.5914916865749 332.1140606440536 L201.74217427806457 331.2585629913649 L202.92731372315592 330.5131805734399 L204.13763051540224 329.87760909529874 L205.36411449608784 329.3508473940912 L206.59807064651807 328.9312363921595 L207.83116070604078 328.6165004952166 L209.05544054081372 328.4037910536491 L210.2633932193405 328.28973150939527 L211.44795778064733 328.27046385752385 L212.60255370952035 328.34169606040825 L213.72110116035046 328.49875006309503 L214.79803699672541 328.7366100709456 L215.8283267378724 329.0499707647229 L216.80747252531606 329.43328514383796 L217.7315172436024 329.88081170528596 L218.5970449476065 330.3866606837346 L219.40117776575065 330.94483909709516 L220.1415694633894 331.5492943615575 L220.81639586365765 332.1939562603279 L221.4243423342347 332.87277707102305 L221.9645885577622 333.5797696776849 L222.436790811098 334.30904351454024 L222.84106198422606 335.0548382097907 L223.1779495735231 335.8115548187506 L223.4484118862652 336.5737845564154 L223.6537926938002 337.3363349599254 L223.79579456979567 338.0942534312709 L223.87645114747122 338.8428481298625 L223.8980985258236 339.5777062031653 L223.86334604964776 340.2947093613823 L223.77504668173606 340.99004681909133 L223.63626717810348 341.66022564272197 L223.45025826853836 342.30207855774466 L223.22042503531623 342.9127692833829 L222.95029767264734 343.48979547550954 L222.6435027984556 344.03098937011765 L222.3037354785148 344.53451623033976 L221.93473211089898 344.9988707094149 L221.54024430623926 345.42287125025945 L221.12401388651773 345.80565264938923 L220.68974911216864 346.1466569188749 L220.24110223418745 346.4456225848034 L219.7816484548644 346.70257256439015 L219.31486636774093 346.91780076646836 L218.84411993452014 347.09185756160235 L218.3726420440202 347.22553426857905 L217.90351968591486 347.31984680356203 L217.43968076002315 347.3760186367975 L216.98388253035301 347.3954631994964 L216.53870172202377 347.37976588042966 L216.10652624864298 347.3306657479285 L215.6895485477331 347.25003712843954 L215.28976049243653 347.1398711675991 L214.908949839 347.00225749403796 L214.54869816148246 346.8393660998596 L214.21038021776292 346.6534295450233 L213.89516468426234 346.44672558577014 L213.60401619084772 346.2215603198179 L213.33769858215973 345.98025193338395 L213.09677932710215 345.7251151272351 L212.88163499444164 345.4584462909705 L212.69245770938832 345.1825094866721 L212.52926250364004 344.89952329496896 L212.39189546966753 344.6116485685072 L212.2800426289663 344.3209771298417 L212.1932394235842 344.02952144292954 L212.13088074042486 343.7392052797385 L212.0922313785921 343.4518553960393 L212.07643687135487 343.16919422326026 L212.08253457613455 342.8928335763817 L212.10946494821644 342.6242693712718 L212.15608291662565 342.36487733863515 L212.2211692837463 342.1159097158895 L212.30344207376237 341.878492892826 L212.4015677588225 341.6536259818562 L212.51417229593378 341.4421802790225 L212.63985191193822 341.24489957775796 L212.77718357847476 341.0624012936296 L212.92473512354482 340.89517835499487 L213.08107493113914 340.74360181164207 L213.24478118531346 340.6079241110679 L213.414450620082 340.48828299007045 L213.5887067414979 340.38470592778737 L213.76620749327438 340.2971151051854 L213.94565234223825 340.2253328152894 L214.125788764769 340.1690872681164 L214.30541812013342 340.1280187343356 L214.4834009012521 340.10168597209037 L214.6586613579067 340.08957288217294 L214.8301914916926 340.091095337819 L214.9970544261223 340.10560813676125 L215.1583871591721 340.132412024829 L215.31340270922377 340.17076074228214 L215.46139166877037 340.21986804619263 L215.60172318342072 340.2789146645195 L215.73384537664114 340.3470551400297 L215.85728524331046 340.4234245248835 L215.97164803752716 340.50714488949234 L216.07661618219868 340.59733161215814 L216.17194772975546 340.6930994189812 L216.25747440487228 340.7935681465636 L216.33309926134675 340.8978682031099 L216.3987939862853 341.00514570661613 L216.4545958854867 341.1145672819229 L216.5006045843968 341.2253245014654 L216.53697847925034 341.3366379575679 L216.5639309730186 341.44776095708124 L216.58172653056326 341.5579828320377 L216.59067658696353 341.66663186277674 L216.5911353423528 341.7730778126714 L216.5834954757818 341.8767340761387 L216.56818380963486 341.977059444046 L216.54565695497666 342.07355949290746 L216.5163969669158 342.16578760640584 L216.4809070376501 342.25334563975656 L216.43970725332665 342.33588423925306 L216.39333043921832 342.4131028309926 L216.34231811600446 342.4847492942682 L216.2872165881635 342.55061933643566 L216.22857318364922 342.61055558721273 L216.16693266215142 342.664446431348 L216.10283380734228 342.7122245994088 L216.03680621660186 342.75386553708375 L215.9693672998085 342.7893855738782 L215.90101949688574 342.81883991240875 L215.83224772193014 342.84232045967536 L215.7635170399124 342.8599535217166 L215.6952705801584 342.87189738294177 L215.62792768908858 342.8783397911873 L215.56188232302847 342.8794953691749 L215.49750168031147 342.87560297256226 L215.43512507038133 342.8669230141815 L215.3750630161742 342.85373477336765 L215.3175965847231 342.8363337084933 L215.26297693968493 342.8150287899634 L215.2114251083475 342.79013986998467 L215.16313195463133 342.7619951044287 L215.11825834866292 342.7309284410542 L215.07693552266227 342.6972771872617 L215.0392656021588 342.6613796694235 L215.00532230092682 342.62357299467834 L214.97515176751207 342.5841909249091 L214.9487735708047 342.54356187144356 L214.92618181179787 342.5020070178371 L214.907346348454 342.45983857692454 L214.89221412047652 342.4173581871718 L214.8807105607546 342.3748554522197 L214.8727410803026 342.3326066264053 L214.86819261365463 342.2908734479699 L214.86693521189048 342.24990212062784 L214.8688236707588 342.2099224431784 L214.87369918171908 342.17114708589685 L214.88139099414457 342.13377101155356 L214.8917180774024 342.0979710380688 L214.90449077205452 342.06390553903776 L214.9195124199947 342.0317142776393 L214.9365809639473 342.00151836878996 L214.95549050739876 341.97342036381224 L214.9760328267041 341.9475044513606 L214.9979988278061 341.9238367678871 L215.02117994071492 341.9024658105322 L215.04536944561923 341.88342294499523 L215.07036372522714 341.8667230006697 L215.0959634386654 341.8523649451245 L215.12197461299036 341.84033262986577 L215.14820964908225 341.8305955992299 L215.17448823939807 341.82310995422785 L215.20063819574796 341.8178192631867 L215.22649618592723 341.8146555111124 L215.2519083786811 341.8135400798204 L215.2767309970968 341.81438475105585 L215.30083078110735 341.8170927250356 L215.3240853603459 341.8215596470984 L215.34638353911478 341.82767463543854 L215.36762549571807 341.8353213032163 L215.38772289885753 341.8443787686898 L215.40659894420295 341.85472264738604 L215.42418831461885 341.8662260207217 L215.44043706786286 341.87876037590127 L215.45530245586227 341.89219651234316 L215.46875267992678 341.90640541032496 L215.48076658646784 341.9212590579829 L215.49133330796693 341.9366312332523 L215.50045185406842 341.9523982377833 L215.50813065776893 341.9684395803197 L215.51438708173384 341.9846386074686 L215.5192468897957 342.00088308022885 L215.52274368867864 342.0170656950725 L215.52491834495146 342.0330845487883 L215.5258183821387 342.0488435466979 L215.52549736281813 342.0642527542404 L215.52401426040504 342.0792286922861 L215.52143282517227 342.0936945768913 L215.51782094887872 342.1075805045282 L215.5132500321865 342.1208235841323 L215.5077943588318 342.1333680175908 L215.50153048028795 342.1451651305513 L215.49453661441567 342.1561733556683 L215.4868920613431 342.1663581706106 L215.4786766395545 342.17569199333957 L215.46997014489818 342.1841540373273 L215.46085183494804 342.19173012951825 L215.45139994087663 342.19841249395 L215.44169120871862 342.2041995040334 L215.43180047162534 342.2090954065567 L215.42180025443628 342.2131100205188 L215.41176041162234 342.2162584139138 L215.40174779939002 342.2185605615876 L215.3918259824782 342.2200409872638 L215.3820549759294 342.2207283927945 L215.37249102187826 342.22065527763164 L215.3631864011706 342.2198575514391 L215.35418927941024 342.21837414267304 L215.3455435868261 342.2162466058532 L215.33728893116177 342.21351873012895 L215.32946054261288 342.2102361516145 L215.32208924967534 342.2064459718275 L215.3152014846211 342.20219638441847 L215.30881931718483 342.1975363122195 L215.3029605149294 342.19251505648435 L215.29763862865587 342.187181960021 L215.29286310113847 342.18158608575135 L215.28863939739279 342.175775912061 L215.28496915463157 342.1697990461289 L215.2818503500185 342.16370195625547 L215.27927748430542 342.15752972403743 L215.2772417794234 342.151325817069 L215.2757313880979 342.145131882685 L215.2747316135709 342.13898756310124 L215.27422513753586 342.13293033215126 L215.27419225442736 342.12699535367165 L215.27461111025193 342.12121536144315 L215.27545794420197 342.11562056046085 L215.27670733135898 342.1102385491795 L215.27833242486338 342.10509426225894 L215.2803051960078 342.10020993322655 L215.28259667079612 342.0956050763691 L215.28517716160096 342.09129648707665 L215.28801649264798 342.08729825977497 L215.29108421815485 342.08362182251255 L215.29434983205422 342.08027598720065 L215.29778296833524 342.0772670144526 L215.30135359114328 342.0745986919222 L215.30503217388417 342.07227242500466 L215.30878986668557 342.0702873387372 L215.31259865167368 342.06864038971696 L215.31643148562753 342.0673264868455 L215.3202624296752 342.0663386197064 L215.32406676579606 342.06566799338907 L215.32782109998942 342.0653041685852 L215.33150345206278 342.0652352058057 L215.33509333208167 342.06544781259163 L215.33857180360778 342.06592749262614 L215.34192153393118 342.0666586956948 L215.3451268315777 342.0676249674818 L215.34817367144117 342.06880909824116 L215.3510497079549 342.07019326943214 L215.35374427677368 342.07175919746425 L215.35624838549163 342.07348827375563 L215.35855469396597 342.07536170037014 L215.3606574848594 342.0773606205604 L215.36255262504656 342.07946624360886 L215.36423751856103 342.0816599634249 L215.36571105178126 342.0839234704198 L215.36697353157206 342.0862388562496 L215.3680266171104 342.08858871107884 L215.36887324613144 342.090956213085 L215.36951755633214 342.09332520998424 L215.36996480266686 342.09568029242394 L215.37022127126252 342.09800685914416 L215.37029419066744 342.1002911738709 L215.37019164113326 342.1025204139572 L215.3699224626091 342.1046827108421 L215.36949616210322 342.1067671824462 L215.368922821042 342.1087639576707 L215.36821300322595 342.11066419320815 L215.36737766395112 342.11246008291465 L215.3664280608298 342.1141448600302 L215.3653756668091 342.1157127925647 L215.36423208584793 342.1171591721988 L215.36300897167493 342.11848029707386 L215.3617179500091 342.11967344886614 L215.36037054458646 342.1207368645609 L215.35897810729338 342.12166970335636 L215.3575517526684 342.12247200913725 L215.35610229699256 342.12314466896936 L215.35464020214928 342.1236893680677 L215.35317552439466 342.12410854169485 L215.35171786814138 342.1244053244442 L215.35027634482205 342.12458349735726 L215.348859536861 342.1246474333203 L215.34747546675055 342.1246020411717 L215.34613157119375 342.1244527089442 L215.34483468024496 342.12420524664805 L215.3435910013506 342.12386582898864 L215.34240610816505 342.12344093839096 L215.34128493399143 342.12293730868663 L215.34023176967463 342.122361869797 L215.3392502657523 342.1217216937236 L215.33834343865198 342.1210239421359 L215.33751368070526 342.1202758158194 L215.33676277373658 342.11948450622737 L215.33609190597198 342.1186571493492 L215.33550169200356 342.1178007820878 L215.33499219553835 342.11692230131155 L215.33456295465396 342.1160284257206 L215.3342130092812 342.11512566064334 L215.33394093063177 342.11422026585575 L215.3337448522897 342.1133182264891 L215.33362250268783 342.11242522707255 L215.33357123869465 342.11154662873076 L215.33358808004186 342.11068744953894 L215.33366974433105 342.1098523480138 L215.33381268236545 342.1090456097027 L215.3340131135631 342.108271136812 L215.33426706121801 342.10753244080126 L215.33457038738862 342.1068326378527 L215.33491882720432 342.10617444711113 L215.33530802239548 342.10556019157684 L215.33573355386608 342.10499180152186 L215.3361909731423 342.1044708202902 L215.33667583254612 342.1039984123334 L215.33718371395767 342.1035753733244 L215.33771025604634 342.10320214218905 L215.33825117986487 342.10287881488614 L215.33880231271795 342.10260515976677 L215.33935961023025 342.1023806343388 L215.3399191765556 342.1022044032634 L215.34047728268263 342.10207535740926 L215.3410303828071 342.1019921337915 L215.34157512875527 342.10195313622546 L215.3421083824554 342.10195655652836 L215.3426272264677 342.1020003961054 L215.343128972595 342.10208248776337 L215.3436111686079 342.1022005175994 L215.34407160312853 342.10235204681976 L215.34450830872717 342.10253453335076 L215.3449195632952 342.1027453531116 L215.34530388976526 342.10298182082647 L215.34566005425796 342.10324121026423 L215.34598706274028 342.10352077379883 L215.34628415628637 342.1038177611983 L215.34655080503728 342.10412943755387 L215.3467867009583 342.10445310027535 L215.34699174949787 342.1047860950849 L215.34716606025265 342.105125830953 L215.34730993674552 342.1054697939287 L215.3474238654244 342.10581555982657 L215.34750850398896 342.106160805741 L215.34756466915263 342.1065033203685 L215.34759332394486 342.10684101312626 L215.34759556465787 342.10717192206386 L215.34757260753855 342.1074942205741 L215.3475257753239 342.1078062229139 L215.34745648371398 342.1081063885566 L215.3473662278737 342.1083933254008 L215.34725656904837 342.1086657918685 L215.34712912137562 342.10892269793095 L215.34698553896888 342.1091631051058 L215.34682750334417 342.10938622547206 L215.34665671125504 342.1095914197572 L215.3464748629958 342.10977819455 L215.34628365122683 342.1099461986994 L215.34608475037007 342.11009521895943 L215.3458798066165 342.1102251749445 L215.34567042858225 342.1103361134594 L215.34545817864324 342.11042820226965 L215.34524456497311 342.1105017233791 L215.34503103430305 342.1105570658813 L215.34481896541672 342.11059471844976 L215.34460966338855 342.1106152615341 L215.34440435456747 342.1106193593252 L215.34420418230425 342.1106077515525 L215.34401020341545 342.1105812451745 L215.34382338537236 342.11054070602086 L215.3436446041993 342.11048705044317 " stroke = "blue" stroke-width = "4" fill = "none" /></svg>