<svg width="330.5785123966942" height="440.00000000000006" viewbox = "0 0 330.5785123966942 440.00000000000006"  xmlns="http://www.w3.org/2000/svg">

<!--
<topfunctions>







function YofX(){
    X = plotparams.g*(x - plotparams.x0) - funcparams.X0;
    Y = funcparams.a*X*X*X + funcparams.b*X*X + funcparams.c*X + funcparams.d;
    y = plotparams.y0 - plotparams.G*(Y - funcparams.Y0);
}


function YofX2(){
    X = plotparams.g*(x - plotparams.x0) - funcparams.X0;
    Y = funcparams.b*X*X + funcparams.c*X + funcparams.d;
    y = plotparams.y0 - plotparams.G*(Y - funcparams.Y0);
 }

function XYofT(){
    T = plotparams.g*t;
    X = funcparams.a*Math.cos(2*Math.PI*T/funcparams.T);
    Y = funcparams.b*Math.sin(2*Math.PI*T/funcparams.T);

    Xrot = Math.cos(Math.PI*funcparams.theta/180)*X - Math.sin(funcparams.theta*Math.PI/180)*Y;
    Yrot = Math.sin(funcparams.theta*Math.PI/180)*X + Math.cos(funcparams.theta*Math.PI/180)*Y;
    X = Xrot;
    Y = Yrot;

    y = plotparams.y0 - plotparams.G*(Y - funcparams.Y0);
    x = plotparams.x0 - plotparams.G*(X - funcparams.X0);    
}


function plotfunction(){


    currentStroke = "blue";
    currentLineWidth = 4;
    ctx.strokeStyle = currentStroke;
    ctx.lineWidth = currentLineWidth;
    ctx.beginPath();	
    x = 0;
    y = 0;
    t= 0;
    XYofT();
    currentSVG += "	<path d = \"M";
    currentSVG += Math.round(x).toString() + " ";
    currentSVG += Math.round(y).toString() + " ";
    for(t = 1;t < plotparams.duration;t++){
        ctx.moveTo(x,y);
        XYofT();
        ctx.lineTo(x,y);
        currentSVG += "L" + x + " " + y + " ";
    }
    ctx.stroke();
    currentSVG += "\""+ " stroke = \"" + currentStroke + "\" stroke-width = \"" + currentLineWidth.toString() + "\" fill = \"" + "none" + "\" "+"/>";


    /*plot one function:
    currentStroke = "blue";
    currentLineWidth = 4;
    ctx.strokeStyle = currentStroke;
    ctx.lineWidth = currentLineWidth;
    ctx.beginPath();	
    x = 0;
    YofX();
    currentSVG += "	<path d = \"M";
    currentSVG += Math.round(x).toString() + " ";
    currentSVG += Math.round(y).toString() + " ";
    for(x = 1;x < plotparams.plotwidth;x++){
        ctx.moveTo(x-1,y);
        YofX();
        ctx.lineTo(x,y);
        currentSVG += "L" + x + " " + y + " ";
    }
    ctx.stroke();
    currentSVG += "\""+ " stroke = \"" + currentStroke + "\" stroke-width = \"" + currentLineWidth.toString() + "\" fill = \"" + "none" + "\" "+"/>";
    /*finish plot one function*/
    

}
























</topfunctions>
-->

<!--
<imgurl>
https://i.imgur.com/eMRyIOx.jpg
</imgurl>
-->

<!--
<currentjson>
{
    "constants": {},
    "imgurl": "https://i.imgur.com/eMRyIOx.jpg",
    "plotparams": {
        "G": -18.497759559235448,
        "g": 0.017985878990921366,
        "duration": 545.4545454545454,
        "plotwidth": 330.5785123966942,
        "plotheight": 440.00000000000006,
        "x0": 150.49816637103063,
        "y0": 220.44021999999993
    },
    "funcparams": {
        "theta": 90.26623758344712,
        "a": 0.7911227781140419,
        "b": 2.3639843440633896,
        "T": 1.4655609018152753,
        "X0": 0,
        "Y0": 0
    }
}
</currentjson>
-->

<!--
<equation>


<h2>Ellipse</h2>
<p style="color:blue">

</p><p class="bigeq">
$$
(X,Y) = (a\cos{\frac{2\pi t}{T}},b\sin{\frac{2\pi t}{T}})
$$
</p>
<p></p>

$$
X = g(x - x_0) - X_0
$$
$$
Y = f(X)
$$
    
$$
y = y_0 - G(Y - Y_0)
$$


<p>
    X and Y, and $X_0$ and $Y_0$ in physical units of the System. x and y and x0 and y0 in pixels.  G is in pixels per Y unit and g is in X units per pixel. 
</p>



</equation>
-->
	<path d = "M150 235 L147.06187095490543 235.01492445909588 L143.71399706543775 234.86917162343477 L140.40644097438042 234.6376686337575 L137.15885923417238 234.321791294595 L133.9905519742805 233.92341684077275 L130.92034820200877 233.4449127811482 L127.96649390315042 232.8891228286868 L125.14654360749246 232.25935000049392 L122.47725606358999 231.5593369882371 L119.9744946428075 230.79324391561636 L117.65313306451831 229.96562361506759 L115.5269670027298 229.0813945706284 L113.6086320994498 228.1458116877642 L111.90952887203431 227.1644350638677 L110.43975496078612 226.14309694502597 L109.20804511945224 225.08786706542895 L108.2217193052516 224.00501657540406 L107.48663917693011 222.90098077245034 L107.00717325937188 221.78232085675847 L106.78617098179035 220.65568493850068 L106.82494574378902 219.52776852862132 L107.12326710992807 218.40527474792842 L107.6793621791846 217.29487449096015 L108.48992612116751 216.20316678136976 L109.55014181647142 215.13663955443357 L110.85370848444813 214.10163109974872 L112.39287912826329 213.10429239326365 L114.15850657470513 212.1505505424994 L116.14009783513391 211.24607356220355 L118.3258764645096 210.39623668977305 L120.70285254790244 209.60609044063003 L123.25689989856212 208.88033059339568 L125.97284000876338 208.22327028323764 L128.8345322545145 207.63881436923813 L131.82496981804908 207.13043622811566 L134.92638075804103 206.70115711221322 L138.12033362689024 206.3535281944272 L141.38784700740356 206.08961540678226 L144.70950231790286 205.91098716275548 L148.06555921536832 205.81870503631546 L151.43607291078433 205.81331745306937 L154.80101269949284 205.89485643101168 L158.14038100213617 206.0628373902436 L161.43433220873922 206.3162620327944 L164.66329061964902 206.65362427542965 L167.80806678241788 207.07291920018858 L170.84997153324923 207.57165496945785 L173.77092706526602 208.14686763477158 L176.55357436353208 208.79513875133003 L179.1813763683478 209.51261569355518 L181.63871625372903 210.29503455094923 L183.91099023700744 211.13774546818814 L185.98469436799178 212.03574027885554 L187.84750478190966 212.98368226859193 L189.48835093919135 213.97593789077942 L190.89748141683847 215.00661024627757 L192.06652186038363 216.06957412824315 L192.98852475203748 217.1585124237652 L193.6580106992547 218.26695365598303 L194.071000998344 219.38831044357735 L194.2250412795994 220.5159186490729 L194.11921609343122 221.64307698329668 L193.75415435081302 222.76308683062626 L193.1320255857118 223.86929205834915 L192.2565270617138 224.95511857354944 L191.1328617994704 226.01411339243853 L189.7677076555448 227.0399829899432 L188.16917763642243 228.02663070164303 L186.34677168353463 228.96819295577993 L184.3113202158348 229.8590741200159 L182.07491976544833 230.69397975584715 L179.65086108890878 231.46794808304674 L177.05355018121026 232.17637946714413 L174.29842266208294 232.81506375470045 L171.40185204328733 233.38020529392787 L168.38105242208854 233.8684454919575 L165.25397617919538 234.27688277469906 L162.03920728913656 234.603089830674 L158.7558508771245 234.84512803634115 L155.42341967875961 235.0015589771881 L152.06171807733796 235.07145299611844 L148.69072440791803 235.05439471833265 L145.33047222760666 234.95048551986866 L142.00093125766406 234.7603429251319 L138.72188870497996 234.48509693699503 L135.5128316682193 234.1263833212774 L132.392831327488 233.6863338855142 L129.38042960577044 233.1675638097875 L126.4935289757021 232.5731561049116 L123.74928606654592 231.90664329033558 L121.16400970365943 231.1719864006513 L118.75306398639498 230.37355144546802 L116.53077698043424 229.51608346255188 L114.51035556719201 228.60467831842993 L112.70380695633146 227.64475242404595 L111.12186732783732 226.64201054544498 L109.77393802772048 225.60241190078594 L108.66802969653926 224.53213474516465 L107.81071466277609 223.43753965371712 L107.20708788399298 222.32513172120878 L106.86073666788906 221.20152190275485 L106.7737193532057 220.0733877254204 L106.94655307717726 218.94743360418866 L107.37821070222385 217.83035099813665 L108.06612692015153 216.72877864360623 L109.00621349758227 215.6492631007027 L110.19288357201157 214.59821984759 L111.6190848541045 213.58189515379507 L113.27634153891076 212.6063289591069 L115.15480467692413 211.67731897867696 L117.24331070563494 210.80038624764234 L119.52944779372649 209.98074231003696 L121.9996296036379 209.2232582469845 L124.63917603412717 208.53243572823666 L127.4324004629882 207.9123802590946 L130.36270297144466 207.36677678170554 L133.41266899619546 206.89886777573392 L136.56417282283041 206.5114339885531 L139.79848530556183 206.2067779094769 L143.09638517310347 205.98671008624183 L146.43827325921296 205.85253836506078 L149.8042889790351 205.8050601181931 L153.17442835903606 205.84455750522233 L156.52866291908558 205.97079579620348 L159.84705870017982 206.18302476664508 L163.10989473043225 206.47998315603581 L166.29778022529914 206.85990616341914 L169.391769825526 207.32053593547022 L172.37347618796642 207.85913498474514 L175.22517926015345 208.47250245835912 L177.92993158921382 209.15699316040994 L180.47165903928203 209.90853921509796 L182.8352563188581 210.72267424180026 L185.00667675039773 211.5945598984285 L186.97301574864093 212.5190146353254 L188.72258751157318 213.49054448881714 L190.24499446825183 214.50337573141869 L191.53118907077334 215.55148918465392 L192.57352756315743 216.628655990572 L193.36581540760312 217.7284746293731 L193.9033440981525 218.84440896315 L194.18291914298064 219.96982707965495 L194.20287904901596 221.0980407052461 L193.96310519606612 222.22234495278528 L193.46502254176875 223.33605816826852 L192.71159115317752 224.43256163938392 L191.7072886153103 225.50533893001187 L190.45808342120438 226.5480146069056 L188.97139950161986 227.55439212840244 L187.25607210518777 228.5184906699963 L185.32229529120423 229.43458066791948 L183.18156134711745 230.297217869501 L180.84659249074383 231.1012756879432 L178.33126526310173 231.84197566923453 L175.65052806119184 232.51491589013526 L172.82031230081915 233.11609711847018 L169.85743773740896 233.64194658025923 L166.77951250748927 234.08933919243918 L163.6048284848848 234.4556161349931 L160.35225257351158 234.73860065211386 L157.0411145828133 234.93661098849725 L153.6910923521838 235.0484703838848 L150.32209480707598 235.0735140664599 L146.9541436417831 235.0115932035357 L143.60725433204283 234.86307578605653 L140.30131718459927 234.62884444165567 L137.05597913063363 234.31029118926716 L133.89052696555729 233.9093091664638 L130.82377272906442 233.42828137868565 L127.87394190662148 232.87006653722133 L125.05856511680341 232.23798207010566 L122.39437392817038 231.53578440689924 L119.89720142483813 230.7676466545153 L117.58188811167176 229.9381337967649 L115.46219371830227 229.0521755650081 L113.5507154261081 228.11503714113806 L111.85881300413077 227.13228786700853 L110.39654129883797 226.1097681462617 L109.17259047894163 225.0535547352571 L108.19423439039078 223.96992462937408 L107.4672873284623 222.86531775930885 L106.99606948384985 221.74629871906023 L106.78338126810134 220.6195177530502 L106.83048667098772 219.49167123423075 L107.13710574870868 218.36946186805267 L107.70141628757709 217.25955885880052 L108.5200646332954 216.16855827502243 L109.5881856214662 215.10294384960028 L110.89943149089143 214.06904844742164 L112.446009607831 213.0730164296492 L114.21872877702768 212.12076713825311 L116.20705386427693 211.21795971781503 L118.39916840592181 210.36995948366553 L120.78204483319126 209.58180603622617 L123.34152189404351 208.85818331105025 L126.06238881240141 208.20339174255284 L128.92847568463006 207.62132270685822 L131.9227495760346 207.11543539565002 L135.02741574628615 206.68873625845995 L138.2240234022007 206.34376113556849 L141.4935753493888 206.08256018770058 L144.81664089112712 205.90668571207732 L148.17347130349927 205.81718291723263 L151.54411720054995 205.81458371141895 L154.90854709195702 205.8989035415173 L158.24676642864338 206.06964130123765 L161.53893642885032 206.3257823091551 L164.7654919784983 206.66580433888402 L167.90725790515987 207.08768666555267 L170.9455629346409 207.58892207481637 L173.86235065293297 208.16653176304035 L176.6402868140971 208.81708304010135 L179.26286235636076 209.53670972960214 L181.71449151420623 210.32113514526156 L183.9806044433814 211.16569750693358 L186.0477338083676 212.06537764520937 L187.90359481772296 213.0148288299566 L189.5371582316567 214.00840854552706 L190.93871590795618 215.0402120237948 L192.09993849673205 216.1041073357405 L193.01392494110715 217.1937718330364 L193.675243489668 218.30272972306014 L194.0799639769478 219.42439055403477 L194.22568118009852 220.55208838157844 L194.11152911294604 221.67912138390125 L193.73818617247963 222.79879169021862 L193.10787110719065 223.90444518568427 L192.2243298312201 224.98951105628487 L191.09281316267817 226.04754083868437 L189.72004561843417 227.07224674294747 L188.11418545082827 228.0575390203935 L186.2847761638027 228.99756215450637 L184.24268979658905 229.8867296598204 L182.00006231201215 230.7197572819755 L179.57022147339273 231.49169440163612 L176.96760763867098 232.1979534556425 L174.2076879424663 232.83433720054705 L171.3068643760803 233.3970636565107 L168.28237631171993 233.8827885833193 L165.15219805022883 234.28862535494684 L161.93493200119482 234.61216211455297 L158.64969813025468 234.85147610796326 L155.31602033060346 235.00514511045012 L151.953710393993 235.0722558789051 L148.58275027077136 235.05240957917312 L145.2231733186829 234.94572415629284 L141.89494524615813 234.75283363355874 L138.61784545763805 234.474884344569 L135.41134950608907 234.11352812065286 L132.2945133512837 233.67091247416352 L129.28586011169216 233.14966783597686 L126.4032699830076 232.5528919230422 L123.6638739775136 231.88413132888778 L121.08395211579051 231.1473604464872 L118.67883667580043 230.34695784874648 L116.46282107433404 229.4876802669807 L114.4490749223296 228.57463432202434 L112.64956575888422 227.61324617597467 L111.07498792908592 226.60922928492647 L109.73469902834006 225.56855044433993 L108.63666429089679 224.49739432883246 L107.78740925307424 223.40212673713134 L107.19198097249603 222.28925676061948 L106.85391803381461 221.16539810030423 L106.77522951917368 220.03722976209883 L106.95638306838697 218.91145636400194 L107.39630209979072 217.79476829106673 L108.0923722082859 216.693801934955 L109.04045670254749 215.61510025437 L110.23492118906414 214.56507389075412 L111.668667056907 213.549963070338 L113.33317366423069 212.57580051895414 L115.21854897579496 211.6483756100094 L117.31358835057225 210.77319995868248 L119.60584113007079 209.95547466681714 L122.08168463164421 209.2000594131725 L124.72640510705088 208.51144357272443 L127.5242851851319 207.893719536654 L130.45869727894444 207.3505583915804 L133.51220240223654 206.88518810257412 L136.66665380800637 206.5003743296082 L139.9033048332295 206.19840399145264 L143.20292030884076 205.98107167469144 L146.54589087287042 205.84966896863213 L149.9123495073799 205.80497678948933 L153.2822896066274 205.84726073945953 L156.63568387479282 205.9762695282677 L159.9526033466626 206.191236466566 L163.21333582394317 206.49088402230998 L166.39850302334446 206.87343141303347 L169.4891757402339 207.33660518890252 L172.46698634344858 207.87765274365339 L175.31423793272026 208.4933586731209 L178.01400950999715 209.18006388413872 L180.55025653964069 209.93368734025032 L182.90790629986913 210.74975031499508 L185.0729474587901 211.6234030086373 L187.03251334267205 212.549453370154 L188.7749584016003 213.52239795319656 L190.28992741808761 214.5364546226505 L191.56841704733972 215.58559691742198 L192.60282932344185 216.66358986523363 L193.3870168134892 217.76402703658763 L193.91631915130944 218.88036861768535 L194.18759073366158 220.00598027603914 L194.1992194143154 221.134172587803 L193.95113608491266 222.25824079250506 L193.44481508567304 223.37150463892593 L192.68326544350293 224.4673480853196 L191.6710129895791 225.53925861804285 L190.4140734626812 226.58086595492455 L188.91991675811624 227.58597990336511 L187.19742253470397 228.5486271481762 L185.25682744364426 229.46308675053567 L183.10966429288354 230.32392414708846 L180.7686935085206 231.12602344714048 L178.2478273005724 231.86461783600473 L175.56204698377516 232.53531790381595 L172.7273139447791 233.13413773145723 L169.7604747848502 233.65751857857185 L166.67916120181056 234.1023500328844 L163.5016852062068 234.465988495143 L160.2469302944373 234.74627288982677 L156.9342392255778 234.94153750825225 L153.5832990688469 235.05062190775243 L150.2140242048619 235.07287780809867 L146.8464379760011 235.0081729441803 L143.50055368921244 234.85689185204626 L140.19625567846606 234.61993358363657 L136.95318113367918 234.29870636378573 L133.79060339840126 233.89511922125024 L130.72731742981117 233.4115706434973 L127.78152810172435 232.85093432267703 L124.97074201442456 232.21654207749066 L122.31166345427872 231.51216405244702 L119.82009512144302 230.74198631218263 L117.51084421562656 229.9105859640003 L115.39763443803844 229.02290395647117 L113.4930244324818 228.08421571575565 L111.8083331502971 227.10009979415022 L110.35357258270082 226.07640471717846 L109.1373882602889 225.01921422625182 L108.16700787331078 223.93481112346063 L107.44819831806015 222.82963993336273 L106.98523142465186 221.71026860366757 L106.78085856986294 220.58334947242625 L106.83629432591128 219.4555797336962 L107.1512092423459 218.3336616366302 L107.72373180394587 217.22426265452248 L108.55045955299167 216.13397586052665 L109.62647930981092 215.0692807455265 L110.94539637142867 214.03650471101827 L112.49937251479739 213.04178546584833 L114.27917257875538 212.09103455027994 L116.2742193478834 211.18990220416174 L118.47265641208377 210.3437437879862 L120.86141862831846 209.5575879563917 L123.42630976575296 208.83610677325356 L126.15208687286739 208.1835879459667 L129.02255086515152 207.60390934392848 L132.02064279502125 207.1005159526584 L135.1285452318378 206.67639940051308 L138.3277881495329 206.33408017966798 L141.59935869255813 206.07559266702563 L144.92381416782942 205.9024730340695 L148.28139759116252 205.81575011751454 L151.6521551015154 205.81593930500955 L155.0160545452565 205.9030394722278 L158.35310452571863 206.07653298954864 L161.6434732105379 206.33538879829098 L164.86760619071353 206.67806853821585 L168.00634269096312 207.10253568988347 L171.04102944074174 207.60626767753223 L173.9536315291997 208.18627086055326 L176.72683958527537 208.83909832446705 L179.34417264596308 209.56087036567243 L181.79007610141107 210.34729754822735 L184.0500141347779 211.19370619563844 L186.1105561074777 212.09506616616227 L187.95945637643626 213.04602074655213 L189.5857270690094 214.04091848659456 L190.97970338306916 215.0738467852454 L192.1331010241811 216.13866702876385 L193.03906543853228 217.2290510720246 L193.69221254901925 218.33851884619895 L194.08866075240545 219.46047686930723 L194.22605398739236 220.5882574307777 L194.1035757365109 221.71515821713905 L193.72195387862232 222.834482143356 L193.08345636318984 223.93957715309273 L192.19187773202893 225.0238757513737 L191.05251656863578 226.0809340347035 L189.67214400911163 227.1044699866914 L188.05896350181973 228.08840081159352 L186.22256205492027 229.02687908390183 L184.17385326151515 229.91432749914605 L181.9250124410009 230.74547201938668 L179.48940428207752 231.5153732164185 L176.8815034174281 232.21945562641397 L174.1168084020855 232.85353494155416 L171.2117496067072 233.41384287704952 L168.18359157314202 233.89704956576762 L165.05033041257866 234.30028334737864 L161.8305868560384 234.62114783441243 L158.54349559279524 234.8577361538057 L155.20859155438436 235.00864227930268 L151.8456938200004 235.07296938736127 L148.47478783322924 235.05033518690675 L145.11590663008553 234.94087419125827 L141.78901178421768 234.7452369187266 L138.5138747768024 234.46458602663347 L135.30995949614896 234.10058940172846 L132.19630656530043 233.65541024806552 L129.19142018507037 233.13169423124725 L126.31315816499551 232.53255375543677 L123.57862579574183 231.86154946657842 L121.00407419367198 231.1226690917515 L118.60480372170642 230.3203037404139 L116.39507306043882 229.45922180837502 L114.38801446988901 228.5445406395846 L112.59555574548878 227.5816961141499 L111.02834933210741 226.57641034331695 L109.69570901738706 225.5346576634012 L108.60555458061718 224.46262913076492 L107.76436472609271 223.36669572884355 L107.17713858067088 222.2533705058792 L106.84736598434327 221.12926986837388 L106.77700675038417 220.00107426029274 L106.96647901833038 218.87548846169733 L107.41465676901004 217.75920174275126 L108.11887651638818 216.6588481099004 L109.07495313646038 215.58096688048053 L110.27720473912382 214.53196382005567 L111.71848643521503 213.518073073444 L113.39023279803874 212.54532011567284 L115.28250876704244 211.6194859430422 L117.38406869112006 210.7460727171068 L119.68242316065519 209.93027106575124 L122.1639132311246 209.1769292356866 L124.81379159716016 208.49052427969124 L127.61631023465486 207.87513544982926 L130.5548139900626 207.33441995476815 L133.61183956069948 206.871591225268 L136.76921927781513 206.48939981700826 L140.00818907565508 206.19011706424644 L143.3095000048662 205.97552158145248 L146.6535326275276 205.84688869313933 L150.02041361396851 205.80498285470688 L153.3901338484411 205.85005310934233 L156.74266734176507 205.9818316079755 L160.05809024424576 206.1995352010852 L163.31669925158667 206.50187009289715 L166.49912870011693 206.8870395303128 L169.58646565544836 207.35275448087563 L172.56036231059252 207.8962472363154 L175.4031450255749 208.51428786082647 L178.09791936052167 209.20320338632894 L180.62867047802183 209.9588996406364 L182.98035831807917 210.77688557880762 L185.13900698003542 211.65229997308225 L187.0917877802792 212.57994030278573 L188.82709549212782 213.55429367251017 L190.33461731480145 214.56956957483004 L191.60539416160714 215.61973430284343 L192.63187390310603 216.69854680803113 L193.40795624883833 217.7995957903282 L193.92902900088356 218.9163377999906 L194.19199546379852 220.0421361248146 L194.1952928480414 221.1703002316095 L193.93890155751026 222.29412552752325 L193.42434530600116 223.40693320492508 L192.65468206189388 224.5021099330463 L191.63448587488006 225.5731471604992 L190.36981969273592 226.61367979509942 L188.86819932968916 227.6175240311202 L187.13854880050988 228.5787140991771 L185.1911472857748 229.49153772033765 L183.03756804348484 230.35057005375782 L180.69060963007948 231.15070593609525 L178.16421983959543 231.88719022110425 L175.47341281299754 232.55564603910494 L172.63417981028698 233.15210080838514 L169.6633941756695 233.67300984394868 L166.5787110605633 234.11527742330696 L163.39846250038713 234.4762751841204 L160.14154846867672 234.75385774435458 L156.8273245559929 234.94637545212112 L153.47548694112834 235.05268418943257 L150.10595533822436 235.07215217160805 L146.73875461543892 235.00466370192106 L143.3938957886873 234.85061985917622 L140.09125709770962 234.61093611412886 L136.85046587121175 234.28703688891224 L133.69078188315896 233.8808470918062 L130.63098289341048 233.3947806776544 L127.68925305293453 232.83172630191598 L124.8830748367906 232.19503015360712 L122.22912514712112 231.4884760691566 L119.74317620359706 230.71626304535505 L117.44000181032816 229.88298028503957 L115.3332895562746 228.99357992381235 L113.4355594709548 228.05334759987804 L111.75808961887074 227.0678710419016 L110.31084907483294 226.0430068615642 L109.10243867851347 224.98484574816905 L108.14003992031466 223.89967627214148 L107.42937226232186 222.7939475125368 L106.97465914797813 221.67423073065697 L106.77860290248411 220.5471803175494 L106.84236867308576 219.4194942474694 L107.16557750469384 218.29787427233327 L107.74630859198496 217.18898609371968 L108.5811106946004 216.09941974911598 L109.66502264760291 215.03565044783073 L110.99160284530052 214.0040000893199 L112.5529675232149 213.0105996926238 L114.33983761069021 212.06135296019 L116.34159387569801 211.16190119262254 L118.54634003412178 210.31758976286378 L120.940973448459 209.5334363490537 L123.51126299579501 208.814101114852 L126.24193364227389 208.16385901444337 L129.11675722145574 207.5865743868119 L132.1186488770648 207.08567799027065 L135.2297685969844 206.66414661372775 L138.43162723507837 206.32448538585822 L141.7051963907726 206.06871288731594 L145.031021493382 205.89834915446355 L148.3893374191307 205.81440664591292 L151.76018595377147 205.81738422556109 L155.12353440272233 205.9072641978803 L158.4593946438359 206.08351241308125 L161.7479419152777 206.34508144152437 L164.96963263256822 206.69041679851392 L168.1053205346053 207.1174661824813 L171.1363704684299 207.62369167165625 L174.04476913651075 208.20608480674133 L176.813232148392 208.86118446995505 L179.42530674050155 209.58509745418988 L181.86546955366333 210.37352160004326 L184.11921888723398 211.22177136322222 L186.1731608815955 212.12480566037297 L188.01508911683982 213.07725782785425 L189.63405715458504 214.0734675154073 L191.02044359182108 215.10751432518418 " stroke = "blue" stroke-width = "4" fill = "none" /></svg>