<svg width="400" height="400" viewbox = "0 0 400 400"  xmlns="http://www.w3.org/2000/svg">

<!--
<topfunctions>




function YofX(){
    X = plotparams.g*(x - plotparams.x0) - funcparams.X0;
    Y = 0.5*X*(1 + Math.tanh(X + funcparams.Delta));
    y = plotparams.y0 - plotparams.G*(Y - funcparams.Y0);
}



function plotfunction(){
/*

    currentStroke = "blue";
    currentLineWidth = 4;
    ctx.strokeStyle = currentStroke;
    ctx.lineWidth = currentLineWidth;
    ctx.beginPath();	
    x = 0;
    y = 0;
    t= 0;
    XYofT();
    currentSVG += "	<path d = \"M";
    currentSVG += Math.round(x).toString() + " ";
    currentSVG += Math.round(y).toString() + " ";
    for(t = 1;t < plotparams.duration;t++){
        ctx.moveTo(x,y);
        XYofT();
        ctx.lineTo(x,y);
        currentSVG += "L" + x + " " + y + " ";
    }
    ctx.stroke();
    currentSVG += "\""+ " stroke = \"" + currentStroke + "\" stroke-width = \"" + currentLineWidth.toString() + "\" fill = \"" + "none" + "\" "+"/>";


    /*plot one function:*/
    currentStroke = "blue";
    currentLineWidth = 4;
    ctx.strokeStyle = currentStroke;
    ctx.lineWidth = currentLineWidth;
    ctx.beginPath();	
    x = 0;
    YofX();
    currentSVG += "	<path d = \"M";
    currentSVG += Math.round(x).toString() + " ";
    currentSVG += Math.round(y).toString() + " ";
    for(x = 1;x < plotparams.plotwidth;x++){
        ctx.moveTo(x-1,y);
        YofX();
        ctx.lineTo(x,y);
        currentSVG += "L" + x + " " + y + " ";
    }
    ctx.stroke();
    currentSVG += "\""+ " stroke = \"" + currentStroke + "\" stroke-width = \"" + currentLineWidth.toString() + "\" fill = \"" + "none" + "\" "+"/>";
    /*finish plot one function*/
    

}






























</topfunctions>
-->

<!--
<imgurl>

</imgurl>
-->

<!--
<currentjson>
{
    "constants": {},
    "imgurl": "",
    "plotparams": {
        "G": 3.5866914191444175,
        "g": 0.23579476910000013,
        "duration": 545.4545454545454,
        "plotwidth": 400,
        "plotheight": 400,
        "x0": 13.044495884682448,
        "y0": 330.5785123966942
    },
    "funcparams": {
        "a": 0.12727272727272726,
        "Delta": -33.63749974662805,
        "b": 0,
        "c": 0,
        "X0": 0,
        "Y0": 0
    }
}
</currentjson>
-->

<!--
<equation>





<h2>X  times Hyperbolic Cotangent</h2>
<p style="color:blue">

</p><p class="bigeq">
$$
Y = \frac{1}{2}X(1 + \tanh{X + \Delta})$$
</p>
<p></p>

$$
X = g(x - x_0) - X_0
$$
$$
Y = f(X)
$$
    
$$
y = y_0 - G(Y - Y_0)
$$


<p>
    X and Y, and $X_0$ and $Y_0$ in physical units of the System. x and y and x0 and y0 in pixels.  G is in pixels per Y unit and g is in X units per pixel. 
</p>






</equation>
-->
	<path d = "M0 331 L1 330.5785123966942 L2 330.5785123966942 L3 330.5785123966942 L4 330.5785123966942 L5 330.5785123966942 L6 330.5785123966942 L7 330.5785123966942 L8 330.5785123966942 L9 330.5785123966942 L10 330.5785123966942 L11 330.5785123966942 L12 330.5785123966942 L13 330.5785123966942 L14 330.5785123966942 L15 330.5785123966942 L16 330.5785123966942 L17 330.5785123966942 L18 330.5785123966942 L19 330.5785123966942 L20 330.5785123966942 L21 330.5785123966942 L22 330.5785123966942 L23 330.5785123966942 L24 330.5785123966942 L25 330.5785123966942 L26 330.5785123966942 L27 330.5785123966942 L28 330.5785123966942 L29 330.5785123966942 L30 330.5785123966942 L31 330.5785123966942 L32 330.5785123966942 L33 330.5785123966942 L34 330.5785123966942 L35 330.5785123966942 L36 330.5785123966942 L37 330.5785123966942 L38 330.5785123966942 L39 330.5785123966942 L40 330.5785123966942 L41 330.5785123966942 L42 330.5785123966942 L43 330.5785123966942 L44 330.5785123966942 L45 330.5785123966942 L46 330.5785123966942 L47 330.5785123966942 L48 330.5785123966942 L49 330.5785123966942 L50 330.5785123966942 L51 330.5785123966942 L52 330.5785123966942 L53 330.5785123966942 L54 330.5785123966942 L55 330.5785123966942 L56 330.5785123966942 L57 330.5785123966942 L58 330.5785123966942 L59 330.5785123966942 L60 330.5785123966942 L61 330.5785123966942 L62 330.5785123966942 L63 330.5785123966942 L64 330.5785123966942 L65 330.5785123966942 L66 330.5785123966942 L67 330.5785123966942 L68 330.5785123966942 L69 330.5785123966942 L70 330.5785123966942 L71 330.5785123966942 L72 330.5785123966942 L73 330.5785123966942 L74 330.5785123966942 L75 330.5785123966942 L76 330.5785123966942 L77 330.5785123966942 L78 330.5785123966942 L79 330.5785123966942 L80 330.5785123966942 L81 330.5785123966941 L82 330.5785123966941 L83 330.5785123966941 L84 330.57851239669407 L85 330.57851239669395 L86 330.57851239669384 L87 330.57851239669367 L88 330.5785123966933 L89 330.57851239669276 L90 330.5785123966919 L91 330.5785123966905 L92 330.57851239668815 L93 330.57851239668446 L94 330.5785123966784 L95 330.57851239666854 L96 330.57851239665257 L97 330.57851239662676 L98 330.5785123965848 L99 330.5785123965168 L100 330.5785123964067 L101 330.5785123962282 L102 330.5785123959389 L103 330.5785123954702 L104 330.5785123947109 L105 330.578512393481 L106 330.5785123914889 L107 330.5785123882628 L108 330.5785123830388 L109 330.57851237458044 L110 330.5785123608867 L111 330.57851233871946 L112 330.57851230283893 L113 330.57851224476747 L114 330.5785121507899 L115 330.5785119987194 L116 330.57851175266853 L117 330.57851135459316 L118 330.5785107106215 L119 330.57850966895205 L120 330.5785079841237 L121 330.5785052592614 L122 330.5785008527258 L123 330.5784937272397 L124 330.5784822060633 L125 330.5784635789804 L126 330.57843346562527 L127 330.5783847867817 L128 330.57830610237824 L129 330.57817892648734 L130 330.5779733899737 L131 330.57764123447186 L132 330.57710449667815 L133 330.5762372336522 L134 330.57483601287805 L135 330.57257226675404 L136 330.56891538159925 L137 330.56300858077645 L138 330.5534687127768 L139 330.53806349826954 L140 330.5131917518297 L141 330.47304761314246 L142 330.4082800222877 L143 330.30385112731165 L144 330.1356367723311 L145 329.8650860902556 L146 329.4309745869264 L147 328.7370298899449 L148 327.63427012769336 L149 325.89803588184947 L150 323.20358167195997 L151 319.1134569613338 L152 313.1066348663359 L153 304.6962290189433 L154 293.6679529081747 L155 280.37446900905803 L156 265.8637783307966 L157 251.6132052962437 L158 238.95988584816268 L159 228.64451568244357 L160 220.75243614377985 L161 214.94763572713583 L162 210.74594104064664 L163 207.68848036217204 L164 205.41028712991334 L165 203.64717643231063 L166 202.21814158059024 L167 201.003212010228 L168 199.9244729544271 L169 198.9319553673798 L170 197.9938622371514 L171 197.0900584989593 L172 196.20783274376933 L173 195.33917555143086 L174 194.4790463240207 L175 193.62427529019044 L176 192.77287013468592 L177 191.92357902293747 L178 191.0756155592366 L179 190.22848580862015 L180 189.38187956444577 L181 188.5356020232947 L182 187.68953086066873 L183 186.8435892685974 L184 185.99772902143542 L185 185.15191984094238 L186 184.30614271785467 L187 183.46038571825824 L188 182.6146413503897 L189 181.76890491131138 L190 180.92317344887152 L191 180.07744510999584 L192 179.23171873154487 L193 178.38599358346315 L194 177.54026920754012 L195 176.6945453161948 L196 175.84882172894257 L197 175.0030983325156 L198 174.15737505583195 L199 173.31165185428532 L200 172.46592869988442 L201 171.62020557506486 L202 170.77448246880545 L203 169.92875937419083 L204 169.08303628688196 L205 168.23731320415658 L206 167.3915901243066 L207 166.54586704626053 L208 165.70014396934604 L209 164.8544208931414 L210 164.008697817382 L211 163.16297474190196 L212 162.31725166659712 L213 161.47152859140212 L214 160.62580551627607 L215 159.78008244119323 L216 158.93435936613753 L217 158.08863629109882 L218 157.24291321607078 L219 156.3971901410494 L220 155.55146706603225 L221 154.70574399101773 L222 153.86002091600486 L223 153.01429784099298 L224 152.16857476598182 L225 151.322851690971 L226 150.47712861596045 L227 149.63140554095006 L228 148.7856824659398 L229 147.9399593909296 L230 147.09423631591943 L231 146.24851324090926 L232 145.40279016589915 L233 144.55706709088903 L234 143.7113440158789 L235 142.86562094086875 L236 142.01989786585867 L237 141.17417479084853 L238 140.32845171583844 L239 139.48272864082833 L240 138.63700556581819 L241 137.7912824908081 L242 136.945559415798 L243 136.09983634078787 L244 135.25411326577776 L245 134.40839019076768 L246 133.56266711575753 L247 132.71694404074745 L248 131.87122096573734 L249 131.02549789072722 L250 130.1797748157171 L251 129.334051740707 L252 128.48832866569688 L253 127.6426055906868 L254 126.79688251567666 L255 125.95115944066657 L256 125.10543636565646 L257 124.25971329064635 L258 123.41399021563623 L259 122.56826714062615 L260 121.722544065616 L261 120.87682099060589 L262 120.03109791559581 L263 119.18537484058567 L264 118.33965176557558 L265 117.49392869056547 L266 116.64820561555536 L267 115.80248254054524 L268 114.95675946553513 L269 114.11103639052502 L270 113.2653133155149 L271 112.41959024050479 L272 111.57386716549468 L273 110.72814409048456 L274 109.88242101547445 L275 109.03669794046434 L276 108.19097486545425 L277 107.34525179044411 L278 106.49952871543402 L279 105.65380564042391 L280 104.8080825654138 L281 103.96235949040368 L282 103.1166364153936 L283 102.27091334038346 L284 101.42519026537335 L285 100.57946719036326 L286 99.73374411535315 L287 98.888021040343 L288 98.04229796533292 L289 97.19657489032281 L290 96.35085181531272 L291 95.50512874030258 L292 94.65940566529247 L293 93.81368259028238 L294 92.96795951527227 L295 92.12223644026213 L296 91.27651336525204 L297 90.43079029024193 L298 89.58506721523185 L299 88.7393441402217 L300 87.89362106521159 L301 87.0478979902015 L302 86.20217491519139 L303 85.35645184018125 L304 84.51072876517117 L305 83.66500569016105 L306 82.81928261515091 L307 81.97355954014083 L308 81.12783646513071 L309 80.28211339012063 L310 79.43639031511049 L311 78.59066724010037 L312 77.74494416509029 L313 76.8992210900802 L314 76.05349801507003 L315 75.20777494005995 L316 74.36205186504986 L317 73.51632879003978 L318 72.67060571502958 L319 71.8248826400195 L320 70.97915956500941 L321 70.13343648999933 L322 69.28771341498918 L323 68.4419903399791 L324 67.59626726496896 L325 66.75054418995887 L326 65.90482111494873 L327 65.05909803993865 L328 64.21337496492856 L329 63.36765188991842 L330 62.52192881490828 L331 61.676205739898194 L332 60.83048266488811 L333 59.98475958987797 L334 59.13903651486788 L335 58.29331343985774 L336 57.447590364847656 L337 56.601867289837514 L338 55.75614421482743 L339 54.910421139817345 L340 54.06469806480726 L341 53.21897498979706 L342 52.37325191478698 L343 51.52752883977689 L344 50.68180576476681 L345 49.836082689756665 L346 48.99035961474658 L347 48.14463653973644 L348 47.2989134647263 L349 46.45319038971621 L350 45.60746731470613 L351 44.76174423969604 L352 43.9160211646859 L353 43.07029808967576 L354 42.224575014665675 L355 41.37885193965559 L356 40.53312886464545 L357 39.68740578963536 L358 38.84168271462522 L359 37.99595963961514 L360 37.150236564604995 L361 36.30451348959491 L362 35.458790414584826 L363 34.613067339574684 L364 33.76734426456454 L365 32.92162118955446 L366 32.07589811454437 L367 31.230175039534288 L368 30.384451964524146 L369 29.538728889514005 L370 28.69300581450392 L371 27.847282739493778 L372 27.001559664483693 L373 26.15583658947361 L374 25.310113514463524 L375 24.464390439453325 L376 23.61866736444324 L377 22.772944289433156 L378 21.92722121442307 L379 21.08149813941293 L380 20.235775064402844 L381 19.390051989392703 L382 18.544328914382618 L383 17.698605839372476 L384 16.85288276436239 L385 16.007159689352306 L386 15.161436614342165 L387 14.315713539332023 L388 13.469990464321938 L389 12.624267389311854 L390 11.778544314301769 L391 10.932821239291627 L392 10.087098164281485 L393 9.2413750892714 L394 8.395652014261259 L395 7.549928939251174 L396 6.704205864241089 L397 5.858482789230948 L398 5.012759714220806 L399 4.167036639210721 " stroke = "blue" stroke-width = "4" fill = "none" /></svg>