<svg width="400" height="400" viewbox = "0 0 400 400"  xmlns="http://www.w3.org/2000/svg">

<!--
<topfunctions>



function YofX(){
    X = plotparams.g*(x - plotparams.x0) - funcparams.X0;
    F1 = 0.5*(1 + Math.tanh(X/funcparams.risetime));
    F2 = 0.5*(1 + Math.tanh((funcparams.duration - X)/funcparams.risetime));
    Y = F1*F2*Math.cos(funcparams.phi + 2*Math.PI*X/funcparams.T)
    y = plotparams.y0 - plotparams.G*(Y - funcparams.Y0);
}


function YofX2(){
    X = plotparams.g*(x - plotparams.x0) - funcparams.X0;
    Y = funcparams.b*X*X + funcparams.c*X + funcparams.d;
    y = plotparams.y0 - plotparams.G*(Y - funcparams.Y0);
 }

function XYofT(){
    T = plotparams.g*t;
    X = Math.exp(-T/funcparams.tau)*Math.cos(2*Math.PI*T/funcparams.T);
    Y = Math.exp(-T/funcparams.tau)*Math.sin(2*Math.PI*T/funcparams.T);
    y = plotparams.y0 - plotparams.G*(Y - funcparams.Y0);
    x = plotparams.x0 - plotparams.G*(X - funcparams.X0);    
}


function plotfunction(){
/*

    currentStroke = "blue";
    currentLineWidth = 4;
    ctx.strokeStyle = currentStroke;
    ctx.lineWidth = currentLineWidth;
    ctx.beginPath();	
    x = 0;
    y = 0;
    t= 0;
    XYofT();
    currentSVG += "	<path d = \"M";
    currentSVG += Math.round(x).toString() + " ";
    currentSVG += Math.round(y).toString() + " ";
    for(t = 1;t < plotparams.duration;t++){
        ctx.moveTo(x,y);
        XYofT();
        ctx.lineTo(x,y);
        currentSVG += "L" + x + " " + y + " ";
    }
    ctx.stroke();
    currentSVG += "\""+ " stroke = \"" + currentStroke + "\" stroke-width = \"" + currentLineWidth.toString() + "\" fill = \"" + "none" + "\" "+"/>";


    /*plot one function:*/
    currentStroke = "blue";
    currentLineWidth = 4;
    ctx.strokeStyle = currentStroke;
    ctx.lineWidth = currentLineWidth;
    ctx.beginPath();	
    x = 0;
    YofX();
    currentSVG += "	<path d = \"M";
    currentSVG += Math.round(x).toString() + " ";
    currentSVG += Math.round(y).toString() + " ";
    for(x = 1;x < plotparams.plotwidth;x++){
        ctx.moveTo(x-1,y);
        YofX();
        ctx.lineTo(x,y);
        currentSVG += "L" + x + " " + y + " ";
    }
    ctx.stroke();
    currentSVG += "\""+ " stroke = \"" + currentStroke + "\" stroke-width = \"" + currentLineWidth.toString() + "\" fill = \"" + "none" + "\" "+"/>";
    /*finish plot one function*/
    

}






























</topfunctions>
-->

<!--
<imgurl>

</imgurl>
-->

<!--
<currentjson>
{
    "constants": {},
    "imgurl": "",
    "plotparams": {
        "G": 35.32795166918562,
        "g": 1,
        "duration": 545.4545454545454,
        "plotwidth": 400,
        "plotheight": 400,
        "x0": 102.6316236461413,
        "y0": 200
    },
    "funcparams": {
        "T": 23.579476910000015,
        "risetime": 23.579476910000015,
        "phi": 3.1415,
        "duration": 161.0510000000001,
        "X0": 0,
        "Y0": 0
    }
}
</currentjson>
-->

<!--
<equation>
<h2>Pulse</h2>
<p style="color:blue">

</p><p class="bigeq">
$$
F_1 = \frac{1}{2}(\tanh{\frac{X}{\textrm{risetime}}} + 1)
$$
$$
F_2 = \frac{1}{2}(\tanh{\frac{\textrm{duration} - X}{\textrm{risetime}}} + 1)$$
$$
Y = F_1F_2\sin{\left(\phi + \frac{2\pi X}{T}\right)}
$$
</p>
<p></p>

$$
X = g(x - x_0) - X_0
$$
$$
Y = f(X)
$$
    
$$
y = y_0 - G(Y - Y_0)
$$


<p>
    X and Y, and $X_0$ and $Y_0$ in physical units of the System. x and y and x0 and y0 in pixels.  G is in pixels per Y unit and g is in X units per pixel. 
</p>






</equation>
-->
	<path d = "M0 200 L1 199.99764734818876 L2 199.9992268586086 L3 200.00116378184111 L4 200.00336018034744 L5 200.00567804369038 L6 200.00794356809632 L7 200.0099552582233 L8 200.01149587158093 L9 200.01234790436317 L10 200.01231196179984 L11 200.01122699035076 L12 200.00899100227056 L13 200.00558062815486 L14 200.0010676246214 L15 199.9956303759414 L16 199.98955848992304 L17 199.98324882217563 L18 199.9771916811192 L19 199.97194656743557 L20 199.96810756899953 L21 199.9662594313689 L22 199.96692630281427 L23 199.97051614342647 L24 199.97726470822556 L25 199.9871837733613 L26 200.0000187782055 L27 200.01522121434618 L28 200.031940827775 L29 200.04904195701482 L30 200.06514708192944 L31 200.0787089179218 L32 200.0881102146759 L33 200.09178791152314 L34 200.0883756143872 L35 200.0768556870078 L36 200.05670982165609 L37 200.0280550236868 L38 199.99175076650238 L39 199.94946288899382 L40 199.90367081661972 L41 199.8576070260393 L42 199.81512138974634 L43 199.78046807109132 L44 199.75801880736532 L45 199.75191340400048 L46 199.76566562220444 L47 199.80174981603855 L48 199.86120001446753 L49 199.94325795021143 L50 200.04510911119357 L51 200.16174559275746 L52 200.28599084655124 L53 200.4087140363188 L54 200.51925056194926 L55 200.60603065481504 L56 200.65740038536754 L57 200.6625999311045 L58 200.6128438560965 L59 200.50242908597897 L60 200.3297800826927 L61 200.09832939493225 L62 199.8171272009804 L63 199.5010773642809 L64 199.17071116470007 L65 198.85143391132144 L66 198.57221395027693 L67 198.36372707231052 L68 198.25601987776827 L69 198.2758100886519 L70 198.4435959359652 L71 198.77079561202805 L72 199.25717585819584 L73 199.8888504395755 L74 200.63712931055065 L75 201.45847343953108 L76 202.29575586924528 L77 203.0809461657048 L78 203.7392252020478 L79 204.1944055774908 L80 204.37538847479635 L81 204.22324208575068 L82 203.6983541177181 L83 202.78700720078518 L84 201.5066674031093 L85 199.90927728612508 L86 198.08191738896514 L87 196.14434972908734 L88 194.24318257483128 L89 192.5426873929367 L90 191.2126370774784 L91 190.41389080012348 L92 190.28278903566212 L93 190.9157018663165 L94 192.3552534982969 L95 194.57978970048097 L96 197.4975365172967 L97 200.94660747838375 L98 204.70156141999814 L99 208.4866241116688 L100 211.99501489831084 L101 214.91313201792437 L102 216.94772459375068 L103 217.8536938678875 L104 217.45989002387526 L105 215.6902536163216 L106 212.57791446941735 L107 208.27039596753508 L108 203.02483608622242 L109 197.19305637402812 L110 191.19729328568167 L111 185.49834937600977 L112 180.558723514173 L113 176.80385216815077 L114 174.5848748358941 L115 174.14629387689547 L116 175.60153444029703 L117 178.91875900567834 L118 183.9184165944614 L119 190.2829929637173 L120 197.57837039626617 L121 205.28520089526944 L122 212.83783374217083 L123 219.66769091517486 L124 225.24760378401243 L125 229.13353891447775 L126 231.000350970505 L127 230.66868319972284 L128 228.1208459854368 L129 223.50437980917678 L130 217.12297792164566 L131 209.41542829444595 L132 200.92415738915957 L133 192.25575015630432 L134 184.03642346151594 L135 176.86580144916036 L136 171.27245701090206 L137 167.6745387390352 L138 166.34841191738343 L139 167.4076373121446 L140 170.79383981346774 L141 176.28013868844496 L142 183.48688762234465 L143 191.90857333111083 L144 200.94991120500504 L145 209.9685129302331 L146 218.32103095876516 L147 225.40944042344037 L148 230.7241166164762 L149 233.8806041223869 L150 234.64743370317146 L151 232.96299102327328 L152 228.94023010775584 L153 222.85889717983548 L154 215.14582471570657 L155 206.34470747221232 L156 197.07752145848974 L157 188.000340431368 L158 179.75670080500845 L159 172.93183729037378 L160 168.01104652514837 L161 165.34513958022458 L162 165.12543803417094 L163 167.3700885689297 L164 171.92266621751813 L165 178.46316368524748 L166 186.53058545541302 L167 195.55554288048464 L168 204.90053828342695 L169 213.90508222295904 L170 221.93244681145663 L171 228.41474325830467 L172 232.89313156109932 L173 235.0503158311513 L174 234.73302552699653 L175 231.96289209797843 L176 226.93495198393995 L177 220.00388245942028 L178 211.65894454777052 L179 202.48940584162895 L180 193.1428891397239 L181 184.27959282156334 L182 176.52562054367172 L183 170.42872058882753 L184 166.4195646382535 L185 164.78130394736274 L186 165.6295555910491 L187 168.904233971615 L188 174.37380526244868 L189 181.65166407108416 L190 190.22347441407305 L191 199.48354168077142 L192 208.77764343533914 L193 217.44928984186703 L194 224.88614154552113 L195 230.56330123761745 L196 234.0804157728001 L197 235.18996308319416 L198 233.8147214182436 L199 230.0531836476872 L200 224.17253245992936 L201 216.58967298111725 L202 207.84166534584233 L203 198.5476511805187 L204 189.36497155540064 L205 180.94258685704958 L206 173.875101801072 L207 168.66065754727686 L208 165.66568023337135 L209 165.09899022173727 L210 166.99711303137855 L211 171.2218380628004 L212 177.47020098508727 L213 185.29618167241918 L214 194.1425746052894 L215 203.38076213562854 L216 212.35555488228025 L217 220.43189848764496 L218 227.0401086090488 L219 231.71639685200057 L220 234.13578300680948 L221 234.13503054117547 L222 231.72395496408862 L223 227.084288157439 L224 220.55617691025446 L225 212.61328674771696 L226 203.82830850327616 L227 194.83136499067962 L228 186.26433721663426 L229 178.73443476606212 L230 172.7703994488238 L231 168.78454828990783 L232 167.04344256725997 L233 167.64934223716435 L234 170.53381365646356 L235 175.46395958580976 L236 182.06079942426868 L237 189.82841412946468 L238 198.1916532501527 L239 206.53954408299126 L240 214.27109769374547 L241 220.84001110055647 L242 225.79483881864488 L243 228.81154942270635 L244 229.71597197644596 L245 228.49443108774457 L246 225.29180818410265 L247 220.39727679249833 L248 214.2189591524808 L249 207.24965640696018 L250 200.02653602138977 L251 193.08815139960632 L252 186.93237228196924 L253 181.97869723011542 L254 178.5380060814475 L255 176.7921244646513 L256 176.78467524263124 L257 178.42366633289862 L258 181.4952086367544 L259 185.68677449960614 L260 190.6175927688518 L261 195.87321061976465 L262 201.0409880303468 L263 205.74334845103235 L264 209.66597385861203 L265 212.57875560688154 L266 214.3481186559409 L267 214.94023268125952 L268 214.41551025893065 L269 212.91557723762818 L270 210.64450824582713 L271 207.84650101592453 L272 204.7822962467174 L273 201.70654394118856 L274 198.84800707226262 L275 196.39403250263913 L276 194.4801713112266 L277 193.18526187608214 L278 192.53175906080438 L279 192.49064949347198 L280 192.9899684125678 L281 193.92574319777296 L282 195.1741318745529 L283 196.603587614801 L284 198.0860389098434 L285 199.50630042154032 L286 200.76919060595247 L287 201.80409984052872 L288 202.5670020210772 L289 203.0401143766134 L290 203.22957215452445 L291 203.16159100453254 L292 202.87764039074546 L293 202.42915105620224 L294 201.87223682673246 L295 201.26283637826484 L296 200.65258535769175 L297 200.08562453120567 L298 199.59644538689872 L299 199.20877904299758 L300 198.93545351298124 L301 198.77908224460504 L302 198.7334051437966 L303 198.78508188790403 L304 198.91573454832067 L305 199.10404955346968 L306 199.3277742698493 L307 199.56547706627438 L308 199.7979777766883 L309 200.00939441851918 L310 200.18778880745518 L311 200.32542594873038 L312 200.41868812122848 L313 200.46770347570308 L314 200.47576049150751 L315 200.4485841108735 L316 200.3935475930469 L317 200.31888722887024 L318 200.2329763493776 L319 200.14370193497317 L320 200.057972924313 L321 199.98137523789634 L322 199.9179755732151 L323 199.87026495726494 L324 199.83922436165338 L325 199.82448864589324 L326 199.8245817156101 L327 199.8371948889262 L328 199.85948172929832 L329 199.88834559577006 L330 199.92070039474513 L331 199.95368999137344 L332 199.98485697931773 L333 200.0122565963997 L334 200.03451616858678 L335 200.0508443133813 L336 200.06099707661795 L337 200.0652101446776 L338 200.0641072787415 L339 200.0585952377611 L340 200.04975482218993 L341 200.03873644483355 L342 200.02666699874013 L343 200.01457292638423 L344 200.00332246897767 L345 199.9935882368093 L346 199.9858296089927 L347 199.98029312864614 L348 199.9770280580789 L349 199.9759136164054 L350 199.97669412896397 L351 199.97901834040252 L352 199.9824794304056 L353 199.9866527609015 L354 199.9911290094905 L355 199.99554103976433 L356 199.99958356443284 L357 200.00302531984266 L358 200.00571404982867 L359 200.00757506446013 L360 200.00860447913942 L361 200.00885844731954 L362 200.00843978159293 L363 200.0074833269591 L364 200.0061413264686 L365 200.0045698264648 L366 200.00291693092586 L367 200.00131345592507 L368 199.99986627769374 L369 199.99865442944997 L370 199.9977277970828 L371 199.99710810142446 L372 199.99679174014162 L373 199.99675399599056 L374 199.9969540974915 L375 199.99734063734988 L376 199.99785690556985 L377 199.99844576943457 L378 199.99905382230418 L379 199.99963461882282 L380 200.00015090787832 L381 200.00057586011698 L382 200.0008933591686 L383 200.00109748185864 L384 200.0011913310934 L385 200.0011854058263 L386 200.00109569681945 L387 200.00094168706562 L388 200.00074441464065 L389 200.00052472667613 L390 200.00030181940696 L391 200.00009212398666 L392 199.99990856374222 L393 199.99976017798951 L394 199.9996520820979 L395 199.99958571419242 L396 199.9995593061405 L397 199.99956851017075 L398 199.99960711206208 L399 199.9996677664314 " stroke = "blue" stroke-width = "4" fill = "none" /></svg>