<svg width="400" height="400" viewbox = "0 0 400 400"  xmlns="http://www.w3.org/2000/svg">

<!--
<topfunctions>



function YofX(){
    X = plotparams.g*(x - plotparams.x0) - funcparams.X0;
    F1 = 0.5*(1 + Math.tanh(X/funcparams.risetime));
    F2 = 0.5*(1 + Math.tanh((funcparams.duration - X)/funcparams.risetime));
    Y = F1*F2*Math.cos(funcparams.phi + 2*Math.PI*X/funcparams.T)
    y = plotparams.y0 - plotparams.G*(Y - funcparams.Y0);
}


function YofX2(){
    X = plotparams.g*(x - plotparams.x0) - funcparams.X0;
    Y = funcparams.b*X*X + funcparams.c*X + funcparams.d;
    y = plotparams.y0 - plotparams.G*(Y - funcparams.Y0);
 }

function XYofT(){
    T = plotparams.g*t;
    X = Math.exp(-T/funcparams.tau)*Math.cos(2*Math.PI*T/funcparams.T);
    Y = Math.exp(-T/funcparams.tau)*Math.sin(2*Math.PI*T/funcparams.T);
    y = plotparams.y0 - plotparams.G*(Y - funcparams.Y0);
    x = plotparams.x0 - plotparams.G*(X - funcparams.X0);    
}


function plotfunction(){
/*

    currentStroke = "blue";
    currentLineWidth = 4;
    ctx.strokeStyle = currentStroke;
    ctx.lineWidth = currentLineWidth;
    ctx.beginPath();	
    x = 0;
    y = 0;
    t= 0;
    XYofT();
    currentSVG += "	<path d = \"M";
    currentSVG += Math.round(x).toString() + " ";
    currentSVG += Math.round(y).toString() + " ";
    for(t = 1;t < plotparams.duration;t++){
        ctx.moveTo(x,y);
        XYofT();
        ctx.lineTo(x,y);
        currentSVG += "L" + x + " " + y + " ";
    }
    ctx.stroke();
    currentSVG += "\""+ " stroke = \"" + currentStroke + "\" stroke-width = \"" + currentLineWidth.toString() + "\" fill = \"" + "none" + "\" "+"/>";


    /*plot one function:*/
    currentStroke = "blue";
    currentLineWidth = 4;
    ctx.strokeStyle = currentStroke;
    ctx.lineWidth = currentLineWidth;
    ctx.beginPath();	
    x = 0;
    YofX();
    currentSVG += "	<path d = \"M";
    currentSVG += Math.round(x).toString() + " ";
    currentSVG += Math.round(y).toString() + " ";
    for(x = 1;x < plotparams.plotwidth;x++){
        ctx.moveTo(x-1,y);
        YofX();
        ctx.lineTo(x,y);
        currentSVG += "L" + x + " " + y + " ";
    }
    ctx.stroke();
    currentSVG += "\""+ " stroke = \"" + currentStroke + "\" stroke-width = \"" + currentLineWidth.toString() + "\" fill = \"" + "none" + "\" "+"/>";
    /*finish plot one function*/
    

}






























</topfunctions>
-->

<!--
<imgurl>

</imgurl>
-->

<!--
<currentjson>
{
    "constants": {},
    "imgurl": "",
    "plotparams": {
        "G": 83.30146206611592,
        "g": 1.1,
        "duration": 545.4545454545454,
        "plotwidth": 400,
        "plotheight": 400,
        "x0": 102.6316236461413,
        "y0": 200
    },
    "funcparams": {
        "T": 23.579476910000015,
        "risetime": 23.579476910000015,
        "phi": 3.1415,
        "duration": 161.0510000000001,
        "X0": 0,
        "Y0": 0
    }
}
</currentjson>
-->

<!--
<equation>
<h2>Pulse</h2>
<p style="color:blue">

</p><p class="bigeq">
$$
F_1 = \frac{1}{2}(\tanh{\frac{X}{\textrm{risetime}}} + 1)
$$
$$
F_2 = \frac{1}{2}(\tanh{\frac{\textrm{duration} - X}{\textrm{risetime}}} + 1)$$
$$
Y = F_1F_2\sin{\left(\phi + \frac{2\pi X}{T}\right)}
$$
</p>
<p></p>

$$
X = g(x - x_0) - X_0
$$
$$
Y = f(X)
$$
    
$$
y = y_0 - G(Y - Y_0)
$$


<p>
    X and Y, and $X_0$ and $Y_0$ in physical units of the System. x and y and x0 and y0 in pixels.  G is in pixels per Y unit and g is in X units per pixel. 
</p>






</equation>
-->
	<path d = "M0 200 L1 199.99964951544715 L2 199.99762196301603 L3 199.9954239289673 L4 199.9932472981105 L5 199.9913211071076 L6 199.9898955259042 L7 199.98922037191133 L8 199.989519253126 L9 199.99096111246 L10 199.99363157739998 L11 199.99750703243393 L12 200.00243464915 L13 200.0081216575683 L14 200.01413686192979 L15 200.0199267562605 L16 200.02484757101823 L17 200.02821321054725 L18 200.0293573921996 L19 200.0277064851687 L20 200.0228577238606 L21 200.01465582313435 L22 200.0032597571786 L23 199.9891907892665 L24 199.97335294713767 L25 199.95701817776086 L26 199.94177046966163 L27 199.92940629714104 L28 199.92179270955992 L29 199.92068903574392 L30 199.92754315756952 L31 199.94327818209658 L32 199.9680895819761 L33 200.00127591046171 L34 200.04112746883712 L35 200.08489631612395 L36 200.12886740120686 L37 200.16854420028662 L38 200.19895314644194 L39 200.21505972921426 L40 200.212276125714 L41 200.1870266178187 L42 200.13732414058026 L43 200.06330057647776 L44 199.96762642015273 L45 199.8557536849127 L46 199.73592066769632 L47 199.61886928186942 L48 199.5172453681169 L49 199.44467922693792 L50 199.4145762653055 L51 199.43868391947476 L52 199.52553787656132 L53 199.67892434791014 L54 199.8965215769587 L55 200.16889861512396 L56 200.47904871016414 L57 200.80261526014328 L58 201.10892832939723 L59 201.3629091078289 L60 201.52782048484872 L61 201.56874856639593 L62 201.4565993903126 L63 201.17229642810102 L64 200.71077858092167 L65 200.0843371293205 L66 199.3248052312733 L67 198.48413545850966 L68 197.63297709744006 L69 196.8569988625309 L70 196.25089207551264 L71 195.910225502679 L72 195.9215900969672 L73 196.35174712036203 L74 197.2367478118162 L75 198.57219408249108 L76 200.3059234809043 L77 202.33439595173212 L78 204.50390929138544 L79 206.61746030395054 L80 208.44760052810824 L81 209.7550291346826 L82 210.31196254233984 L83 209.92858319164344 L84 208.4801802323284 L85 205.93204705498425 L86 202.3588929425446 L87 197.9555487052976 L88 193.03616661242893 L89 188.01996353402615 L90 183.40281252068092 L91 179.71557151927428 L92 177.4718052231743 L93 177.10930752606578 L94 178.93132874932795 L95 183.054403110684 L96 189.36993154835386 L97 197.5260413847063 L98 206.9346584836472 L99 216.80626170575655 L100 226.21165822118627 L101 234.16666743837717 L102 239.73227215511292 L103 242.12006687699952 L104 240.79114956425755 L105 235.53629996678808 L106 226.52652849348013 L107 214.32581569245798 L108 199.8618268215893 L109 184.35512221367432 L110 169.21230744701748 L111 155.89304761308665 L112 145.76432238287657 L113 139.9572666325719 L114 139.24215932849182 L115 143.9355488588539 L116 153.85031701903026 L117 168.29506011774384 L118 186.1240164220911 L119 205.8334769813626 L120 225.69576281531582 L121 243.9179489485236 L122 258.80995760919274 L123 268.945665926468 L124 273.30134276916243 L125 271.35794156150956 L126 263.1572787830679 L127 249.306552984298 L128 230.93056296429964 L129 209.5758926684171 L130 187.07578560167946 L131 165.3880300184213 L132 146.4206041543706 L133 131.86088842195045 L134 123.0238662825119 L135 120.73296459682116 L136 125.24420577236785 L137 136.22043856547845 L138 152.75793848077353 L139 173.46302263527653 L140 196.57191673776651 L141 220.10332617946378 L142 242.03032334675666 L143 260.4565081070768 L144 273.78106247173645 L145 280.8383235101587 L146 280.9997453341761 L147 274.2294101018158 L148 261.0882903046505 L149 242.68690825710627 L150 220.59049957212324 L151 196.68488194502413 L152 173.01460844071244 L153 151.6073581852257 L154 134.29968639424447 L155 122.57912320741237 L156 117.45619154231876 L157 119.37733272227264 L158 128.18620848132832 L159 143.13669223354822 L160 162.956427926561 L161 185.95550117963973 L162 210.1709052123974 L163 233.53442291750017 L164 254.04954705941162 L165 269.96229274542554 L166 279.91128444578135 L167 283.04427768608105 L168 279.0911502337057 L169 268.3871228117213 L170 251.8442263689 L171 230.87345782177417 L172 207.26428096731345 L173 183.0317740773332 L174 160.24448946762823 L175 140.84773733222673 L176 126.49739597289434 L177 118.41845018437945 L178 117.30034603886584 L179 123.23810423254115 L180 135.72422420588055 L181 153.69207130790429 L182 175.6070399358045 L183 199.59770254283174 L184 223.61573642772493 L185 245.61095936351694 L186 263.70651183567134 L187 276.3592087819661 L188 282.491349005089 L189 281.5827083109387 L190 273.71484517374097 L191 259.5639250792499 L192 240.3426735621556 L193 217.6964220730421 L194 193.56214282781394 L195 170.00254203282432 L196 149.0294231177033 L197 132.43145838715532 L198 121.62113800123385 L199 117.51402929132799 L200 120.45071534777418 L201 130.1681245733264 L202 145.82272440280525 L203 166.06359503788508 L204 189.1491049011838 L205 213.09714774014358 L206 235.85599660053975 L207 255.48103456231917 L208 270.3020942855916 L209 279.06692799909206 L210 281.04837357195584 L211 276.1059095603725 L212 264.696237251861 L213 247.83195328940593 L214 226.99190127514336 L215 203.99102225361887 L216 180.82109174942107 L217 159.47631886784606 L218 141.77915662169744 L219 129.2217010336199 L220 122.83672445283344 L221 123.1097996157202 L222 129.94034090435514 L223 142.6550289223324 L224 160.07237493291598 L225 180.6125422341118 L226 202.44239386739676 L227 223.64246687967852 L228 242.38049878426833 L229 257.07546651596476 L230 266.53693188983254 L231 270.06677212143984 L232 267.5139215513302 L233 259.27724529593297 L234 246.25668701185907 L235 229.7578931127194 L236 211.36010383948476 L237 192.7607357233419 L238 175.6123601561176 L239 161.36843930903308 L240 151.15311231147086 L241 145.66762048013317 L242 145.14190037417652 L243 149.33490486149245 L244 157.5819028089584 L245 168.88197840679356 L246 182.01479684986396 L247 195.67291368790052 L248 208.59479543110868 L249 219.68438311387538 L250 228.10532799176912 L251 233.34160587711162 L252 235.220561878217 L253 233.8989587712248 L254 229.8167174742374 L255 223.62625802298024 L256 216.10734307487283 L257 208.07795587601947 L258 200.31106924565526 L259 193.4654073987271 L260 188.0358107515784 L261 184.32598159741977 L262 182.44360373035457 L263 182.31541942752537 L264 183.7180448614564 L265 186.31923102008113 L266 189.72394404465732 L267 193.5199676342147 L268 197.31857670982134 L269 200.78701634385746 L270 203.67085644833074 L271 205.8056107437143 L272 207.11817102708068 L273 207.61951988811458 L274 207.39079644577282 L275 206.5650912418076 L276 205.30736293573526 L277 203.7946502656555 L278 202.19836176968275 L279 200.6699320120754 L280 199.33060268736781 L281 198.26557730092938 L282 197.5223537487896 L283 197.11269010991455 L284 197.01742080215678 L285 197.19321518598287 L286 197.58035006481452 L287 198.11063463228328 L288 198.71475957991564 L289 199.32851756173167 L290 199.89753674419185 L291 200.38036196193553 L292 200.74989215207364 L293 200.9933260383418 L294 201.11087318534018 L295 201.1135519200739 L296 201.02042066344484 L297 200.85557957576384 L298 200.645241971784 L299 200.41511780495648 L300 200.1882830636256 L301 199.983637086792 L302 199.814981429708 L303 199.69069433561066 L304 199.61392775216703 L305 199.5832211089912 L306 199.5934081025523 L307 199.63668853550328 L308 199.70374482654123 L309 199.7847994708578 L310 199.87053249215745 L311 199.95280377727408 L312 200.0251513666188 L313 200.08306097602411 L314 200.12402250326159 L315 200.14740490060728 L316 200.15419105827758 L317 200.14661927679074 L318 200.1277779959988 L319 200.10119651423133 L320 200.0704674977202 L321 200.0389282555367 L322 200.00941811913793 L323 199.9841197837915 L324 199.96448392899453 L325 199.95122940866096 L326 199.94440613393502 L327 199.9435045884051 L328 199.94759465185797 L329 199.95547684571002 L330 199.96583092356445 L331 199.97734952474323 L332 199.98884797989112 L333 199.9993449185999 L334 200.00811174195016 L335 200.0146920206162 L336 200.01889427555358 L337 200.0207632903764 L338 200.0205360672974 L339 200.0185888136718 L340 200.01538102728523 L341 200.01140196404432 L342 200.00712366816788 L343 200.00296347120513 L344 199.9992575603371 L345 199.9962459957748 L346 199.99406851170784 L347 199.9927696248772 L348 199.99231102885588 L349 199.99258897226977 L350 199.993454284141 L351 199.99473288060454 L352 199.99624491469817 L353 199.99782116007827 L354 199.99931569630402 L355 200.00061443880807 L356 200.00163949033615 L357 200.00234965246582 L358 200.00273770704501 L359 200.00282525021933 L360 200.0026559380921 L361 200.0022879928608 L362 200.0017867371133 L363 200.00121779087223 L364 200.00064140119372 L365 200.0001081971547 L366 199.99965649114304 L367 199.99931109435133 L368 199.9990834901606 L369 199.99897311941658 L370 199.99896947825303 L371 199.99905471048498 L372 199.9992063883678 L373 199.99940021151124 L374 199.9996124067429 L375 199.9998216743017 L376 200.00001059091508 L377 200.00016644205203 L378 200.00028150924715 L379 200.00035288065052 L380 200.00038188218767 L381 200.00037324262723 L382 200.0003341093566 L383 200.00027302456758 L384 200.00019895627136 L385 200.00012045779326 L386 200.0000450058574 L387 199.99997854354686 L388 199.99992523240527 L389 199.99988739930808 L390 199.9998656494985 L391 199.99985910782215 L392 199.99986574567814 L393 199.99988275109533 L394 199.9999069028995 L395 199.99993491623127 L396 199.99996373470154 L397 199.9999907532484 L398 200.00001396440595 L399 200.0000320284965 " stroke = "blue" stroke-width = "4" fill = "none" /></svg>