<svg width="400" height="400" viewbox = "0 0 400 400"  xmlns="http://www.w3.org/2000/svg">

<!--
<topfunctions>



function YofX(){
    X = plotparams.g*(x - plotparams.x0) - funcparams.X0;
    
    Y =  (1/Math.sqrt(2*Math.PI*funcparams.sigma*funcparams.sigma))*Math.exp(-(X - funcparams.mu)*(X - funcparams.mu)/(2*funcparams.sigma*funcparams.sigma));
    
    y = plotparams.y0 - plotparams.G*(Y - funcparams.Y0);
}





function plotfunction(){
/*

    currentStroke = "blue";
    currentLineWidth = 4;
    ctx.strokeStyle = currentStroke;
    ctx.lineWidth = currentLineWidth;
    ctx.beginPath();	
    x = 0;
    y = 0;
    t= 0;
    XYofT();
    currentSVG += "	<path d = \"M";
    currentSVG += Math.round(x).toString() + " ";
    currentSVG += Math.round(y).toString() + " ";
    for(t = 1;t < plotparams.duration;t++){
        ctx.moveTo(x,y);
        XYofT();
        ctx.lineTo(x,y);
        currentSVG += "L" + x + " " + y + " ";
    }
    ctx.stroke();
    currentSVG += "\""+ " stroke = \"" + currentStroke + "\" stroke-width = \"" + currentLineWidth.toString() + "\" fill = \"" + "none" + "\" "+"/>";


    /*plot one function:*/
    currentStroke = "blue";
    currentLineWidth = 4;
    ctx.strokeStyle = currentStroke;
    ctx.lineWidth = currentLineWidth;
    ctx.beginPath();	
    x = 0;
    YofX();
    currentSVG += "	<path d = \"M";
    currentSVG += Math.round(x).toString() + " ";
    currentSVG += Math.round(y).toString() + " ";
    for(x = 1;x < plotparams.plotwidth;x++){
        ctx.moveTo(x-1,y);
        YofX();
        ctx.lineTo(x,y);
        currentSVG += "L" + x + " " + y + " ";
    }
    ctx.stroke();
    currentSVG += "\""+ " stroke = \"" + currentStroke + "\" stroke-width = \"" + currentLineWidth.toString() + "\" fill = \"" + "none" + "\" "+"/>";
    /*finish plot one function*/
    

}


























</topfunctions>
-->

<!--
<imgurl>

</imgurl>
-->

<!--
<currentjson>
{
    "constants": {},
    "imgurl": "",
    "plotparams": {
        "G": 616.451640011398,
        "g": 0.068301345536507,
        "duration": 545.4545454545454,
        "plotwidth": 400,
        "plotheight": 400,
        "x0": 200,
        "y0": 272.7272727272727
    },
    "funcparams": {
        "mu": 0,
        "sigma": 1,
        "X0": 0,
        "Y0": 0
    }
}
</currentjson>
-->

<!--
<equation>



<h2>Gaussian</h2>
<p style="color:blue">
</p><p class="bigeq">
$$
Y = \frac{1}{\sqrt{2\pi\sigma^2}} e^{-\frac{(x - \mu)^2}{2\sigma^2}}$$
</p>
<p></p>

$$
X = g(x - x_0) - X_0
$$
$$
Y = f(X)
$$
    
$$
y = y_0 - G(Y - Y_0)
$$


<p>
    X and Y, and $X_0$ and $Y_0$ in physical units of the System. x and y and x0 and y0 in pixels.  G is in pixels per Y unit and g is in X units per pixel. 
</p>




</equation>
-->
	<path d = "M0 273 L1 272.7272727272727 L2 272.7272727272727 L3 272.7272727272727 L4 272.7272727272727 L5 272.7272727272727 L6 272.7272727272727 L7 272.7272727272727 L8 272.7272727272727 L9 272.7272727272727 L10 272.7272727272727 L11 272.7272727272727 L12 272.7272727272727 L13 272.7272727272727 L14 272.7272727272727 L15 272.7272727272727 L16 272.7272727272727 L17 272.7272727272727 L18 272.7272727272727 L19 272.7272727272727 L20 272.7272727272727 L21 272.7272727272727 L22 272.7272727272727 L23 272.7272727272727 L24 272.7272727272727 L25 272.7272727272727 L26 272.7272727272727 L27 272.7272727272727 L28 272.7272727272727 L29 272.7272727272727 L30 272.7272727272727 L31 272.7272727272727 L32 272.7272727272727 L33 272.7272727272727 L34 272.7272727272727 L35 272.7272727272727 L36 272.7272727272727 L37 272.7272727272727 L38 272.7272727272727 L39 272.7272727272727 L40 272.7272727272727 L41 272.7272727272727 L42 272.7272727272727 L43 272.7272727272727 L44 272.7272727272727 L45 272.7272727272727 L46 272.7272727272727 L47 272.7272727272727 L48 272.7272727272727 L49 272.7272727272727 L50 272.7272727272727 L51 272.7272727272727 L52 272.7272727272727 L53 272.7272727272727 L54 272.7272727272727 L55 272.7272727272727 L56 272.7272727272727 L57 272.7272727272727 L58 272.7272727272727 L59 272.7272727272727 L60 272.7272727272727 L61 272.7272727272727 L62 272.7272727272727 L63 272.7272727272727 L64 272.7272727272727 L65 272.7272727272727 L66 272.7272727272727 L67 272.7272727272727 L68 272.7272727272727 L69 272.7272727272727 L70 272.7272727272727 L71 272.7272727272727 L72 272.7272727272727 L73 272.7272727272727 L74 272.7272727272727 L75 272.72727272727263 L76 272.72727272727263 L77 272.7272727272726 L78 272.72727272727246 L79 272.72727272727235 L80 272.72727272727207 L81 272.72727272727155 L82 272.72727272727076 L83 272.72727272726934 L84 272.72727272726695 L85 272.72727272726286 L86 272.72727272725587 L87 272.72727272724416 L88 272.72727272722443 L89 272.7272727271915 L90 272.7272727271367 L91 272.7272727270461 L92 272.7272727268968 L93 272.727272726652 L94 272.7272727262526 L95 272.72727272560394 L96 272.7272727245555 L97 272.7272727228691 L98 272.72727272016914 L99 272.7272727158672 L100 272.72727270904505 L101 272.727272698278 L102 272.72727268136543 L103 272.72727265492614 L104 272.7272726137904 L105 272.7272725500935 L106 272.72727245193147 L107 272.72727230137656 L108 272.72727207156515 L109 272.72727172244726 L110 272.7272711946154 L111 272.7272704003955 L112 272.72726921105414 L113 272.72726743853235 L114 272.7272648095076 L115 272.72726092876815 L116 272.7272552277864 L117 272.72724689291783 L118 272.7272347657237 L119 272.72721720538624 L120 272.7271918998955 L121 272.72715560843784 L122 272.7271038119744 L123 272.72703024208784 L124 272.72692624946797 L125 272.7267799625456 L126 272.72657517334153 L127 272.7262898711383 L128 272.72589432462445 L129 272.72534858921676 L130 272.72459928787504 L131 272.7235754804651 L132 272.72218339828646 L133 272.7202997766033 L134 272.71776346897644 L135 272.714364973279 L136 272.7098334412983 L137 272.7038206831093 L138 272.69588161592094 L139 272.6854505475701 L140 272.67181263085325 L141 272.6540697809878 L142 272.6311003202374 L143 272.6015116077128 L144 272.5635849361469 L145 272.51521203949073 L146 272.45382266458415 L147 272.3763028263417 L148 272.2789035981609 L149 272.15714059619484 L150 272.0056847049171 L151 271.81824506697643 L152 271.58744592446465 L153 271.3046995490257 L154 270.9600782271859 L155 270.5421890612607 L156 270.03805618467237 L157 269.43301584545594 L158 268.71063064734824 L159 267.8526300106983 L160 266.8388845750781 L161 265.6474227557089 L162 264.2544979265503 L163 262.6347146726391 L164 260.76122217330334 L165 258.6059819919912 L166 256.140116313068 L167 253.33434095050617 L168 250.15948524584428 L169 246.5870982836175 L170 242.59013771827728 L171 238.1437339927311 L172 233.226018930377 L173 227.81900372494127 L174 221.90948738828467 L175 215.4899729219242 L176 208.5595650471149 L177 201.12482046420467 L178 193.2005195175893 L179 184.8103270096383 L180 175.98730990398997 L181 166.7742809191359 L182 157.22393962436848 L183 147.3987866427992 L184 137.3707919071582 L185 127.22080450154544 L186 117.03769928429588 L187 106.91726398435537 L188 96.96083949621186 L189 87.27373531702435 L190 77.96345108964758 L191 69.1377436349778 L192 60.90258627731319 L193 53.36007331184524 L194 46.60632680333421 L195 40.72946527316276 L196 35.80769404327654 L197 31.907574969302516 L198 29.082529023314606 L199 27.371618796591918 L200 26.798649703922507 L201 27.371618796591918 L202 29.082529023314606 L203 31.907574969302516 L204 35.80769404327654 L205 40.72946527316276 L206 46.60632680333421 L207 53.36007331184524 L208 60.90258627731319 L209 69.1377436349778 L210 77.96345108964758 L211 87.27373531702435 L212 96.96083949621186 L213 106.91726398435537 L214 117.03769928429588 L215 127.22080450154544 L216 137.3707919071582 L217 147.3987866427992 L218 157.22393962436848 L219 166.7742809191359 L220 175.98730990398997 L221 184.8103270096383 L222 193.2005195175893 L223 201.12482046420467 L224 208.5595650471149 L225 215.4899729219242 L226 221.90948738828467 L227 227.81900372494127 L228 233.226018930377 L229 238.1437339927311 L230 242.59013771827728 L231 246.5870982836175 L232 250.15948524584428 L233 253.33434095050617 L234 256.140116313068 L235 258.6059819919912 L236 260.76122217330334 L237 262.6347146726391 L238 264.2544979265503 L239 265.6474227557089 L240 266.8388845750781 L241 267.8526300106983 L242 268.71063064734824 L243 269.43301584545594 L244 270.03805618467237 L245 270.5421890612607 L246 270.9600782271859 L247 271.3046995490257 L248 271.58744592446465 L249 271.81824506697643 L250 272.0056847049171 L251 272.15714059619484 L252 272.2789035981609 L253 272.3763028263417 L254 272.45382266458415 L255 272.51521203949073 L256 272.5635849361469 L257 272.6015116077128 L258 272.6311003202374 L259 272.6540697809878 L260 272.67181263085325 L261 272.6854505475701 L262 272.69588161592094 L263 272.7038206831093 L264 272.7098334412983 L265 272.714364973279 L266 272.71776346897644 L267 272.7202997766033 L268 272.72218339828646 L269 272.7235754804651 L270 272.72459928787504 L271 272.72534858921676 L272 272.72589432462445 L273 272.7262898711383 L274 272.72657517334153 L275 272.7267799625456 L276 272.72692624946797 L277 272.72703024208784 L278 272.7271038119744 L279 272.72715560843784 L280 272.7271918998955 L281 272.72721720538624 L282 272.7272347657237 L283 272.72724689291783 L284 272.7272552277864 L285 272.72726092876815 L286 272.7272648095076 L287 272.72726743853235 L288 272.72726921105414 L289 272.7272704003955 L290 272.7272711946154 L291 272.72727172244726 L292 272.72727207156515 L293 272.72727230137656 L294 272.72727245193147 L295 272.7272725500935 L296 272.7272726137904 L297 272.72727265492614 L298 272.72727268136543 L299 272.727272698278 L300 272.72727270904505 L301 272.7272727158672 L302 272.72727272016914 L303 272.7272727228691 L304 272.7272727245555 L305 272.72727272560394 L306 272.7272727262526 L307 272.727272726652 L308 272.7272727268968 L309 272.7272727270461 L310 272.7272727271367 L311 272.7272727271915 L312 272.72727272722443 L313 272.72727272724416 L314 272.72727272725587 L315 272.72727272726286 L316 272.72727272726695 L317 272.72727272726934 L318 272.72727272727076 L319 272.72727272727155 L320 272.72727272727207 L321 272.72727272727235 L322 272.72727272727246 L323 272.7272727272726 L324 272.72727272727263 L325 272.72727272727263 L326 272.7272727272727 L327 272.7272727272727 L328 272.7272727272727 L329 272.7272727272727 L330 272.7272727272727 L331 272.7272727272727 L332 272.7272727272727 L333 272.7272727272727 L334 272.7272727272727 L335 272.7272727272727 L336 272.7272727272727 L337 272.7272727272727 L338 272.7272727272727 L339 272.7272727272727 L340 272.7272727272727 L341 272.7272727272727 L342 272.7272727272727 L343 272.7272727272727 L344 272.7272727272727 L345 272.7272727272727 L346 272.7272727272727 L347 272.7272727272727 L348 272.7272727272727 L349 272.7272727272727 L350 272.7272727272727 L351 272.7272727272727 L352 272.7272727272727 L353 272.7272727272727 L354 272.7272727272727 L355 272.7272727272727 L356 272.7272727272727 L357 272.7272727272727 L358 272.7272727272727 L359 272.7272727272727 L360 272.7272727272727 L361 272.7272727272727 L362 272.7272727272727 L363 272.7272727272727 L364 272.7272727272727 L365 272.7272727272727 L366 272.7272727272727 L367 272.7272727272727 L368 272.7272727272727 L369 272.7272727272727 L370 272.7272727272727 L371 272.7272727272727 L372 272.7272727272727 L373 272.7272727272727 L374 272.7272727272727 L375 272.7272727272727 L376 272.7272727272727 L377 272.7272727272727 L378 272.7272727272727 L379 272.7272727272727 L380 272.7272727272727 L381 272.7272727272727 L382 272.7272727272727 L383 272.7272727272727 L384 272.7272727272727 L385 272.7272727272727 L386 272.7272727272727 L387 272.7272727272727 L388 272.7272727272727 L389 272.7272727272727 L390 272.7272727272727 L391 272.7272727272727 L392 272.7272727272727 L393 272.7272727272727 L394 272.7272727272727 L395 272.7272727272727 L396 272.7272727272727 L397 272.7272727272727 L398 272.7272727272727 L399 272.7272727272727 " stroke = "blue" stroke-width = "4" fill = "none" /></svg>