<svg width="400" height="400" viewbox = "0 0 400 400"  xmlns="http://www.w3.org/2000/svg">

<!--
<topfunctions>



function YofX(){
    X = plotparams.g*(x - plotparams.x0) - funcparams.X0;
    
    Y =  (1/Math.sqrt(2*Math.PI*funcparams.sigma*funcparams.sigma))*Math.exp(-(X - funcparams.mu)*(X - funcparams.mu)/(2*funcparams.sigma*funcparams.sigma));
    
    y = plotparams.y0 - plotparams.G*(Y - funcparams.Y0);
}





function plotfunction(){
/*

    currentStroke = "blue";
    currentLineWidth = 4;
    ctx.strokeStyle = currentStroke;
    ctx.lineWidth = currentLineWidth;
    ctx.beginPath();	
    x = 0;
    y = 0;
    t= 0;
    XYofT();
    currentSVG += "	<path d = \"M";
    currentSVG += Math.round(x).toString() + " ";
    currentSVG += Math.round(y).toString() + " ";
    for(t = 1;t < plotparams.duration;t++){
        ctx.moveTo(x,y);
        XYofT();
        ctx.lineTo(x,y);
        currentSVG += "L" + x + " " + y + " ";
    }
    ctx.stroke();
    currentSVG += "\""+ " stroke = \"" + currentStroke + "\" stroke-width = \"" + currentLineWidth.toString() + "\" fill = \"" + "none" + "\" "+"/>";


    /*plot one function:*/
    currentStroke = "blue";
    currentLineWidth = 4;
    ctx.strokeStyle = currentStroke;
    ctx.lineWidth = currentLineWidth;
    ctx.beginPath();	
    x = 0;
    YofX();
    currentSVG += "	<path d = \"M";
    currentSVG += Math.round(x).toString() + " ";
    currentSVG += Math.round(y).toString() + " ";
    for(x = 1;x < plotparams.plotwidth;x++){
        ctx.moveTo(x-1,y);
        YofX();
        ctx.lineTo(x,y);
        currentSVG += "L" + x + " " + y + " ";
    }
    ctx.stroke();
    currentSVG += "\""+ " stroke = \"" + currentStroke + "\" stroke-width = \"" + currentLineWidth.toString() + "\" fill = \"" + "none" + "\" "+"/>";
    /*finish plot one function*/
    

}


























</topfunctions>
-->

<!--
<imgurl>

</imgurl>
-->

<!--
<currentjson>
{
    "constants": {},
    "imgurl": "",
    "plotparams": {
        "G": 287.57923960771086,
        "g": 0.023939204936916317,
        "duration": 545.4545454545454,
        "plotwidth": 400,
        "plotheight": 400,
        "x0": 200,
        "y0": 272.7272727272727
    },
    "funcparams": {
        "mu": 0,
        "sigma": 1,
        "X0": 0,
        "Y0": 0
    }
}
</currentjson>
-->

<!--
<equation>



<h2>Gaussian</h2>
<p style="color:blue">
</p><p class="bigeq">
$$
Y = \frac{1}{\sqrt{2\pi\sigma^2}} e^{-\frac{(x - \mu)^2}{2\sigma^2}}$$
</p>
<p></p>

$$
X = g(x - x_0) - X_0
$$
$$
Y = f(X)
$$
    
$$
y = y_0 - G(Y - Y_0)
$$


<p>
    X and Y, and $X_0$ and $Y_0$ in physical units of the System. x and y and x0 and y0 in pixels.  G is in pixels per Y unit and g is in X units per pixel. 
</p>




</equation>
-->
	<path d = "M0 273 L1 272.7259189006911 L2 272.7257557911892 L3 272.72557400399 L4 272.72537152156866 L5 272.7251461229611 L6 272.72489536490593 L7 272.7246165614192 L8 272.7243067616903 L9 272.7239627261811 L10 272.7235809008053 L11 272.7231573890569 L12 272.72268792195234 L13 272.7221678256425 L14 272.72159198654504 L15 272.72095481384116 L16 272.72025019917385 L17 272.7194714733776 L18 272.7186113600647 L19 272.71766192588456 L20 272.71661452726914 L21 272.71545975346817 L22 272.71418736567534 L23 272.71278623203955 L24 272.7112442583505 L25 272.7095483141837 L26 272.707684154286 L27 272.7056363349802 L28 272.70338812536266 L29 272.7009214130684 L30 272.69821660437634 L31 272.6952525184272 L32 272.69200627532825 L33 272.688453177922 L34 272.68456658699836 L35 272.68031778973744 L36 272.6756758611738 L37 272.6706075184851 L38 272.6650769679153 L39 272.65904574415634 L40 272.6524725420275 L41 272.64531304030504 L42 272.63751971757745 L43 272.6290416600198 L44 272.6198243610061 L45 272.6098095125048 L46 272.59893478823074 L47 272.5871336185618 L48 272.57433495725934 L49 272.56046304007435 L50 272.5454371353589 L51 272.5291712868495 L52 272.51157404883503 L53 272.4925482139751 L54 272.4719905340869 L55 272.4497914342783 L56 272.4258347208656 L57 272.39999728357833 L58 272.3721487926218 L59 272.3421513912393 L60 272.309859384489 L61 272.2751189250275 L62 272.2377676967734 L63 272.1976345974034 L64 272.1545394207211 L65 272.10829254002334 L66 272.05869459367756 L67 272.0055361742148 L68 271.9485975223322 L69 271.88764822729206 L70 271.8224469352952 L71 271.75274106749936 L72 271.6782665494432 L73 271.59874755372715 L74 271.5138962578899 L75 271.4234126195046 L76 271.3269841706021 L77 271.22428583360585 L78 271.1149797610387 L79 270.99871520132916 L80 270.87512839311006 L81 270.7438424904556 L82 270.6044675215546 L83 270.45660038335626 L84 270.29982487475667 L85 270.1337117709154 L86 269.95781894130226 L87 269.7716915140735 L88 269.5748620893617 L89 269.36685100403975 L90 269.147166650476 L91 268.91530585174445 L92 268.670754295682 L93 268.4129870300993 L94 268.1414690213483 L95 267.8556557783294 L96 267.5549940438831 L97 267.2389225553569 L98 266.9068728759624 L99 266.5582702983465 L100 266.19253482158945 L101 265.80908220261284 L102 265.407325082733 L103 264.9866741898281 L104 264.546539616304 L105 264.08633217274155 L106 263.6054648167884 L107 263.10335415652526 L108 262.5794220271837 L109 262.0330971397294 L110 261.463816799446 L111 260.8710286922633 L112 260.2541927361749 L113 259.6127829946787 L114 258.94628964875596 L115 258.25422102348375 L116 257.53610566494626 L117 256.7914944626848 L118 256.0199628124966 L119 255.22111281396985 L120 254.394575496721 L121 253.5400130688899 L122 252.6571211810475 L123 251.745631198281 L124 250.80531247284918 L125 249.83597460944685 L126 248.8374697147825 L127 247.80969462286424 L128 246.75259308710577 L129 245.6661579301088 L130 244.55043314175728 L131 243.4055159160691 L132 242.23155861709975 L133 241.0287706640796 L134 239.79742032589579 L135 238.53783641500036 L136 237.25040987084466 L137 235.93559522300302 L138 234.5939119242625 L139 233.2259455441162 L140 231.8323488133115 L141 230.41384251036885 L142 228.97121618130285 L143 227.50532868414615 L144 226.01710855029762 L145 224.50755415518842 L146 222.97773369128413 L147 221.42878493701298 L148 219.86191481583518 L149 218.2783987403351 L150 216.6795797369349 L151 215.0668673475834 L152 213.4417363055728 L153 211.8057249834691 L154 210.1604336120117 L155 208.50752226973373 L156 206.84870864398277 L157 205.18576556496663 L158 203.52051831541482 L159 201.8548417194259 L160 200.19065701505775 L161 198.52992851620897 L162 196.87466007033055 L163 195.2268913194897 L164 193.58869377327994 L165 191.96216670302536 L166 190.34943286766122 L167 188.75263408257445 L168 187.17392664356166 L169 185.61547661889318 L170 184.07945502326208 L171 182.56803288813757 L172 181.08337624373036 L173 179.62764102840742 L174 178.20296794196062 L175 176.81147725963734 L176 175.45526362427128 L177 174.1363908342114 L178 172.8568866450293 L179 171.61873760318926 L180 170.42388392998708 L181 169.27421447410552 L182 168.17156175108767 L183 167.11769708790297 L184 166.1143258905646 L185 165.16308305245832 L186 164.2655285206589 L187 163.42314303704228 L188 162.6373240704536 L189 161.90938195556112 L190 161.2405362533213 L191 160.63191234719852 L192 160.08453828843437 L193 159.59934190274157 L194 159.17714816982004 L195 158.81867688605286 L196 158.5245406196512 L197 158.29524296637942 L198 158.13117711281205 L199 158.03262471286052 L200 157.9997550820625 L201 158.03262471286052 L202 158.13117711281205 L203 158.29524296637942 L204 158.5245406196512 L205 158.81867688605286 L206 159.17714816982004 L207 159.59934190274157 L208 160.08453828843437 L209 160.63191234719852 L210 161.2405362533213 L211 161.90938195556112 L212 162.6373240704536 L213 163.42314303704228 L214 164.2655285206589 L215 165.16308305245832 L216 166.1143258905646 L217 167.11769708790297 L218 168.17156175108767 L219 169.27421447410552 L220 170.42388392998708 L221 171.61873760318926 L222 172.8568866450293 L223 174.1363908342114 L224 175.45526362427128 L225 176.81147725963734 L226 178.20296794196062 L227 179.62764102840742 L228 181.08337624373036 L229 182.56803288813757 L230 184.07945502326208 L231 185.61547661889318 L232 187.17392664356166 L233 188.75263408257445 L234 190.34943286766122 L235 191.96216670302536 L236 193.58869377327994 L237 195.2268913194897 L238 196.87466007033055 L239 198.52992851620897 L240 200.19065701505775 L241 201.8548417194259 L242 203.52051831541482 L243 205.18576556496663 L244 206.84870864398277 L245 208.50752226973373 L246 210.1604336120117 L247 211.8057249834691 L248 213.4417363055728 L249 215.0668673475834 L250 216.6795797369349 L251 218.2783987403351 L252 219.86191481583518 L253 221.42878493701298 L254 222.97773369128413 L255 224.50755415518842 L256 226.01710855029762 L257 227.50532868414615 L258 228.97121618130285 L259 230.41384251036885 L260 231.8323488133115 L261 233.2259455441162 L262 234.5939119242625 L263 235.93559522300302 L264 237.25040987084466 L265 238.53783641500036 L266 239.79742032589579 L267 241.0287706640796 L268 242.23155861709975 L269 243.4055159160691 L270 244.55043314175728 L271 245.6661579301088 L272 246.75259308710577 L273 247.80969462286424 L274 248.8374697147825 L275 249.83597460944685 L276 250.80531247284918 L277 251.745631198281 L278 252.6571211810475 L279 253.5400130688899 L280 254.394575496721 L281 255.22111281396985 L282 256.0199628124966 L283 256.7914944626848 L284 257.53610566494626 L285 258.25422102348375 L286 258.94628964875596 L287 259.6127829946787 L288 260.2541927361749 L289 260.8710286922633 L290 261.463816799446 L291 262.0330971397294 L292 262.5794220271837 L293 263.10335415652526 L294 263.6054648167884 L295 264.08633217274155 L296 264.546539616304 L297 264.9866741898281 L298 265.407325082733 L299 265.80908220261284 L300 266.19253482158945 L301 266.5582702983465 L302 266.9068728759624 L303 267.2389225553569 L304 267.5549940438831 L305 267.8556557783294 L306 268.1414690213483 L307 268.4129870300993 L308 268.670754295682 L309 268.91530585174445 L310 269.147166650476 L311 269.36685100403975 L312 269.5748620893617 L313 269.7716915140735 L314 269.95781894130226 L315 270.1337117709154 L316 270.29982487475667 L317 270.45660038335626 L318 270.6044675215546 L319 270.7438424904556 L320 270.87512839311006 L321 270.99871520132916 L322 271.1149797610387 L323 271.22428583360585 L324 271.3269841706021 L325 271.4234126195046 L326 271.5138962578899 L327 271.59874755372715 L328 271.6782665494432 L329 271.75274106749936 L330 271.8224469352952 L331 271.88764822729206 L332 271.9485975223322 L333 272.0055361742148 L334 272.05869459367756 L335 272.10829254002334 L336 272.1545394207211 L337 272.1976345974034 L338 272.2377676967734 L339 272.2751189250275 L340 272.309859384489 L341 272.3421513912393 L342 272.3721487926218 L343 272.39999728357833 L344 272.4258347208656 L345 272.4497914342783 L346 272.4719905340869 L347 272.4925482139751 L348 272.51157404883503 L349 272.5291712868495 L350 272.5454371353589 L351 272.56046304007435 L352 272.57433495725934 L353 272.5871336185618 L354 272.59893478823074 L355 272.6098095125048 L356 272.6198243610061 L357 272.6290416600198 L358 272.63751971757745 L359 272.64531304030504 L360 272.6524725420275 L361 272.65904574415634 L362 272.6650769679153 L363 272.6706075184851 L364 272.6756758611738 L365 272.68031778973744 L366 272.68456658699836 L367 272.688453177922 L368 272.69200627532825 L369 272.6952525184272 L370 272.69821660437634 L371 272.7009214130684 L372 272.70338812536266 L373 272.7056363349802 L374 272.707684154286 L375 272.7095483141837 L376 272.7112442583505 L377 272.71278623203955 L378 272.71418736567534 L379 272.71545975346817 L380 272.71661452726914 L381 272.71766192588456 L382 272.7186113600647 L383 272.7194714733776 L384 272.72025019917385 L385 272.72095481384116 L386 272.72159198654504 L387 272.7221678256425 L388 272.72268792195234 L389 272.7231573890569 L390 272.7235809008053 L391 272.7239627261811 L392 272.7243067616903 L393 272.7246165614192 L394 272.72489536490593 L395 272.7251461229611 L396 272.72537152156866 L397 272.72557400399 L398 272.7257557911892 L399 272.7259189006911 " stroke = "blue" stroke-width = "4" fill = "none" /></svg>