<svg width="600" height="600" viewbox = "0 0 600 600"  xmlns="http://www.w3.org/2000/svg">

<!--
<json>
{
    "imgurl": "",
    "imgw": 2,
    "imgleft": -1,
    "imgtop": -1,
    "imgangle": 0,
    "svgwidth": 600,
    "svgheight": 600,
    "unit": 146.41000000000008,
    "x0": 684,
    "y0": 351.4475154247304,
    "x0rel": 0,
    "y0rel": -47.5524845752696,
    "glyph": "0331,0337,0220,0220,0220,0220,0220,0220,0220,0220,",
    "table": []
}
</json>
-->
	<path d = "M300 399 L300 106 L7 106 L7 399 L300 399 Z" stroke = "black" stroke-width = "2" fill = "none" />  <path d="M7.1799999999997794 398.85751542473037           A292.82000000000016 292.82000000000016 0 0 1 300.0000000000003 106.03751542473032" fill = "none" stroke = "black" stroke-width = "2" />
	<path d = "M300 287 L481 287 L481 106 L300 106 L300 287 Z" stroke = "black" stroke-width = "2" fill = "none" />  <path d="M300 106.03751542473049           A180.97271258574432 180.97271258574432 0 0 1 480.97271258574455 287.0102280104749" fill = "none" stroke = "black" stroke-width = "2" />
	<path d = "M369 287 L369 399 L481 399 L481 287 L369 287 Z" stroke = "black" stroke-width = "2" fill = "none" />  <path d="M480.97271258574455 287.0102280104749           A111.84728741425586 111.84728741425586 0 0 1 369.1254251714884 398.8575154247307" fill = "none" stroke = "black" stroke-width = "2" />
	<path d = "M369 330 L300 330 L300 399 L369 399 L369 330 Z" stroke = "black" stroke-width = "2" fill = "none" />  <path d="M369.12542517148864 398.8575154247306           A69.12542517148846 69.12542517148846 0 0 1 299.9999999999999 329.7320902532423" fill = "none" stroke = "black" stroke-width = "2" />
	<path d = "M343 330 L343 287 L300 287 L300 330 L343 330 Z" stroke = "black" stroke-width = "2" fill = "none" />  <path d="M300 329.7320902532424           A42.72186224276739 42.72186224276739 0 0 1 342.72186224276703 287.01022801047463" fill = "none" stroke = "black" stroke-width = "2" />
	<path d = "M343 313 L369 313 L369 287 L343 287 L343 313 Z" stroke = "black" stroke-width = "2" fill = "none" />  <path d="M342.7218622427671 287.0102280104747           A26.40356292872106 26.40356292872106 0 0 1 369.12542517148836 313.4137909391955" fill = "none" stroke = "black" stroke-width = "2" />
	<path d = "M353 313 L353 330 L369 330 L369 313 L353 313 Z" stroke = "black" stroke-width = "2" fill = "none" />  <path d="M369.1254251714883 313.4137909391955           A16.31829931404633 16.31829931404633 0 0 1 352.80712585744226 329.73209025324206" fill = "none" stroke = "black" stroke-width = "2" />
	<path d = "M353 320 L343 320 L343 330 L353 330 L353 320 Z" stroke = "black" stroke-width = "2" fill = "none" />  <path d="M352.8071258574422 329.732090253242           A10.085263614674727 10.085263614674727 0 0 1 342.7218622427673 319.6468266385675" fill = "none" stroke = "black" stroke-width = "2" />
</svg>