<svg width="500" height="300" viewbox = "0 0 500 300"  xmlns="http://www.w3.org/2000/svg">

<!--
<json>
{
    "imgurl": "",
    "imgw": 2,
    "imgleft": -1,
    "imgtop": -1,
    "imgangle": 0,
    "svgwidth": 500,
    "svgheight": 300,
    "unit": 146.41000000000008,
    "x0": 734,
    "y0": 401.4475154247304,
    "x0rel": 50,
    "y0rel": 2.4475154247303976,
    "glyph": "0210,0331,0337,0200,0311,0336,0333,0200,0330,0336,0200,0332,0330,0336,0331,0200,0332,0336,0331,0333,0200,0336,0333,0200,0332,0337,0332,0337,0337,0337,0331,0337,0350,0334,0333,0334,0334,0321,0343,0332,0334,0334,0336,0335,0331,0334,0343,0334,0336,0336,0330,0334,0337,0343,0334,0336,0336,0330,0334,0337,0343,0336,0336,0332,0334,0334,0337,0343,0334,0336,0336,0330,0334,0337,0343,0334,0334,0336,0336,0333,0337,0343,",
    "table": []
}
</json>
-->
	<path d = "M300 280 L300 24 L44 24 L44 280 L300 280 " stroke = "black" stroke-width = "2" fill = "none" />	<path d = "M458 280 L458 122 L300 122 L300 280 L458 280 " stroke = "black" stroke-width = "2" fill = "none" />	<path d = "M458 122 L458 24 L360 24 L360 122 L458 122 " stroke = "black" stroke-width = "2" fill = "none" />	<path d = "M360 85 L360 24 L300 24 L300 85 L360 85 " stroke = "black" stroke-width = "2" fill = "none" />	<path d = "M337 122 L337 85 L300 85 L300 122 L337 122 " stroke = "black" stroke-width = "2" fill = "none" />	<path d = "M360 122 L360 99 L337 99 L337 122 L360 122 " stroke = "black" stroke-width = "2" fill = "none" />  <path d="M300.0000000000012 280.4145477038357           A255.93406455820772 255.93406455820772 0 0 1 44.065935441790685 24.48048314563211" fill = "none" stroke = "black" stroke-width = "5" />
  <path d="M458.1759507758817 122.23859692795264           A158.1759507758822 158.1759507758822 0 0 1 300.0000000000012 280.4145477038357" fill = "none" stroke = "black" stroke-width = "5" />
  <path d="M360.4178369935562 24.480483145627673           A97.7581137823255 97.7581137823255 0 0 1 458.1759507758817 122.23859692795264" fill = "none" stroke = "black" stroke-width = "5" />
  <path d="M299.9999999999995 84.89832013918404           A60.41783699355669 60.41783699355669 0 0 1 360.4178369935562 24.480483145627673" fill = "none" stroke = "black" stroke-width = "5" />
  <path d="M337.3402767887679 122.23859692795304           A37.3402767887688 37.3402767887688 0 0 1 299.9999999999995 84.89832013918404" fill = "none" stroke = "black" stroke-width = "5" />
  <path d="M360.417836993556 99.16103672316551           A23.077560204787893 23.077560204787893 0 0 1 337.3402767887679 122.23859692795304" fill = "none" stroke = "black" stroke-width = "5" />
  <path d="M346.1551204095754 84.89832013918438           A14.262716583980902 14.262716583980902 0 0 1 360.41783699355597 99.16103672316551" fill = "none" stroke = "black" stroke-width = "5" />
</svg>