<svg width="600" height="500" viewbox = "0 0 600 500"  xmlns="http://www.w3.org/2000/svg">

<!--
<json>
{
    "imgurl": "",
    "imgw": 2,
    "imgleft": -1,
    "imgtop": -1,
    "imgangle": 0,
    "svgwidth": 600,
    "svgheight": 500,
    "unit": 146.41000000000008,
    "x0": 684,
    "y0": 351.4475154247304,
    "x0rel": 0,
    "y0rel": -47.5524845752696,
    "glyph": "0337,0336,0331,0337,0336,0336,0333,0336,0336,0336,0331,0331,0331,0332,0331,0332,0331,0337,0337,0337,0337,0337,0321,0220,0220,0220,0220,0220,",
    "table": []
}
</json>
-->
	<path d = "M355 395 L355 102 L62 102 L62 395 L355 395 Z" stroke = "black" stroke-width = "5" fill = "none" />  <path d="M62.08374999999984 394.6106404247303           A292.82000000000016 292.82000000000016 0 0 1 354.90375000000034 101.79064042473027" fill = "none" stroke = "black" stroke-width = "5" />
	<path d = "M355 283 L536 283 L536 102 L355 102 L355 283 Z" stroke = "black" stroke-width = "5" fill = "none" />  <path d="M354.90375000000006 101.79064042473044           A180.97271258574432 180.97271258574432 0 0 1 535.8764625857445 282.7633530104749" fill = "none" stroke = "black" stroke-width = "5" />
	<path d = "M424 283 L424 395 L536 395 L536 283 L424 283 Z" stroke = "black" stroke-width = "5" fill = "none" />  <path d="M535.8764625857447 282.7633530104749           A111.84728741425586 111.84728741425586 0 0 1 424.02917517148853 394.61064042473066" fill = "none" stroke = "black" stroke-width = "5" />
	<path d = "M424 325 L355 325 L355 395 L424 395 L424 325 Z" stroke = "black" stroke-width = "5" fill = "none" />  <path d="M424.02917517148876 394.61064042473055           A69.12542517148846 69.12542517148846 0 0 1 354.90375 325.48521525324225" fill = "none" stroke = "black" stroke-width = "5" />
	<path d = "M398 325 L398 283 L355 283 L355 325 L398 325 Z" stroke = "black" stroke-width = "5" fill = "none" />  <path d="M354.9037500000001 325.48521525324236           A42.72186224276739 42.72186224276739 0 0 1 397.62561224276715 282.7633530104746" fill = "none" stroke = "black" stroke-width = "5" />
</svg>