<svg width="500" height="400" viewbox = "0 0 500 400"  xmlns="http://www.w3.org/2000/svg">

<!--
<json>
{
    "imgurl": "",
    "imgw": 2,
    "imgleft": -1,
    "imgtop": -1,
    "imgangle": 0,
    "svgwidth": 500,
    "svgheight": 400,
    "unit": 146.41000000000008,
    "x0": 684,
    "y0": 351.4475154247304,
    "x0rel": 0,
    "y0rel": -47.5524845752696,
    "glyph": "0337,0336,0331,0337,0336,0336,0333,0336,0336,0336,0331,0331,0331,0332,0331,0332,0331,0337,0337,0337,0337,0337,0321,0220,0220,0220,0220,0220,",
    "table": []
}
</json>
-->
	<path d = "M305 345 L305 52 L12 52 L12 345 L305 345 Z" stroke = "black" stroke-width = "5" fill = "none" />  <path d="M12.083749999999839 344.6106404247303           A292.82000000000016 292.82000000000016 0 0 1 304.90375000000034 51.79064042473027" fill = "none" stroke = "black" stroke-width = "5" />
	<path d = "M305 233 L486 233 L486 52 L305 52 L305 233 Z" stroke = "black" stroke-width = "5" fill = "none" />  <path d="M304.90375000000006 51.79064042473041           A180.97271258574432 180.97271258574432 0 0 1 485.8764625857446 232.76335301047482" fill = "none" stroke = "black" stroke-width = "5" />
	<path d = "M374 233 L374 345 L486 345 L486 233 L374 233 Z" stroke = "black" stroke-width = "5" fill = "none" />  <path d="M485.8764625857446 232.76335301047484           A111.84728741425586 111.84728741425586 0 0 1 374.0291751714885 344.6106404247306" fill = "none" stroke = "black" stroke-width = "5" />
	<path d = "M374 275 L305 275 L305 345 L374 345 L374 275 Z" stroke = "black" stroke-width = "5" fill = "none" />  <path d="M374.0291751714887 344.6106404247305           A69.12542517148846 69.12542517148846 0 0 1 304.90374999999995 275.4852152532422" fill = "none" stroke = "black" stroke-width = "5" />
	<path d = "M348 275 L348 233 L305 233 L305 275 L348 275 Z" stroke = "black" stroke-width = "5" fill = "none" />  <path d="M304.90375000000006 275.4852152532423           A42.72186224276739 42.72186224276739 0 0 1 347.6256122427671 232.7633530104745" fill = "none" stroke = "black" stroke-width = "5" />
</svg>