<svg width="400" height="400" viewbox = "0 0 400 400"  xmlns="http://www.w3.org/2000/svg">

<!--
<topfunctions>



function YofX(){
    X = plotparams.g*(x - plotparams.x0) - funcparams.X0;
    
    Y =  (1/Math.sqrt(2*Math.PI*funcparams.sigma*funcparams.sigma))*Math.exp(-(X - funcparams.mu)*(X - funcparams.mu)/(2*funcparams.sigma*funcparams.sigma));
    
    y = plotparams.y0 - plotparams.G*(Y - funcparams.Y0);
}





function plotfunction(){
/*

    currentStroke = "blue";
    currentLineWidth = 4;
    ctx.strokeStyle = currentStroke;
    ctx.lineWidth = currentLineWidth;
    ctx.beginPath();	
    x = 0;
    y = 0;
    t= 0;
    XYofT();
    currentSVG += "	<path d = \"M";
    currentSVG += Math.round(x).toString() + " ";
    currentSVG += Math.round(y).toString() + " ";
    for(t = 1;t < plotparams.duration;t++){
        ctx.moveTo(x,y);
        XYofT();
        ctx.lineTo(x,y);
        currentSVG += "L" + x + " " + y + " ";
    }
    ctx.stroke();
    currentSVG += "\""+ " stroke = \"" + currentStroke + "\" stroke-width = \"" + currentLineWidth.toString() + "\" fill = \"" + "none" + "\" "+"/>";


    /*plot one function:*/
    currentStroke = "blue";
    currentLineWidth = 4;
    ctx.strokeStyle = currentStroke;
    ctx.lineWidth = currentLineWidth;
    ctx.beginPath();	
    x = 0;
    YofX();
    currentSVG += "	<path d = \"M";
    currentSVG += Math.round(x).toString() + " ";
    currentSVG += Math.round(y).toString() + " ";
    for(x = 1;x < plotparams.plotwidth;x++){
        ctx.moveTo(x-1,y);
        YofX();
        ctx.lineTo(x,y);
        currentSVG += "L" + x + " " + y + " ";
    }
    ctx.stroke();
    currentSVG += "\""+ " stroke = \"" + currentStroke + "\" stroke-width = \"" + currentLineWidth.toString() + "\" fill = \"" + "none" + "\" "+"/>";
    /*finish plot one function*/
    

}


























</topfunctions>
-->

<!--
<imgurl>

</imgurl>
-->

<!--
<currentjson>
{
    "constants": {},
    "imgurl": "",
    "plotparams": {
        "G": 4147.178376938372,
        "g": 0.2357947691000001,
        "duration": 545.4545454545454,
        "plotwidth": 400,
        "plotheight": 400,
        "x0": 200,
        "y0": 272.7272727272727
    },
    "funcparams": {
        "mu": 0,
        "sigma": 10,
        "X0": 0,
        "Y0": 0
    }
}
</currentjson>
-->

<!--
<equation>



<h2>Gaussian</h2>
<p style="color:blue">
</p><p class="bigeq">
$$
Y = \frac{1}{\sqrt{2\pi\sigma^2}} e^{-\frac{(x - \mu)^2}{2\sigma^2}}$$
</p>
<p></p>

$$
X = g(x - x_0) - X_0
$$
$$
Y = f(X)
$$
    
$$
y = y_0 - G(Y - Y_0)
$$


<p>
    X and Y, and $X_0$ and $Y_0$ in physical units of the System. x and y and x0 and y0 in pixels.  G is in pixels per Y unit and g is in X units per pixel. 
</p>




</equation>
-->
	<path d = "M0 273 L1 272.72453397936215 L2 272.72421440891776 L3 272.7238594477205 L4 272.7234654056725 L5 272.72302823446233 L6 272.72254349572853 L7 272.7220063267044 L8 272.7214114031746 L9 272.7207528995681 L10 272.72002444600133 L11 272.7192190820806 L12 272.71832920725944 L13 272.71734652754316 L14 272.7162619983207 L15 272.7150657630978 L16 272.7137470878959 L17 272.7122942910742 L18 272.7106946683242 L19 272.7089344125789 L20 272.7069985285708 L21 272.7048707417685 L22 272.7025334014138 L23 272.6999673773768 L24 272.69715195054243 L25 272.6940646964371 L26 272.6906813618036 L27 272.68697573382804 L28 272.68291950172534 L29 272.6784821103888 L30 272.6736306058125 L31 272.6683294720002 L32 272.66254045907846 L33 272.65622240234245 L34 272.6493310319693 L35 272.64181877314985 L36 272.6336345364 L37 272.62472349783394 L38 272.61502686919806 L39 272.60448165748846 L40 272.5930204139998 L41 272.58057097268255 L42 272.56705617771655 L43 272.5523936002449 L44 272.5364952442511 L45 272.5192672416039 L46 272.50060953634215 L47 272.4804155583208 L48 272.4585718863946 L49 272.4349579013736 L50 272.4094454290468 L51 272.38189837363865 L52 272.3521723421314 L53 272.3201142599639 L54 272.2855619786944 L55 272.2483438763009 L56 272.20827845087746 L57 272.16517390857774 L58 272.1188277467528 L59 272.0690263333273 L60 272.0155444835625 L61 271.9581450354583 L62 271.8965784251563 L63 271.8305822638158 L64 271.7598809175491 L65 271.68418509211523 L66 271.603191424191 L67 271.5165820811511 L68 271.4240243714115 L69 271.32517036750204 L70 271.2196565441556 L71 271.1071034338125 L72 270.987115302052 L73 270.85927984557384 L74 270.72316791545467 L75 270.57833326850925 L76 270.42431234967813 L77 270.2606241084536 L78 270.08676985243807 L79 269.90223314119953 L80 269.7064797236548 L81 269.49895752226354 L82 269.27909666735746 L83 269.04630958496017 L84 268.79999114146784 L85 268.53951884856394 L86 268.26425313172706 L87 267.97353766566124 L88 267.6666997799312 L89 267.3430509380196 L90 267.00188729293814 L91 266.64249032242265 L92 266.2641275466135 L93 265.8660533309806 L94 265.44750977708134 L95 265.007727703551 L96 264.54592771951076 L97 264.06132139234325 L98 263.55311251152443 L99 263.0204984499189 L100 262.46267162363773 L101 261.8788210512298 L102 261.26813401262314 L103 260.6297978078596 L104 259.96300161526864 L105 259.26693844830845 L106 258.5408072098648 L107 257.7838148423429 L108 256.9951785714113 L109 256.174128240769 L110 255.31990873480163 L111 254.43178248547468 L112 253.5090320592857 L113 252.55096281955966 L114 251.55690565883046 L115 250.5262197955047 L116 249.4582956284573 L117 248.35255764266265 L118 247.20846735842417 L119 246.02552631623206 L120 244.80327908875526 L121 243.54131631096595 L122 242.23927771890214 L123 240.89685518710192 L124 239.5137957542967 L125 238.08990462652812 L126 236.6250481464641 L127 235.11915671733323 L128 233.57222766957582 L129 231.98432805803296 L130 230.3555973772575 L131 228.68625018234275 L132 226.9765786025244 L133 225.22695473472427 L134 223.43783290417105 L135 221.60975177925664 L136 219.74333632787184 L137 217.83929960260656 L138 215.89844434240865 L139 213.92166437856488 L140 211.9099458332025 L141 209.86436809891174 L142 207.78610458855456 L143 205.6764232448582 L144 203.5366867999885 L145 201.36835277596035 L146 199.17297321746653 L147 196.95219414949395 L148 194.7077547529403 L149 192.44148625234953 L150 190.15531051083946 L151 187.8512383283054 L152 185.53136744003862 L153 183.19788021399773 L154 180.85304104611134 L155 178.49919345416174 L156 176.13875687200414 L157 173.7742231471022 L158 171.40815274560634 L159 169.04317067046156 L160 166.681962099295 L161 164.32726775010224 L162 161.98187898400926 L163 159.64863265563753 L164 157.33040572282692 L165 155.03010962867668 L166 152.75068447003457 L167 150.49509296769838 L168 148.26631425468122 L169 146.06733749992623 L170 143.90115538583683 L171 141.77075745889985 L172 139.67912337352428 L173 137.62921604998598 L174 135.62397476805856 L175 133.66630821851072 L176 131.7590875351663 L177 129.9051393306403 L178 128.10723875918802 L179 126.36810263032399 L180 124.69038259698928 L181 123.07665844205692 L182 121.52943148687484 L183 120.05111814534612 L184 118.64404364673968 L185 117.31043595001128 L186 116.05241987189478 L187 114.87201145040024 L188 113.77111256462871 L189 112.75150583098704 L190 111.81484979496503 L191 110.96267443662134 L192 110.19637700682242 L193 109.51721821009252 L194 108.92631874867044 L195 108.42465624103181 L196 108.01306252673692 L197 107.69222136800366 L198 107.46266655689536 L199 107.32478043545674 L200 107.27879283454206 L201 107.32478043545674 L202 107.46266655689536 L203 107.69222136800366 L204 108.01306252673692 L205 108.42465624103181 L206 108.92631874867044 L207 109.51721821009252 L208 110.19637700682242 L209 110.96267443662134 L210 111.81484979496503 L211 112.75150583098704 L212 113.77111256462871 L213 114.87201145040024 L214 116.05241987189478 L215 117.31043595001128 L216 118.64404364673968 L217 120.05111814534612 L218 121.52943148687484 L219 123.07665844205692 L220 124.69038259698928 L221 126.36810263032399 L222 128.10723875918802 L223 129.9051393306403 L224 131.7590875351663 L225 133.66630821851072 L226 135.62397476805856 L227 137.62921604998598 L228 139.67912337352428 L229 141.77075745889985 L230 143.90115538583683 L231 146.06733749992623 L232 148.26631425468122 L233 150.49509296769838 L234 152.75068447003457 L235 155.03010962867668 L236 157.33040572282692 L237 159.64863265563753 L238 161.98187898400926 L239 164.32726775010224 L240 166.681962099295 L241 169.04317067046156 L242 171.40815274560634 L243 173.7742231471022 L244 176.13875687200414 L245 178.49919345416174 L246 180.85304104611134 L247 183.19788021399773 L248 185.53136744003862 L249 187.8512383283054 L250 190.15531051083946 L251 192.44148625234953 L252 194.7077547529403 L253 196.95219414949395 L254 199.17297321746653 L255 201.36835277596035 L256 203.5366867999885 L257 205.6764232448582 L258 207.78610458855456 L259 209.86436809891174 L260 211.9099458332025 L261 213.92166437856488 L262 215.89844434240865 L263 217.83929960260656 L264 219.74333632787184 L265 221.60975177925664 L266 223.43783290417105 L267 225.22695473472427 L268 226.9765786025244 L269 228.68625018234275 L270 230.3555973772575 L271 231.98432805803296 L272 233.57222766957582 L273 235.11915671733323 L274 236.6250481464641 L275 238.08990462652812 L276 239.5137957542967 L277 240.89685518710192 L278 242.23927771890214 L279 243.54131631096595 L280 244.80327908875526 L281 246.02552631623206 L282 247.20846735842417 L283 248.35255764266265 L284 249.4582956284573 L285 250.5262197955047 L286 251.55690565883046 L287 252.55096281955966 L288 253.5090320592857 L289 254.43178248547468 L290 255.31990873480163 L291 256.174128240769 L292 256.9951785714113 L293 257.7838148423429 L294 258.5408072098648 L295 259.26693844830845 L296 259.96300161526864 L297 260.6297978078596 L298 261.26813401262314 L299 261.8788210512298 L300 262.46267162363773 L301 263.0204984499189 L302 263.55311251152443 L303 264.06132139234325 L304 264.54592771951076 L305 265.007727703551 L306 265.44750977708134 L307 265.8660533309806 L308 266.2641275466135 L309 266.64249032242265 L310 267.00188729293814 L311 267.3430509380196 L312 267.6666997799312 L313 267.97353766566124 L314 268.26425313172706 L315 268.53951884856394 L316 268.79999114146784 L317 269.04630958496017 L318 269.27909666735746 L319 269.49895752226354 L320 269.7064797236548 L321 269.90223314119953 L322 270.08676985243807 L323 270.2606241084536 L324 270.42431234967813 L325 270.57833326850925 L326 270.72316791545467 L327 270.85927984557384 L328 270.987115302052 L329 271.1071034338125 L330 271.2196565441556 L331 271.32517036750204 L332 271.4240243714115 L333 271.5165820811511 L334 271.603191424191 L335 271.68418509211523 L336 271.7598809175491 L337 271.8305822638158 L338 271.8965784251563 L339 271.9581450354583 L340 272.0155444835625 L341 272.0690263333273 L342 272.1188277467528 L343 272.16517390857774 L344 272.20827845087746 L345 272.2483438763009 L346 272.2855619786944 L347 272.3201142599639 L348 272.3521723421314 L349 272.38189837363865 L350 272.4094454290468 L351 272.4349579013736 L352 272.4585718863946 L353 272.4804155583208 L354 272.50060953634215 L355 272.5192672416039 L356 272.5364952442511 L357 272.5523936002449 L358 272.56705617771655 L359 272.58057097268255 L360 272.5930204139998 L361 272.60448165748846 L362 272.61502686919806 L363 272.62472349783394 L364 272.6336345364 L365 272.64181877314985 L366 272.6493310319693 L367 272.65622240234245 L368 272.66254045907846 L369 272.6683294720002 L370 272.6736306058125 L371 272.6784821103888 L372 272.68291950172534 L373 272.68697573382804 L374 272.6906813618036 L375 272.6940646964371 L376 272.69715195054243 L377 272.6999673773768 L378 272.7025334014138 L379 272.7048707417685 L380 272.7069985285708 L381 272.7089344125789 L382 272.7106946683242 L383 272.7122942910742 L384 272.7137470878959 L385 272.7150657630978 L386 272.7162619983207 L387 272.71734652754316 L388 272.71832920725944 L389 272.7192190820806 L390 272.72002444600133 L391 272.7207528995681 L392 272.7214114031746 L393 272.7220063267044 L394 272.72254349572853 L395 272.72302823446233 L396 272.7234654056725 L397 272.7238594477205 L398 272.72421440891776 L399 272.72453397936215 " stroke = "blue" stroke-width = "4" fill = "none" /></svg>