<svg width="400" height="400" viewbox = "0 0 400 400"  xmlns="http://www.w3.org/2000/svg">

<!--
<topfunctions>




function YofX(){
    X = plotparams.g*(x - plotparams.x0) - funcparams.X0;
    Y = Math.exp(-X/funcparams.tau)*Math.cos(funcparams.phi + 2*Math.PI*X/funcparams.T);
    y = plotparams.y0 - plotparams.G*(Y - funcparams.Y0);
}



function plotfunction(){
/*

    currentStroke = "blue";
    currentLineWidth = 4;
    ctx.strokeStyle = currentStroke;
    ctx.lineWidth = currentLineWidth;
    ctx.beginPath();	
    x = 0;
    y = 0;
    t= 0;
    XYofT();
    currentSVG += "	<path d = \"M";
    currentSVG += Math.round(x).toString() + " ";
    currentSVG += Math.round(y).toString() + " ";
    for(t = 1;t < plotparams.duration;t++){
        ctx.moveTo(x,y);
        XYofT();
        ctx.lineTo(x,y);
        currentSVG += "L" + x + " " + y + " ";
    }
    ctx.stroke();
    currentSVG += "\""+ " stroke = \"" + currentStroke + "\" stroke-width = \"" + currentLineWidth.toString() + "\" fill = \"" + "none" + "\" "+"/>";


    /*plot one function:*/
    currentStroke = "blue";
    currentLineWidth = 4;
    ctx.strokeStyle = currentStroke;
    ctx.lineWidth = currentLineWidth;
    ctx.beginPath();	
    x = 0;
    YofX();
    currentSVG += "	<path d = \"M";
    currentSVG += Math.round(x).toString() + " ";
    currentSVG += Math.round(y).toString() + " ";
    for(x = 1;x < plotparams.plotwidth;x++){
        ctx.moveTo(x-1,y);
        YofX();
        ctx.lineTo(x,y);
        currentSVG += "L" + x + " " + y + " ";
    }
    ctx.stroke();
    currentSVG += "\""+ " stroke = \"" + currentStroke + "\" stroke-width = \"" + currentLineWidth.toString() + "\" fill = \"" + "none" + "\" "+"/>";
    /*finish plot one function*/
    

}
























</topfunctions>
-->

<!--
<imgurl>

</imgurl>
-->

<!--
<currentjson>
{
    "constants": {},
    "imgurl": "",
    "plotparams": {
        "G": 100.79476910000027,
        "g": 1.0000000000000009,
        "duration": 545.4545454545454,
        "plotwidth": 400,
        "plotheight": 400,
        "x0": 0,
        "y0": 200
    },
    "funcparams": {
        "T": 25.65790591153533,
        "tau": 92.73804159861228,
        "phi": 3.14159,
        "X0": 0,
        "Y0": 0
    }
}
</currentjson>
-->

<!--
<equation>


<h2>Ringdown</h2>
<p style="color:blue">

</p><p class="bigeq">
$$
Y = e^{-X/\tau}\cos{\left(\phi +\frac{2\pi X}{T}\right)}$$
</p>
<p></p>

$$
X = g(x - x_0) - X_0
$$
$$
Y = f(X)
$$
    
$$
y = y_0 - G(Y - Y_0)
$$


<p>
    X and Y, and $X_0$ and $Y_0$ in physical units of the System. x and y and x0 and y0 in pixels.  G is in pixels per Y unit and g is in X units per pixel. 
</p>



</equation>
-->
	<path d = "M0 301 L1 296.7389060214324 L2 287.04808024500073 L3 272.4156661922209 L4 253.8125087236444 L5 232.4235838972457 L6 209.5733465765378 L7 186.6444214744448 L8 164.99458856368867 L9 145.87700903262123 L10 130.3683407797272 L11 119.30882663625648 L12 113.25764327935443 L13 112.46582607511212 L14 116.86799618949651 L15 126.09297810547703 L16 139.4922765559588 L17 156.18434760687285 L18 175.1117085634454 L19 195.10723508994093 L20 214.9655284754588 L21 233.51502394984922 L22 249.68655948765948 L23 262.5744252046173 L24 271.48644308864357 L25 275.98034920591044 L26 275.88461884410674 L27 271.3028348307911 L28 262.60169177863975 L29 250.38369486211812 L30 235.44649436635657 L31 218.7315462418745 L32 201.26536280138325 L33 184.0969863000932 L34 168.23546402814316 L35 154.59102283639965 L36 143.92334332272512 L37 136.79984146107074 L38 133.5662115404683 L39 134.33071101514184 L40 138.96282353070504 L41 147.10607243821084 L42 158.203925053592 L43 171.5369762949478 L44 186.2689718721068 L45 201.49876045344425 L46 216.31497567117012 L47 229.8501556279819 L48 241.3311110789999 L49 250.12264336444875 L50 255.7621683380329 L51 257.9833925269893 L52 256.72787480166704 L53 252.14404822039984 L54 244.57402744150022 L55 234.52924255847864 L56 222.6565788541959 L57 209.69722765217097 L58 196.44083748784777 L59 183.67777753734595 L60 172.15237689591652 L61 162.51988448755864 L62 155.3096157748476 L63 150.89633391155564 L64 149.48138227840556 L65 151.08447624527338 L66 155.54641220815975 L67 162.54230075585568 L68 171.60431677324672 L69 182.15241791018943 L70 193.53104460551077 L71 205.04950347353426 L72 216.02356704538164 L73 225.81580355179065 L74 233.87227859029213 L75 239.75353541157344 L76 243.1581436037029 L77 243.93758197322114 L78 242.10176028161104 L79 237.8150529835355 L80 231.38328197487226 L81 223.23261134383014 L82 213.8817749266929 L83 203.90942147910857 L84 193.91861295669565 L85 184.50063634660165 L86 176.20028399724325 L87 169.48462456475525 L88 164.71703710435582 L89 162.13793173573538 L90 161.8531544737449 L91 163.83059806195334 L92 167.90504417985477 L93 173.79077501943684 L94 181.10104257464812 L95 189.37309784729115 L96 198.0971810277066 L97 206.74767355576944 L98 214.81452349024565 L99 221.83307974323154 L100 227.41060462031436 L101 231.24796748623635 L102 233.15533932453474 L103 233.0610879493974 L104 231.01349283980878 L105 227.17533136943393 L106 221.8118087130211 L107 215.27268731338637 L108 207.96979659192863 L109 200.351351624892 L110 192.87466775500158 L111 185.97891912001563 L112 180.0595513222556 L113 175.4458262766661 L114 172.38276049209492 L115 171.01843128747635 L116 171.39728717392467 L117 173.45972995109562 L118 177.04785942567048 L119 181.9169095071316 L120 187.75157788109004 L121 194.18617905745214 L122 200.82734729526396 L123 207.27789226734856 L124 213.16037195881526 L125 218.13899464421357 L126 221.93859022917175 L127 224.35959144724575 L128 225.2882239994574 L129 224.7014051724502 L130 222.66617410878962 L131 219.33380409381806 L132 214.9290585405594 L133 209.73532972368216 L134 204.07662705509935 L135 198.29754739675627 L136 192.74245509385338 L137 187.7351199588877 L138 183.5600077207061 L139 180.44629423464642 L140 178.55549080021643 L141 177.973335426806 L142 178.70633861285444 L143 180.68308862868128 L144 183.7601375586031 L145 187.73202224852582 L146 192.34473926404374 L147 197.31180320822423 L148 202.3318835343745 L149 207.10694307011295 L150 211.35979476943513 L151 214.85005073398864 L152 217.3875545209603 L153 218.842555996054 L154 219.1520964518163 L155 218.322307206764 L156 216.4265729245417 L157 213.59975650836236 L158 210.02891115898595 L159 205.94110386656172 L160 201.58913212815312 L161 197.2360236054509 L162 193.13926143631346 L163 189.53567402659863 L164 186.62786881885066 L165 184.57297945366048 L166 183.47434250127378 L167 183.3765335291457 L168 184.26398441847772 L169 186.063187299938 L170 188.6482782383132 L171 191.84959831865464 L172 195.4646622761623 L173 199.27083457908563 L174 203.03892682545828 L175 206.5468925970546 L176 209.59280772714794 L177 212.00638352705496 L178 213.6583633364819 L179 214.46729181083276 L180 214.40331263815716 L181 213.48883347391416 L182 211.7960856055098 L183 209.441788928718 L184 206.579299527802 L185 203.38875798963863 L186 200.06586377167753 L187 196.80996886245984 L188 193.81220944255602 L189 191.2443766724967 L190 189.24916906087233 L191 187.93237344714316 L192 187.3573958972076 L193 187.54241583877945 L194 188.46027578405577 L195 190.0410547974804 L196 192.17711624589688 L197 194.73027849913836 L198 197.5406391857397 L199 200.43649582577117 L200 203.2447527065328 L201 205.8011881260133 L202 207.9599777405756 L203 209.60192664217436 L204 210.6409508392756 L205 211.0284621521911 L206 210.7554419151046 L207 209.85213014826405 L208 208.38539945835123 L209 206.45401838111323 L210 204.18212933888222 L211 201.71136504223088 L212 199.19209864994662 L213 196.77436366658887 L214 194.59898765458504 L215 192.78945958403054 L216 191.44499616277005 L217 190.63519164902942 L218 190.39653379242546 L219 190.73095214915463 L220 191.60644126816666 L221 192.95967762293222 L222 194.7004329767788 L223 196.71748483176557 L224 198.885642454731 L225 201.0734491343314 L226 203.151090701649 L227 204.9980381746259 L228 206.50997818469247 L229 207.60463648994667 L230 208.22617376711005 L231 208.34792415969108 L232 207.97334997221037 L233 207.13519410529955 L234 205.8929188114106 L235 204.32861881432018 L236 202.54168305541648 L237 200.6425474891132 L238 198.74592780278243 L239 196.96394339902648 L240 195.39954163326803 L241 194.14060481546858 L242 193.2550739426807 L243 192.78735587067396 L244 192.75619903527084 L245 193.15413202920777 L246 193.94846489526253 L247 195.0837605745597 L248 196.48559897338302 L249 198.0653834493852 L250 199.72588320362047 L251 201.36716808017798 L252 202.89257639538113 L253 204.21436213244203 L254 205.25869434647566 L255 205.96972691737966 L256 206.31251778473933 L257 206.27464955701913 L258 205.86648335272665 L259 205.1200600207653 L260 204.0867425843412 L261 202.83376619927384 L262 201.43992298333373 L263 199.99065538943685 L264 198.5728609375495 L265 197.2697217308391 L266 196.15586402876727 L267 195.29312711597223 L268 194.72717871216145 L269 194.48515903899673 L270 194.5744709358997 L271 194.9827631305644 L272 195.67908219738138 L273 196.61610013847343 L274 197.73326289132535 L275 198.9606539004742 L276 200.22332899132707 L277 201.44585611034742 L278 202.5567870637692 L279 203.49279823055386 L280 204.2022624150769 L281 204.64805272377725 L282 204.80942901912044 L283 204.68291495246342 L284 204.2821352411039 L285 203.6366449969852 L286 202.78984184968883 L287 201.79610391725876 L288 200.71733941253228 L289 199.61916450687355 L290 198.5669434377543 L291 197.6219280018755 L292 196.8377226380241 L293 196.2572772211607 L294 195.91057416613623 L295 195.81313182098964 L296 195.96539524893225 L297 196.35303149776996 L298 196.94809259598748 L299 197.71095897846584 L300 198.592931749821 L301 199.53930662624987 L302 200.4927374749074 L303 201.39668434006487 L304 202.19874022452774 L305 202.85364245498127 L306 203.32579725749414 L307 203.59117861625535 L308 203.6385024598544 L309 203.46962219045844 L310 203.09913877566635 L311 202.55326522113654 L312 201.86802849122512 L313 201.08692935838005 L314 200.25821015164215 L315 199.43190036524396 L316 198.65681960031137 L317 197.9777160070522 L318 197.4327065795732 L319 197.0511642536288 L320 196.8521672394828 L321 196.84359030663407 L322 197.0218780689822 L323 197.37249912854367 L324 197.8710396917063 L325 198.48485833422728 L326 199.17519207383256 L327 199.89957956076512 L328 200.61445130407492 L329 201.27773017437315 L330 201.85128816047936 L331 202.30311714517728 L332 202.60909141386682 L333 202.75422636533065 L334 202.73336972846712 L335 202.5512965115043 L336 202.22221478955638 L337 201.76872412997278 L338 201.22029993614515 L339 200.61140346590992 L340 199.97933729134454 L341 199.36197846703965 L342 198.7955260847488 L343 198.31239612540134 L344 197.9393849720646 L345 197.69620446852466 L346 197.594467238507 L347 197.63717267108112 L348 197.81871329113574 L349 198.12539003561233 L350 198.5363951025361 L351 199.02519426775416 L352 199.56121839133408 L353 200.1117574750663 L354 200.6439409280505 L355 201.1266850808914 L356 201.53249346409223 L357 201.83900651685826 L358 202.0302144167796 L359 202.09726848657115 L360 202.03885175273814 L361 201.86109614555915 L362 201.57706091000045 L363 201.2058124379309 L364 200.77116844752328 L365 200.3001879449341 L366 199.8215017012886 L367 199.3635853893613 L368 198.95307873638185 L369 198.61324912270152 L370 198.36268741297104 L371 198.214308198446 L372 198.17470708509168 L373 198.24390542218148 L374 198.41548930294516 L375 198.67712620436973 L376 199.01142065314895 L377 199.39705107734076 L378 199.81011460697064 L379 200.2255958504766 L380 200.61887013308845 L381 200.96715155482886 L382 201.25080140193512 L383 201.45442250681927 L384 201.56767939892381 L385 201.58580159004384 L386 201.50974698836808 L387 201.34602302756417 L388 201.10618339272372 L389 200.80603702986843 L390 200.46462235960817 L391 200.1030123731626 L392 199.7430248899362 L393 199.40591628016873 L394 199.111136263496 L395 198.87521612615413 L396 198.71085326524212 L397 198.62624201478545 L398 198.62468507653304 L399 198.70450255013458 " stroke = "blue" stroke-width = "4" fill = "none" /></svg>