<svg width="400" height="400" viewbox = "0 0 400 400"  xmlns="http://www.w3.org/2000/svg">

<!--
<topfunctions>




function YofX(){
    X = plotparams.g*(x - plotparams.x0) - funcparams.X0;
    Y = funcparams.a*X*X*X + funcparams.b*X*X + funcparams.c*X + funcparams.d;
    y = plotparams.y0 - plotparams.G*(Y - funcparams.Y0);
}


function YofX2(){
    X = plotparams.g*(x - plotparams.x0) - funcparams.X0;
    Y = funcparams.b*X*X + funcparams.c*X + funcparams.d;
    y = plotparams.y0 - plotparams.G*(Y - funcparams.Y0);
 }

function XYofT(){
    T = plotparams.g*t;
    tau = 0.25*funcparams.T/Math.log(constants.phi);
    X = Math.exp(-T/tau)*Math.cos(2*Math.PI*T/funcparams.T);
    Y = Math.exp(-T/tau)*Math.sin(2*Math.PI*T/funcparams.T);
    y = plotparams.y0 - plotparams.G*(Y - funcparams.Y0);
    x = plotparams.x0 - plotparams.G*(X - funcparams.X0);    
}


function plotfunction(){


    currentStroke = "blue";
    currentLineWidth = 4;
    ctx.strokeStyle = currentStroke;
    ctx.lineWidth = currentLineWidth;
    ctx.beginPath();	
    x = 0;
    y = 0;
    t= 0;
    XYofT();
    currentSVG += "	<path d = \"M";
    currentSVG += Math.round(x).toString() + " ";
    currentSVG += Math.round(y).toString() + " ";
    for(t = 1;t < plotparams.duration;t++){
        ctx.moveTo(x,y);
        XYofT();
        ctx.lineTo(x,y);
        currentSVG += "L" + x + " " + y + " ";
    }
    ctx.stroke();
    currentSVG += "\""+ " stroke = \"" + currentStroke + "\" stroke-width = \"" + currentLineWidth.toString() + "\" fill = \"" + "none" + "\" "+"/>";


    /*plot one function:
    currentStroke = "blue";
    currentLineWidth = 4;
    ctx.strokeStyle = currentStroke;
    ctx.lineWidth = currentLineWidth;
    ctx.beginPath();	
    x = 0;
    YofX();
    currentSVG += "	<path d = \"M";
    currentSVG += Math.round(x).toString() + " ";
    currentSVG += Math.round(y).toString() + " ";
    for(x = 1;x < plotparams.plotwidth;x++){
        ctx.moveTo(x-1,y);
        YofX();
        ctx.lineTo(x,y);
        currentSVG += "L" + x + " " + y + " ";
    }
    ctx.stroke();
    currentSVG += "\""+ " stroke = \"" + currentStroke + "\" stroke-width = \"" + currentLineWidth.toString() + "\" fill = \"" + "none" + "\" "+"/>";
    /*finish plot one function*/
    

}






















</topfunctions>
-->

<!--
<imgurl>

</imgurl>
-->

<!--
<currentjson>
{
    "constants": {
        "phi": 1.618
    },
    "imgurl": "",
    "plotparams": {
        "G": 147.2553430336623,
        "g": 0.017985878990921366,
        "duration": 545.4545454545454,
        "plotwidth": 400,
        "plotheight": 400,
        "x0": 200,
        "y0": 202
    },
    "funcparams": {
        "tau": 0.9418499929055854,
        "T": 1.4510503978369063,
        "X0": 0,
        "Y0": 0
    }
}
</currentjson>
-->

<!--
<equation>

<h2>Golden Spiral</h2>
<p>
    Radius reduced by $\phi$ on every quarter turn.  One full turn takes T, so a quarter turn is $\frac{T}{4}$.  If we consider a quarter rotation starting at time $t_0$ and going to time $t_0 + \frac{T}{4}$ that should go down by $\phi$.  So  
    $$
    \frac{e^{-t_0/\tau}}{e^{-(t_0 + \frac{T}{4})/\tau}}=\phi
    $$
    $$
    e^{T/4\tau} = \phi
    $$
    $$
    \frac{T}{4\tau} = \ln{\phi}
    $$
    $$
    \tau = \frac{T}{4\ln{\phi}}
    $$
    
</p>
<p class="bigeq">
$$
(X,Y) = (e^{-t/\tau}\cos{\frac{2\pi t}{T}},e^{-t/\tau}\sin{\frac{2\pi t}{T}})
$$
</p>
<p></p>

$$
X = g(x - x_0) - X_0
$$
$$
Y = f(X)
$$
    
$$
y = y_0 - G(Y - Y_0)
$$


<p>
    X and Y, and $X_0$ and $Y_0$ in physical units of the System. x and y and x0 and y0 in pixels.  G is in pixels per Y unit and g is in X units per pixel. 
</p>


</equation>
-->
	<path d = "M53 202 L56.65206880161958 190.81335729731407 L61.30562067802671 180.22038840222035 L66.64041380820066 170.26202272250794 L72.59016217925378 160.97317339803186 L79.08768640446762 152.38279155776075 L86.06539034888499 144.51395665387142 L93.45571824520093 137.38400060696034 L101.19159024909014 131.00466338309087 L109.20681461827687 125.38227753072813 L117.43647493561934 120.51797913327341 L125.8172910316839 116.40794258041437 L134.28795249523165 113.04363652827186 L142.78942388933274 110.412098403668 L151.26522101514385 108.49622481099149 L159.66165778351518 107.27507522024436 L167.92806346540615 106.72418635100082 L176.0169702945623 106.8158947182103 L183.8842715891193 107.51966487100167 L191.48935074192798 108.80242093381712 L198.79518160172708 110.62887914921382 L205.76840092821172 112.96187922238396 L212.3793537530454 115.76271237770912 L218.60211261553408 118.99144415632263 L224.4144717657099 122.60723010954696 L229.79791753874616 126.56862267504613 L234.73757620282476 130.8338676594513 L239.22214066776843 135.3611888919625 L243.2437775139893 140.10905975691068 L246.79801586072705 145.0364604584264 L249.88361963936973 150.1031200161874 L252.50244487214482 155.2697421367263 L254.65928357899955 160.49821424905485 L256.3616959464566 165.7517991355115 L257.6198323921143 170.99530872795796 L258.44624714776563 176.1952597749623 L258.85570496340733 181.32001121670865 L258.864982504298 186.33988323043033 L258.49266597433063 191.22725802957927 L257.7589464519819 195.95666261421866 L256.68541437065545 200.50483377779128 L255.2948545140669 204.85076577609098 L253.61104283011363 208.97574115762194 L251.65854629416654 212.86334534030246 L249.46252697561988 216.4994655974611 L247.048551380555 219.8722751861353 L244.44240605922093 222.9722034127339 L241.66992038040127 225.79189248513936 L238.756797286297 228.32614204632114 L235.72845275196994 230.57184232259246 L232.60986458329003 232.5278968498848 L229.4254310973241 234.19513576401104 L226.19884013976676 235.5762206560477 L222.95294880590006 236.67554200193513 L219.70967414518205 237.4991101764614 L216.4898950453948 238.0544410562675 L213.31336541076195 238.35043720473953 L210.19863866998466 238.39726561399763 L207.16300357510582 238.20623295604724 L204.2224311808256 237.78965926692385 L201.39153282663636 237.16075095476478 L198.68352888117747 236.33347398560545 L196.1102279497348 235.32242805976534 L193.68201619199192 234.1427225473986 L191.4078563481197 232.809854904582 L189.29529602715232 231.33959224163928 L187.35048477240852 229.7478566636914 L185.57819938449205 228.0506149501087 L183.9818769531405 226.26377308504078 L182.56365502484445 224.40307609592492 L181.32441831365426 222.4840136012134 L180.26385134783607 220.52173141289666 L179.38049643490018 218.53094948409083 L178.6718163218607 216.5258864373488 L178.13426092621512 214.5201908557607 L177.76333751587575 212.5268794666366 L177.55368372292094 210.55828229688652 L177.49914278634782 208.62599483038244 L177.59284043275596 206.74083715083682 L177.8272628208263 204.91282000926785 L178.19433499532275 203.1511177131214 L178.68549931887134 201.46404769474492 L179.29179337469196 199.8590565802886 L180.0039268604983 198.3427125463555 L180.81235702267023 196.92070372091604 L181.70736221026363 195.5978423572115 L182.67911316018723 194.37807448462843 L183.7177416576771 193.2644947188555 L184.81340624977696 192.2593658950284 L185.9563547236308 191.36414317200953 L187.1369830957728 190.57950224339112 L188.3458908930153 189.905371281199 L189.57393253977463 189.34096623153113 L190.8122647005095 188.88482907740328 L192.05238945919257 188.53486868278605 L193.2861932501915 188.28840383309085 L194.50598148643678 188.1422080910669 L195.70450886113596 188.09255609307002 L196.8750053284147 188.13527091881318 L198.01119779599446 188.2657721778513 L199.10732758923893 188.47912446803622 L200.1581637705178 188.77008587483178 L201.15901242076302 189.13315619554345 L202.10572201125802 189.56262458901867 L202.9946850130507 190.0526163690476 L203.82283590887639 190.5971386783671 L204.5876457880871 191.1901247996779 L205.2871137188 191.8254768802614 L205.9197551032971 192.4971068674632 L206.48458723264054 193.1989754733436 L206.98111226454265 193.92512900802092 L207.4092978547744 194.66973394251315 L207.76955567686056 195.42710908307043 L208.06271806754478 196.19175525995482 L208.2900130365791 196.95838245424122 L208.45303787886778 197.72193430636233 L208.55373162495465 198.4776099696974 L208.59434656236957 199.22088329140564 L208.57741905553107 199.9475193208407 L208.50573988583588 200.65358816317197 L208.38232432634527 201.33547621220703 L208.21038215720668 201.98989481179618 L207.99328781872777 202.61388640954866 L207.73455088895363 203.20482827985998 L207.43778706178995 203.7604339053995 L207.1066897902716 204.27875211721658 L206.74500274759973 204.7581641034694 L206.35649324616324 205.1973784054571 L205.94492674202476 205.5954240271369 L205.51404253938227 205.95164179064577 L205.06753079641243 206.26567407552758 L204.60901092074883 206.53745308341732 L204.14201142973988 206.7671877728763 L203.66995133764306 206.95534961094188 L203.19612311913036 207.10265728878787 L202.7236772859715 207.21006054873135 L202.25560860159817 207.2787232687158 L201.79474394649623 207.31000594839944 L201.3437318360797 207.30544773813622 L200.90503358192345 207.26674814851444 L200.4809160770155 207.1957485737713 L200.0734461760751 207.09441375739496 L199.68448663300313 206.96481332262178 L199.3156935492174 206.80910348439843 L198.9685152789948 206.62950905277202 L198.64419273102095 206.42830583066052 L198.3437609991378 206.2078035016053 L198.06805224979712 205.9703290954806 L197.8176997889665 205.71821111229178 L197.5931432271983 205.45376437620172 L197.3946346582476 205.17927568383234 L197.22224576400578 204.89699030276284 L197.0758757565827 204.60909936803483 L196.95526006710386 204.31772821643156 L196.85997969016847 204.02492569037378 L196.78947109291053 203.73265443551304 L196.74303659819296 203.44278220854554 L196.71985515260894 203.15707420445955 L196.71899339163622 202.87718640539882 L196.73941691644933 202.60465994660711 L196.7800016995081 202.34091648854516 L196.83954553906926 202.0872545782639 L196.91677948617092 201.84484697750082 L197.01037917138103 201.61473892975644 L197.11897596263748 201.39784733382012 L197.24116788980055 201.19496078686123 L197.37553027605 201.00674045628972 L197.5206260209449 200.83372173612403 L197.67501548479302 200.67631664058717 L197.8372659289032 200.53481688508154 L198.00596047128658 200.40939760256373 L198.1797065223947 200.30012164164935 L198.35714367049877 200.2069443915111 L198.53695099129473 200.12971907778208 L198.71785376123105 200.0682024732263 L198.89862955887253 200.02206096687252 L199.0781137433068 199.99087693561034 L199.25520430314663 199.97415536289805 L199.4288660740565 199.97133065021075 L199.59813432691743 199.9817735681426 L199.76211773272146 200.00479829564668 L199.92000071403808 200.03966949772482 L200.07104519640927 200.085609393947 L200.21459177629245 200.14180477245714 L200.35006032517464 200.2074139065887 L200.4769500522175 200.28157333384135 L200.59483905025706 200.36340445973704 L200.7033833521709 200.45201995195345 L200.80231552653714 200.54652989310435 L200.89144284314565 200.6460476635716 L200.97064504028182 200.74969552887464 L201.03987172679646 200.8566099091654 L201.09913945280013 200.96594631153886 L201.1485284833907 201.07688390893236 L201.1881793101412 201.188629752432 L201.21828893515655 201.30042260679147 L201.23910696235694 201.4115364018842 L201.2509315302802 201.52128329563539 L201.25410512012328 201.62901634670385 L201.24901027197964 201.73413179779124 L201.2360652412885 201.8360709729363 L201.2157196264068 201.93432179449525 L201.1884499969622 202.02841992770593 L201.15475555125695 202.1179495627775 L201.11515382948963 202.20254384633057 L201.07017650795012 202.28188497573223 L201.02036529764925 202.35570397142325 L200.9662679690738 202.4237801437149 L200.90843452293055 202.4859402717442 L200.84741352487228 202.54205751331597 L200.78374862029838 202.59205006523004 L200.71797524340667 202.635879594394 L200.65061753275523 202.67354946056074 L200.58218546368386 202.70510275190807 L200.5131722060591 202.73062015490086 L200.44405171395292 202.7502176799504 L200.37527655205537 202.7640442643166 L200.30727596186514 202.77227927349512 L200.24045416900756 202.7751299219977 L200.17518893140476 202.7728286339829 L200.11183032647713 202.76563036363058 L200.05069977409084 202.75380989448618 L199.992089290594 202.73765913624266 L199.93626096800418 202.71748443658282 L199.88344667122837 202.69360392478717 L199.8338479451175 202.66634490282715 L199.78763612217926 202.63604129862478 L199.7449526209032 202.60303119507287 L199.70590942388387 202.56765444728524 L199.67058972426915 202.5302503993951 L199.63904872850458 202.49115571104727 L199.61131460289303 202.45070230254683 L199.58738955113986 202.40921542644108 L199.5672510098028 202.36701187213046 L199.55085294841217 202.32439830893568 L199.53812726096572 202.28166977189835 L199.52898523553057 202.2391082934696 L199.52331908879646 202.19698168314886 L199.52100355261794 202.15554245608124 L199.5218974998498 202.11502691061042 L199.52584559711673 202.07565435381966 L199.5326799725612 202.03762647317978 L199.54222188707178 202.00112685156566 L199.55428339800886 201.96632062210062 L199.56866900500395 201.93335425854931 L199.5851772680113 201.9023554962996 L199.6036023884273 201.87343337836106 L199.62373574476072 201.84667842025664 L199.64536737502752 201.8221628872003 L199.66828739875388 201.7999411765339 L199.69228737219353 201.78005029804208 L199.71716157109634 201.762510444475 L199.74270819609717 201.74732564438114 L199.7687304965257 201.7344844891876 L199.7950378091616 201.7239609263608 L199.82144650917164 201.7157151104324 L199.84778087116334 201.70969430368365 L199.87387383896785 201.7058338183426 L199.89956770342005 201.70405799225853 L199.92471468803421 201.70428119017635 L199.94917744307418 201.70640882293483 L199.97282944908747 201.71033837715345 L199.99555533150863 201.71596044825247 L200.0172510884386 201.72315976996128 L200.03782423417053 201.7318162338129 L200.0571938614586 201.74180589248942 L200.0752906259127 201.7530019412741 L200.09205665624873 201.76527567227544 L200.10744539443002 201.7784973965126 L200.12142137000203 201.79253732938943 L200.13395991314775 201.8072664355293 L200.14504681117688 201.82255722939354 L200.1546779133092 201.83828452856002 L200.16285868871984 201.85432615698977 L200.16960374288655 201.87056359605816 L200.17493629731328 201.8868825815692 L200.17888763770546 201.90317364540368 L200.18149653564018 201.91933260087404 L200.18280864871107 201.9352609712661 L200.18287590403503 201.95086636143958 L200.18175586988784 201.96606277273503 L200.17951112009072 201.98077086178907 L200.17620859560134 201.9949181441961 L200.17191896757308 202.00843914426733 L200.16671600593887 202.02127549242914 L200.16067595735018 202.03337597206968 L200.153876936064 202.04469651788597 L200.14639833111755 202.05520016800205 L200.1383202328718 202.06485697232185 L200.129722881733 202.07364385975006 L200.12068614159 202.08154446705677 L200.11128900022428 202.08854893228164 L200.10160909867105 202.0946536556671 L200.09172229123047 202.0998610311821 L200.08170223754908 202.10417915174494 L200.07162002791904 202.1076214912792 L200.06154384267347 202.11020656674123 L200.05153864629472 202.11195758324098 L200.0416659165986 202.11290206534133 L200.0319834091144 202.11307147756781 L200.0225449565456 202.11250083708867 L200.01340030297615 202.11122832143772 L200.0045949722759 202.10929487405144 L199.99617016996487 202.1067438102762 L199.9881627176118 202.10362042637476 L199.98060501867656 202.09997161392442 L199.97352505455208 202.09584548185197 L199.96694640942448 202.09129098819741 L199.9608883224475 202.08635758353734 L199.95536576562083 202.08109486783346 L199.95038954567045 202.07555226230318 L199.94596642815264 202.06977869773638 L199.94209928194275 202.0638223205108 L199.93878724222347 202.05773021738455 L199.93602589005488 202.05154815997324 L199.93380744659117 202.04532036964895 L199.93212098000393 202.03908930343155 L199.93095262318005 202.03289546128107 L199.93028580028258 202.02677721504145 L199.9301014602945 202.02077065913463 L199.93037831570794 202.0149094829581 L199.93109308457332 202.00922486480124 L199.9322207341848 202.0037453869643 L199.9337347247476 201.99849697164194 L199.9356072514507 201.99350283701907 L199.93780948345096 201.98878347292117 L199.94031179836605 201.98435663526595 L199.9430840109665 201.9802373584761 L199.94609559485622 201.97643798493573 L199.94931589603337 201.97296821050588 L199.9527143373264 201.9698351450559 L199.95626061280714 201.9670433869193 L199.9599248713888 201.96459511014285 L199.96367788892428 201.9624901633681 L199.9674912282257 201.9607261791631 L199.97133738653267 201.95929869260905 L199.9751899300582 201.95820126794356 L199.97902361534418 201.9574256320639 L199.9828144972542 201.95696181370744 L199.98654002352814 201.95679828714262 L199.99017911591153 201.95692211923028 L199.99371223796035 201.95731911874577 L199.997121449703 201.95797398688995 L200.0003904494178 201.95887046795897 L200.00350460285597 201.95999149918953 L200.0064509603057 201.96131935884824 L200.00921826195352 201.96283581168765 L200.0117969320534 201.96452225094995 L200.01417906246283 201.96635983615957 L200.01635838614814 201.96832962600885 L200.0183302412977 201.9704127057048 L200.02009152671312 201.9725903082104 L200.02164064917397 201.97484392888015 L200.02297746349024 201.97715543305497 L200.02410320597204 201.97950715624816 L200.02502042205361 201.98188199661868 L200.02573288881302 201.98426349949256 L200.0262455331267 201.9866359337553 L200.02656434619252 201.98898435999996 L200.026696295144 201.99129469037294 L200.0266492324633 201.99355374011793 L200.02643180388245 201.9957492708699 L200.02605335543933 201.99787002580416 L200.02552384032978 201.99990575679163 L200.02485372616852 202.0018472437578 L200.02405390324014 202.0036863064823 L200.0231355942883 202.00541580911582 L200.02211026635553 202.00702965772385 L200.02098954514895 202.0085227911984 L200.01978513236878 202.0098911659054 L200.01850872639665 202.01113173445896 L200.01717194670107 202.01224241903407 L200.01578626227618 202.01322207964438 L200.01436292438905 202.01407047782558 L200.0129129038707 202.01478823617342 L200.01144683314456 202.0153767941912 L200.00997495314775 202.01583836090558 L200.0085070652601 202.01617586470653 L200.00705248831946 202.01639290086734 L200.0056200207645 202.01649367719116 L200.00421790791083 202.01648295822397 L200.00285381433372 202.01636600846214 L200.00153480129802 202.01614853496875 L200.0002673091461 202.01583662979797 L199.99905714452717 202.01543671260936 L199.99790947232492 202.0149554738347 L199.99682881211675 202.0143998187397 L199.99581903897646 202.01377681270083 L199.99488338841303 202.0130936279956 L199.9940244652202 202.0123574923795 L199.99324425599818 202.01157563970003 L199.9925441450943 202.01075526277234 L199.99192493370117 202.00990346871626 L199.9913868618405 202.00902723692937 L199.99092963295664 202.00813337984516 L199.99055244083843 202.00722850660105 L199.9902539985868 202.00631898971537 L199.9900325693453 202.00541093484932 L199.98988599851197 202.00451015370595 L199.98981174715576 202.0036221400949 L199.9898069263642 202.00275204917142 L199.9898683322568 202.001904679835 L199.98999248140683 202.0010844602554 L199.99017564642233 202.00029543647344 L199.99041389144932 201.99954126400712 L199.99070310737028 201.9988252023781 L199.99103904648473 201.99815011245664 L199.99141735647106 201.99751845651224 L199.9918336134434 201.9969323008426 L199.99228335393167 201.99639332084396 L199.99276210562778 201.99590280837683 L199.99326541675643 201.99546168127145 L199.9937888839446 201.99507049481264 L199.9943281784787 201.99472945503675 L199.99487907085532 201.99443843367087 L199.99543745354518 201.99419698454028 L199.99599936190694 201.99400436127016 L199.9965609932011 201.9938595361062 L199.9971187236697 201.99376121968032 L199.9976691236613 201.99370788154934 L199.99820897079422 201.9936977713377 L199.99873526116437 201.99372894031924 L199.99924521861627 201.99379926327757 L199.9997363021072 201.99390646049073 L200.00020621120612 201.99404811969208 L200.00065288977785 201.99422171786594 L200.00107452791434 201.99442464274495 L200.0014695621811 201.99465421388362 L200.00183667425645 201.9949077031915 L200.00217478804697 201.9951823548181 L200.00248306536872 201.99547540429086 L200.00276090028947 201.99578409681754 L200.00300791223046 201.99610570467294 L200.00322393793044 201.9964375436001 L200.00340902237696 201.99677698816623 L200.00356340881186 201.99712148602168 L200.0036875279185 201.99746857102193 L200.00378198629932 201.99781587517927 L200.00384755435113 201.99816113942276 L200.00388515364455 201.9985022231509 L200.00389584391286 201.99883711257246 L200.0038808097524 201.9991639278376 L200.00384134713403 201.9994809289691 L200.00377884982217 201.9997865206118 L200.00369479579314 202.00007925562423 L200.00359073374116 202.00035783754316 L200.00346826975522 202.00062112195752 L200.00332905424509 202.00086811683397 L200.00317476918937 202.0010979818405 L200.0030071157736 202.00131002671915 L200.00282780247971 202.0015037087631 L200.00263853368332 202.00167862945543 L200.00244099880894 202.00183453033142 L200.00223686208722 202.0019712881262 L200.00202775295276 202.00208890927348 L200.00181525711443 202.00218752382054 L200.001600908325 202.00226737882645 L200.0013861808707 202.00232883131017 L200.00117248279582 202.00237234081524 L200.0009611498718 202.00239846165715 L200.0007534403154 202.00240783491793 L200.0005505302552 202.00240118025246 L200.0003535099408 202.0023792875672 L200.00016338068468 202.00234300863232 L199.99998105252268 202.00229324868363 L199.99980734257417 202.0022309580698 L199.99964297408061 202.00215712399677 L199.9994885760965 202.00207276241792 L199.99934468380488 202.00197891011624 L199.99921173942573 202.00187661702023 L199.9990900936842 202.0017669387931 L199.99898000780266 202.0016509297299 L199.9988816559797 202.00152963599433 L199.99879512831683 202.0014040892238 L199.99872043415385 202.001275300526 L199.99865750577106 202.0011442548885 L199.99860620241864 202.00101190601774 L199.99856631463066 202.00087917162122 L199.99853756878326 202.00074692914245 L199.99851963185586 202.00061601195554 L199.9985121163551 202.00048720602217 L199.9985145853621 202.00036124701168 L199.99852655766446 202.00023881788078 L199.9985475129361 202.00012054690734 L199.99857689692908 202.00000700617 L199.99861412664276 201.9998987104624 L199.99865859543888 201.99979611662891 L199.99870967807078 201.9996996233068 L199.9987667355992 201.9996095710569 L199.9988291201675 201.99952624286465 L199.99889617961207 201.99944986499023 L199.99896726188607 201.9993806081468 L199.9990417192759 201.99931858898307 L199.99911891239358 201.9992638718473 L199.9991982139288 201.99921647080743 L199.99927901214815 201.9991763519028 L199.99936071413052 201.99914343560198 L199.9994427487297 201.99911759944106 L199.99952456925817 201.99909868081704 L199.99960565588717 201.99908647991106 L199.9996855177614 201.99908076271623 L199.99976369482744 201.99908126414593 L199.99983975937718 201.9990876911984 L199.9999133173105 201.99909972615467 L199.99998400912102 201.9991170297876 L200.00005151061217 201.99913924456055 L200.00011553335108 201.9991659977956 L200.00017582486993 201.9991969047923 L200.0002321686249 201.99923157187882 L200.0002843837245 201.99926959937903 L200.0003323244396 201.99931058448033 L200.0003758795087 201.99935412398793 L200.00041497125247 201.9993998169536 L200.00044955451176 201.99944726716714 L200.000479615425 201.9994960855011 L200.00050517005948 201.99954589210043 L200.00052626291279 201.9995963184102 L200.00054296530013 201.99964700903533 L200.0005553736428 201.9996976234289 L200.00056360767422 201.99974783740518 L200.00056780857818 201.99979734447658 L200.00056813707542 201.99984585701358 L200.00056477147245 201.99989310722844 L200.00055790568769 201.9999388479847 L200.00054774726823 201.99998285343514 L200.0005345154111 202.00002491949226 L200.00051843900087 202.0000648641359 L200.00049975467647 202.00010252756366 L200.0004787049373 202.00013777219033 L200.0004555363002 202.00017048250362 L200.0004304975158 202.00020056478374 L200.00040383785387 202.00022794669465 L200.000375805465 202.00025257675622 L200.00034664582597 202.00027442370583 L200.00031660027477 202.00029347575858 L200.00028590464078 202.00030973977624 L200.00025478797437 202.0003232403539 L200.00022347137968 202.00033401883445 L200.00019216695313 202.00034213226047 L200.00016107682976 202.00034765227343 L200.00013039233855 202.00035066396947 L200.00010029326702 202.0003512647216 L200.00007094723486 202.00034956297696 L200.00004250917547 202.0003456770389 L200.0000151209239 202.00033973384132 L199.99998891090874 202.00033186772498 " stroke = "blue" stroke-width = "4" fill = "none" /></svg>