<svg width="500" height="500" viewbox = "0 0 500 500"  xmlns="http://www.w3.org/2000/svg">

<!--
<json>
{
    "imgurl": "",
    "imgw": 2,
    "imgleft": -1,
    "imgtop": -1,
    "imgangle": 0,
    "svgwidth": 500,
    "svgheight": 500,
    "unit": 100,
    "x0": 684,
    "y0": 399,
    "x0rel": 0,
    "y0rel": 0,
    "glyph": "0336,0331,0331,0331,0221,0330,0330,0330,0330,0321,0223,",
    "table": []
}
</json>
-->
<path    d = "M250,350 C268,332 285,365 321,329" fill = "none" stroke-width = "6" stroke = "red" /><path    d = "M321,329 C285,365 318,382 300,400" fill = "none" stroke-width = "6" stroke = "red" /><path    d = "M300,400 C318,418 285,435 321,471" fill = "none" stroke-width = "6" stroke = "red" /><path    d = "M321,471 C285,435 268,468 250,450" fill = "none" stroke-width = "6" stroke = "red" /><path    d = "M250,450 C232,468 215,435 179,471" fill = "none" stroke-width = "6" stroke = "red" /><path    d = "M179,471 C215,435 182,418 200,400" fill = "none" stroke-width = "6" stroke = "red" /><path    d = "M200,400 C182,382 215,365 179,329" fill = "none" stroke-width = "6" stroke = "red" /><path    d = "M179,329 C215,365 232,332 250,350" fill = "none" stroke-width = "6" stroke = "red" />    <circle cx="250" cy = "400" r = "50" stroke = "red" stroke-width = "6" fill = "none" />
	<path d = "M285 365 L215 365 L215 435 L285 435 L285 365 Z" stroke = "red" stroke-width = "6" fill = "none" />	<path d = "M250 390 L268 390 L259 405 L250 420 L241 405 L232 390 L250 390 Z" stroke = "red" stroke-width = "6" fill = "none" /><path    d = "M225,157 C225,132 250,150 250,125" fill = "none" stroke-width = "6" stroke = "orange" /><path    d = "M275,157 C275,132 250,150 250,125" fill = "none" stroke-width = "6" stroke = "orange" /><path    d = "M275,157 C297,144 293,175 315,162" fill = "none" stroke-width = "6" stroke = "orange" /><path    d = "M300,200 C322,187 293,175 315,162" fill = "none" stroke-width = "6" stroke = "orange" /><path    d = "M300,200 C322,212 293,225 315,237" fill = "none" stroke-width = "6" stroke = "orange" /><path    d = "M275,243 C297,256 293,225 315,237" fill = "none" stroke-width = "6" stroke = "orange" /><path    d = "M275,243 C275,268 250,250 250,275" fill = "none" stroke-width = "6" stroke = "orange" /><path    d = "M225,243 C225,268 250,250 250,275" fill = "none" stroke-width = "6" stroke = "orange" /><path    d = "M225,243 C203,256 207,225 185,238" fill = "none" stroke-width = "6" stroke = "orange" /><path    d = "M200,200 C178,213 207,225 185,238" fill = "none" stroke-width = "6" stroke = "orange" /><path    d = "M200,200 C178,188 207,175 185,163" fill = "none" stroke-width = "6" stroke = "orange" /><path    d = "M225,157 C203,144 207,175 185,163" fill = "none" stroke-width = "6" stroke = "orange" />    <circle cx="250" cy = "200" r = "49.99999999999999" stroke = "orange" stroke-width = "6" fill = "none" />
    <circle cx="250" cy = "200" r = "39.99999999999999" stroke = "orange" stroke-width = "6" fill = "none" />
    <circle cx="250" cy = "187" r = "26.66666666666666" stroke = "orange" stroke-width = "6" fill = "none" />
</svg>