<svg width="500" height="500" viewbox = "0 0 500 500"  xmlns="http://www.w3.org/2000/svg">

<!--
<json>
{
    "imgurl": "",
    "imgw": 2,
    "imgleft": -1,
    "imgtop": -1,
    "imgangle": 0,
    "svgwidth": 500,
    "svgheight": 500,
    "unit": 100,
    "x0": 684,
    "y0": 399,
    "x0rel": 0,
    "y0rel": 0,
    "glyph": "0327,0236,",
    "table": []
}
</json>
-->
  <path d="M336.60254037844385 100           A100 100 0 0 1 250.00000000000003 250" fill = "none" stroke = "purple" stroke-width = "4" />
  <path d="M250.00000000000003 250           A100 100 0 0 1 163.3974596215561 100.00000000000006" fill = "none" stroke = "purple" stroke-width = "4" />
  <path d="M400.00000000000006 163.39745962155598           A100 100 0 0 1 250.00000000000014 250" fill = "none" stroke = "purple" stroke-width = "4" />
  <path d="M250.00000000000014 250           A100 100 0 0 1 250.00000000000006 76.79491924311222" fill = "none" stroke = "purple" stroke-width = "4" />
  <path d="M423.2050807568877 250           A100 100 0 0 1 249.99999999999994 249.99999999999977" fill = "none" stroke = "purple" stroke-width = "4" />
  <path d="M249.99999999999994 249.99999999999977           A100 100 0 0 1 336.602540378444 99.99999999999994" fill = "none" stroke = "purple" stroke-width = "4" />
  <path d="M400.0000000000002 336.6025403784436           A100 100 0 0 1 250.00000000000006 250.0000000000003" fill = "none" stroke = "purple" stroke-width = "4" />
  <path d="M250.00000000000006 250.0000000000003           A100 100 0 0 1 399.99999999999943 163.39745962155564" fill = "none" stroke = "purple" stroke-width = "4" />
  <path d="M336.6025403784453 399.9999999999999           A100 100 0 0 1 249.9999999999999 250.00000000000097" fill = "none" stroke = "purple" stroke-width = "4" />
  <path d="M249.9999999999999 250.00000000000097           A100 100 0 0 1 423.20508075688747 249.9999999999986" fill = "none" stroke = "purple" stroke-width = "4" />
  <path d="M250.00000000000267 423.20508075688906           A100 100 0 0 1 249.99999999999937 250.00000000000145" fill = "none" stroke = "purple" stroke-width = "4" />
  <path d="M249.99999999999937 250.00000000000145           A100 100 0 0 1 400.00000000000114 336.60254037844203" fill = "none" stroke = "purple" stroke-width = "4" />
  <path d="M163.39745962155843 400.0000000000036           A100 100 0 0 1 249.9999999999987 250.00000000000165" fill = "none" stroke = "purple" stroke-width = "4" />
  <path d="M249.9999999999987 250.00000000000165           A100 100 0 0 1 336.6025403784464 399.9999999999993" fill = "none" stroke = "purple" stroke-width = "4" />
  <path d="M100.00000000000054 336.6025403784495           A100 100 0 0 1 249.999999999998 250.00000000000148" fill = "none" stroke = "purple" stroke-width = "4" />
  <path d="M249.999999999998 250.00000000000148           A100 100 0 0 1 250.00000000000327 423.20508075688906" fill = "none" stroke = "purple" stroke-width = "4" />
  <path d="M76.79491924310992 250.00000000000657           A100 100 0 0 1 249.9999999999975 250.00000000000097" fill = "none" stroke = "purple" stroke-width = "4" />
  <path d="M249.9999999999975 250.00000000000097           A100 100 0 0 1 163.39745962155894 400.00000000000387" fill = "none" stroke = "purple" stroke-width = "4" />
  <path d="M99.99999999999426 163.397459621562           A100 100 0 0 1 249.99999999999733 250.00000000000028" fill = "none" stroke = "purple" stroke-width = "4" />
  <path d="M249.99999999999733 250.00000000000028           A100 100 0 0 1 100.00000000000021 336.6025403784496" fill = "none" stroke = "purple" stroke-width = "4" />
  <path d="M163.39745962155035 100.00000000000347           A100 100 0 0 1 249.99999999999642 250.00000000000287" fill = "none" stroke = "purple" stroke-width = "4" />
  <path d="M249.99999999999642 250.00000000000287           A100 100 0 0 1 76.79491924310813 250.00000000000304" fill = "none" stroke = "purple" stroke-width = "4" />
  <path d="M249.99999999999847 76.79491924311696           A100 100 0 0 1 249.99999999999403 250.0000000000053" fill = "none" stroke = "purple" stroke-width = "4" />
  <path d="M249.99999999999403 250.0000000000053           A100 100 0 0 1 99.99999999999676 163.39745962155553" fill = "none" stroke = "purple" stroke-width = "4" />
  <path d="M336.6025403784445 100.00000000001114           A100 100 0 0 1 249.99999999999073 250.00000000000614" fill = "none" stroke = "purple" stroke-width = "4" />
  <path d="M249.99999999999073 250.00000000000614           A100 100 0 0 1 163.3974596215579 99.99999999999909" fill = "none" stroke = "purple" stroke-width = "4" />
</svg>