<svg width="500" height="800" viewbox = "0 0 500 800"  xmlns="http://www.w3.org/2000/svg">

<!--
<json>
{
    "imgurl": "",
    "imgw": 2,
    "imgleft": -1,
    "imgtop": -1,
    "imgangle": 0,
    "svgwidth": 500,
    "svgheight": 800,
    "unit": 51.31581182307065,
    "x0": 684,
    "y0": 399,
    "x0rel": 0,
    "y0rel": 0,
    "glyph": "0336,0331,0331,0331,0331,0331,0331,0331,0331,0331,0331,0331,0331,0221,0330,0330,0330,0330,0321,0223,0330,0330,0330,0330,0322,0225,0323,0330,0330,0330,0330,0227,0325,0330,0330,0330,0330,0231,0330,0330,0330,0326,0232,0330,0330,0330,0327,0330,0236,",
    "table": []
}
</json>
-->
<path    d = "M250,682 C259,673 268,690 286,672" fill = "none" stroke-width = "4" stroke = "red" /><path    d = "M286,672 C268,690 285,699 276,708" fill = "none" stroke-width = "4" stroke = "red" /><path    d = "M276,708 C285,717 268,726 286,744" fill = "none" stroke-width = "4" stroke = "red" /><path    d = "M286,744 C268,726 259,743 250,734" fill = "none" stroke-width = "4" stroke = "red" /><path    d = "M250,734 C241,743 232,726 214,744" fill = "none" stroke-width = "4" stroke = "red" /><path    d = "M214,744 C232,726 215,717 224,708" fill = "none" stroke-width = "4" stroke = "red" /><path    d = "M224,708 C215,699 232,690 214,672" fill = "none" stroke-width = "4" stroke = "red" /><path    d = "M214,672 C232,690 241,673 250,682" fill = "none" stroke-width = "4" stroke = "red" />    <circle cx="250" cy = "708" r = "25.657905911535327" stroke = "red" stroke-width = "4" fill = "none" />
	<path d = "M268 690 L232 690 L232 726 L268 726 L268 690 Z" stroke = "red" stroke-width = "4" fill = "none" />	<path d = "M250 703 L259 703 L255 711 L250 718 L245 711 L241 703 L250 703 Z" stroke = "red" stroke-width = "4" fill = "none" /><path    d = "M237,583 C237,570 250,580 250,567" fill = "none" stroke-width = "4" stroke = "orange" /><path    d = "M263,583 C263,570 250,580 250,567" fill = "none" stroke-width = "4" stroke = "orange" /><path    d = "M263,583 C274,577 272,592 283,586" fill = "none" stroke-width = "4" stroke = "orange" /><path    d = "M276,605 C287,599 272,592 283,586" fill = "none" stroke-width = "4" stroke = "orange" /><path    d = "M276,605 C287,612 272,618 283,625" fill = "none" stroke-width = "4" stroke = "orange" /><path    d = "M263,627 C274,634 272,618 283,625" fill = "none" stroke-width = "4" stroke = "orange" /><path    d = "M263,627 C263,640 250,631 250,644" fill = "none" stroke-width = "4" stroke = "orange" /><path    d = "M237,627 C237,640 250,631 250,644" fill = "none" stroke-width = "4" stroke = "orange" /><path    d = "M237,627 C226,634 228,618 217,625" fill = "none" stroke-width = "4" stroke = "orange" /><path    d = "M224,605 C213,612 228,618 217,625" fill = "none" stroke-width = "4" stroke = "orange" /><path    d = "M224,605 C213,599 228,592 217,586" fill = "none" stroke-width = "4" stroke = "orange" /><path    d = "M237,583 C226,577 228,592 217,586" fill = "none" stroke-width = "4" stroke = "orange" />    <circle cx="250" cy = "605" r = "25.657905911535327" stroke = "orange" stroke-width = "4" fill = "none" />
    <circle cx="250" cy = "605" r = "20.52632472922826" stroke = "orange" stroke-width = "4" fill = "none" />
    <circle cx="250" cy = "598" r = "13.684216486152174" stroke = "orange" stroke-width = "4" fill = "none" />
<path    d = "M242,478 C242,472 250,477 250,464" fill = "none" stroke-width = "4" stroke = "yellow" /><path    d = "M250,464 C250,477 258,472 258,478" fill = "none" stroke-width = "4" stroke = "yellow" /><path    d = "M258,478 C262,473 265,482 273,471" fill = "none" stroke-width = "4" stroke = "yellow" /><path    d = "M273,471 C265,482 275,482 271,488" fill = "none" stroke-width = "4" stroke = "yellow" /><path    d = "M271,488 C277,486 274,495 287,491" fill = "none" stroke-width = "4" stroke = "yellow" /><path    d = "M287,491 C274,495 282,501 276,503" fill = "none" stroke-width = "4" stroke = "yellow" /><path    d = "M276,503 C282,505 274,511 287,515" fill = "none" stroke-width = "4" stroke = "yellow" /><path    d = "M287,515 C274,511 277,520 271,518" fill = "none" stroke-width = "4" stroke = "yellow" /><path    d = "M271,518 C275,523 265,523 273,534" fill = "none" stroke-width = "4" stroke = "yellow" /><path    d = "M273,534 C265,523 262,532 258,527" fill = "none" stroke-width = "4" stroke = "yellow" /><path    d = "M258,527 C258,533 250,528 250,541" fill = "none" stroke-width = "4" stroke = "yellow" /><path    d = "M250,541 C250,528 242,533 242,527" fill = "none" stroke-width = "4" stroke = "yellow" /><path    d = "M242,527 C238,532 235,523 227,534" fill = "none" stroke-width = "4" stroke = "yellow" /><path    d = "M227,534 C235,523 225,523 229,518" fill = "none" stroke-width = "4" stroke = "yellow" /><path    d = "M229,518 C223,520 226,511 213,515" fill = "none" stroke-width = "4" stroke = "yellow" /><path    d = "M213,515 C226,511 218,505 224,503" fill = "none" stroke-width = "4" stroke = "yellow" /><path    d = "M224,503 C218,501 226,495 213,491" fill = "none" stroke-width = "4" stroke = "yellow" /><path    d = "M213,491 C226,495 223,486 229,488" fill = "none" stroke-width = "4" stroke = "yellow" /><path    d = "M229,488 C225,482 235,482 227,471" fill = "none" stroke-width = "4" stroke = "yellow" /><path    d = "M227,471 C235,482 238,473 242,478" fill = "none" stroke-width = "4" stroke = "yellow" />    <circle cx="250" cy = "503" r = "25.657905911535327" stroke = "yellow" stroke-width = "4" fill = "none" />
	<path d = "M250 528 L272 490 L228 490 L250 528 Z" stroke = "yellow" stroke-width = "4" fill = "none" /><path    d = "M263,378 C264,372 257,375 260,363" fill = "none" stroke-width = "4" stroke = "green" /><path    d = "M260,363 C257,375 252,368 250,374" fill = "none" stroke-width = "4" stroke = "green" /><path    d = "M272,387 C277,383 268,382 277,373" fill = "none" stroke-width = "4" stroke = "green" /><path    d = "M277,373 C268,382 267,373 263,378" fill = "none" stroke-width = "4" stroke = "green" /><path    d = "M276,400 C282,398 275,393 287,390" fill = "none" stroke-width = "4" stroke = "green" /><path    d = "M287,390 C275,393 278,386 272,387" fill = "none" stroke-width = "4" stroke = "green" /><path    d = "M272,413 C278,414 275,407 287,410" fill = "none" stroke-width = "4" stroke = "green" /><path    d = "M287,410 C275,407 282,402 276,400" fill = "none" stroke-width = "4" stroke = "green" /><path    d = "M263,422 C267,427 268,418 277,427" fill = "none" stroke-width = "4" stroke = "green" /><path    d = "M277,427 C268,418 277,417 272,413" fill = "none" stroke-width = "4" stroke = "green" /><path    d = "M250,426 C252,432 257,425 260,437" fill = "none" stroke-width = "4" stroke = "green" /><path    d = "M260,437 C257,425 264,428 263,422" fill = "none" stroke-width = "4" stroke = "green" /><path    d = "M237,422 C236,428 243,425 240,437" fill = "none" stroke-width = "4" stroke = "green" /><path    d = "M240,437 C243,425 248,432 250,426" fill = "none" stroke-width = "4" stroke = "green" /><path    d = "M228,413 C223,417 232,418 223,427" fill = "none" stroke-width = "4" stroke = "green" /><path    d = "M223,427 C232,418 233,427 237,422" fill = "none" stroke-width = "4" stroke = "green" /><path    d = "M224,400 C218,402 225,407 213,410" fill = "none" stroke-width = "4" stroke = "green" /><path    d = "M213,410 C225,407 222,414 228,413" fill = "none" stroke-width = "4" stroke = "green" /><path    d = "M228,387 C222,386 225,393 213,390" fill = "none" stroke-width = "4" stroke = "green" /><path    d = "M213,390 C225,393 218,398 224,400" fill = "none" stroke-width = "4" stroke = "green" /><path    d = "M237,378 C233,373 232,382 223,373" fill = "none" stroke-width = "4" stroke = "green" /><path    d = "M223,373 C232,382 223,383 228,387" fill = "none" stroke-width = "4" stroke = "green" /><path    d = "M250,374 C248,368 243,375 240,363" fill = "none" stroke-width = "4" stroke = "green" /><path    d = "M240,363 C243,375 236,372 237,378" fill = "none" stroke-width = "4" stroke = "green" />    <circle cx="250" cy = "400" r = "25.657905911535327" stroke = "green" stroke-width = "4" fill = "none" />
	<path d = "M250 374 L272 413 L228 413 L250 374 Z" stroke = "green" stroke-width = "4" fill = "none" />	<path d = "M272 387 L250 426 L228 387 L272 387 Z" stroke = "green" stroke-width = "4" fill = "none" /><path    d = "M245,272 C245,269 250,272 250,265" fill = "none" stroke-width = "4" stroke = "#87cefa" /><path    d = "M250,265 C250,272 255,269 255,272" fill = "none" stroke-width = "4" stroke = "#87cefa" /><path    d = "M255,272 C256,269 260,274 262,268" fill = "none" stroke-width = "4" stroke = "#87cefa" /><path    d = "M262,268 C260,274 265,273 264,276" fill = "none" stroke-width = "4" stroke = "#87cefa" /><path    d = "M264,276 C267,274 268,279 273,275" fill = "none" stroke-width = "4" stroke = "#87cefa" /><path    d = "M273,275 C268,279 274,281 271,283" fill = "none" stroke-width = "4" stroke = "#87cefa" /><path    d = "M271,283 C274,282 274,288 280,285" fill = "none" stroke-width = "4" stroke = "#87cefa" /><path    d = "M280,285 C274,288 278,291 275,292" fill = "none" stroke-width = "4" stroke = "#87cefa" /><path    d = "M275,292 C278,292 276,297 282,297" fill = "none" stroke-width = "4" stroke = "#87cefa" /><path    d = "M282,297 C276,297 278,302 275,302" fill = "none" stroke-width = "4" stroke = "#87cefa" /><path    d = "M275,302 C278,304 274,307 280,310" fill = "none" stroke-width = "4" stroke = "#87cefa" /><path    d = "M280,310 C274,307 274,313 271,312" fill = "none" stroke-width = "4" stroke = "#87cefa" /><path    d = "M271,312 C274,314 268,316 273,320" fill = "none" stroke-width = "4" stroke = "#87cefa" /><path    d = "M273,320 C268,316 267,321 264,319" fill = "none" stroke-width = "4" stroke = "#87cefa" /><path    d = "M264,319 C265,322 260,321 262,327" fill = "none" stroke-width = "4" stroke = "#87cefa" /><path    d = "M262,327 C260,321 256,325 255,323" fill = "none" stroke-width = "4" stroke = "#87cefa" /><path    d = "M255,323 C255,326 250,323 250,329" fill = "none" stroke-width = "4" stroke = "#87cefa" /><path    d = "M250,329 C250,323 245,326 245,323" fill = "none" stroke-width = "4" stroke = "#87cefa" /><path    d = "M245,323 C244,325 240,321 238,327" fill = "none" stroke-width = "4" stroke = "#87cefa" /><path    d = "M238,327 C240,321 235,322 236,319" fill = "none" stroke-width = "4" stroke = "#87cefa" /><path    d = "M236,319 C233,321 232,316 227,320" fill = "none" stroke-width = "4" stroke = "#87cefa" /><path    d = "M227,320 C232,316 226,314 229,312" fill = "none" stroke-width = "4" stroke = "#87cefa" /><path    d = "M229,312 C226,313 226,307 220,310" fill = "none" stroke-width = "4" stroke = "#87cefa" /><path    d = "M220,310 C226,307 222,304 225,302" fill = "none" stroke-width = "4" stroke = "#87cefa" /><path    d = "M225,302 C222,302 224,297 218,297" fill = "none" stroke-width = "4" stroke = "#87cefa" /><path    d = "M218,297 C224,297 222,292 225,292" fill = "none" stroke-width = "4" stroke = "#87cefa" /><path    d = "M225,292 C222,291 226,288 220,285" fill = "none" stroke-width = "4" stroke = "#87cefa" /><path    d = "M220,285 C226,288 226,282 229,283" fill = "none" stroke-width = "4" stroke = "#87cefa" /><path    d = "M229,283 C226,281 232,279 227,275" fill = "none" stroke-width = "4" stroke = "#87cefa" /><path    d = "M227,275 C232,279 233,274 236,276" fill = "none" stroke-width = "4" stroke = "#87cefa" /><path    d = "M236,276 C235,273 240,274 238,268" fill = "none" stroke-width = "4" stroke = "#87cefa" /><path    d = "M238,268 C240,274 244,269 245,272" fill = "none" stroke-width = "4" stroke = "#87cefa" />    <circle cx="250" cy = "297" r = "25.657905911535327" stroke = "#87cefa" stroke-width = "4" fill = "none" />
	<path d = "M272 285 L228 285 L250 323 L272 285 Z" stroke = "#87cefa" stroke-width = "4" fill = "none" />    <circle cx="250" cy = "297" r = "12.828952955767663" stroke = "#87cefa" stroke-width = "4" fill = "none" />
    <circle cx="250" cy = "220" r = "25.657905911535327" stroke = "#4b0082" stroke-width = "4" fill = "none" />
<path    d = "M268,202 C281,202 276,220 301,220" fill = "none" stroke-width = "4" stroke = "#4b0082" /><path    d = "M301,220 C276,220 281,239 268,239" fill = "none" stroke-width = "4" stroke = "#4b0082" /><path    d = "M232,239 C219,239 224,220 199,220" fill = "none" stroke-width = "4" stroke = "#4b0082" /><path    d = "M199,220 C224,220 219,202 232,202" fill = "none" stroke-width = "4" stroke = "#4b0082" />	<path d = "M272 208 L228 208 L250 246 L272 208 Z" stroke = "#4b0082" stroke-width = "4" fill = "none" />  <path d="M272.2203983270449 79.27617610577698           A25.657905911535327 25.657905911535327 0 0 1 249.99999999978053 117.76303497310016" fill = "none" stroke = "purple" stroke-width = "4" />
  <path d="M249.99999999978053 117.76303497310016           A25.657905911535327 25.657905911535327 0 0 1 227.7796016724427 79.27617610581937" fill = "none" stroke = "purple" stroke-width = "4" />
  <path d="M288.48685886706295 95.54263664576041           A25.657905911535327 25.657905911535327 0 0 1 249.99999999978377 117.76303497310103" fill = "none" stroke = "purple" stroke-width = "4" />
  <path d="M249.99999999978377 117.76303497310103           A25.657905911535327 25.657905911535327 0 0 1 249.9999999997351 73.32223831850058" fill = "none" stroke = "purple" stroke-width = "4" />
  <path d="M294.4407966543866 117.7630349730515           A25.657905911535327 25.657905911535327 0 0 1 249.99999999978616 117.7630349731034" fill = "none" stroke = "purple" stroke-width = "4" />
  <path d="M249.99999999978616 117.7630349731034           A25.657905911535327 25.657905911535327 0 0 1 272.2203983270397 79.27617610577397" fill = "none" stroke = "purple" stroke-width = "4" />
  <path d="M288.4868588671181 139.98343330035738           A25.657905911535327 25.657905911535327 0 0 1 249.99999999978704 117.76303497310664" fill = "none" stroke = "purple" stroke-width = "4" />
  <path d="M249.99999999978704 117.76303497310664           A25.657905911535327 25.657905911535327 0 0 1 288.48685886705994 95.5426366457552" fill = "none" stroke = "purple" stroke-width = "4" />
  <path d="M272.22039832714046 156.24989384038116           A25.657905911535327 25.657905911535327 0 0 1 249.99999999978616 117.76303497310987" fill = "none" stroke = "purple" stroke-width = "4" />
  <path d="M249.99999999978616 117.76303497310987           A25.657905911535327 25.657905911535327 0 0 1 294.44079665438665 117.76303497304548" fill = "none" stroke = "purple" stroke-width = "4" />
  <path d="M249.99999999985147 162.2038316277127           A25.657905911535327 25.657905911535327 0 0 1 249.99999999978382 117.76303497311223" fill = "none" stroke = "purple" stroke-width = "4" />
  <path d="M249.99999999978382 117.76303497311223           A25.657905911535327 25.657905911535327 0 0 1 288.48685886712116 139.98343330035215" fill = "none" stroke = "purple" stroke-width = "4" />
  <path d="M227.7796016725435 156.24989384045202           A25.657905911535327 25.657905911535327 0 0 1 249.99999999978058 117.7630349731131" fill = "none" stroke = "purple" stroke-width = "4" />
  <path d="M249.99999999978058 117.7630349731131           A25.657905911535327 25.657905911535327 0 0 1 272.2203983271457 156.24989384037812" fill = "none" stroke = "purple" stroke-width = "4" />
  <path d="M211.51314113251394 139.98343330048013           A25.657905911535327 25.657905911535327 0 0 1 249.99999999977734 117.76303497311223" fill = "none" stroke = "purple" stroke-width = "4" />
  <path d="M249.99999999977734 117.76303497311223           A25.657905911535327 25.657905911535327 0 0 1 249.9999999998575 162.2038316277127" fill = "none" stroke = "purple" stroke-width = "4" />
  <path d="M205.55920334517452 117.76303497319324           A25.657905911535327 25.657905911535327 0 0 1 249.99999999977496 117.76303497310985" fill = "none" stroke = "purple" stroke-width = "4" />
  <path d="M249.99999999977496 117.76303497310985           A25.657905911535327 25.657905911535327 0 0 1 227.7796016725487 156.24989384045503" fill = "none" stroke = "purple" stroke-width = "4" />
  <path d="M211.5131411324273 95.54263664588315           A25.657905911535327 25.657905911535327 0 0 1 249.9999999997741 117.76303497310661" fill = "none" stroke = "purple" stroke-width = "4" />
  <path d="M249.9999999997741 117.76303497310661           A25.657905911535327 25.657905911535327 0 0 1 211.51314113251695 139.98343330048533" fill = "none" stroke = "purple" stroke-width = "4" />
  <path d="M227.77960167239343 79.27617610584784           A25.657905911535327 25.657905911535327 0 0 1 249.99999999977496 117.76303497310339" fill = "none" stroke = "purple" stroke-width = "4" />
  <path d="M249.99999999977496 117.76303497310339           A25.657905911535327 25.657905911535327 0 0 1 205.55920334517452 117.76303497319927" fill = "none" stroke = "purple" stroke-width = "4" />
  <path d="M249.9999999996782 73.32223831850055           A25.657905911535327 25.657905911535327 0 0 1 249.99999999977734 117.76303497310101" fill = "none" stroke = "purple" stroke-width = "4" />
  <path d="M249.99999999977734 117.76303497310101           A25.657905911535327 25.657905911535327 0 0 1 211.5131411324243 95.54263664588836" fill = "none" stroke = "purple" stroke-width = "4" />
  <path d="M272.2203983269904 79.27617610574548           A25.657905911535327 25.657905911535327 0 0 1 249.99999999978058 117.76303497310015" fill = "none" stroke = "purple" stroke-width = "4" />
  <path d="M249.99999999978058 117.76303497310015           A25.657905911535327 25.657905911535327 0 0 1 227.77960167238822 79.27617610585085" fill = "none" stroke = "purple" stroke-width = "4" />
</svg>