<svg width="400" height="600" viewbox = "0 0 400 600"  xmlns="http://www.w3.org/2000/svg">

<!--
<json>
{
    "imgurl": "",
    "imgw": 2,
    "imgleft": -3,
    "imgtop": -2,
    "imgangle": 0,
    "svgwidth": 400,
    "svgheight": 600,
    "unit": 82.64462809917356,
    "x0": 676.2418561171551,
    "y0": 429.88302674557343,
    "x0rel": -7.758143882844934,
    "y0rel": 30.88302674557343,
    "glyph": "0331,0336,0336,0321,0362,0245,0245,0245,0245,0245,0245,0245,0245,0245,0245,0245,0245,0245,0245,0354,",
    "table": []
}
</json>
-->
	<path d = "M192 414  M192,414 C192,403 213,398 213,408  M213,408 C213,419 192,408 192,398  M192,398 C192,388 213,383 213,393  M213,393 C213,403 192,393 192,383  M192,383 C192,372 213,367 213,377  M213,377 C213,388 192,377 192,367  M192,367 C192,357 213,352 213,362  M213,362 C213,372 192,362 192,352  M192,352 C192,341 213,336 213,346  M213,346 C213,357 192,346 192,336  M192,336 C192,326 213,321 213,331  M213,331 C213,341 192,331 192,321  M192,321 C192,310 213,305 213,315  M213,315 C213,326 192,315 192,305  M192,305 C192,295 213,290 213,300  M213,300 C213,310 192,300 192,290  M192,290 C192,279 213,274 213,284  M213,284 C213,295 192,284 192,274  M192,274 C192,264 213,259 213,269  M213,269 C213,279 192,269 192,259  M192,259 C192,248 213,243 213,253  M213,253 C213,264 192,253 192,243  M192,243 C192,233 213,228 213,238  M213,238 C213,248 192,238 192,228  M192,228 C192,217 213,212 213,222  M213,222 C213,233 192,222 192,212  M192,212 C192,202 213,197 213,207  M213,207 C213,217 192,207 192,197 Z" stroke = "black" stroke-width = "3" fill = "none" /></svg>