<svg width="600" height="600" viewbox = "0 0 600 600"  xmlns="http://www.w3.org/2000/svg">

<!--
<json>
{
    "imgurl": "",
    "imgw": 2,
    "imgleft": -3,
    "imgtop": -2,
    "imgangle": 0,
    "svgwidth": 600,
    "svgheight": 600,
    "unit": 100,
    "x0": 684,
    "y0": 399,
    "x0rel": 0,
    "y0rel": 0,
    "glyph": "0331,0332,0337,0223,0340,0224,0331,0335,0201,0334,0220,0225,0332,0225,",
    "table": []
}
</json>
-->
    <line x1="200" y1="500" x2="200" y2="400" style="stroke:black;stroke-width:4" />
    <line x1="200" y1="500" x2="250" y2="500" style="stroke:black;stroke-width:4" />
    <line x1="250" y1="500" x2="200" y2="550" style="stroke:black;stroke-width:4" />
    <line x1="200" y1="550" x2="150" y2="500" style="stroke:black;stroke-width:4" />
    <line x1="150" y1="500" x2="200" y2="500" style="stroke:black;stroke-width:4" />
<circle cx="200" cy = "400" r = "4" stroke = "black" stroke-width = "4" fill = "black" />
    <line x1="200" y1="400" x2="200" y2="375" style="stroke:black;stroke-width:4" />
    <circle cx="200" cy = "325" r = "50" stroke = "black" stroke-width = "4" fill = "none" />
    <circle cx="200" cy = "275" r = "50" stroke = "black" stroke-width = "4" fill = "none" />
    <line x1="200" y1="225" x2="200" y2="200" style="stroke:black;stroke-width:4" />
    <line x1="200" y1="400" x2="400" y2="400" style="stroke:black;stroke-width:4" />
	<path d = "M400 400 L400 394 L400 381 L378 369 L400 356 L422 344 L400 331 L378 319 L400 306 L422 294 L400 281 L378 269 L400 256 L422 244 L400 231 L400 206 L400 200 " stroke = "black" stroke-width = "4" fill = "none" />    <line x1="400" y1="200" x2="400" y2="175" style="stroke:black;stroke-width:4" />
    <circle cx="400" cy = "125" r = "50" stroke = "black" stroke-width = "4" fill = "none" />
    <text x="375" y = "150" fill = "black" font-size = "50px" font-family = "arial">V</text>
    <line x1="200" y1="200" x2="200" y2="175" style="stroke:black;stroke-width:4" />
    <circle cx="200" cy = "125" r = "50" stroke = "black" stroke-width = "4" fill = "none" />
    <text x="175" y = "150" fill = "black" font-size = "50px" font-family = "arial">V</text>
</svg>