<svg width="200" height="400" viewbox = "0 0 200 400"  xmlns="http://www.w3.org/2000/svg">

<!--
<json>
{
    "imgurl": "",
    "imgw": 2,
    "imgleft": -3,
    "imgtop": -2,
    "imgangle": 0,
    "svgwidth": 200,
    "svgheight": 400,
    "unit": 121.00000000000004,
    "x0": 622.6413015411266,
    "y0": 444.215839458194,
    "x0rel": -61.35869845887339,
    "y0rel": 45.21583945819401,
    "glyph": "0321,0221,",
    "table": []
}
</json>
-->
	<path d = "M39 245  M39,245 C39,225 79,215 79,235  M79,235 C79,255 39,235 39,215  M39,215 C39,195 79,185 79,205  M79,205 C79,225 39,205 39,185  M39,185 C39,165 79,154 79,175  M79,175 C79,195 39,175 39,154  M39,154 C39,134 79,124 79,144  M79,144 C79,165 39,144 39,124 " stroke = "black" stroke-width = "6" fill = "none" /></svg>