<svg width="400" height="400" viewbox = "0 0 400 400"  xmlns="http://www.w3.org/2000/svg">

<!--
<topfunctions>



function YofX(){
    X = plotparams.g*(x - plotparams.x0) - funcparams.X0;
    F1 = 0.5*(1 + Math.tanh(X/funcparams.risetime));
    F2 = 0.5*(1 + Math.tanh((funcparams.duration - X)/funcparams.risetime));
    Y = F1*F2*Math.cos(funcparams.phi + 2*Math.PI*X/funcparams.T)
    y = plotparams.y0 - plotparams.G*(Y - funcparams.Y0);
}


function YofX2(){
    X = plotparams.g*(x - plotparams.x0) - funcparams.X0;
    Y = funcparams.b*X*X + funcparams.c*X + funcparams.d;
    y = plotparams.y0 - plotparams.G*(Y - funcparams.Y0);
 }

function XYofT(){
    T = plotparams.g*t;
    X = Math.exp(-T/funcparams.tau)*Math.cos(2*Math.PI*T/funcparams.T);
    Y = Math.exp(-T/funcparams.tau)*Math.sin(2*Math.PI*T/funcparams.T);
    y = plotparams.y0 - plotparams.G*(Y - funcparams.Y0);
    x = plotparams.x0 - plotparams.G*(X - funcparams.X0);    
}


function plotfunction(){
/*

    currentStroke = "blue";
    currentLineWidth = 4;
    ctx.strokeStyle = currentStroke;
    ctx.lineWidth = currentLineWidth;
    ctx.beginPath();	
    x = 0;
    y = 0;
    t= 0;
    XYofT();
    currentSVG += "	<path d = \"M";
    currentSVG += Math.round(x).toString() + " ";
    currentSVG += Math.round(y).toString() + " ";
    for(t = 1;t < plotparams.duration;t++){
        ctx.moveTo(x,y);
        XYofT();
        ctx.lineTo(x,y);
        currentSVG += "L" + x + " " + y + " ";
    }
    ctx.stroke();
    currentSVG += "\""+ " stroke = \"" + currentStroke + "\" stroke-width = \"" + currentLineWidth.toString() + "\" fill = \"" + "none" + "\" "+"/>";


    /*plot one function:*/
    currentStroke = "blue";
    currentLineWidth = 4;
    ctx.strokeStyle = currentStroke;
    ctx.lineWidth = currentLineWidth;
    ctx.beginPath();	
    x = 0;
    YofX();
    currentSVG += "	<path d = \"M";
    currentSVG += Math.round(x).toString() + " ";
    currentSVG += Math.round(y).toString() + " ";
    for(x = 1;x < plotparams.plotwidth;x++){
        ctx.moveTo(x-1,y);
        YofX();
        ctx.lineTo(x,y);
        currentSVG += "L" + x + " " + y + " ";
    }
    ctx.stroke();
    currentSVG += "\""+ " stroke = \"" + currentStroke + "\" stroke-width = \"" + currentLineWidth.toString() + "\" fill = \"" + "none" + "\" "+"/>";
    /*finish plot one function*/
    

}






























</topfunctions>
-->

<!--
<imgurl>

</imgurl>
-->

<!--
<currentjson>
{
    "constants": {},
    "imgurl": "",
    "plotparams": {
        "G": -83.30146206611592,
        "g": 1.1,
        "duration": 545.4545454545454,
        "plotwidth": 400,
        "plotheight": 400,
        "x0": 136.60269107301414,
        "y0": 200
    },
    "funcparams": {
        "T": 3044.8163954141955,
        "risetime": 23.579476910000015,
        "phi": 2.8559090909090905,
        "duration": 161.0510000000001,
        "X0": 0,
        "Y0": 0
    }
}
</currentjson>
-->

<!--
<equation>
<h2>Pulse</h2>
<p style="color:blue">

</p><p class="bigeq">
$$
F_1 = \frac{1}{2}(\tanh{\frac{X}{\textrm{risetime}}} + 1)
$$
$$
F_2 = \frac{1}{2}(\tanh{\frac{\textrm{duration} - X}{\textrm{risetime}}} + 1)$$
$$
Y = F_1F_2\sin{\left(\phi + \frac{2\pi X}{T}\right)}
$$
</p>
<p></p>

$$
X = g(x - x_0) - X_0
$$
$$
Y = f(X)
$$
    
$$
y = y_0 - G(Y - Y_0)
$$


<p>
    X and Y, and $X_0$ and $Y_0$ in physical units of the System. x and y and x0 and y0 in pixels.  G is in pixels per Y unit and g is in X units per pixel. 
</p>






</equation>
-->
	<path d = "M0 200 L1 199.9997789257124 L2 199.99975693532696 L3 199.99973275955105 L4 199.99970618139588 L5 199.99967696234646 L6 199.99964484022811 L7 199.99960952686152 L8 199.9995707054856 L9 199.99952802792535 L10 199.99948111147899 L11 199.99942953549726 L12 199.99937283762398 L13 199.99931050966453 L14 199.99924199304533 L15 199.99916667382422 L16 199.99908387720694 L17 199.99899286152115 L18 199.99889281159423 L19 199.9987828314762 L20 199.99866193644274 L21 199.99852904420732 L22 199.99838296526448 L23 199.9982223922782 L24 199.99804588842133 L25 199.99785187456243 L26 199.99763861518608 L27 199.9974042029221 L28 199.9971465415461 L29 199.99686332730087 L30 199.99655202837266 L31 199.99620986234112 L32 199.99583377140237 L33 199.9954203951469 L34 199.9949660406504 L35 199.99446664961405 L36 199.99391776226318 L37 199.99331447768597 L38 199.99265141026228 L39 199.9919226417981 L40 199.99112166894432 L41 199.990241345437 L42 199.9892738186514 L43 199.98821045991258 L44 199.98704178795103 L45 199.9857573848337 L46 199.98434580363394 L47 199.98279446703472 L48 199.98108955598119 L49 199.97921588741295 L50 199.97715678001475 L51 199.97489390682222 L52 199.97240713340818 L53 199.96967434025484 L54 199.96667122778504 L55 199.96337110238164 L56 199.95974464156836 L57 199.95575963635505 L58 199.95138070856484 L59 199.94656900076126 L60 199.94128183617465 L61 199.93547234579307 L62 199.9290890595275 L63 199.92207545808807 L64 199.91436948191264 L65 199.90590299317245 L66 199.89660118654078 L67 199.88638194404942 L68 199.87515512897255 L69 199.8628218132725 L70 199.84927343271173 L71 199.83439086328846 L72 199.81804341218688 L73 199.80008771595192 L74 199.7803665381105 L75 199.75870745796644 L76 199.73492144181031 L77 199.708801287314 L78 199.68011993143782 L79 199.64862861178543 L80 199.6140548710157 L81 199.57610039369226 L82 199.534438664849 L83 199.48871243961744 L84 199.4385310135427 L85 199.3834672837709 L86 199.3230545921864 L87 199.25678334289728 L88 199.18409738830303 L89 199.1043901804462 L90 199.01700068757208 L91 198.92120907995243 L92 198.81623219423193 L93 198.7012187920265 L94 198.57524463644265 L95 198.43730741983305 L96 198.2863215876975 L97 198.12111311743564 L98 197.94041432692214 L99 197.74285880684894 L100 197.52697659268907 L101 197.2911897171487 L102 197.03380831218018 L103 196.75302746099155 L104 196.4469250348066 L105 196.11346078596577 L106 195.75047700757784 L107 195.35570110922046 L108 194.92675049655836 L109 194.46114017806926 L110 193.9562935515593 L111 193.409556843341 L112 192.81821767962077 L113 192.17952825787395 L114 191.49073355022708 L115 190.74910490515452 L116 189.9519793120847 L117 189.09680445015965 L118 188.18118945284127 L119 187.20296108165584 L120 186.1602247153714 L121 185.05142922952174 L122 183.87543447465723 L123 182.63157967511296 L124 181.31975068489723 L125 179.94044368122064 L126 178.49482258221687 L127 176.98476727992875 L128 175.41290971940788 L129 173.78265496296217 L130 172.09818468011176 L131 170.3644410105819 L132 168.5870894543106 L133 166.772460323517 L134 164.92746930109138 L135 163.05951872189326 L136 161.1763822501258 L137 159.2860765816502 L138 157.3967245727858 L139 155.51641471742016 L140 153.65306211418334 L141 151.8142759647165 L142 150.00723823267379 L143 148.23859740994666 L144 146.51438044438964 L145 144.83992486052367 L146 143.21983203602275 L147 141.6579415636828 L148 140.15732570100502 L149 138.72030214020964 L150 137.3484627529166 L151 136.04271558797421 L152 134.80333722189465 L153 133.63003255856995 L154 132.52199931814982 L155 131.477994708834 L156 130.49640210362702 L157 129.57529591297276 L158 128.71250322440295 L159 127.90566114856146 L160 127.15226915011125 L161 126.44973594096429 L162 125.7954207660935 L163 125.18666911723463 L164 124.62084306863217 L165 124.09534654539542 L166 123.60764591413113 L167 123.15528633305655 L168 122.7359043206131 L169 122.3472370032555 L170 121.9871284896045 L171 121.65353379389515 L172 121.34452070028009 L173 121.0582699240302 L174 120.79307388833405 L175 120.54733439798973 L176 120.3195594550818 L177 120.10835942761082 L178 119.91244275054274 L179 119.73061131017103 L180 119.56175563714363 L181 119.40485001097197 L182 119.25894755918902 L183 119.12317541736846 L184 118.99673000173644 L185 118.87887243386164 L186 118.76892414665087 L187 118.66626269237247 L188 118.57031776645044 L189 118.48056745511086 L190 118.39653471043096 L191 118.31778405276745 L192 118.24391849777764 L193 118.17457670316037 L194 118.1094303287201 L195 118.04818160230026 L196 117.99056108345428 L197 117.93632561635584 L198 117.88525646333288 L199 117.83715761049392 L200 117.79185423715604 L201 117.749191341151 L202 117.7090325125492 L203 117.67125884887787 L204 117.63576800550345 L205 117.60247337548246 L206 117.57130339385118 L207 117.54220096201082 L208 117.51512298856898 L209 117.49004004371012 L210 117.4669361248906 L211 117.44580853237882 L212 117.42666785389193 L213 117.40953805831221 L214 117.39445669920178 L215 117.38147522957013 L216 117.37065943008534 L217 117.36208995365625 L218 117.35586299004686 L219 117.3520910549125 L220 117.35090390836773 L221 117.35244960890098 L222 117.35689570913563 L223 117.36443060058869 L224 117.37526501518748 L225 117.38963369185393 L226 117.40779721693312 L227 117.43004404760713 L228 117.45669272766153 L229 117.48809430502337 L230 117.52463496032291 L231 117.56673885528573 L232 117.61487120897647 L233 117.66954160870843 L234 117.73130756071232 L235 117.80077828331486 L236 117.87861874228786 L237 117.96555392404524 L238 118.06237333732508 L239 118.16993572770981 L240 118.28917398160337 L241 118.42110018687386 L242 118.56681080603717 L243 118.72749190434982 L244 118.90442435923157 L245 119.098988958803 L246 119.31267127576325 L247 119.54706617816993 L248 119.80388181080146 L249 120.08494284968837 L250 120.39219279825355 L251 120.72769505668293 L252 121.09363245732295 L253 121.49230491909512 L254 121.92612483461338 L255 122.39760976690026 L256 122.9093720009674 L257 123.46410447239572 L258 124.06456258450515 L259 124.71354143256522 L260 125.41384798326318 L261 126.1682678163014 L262 126.97952612873293 L263 127.8502428374035 L264 128.78288179570922 L265 129.77969437118998 L266 130.84265791098954 L267 131.97340994994386 L268 133.17317938320474 L269 134.44271621829637 L270 135.78222192033115 L271 137.1912827422475 L272 138.66880875697822 L273 140.21298154377803 L274 141.82121358841255 L275 143.49012240067663 L276 145.2155221037973 L277 146.99243479155723 L278 148.815123279811 L279 150.6771460188439 L280 152.5714339226917 L281 154.49038777250394 L282 156.425993741063 L283 158.3699535517996 L284 160.31382491545895 L285 162.2491672584648 L286 164.167687427045 L287 166.06138005142213 L288 167.92265758489097 L289 169.74446566239124 L290 171.52038029425628 L291 173.24468444566958 L292 174.9124226635638 L293 176.51943351299272 L294 178.0623605965123 L295 179.53864379126512 L296 180.94649300821794 L297 182.28484723688894 L298 183.5533218875314 L299 184.75214749826344 L300 185.88210276609055 L301 186.94444462410922 L302 187.94083776064446 L303 188.8732855964063 L304 189.7440643354488 L305 190.55566131139506 L306 191.31071848211218 L307 192.0119815973907 L308 192.66225528301203 L309 193.26436405385545 L310 193.82111908764287 L311 194.33529045613344 L312 194.80958441696438 L313 195.2466253109102 L314 195.6489415798817 L315 196.01895541448363 L316 196.3589755508803 L317 196.67119276023647 L318 196.95767760600637 L319 197.22038008148598 L320 197.46113077967024 L321 197.68164328755222 L322 197.88351753607807 L323 198.06824387401053 L324 198.23720766828492 L325 198.3916942646926 L326 198.53289417073776 L327 198.66190834728434 L328 198.77975351725715 L329 198.88736741836945 L330 198.98561394285565 L331 199.07528812074682 L332 199.15712091460125 L333 199.23178380305342 L334 199.299893138315 L335 199.36201426908227 L336 199.41866542538222 L337 199.4703213659137 L338 199.5174167915734 L339 199.56034953124973 L340 199.59948350774297 L341 199.6351514929397 L342 199.66765766222602 L343 199.6972799586469 L344 199.72427227757598 L345 199.74886648270592 L346 199.77127426405298 L347 199.79168884842738 L348 199.81028657248788 L349 199.82722832809654 L350 199.84266088924488 L351 199.85671812934655 L352 199.86952213720133 L353 199.88118423944138 L354 199.8918059367781 L355 199.9014797608876 L356 199.91029005830558 L357 199.91831370725274 L358 199.9256207728845 L359 199.9322751060501 L360 199.93833489026207 L361 199.94385314121533 L362 199.94887816285546 L363 199.9534539636789 L364 199.95762063665163 L365 199.96141470585977 L366 199.96486944274858 L367 199.96801515457213 L368 199.9708794474569 L369 199.97348746628148 L370 199.97586211338864 L371 199.9780242479759 L372 199.97999286785242 L373 199.9817852751066 L374 199.9834172270958 L375 199.98490307404748 L376 199.98625588445046 L377 199.98748755931183 L378 199.98860893626227 L379 199.9896298844062 L380 199.9905593907355 L381 199.99140563885305 L382 199.99217608068798 L383 199.99287750182333 L384 199.99351608100332 L385 199.99409744433677 L386 199.99462671466793 L387 199.99510855654427 L388 199.9955472171726 L389 199.99594656372108 L390 199.99631011729156 L391 199.99664108385932 L392 199.99694238245038 L393 199.99721667080215 L394 199.99746636873212 L395 199.99769367941892 L396 199.99790060878178 L397 199.99808898312824 L398 199.99826046522438 L399 199.9984165689289 " stroke = "blue" stroke-width = "4" fill = "none" /></svg>