<svg width="400" height="400" viewbox = "0 0 400 400"  xmlns="http://www.w3.org/2000/svg">

<!--
<topfunctions>



function YofX(){
    X = plotparams.g*(x - plotparams.x0) - funcparams.X0;
    F1 = 0.5*(1 + Math.tanh(X/funcparams.risetime));
    F2 = 0.5*(1 + Math.tanh((funcparams.duration - X)/funcparams.risetime));
    Y = F1*F2*Math.cos(funcparams.phi + 2*Math.PI*X/funcparams.T)
    y = plotparams.y0 - plotparams.G*(Y - funcparams.Y0);
}


function YofX2(){
    X = plotparams.g*(x - plotparams.x0) - funcparams.X0;
    Y = funcparams.b*X*X + funcparams.c*X + funcparams.d;
    y = plotparams.y0 - plotparams.G*(Y - funcparams.Y0);
 }

function XYofT(){
    T = plotparams.g*t;
    X = Math.exp(-T/funcparams.tau)*Math.cos(2*Math.PI*T/funcparams.T);
    Y = Math.exp(-T/funcparams.tau)*Math.sin(2*Math.PI*T/funcparams.T);
    y = plotparams.y0 - plotparams.G*(Y - funcparams.Y0);
    x = plotparams.x0 - plotparams.G*(X - funcparams.X0);    
}


function plotfunction(){
/*

    currentStroke = "blue";
    currentLineWidth = 4;
    ctx.strokeStyle = currentStroke;
    ctx.lineWidth = currentLineWidth;
    ctx.beginPath();	
    x = 0;
    y = 0;
    t= 0;
    XYofT();
    currentSVG += "	<path d = \"M";
    currentSVG += Math.round(x).toString() + " ";
    currentSVG += Math.round(y).toString() + " ";
    for(t = 1;t < plotparams.duration;t++){
        ctx.moveTo(x,y);
        XYofT();
        ctx.lineTo(x,y);
        currentSVG += "L" + x + " " + y + " ";
    }
    ctx.stroke();
    currentSVG += "\""+ " stroke = \"" + currentStroke + "\" stroke-width = \"" + currentLineWidth.toString() + "\" fill = \"" + "none" + "\" "+"/>";


    /*plot one function:*/
    currentStroke = "blue";
    currentLineWidth = 4;
    ctx.strokeStyle = currentStroke;
    ctx.lineWidth = currentLineWidth;
    ctx.beginPath();	
    x = 0;
    YofX();
    currentSVG += "	<path d = \"M";
    currentSVG += Math.round(x).toString() + " ";
    currentSVG += Math.round(y).toString() + " ";
    for(x = 1;x < plotparams.plotwidth;x++){
        ctx.moveTo(x-1,y);
        YofX();
        ctx.lineTo(x,y);
        currentSVG += "L" + x + " " + y + " ";
    }
    ctx.stroke();
    currentSVG += "\""+ " stroke = \"" + currentStroke + "\" stroke-width = \"" + currentLineWidth.toString() + "\" fill = \"" + "none" + "\" "+"/>";
    /*finish plot one function*/
    

}






























</topfunctions>
-->

<!--
<imgurl>

</imgurl>
-->

<!--
<currentjson>
{
    "constants": {},
    "imgurl": "",
    "plotparams": {
        "G": 75.7286018782872,
        "g": 1,
        "duration": 545.4545454545454,
        "plotwidth": 400,
        "plotheight": 400,
        "x0": 102.6316236461413,
        "y0": 200
    },
    "funcparams": {
        "T": 23.579476910000015,
        "risetime": 23.579476910000015,
        "phi": 3.1415,
        "duration": 161.0510000000001,
        "X0": 0,
        "Y0": 0
    }
}
</currentjson>
-->

<!--
<equation>
<h2>Pulse</h2>
<p style="color:blue">

</p><p class="bigeq">
$$
F_1 = \frac{1}{2}(\tanh{\frac{X}{\textrm{risetime}}} + 1)
$$
$$
F_2 = \frac{1}{2}(\tanh{\frac{\textrm{duration} - X}{\textrm{risetime}}} + 1)$$
$$
Y = F_1F_2\sin{\left(\phi + \frac{2\pi X}{T}\right)}
$$
</p>
<p></p>

$$
X = g(x - x_0) - X_0
$$
$$
Y = f(X)
$$
    
$$
y = y_0 - G(Y - Y_0)
$$


<p>
    X and Y, and $X_0$ and $Y_0$ in physical units of the System. x and y and x0 and y0 in pixels.  G is in pixels per Y unit and g is in X units per pixel. 
</p>






</equation>
-->
	<path d = "M0 200 L1 199.99495688190362 L2 199.99834270276486 L3 200.0024946697319 L4 200.00720284499232 L5 200.0121713909174 L6 200.01702774368277 L7 200.02133998012812 L8 200.02464242168207 L9 200.02646882961983 L10 200.0263917835433 L11 200.02406605088586 L12 200.01927301185788 L13 200.01196257206553 L14 200.00228854819176 L15 199.9906333227641 L16 199.9776176958395 L17 199.96409236266135 L18 199.95110834287223 L19 199.9398649758728 L20 199.93163574178368 L21 199.9276740946394 L22 199.92910359280737 L23 199.93679873497334 L24 199.95126488296023 L25 199.97252727999083 L26 200.00004025275115 L27 200.03262802474708 L28 200.06846800100064 L29 200.10512579027747 L30 200.13964855582813 L31 200.16871955570437 L32 200.18887207022598 L33 200.19675554003427 L34 200.18944097807724 L35 200.16474699065475 L36 200.12156253911908 L37 200.06013843483927 L38 199.9823170353834 L39 199.89166921435742 L40 199.79350984042964 L41 199.69476801439518 L42 199.6036962798519 L43 199.52941381375362 L44 199.48129182323785 L45 199.46820434890444 L46 199.4976834499591 L47 199.5750331240798 L48 199.70246990418445 L49 199.87836837701676 L50 200.0966953859836 L51 200.3467160427017 L52 200.6130467784297 L53 200.8761148347429 L54 201.11305969418066 L55 201.29908053017851 L56 201.4091961097635 L57 201.42034179782235 L58 201.3136852322057 L59 201.07700136652306 L60 200.70691289502093 L61 200.21077779067085 L62 199.6079959143682 L63 198.93051502101682 L64 198.2223457323931 L65 197.53794658476318 L66 196.93941380073954 L67 196.49250366209893 L68 196.2616237251216 L69 196.30404579971932 L70 196.66370966449648 L71 197.36509122874043 L72 198.40769048183074 L73 199.7617410460376 L74 201.36574326061938 L75 203.12636734466105 L76 204.921156591806 L77 206.60428172501722 L78 208.01536130117964 L79 208.9910808605109 L80 209.37903377397646 L81 209.05289447693622 L82 207.92775050215795 L83 205.97419744899253 L84 203.22967538569685 L85 199.80552780572486 L86 195.88841957833006 L87 191.73507122399815 L88 187.6597505861953 L89 184.0145881428272 L90 181.1635071698738 L91 179.45132358770664 L92 179.170295312436 L93 180.52700017393215 L94 183.61280694366255 L95 188.38129785410425 L96 194.6357472810436 L97 202.02913719812574 L98 210.07821444943576 L99 218.19183248044942 L100 225.7123797118024 L101 231.9676229156754 L102 236.32895279412577 L103 238.2709783923693 L104 237.42682487900967 L105 233.63345207800904 L106 226.96187670978014 L107 217.72832825027731 L108 206.4840047865106 L109 193.9830670530658 L110 181.1306163894753 L111 168.91442399588502 L112 158.32589727286512 L113 150.27699707254214 L114 145.52042209347314 L115 144.58028485748457 L116 147.6997222450503 L117 154.81048770365874 L118 165.5276977648057 L119 179.1707324503331 L120 194.8090218794714 L121 211.32929749770153 L122 227.5190367543578 L123 242.1594421643075 L124 254.12048095072277 L125 262.4503280127741 L126 266.4520054464472 L127 265.74104612436093 L128 260.2795307821158 L129 250.38372554494137 L130 236.7046238667167 L131 220.18280673333174 L132 201.9810134380813 L133 183.3995126932097 L134 165.78065596452703 L135 150.4097908581019 L136 138.4199603097756 L137 130.70750296290726 L138 127.86483234737366 L139 130.13537605085156 L140 137.39400184108186 L141 149.15437071779866 L142 164.6026770889855 L143 182.65530833563358 L144 202.03621902954242 L145 221.36839276958798 L146 239.27275695087263 L147 254.4673921600485 L148 265.8598725762135 L149 272.6260838727885 L150 274.2698511813353 L151 270.6590987016191 L152 262.0359534178106 L153 249.0000762036359 L154 232.46642037881006 L155 213.6004439401577 L156 193.73540770095346 L157 174.27766402487094 L158 156.60669036813402 L159 141.9769893083859 L160 131.4288372876974 L161 125.71422899205744 L162 125.24327921639718 L163 130.05488698506653 L164 139.8137414892368 L165 153.83387867289485 L166 171.1271137049721 L167 190.47291145208203 L168 210.50473902733066 L169 229.8067786552649 L170 247.01414756095863 L171 260.9095256875249 L172 270.5093487402304 L173 275.1334648026218 L174 274.4533248571142 L175 268.515297836464 L176 257.73746167066105 L177 242.88009859656862 L178 224.99198306901138 L179 205.33626250566448 L180 185.30117389098265 L181 166.3019110836595 L182 149.68058287572075 L183 136.61133635682722 L184 128.0173545236318 L185 124.50559723877556 L186 126.32389997024573 L187 133.34346390317575 L188 145.0679757177041 L189 160.668712420655 L190 179.04314915332827 L191 198.89292572607022 L192 218.81565824616297 L193 237.40410244747284 L194 253.34565454105524 L195 265.515150529616 L196 273.05439789072193 L197 275.43281108944814 L198 272.4848584454144 L199 264.42166817205737 L200 251.81597009046638 L201 235.5614373638823 L202 216.8093060871124 L203 196.88676132234315 L204 177.20287203212507 L205 159.14874243922452 L206 143.9989605583887 L207 132.82133620558466 L208 126.40133634929296 L209 125.18658598161535 L210 129.25538079636817 L211 138.31145409905096 L212 151.70537494008403 L213 168.48105956872482 L214 187.44408846848856 L215 207.24696388320504 L216 226.48522918699683 L217 243.7975889651717 L218 257.9628742355417 L219 267.9869133854677 L220 273.173082473985 L221 273.17146949707205 L222 268.0031148699644 L223 258.05757702110185 L224 244.0639908012019 L225 227.0377003297274 L226 208.20631926885065 L227 188.92057183104657 L228 170.55638695964373 L229 154.41537232620573 L230 141.63093295772887 L231 133.086907015151 L232 129.35469227105608 L233 130.6534920234458 L234 136.83661268062042 L235 147.404818326434 L236 161.54573038551678 L237 178.19630234796634 L238 196.12364814242747 L239 214.01809351880178 L240 230.59136532272962 L241 244.67241459542865 L242 255.2935278474008 L243 261.76011494127533 L244 263.69882500698316 L245 261.08034362700545 L246 254.21523700810891 L247 243.72337428687217 L248 230.47960172910498 L249 215.5402823503047 L250 200.05688231851303 L251 185.18383868378194 L252 171.98837945038338 L253 161.36973704085335 L254 153.99430999590274 L255 150.25185769855372 L256 150.23588962958834 L257 153.74921259037518 L258 160.33333630236206 L259 169.31832998234904 L260 179.88797684844764 L261 191.15386046330067 L262 202.2314502931953 L263 212.3113774715638 L264 220.71987340107327 L265 226.96367976263605 L266 230.75646659542718 L267 232.02571559434423 L268 230.900926481484 L269 227.68568684127052 L270 222.8174487637078 L271 216.81967177538948 L272 210.25127672056843 L273 203.65812849610506 L274 197.53060085090303 L275 192.27028842343353 L276 188.16775698962837 L277 185.39200361448928 L278 183.99116229235636 L279 183.9030402838387 L280 184.9733747314338 L281 186.97929108967972 L282 189.6553230877559 L283 192.719488416942 L284 195.89725442436492 L285 198.9417111081121 L286 201.64882837567683 L287 203.86724823028013 L288 205.50259680762846 L289 206.5167551588286 L290 206.92287473152618 L291 206.77715109911261 L292 206.168477740806 L293 205.20710102187482 L294 204.01330591145364 L295 202.70700192930943 L296 201.3988746703179 L297 200.18354378695398 L298 199.13494484713223 L299 198.3039476103321 L300 197.7180500627018 L301 197.382854361605 L302 197.28494143943885 L303 197.39571512984472 L304 197.6757807107106 L305 198.0794506485031 L306 198.55902444705487 L307 199.0685615015774 L308 199.5669474227377 L309 200.02013777041415 L310 200.40254198630416 L311 200.69757942218212 L312 200.8974951715453 L313 201.00256393691524 L314 201.01983486583563 L315 200.96157988041222 L316 200.84360421665778 L317 200.68356309545814 L318 200.49940549552048 L319 200.30803785978384 L320 200.1242701118403 L321 199.9600761683657 L322 199.8241733565972 L323 199.72190141412827 L324 199.6553631407196 L325 199.62377582530883 L326 199.6239753285124 L327 199.65101278569136 L328 199.69878660732334 L329 199.7606588685055 L330 199.83001425353825 L331 199.90073038371713 L332 199.96753959031588 L333 200.02627310289114 L334 200.07398847274666 L335 200.10898930121627 L336 200.13075265088096 L337 200.13978373642934 L338 200.13741964534984 L339 200.12560409598396 L340 200.10665388008988 L341 200.08303500968435 L342 200.0571630800956 L343 200.0312383619262 L344 200.0071220073221 L345 199.98625581617205 L346 199.96962450840346 L347 199.95775657108578 L348 199.95075760235395 L349 199.9483686976532 L350 199.9500417956399 L351 199.9550239492716 L352 199.9624431030726 L353 199.97138900762408 L354 199.98098424401022 L355 199.99044182273457 L356 199.99910733337816 L357 200.0064850417614 L358 200.0122485732725 L359 200.01623782341176 L360 200.01844446519914 L361 200.01898886854815 L362 200.01809142138143 L363 200.01604117593106 L364 200.01316447869664 L365 200.0097958288736 L366 200.00625270049224 L367 200.0028155094234 L368 199.99971335436064 L369 199.99711565002588 L370 199.99512933125266 L371 199.9938009585738 L372 199.99312281006797 L373 199.99304190212814 L374 199.99347083746645 L375 199.99429941998144 L376 199.99540608676074 L377 199.99666836875178 L378 199.99797178407897 L379 199.99921677299722 L380 200.00032348443935 L381 200.00123440730286 L382 200.00191499471714 L383 200.00235254983133 L384 200.00255372400082 L385 200.0025410226646 L386 200.0023487234413 L387 200.00201858985642 L388 200.00159571889367 L389 200.00112479823127 L390 200.00064697670336 L391 200.00019747594692 L392 199.99980399826097 L393 199.99948592022193 L394 199.99925420707822 L395 199.99911194157872 L396 199.99905533357418 L397 199.99907506323038 L398 199.99915780981271 L399 199.99928782784002 " stroke = "blue" stroke-width = "4" fill = "none" /></svg>