<svg width="400" height="400" viewbox = "0 0 400 400"  xmlns="http://www.w3.org/2000/svg">

<!--
<topfunctions>



function YofX(){
    X = plotparams.g*(x - plotparams.x0) - funcparams.X0;
    F1 = 0.5*(1 + Math.tanh(X/funcparams.risetime));
    F2 = 0.5*(1 + Math.tanh((funcparams.duration - X)/funcparams.risetime));
    Y = F1*F2*Math.cos(funcparams.phi + 2*Math.PI*X/funcparams.T)
    y = plotparams.y0 - plotparams.G*(Y - funcparams.Y0);
}


function YofX2(){
    X = plotparams.g*(x - plotparams.x0) - funcparams.X0;
    Y = funcparams.b*X*X + funcparams.c*X + funcparams.d;
    y = plotparams.y0 - plotparams.G*(Y - funcparams.Y0);
 }

function XYofT(){
    T = plotparams.g*t;
    X = Math.exp(-T/funcparams.tau)*Math.cos(2*Math.PI*T/funcparams.T);
    Y = Math.exp(-T/funcparams.tau)*Math.sin(2*Math.PI*T/funcparams.T);
    y = plotparams.y0 - plotparams.G*(Y - funcparams.Y0);
    x = plotparams.x0 - plotparams.G*(X - funcparams.X0);    
}


function plotfunction(){
/*

    currentStroke = "blue";
    currentLineWidth = 4;
    ctx.strokeStyle = currentStroke;
    ctx.lineWidth = currentLineWidth;
    ctx.beginPath();	
    x = 0;
    y = 0;
    t= 0;
    XYofT();
    currentSVG += "	<path d = \"M";
    currentSVG += Math.round(x).toString() + " ";
    currentSVG += Math.round(y).toString() + " ";
    for(t = 1;t < plotparams.duration;t++){
        ctx.moveTo(x,y);
        XYofT();
        ctx.lineTo(x,y);
        currentSVG += "L" + x + " " + y + " ";
    }
    ctx.stroke();
    currentSVG += "\""+ " stroke = \"" + currentStroke + "\" stroke-width = \"" + currentLineWidth.toString() + "\" fill = \"" + "none" + "\" "+"/>";


    /*plot one function:*/
    currentStroke = "blue";
    currentLineWidth = 4;
    ctx.strokeStyle = currentStroke;
    ctx.lineWidth = currentLineWidth;
    ctx.beginPath();	
    x = 0;
    YofX();
    currentSVG += "	<path d = \"M";
    currentSVG += Math.round(x).toString() + " ";
    currentSVG += Math.round(y).toString() + " ";
    for(x = 1;x < plotparams.plotwidth;x++){
        ctx.moveTo(x-1,y);
        YofX();
        ctx.lineTo(x,y);
        currentSVG += "L" + x + " " + y + " ";
    }
    ctx.stroke();
    currentSVG += "\""+ " stroke = \"" + currentStroke + "\" stroke-width = \"" + currentLineWidth.toString() + "\" fill = \"" + "none" + "\" "+"/>";
    /*finish plot one function*/
    

}






























</topfunctions>
-->

<!--
<imgurl>

</imgurl>
-->

<!--
<currentjson>
{
    "constants": {},
    "imgurl": "",
    "plotparams": {
        "G": 83.30146206611592,
        "g": 1.1,
        "duration": 545.4545454545454,
        "plotwidth": 400,
        "plotheight": 400,
        "x0": 242.00000000000009,
        "y0": 200
    },
    "funcparams": {
        "T": 23.579476910000015,
        "risetime": 23.579476910000015,
        "phi": 3.1415,
        "duration": 161.0510000000001,
        "X0": 0,
        "Y0": 0
    }
}
</currentjson>
-->

<!--
<equation>
<h2>Pulse</h2>
<p style="color:blue">

</p><p class="bigeq">
$$
F_1 = \frac{1}{2}(\tanh{\frac{X}{\textrm{risetime}}} + 1)
$$
$$
F_2 = \frac{1}{2}(\tanh{\frac{\textrm{duration} - X}{\textrm{risetime}}} + 1)$$
$$
Y = F_1F_2\sin{\left(\phi + \frac{2\pi X}{T}\right)}
$$
</p>
<p></p>

$$
X = g(x - x_0) - X_0
$$
$$
Y = f(X)
$$
    
$$
y = y_0 - G(Y - Y_0)
$$


<p>
    X and Y, and $X_0$ and $Y_0$ in physical units of the System. x and y and x0 and y0 in pixels.  G is in pixels per Y unit and g is in X units per pixel. 
</p>






</equation>
-->
	<path d = "M0 200 L1 200.00000000064276 L2 200.00000000520595 L3 200.00000001016795 L4 200.00000001509852 L5 200.00000001948226 L6 200.00000002275462 L7 200.0000000243498 L8 200.0000000237591 L9 200.0000000205951 L10 200.00000001465642 L11 200.00000000598678 L12 199.99999999492067 L13 199.99999998210856 L14 199.99999996851466 L15 199.99999995538153 L16 199.99999994415916 L17 199.99999993639778 L18 199.99999993360848 L19 199.99999993709912 L20 199.99999994779776 L21 199.99999996607895 L22 199.99999999161145 L23 200.00000002324768 L24 200.00000005897465 L25 200.0000000959443 L26 200.00000013059594 L27 200.0000001588777 L28 200.00000017656387 L29 200.00000017965544 L30 200.00000016483926 L31 200.00000012997074 L32 200.00000007453488 L33 200.0000000000338 L34 199.9999999102454 L35 199.99999981130048 L36 199.99999971153258 L37 199.99999962106972 L38 199.99999955115737 L39 199.999999513227 L40 199.99999951775447 L41 199.99999957298257 L42 199.99999968361251 L43 199.99999984959197 L44 200.0000000651453 L45 200.0000003181955 L46 200.00000059031817 L47 200.0000008573405 L48 200.00000109065724 L49 200.00000125927343 L50 200.00000133251314 L51 200.00000128325112 L52 200.00000109144054 L53 200.0000007476342 L54 200.0000002561342 L55 199.99999963736838 L56 199.99999892909025 L57 199.9999981860369 L58 199.99999747776366 L59 199.99999688450555 L60 199.9999964910871 L61 199.99999637910926 L62 199.99999661786634 L63 199.99999725466935 L64 199.99999830545335 L65 199.999999746696 L66 200.00000150975086 L67 200.0000034786748 L68 200.0000054924918 L69 200.0000073525684 L70 200.00000883538905 L71 200.00000971052043 L72 200.0000097629748 L73 200.00000881856735 L74 200.00000677026415 L75 200.00000360300498 L76 199.99999941412582 L77 199.99999442637102 L78 199.99998899063144 L79 199.99998357601856 L80 199.99997874570104 L81 199.99997511807646 L82 199.99997331427764 L83 199.9999738946274 L84 199.99997728833344 L85 199.99998372229228 L86 199.9999931561677 L87 200.00000523173148 L88 200.00001924462032 L89 200.00003414602335 L90 200.0000485802653 L91 200.00006096177108 L92 200.00006959154732 L93 200.00007280926536 L94 200.00006917255357 L95 200.00005765057608 L96 200.00003781484986 L97 200.0000100070397 L98 199.99997546168993 L99 199.9999363619819 L100 199.99989580902184 L101 199.99985769009092 L102 199.99982643872664 L103 199.99980668920674 L104 199.99980283943336 L105 199.999818548539 L106 199.99985620767532 L107 199.99991643310122 L108 199.999997638464 L109 200.00009574666305 L110 200.00020409967053 L111 200.00031361622618 L112 200.00041323198224 L113 200.00049063461535 L114 200.00053327854746 L115 200.00052963190873 L116 200.00047057468825 L117 200.00035083478647 L118 200.00017032153124 L119 199.99993519799042 L120 199.99965852782339 L121 199.99936034262726 L122 199.99906700394286 L123 199.99880978106827 L124 199.99862263058827 L125 199.99853924302755 L126 199.9985895110951 L127 199.9987956653737 L128 199.9991684080683 L129 199.9997034434532 L130 200.00037884449463 L131 200.00115369898174 L132 200.00196843738732 L133 200.00274715362198 L134 200.00340208798838 L135 200.00384025320966 L136 200.00397195928812 L137 200.00372074685907 L138 200.00303399273477 L139 200.00189323089978 L140 200.0003230653122 L141 199.9983974656954 L142 199.99624225963296 L143 199.9940327834341 L144 199.99198594108972 L145 199.9903463438249 L146 199.9893667465711 L147 199.98928363074054 L148 199.99028945795175 L149 199.99250377578304 L150 199.99594592259277 L151 200.00051247695072 L152 200.0059627527757 L153 200.01191548795657 L154 200.01785936448815 L155 200.02317911147 L156 200.02719769287535 L157 200.02923352435965 L158 200.0286698951161 L159 200.02503193125276 L160 200.01806470168816 L161 200.00780463671117 L162 199.99463551342893 L163 199.97932006163742 L164 199.9629989257594 L165 199.94715039420893 L166 199.93350700777478 L167 199.92392881480507 L168 199.92023747169227 L169 199.92402029366514 L170 199.93641833388014 L171 199.9579171079491 L172 199.98816212798656 L173 200.02582339440963 L174 200.06853288868442 L175 200.11291649735222 L176 200.15473643159916 L177 200.18915207629908 L178 200.21109658060573 L179 200.21575397564533 L180 200.19910807870366 L181 200.15852111273216 L182 200.09328825657124 L183 200.00510579239534 L184 199.89838667138432 L185 199.78035954547866 L186 199.66089663407996 L187 199.55203270622104 L188 199.46716177154917 L189 199.41992878893947 L190 199.42286894751393 L191 199.4858841181147 L192 199.61468142456602 L193 199.8093285035801 L194 200.06309962600082 L195 200.36179230865088 L196 200.6836818406219 L197 201.00024888116553 L198 201.27776216267526 L199 201.47972558355517 L200 201.57011016384075 L201 201.51719247479434 L202 201.29772059714537 L203 200.90103672496267 L204 200.33271381215897 L205 199.61722408094832 L206 198.7991608196752 L207 197.94259047157908 L208 197.12822462387268 L209 196.44827112652555 L210 195.99904395434294 L211 195.87166938181213 L212 196.14150131190866 L213 196.8571245077267 L214 198.03004942908788 L215 199.6263523109074 L216 201.5615558143623 L217 203.6999506972214 L218 205.8593085105871 L219 207.8215242243065 L220 209.3491686429246 L221 210.20725688415533 L222 210.18880605444858 L223 209.14203763945275 L224 206.99646857981827 L225 203.7847276673867 L226 199.65682544934847 L227 194.88387389416997 L228 189.84894238240923 L229 185.02384875019152 L230 180.93216044764313 L231 178.10040095148463 L232 177.00124007976322 L233 177.99406665481467 L234 181.26954790485848 L235 186.80533227518512 L236 194.33976080549604 L237 203.3692161787452 L238 213.1725794715683 L239 222.86334471192248 L240 231.46656094771043 L241 238.01434239780147 L242 241.6506822087838 L243 241.734190341363 L244 237.92653514165238 L245 230.25503410336262 L246 219.1400443485704 L247 205.38135937241407 L248 190.102333349206 L249 174.6553815371907 L250 160.4972211841015 L251 149.04610991994247 L252 141.53589556038503 L253 138.88257100254384 L254 141.5781041018591 L255 149.62368584509755 L256 162.5105187345532 L257 179.2513197020151 L258 198.46040313706368 L259 218.47512953776368 L260 237.50719920139613 L261 253.80918061359762 L262 265.84008693561714 L263 272.41388020262247 L264 272.81644871391546 L265 266.87966802877725 L266 255.005289940887 L267 238.13618577585325 L268 217.67743248978218 L269 195.3744030725671 L270 173.1589787093169 L271 152.97788903089702 L272 136.61876460492772 L273 125.54963227984936 L274 120.78630893232565 L275 122.79958781749997 L276 131.47050963986715 L277 146.0976997006175 L278 165.4561211919507 L279 187.90205284487078 L280 211.51504304668785 L281 234.26437143527266 L282 254.18543588468557 L283 269.5506523817635 L284 279.01997018534814 L285 281.75791136498015 L286 277.50697841739986 L287 266.61107674323546 L288 249.98693824992293 L289 229.0460322450852 L290 205.57372247188025 L291 181.57610838413615 L292 159.1077607650056 L293 140.09519162891357 L294 126.17124959296807 L295 118.53467786495187 L296 117.8468975720819 L297 124.17487325188539 L298 136.98495645639704 L299 155.18822792179782 L300 177.23344365017223 L301 201.23961322468844 L302 225.15684790459974 L303 246.94170056600768 L304 264.7319847535322 L305 277.00611033394455 L306 282.7133030447078 L307 281.3635699544129 L308 273.06971852964136 L309 258.53783868366787 L310 239.00706414696432 L311 216.1437651999605 L312 191.89921898993424 L313 168.34292391923537 L314 147.48580472648257 L315 131.10841752641693 L316 120.60883581773187 L317 116.88321608307871 L318 120.24924888658397 L319 130.41903686161464 L320 146.52371760881493 L321 167.18772792779055 L322 190.64636356691452 L323 214.89658811787731 L324 237.86820196179352 L325 257.6007403032337 L326 272.41097742110645 L327 281.0367147807002 L328 282.7445557251537 L329 277.39244663900115 L330 265.4416313481601 L331 247.91699206499763 L332 226.31916686097284 L333 202.49596288594512 L334 178.48407296989996 L335 156.3346518223253 L336 137.93769771995247 L337 124.86029603579699 L338 118.21260108144068 L339 118.55306169874407 L340 125.84103509846874 L341 139.44086895416237 L342 158.1771109263289 L343 180.4361061873864 L344 204.3052448444062 L345 227.7378669848481 L346 248.7296052903373 L347 265.4909386571565 L348 276.60103587797107 L349 281.12956473410384 L350 278.71589633347924 L351 269.59881436489417 L352 254.5941302154661 L353 235.0221389436686 L354 212.59123564213013 L355 189.24786431987044 L356 167.00595239108247 L357 147.77082587990287 L358 133.1731324904556 L359 124.4274629543951 L360 122.22821572217153 L361 126.69197195086555 L362 137.35151518055335 L363 153.20200166875617 L364 172.7950723160974 L365 194.37232062627479 L366 216.0258970957154 L367 235.87148484340275 L368 252.2176793430089 L369 263.71608473835585 L370 269.47820387168906 L371 269.1483118224142 L372 262.92569250058233 L373 251.53449929516646 L374 236.14460597457207 L375 218.25163475087123 L376 199.52838596212385 L377 181.66271202280754 L378 166.1981543111757 L379 154.3932287119212 L380 147.11312130759063 L381 144.76395123405655 L382 147.2750629000805 L383 154.1295547709136 L384 164.4380467817969 L385 177.04614748196138 L386 190.6627426346915 L387 203.99447519485767 L388 215.8718012533786 L389 225.35373301348426 L390 231.8015383826164 L391 234.91579563192948 L392 234.73572832228075 L393 231.60407408771002 L394 226.10433860446457 L395 218.9797580923555 L396 211.0444292344287 L397 203.09685254412784 L398 195.84474313947325 L399 189.84769802984403 " stroke = "blue" stroke-width = "4" fill = "none" /></svg>