<svg width="600" height="600" viewbox = "0 0 600 600"  xmlns="http://www.w3.org/2000/svg">

<!--
<json>
{
    "imgurl": "",
    "imgw": 2,
    "imgleft": -1,
    "imgtop": -1,
    "imgangle": 0,
    "svgwidth": 600,
    "svgheight": 600,
    "unit": 100,
    "x0": 684,
    "y0": 399,
    "x0rel": 0,
    "y0rel": 0,
    "glyph": "0331,0337,0233,",
    "table": []
}
</json>
-->
  <path d="M299.99999999999994 200           A200 200 0 0 1 399.9999999999999 226.79491924311222" fill = "none" stroke = "black" stroke-width = "7" />
  <path d="M248.2361909794958 206.81483474218635           A200 200 0 0 1 299.99999999999994 200" fill = "none" stroke = "black" stroke-width = "7" />
  <path d="M223.46331352698198 215.22409349774267           A200 200 0 0 1 248.23619097949575 206.81483474218635" fill = "none" stroke = "black" stroke-width = "7" />
  <path d="M158.57864376269052 258.5786437626905           A200 200 0 0 1 178.24771419825586 241.32933194175297" fill = "none" stroke = "black" stroke-width = "7" />
  <path d="M141.329331941753 278.24771419825584           A200 200 0 0 1 158.57864376269052 258.5786437626905" fill = "none" stroke = "black" stroke-width = "7" />
  <path d="M126.7949192431123 299.99999999999994           A200 200 0 0 1 141.329331941753 278.24771419825584" fill = "none" stroke = "black" stroke-width = "7" />
  <path d="M115.2240934977427 323.46331352698195           A200 200 0 0 1 126.7949192431123 299.99999999999994" fill = "none" stroke = "black" stroke-width = "7" />
  <path d="M106.81483474218638 348.2361909794957           A200 200 0 0 1 115.2240934977427 323.46331352698195" fill = "none" stroke = "black" stroke-width = "7" />
  <path d="M101.71102772523795 373.89476155598953           A200 200 0 0 1 106.81483474218638 348.2361909794957" fill = "none" stroke = "black" stroke-width = "7" />
  <path d="M100 399.9999999999998           A200 200 0 0 1 101.71102772523795 373.89476155598953" fill = "none" stroke = "black" stroke-width = "7" />
  <path d="M400.0000000000001 226.79491924311233           A200 200 0 0 1 500 400.0000000000001" fill = "none" stroke = "black" stroke-width = "7" />
  <path d="M226.79491924311236 326.7949192431123           A200 200 0 0 1 200.0000000000001 226.79491924311228" fill = "none" stroke = "black" stroke-width = "7" />
  <path d="M258.5786437626906 368.2162754804218           A200 200 0 0 1 226.79491924311242 326.7949192431124" fill = "none" stroke = "black" stroke-width = "7" />
  <path d="M278.24771419825595 385.4655873013594           A200 200 0 0 1 258.5786437626906 368.2162754804218" fill = "none" stroke = "black" stroke-width = "7" />
  <path d="M348.23619097949586 419.98008450092595           A200 200 0 0 1 323.4633135269821 411.5708257453697" fill = "none" stroke = "black" stroke-width = "7" />
  <path d="M373.89476155598965 425.08389151787435           A200 200 0 0 1 348.23619097949586 419.98008450092595" fill = "none" stroke = "black" stroke-width = "7" />
  <path d="M399.99999999999994 426.7949192431123           A200 200 0 0 1 373.89476155598965 425.08389151787435" fill = "none" stroke = "black" stroke-width = "7" />
  <path d="M426.10523844401024 425.08389151787446           A200 200 0 0 1 399.99999999999994 426.7949192431123" fill = "none" stroke = "black" stroke-width = "7" />
  <path d="M451.763809020504 419.98008450092607           A200 200 0 0 1 426.10523844401024 425.08389151787446" fill = "none" stroke = "black" stroke-width = "7" />
  <path d="M476.5366864730178 411.5708257453698           A200 200 0 0 1 451.763809020504 419.98008450092607" fill = "none" stroke = "black" stroke-width = "7" />
  <path d="M499.9999999999999 400.0000000000002           A200 200 0 0 1 476.5366864730178 411.5708257453698" fill = "none" stroke = "black" stroke-width = "7" />
  <path d="M200.0000000000001 226.7949192431122           A200 200 0 0 1 300.00000000000017 53.58983848622458" fill = "none" stroke = "black" stroke-width = "7" />
  <path d="M373.2050807568877 326.7949192431124           A200 200 0 0 1 299.9999999999999 400.00000000000006" fill = "none" stroke = "black" stroke-width = "7" />
  <path d="M393.18516525781365 278.5587282636166           A200 200 0 0 1 373.2050807568877 326.7949192431124" fill = "none" stroke = "black" stroke-width = "7" />
  <path d="M398.28897227476216 252.9001576871228           A200 200 0 0 1 393.18516525781365 278.5587282636166" fill = "none" stroke = "black" stroke-width = "7" />
  <path d="M393.1851652578139 175.03111022260833           A200 200 0 0 1 398.2889722747623 200.68968079910218" fill = "none" stroke = "black" stroke-width = "7" />
  <path d="M384.7759065022576 150.25823277009454           A200 200 0 0 1 393.1851652578139 175.03111022260833" fill = "none" stroke = "black" stroke-width = "7" />
  <path d="M373.20508075688804 126.79491924311247           A200 200 0 0 1 384.7759065022576 150.25823277009454" fill = "none" stroke = "black" stroke-width = "7" />
  <path d="M358.6706680582473 105.04263344136831           A200 200 0 0 1 373.20508075688804 126.79491924311247" fill = "none" stroke = "black" stroke-width = "7" />
  <path d="M341.42135623730985 85.37356300580291           A200 200 0 0 1 358.6706680582473 105.04263344136831" fill = "none" stroke = "black" stroke-width = "7" />
  <path d="M321.75228580174445 68.12425118486533           A200 200 0 0 1 341.42135623730985 85.37356300580291" fill = "none" stroke = "black" stroke-width = "7" />
  <path d="M300.00000000000034 53.58983848622461           A200 200 0 0 1 321.75228580174445 68.12425118486533" fill = "none" stroke = "black" stroke-width = "7" />
  <path d="M299.9999999999999 400.00000000000006           A200 200 0 0 1 99.99999999999991 399.9999999999998" fill = "none" stroke = "black" stroke-width = "7" />
<circle cx="500" cy = "400" r = "7" stroke = "black" stroke-width = "7" fill = "black" />
<circle cx="300" cy = "54" r = "7" stroke = "black" stroke-width = "7" fill = "black" />
<circle cx="100" cy = "400" r = "7" stroke = "black" stroke-width = "7" fill = "black" />
</svg>