<svg width="600" height="600" viewbox = "0 0 600 600"  xmlns="http://www.w3.org/2000/svg">

<!--
<json>
{
    "imgurl": "",
    "imgw": 2,
    "imgleft": -1,
    "imgtop": -1,
    "imgangle": 0,
    "svgwidth": 600,
    "svgheight": 600,
    "unit": 100,
    "x0": 666.565740045079,
    "y0": 391.0395151082747,
    "x0rel": -17.434259954921004,
    "y0rel": -7.960484891725287,
    "glyph": "0332,0336,0333,0330,0332,0331,0336,0336,0336,0330,0330,0333,0333,0330,0330,0333,0337,0337,0337,0337,0337,0336,0336,0337,0337,0335,0231,0335,0335,0330,0340,0331,0331,0340,0334,0340,0330,0330,0340,0335,0335,",
    "table": []
}
</json>
-->
  <path d="M301.315740045079 93.83443435138699           A200 200 0 0 1 374.5208208019667 167.0395151082747" fill = "none" stroke = "black" stroke-width = "7" />
  <path d="M374.5208208019667 167.0395151082747           A200 200 0 0 1 401.315740045079 267.0395151082747" fill = "none" stroke = "black" stroke-width = "7" />
  <path d="M401.315740045079 267.0395151082747           A200 200 0 0 1 374.52082080196675 367.0395151082747" fill = "none" stroke = "black" stroke-width = "7" />
  <path d="M342.7370962823885 408.4608713455842           A200 200 0 0 1 323.06802584682316 425.7101831665217" fill = "none" stroke = "black" stroke-width = "7" />
  <path d="M374.52082080196675 367.0395151082747           A200 200 0 0 1 342.7370962823885 408.4608713455842" fill = "none" stroke = "black" stroke-width = "7" />
  <path d="M277.852426518097 451.81542161053204           A200 200 0 0 1 227.42097848908935 465.32848738303676" fill = "none" stroke = "black" stroke-width = "7" />
  <path d="M227.42097848908935 465.32848738303676           A200 200 0 0 1 175.21050160106867 465.32848738303676" fill = "none" stroke = "black" stroke-width = "7" />
  <path d="M175.21050160106867 465.32848738303676           A200 200 0 0 1 124.77905357206102 451.8154216105321" fill = "none" stroke = "black" stroke-width = "7" />
  <path d="M124.77905357206104 451.8154216105321           A200 200 0 0 1 101.31574004507904 440.24459586516247" fill = "none" stroke = "black" stroke-width = "7" />
  <path d="M501.3157400450789 440.2445958651625           A200 200 0 0 1 401.31574004507894 467.0395151082747" fill = "none" stroke = "black" stroke-width = "7" />
  <path d="M401.31574004507894 467.0395151082747           A200 200 0 0 1 301.31574004507894 440.2445958651624" fill = "none" stroke = "black" stroke-width = "7" />
  <path d="M301.31574004507894 440.2445958651624           A200 200 0 0 1 228.11065928819121 367.0395151082746" fill = "none" stroke = "black" stroke-width = "7" />
  <path d="M208.13057478726532 318.80332412877874           A200 200 0 0 1 203.0267677703169 293.14475355228495" fill = "none" stroke = "black" stroke-width = "7" />
  <path d="M228.11065928819116 367.03951510827454           A200 200 0 0 1 208.13057478726532 318.80332412877874" fill = "none" stroke = "black" stroke-width = "7" />
  <path d="M203.02676777031692 240.93427666426436           A200 200 0 0 1 216.53983354282164 190.50282863525678" fill = "none" stroke = "black" stroke-width = "7" />
  <path d="M216.53983354282164 190.50282863525678           A200 200 0 0 1 242.6450719868319 145.28722930653066" fill = "none" stroke = "black" stroke-width = "7" />
  <path d="M242.6450719868319 145.28722930653066           A200 200 0 0 1 279.56345424333483 108.36884705002774" fill = "none" stroke = "black" stroke-width = "7" />
  <path d="M279.56345424333483 108.36884705002774           A200 200 0 0 1 301.31574004507905 93.83443435138696" fill = "none" stroke = "black" stroke-width = "7" />
  <path d="M101.31574004507877 440.2445958651623           A200 200 0 0 1 128.11065928819104 340.2445958651623" fill = "none" stroke = "black" stroke-width = "7" />
  <path d="M128.11065928819104 340.2445958651623           A200 200 0 0 1 201.31574004507883 267.03951510827454" fill = "none" stroke = "black" stroke-width = "7" />
  <path d="M201.31574004507883 267.03951510827454           A200 200 0 0 1 301.3157400450787 240.2445958651623" fill = "none" stroke = "black" stroke-width = "7" />
  <path d="M353.0795490655828 247.05943060734862           A200 200 0 0 1 377.85242651809676 255.46868936290497" fill = "none" stroke = "black" stroke-width = "7" />
  <path d="M301.3157400450787 240.2445958651623           A200 200 0 0 1 353.0795490655828 247.05943060734862" fill = "none" stroke = "black" stroke-width = "7" />
  <path d="M423.06802584682276 281.57392780691515           A200 200 0 0 1 459.98640810332563 318.49231006341796" fill = "none" stroke = "black" stroke-width = "7" />
  <path d="M459.98640810332563 318.49231006341796           A200 200 0 0 1 486.09164654733604 363.7079093921441" fill = "none" stroke = "black" stroke-width = "7" />
  <path d="M486.09164654733604 363.7079093921441           A200 200 0 0 1 499.6047123198408 414.1393574211516" fill = "none" stroke = "black" stroke-width = "7" />
  <path d="M499.6047123198408 414.1393574211518           A200 200 0 0 1 501.31574004507877 440.24459586516224" fill = "none" stroke = "black" stroke-width = "7" />
<circle cx="501" cy = "440" r = "7" stroke = "black" stroke-width = "7" fill = "black" />
<circle cx="101" cy = "440" r = "7" stroke = "black" stroke-width = "7" fill = "black" />
<circle cx="101" cy = "440" r = "7" stroke = "black" stroke-width = "7" fill = "black" />
<circle cx="301" cy = "94" r = "7" stroke = "black" stroke-width = "7" fill = "black" />
</svg>