<svg width="400" height="400" viewbox = "0 0 400 400"  xmlns="http://www.w3.org/2000/svg">

<!--
<topfunctions>




function YofX(){
    X = plotparams.g*(x - plotparams.x0) - funcparams.X0;
    Y = 0.5*(1 + Math.tanh(X));
    y = plotparams.y0 - plotparams.G*(Y - funcparams.Y0);
}



function plotfunction(){

/*plot one function:*/
    currentStroke = "red";
    currentLineWidth = 1;
    ctx.strokeStyle = currentStroke;
    ctx.lineWidth = currentLineWidth;
    ctx.beginPath();	
    x = 0;
    YofX();
    currentSVG += "	<path d = \"M";
    currentSVG += Math.round(x).toString() + " ";
    currentSVG += Math.round(y).toString() + " ";
    for(x = 1;x < plotparams.plotwidth;x++){
        YofX();
        ctx.lineTo(x,y);
        currentSVG += "L" + x + " " + y + " ";
    }

    ctx.lineTo(400,400);
    currentSVG += "L" + "400" + " " + "400" + " ";
    ctx.lineTo(0,400);
    currentSVG += "L" + "0" + " " + "400" + " ";
    ctx.lineTo(0,plotparams.y0);
    currentSVG += "L" + "0" + " " + plotparams.y0.toString() + " ";
    ctx.fillStyle = "red";
    ctx.fill();		
    ctx.closePath();
    ctx.stroke();		

    currentSVG += "Z\""+ " stroke = \"" + currentStroke + "\" stroke-width = \"" + currentLineWidth.toString() + "\" fill = \"" + "red" + "\" "+"/>";
    /*finish plot one function*/


    /*plot one function:*/
    currentStroke = "black";
    currentLineWidth = 6;
    ctx.strokeStyle = currentStroke;
    ctx.lineWidth = currentLineWidth;
    ctx.beginPath();	
    x = 0;
    YofX();
    currentSVG += "	<path d = \"M";
    currentSVG += Math.round(x).toString() + " ";
    currentSVG += Math.round(y).toString() + " ";
    for(x = 1;x < plotparams.plotwidth;x++){
        ctx.moveTo(x-1,y);
        YofX();
        ctx.lineTo(x,y);
        currentSVG += "L" + x + " " + y + " ";
    }
    ctx.stroke();
    currentSVG += "\""+ " stroke = \"" + currentStroke + "\" stroke-width = \"" + currentLineWidth.toString() + "\" fill = \"" + "none" + "\" "+"/>";
    /*finish plot one function*/
    
    

}



</topfunctions>
-->

<!--
<imgurl>

</imgurl>
-->

<!--
<currentjson>
{
    "constants": {},
    "imgurl": "",
    "plotparams": {
        "G": 83.30146206611592,
        "g": 0.07513148009015776,
        "duration": 545.4545454545454,
        "plotwidth": 400,
        "plotheight": 400,
        "x0": 200,
        "y0": 395.29490637735125
    },
    "funcparams": {
        "a": 0.12727272727272726,
        "b": 0,
        "c": 0,
        "X0": 0,
        "Y0": 0
    }
}
</currentjson>
-->

<!--
<equation>





<h2>Filled Fermi Function</h2>
<p style="color:blue">

</p><p class="bigeq">
$$
Y = \frac{1}{2}(\tanh{X} + 1)$$
</p>
<p></p>

$$
X = g(x - x_0) - X_0
$$
$$
Y = f(X)
$$
    
$$
y = y_0 - G(Y - Y_0)
$$


<p>
    X and Y, and $X_0$ and $Y_0$ in physical units of the System. x and y and x0 and y0 in pixels.  G is in pixels per Y unit and g is in X units per pixel. 
</p>






</equation>
-->
	<path d = "M0 395 L1 395.29490637734267 L2 395.29490637734125 L3 395.29490637733966 L4 395.2949063773378 L5 395.29490637733556 L6 395.294906377333 L7 395.2949063773301 L8 395.29490637732664 L9 395.29490637732266 L10 395.294906377318 L11 395.29490637731266 L12 395.29490637730635 L13 395.29490637729907 L14 395.29490637729066 L15 395.2949063772808 L16 395.2949063772694 L17 395.2949063772561 L18 395.2949063772407 L19 395.29490637722273 L20 395.2949063772019 L21 395.2949063771777 L22 395.2949063771496 L23 395.2949063771169 L24 395.29490637707886 L25 395.2949063770347 L26 395.29490637698336 L27 395.29490637692373 L28 395.29490637685444 L29 395.29490637677384 L30 395.2949063766802 L31 395.2949063765714 L32 395.294906376445 L33 395.29490637629806 L34 395.2949063761273 L35 395.29490637592886 L36 395.29490637569825 L37 395.29490637543023 L38 395.2949063751187 L39 395.29490637475675 L40 395.29490637433605 L41 395.2949063738472 L42 395.29490637327905 L43 395.29490637261875 L44 395.2949063718515 L45 395.2949063709597 L46 395.2949063699234 L47 395.29490636871907 L48 395.2949063673194 L49 395.2949063656929 L50 395.29490636380257 L51 395.2949063616058 L52 395.29490635905285 L53 395.29490635608596 L54 395.294906352638 L55 395.294906348631 L56 395.2949063439743 L57 395.29490633856255 L58 395.2949063322734 L59 395.2949063249645 L60 395.2949063164705 L61 395.2949063065993 L62 395.2949062951276 L63 395.2949062817958 L64 395.2949062663025 L65 395.2949062482971 L66 395.2949062273723 L67 395.29490620305467 L68 395.2949061747943 L69 395.29490614195174 L70 395.2949061037841 L71 395.294906059428 L72 395.29490600787994 L73 395.294905947974 L74 395.2949058783548 L75 395.29490579744765 L76 395.29490570342216 L77 395.2949055941515 L78 395.29490546716363 L79 395.29490531958595 L80 395.2949051480801 L81 395.2949049487663 L82 395.29490471713586 L83 395.2949044479489 L84 395.294904135116 L85 395.2949037715604 L86 395.2949033490581 L87 395.2949028580512 L88 395.29490228743265 L89 395.2949016242941 L90 395.29490085363443 L91 395.29489995802015 L92 395.2948989171912 L93 395.29489770760244 L94 395.2948963018913 L95 395.2948946682585 L96 395.29489276974886 L97 395.2948905634153 L98 395.2948879993475 L99 395.29488501954245 L100 395.29488155659266 L101 395.29487753216125 L102 395.2948728552098 L103 395.29486741993907 L104 395.29486110339553 L105 395.2948537626901 L106 395.29484523176575 L107 395.2948353176413 L108 395.29482379604565 L109 395.29481040634477 L110 395.29479484564587 L111 395.29477676194574 L112 395.2947557461679 L113 395.29473132290946 L114 395.2947029396867 L115 395.2946699544383 L116 395.29463162100114 L117 395.2945870722325 L118 395.29453530039535 L119 395.2944751343638 L120 395.29440521313313 L121 395.2943239550356 L122 395.29422952196575 L123 395.29411977780586 L124 395.29399224011325 L125 395.2938440239754 L126 395.29367177676545 L127 395.29347160232237 L128 395.29323897284405 L129 395.29296862650125 L130 395.2926544484614 L131 395.29228933263477 L132 395.29186502102266 L133 395.2913719170419 L134 395.2907988686154 L135 395.29013291613796 L136 395.2893589996377 L137 395.28845961853915 L138 395.2874144363706 L139 395.2861998215287 L140 395.2847883137844 L141 395.2831480045606 L142 395.2812418170967 L143 395.2790266703956 L144 395.2764525082844 L145 395.27346117195304 L146 395.26998509090924 L147 395.265945763336 L148 395.26125199228284 L149 395.2557978388806 L150 395.2494602477496 L151 395.24209629286867 L152 395.23353998427837 L153 395.2235985669917 L154 395.2120482332535 L155 395.19862915771336 L156 395.18303975203804 L157 395.164930020898 L158 395.14389388505765 L159 395.1194603194725 L160 395.0910831349258 L161 395.0581292110273 L162 395.01986496672544 L163 394.9754408324888 L164 394.9238734669864 L165 394.86402544190884 L166 394.7945821036531 L167 394.71402531293984 L168 394.6206037671808 L169 394.5122996311726 L170 394.3867912469523 L171 394.2414117732165 L172 394.073103731217 L173 393.8783696234606 L174 393.65321906350545 L175 393.3931132331923 L176 393.09290799483944 L177 392.74679765972286 L178 392.34826227996774 L179 391.89002241364363 L180 391.3640066254136 L181 390.76133851768446 L182 390.0723517914938 L183 389.2866436050662 L184 388.39317814036536 L185 387.380453504461 L186 386.2367454545531 L187 384.95044038179566 L188 383.5104668545967 L189 381.90682911938035 L190 380.1312367289699 L191 378.1778117219786 L192 376.04383897471394 L193 373.7305079077043 L194 371.24357720846706 L195 368.59388224616475 L196 365.79760158486914 L197 362.8762082365988 L198 359.85605511779994 L199 356.76758168586537 L200 353.6441753442933 L201 350.5207690027212 L202 347.43229557078666 L203 344.4121424519878 L204 341.4907491037174 L205 338.6944684424218 L206 336.04477348011955 L207 333.55784278088225 L208 331.24451171387267 L209 329.1105389666079 L210 327.15711395961665 L211 325.38152156920626 L212 323.7778838339899 L213 322.3379103067909 L214 321.0516052340335 L215 319.9078971841256 L216 318.89517254822124 L217 318.00170708352033 L218 317.2159988970928 L219 316.5270121709021 L220 315.92434406317295 L221 315.39832827494297 L222 314.94008840861886 L223 314.54155302886375 L224 314.19544269374717 L225 313.8952374553943 L226 313.63513162508116 L227 313.409981065126 L228 313.21524695736963 L229 313.0469389153701 L230 312.9015594416343 L231 312.776051057414 L232 312.66774692140575 L233 312.5743253756467 L234 312.4937685849335 L235 312.4243252466777 L236 312.36447722160017 L237 312.3129098560978 L238 312.26848572186117 L239 312.2302214775593 L240 312.1972675536608 L241 312.1688903691141 L242 312.1444568035289 L243 312.1234206676886 L244 312.10531093654856 L245 312.08972153087325 L246 312.0763024553331 L247 312.0647521215949 L248 312.05481070430824 L249 312.04625439571794 L250 312.038890440837 L251 312.032552849706 L252 312.02709869630377 L253 312.0224049252506 L254 312.01836559767736 L255 312.01488951663356 L256 312.0118981803022 L257 312.009324018191 L258 312.0071088714899 L259 312.005202684026 L260 312.0035623748022 L261 312.0021508670579 L262 312.000936252216 L263 311.99989107004745 L264 311.9989916889489 L265 311.99821777244864 L266 311.9975518199712 L267 311.9969787715447 L268 311.99648566756395 L269 311.99606135595184 L270 311.9956962401252 L271 311.99538206208535 L272 311.99511171574255 L273 311.9948790862642 L274 311.99467891182115 L275 311.9945066646112 L276 311.99435844847335 L277 311.99423091078074 L278 311.99412116662086 L279 311.994026733551 L280 311.9939454754535 L281 311.9938755542228 L282 311.99381538819125 L283 311.99376361635404 L284 311.99371906758546 L285 311.99368073414826 L286 311.9936477488999 L287 311.99361936567715 L288 311.99359494241867 L289 311.99357392664086 L290 311.99355584294074 L291 311.99354028224184 L292 311.99352689254096 L293 311.9935153709453 L294 311.9935054568208 L295 311.99349692589647 L296 311.99348958519107 L297 311.9934832686475 L298 311.9934778333768 L299 311.99347315642535 L300 311.99346913199395 L301 311.9934656690441 L302 311.9934626892391 L303 311.9934601251712 L304 311.99345791883775 L305 311.9934560203281 L306 311.99345438669525 L307 311.9934529809841 L308 311.99345177139537 L309 311.99345073056645 L310 311.9934498349522 L311 311.99344906429246 L312 311.99344840115396 L313 311.9934478305354 L314 311.99344733952853 L315 311.9934469170262 L316 311.99344655347056 L317 311.9934462406377 L318 311.9934459714507 L319 311.99344573982023 L320 311.99344554050646 L321 311.9934453690006 L322 311.993445221423 L323 311.9934450944351 L324 311.9934449851644 L325 311.99344489113895 L326 311.9934448102318 L327 311.99344474061263 L328 311.9934446807066 L329 311.9934446291586 L330 311.9934445848025 L331 311.99344454663486 L332 311.99344451379227 L333 311.9934444855319 L334 311.9934444612143 L335 311.9934444402895 L336 311.9934444222841 L337 311.9934444067908 L338 311.993444393459 L339 311.99344438198733 L340 311.99344437211613 L341 311.99344436362213 L342 311.9934443563132 L343 311.99344435002405 L344 311.99344434461227 L345 311.9934443399556 L346 311.9934443359486 L347 311.99344433250064 L348 311.99344432953376 L349 311.9934443269808 L350 311.993444324784 L351 311.9934443228937 L352 311.99344432126713 L353 311.99344431986754 L354 311.9934443186632 L355 311.9934443176269 L356 311.9934443167351 L357 311.9934443159678 L358 311.99344431530756 L359 311.9934443147394 L360 311.9934443142505 L361 311.99344431382985 L362 311.9934443134679 L363 311.9934443131564 L364 311.99344431288836 L365 311.99344431265774 L366 311.99344431245925 L367 311.9934443122885 L368 311.9934443121416 L369 311.99344431201513 L370 311.99344431190633 L371 311.9934443118127 L372 311.99344431173216 L373 311.99344431166287 L374 311.9934443116032 L375 311.9934443115519 L376 311.9934443115077 L377 311.9934443114697 L378 311.99344431143703 L379 311.9934443114089 L380 311.9934443113847 L381 311.9934443113638 L382 311.9934443113459 L383 311.99344431133045 L384 311.9934443113172 L385 311.9934443113058 L386 311.99344431129595 L387 311.9934443112875 L388 311.9934443112802 L389 311.99344431127395 L390 311.9934443112686 L391 311.99344431126394 L392 311.99344431125996 L393 311.9934443112565 L394 311.99344431125354 L395 311.993444311251 L396 311.9934443112488 L397 311.99344431124695 L398 311.9934443112453 L399 311.99344431124393 L400 400 L0 400 L0 395.29490637735125 Z" stroke = "red" stroke-width = "1" fill = "red" />	<path d = "M0 395 L1 395.29490637734267 L2 395.29490637734125 L3 395.29490637733966 L4 395.2949063773378 L5 395.29490637733556 L6 395.294906377333 L7 395.2949063773301 L8 395.29490637732664 L9 395.29490637732266 L10 395.294906377318 L11 395.29490637731266 L12 395.29490637730635 L13 395.29490637729907 L14 395.29490637729066 L15 395.2949063772808 L16 395.2949063772694 L17 395.2949063772561 L18 395.2949063772407 L19 395.29490637722273 L20 395.2949063772019 L21 395.2949063771777 L22 395.2949063771496 L23 395.2949063771169 L24 395.29490637707886 L25 395.2949063770347 L26 395.29490637698336 L27 395.29490637692373 L28 395.29490637685444 L29 395.29490637677384 L30 395.2949063766802 L31 395.2949063765714 L32 395.294906376445 L33 395.29490637629806 L34 395.2949063761273 L35 395.29490637592886 L36 395.29490637569825 L37 395.29490637543023 L38 395.2949063751187 L39 395.29490637475675 L40 395.29490637433605 L41 395.2949063738472 L42 395.29490637327905 L43 395.29490637261875 L44 395.2949063718515 L45 395.2949063709597 L46 395.2949063699234 L47 395.29490636871907 L48 395.2949063673194 L49 395.2949063656929 L50 395.29490636380257 L51 395.2949063616058 L52 395.29490635905285 L53 395.29490635608596 L54 395.294906352638 L55 395.294906348631 L56 395.2949063439743 L57 395.29490633856255 L58 395.2949063322734 L59 395.2949063249645 L60 395.2949063164705 L61 395.2949063065993 L62 395.2949062951276 L63 395.2949062817958 L64 395.2949062663025 L65 395.2949062482971 L66 395.2949062273723 L67 395.29490620305467 L68 395.2949061747943 L69 395.29490614195174 L70 395.2949061037841 L71 395.294906059428 L72 395.29490600787994 L73 395.294905947974 L74 395.2949058783548 L75 395.29490579744765 L76 395.29490570342216 L77 395.2949055941515 L78 395.29490546716363 L79 395.29490531958595 L80 395.2949051480801 L81 395.2949049487663 L82 395.29490471713586 L83 395.2949044479489 L84 395.294904135116 L85 395.2949037715604 L86 395.2949033490581 L87 395.2949028580512 L88 395.29490228743265 L89 395.2949016242941 L90 395.29490085363443 L91 395.29489995802015 L92 395.2948989171912 L93 395.29489770760244 L94 395.2948963018913 L95 395.2948946682585 L96 395.29489276974886 L97 395.2948905634153 L98 395.2948879993475 L99 395.29488501954245 L100 395.29488155659266 L101 395.29487753216125 L102 395.2948728552098 L103 395.29486741993907 L104 395.29486110339553 L105 395.2948537626901 L106 395.29484523176575 L107 395.2948353176413 L108 395.29482379604565 L109 395.29481040634477 L110 395.29479484564587 L111 395.29477676194574 L112 395.2947557461679 L113 395.29473132290946 L114 395.2947029396867 L115 395.2946699544383 L116 395.29463162100114 L117 395.2945870722325 L118 395.29453530039535 L119 395.2944751343638 L120 395.29440521313313 L121 395.2943239550356 L122 395.29422952196575 L123 395.29411977780586 L124 395.29399224011325 L125 395.2938440239754 L126 395.29367177676545 L127 395.29347160232237 L128 395.29323897284405 L129 395.29296862650125 L130 395.2926544484614 L131 395.29228933263477 L132 395.29186502102266 L133 395.2913719170419 L134 395.2907988686154 L135 395.29013291613796 L136 395.2893589996377 L137 395.28845961853915 L138 395.2874144363706 L139 395.2861998215287 L140 395.2847883137844 L141 395.2831480045606 L142 395.2812418170967 L143 395.2790266703956 L144 395.2764525082844 L145 395.27346117195304 L146 395.26998509090924 L147 395.265945763336 L148 395.26125199228284 L149 395.2557978388806 L150 395.2494602477496 L151 395.24209629286867 L152 395.23353998427837 L153 395.2235985669917 L154 395.2120482332535 L155 395.19862915771336 L156 395.18303975203804 L157 395.164930020898 L158 395.14389388505765 L159 395.1194603194725 L160 395.0910831349258 L161 395.0581292110273 L162 395.01986496672544 L163 394.9754408324888 L164 394.9238734669864 L165 394.86402544190884 L166 394.7945821036531 L167 394.71402531293984 L168 394.6206037671808 L169 394.5122996311726 L170 394.3867912469523 L171 394.2414117732165 L172 394.073103731217 L173 393.8783696234606 L174 393.65321906350545 L175 393.3931132331923 L176 393.09290799483944 L177 392.74679765972286 L178 392.34826227996774 L179 391.89002241364363 L180 391.3640066254136 L181 390.76133851768446 L182 390.0723517914938 L183 389.2866436050662 L184 388.39317814036536 L185 387.380453504461 L186 386.2367454545531 L187 384.95044038179566 L188 383.5104668545967 L189 381.90682911938035 L190 380.1312367289699 L191 378.1778117219786 L192 376.04383897471394 L193 373.7305079077043 L194 371.24357720846706 L195 368.59388224616475 L196 365.79760158486914 L197 362.8762082365988 L198 359.85605511779994 L199 356.76758168586537 L200 353.6441753442933 L201 350.5207690027212 L202 347.43229557078666 L203 344.4121424519878 L204 341.4907491037174 L205 338.6944684424218 L206 336.04477348011955 L207 333.55784278088225 L208 331.24451171387267 L209 329.1105389666079 L210 327.15711395961665 L211 325.38152156920626 L212 323.7778838339899 L213 322.3379103067909 L214 321.0516052340335 L215 319.9078971841256 L216 318.89517254822124 L217 318.00170708352033 L218 317.2159988970928 L219 316.5270121709021 L220 315.92434406317295 L221 315.39832827494297 L222 314.94008840861886 L223 314.54155302886375 L224 314.19544269374717 L225 313.8952374553943 L226 313.63513162508116 L227 313.409981065126 L228 313.21524695736963 L229 313.0469389153701 L230 312.9015594416343 L231 312.776051057414 L232 312.66774692140575 L233 312.5743253756467 L234 312.4937685849335 L235 312.4243252466777 L236 312.36447722160017 L237 312.3129098560978 L238 312.26848572186117 L239 312.2302214775593 L240 312.1972675536608 L241 312.1688903691141 L242 312.1444568035289 L243 312.1234206676886 L244 312.10531093654856 L245 312.08972153087325 L246 312.0763024553331 L247 312.0647521215949 L248 312.05481070430824 L249 312.04625439571794 L250 312.038890440837 L251 312.032552849706 L252 312.02709869630377 L253 312.0224049252506 L254 312.01836559767736 L255 312.01488951663356 L256 312.0118981803022 L257 312.009324018191 L258 312.0071088714899 L259 312.005202684026 L260 312.0035623748022 L261 312.0021508670579 L262 312.000936252216 L263 311.99989107004745 L264 311.9989916889489 L265 311.99821777244864 L266 311.9975518199712 L267 311.9969787715447 L268 311.99648566756395 L269 311.99606135595184 L270 311.9956962401252 L271 311.99538206208535 L272 311.99511171574255 L273 311.9948790862642 L274 311.99467891182115 L275 311.9945066646112 L276 311.99435844847335 L277 311.99423091078074 L278 311.99412116662086 L279 311.994026733551 L280 311.9939454754535 L281 311.9938755542228 L282 311.99381538819125 L283 311.99376361635404 L284 311.99371906758546 L285 311.99368073414826 L286 311.9936477488999 L287 311.99361936567715 L288 311.99359494241867 L289 311.99357392664086 L290 311.99355584294074 L291 311.99354028224184 L292 311.99352689254096 L293 311.9935153709453 L294 311.9935054568208 L295 311.99349692589647 L296 311.99348958519107 L297 311.9934832686475 L298 311.9934778333768 L299 311.99347315642535 L300 311.99346913199395 L301 311.9934656690441 L302 311.9934626892391 L303 311.9934601251712 L304 311.99345791883775 L305 311.9934560203281 L306 311.99345438669525 L307 311.9934529809841 L308 311.99345177139537 L309 311.99345073056645 L310 311.9934498349522 L311 311.99344906429246 L312 311.99344840115396 L313 311.9934478305354 L314 311.99344733952853 L315 311.9934469170262 L316 311.99344655347056 L317 311.9934462406377 L318 311.9934459714507 L319 311.99344573982023 L320 311.99344554050646 L321 311.9934453690006 L322 311.993445221423 L323 311.9934450944351 L324 311.9934449851644 L325 311.99344489113895 L326 311.9934448102318 L327 311.99344474061263 L328 311.9934446807066 L329 311.9934446291586 L330 311.9934445848025 L331 311.99344454663486 L332 311.99344451379227 L333 311.9934444855319 L334 311.9934444612143 L335 311.9934444402895 L336 311.9934444222841 L337 311.9934444067908 L338 311.993444393459 L339 311.99344438198733 L340 311.99344437211613 L341 311.99344436362213 L342 311.9934443563132 L343 311.99344435002405 L344 311.99344434461227 L345 311.9934443399556 L346 311.9934443359486 L347 311.99344433250064 L348 311.99344432953376 L349 311.9934443269808 L350 311.993444324784 L351 311.9934443228937 L352 311.99344432126713 L353 311.99344431986754 L354 311.9934443186632 L355 311.9934443176269 L356 311.9934443167351 L357 311.9934443159678 L358 311.99344431530756 L359 311.9934443147394 L360 311.9934443142505 L361 311.99344431382985 L362 311.9934443134679 L363 311.9934443131564 L364 311.99344431288836 L365 311.99344431265774 L366 311.99344431245925 L367 311.9934443122885 L368 311.9934443121416 L369 311.99344431201513 L370 311.99344431190633 L371 311.9934443118127 L372 311.99344431173216 L373 311.99344431166287 L374 311.9934443116032 L375 311.9934443115519 L376 311.9934443115077 L377 311.9934443114697 L378 311.99344431143703 L379 311.9934443114089 L380 311.9934443113847 L381 311.9934443113638 L382 311.9934443113459 L383 311.99344431133045 L384 311.9934443113172 L385 311.9934443113058 L386 311.99344431129595 L387 311.9934443112875 L388 311.9934443112802 L389 311.99344431127395 L390 311.9934443112686 L391 311.99344431126394 L392 311.99344431125996 L393 311.9934443112565 L394 311.99344431125354 L395 311.993444311251 L396 311.9934443112488 L397 311.99344431124695 L398 311.9934443112453 L399 311.99344431124393 " stroke = "black" stroke-width = "6" fill = "none" /></svg>