<svg width="400" height="400" viewbox = "0 0 400 400"  xmlns="http://www.w3.org/2000/svg">

<!--
<topfunctions>




function YofX(){
    X = plotparams.g*(x - plotparams.x0) - funcparams.X0;
    Y = 0.5*(1 + Math.tanh(X));
    y = plotparams.y0 - plotparams.G*(Y - funcparams.Y0);
}



function plotfunction(){

/*plot one function:*/
    currentStroke = "red";
    currentLineWidth = 1;
    ctx.strokeStyle = currentStroke;
    ctx.lineWidth = currentLineWidth;
    ctx.beginPath();	
    x = 0;
    YofX();
    currentSVG += "	<path d = \"M";
    currentSVG += Math.round(x).toString() + " ";
    currentSVG += Math.round(y).toString() + " ";
    for(x = 1;x < plotparams.plotwidth;x++){
        YofX();
        ctx.lineTo(x,y);
        currentSVG += "L" + x + " " + y + " ";
    }

    ctx.lineTo(400,400);
    currentSVG += "L" + "400" + " " + "400" + " ";
    ctx.lineTo(0,400);
    currentSVG += "L" + "0" + " " + "400" + " ";
    ctx.lineTo(0,200);
    currentSVG += "L" + "0" + " " + "200" + " ";
    ctx.fillStyle = "red";
    ctx.fill();		
    ctx.closePath();
    ctx.stroke();		

    currentSVG += "Z\""+ " stroke = \"" + currentStroke + "\" stroke-width = \"" + currentLineWidth.toString() + "\" fill = \"" + "red" + "\" "+"/>";
    /*finish plot one function*/


    /*plot one function:*/
    currentStroke = "black";
    currentLineWidth = 6;
    ctx.strokeStyle = currentStroke;
    ctx.lineWidth = currentLineWidth;
    ctx.beginPath();	
    x = 0;
    YofX();
    currentSVG += "	<path d = \"M";
    currentSVG += Math.round(x).toString() + " ";
    currentSVG += Math.round(y).toString() + " ";
    for(x = 1;x < plotparams.plotwidth;x++){
        ctx.moveTo(x-1,y);
        YofX();
        ctx.lineTo(x,y);
        currentSVG += "L" + x + " " + y + " ";
    }
    ctx.stroke();
    currentSVG += "\""+ " stroke = \"" + currentStroke + "\" stroke-width = \"" + currentLineWidth.toString() + "\" fill = \"" + "none" + "\" "+"/>";
    /*finish plot one function*/
    
    

}



</topfunctions>
-->

<!--
<imgurl>

</imgurl>
-->

<!--
<currentjson>
{
    "constants": {},
    "imgurl": "",
    "plotparams": {
        "G": 83.30146206611592,
        "g": 0.07513148009015776,
        "duration": 545.4545454545454,
        "plotwidth": 400,
        "plotheight": 400,
        "x0": 200,
        "y0": 354.31220000000025
    },
    "funcparams": {
        "a": 0.12727272727272726,
        "b": 0,
        "c": 0,
        "X0": 0,
        "Y0": 0
    }
}
</currentjson>
-->

<!--
<equation>





<h2>Filled Fermi Function</h2>
<p style="color:blue">

</p><p class="bigeq">
$$
Y = \frac{1}{2}(\tanh{X} + 1)$$
</p>
<p></p>

$$
X = g(x - x_0) - X_0
$$
$$
Y = f(X)
$$
    
$$
y = y_0 - G(Y - Y_0)
$$


<p>
    X and Y, and $X_0$ and $Y_0$ in physical units of the System. x and y and x0 and y0 in pixels.  G is in pixels per Y unit and g is in X units per pixel. 
</p>






</equation>
-->
	<path d = "M0 354 L1 354.31219999999166 L2 354.31219999999024 L3 354.31219999998865 L4 354.3121999999868 L5 354.31219999998456 L6 354.312199999982 L7 354.3121999999791 L8 354.31219999997563 L9 354.31219999997165 L10 354.312199999967 L11 354.31219999996165 L12 354.31219999995534 L13 354.31219999994806 L14 354.31219999993965 L15 354.3121999999298 L16 354.3121999999184 L17 354.3121999999051 L18 354.3121999998897 L19 354.3121999998717 L20 354.3121999998509 L21 354.3121999998267 L22 354.31219999979857 L23 354.3121999997659 L24 354.31219999972785 L25 354.3121999996837 L26 354.31219999963236 L27 354.3121999995727 L28 354.31219999950343 L29 354.31219999942283 L30 354.3121999993292 L31 354.3121999992204 L32 354.312199999094 L33 354.31219999894705 L34 354.3121999987763 L35 354.31219999857785 L36 354.31219999834724 L37 354.3121999980792 L38 354.3121999977677 L39 354.31219999740574 L40 354.31219999698504 L41 354.3121999964962 L42 354.31219999592804 L43 354.31219999526775 L44 354.3121999945005 L45 354.3121999936087 L46 354.3121999925724 L47 354.31219999136806 L48 354.3121999899684 L49 354.3121999883419 L50 354.31219998645156 L51 354.3121999842548 L52 354.31219998170184 L53 354.31219997873495 L54 354.312199975287 L55 354.31219997128 L56 354.31219996662327 L57 354.31219996121155 L58 354.3121999549224 L59 354.31219994761346 L60 354.31219993911947 L61 354.31219992924827 L62 354.3121999177766 L63 354.3121999044448 L64 354.3121998889515 L65 354.3121998709461 L66 354.3121998500213 L67 354.31219982570366 L68 354.31219979744327 L69 354.31219976460073 L70 354.3121997264331 L71 354.312199682077 L72 354.31219963052894 L73 354.31219957062297 L74 354.3121995010038 L75 354.31219942009665 L76 354.31219932607115 L77 354.3121992168005 L78 354.3121990898126 L79 354.31219894223494 L80 354.3121987707291 L81 354.3121985714153 L82 354.31219833978486 L83 354.3121980705979 L84 354.312197757765 L85 354.3121973942094 L86 354.31219697170707 L87 354.3121964807002 L88 354.31219591008164 L89 354.3121952469431 L90 354.3121944762834 L91 354.31219358066915 L92 354.31219253984017 L93 354.31219133025144 L94 354.3121899245403 L95 354.3121882909075 L96 354.31218639239785 L97 354.3121841860643 L98 354.3121816219965 L99 354.31217864219144 L100 354.31217517924165 L101 354.31217115481024 L102 354.3121664778588 L103 354.31216104258806 L104 354.3121547260445 L105 354.3121473853391 L106 354.31213885441474 L107 354.3121289402903 L108 354.31211741869464 L109 354.31210402899376 L110 354.31208846829486 L111 354.31207038459473 L112 354.3120493688169 L113 354.31202494555845 L114 354.3119965623357 L115 354.3119635770873 L116 354.31192524365014 L117 354.3118806948815 L118 354.31182892304435 L119 354.31176875701277 L120 354.3116988357821 L121 354.3116175776846 L122 354.31152314461474 L123 354.31141340045485 L124 354.31128586276225 L125 354.3111376466244 L126 354.31096539941444 L127 354.31076522497136 L128 354.31053259549304 L129 354.31026224915024 L130 354.3099480711104 L131 354.30958295528376 L132 354.30915864367165 L133 354.3086655396909 L134 354.3080924912644 L135 354.30742653878696 L136 354.3066526222867 L137 354.30575324118814 L138 354.3047080590196 L139 354.3034934441777 L140 354.3020819364334 L141 354.3004416272096 L142 354.2985354397457 L143 354.2963202930446 L144 354.2937461309334 L145 354.29075479460204 L146 354.28727871355824 L147 354.283239385985 L148 354.27854561493183 L149 354.2730914615296 L150 354.2667538703986 L151 354.25938991551766 L152 354.25083360692736 L153 354.2408921896407 L154 354.2293418559025 L155 354.21592278036235 L156 354.20033337468703 L157 354.182223643547 L158 354.16118750770664 L159 354.1367539421215 L160 354.1083767575748 L161 354.07542283367627 L162 354.0371585893744 L163 353.9927344551378 L164 353.94116708963537 L165 353.88131906455783 L166 353.8118757263021 L167 353.73131893558883 L168 353.6378973898298 L169 353.5295932538216 L170 353.4040848696013 L171 353.2587053958655 L172 353.09039735386597 L173 352.8956632461096 L174 352.67051268615444 L175 352.4104068558413 L176 352.1102016174884 L177 351.76409128237185 L178 351.36555590261673 L179 350.9073160362926 L180 350.3813002480626 L181 349.77863214033346 L182 349.0896454141428 L183 348.3039372277152 L184 347.41047176301436 L185 346.39774712711 L186 345.2540390772021 L187 343.96773400444465 L188 342.5277604772457 L189 340.92412274202934 L190 339.1485303516189 L191 337.1951053446276 L192 335.0611325973629 L193 332.7478015303533 L194 330.26087083111605 L195 327.61117586881375 L196 324.81489520751813 L197 321.89350185924775 L198 318.87334874044893 L199 315.7848753085144 L200 312.66146896694227 L201 309.5380626253702 L202 306.44958919343566 L203 303.4294360746368 L204 300.5080427263664 L205 297.71176206507084 L206 295.06206710276854 L207 292.57513640353125 L208 290.26180533652166 L209 288.1278325892569 L210 286.17440758226564 L211 284.39881519185525 L212 282.79517745663884 L213 281.3552039294399 L214 280.0688988566825 L215 278.9251908067746 L216 277.9124661708702 L217 277.0190007061693 L218 276.2332925197418 L219 275.5443057935511 L220 274.941637685822 L221 274.41562189759196 L222 273.95738203126785 L223 273.55884665151274 L224 273.2127363163961 L225 272.9125310780433 L226 272.65242524773015 L227 272.42727468777497 L228 272.2325405800186 L229 272.0642325380191 L230 271.91885306428327 L231 271.793344680063 L232 271.6850405440548 L233 271.59161899829576 L234 271.5110622075825 L235 271.4416188693267 L236 271.3817708442492 L237 271.3302034787468 L238 271.28577934451016 L239 271.24751510020826 L240 271.2145611763098 L241 271.1861839917631 L242 271.1617504261779 L243 271.1407142903376 L244 271.1226045591975 L245 271.10701515352224 L246 271.0935960779821 L247 271.0820457442439 L248 271.0721043269572 L249 271.0635480183669 L250 271.05618406348594 L251 271.049846472355 L252 271.04439231895276 L253 271.0396985478996 L254 271.03565922032635 L255 271.03218313928255 L256 271.0291918029512 L257 271.02661764083996 L258 271.0244024941389 L259 271.02249630667495 L260 271.0208559974512 L261 271.01944448970687 L262 271.01822987486497 L263 271.01718469269645 L264 271.01628531159787 L265 271.01551139509763 L266 271.0148454426202 L267 271.0142723941937 L268 271.01377929021294 L269 271.01335497860083 L270 271.0129898627742 L271 271.01267568473435 L272 271.01240533839155 L273 271.0121727089132 L274 271.01197253447015 L275 271.01180028726014 L276 271.01165207112234 L277 271.01152453342974 L278 271.01141478926985 L279 271.0113203561999 L280 271.01123909810246 L281 271.0111691768718 L282 271.0111090108402 L283 271.0110572390031 L284 271.01101269023445 L285 271.0109743567973 L286 271.0109413715488 L287 271.01091298832614 L288 271.01088856506766 L289 271.01086754928986 L290 271.01084946558973 L291 271.01083390489083 L292 271.01082051518995 L293 271.0108089935943 L294 271.0107990794698 L295 271.01079054854546 L296 271.01078320784006 L297 271.0107768912965 L298 271.01077145602574 L299 271.01076677907434 L300 271.0107627546429 L301 271.01075929169315 L302 271.01075631188803 L303 271.0107537478202 L304 271.01075154148674 L305 271.0107496429771 L306 271.0107480093443 L307 271.0107466036331 L308 271.0107453940444 L309 271.0107443532154 L310 271.01074345760117 L311 271.0107426869415 L312 271.01074202380295 L313 271.0107414531844 L314 271.0107409621775 L315 271.01074053967517 L316 271.0107401761196 L317 271.0107398632867 L318 271.01073959409973 L319 271.0107393624692 L320 271.01073916315545 L321 271.01073899164965 L322 271.01073884407197 L323 271.0107387170841 L324 271.0107386078134 L325 271.01073851378794 L326 271.01073843288077 L327 271.0107383632616 L328 271.0107383033556 L329 271.0107382518076 L330 271.0107382074515 L331 271.01073816928385 L332 271.0107381364413 L333 271.0107381081809 L334 271.0107380838633 L335 271.0107380629385 L336 271.0107380449331 L337 271.0107380294397 L338 271.010738016108 L339 271.0107380046363 L340 271.0107379947651 L341 271.0107379862711 L342 271.0107379789622 L343 271.01073797267304 L344 271.01073796726126 L345 271.0107379626046 L346 271.0107379585976 L347 271.01073795514964 L348 271.01073795218275 L349 271.01073794962974 L350 271.010737947433 L351 271.0107379455427 L352 271.0107379439162 L353 271.0107379425165 L354 271.0107379413122 L355 271.0107379402759 L356 271.0107379393841 L357 271.0107379386168 L358 271.01073793795655 L359 271.0107379373884 L360 271.0107379368995 L361 271.01073793647885 L362 271.01073793611687 L363 271.01073793580537 L364 271.01073793553735 L365 271.01073793530674 L366 271.0107379351083 L367 271.01073793493754 L368 271.01073793479054 L369 271.0107379346641 L370 271.0107379345553 L371 271.0107379344617 L372 271.01073793438115 L373 271.01073793431186 L374 271.01073793425223 L375 271.01073793420085 L376 271.01073793415674 L377 271.0107379341187 L378 271.010737934086 L379 271.01073793405783 L380 271.01073793403367 L381 271.0107379340128 L382 271.0107379339949 L383 271.0107379339795 L384 271.0107379339662 L385 271.0107379339548 L386 271.01073793394494 L387 271.01073793393647 L388 271.0107379339292 L389 271.01073793392294 L390 271.01073793391754 L391 271.01073793391294 L392 271.0107379339089 L393 271.0107379339055 L394 271.01073793390253 L395 271.01073793390003 L396 271.0107379338978 L397 271.01073793389594 L398 271.01073793389435 L399 271.0107379338929 L400 400 L0 400 L0 200 Z" stroke = "red" stroke-width = "1" fill = "red" />	<path d = "M0 354 L1 354.31219999999166 L2 354.31219999999024 L3 354.31219999998865 L4 354.3121999999868 L5 354.31219999998456 L6 354.312199999982 L7 354.3121999999791 L8 354.31219999997563 L9 354.31219999997165 L10 354.312199999967 L11 354.31219999996165 L12 354.31219999995534 L13 354.31219999994806 L14 354.31219999993965 L15 354.3121999999298 L16 354.3121999999184 L17 354.3121999999051 L18 354.3121999998897 L19 354.3121999998717 L20 354.3121999998509 L21 354.3121999998267 L22 354.31219999979857 L23 354.3121999997659 L24 354.31219999972785 L25 354.3121999996837 L26 354.31219999963236 L27 354.3121999995727 L28 354.31219999950343 L29 354.31219999942283 L30 354.3121999993292 L31 354.3121999992204 L32 354.312199999094 L33 354.31219999894705 L34 354.3121999987763 L35 354.31219999857785 L36 354.31219999834724 L37 354.3121999980792 L38 354.3121999977677 L39 354.31219999740574 L40 354.31219999698504 L41 354.3121999964962 L42 354.31219999592804 L43 354.31219999526775 L44 354.3121999945005 L45 354.3121999936087 L46 354.3121999925724 L47 354.31219999136806 L48 354.3121999899684 L49 354.3121999883419 L50 354.31219998645156 L51 354.3121999842548 L52 354.31219998170184 L53 354.31219997873495 L54 354.312199975287 L55 354.31219997128 L56 354.31219996662327 L57 354.31219996121155 L58 354.3121999549224 L59 354.31219994761346 L60 354.31219993911947 L61 354.31219992924827 L62 354.3121999177766 L63 354.3121999044448 L64 354.3121998889515 L65 354.3121998709461 L66 354.3121998500213 L67 354.31219982570366 L68 354.31219979744327 L69 354.31219976460073 L70 354.3121997264331 L71 354.312199682077 L72 354.31219963052894 L73 354.31219957062297 L74 354.3121995010038 L75 354.31219942009665 L76 354.31219932607115 L77 354.3121992168005 L78 354.3121990898126 L79 354.31219894223494 L80 354.3121987707291 L81 354.3121985714153 L82 354.31219833978486 L83 354.3121980705979 L84 354.312197757765 L85 354.3121973942094 L86 354.31219697170707 L87 354.3121964807002 L88 354.31219591008164 L89 354.3121952469431 L90 354.3121944762834 L91 354.31219358066915 L92 354.31219253984017 L93 354.31219133025144 L94 354.3121899245403 L95 354.3121882909075 L96 354.31218639239785 L97 354.3121841860643 L98 354.3121816219965 L99 354.31217864219144 L100 354.31217517924165 L101 354.31217115481024 L102 354.3121664778588 L103 354.31216104258806 L104 354.3121547260445 L105 354.3121473853391 L106 354.31213885441474 L107 354.3121289402903 L108 354.31211741869464 L109 354.31210402899376 L110 354.31208846829486 L111 354.31207038459473 L112 354.3120493688169 L113 354.31202494555845 L114 354.3119965623357 L115 354.3119635770873 L116 354.31192524365014 L117 354.3118806948815 L118 354.31182892304435 L119 354.31176875701277 L120 354.3116988357821 L121 354.3116175776846 L122 354.31152314461474 L123 354.31141340045485 L124 354.31128586276225 L125 354.3111376466244 L126 354.31096539941444 L127 354.31076522497136 L128 354.31053259549304 L129 354.31026224915024 L130 354.3099480711104 L131 354.30958295528376 L132 354.30915864367165 L133 354.3086655396909 L134 354.3080924912644 L135 354.30742653878696 L136 354.3066526222867 L137 354.30575324118814 L138 354.3047080590196 L139 354.3034934441777 L140 354.3020819364334 L141 354.3004416272096 L142 354.2985354397457 L143 354.2963202930446 L144 354.2937461309334 L145 354.29075479460204 L146 354.28727871355824 L147 354.283239385985 L148 354.27854561493183 L149 354.2730914615296 L150 354.2667538703986 L151 354.25938991551766 L152 354.25083360692736 L153 354.2408921896407 L154 354.2293418559025 L155 354.21592278036235 L156 354.20033337468703 L157 354.182223643547 L158 354.16118750770664 L159 354.1367539421215 L160 354.1083767575748 L161 354.07542283367627 L162 354.0371585893744 L163 353.9927344551378 L164 353.94116708963537 L165 353.88131906455783 L166 353.8118757263021 L167 353.73131893558883 L168 353.6378973898298 L169 353.5295932538216 L170 353.4040848696013 L171 353.2587053958655 L172 353.09039735386597 L173 352.8956632461096 L174 352.67051268615444 L175 352.4104068558413 L176 352.1102016174884 L177 351.76409128237185 L178 351.36555590261673 L179 350.9073160362926 L180 350.3813002480626 L181 349.77863214033346 L182 349.0896454141428 L183 348.3039372277152 L184 347.41047176301436 L185 346.39774712711 L186 345.2540390772021 L187 343.96773400444465 L188 342.5277604772457 L189 340.92412274202934 L190 339.1485303516189 L191 337.1951053446276 L192 335.0611325973629 L193 332.7478015303533 L194 330.26087083111605 L195 327.61117586881375 L196 324.81489520751813 L197 321.89350185924775 L198 318.87334874044893 L199 315.7848753085144 L200 312.66146896694227 L201 309.5380626253702 L202 306.44958919343566 L203 303.4294360746368 L204 300.5080427263664 L205 297.71176206507084 L206 295.06206710276854 L207 292.57513640353125 L208 290.26180533652166 L209 288.1278325892569 L210 286.17440758226564 L211 284.39881519185525 L212 282.79517745663884 L213 281.3552039294399 L214 280.0688988566825 L215 278.9251908067746 L216 277.9124661708702 L217 277.0190007061693 L218 276.2332925197418 L219 275.5443057935511 L220 274.941637685822 L221 274.41562189759196 L222 273.95738203126785 L223 273.55884665151274 L224 273.2127363163961 L225 272.9125310780433 L226 272.65242524773015 L227 272.42727468777497 L228 272.2325405800186 L229 272.0642325380191 L230 271.91885306428327 L231 271.793344680063 L232 271.6850405440548 L233 271.59161899829576 L234 271.5110622075825 L235 271.4416188693267 L236 271.3817708442492 L237 271.3302034787468 L238 271.28577934451016 L239 271.24751510020826 L240 271.2145611763098 L241 271.1861839917631 L242 271.1617504261779 L243 271.1407142903376 L244 271.1226045591975 L245 271.10701515352224 L246 271.0935960779821 L247 271.0820457442439 L248 271.0721043269572 L249 271.0635480183669 L250 271.05618406348594 L251 271.049846472355 L252 271.04439231895276 L253 271.0396985478996 L254 271.03565922032635 L255 271.03218313928255 L256 271.0291918029512 L257 271.02661764083996 L258 271.0244024941389 L259 271.02249630667495 L260 271.0208559974512 L261 271.01944448970687 L262 271.01822987486497 L263 271.01718469269645 L264 271.01628531159787 L265 271.01551139509763 L266 271.0148454426202 L267 271.0142723941937 L268 271.01377929021294 L269 271.01335497860083 L270 271.0129898627742 L271 271.01267568473435 L272 271.01240533839155 L273 271.0121727089132 L274 271.01197253447015 L275 271.01180028726014 L276 271.01165207112234 L277 271.01152453342974 L278 271.01141478926985 L279 271.0113203561999 L280 271.01123909810246 L281 271.0111691768718 L282 271.0111090108402 L283 271.0110572390031 L284 271.01101269023445 L285 271.0109743567973 L286 271.0109413715488 L287 271.01091298832614 L288 271.01088856506766 L289 271.01086754928986 L290 271.01084946558973 L291 271.01083390489083 L292 271.01082051518995 L293 271.0108089935943 L294 271.0107990794698 L295 271.01079054854546 L296 271.01078320784006 L297 271.0107768912965 L298 271.01077145602574 L299 271.01076677907434 L300 271.0107627546429 L301 271.01075929169315 L302 271.01075631188803 L303 271.0107537478202 L304 271.01075154148674 L305 271.0107496429771 L306 271.0107480093443 L307 271.0107466036331 L308 271.0107453940444 L309 271.0107443532154 L310 271.01074345760117 L311 271.0107426869415 L312 271.01074202380295 L313 271.0107414531844 L314 271.0107409621775 L315 271.01074053967517 L316 271.0107401761196 L317 271.0107398632867 L318 271.01073959409973 L319 271.0107393624692 L320 271.01073916315545 L321 271.01073899164965 L322 271.01073884407197 L323 271.0107387170841 L324 271.0107386078134 L325 271.01073851378794 L326 271.01073843288077 L327 271.0107383632616 L328 271.0107383033556 L329 271.0107382518076 L330 271.0107382074515 L331 271.01073816928385 L332 271.0107381364413 L333 271.0107381081809 L334 271.0107380838633 L335 271.0107380629385 L336 271.0107380449331 L337 271.0107380294397 L338 271.010738016108 L339 271.0107380046363 L340 271.0107379947651 L341 271.0107379862711 L342 271.0107379789622 L343 271.01073797267304 L344 271.01073796726126 L345 271.0107379626046 L346 271.0107379585976 L347 271.01073795514964 L348 271.01073795218275 L349 271.01073794962974 L350 271.010737947433 L351 271.0107379455427 L352 271.0107379439162 L353 271.0107379425165 L354 271.0107379413122 L355 271.0107379402759 L356 271.0107379393841 L357 271.0107379386168 L358 271.01073793795655 L359 271.0107379373884 L360 271.0107379368995 L361 271.01073793647885 L362 271.01073793611687 L363 271.01073793580537 L364 271.01073793553735 L365 271.01073793530674 L366 271.0107379351083 L367 271.01073793493754 L368 271.01073793479054 L369 271.0107379346641 L370 271.0107379345553 L371 271.0107379344617 L372 271.01073793438115 L373 271.01073793431186 L374 271.01073793425223 L375 271.01073793420085 L376 271.01073793415674 L377 271.0107379341187 L378 271.010737934086 L379 271.01073793405783 L380 271.01073793403367 L381 271.0107379340128 L382 271.0107379339949 L383 271.0107379339795 L384 271.0107379339662 L385 271.0107379339548 L386 271.01073793394494 L387 271.01073793393647 L388 271.0107379339292 L389 271.01073793392294 L390 271.01073793391754 L391 271.01073793391294 L392 271.0107379339089 L393 271.0107379339055 L394 271.01073793390253 L395 271.01073793390003 L396 271.0107379338978 L397 271.01073793389594 L398 271.01073793389435 L399 271.0107379338929 " stroke = "black" stroke-width = "6" fill = "none" /></svg>