<svg width="400" height="400" viewbox = "0 0 400 400"  xmlns="http://www.w3.org/2000/svg">

<!--
<topfunctions>




function YofX(){
    X = plotparams.g*(x - plotparams.x0) - funcparams.X0;
    Y = 0.5*(1 + Math.tanh(X));
    y = plotparams.y0 - plotparams.G*(Y - funcparams.Y0);
}



function plotfunction(){

/*plot one function:*/
    currentStroke = "red";
    currentLineWidth = 1;
    ctx.strokeStyle = currentStroke;
    ctx.lineWidth = currentLineWidth;
    ctx.beginPath();	
    x = 0;
    YofX();
    currentSVG += "	<path d = \"M";
    currentSVG += Math.round(x).toString() + " ";
    currentSVG += Math.round(y).toString() + " ";
    for(x = 1;x < plotparams.plotwidth;x++){
        YofX();
        ctx.lineTo(x,y);
        currentSVG += "L" + x + " " + y + " ";
    }

    ctx.lineTo(400,400);
    ctx.lineTo(0,400);
    ctx.lineTo(0,200);
    ctx.fillStyle = "red";
        ctx.fill();		
    ctx.closePath();
    ctx.stroke();		

    currentSVG += "\""+ " stroke = \"" + currentStroke + "\" stroke-width = \"" + currentLineWidth.toString() + "\" fill = \"" + "red" + "\" "+"/>";
    /*finish plot one function*/


    /*plot one function:*/
    currentStroke = "black";
    currentLineWidth = 6;
    ctx.strokeStyle = currentStroke;
    ctx.lineWidth = currentLineWidth;
    ctx.beginPath();	
    x = 0;
    YofX();
    currentSVG += "	<path d = \"M";
    currentSVG += Math.round(x).toString() + " ";
    currentSVG += Math.round(y).toString() + " ";
    for(x = 1;x < plotparams.plotwidth;x++){
        ctx.moveTo(x-1,y);
        YofX();
        ctx.lineTo(x,y);
        currentSVG += "L" + x + " " + y + " ";
    }
    ctx.stroke();
    currentSVG += "\""+ " stroke = \"" + currentStroke + "\" stroke-width = \"" + currentLineWidth.toString() + "\" fill = \"" + "none" + "\" "+"/>";
    /*finish plot one function*/
    
    

}



</topfunctions>
-->

<!--
<imgurl>

</imgurl>
-->

<!--
<currentjson>
{
    "constants": {},
    "imgurl": "",
    "plotparams": {
        "G": 83.30146206611592,
        "g": 0.07513148009015776,
        "duration": 545.4545454545454,
        "plotwidth": 400,
        "plotheight": 400,
        "x0": 200,
        "y0": 200
    },
    "funcparams": {
        "a": 0.12727272727272726,
        "b": 0,
        "c": 0,
        "X0": 0,
        "Y0": 0
    }
}
</currentjson>
-->

<!--
<equation>





<h2>Filled Fermi Function</h2>
<p style="color:blue">

</p><p class="bigeq">
$$
Y = \frac{1}{2}(\tanh{X} + 1)$$
</p>
<p></p>

$$
X = g(x - x_0) - X_0
$$
$$
Y = f(X)
$$
    
$$
y = y_0 - G(Y - Y_0)
$$


<p>
    X and Y, and $X_0$ and $Y_0$ in physical units of the System. x and y and x0 and y0 in pixels.  G is in pixels per Y unit and g is in X units per pixel. 
</p>






</equation>
-->
	<path d = "M0 200 L1 199.99999999999142 L2 199.99999999999002 L3 199.9999999999884 L4 199.9999999999865 L5 199.9999999999843 L6 199.99999999998178 L7 199.99999999997883 L8 199.9999999999754 L9 199.9999999999714 L10 199.99999999996678 L11 199.99999999996137 L12 199.99999999995512 L13 199.99999999994785 L14 199.99999999993938 L15 199.99999999992954 L16 199.99999999991815 L17 199.99999999990484 L18 199.99999999988944 L19 199.9999999998715 L20 199.99999999985067 L21 199.99999999982646 L22 199.99999999979832 L23 199.9999999997656 L24 199.9999999997276 L25 199.99999999968344 L26 199.99999999963214 L27 199.99999999957248 L28 199.99999999950316 L29 199.9999999994226 L30 199.999999999329 L31 199.9999999992202 L32 199.99999999909375 L33 199.9999999989468 L34 199.99999999877605 L35 199.9999999985776 L36 199.99999999834696 L37 199.99999999807895 L38 199.99999999776747 L39 199.9999999974055 L40 199.99999999698483 L41 199.99999999649594 L42 199.9999999959278 L43 199.99999999526753 L44 199.9999999945002 L45 199.99999999360847 L46 199.99999999257216 L47 199.99999999136782 L48 199.9999999899682 L49 199.9999999883416 L50 199.99999998645134 L51 199.99999998425457 L52 199.9999999817016 L53 199.9999999787347 L54 199.99999997528676 L55 199.99999997127975 L56 199.99999996662305 L57 199.9999999612113 L58 199.99999995492212 L59 199.99999994761322 L60 199.99999993911922 L61 199.99999992924802 L62 199.9999999177763 L63 199.9999999044446 L64 199.99999988895124 L65 199.99999987094583 L66 199.999999850021 L67 199.99999982570344 L68 199.99999979744302 L69 199.9999997646005 L70 199.99999972643286 L71 199.99999968207672 L72 199.99999963052872 L73 199.99999957062272 L74 199.99999950100357 L75 199.9999994200964 L76 199.99999932607093 L77 199.9999992168002 L78 199.99999908981235 L79 199.9999989422347 L80 199.99999877072887 L81 199.9999985714151 L82 199.9999983397846 L83 199.99999807059766 L84 199.99999775776473 L85 199.99999739420917 L86 199.9999969717068 L87 199.99999648069996 L88 199.9999959100814 L89 199.99999524694286 L90 199.99999447628318 L91 199.9999935806689 L92 199.99999253983995 L93 199.99999133025122 L94 199.99998992454005 L95 199.99998829090723 L96 199.9999863923976 L97 199.9999841860641 L98 199.99998162199628 L99 199.9999786421912 L100 199.9999751792414 L101 199.99997115481 L102 199.99996647785858 L103 199.99996104258784 L104 199.99995472604428 L105 199.99994738533886 L106 199.99993885441452 L107 199.99992894029003 L108 199.99991741869437 L109 199.99990402899348 L110 199.9998884682946 L111 199.99987038459446 L112 199.99984936881665 L113 199.99982494555817 L114 199.9997965623355 L115 199.99976357708707 L116 199.9997252436499 L117 199.99968069488128 L118 199.9996289230441 L119 199.99956875701253 L120 199.99949883578188 L121 199.9994175776844 L122 199.9993231446145 L123 199.9992134004546 L124 199.99908586276197 L125 199.99893764662414 L126 199.99876539941417 L127 199.99856522497112 L128 199.9983325954928 L129 199.99806224915 L130 199.99774807111012 L131 199.9973829552835 L132 199.99695864367138 L133 199.9964655396906 L134 199.99589249126413 L135 199.9952265387867 L136 199.99445262228647 L137 199.9935532411879 L138 199.99250805901934 L139 199.99129344417747 L140 199.98988193643314 L141 199.98824162720936 L142 199.98633543974546 L143 199.98412029304436 L144 199.98154613093317 L145 199.9785547946018 L146 199.97507871355796 L147 199.9710393859847 L148 199.96634561493156 L149 199.96089146152931 L150 199.95455387039837 L151 199.9471899155174 L152 199.93863360692714 L153 199.92869218964043 L154 199.91714185590223 L155 199.9037227803621 L156 199.88813337468682 L157 199.87002364354674 L158 199.84898750770643 L159 199.82455394212127 L160 199.79617675757453 L161 199.76322283367602 L162 199.72495858937418 L163 199.68053445513752 L164 199.62896708963513 L165 199.5691190645576 L166 199.49967572630183 L167 199.41911893558859 L168 199.32569738982957 L169 199.2173932538213 L170 199.09188486960105 L171 198.94650539586522 L172 198.77819735386572 L173 198.58346324610937 L174 198.35831268615416 L175 198.09820685584106 L176 197.7980016174882 L177 197.4518912823716 L178 197.0533559026165 L179 196.59511603629235 L180 196.06910024806234 L181 195.46643214033324 L182 194.77744541414256 L183 193.991737227715 L184 193.0982717630141 L185 192.08554712710975 L186 190.94183907720182 L187 189.65553400444443 L188 188.21556047724545 L189 186.6119227420291 L190 184.83633035161867 L191 182.8829053446274 L192 180.74893259736268 L193 178.43560153035307 L194 175.94867083111578 L195 173.2989758688135 L196 170.50269520751792 L197 167.58130185924753 L198 164.5611487404487 L199 161.47267530851414 L200 158.34926896694205 L201 155.22586262536993 L202 152.13738919343538 L203 149.11723607463654 L204 146.19584272636618 L205 143.39956206507057 L206 140.7498671027683 L207 138.26293640353103 L208 135.94960533652142 L209 133.81563258925667 L210 131.8622075822654 L211 130.086615191855 L212 128.48297745663862 L213 127.04300392943965 L214 125.75669885668225 L215 124.61299080677435 L216 123.60026617086996 L217 122.70680070616909 L218 121.92109251974152 L219 121.23210579355084 L220 120.62943768582173 L221 120.10342189759172 L222 119.6451820312676 L223 119.24664665151249 L224 118.90053631639589 L225 118.60033107804304 L226 118.3402252477299 L227 118.11507468777472 L228 117.92034058001838 L229 117.75203253801887 L230 117.60665306428302 L231 117.48114468006277 L232 117.37284054405453 L233 117.27941899829548 L234 117.19886220758224 L235 117.12941886932647 L236 117.06957084424894 L237 117.01800347874656 L238 116.9735793445099 L239 116.93531510020804 L240 116.90236117630955 L241 116.87398399176281 L242 116.84955042617766 L243 116.82851429033734 L244 116.81040455919728 L245 116.79481515352198 L246 116.78139607798187 L247 116.76984574424365 L248 116.75990432695696 L249 116.75134801836666 L250 116.74398406348573 L251 116.73764647235477 L252 116.73219231895253 L253 116.72749854789936 L254 116.72345922032612 L255 116.71998313928229 L256 116.71699180295091 L257 116.71441764083974 L258 116.71220249413862 L259 116.71029630667473 L260 116.70865599745095 L261 116.70724448970662 L262 116.70602987486474 L263 116.70498469269619 L264 116.70408531159762 L265 116.70331139509739 L266 116.70264544261995 L267 116.70207239419348 L268 116.7015792902127 L269 116.70115497860057 L270 116.70078986277395 L271 116.70047568473409 L272 116.70020533839129 L273 116.69997270891295 L274 116.69977253446991 L275 116.69960028725993 L276 116.6994520711221 L277 116.69932453342949 L278 116.69921478926959 L279 116.6991203561997 L280 116.69903909810222 L281 116.69896917687156 L282 116.69890901083997 L283 116.69885723900282 L284 116.69881269023419 L285 116.69877435679703 L286 116.6987413715486 L287 116.69871298832591 L288 116.69868856506743 L289 116.69866754928962 L290 116.69864946558947 L291 116.69863390489058 L292 116.69862051518972 L293 116.69860899359405 L294 116.69859907946956 L295 116.69859054854523 L296 116.6985832078398 L297 116.69857689129624 L298 116.69857145602552 L299 116.69856677907408 L300 116.69856275464267 L301 116.69855929169287 L302 116.69855631188781 L303 116.69855374781999 L304 116.6985515414865 L305 116.69854964297686 L306 116.69854800934402 L307 116.69854660363286 L308 116.69854539404415 L309 116.69854435321517 L310 116.69854345760092 L311 116.69854268694124 L312 116.69854202380269 L313 116.69854145318412 L314 116.69854096217729 L315 116.69854053967491 L316 116.69854017611934 L317 116.69853986328644 L318 116.69853959409946 L319 116.69853936246899 L320 116.69853916315522 L321 116.69853899164937 L322 116.69853884407173 L323 116.69853871708388 L324 116.69853860781315 L325 116.6985385137877 L326 116.69853843288051 L327 116.69853836326138 L328 116.69853830335536 L329 116.69853825180735 L330 116.69853820745124 L331 116.6985381692836 L332 116.69853813644104 L333 116.69853810818064 L334 116.69853808386308 L335 116.69853806293827 L336 116.69853804493285 L337 116.6985380294395 L338 116.69853801610778 L339 116.69853800463606 L340 116.69853799476486 L341 116.69853798627088 L342 116.69853797896195 L343 116.69853797267278 L344 116.69853796726103 L345 116.69853796260433 L346 116.69853795859733 L347 116.69853795514939 L348 116.69853795218249 L349 116.69853794962953 L350 116.69853794743274 L351 116.69853794554245 L352 116.69853794391591 L353 116.69853794251628 L354 116.69853794131193 L355 116.69853794027561 L356 116.69853793938387 L357 116.69853793861655 L358 116.69853793795629 L359 116.69853793738814 L360 116.69853793689926 L361 116.69853793647859 L362 116.69853793611661 L363 116.69853793580512 L364 116.6985379355371 L365 116.69853793530648 L366 116.69853793510802 L367 116.69853793493726 L368 116.69853793479032 L369 116.69853793466389 L370 116.69853793455509 L371 116.69853793446147 L372 116.69853793438092 L373 116.6985379343116 L374 116.69853793425196 L375 116.69853793420063 L376 116.69853793415646 L377 116.69853793411846 L378 116.69853793408576 L379 116.69853793405761 L380 116.69853793403341 L381 116.69853793401258 L382 116.69853793399466 L383 116.69853793397922 L384 116.69853793396595 L385 116.69853793395453 L386 116.69853793394469 L387 116.69853793393624 L388 116.69853793392896 L389 116.69853793392271 L390 116.69853793391732 L391 116.69853793391268 L392 116.69853793390868 L393 116.69853793390526 L394 116.6985379339023 L395 116.69853793389976 L396 116.69853793389757 L397 116.6985379338957 L398 116.69853793389407 L399 116.69853793389268 " stroke = "red" stroke-width = "1" fill = "red" />	<path d = "M0 200 L1 199.99999999999142 L2 199.99999999999002 L3 199.9999999999884 L4 199.9999999999865 L5 199.9999999999843 L6 199.99999999998178 L7 199.99999999997883 L8 199.9999999999754 L9 199.9999999999714 L10 199.99999999996678 L11 199.99999999996137 L12 199.99999999995512 L13 199.99999999994785 L14 199.99999999993938 L15 199.99999999992954 L16 199.99999999991815 L17 199.99999999990484 L18 199.99999999988944 L19 199.9999999998715 L20 199.99999999985067 L21 199.99999999982646 L22 199.99999999979832 L23 199.9999999997656 L24 199.9999999997276 L25 199.99999999968344 L26 199.99999999963214 L27 199.99999999957248 L28 199.99999999950316 L29 199.9999999994226 L30 199.999999999329 L31 199.9999999992202 L32 199.99999999909375 L33 199.9999999989468 L34 199.99999999877605 L35 199.9999999985776 L36 199.99999999834696 L37 199.99999999807895 L38 199.99999999776747 L39 199.9999999974055 L40 199.99999999698483 L41 199.99999999649594 L42 199.9999999959278 L43 199.99999999526753 L44 199.9999999945002 L45 199.99999999360847 L46 199.99999999257216 L47 199.99999999136782 L48 199.9999999899682 L49 199.9999999883416 L50 199.99999998645134 L51 199.99999998425457 L52 199.9999999817016 L53 199.9999999787347 L54 199.99999997528676 L55 199.99999997127975 L56 199.99999996662305 L57 199.9999999612113 L58 199.99999995492212 L59 199.99999994761322 L60 199.99999993911922 L61 199.99999992924802 L62 199.9999999177763 L63 199.9999999044446 L64 199.99999988895124 L65 199.99999987094583 L66 199.999999850021 L67 199.99999982570344 L68 199.99999979744302 L69 199.9999997646005 L70 199.99999972643286 L71 199.99999968207672 L72 199.99999963052872 L73 199.99999957062272 L74 199.99999950100357 L75 199.9999994200964 L76 199.99999932607093 L77 199.9999992168002 L78 199.99999908981235 L79 199.9999989422347 L80 199.99999877072887 L81 199.9999985714151 L82 199.9999983397846 L83 199.99999807059766 L84 199.99999775776473 L85 199.99999739420917 L86 199.9999969717068 L87 199.99999648069996 L88 199.9999959100814 L89 199.99999524694286 L90 199.99999447628318 L91 199.9999935806689 L92 199.99999253983995 L93 199.99999133025122 L94 199.99998992454005 L95 199.99998829090723 L96 199.9999863923976 L97 199.9999841860641 L98 199.99998162199628 L99 199.9999786421912 L100 199.9999751792414 L101 199.99997115481 L102 199.99996647785858 L103 199.99996104258784 L104 199.99995472604428 L105 199.99994738533886 L106 199.99993885441452 L107 199.99992894029003 L108 199.99991741869437 L109 199.99990402899348 L110 199.9998884682946 L111 199.99987038459446 L112 199.99984936881665 L113 199.99982494555817 L114 199.9997965623355 L115 199.99976357708707 L116 199.9997252436499 L117 199.99968069488128 L118 199.9996289230441 L119 199.99956875701253 L120 199.99949883578188 L121 199.9994175776844 L122 199.9993231446145 L123 199.9992134004546 L124 199.99908586276197 L125 199.99893764662414 L126 199.99876539941417 L127 199.99856522497112 L128 199.9983325954928 L129 199.99806224915 L130 199.99774807111012 L131 199.9973829552835 L132 199.99695864367138 L133 199.9964655396906 L134 199.99589249126413 L135 199.9952265387867 L136 199.99445262228647 L137 199.9935532411879 L138 199.99250805901934 L139 199.99129344417747 L140 199.98988193643314 L141 199.98824162720936 L142 199.98633543974546 L143 199.98412029304436 L144 199.98154613093317 L145 199.9785547946018 L146 199.97507871355796 L147 199.9710393859847 L148 199.96634561493156 L149 199.96089146152931 L150 199.95455387039837 L151 199.9471899155174 L152 199.93863360692714 L153 199.92869218964043 L154 199.91714185590223 L155 199.9037227803621 L156 199.88813337468682 L157 199.87002364354674 L158 199.84898750770643 L159 199.82455394212127 L160 199.79617675757453 L161 199.76322283367602 L162 199.72495858937418 L163 199.68053445513752 L164 199.62896708963513 L165 199.5691190645576 L166 199.49967572630183 L167 199.41911893558859 L168 199.32569738982957 L169 199.2173932538213 L170 199.09188486960105 L171 198.94650539586522 L172 198.77819735386572 L173 198.58346324610937 L174 198.35831268615416 L175 198.09820685584106 L176 197.7980016174882 L177 197.4518912823716 L178 197.0533559026165 L179 196.59511603629235 L180 196.06910024806234 L181 195.46643214033324 L182 194.77744541414256 L183 193.991737227715 L184 193.0982717630141 L185 192.08554712710975 L186 190.94183907720182 L187 189.65553400444443 L188 188.21556047724545 L189 186.6119227420291 L190 184.83633035161867 L191 182.8829053446274 L192 180.74893259736268 L193 178.43560153035307 L194 175.94867083111578 L195 173.2989758688135 L196 170.50269520751792 L197 167.58130185924753 L198 164.5611487404487 L199 161.47267530851414 L200 158.34926896694205 L201 155.22586262536993 L202 152.13738919343538 L203 149.11723607463654 L204 146.19584272636618 L205 143.39956206507057 L206 140.7498671027683 L207 138.26293640353103 L208 135.94960533652142 L209 133.81563258925667 L210 131.8622075822654 L211 130.086615191855 L212 128.48297745663862 L213 127.04300392943965 L214 125.75669885668225 L215 124.61299080677435 L216 123.60026617086996 L217 122.70680070616909 L218 121.92109251974152 L219 121.23210579355084 L220 120.62943768582173 L221 120.10342189759172 L222 119.6451820312676 L223 119.24664665151249 L224 118.90053631639589 L225 118.60033107804304 L226 118.3402252477299 L227 118.11507468777472 L228 117.92034058001838 L229 117.75203253801887 L230 117.60665306428302 L231 117.48114468006277 L232 117.37284054405453 L233 117.27941899829548 L234 117.19886220758224 L235 117.12941886932647 L236 117.06957084424894 L237 117.01800347874656 L238 116.9735793445099 L239 116.93531510020804 L240 116.90236117630955 L241 116.87398399176281 L242 116.84955042617766 L243 116.82851429033734 L244 116.81040455919728 L245 116.79481515352198 L246 116.78139607798187 L247 116.76984574424365 L248 116.75990432695696 L249 116.75134801836666 L250 116.74398406348573 L251 116.73764647235477 L252 116.73219231895253 L253 116.72749854789936 L254 116.72345922032612 L255 116.71998313928229 L256 116.71699180295091 L257 116.71441764083974 L258 116.71220249413862 L259 116.71029630667473 L260 116.70865599745095 L261 116.70724448970662 L262 116.70602987486474 L263 116.70498469269619 L264 116.70408531159762 L265 116.70331139509739 L266 116.70264544261995 L267 116.70207239419348 L268 116.7015792902127 L269 116.70115497860057 L270 116.70078986277395 L271 116.70047568473409 L272 116.70020533839129 L273 116.69997270891295 L274 116.69977253446991 L275 116.69960028725993 L276 116.6994520711221 L277 116.69932453342949 L278 116.69921478926959 L279 116.6991203561997 L280 116.69903909810222 L281 116.69896917687156 L282 116.69890901083997 L283 116.69885723900282 L284 116.69881269023419 L285 116.69877435679703 L286 116.6987413715486 L287 116.69871298832591 L288 116.69868856506743 L289 116.69866754928962 L290 116.69864946558947 L291 116.69863390489058 L292 116.69862051518972 L293 116.69860899359405 L294 116.69859907946956 L295 116.69859054854523 L296 116.6985832078398 L297 116.69857689129624 L298 116.69857145602552 L299 116.69856677907408 L300 116.69856275464267 L301 116.69855929169287 L302 116.69855631188781 L303 116.69855374781999 L304 116.6985515414865 L305 116.69854964297686 L306 116.69854800934402 L307 116.69854660363286 L308 116.69854539404415 L309 116.69854435321517 L310 116.69854345760092 L311 116.69854268694124 L312 116.69854202380269 L313 116.69854145318412 L314 116.69854096217729 L315 116.69854053967491 L316 116.69854017611934 L317 116.69853986328644 L318 116.69853959409946 L319 116.69853936246899 L320 116.69853916315522 L321 116.69853899164937 L322 116.69853884407173 L323 116.69853871708388 L324 116.69853860781315 L325 116.6985385137877 L326 116.69853843288051 L327 116.69853836326138 L328 116.69853830335536 L329 116.69853825180735 L330 116.69853820745124 L331 116.6985381692836 L332 116.69853813644104 L333 116.69853810818064 L334 116.69853808386308 L335 116.69853806293827 L336 116.69853804493285 L337 116.6985380294395 L338 116.69853801610778 L339 116.69853800463606 L340 116.69853799476486 L341 116.69853798627088 L342 116.69853797896195 L343 116.69853797267278 L344 116.69853796726103 L345 116.69853796260433 L346 116.69853795859733 L347 116.69853795514939 L348 116.69853795218249 L349 116.69853794962953 L350 116.69853794743274 L351 116.69853794554245 L352 116.69853794391591 L353 116.69853794251628 L354 116.69853794131193 L355 116.69853794027561 L356 116.69853793938387 L357 116.69853793861655 L358 116.69853793795629 L359 116.69853793738814 L360 116.69853793689926 L361 116.69853793647859 L362 116.69853793611661 L363 116.69853793580512 L364 116.6985379355371 L365 116.69853793530648 L366 116.69853793510802 L367 116.69853793493726 L368 116.69853793479032 L369 116.69853793466389 L370 116.69853793455509 L371 116.69853793446147 L372 116.69853793438092 L373 116.6985379343116 L374 116.69853793425196 L375 116.69853793420063 L376 116.69853793415646 L377 116.69853793411846 L378 116.69853793408576 L379 116.69853793405761 L380 116.69853793403341 L381 116.69853793401258 L382 116.69853793399466 L383 116.69853793397922 L384 116.69853793396595 L385 116.69853793395453 L386 116.69853793394469 L387 116.69853793393624 L388 116.69853793392896 L389 116.69853793392271 L390 116.69853793391732 L391 116.69853793391268 L392 116.69853793390868 L393 116.69853793390526 L394 116.6985379339023 L395 116.69853793389976 L396 116.69853793389757 L397 116.6985379338957 L398 116.69853793389407 L399 116.69853793389268 " stroke = "black" stroke-width = "6" fill = "none" /></svg>